<svg width="133" height="136" viewBox="0 0 133 136" fill="none" xmlns="http://www.w3.org/2000/svg">
<path d="M8.54999 26.3565L11.9401 25.7081L12.5885 29.0982L9.19841 29.7466L8.54999 26.3565Z" fill="#4584CC"/>
<path d="M5.2706 30.9846L3.47724 33.9337L0.528152 32.1403L2.32152 29.1912L5.2706 30.9846Z" fill="#4584CC"/>
<path d="M9.2926 33.3174L12.6493 34.1209L11.8459 37.4776L8.48914 36.6741L9.2926 33.3174Z" fill="#4584CC"/>
<path d="M12.3918 37.6094L12.1925 41.0551L8.74666 40.8558L8.94604 37.41L12.3918 37.6094Z" fill="#4584CC"/>
<path d="M5.14851 45.4396L1.94031 44.1665L3.2134 40.9583L6.4216 42.2314L5.14851 45.4396Z" fill="#4584CC"/>
<path d="M17.9246 36.8123L20.6597 38.9177L18.5543 41.6528L15.8193 39.5474L17.9246 36.8123Z" fill="#4584CC"/>
<path d="M14.1268 39.3157L17.3891 38.1883L18.5165 41.4505L15.2542 42.5779L14.1268 39.3157Z" fill="#4584CC"/>
<path d="M11.9866 52.586L12.556 55.9903L9.15168 56.5596L8.58235 53.1553L11.9866 52.586Z" fill="#4584CC"/>
<path d="M8.66152 56.8855L12.0915 56.5003L12.4768 59.9302L9.04679 60.3155L8.66152 56.8855Z" fill="#4584CC"/>
<path d="M9.21021 60.2157L12.5964 60.884L11.9281 64.2702L8.54185 63.6019L9.21021 60.2157Z" fill="#4584CC"/>
<path d="M8.22951 65.3832L11.2639 63.7384L12.9088 66.7728L9.87436 68.4176L8.22951 65.3832Z" fill="#4584CC"/>
<path d="M12.9875 70.2417L10.2405 72.3315L8.15076 69.5845L10.8978 67.4947L12.9875 70.2417Z" fill="#4584CC"/>
<path d="M5.29339 77.1103L3.37198 79.9776L0.504673 78.0562L2.42608 75.1889L5.29339 77.1103Z" fill="#4584CC"/>
<path d="M8.96036 79.4185L8.73383 75.9744L12.1779 75.7479L12.4045 79.192L8.96036 79.4185Z" fill="#4584CC"/>
<path d="M13.0076 81.5219L10.4656 83.8567L8.13073 81.3147L10.6727 78.9798L13.0076 81.5219Z" fill="#4584CC"/>
<path d="M12.9607 84.7659L11.0567 87.6448L8.17778 85.7408L10.0817 82.8619L12.9607 84.7659Z" fill="#4584CC"/>
<path d="M8.83063 87.3755L12.2821 87.3498L12.3078 90.8013L8.85634 90.827L8.83063 87.3755Z" fill="#4584CC"/>
<path d="M16.2685 26.1522L15.9795 29.5916L12.54 29.3026L12.8291 25.8631L16.2685 26.1522Z" fill="#4584CC"/>
<path d="M11.9898 31.2064L14.7603 29.1479L16.8188 31.9185L14.0482 33.9769L11.9898 31.2064Z" fill="#4584CC"/>
<path d="M5.60692 20.9093L3.09104 18.5463L5.45402 16.0304L7.96989 18.3934L5.60692 20.9093Z" fill="#4584CC"/>
<path d="M15.0771 36.8865L16.7503 39.9054L13.7315 41.5786L12.0582 38.5598L15.0771 36.8865Z" fill="#4584CC"/>
<path d="M14.0003 45.4746L11.9973 42.6637L14.8082 40.6607L16.8112 43.4716L14.0003 45.4746Z" fill="#4584CC"/>
<path d="M16.6468 47.8659L13.4411 49.1452L12.1617 45.9395L15.3674 44.6602L16.6468 47.8659Z" fill="#4584CC"/>
<path d="M11.9908 51.1009L14.0412 48.3243L16.8177 50.3746L14.7674 53.1512L11.9908 51.1009Z" fill="#4584CC"/>
<path d="M15.7526 52.5384L16.4387 55.9211L13.056 56.6072L12.3699 53.2245L15.7526 52.5384Z" fill="#4584CC"/>
<path d="M6.48207 61.7329L9.16199 63.9081L6.98683 66.588L4.30692 64.4128L6.48207 61.7329Z" fill="#4584CC"/>
<path d="M15.406 64.4685L12.1787 63.2446L13.4026 60.0174L16.6299 61.2413L15.406 64.4685Z" fill="#4584CC"/>
<path d="M8.86705 71.0991L5.54794 72.0461L4.60096 68.727L7.92007 67.78L8.86705 71.0991Z" fill="#4584CC"/>
<path d="M12.4788 68.4133L15.9041 67.9876L16.3297 71.4128L12.9045 71.8385L12.4788 68.4133Z" fill="#4584CC"/>
<path d="M12.199 72.7026L15.4498 71.5428L16.6096 74.7937L13.3587 75.9535L12.199 72.7026Z" fill="#4584CC"/>
<path d="M5.27538 81.3794L8.69092 81.8767L8.19362 85.2922L4.77807 84.7949L5.27538 81.3794Z" fill="#4584CC"/>
<path d="M12.6006 79.7741L16.0484 79.6146L16.208 83.0624L12.7601 83.222L12.6006 79.7741Z" fill="#4584CC"/>
<path d="M20.0339 78.9222L20.7355 75.5427L24.115 76.2443L23.4134 79.6238L20.0339 78.9222Z" fill="#4584CC"/>
<path d="M14.0242 91.4992L11.9934 88.7083L14.7844 86.6776L16.8151 89.4685L14.0242 91.4992Z" fill="#4584CC"/>
<path d="M17.1964 29.9339L16.0328 26.6844L19.2823 25.5208L20.4459 28.7703L17.1964 29.9339Z" fill="#4584CC"/>
<path d="M19.7854 33.4509L16.3508 33.1085L16.6933 29.6739L20.1278 30.0164L19.7854 33.4509Z" fill="#4584CC"/>
<path d="M20.5796 34.7049L18.932 37.7378L15.8991 36.0901L17.5467 33.0572L20.5796 34.7049Z" fill="#4584CC"/>
<path d="M15.9749 40.143L17.3289 36.9681L20.5038 38.3221L19.1498 41.497L15.9749 40.143Z" fill="#4584CC"/>
<path d="M26.7153 33.0938L28.2132 36.2034L25.1036 37.7012L23.6057 34.5916L26.7153 33.0938Z" fill="#4584CC"/>
<path d="M15.8529 46.3913L18.7508 44.5163L20.6258 47.4141L17.7279 49.2891L15.8529 46.3913Z" fill="#4584CC"/>
<path d="M6.74732 56.0587L3.91923 58.0373L1.94056 55.2092L4.76865 53.2306L6.74732 56.0587Z" fill="#4584CC"/>
<path d="M10.8902 39.5509L7.45977 39.1699L7.84071 35.7395L11.2712 36.1204L10.8902 39.5509Z" fill="#4584CC"/>
<path d="M25.6816 60.8378L23.4796 58.18L26.1374 55.9779L28.3395 58.6358L25.6816 60.8378Z" fill="#4584CC"/>
<path d="M19.689 60.2795L20.2028 63.6926L16.7897 64.2064L16.2759 60.7933L19.689 60.2795Z" fill="#4584CC"/>
<path d="M20.4058 67.2019L17.1154 68.2445L16.0729 64.9541L19.3632 63.9116L20.4058 67.2019Z" fill="#4584CC"/>
<path d="M20.499 68.9908L19.1617 72.1727L15.9797 70.8354L17.317 67.6534L20.499 68.9908Z" fill="#4584CC"/>
<path d="M16.9564 71.6719L20.3156 72.4652L19.5223 75.8244L16.1631 75.0311L16.9564 71.6719Z" fill="#4584CC"/>
<path d="M12.9759 81.0133L10.9741 83.8251L8.16231 81.8233L10.1641 79.0115L12.9759 81.0133Z" fill="#4584CC"/>
<path d="M20.2592 82.7883L16.8693 83.4381L16.2195 80.0482L19.6094 79.3985L20.2592 82.7883Z" fill="#4584CC"/>
<path d="M19.8504 87.0867L16.406 86.8644L16.6283 83.42L20.0727 83.6423L19.8504 87.0867Z" fill="#4584CC"/>
<path d="M21.4309 82.5401L18.268 81.1582L19.65 77.9954L22.8128 79.3773L21.4309 82.5401Z" fill="#4584CC"/>
<path d="M21.9717 18.4844L24.7978 16.5029L26.7793 19.329L23.9532 21.3105L21.9717 18.4844Z" fill="#4584CC"/>
<path d="M19.8942 32.6593L20.9775 29.3822L24.2547 30.4656L23.1713 33.7427L19.8942 32.6593Z" fill="#4584CC"/>
<path d="M25.7403 23.7772L29.0927 22.956L29.914 26.3084L26.5615 27.1297L25.7403 23.7772Z" fill="#4584CC"/>
<path d="M5.03428 47.5036L4.98248 44.0525L8.43365 44.0007L8.48545 47.4518L5.03428 47.5036Z" fill="#4584CC"/>
<path d="M20.12 41.6058L23.5362 41.1132L24.0288 44.5294L20.6126 45.022L20.12 41.6058Z" fill="#4584CC"/>
<path d="M19.9627 45.6791L23.298 44.7909L24.1861 48.1263L20.8508 49.0144L19.9627 45.6791Z" fill="#4584CC"/>
<path d="M24.0104 52.2239L20.5883 52.6738L20.1384 49.2516L23.5605 48.8017L24.0104 52.2239Z" fill="#4584CC"/>
<path d="M24.4521 55.1236L21.5236 56.9505L19.6967 54.022L22.6252 52.1951L24.4521 55.1236Z" fill="#4584CC"/>
<path d="M22.9258 60.6952L19.7871 59.2593L21.223 56.1206L24.3617 57.5564L22.9258 60.6952Z" fill="#4584CC"/>
<path d="M24.1696 63.4946L20.8228 64.3382L19.9792 60.9913L23.3261 60.1477L24.1696 63.4946Z" fill="#4584CC"/>
<path d="M19.6372 65.9497L22.2027 63.6408L24.5117 66.2063L21.9461 68.5153L19.6372 65.9497Z" fill="#4584CC"/>
<path d="M20.2644 71.5503L20.4372 68.1031L23.8844 68.2759L23.7116 71.7231L20.2644 71.5503Z" fill="#4584CC"/>
<path d="M23.3814 71.687L24.1356 75.0551L20.7674 75.8093L20.0132 72.4412L23.3814 71.687Z" fill="#4584CC"/>
<path d="M22.0991 80.0237L19.6339 77.6079L22.0497 75.1427L24.5149 77.5585L22.0991 80.0237Z" fill="#4584CC"/>
<path d="M24.4088 82.1305L21.3622 83.7526L19.74 80.706L22.7866 79.0839L24.4088 82.1305Z" fill="#4584CC"/>
<path d="M24.2645 84.1762L23.1515 87.4434L19.8843 86.3304L20.9973 83.0632L24.2645 84.1762Z" fill="#4584CC"/>
<path d="M24.4295 88.4481L22.7147 91.4435L19.7193 89.7287L21.4341 86.7333L24.4295 88.4481Z" fill="#4584CC"/>
<path d="M26.5297 30.0879L23.549 28.3476L25.2893 25.3669L28.27 27.1072L26.5297 30.0879Z" fill="#4584CC"/>
<path d="M23.8712 32.9048L24.5671 29.5241L27.9478 30.22L27.2519 33.6007L23.8712 32.9048Z" fill="#4584CC"/>
<path d="M29.2531 28.7836L26.0038 27.6193L27.1681 24.3701L30.4173 25.5343L29.2531 28.7836Z" fill="#4584CC"/>
<path d="M24.9121 37.005L28.137 38.2352L26.9068 41.4601L23.6819 40.2299L24.9121 37.005Z" fill="#4584CC"/>
<path d="M14.653 26.6683L16.5074 23.7572L19.4185 25.6116L17.5641 28.5227L14.653 26.6683Z" fill="#4584CC"/>
<path d="M37.284 30.2057L38.004 26.8301L41.3796 27.55L40.6597 30.9257L37.284 30.2057Z" fill="#4584CC"/>
<path d="M26.4578 53.116L23.5312 51.2861L25.3611 48.3595L28.2877 50.1894L26.4578 53.116Z" fill="#4584CC"/>
<path d="M32.32 56.6633L31.4891 53.3133L34.8391 52.4823L35.67 55.8324L32.32 56.6633Z" fill="#4584CC"/>
<path d="M33.9059 49.0137L30.7017 50.2969L29.4185 47.0927L32.6227 45.8095L33.9059 49.0137Z" fill="#4584CC"/>
<path d="M26.4631 59.8659L28.2865 62.7966L25.3558 64.6199L23.5325 61.6893L26.4631 59.8659Z" fill="#4584CC"/>
<path d="M23.978 67.57L24.4175 64.1465L27.841 64.586L27.4014 68.0095L23.978 67.57Z" fill="#4584CC"/>
<path d="M23.916 60.954L26.4311 63.3178L24.0674 65.8329L21.5522 63.4692L23.916 60.954Z" fill="#4584CC"/>
<path d="M40.6817 65.4271L37.2986 64.7429L37.9827 61.3599L41.3658 62.044L40.6817 65.4271Z" fill="#4584CC"/>
<path d="M24.3101 79.4267L24.066 75.9838L27.5089 75.7397L27.753 79.1826L24.3101 79.4267Z" fill="#4584CC"/>
<path d="M23.9827 82.9164L24.4114 79.4915L27.8362 79.9202L27.4076 83.345L23.9827 82.9164Z" fill="#4584CC"/>
<path d="M23.9181 83.8423L27.3205 83.2619L27.9009 86.6643L24.4985 87.2447L23.9181 83.8423Z" fill="#4584CC"/>
<path d="M25.857 91.5285L23.4694 89.0359L25.962 86.6483L28.3495 89.1409L25.857 91.5285Z" fill="#4584CC"/>
<path d="M29.6416 30.1658L27.3061 27.6244L29.8475 25.2889L32.183 27.8303L29.6416 30.1658Z" fill="#4584CC"/>
<path d="M32.1269 32.0926L29.2143 33.9448L27.3622 31.0322L30.2747 29.1801L32.1269 32.0926Z" fill="#4584CC"/>
<path d="M28.3906 33.3669L31.7752 34.0436L31.0985 37.4281L27.7139 36.7514L28.3906 33.3669Z" fill="#4584CC"/>
<path d="M31.5749 40.847L28.1301 41.0629L27.9142 37.6181L31.359 37.4022L31.5749 40.847Z" fill="#4584CC"/>
<path d="M31.6607 44.5792L28.2329 44.9838L27.8284 41.556L31.2561 41.1515L31.6607 44.5792Z" fill="#4584CC"/>
<path d="M20.6381 48.7644L24.0477 49.3016L23.5105 52.7111L20.101 52.1739L20.6381 48.7644Z" fill="#4584CC"/>
<path d="M31.7753 49.384L31.0982 52.7685L27.7137 52.0915L28.3908 48.707L31.7753 49.384Z" fill="#4584CC"/>
<path d="M29.9556 47.0129L30.7847 43.6624L34.1352 44.4915L33.3061 47.842L29.9556 47.0129Z" fill="#4584CC"/>
<path d="M38.0999 56.0654L39.7572 59.0931L36.7295 60.7503L35.0722 57.7227L38.0999 56.0654Z" fill="#4584CC"/>
<path d="M31.5966 60.6534L31.3341 64.095L27.8925 63.8325L28.155 60.3909L31.5966 60.6534Z" fill="#4584CC"/>
<path d="M31.7002 67.5382L28.2844 68.0337L27.7889 64.6179L31.2047 64.1224L31.7002 67.5382Z" fill="#4584CC"/>
<path d="M28.2408 67.9907L31.6669 68.4094L31.2482 71.8355L27.8222 71.4168L28.2408 67.9907Z" fill="#4584CC"/>
<path d="M31.5 75.4437L28.049 75.5036L27.9891 72.0526L31.4401 71.9927L31.5 75.4437Z" fill="#4584CC"/>
<path d="M32.0403 76.7549L30.5728 79.879L27.4488 78.4115L28.9162 75.2874L32.0403 76.7549Z" fill="#4584CC"/>
<path d="M39.6175 80.3674L38.4656 83.6211L35.2119 82.4692L36.3638 79.2155L39.6175 80.3674Z" fill="#4584CC"/>
<path d="M28.3622 87.2648L27.7331 83.871L31.1269 83.2419L31.756 86.6357L28.3622 87.2648Z" fill="#4584CC"/>
<path d="M19.667 95.2384L21.6776 92.433L24.4831 94.4435L22.4725 97.249L19.667 95.2384Z" fill="#4584CC"/>
<path d="M31.183 28.1889L33.118 25.3308L35.9762 27.2658L34.0412 30.1239L31.183 28.1889Z" fill="#4584CC"/>
<path d="M36.7654 30.08L35.062 27.0781L38.0639 25.3747L39.7673 28.3766L36.7654 30.08Z" fill="#4584CC"/>
<path d="M41.7215 20.5224L41.935 17.0775L45.38 17.291L45.1665 20.7359L41.7215 20.5224Z" fill="#4584CC"/>
<path d="M34.8469 20.5309L38.0915 21.708L36.9145 24.9526L33.6698 23.7756L34.8469 20.5309Z" fill="#4584CC"/>
<path d="M35.6279 29.8999L39.0772 29.7756L39.2015 33.225L35.7521 33.3492L35.6279 29.8999Z" fill="#4584CC"/>
<path d="M41.0918 29.1269L43.6852 31.4045L41.4076 33.9979L38.8142 31.7203L41.0918 29.1269Z" fill="#4584CC"/>
<path d="M34.3975 33.098L35.8791 36.2154L32.7617 37.697L31.2801 34.5796L34.3975 33.098Z" fill="#4584CC"/>
<path d="M37.1173 32.9751L39.8371 35.1001L37.712 37.8199L34.9922 35.6949L37.1173 32.9751Z" fill="#4584CC"/>
<path d="M42.7917 33.5057L43.1415 36.9395L39.7077 37.2893L39.358 33.8555L42.7917 33.5057Z" fill="#4584CC"/>
<path d="M26.2949 39.5071L28.3193 42.3027L25.5237 44.3271L23.4993 41.5315L26.2949 39.5071Z" fill="#4584CC"/>
<path d="M40.5414 32.7086L37.419 31.2376L38.89 28.1152L42.0124 29.5862L40.5414 32.7086Z" fill="#4584CC"/>
<path d="M43.2704 37.8638L42.6185 41.2532L39.2291 40.6014L39.8809 37.2119L43.2704 37.8638Z" fill="#4584CC"/>
<path d="M33.3352 40.6393L36.008 42.8233L33.8239 45.496L31.1512 43.312L33.3352 40.6393Z" fill="#4584CC"/>
<path d="M35.5418 41.5027L38.9796 41.1948L39.2875 44.6326L35.8497 44.9405L35.5418 41.5027Z" fill="#4584CC"/>
<path d="M43.5841 42.3555L41.9619 45.402L38.9153 43.7798L40.5376 40.7332L43.5841 42.3555Z" fill="#4584CC"/>
<path d="M33.2184 49.3164L31.1659 46.5415L33.9408 44.4889L35.9933 47.2639L33.2184 49.3164Z" fill="#4584CC"/>
<path d="M39.8547 46.9546L37.3628 49.3428L34.9746 46.8508L37.4665 44.4626L39.8547 46.9546Z" fill="#4584CC"/>
<path d="M41.0845 49.3377L38.8147 46.7374L41.415 44.4677L43.6847 47.068L41.0845 49.3377Z" fill="#4584CC"/>
<path d="M26.8266 58.7522L23.6479 57.4072L24.993 54.2285L28.1717 55.5735L26.8266 58.7522Z" fill="#4584CC"/>
<path d="M35.288 51.9353L36.2172 48.6111L39.5413 49.5402L38.6122 52.8644L35.288 51.9353Z" fill="#4584CC"/>
<path d="M49.7403 45.3662L46.6212 43.8882L48.0991 40.7691L51.2183 42.247L49.7403 45.3662Z" fill="#4584CC"/>
<path d="M35.3206 56.2833L31.8692 56.3138L31.8386 52.8624L35.29 52.8318L35.3206 56.2833Z" fill="#4584CC"/>
<path d="M39.732 55.3387L36.6487 56.8901L35.0973 53.8069L38.1806 52.2555L39.732 55.3387Z" fill="#4584CC"/>
<path d="M41.811 52.1976L43.6249 55.1341L40.6884 56.948L38.8745 54.0115L41.811 52.1976Z" fill="#4584CC"/>
<path d="M31.1577 58.7098L33.2777 55.986L36.0015 58.106L33.8815 60.8298L31.1577 58.7098Z" fill="#4584CC"/>
<path d="M27.5218 63.251L28.7365 60.0202L31.9672 61.2349L30.7525 64.4657L27.5218 63.251Z" fill="#4584CC"/>
<path d="M41.5455 60.8305L38.8271 58.7036L40.954 55.9852L43.6724 58.1121L41.5455 60.8305Z" fill="#4584CC"/>
<path d="M33.1019 59.8495L35.973 61.7653L34.0573 64.6364L31.1862 62.7206L33.1019 59.8495Z" fill="#4584CC"/>
<path d="M39.2377 63.8657L35.7919 64.066L35.5917 60.6202L39.0374 60.4199L39.2377 63.8657Z" fill="#4584CC"/>
<path d="M39.9829 64.329L39.1637 60.9761L42.5166 60.1569L43.3358 63.5098L39.9829 64.329Z" fill="#4584CC"/>
<path d="M32.7522 68.3741L31.2835 65.2506L34.407 63.7819L35.8757 66.9054L32.7522 68.3741Z" fill="#4584CC"/>
<path d="M35.8178 67.9237L35.5689 64.4811L39.0115 64.2323L39.2604 67.6749L35.8178 67.9237Z" fill="#4584CC"/>
<path d="M41.9099 68.4276L38.9001 66.7382L40.5895 63.7284L43.5994 65.4178L41.9099 68.4276Z" fill="#4584CC"/>
<path d="M42.9099 68.1239L43.039 71.573L39.5899 71.7022L39.4607 68.2531L42.9099 68.1239Z" fill="#4584CC"/>
<path d="M34.9772 69.789L37.5387 67.4756L39.8521 70.0371L37.2906 72.3505L34.9772 69.789Z" fill="#4584CC"/>
<path d="M42.7537 67.9909L43.1719 71.417L39.7458 71.8353L39.3275 68.4091L42.7537 67.9909Z" fill="#4584CC"/>
<path d="M23.6958 75.4048L26.9373 74.2191L28.1229 77.4606L24.8814 78.6463L23.6958 75.4048Z" fill="#4584CC"/>
<path d="M37.6746 71.3214L39.8414 74.0081L37.1547 76.1749L34.9879 73.4882L37.6746 71.3214Z" fill="#4584CC"/>
<path d="M40.4379 71.4465L43.5514 72.9363L42.0615 76.0498L38.9481 74.56L40.4379 71.4465Z" fill="#4584CC"/>
<path d="M39.0688 78.6791L40.1537 75.4025L43.4303 76.4873L42.3454 79.764L39.0688 78.6791Z" fill="#4584CC"/>
<path d="M34.9831 77.3727L37.6251 75.1517L39.8462 77.7937L37.2042 80.0147L34.9831 77.3727Z" fill="#4584CC"/>
<path d="M38.8094 77.6189L41.214 75.1428L43.6901 77.5475L41.2854 80.0236L38.8094 77.6189Z" fill="#4584CC"/>
<path d="M35.0537 77.5553L35.5254 80.9745L32.1062 81.4462L31.6345 78.027L35.0537 77.5553Z" fill="#4584CC"/>
<path d="M38.6961 79.3411L39.4918 82.6997L36.1332 83.4954L35.3375 80.1369L38.6961 79.3411Z" fill="#4584CC"/>
<path d="M39.0973 82.5688L40.0992 79.2658L43.4022 80.2678L42.4002 83.5707L39.0973 82.5688Z" fill="#4584CC"/>
<path d="M31.1662 85.617L33.2159 82.84L35.993 84.8896L33.9433 87.6667L31.1662 85.617Z" fill="#4584CC"/>
<path d="M42.7233 76.9665L45.7015 75.2218L47.4462 78.2L44.468 79.9446L42.7233 76.9665Z" fill="#4584CC"/>
<path d="M43.5573 84.4584L42.0447 87.5609L38.9422 86.0483L40.4548 82.9458L43.5573 84.4584Z" fill="#4584CC"/>
<path d="M35.9249 88.4131L34.2549 91.4337L31.2343 89.7637L32.9043 86.7431L35.9249 88.4131Z" fill="#4584CC"/>
<path d="M32.1515 95.247L29.3389 97.2476L27.3383 94.435L30.1509 92.4344L32.1515 95.247Z" fill="#4584CC"/>
<path d="M43.5262 89.9685L40.3697 91.3648L38.9733 88.2083L42.1298 86.812L43.5262 89.9685Z" fill="#4584CC"/>
<path d="M4.46567 100.548L1.02769 100.242L1.33364 96.8041L4.77161 97.11L4.46567 100.548Z" fill="#4584CC"/>
<path d="M12.209 94.9509L12.3769 98.3983L8.9294 98.5662L8.76156 95.1187L12.209 94.9509Z" fill="#4584CC"/>
<path d="M16.5325 91.7289L15.5989 95.0517L12.276 94.1181L13.2097 90.7952L16.5325 91.7289Z" fill="#4584CC"/>
<path d="M11.976 96.5137L14.6491 94.3302L16.8326 97.0034L14.1594 99.1868L11.976 96.5137Z" fill="#4584CC"/>
<path d="M20.4389 93.981L17.1818 95.123L16.0398 91.8659L19.2969 90.7239L20.4389 93.981Z" fill="#4584CC"/>
<path d="M11.6208 104.714L8.36694 103.562L9.51821 100.309L12.7721 101.46L11.6208 104.714Z" fill="#4584CC"/>
<path d="M20.4006 94.6997L20.2982 91.2497L23.7482 91.1472L23.8506 94.5973L20.4006 94.6997Z" fill="#4584CC"/>
<path d="M24.141 98.057L20.7759 98.8251L20.0079 95.4601L23.3729 94.692L24.141 98.057Z" fill="#4584CC"/>
<path d="M35.8356 86.1847L32.6483 87.5092L31.3237 84.322L34.511 82.9974L35.8356 86.1847Z" fill="#4584CC"/>
<path d="M23.4694 96.7071L25.9609 94.3185L28.3496 96.81L25.858 99.1986L23.4694 96.7071Z" fill="#4584CC"/>
<path d="M36.9359 82.8602L39.808 84.7744L37.8937 87.6465L35.0216 85.7322L36.9359 82.8602Z" fill="#4584CC"/>
<path d="M27.5334 97.7917L28.7113 94.5474L31.9557 95.7253L30.7777 98.9697L27.5334 97.7917Z" fill="#4584CC"/>
<path d="M39.5572 91.1651L43.0081 91.2309L42.9422 94.6819L39.4913 94.616L39.5572 91.1651Z" fill="#4584CC"/>
<path d="M35.7102 94.6703L35.6678 91.219L39.1191 91.1766L39.1615 94.6279L35.7102 94.6703Z" fill="#4584CC"/>
<path d="M39.3275 94.4273L39.7459 91.0012L43.172 91.4196L42.7536 94.8457L39.3275 94.4273Z" fill="#4584CC"/>
<path d="M31.8389 98.4692L31.8689 95.0178L35.3203 95.0479L35.2903 98.4993L31.8389 98.4692Z" fill="#4584CC"/>
<path d="M36.9901 99.1619L35.0112 96.334L37.8392 94.3551L39.8181 97.1831L36.9901 99.1619Z" fill="#4584CC"/>
<path d="M50.8294 87.5685L50.4398 90.9979L47.0103 90.6084L47.3999 87.1789L50.8294 87.5685Z" fill="#4584CC"/>
<path d="M15.1865 91.004L13.6392 94.0892L10.5539 92.5419L12.1013 89.4566L15.1865 91.004Z" fill="#4584CC"/>
<path d="M15.1088 102.93L12.0676 101.298L13.6997 98.2569L16.741 99.8891L15.1088 102.93Z" fill="#4584CC"/>
<path d="M20.584 99.9159L18.917 102.938L15.8947 101.271L17.5617 98.2489L20.584 99.9159Z" fill="#4584CC"/>
<path d="M16.4723 107.643L13.1079 108.414L12.3373 105.049L15.7018 104.279L16.4723 107.643Z" fill="#4584CC"/>
<path d="M24.0345 99.0312L27.4719 98.7186L27.7845 102.156L24.3471 102.469L24.0345 99.0312Z" fill="#4584CC"/>
<path d="M23.8342 104.655L23.7665 108.106L20.3156 108.038L20.3834 104.587L23.8342 104.655Z" fill="#4584CC"/>
<path d="M31.2064 100.024L34.1491 98.2203L35.9528 101.163L33.0101 102.967L31.2064 100.024Z" fill="#4584CC"/>
<path d="M47.4876 93.3511L44.6571 95.3263L42.6819 92.4958L45.5124 90.5206L47.4876 93.3511Z" fill="#4584CC"/>
<path d="M39.0893 99.4581L42.3852 98.4332L43.4101 101.729L40.1143 102.754L39.0893 99.4581Z" fill="#4584CC"/>
<path d="M9.7254 106.719L8.2791 103.585L11.413 102.139L12.8593 105.272L9.7254 106.719Z" fill="#4584CC"/>
<path d="M16.0695 106.213L12.62 106.094L12.7391 102.644L16.1886 102.763L16.0695 106.213Z" fill="#4584CC"/>
<path d="M17.5014 102.102L20.5657 103.691L18.9773 106.755L15.913 105.167L17.5014 102.102Z" fill="#4584CC"/>
<path d="M24.4753 104.867L21.636 106.83L19.6735 103.99L22.5128 102.028L24.4753 104.867Z" fill="#4584CC"/>
<path d="M27.073 106.574L23.7641 105.592L24.7459 102.283L28.0549 103.265L27.073 106.574Z" fill="#4584CC"/>
<path d="M36.5183 99.0287L35.1443 95.8624L38.3106 94.4884L39.6846 97.6547L36.5183 99.0287Z" fill="#4584CC"/>
<path d="M34.6892 102.255L35.7534 105.538L32.47 106.602L31.4058 103.319L34.6892 102.255Z" fill="#4584CC"/>
<path d="M35.4612 102.966L38.8778 102.475L39.3681 105.892L35.9515 106.382L35.4612 102.966Z" fill="#4584CC"/>
<path d="M43.1077 102.846L42.8324 106.287L39.3918 106.011L39.6671 102.571L43.1077 102.846Z" fill="#4584CC"/>
<path d="M9.92923 105.909L12.9244 107.624L11.2092 110.619L8.214 108.904L9.92923 105.909Z" fill="#4584CC"/>
<path d="M9.03816 113.21L7.54089 116.32L4.431 114.823L5.92827 111.713L9.03816 113.21Z" fill="#4584CC"/>
<path d="M26.3032 97.1251L24.7758 100.22L21.6806 98.693L23.2079 95.5977L26.3032 97.1251Z" fill="#4584CC"/>
<path d="M19.787 109.115L21.2234 105.976L24.3619 107.413L22.9254 110.551L19.787 109.115Z" fill="#4584CC"/>
<path d="M34.1705 98.2256L35.9478 101.184L32.989 102.962L31.2117 100.003L34.1705 98.2256Z" fill="#4584CC"/>
<path d="M35.9663 106.299L39.3791 106.815L38.8631 110.228L35.4503 109.712L35.9663 106.299Z" fill="#4584CC"/>
<path d="M35.9615 107.732L34.1118 110.646L31.1977 108.796L33.0474 105.882L35.9615 107.732Z" fill="#4584CC"/>
<path d="M37.3624 105.824L39.8547 108.211L37.4669 110.704L34.9746 108.316L37.3624 105.824Z" fill="#4584CC"/>
<path d="M50.274 102.624L46.8894 101.948L47.5657 98.5631L50.9504 99.2395L50.274 102.624Z" fill="#4584CC"/>
<path d="M1.65041 119.948L0.80275 116.602L4.1486 115.755L4.99626 119.1L1.65041 119.948Z" fill="#4584CC"/>
<path d="M12.5468 113.682L12.8211 110.241L16.2617 110.516L15.9875 113.956L12.5468 113.682Z" fill="#4584CC"/>
<path d="M31.2625 91.6663L34.0697 93.6745L32.0614 96.4817L29.2542 94.4734L31.2625 91.6663Z" fill="#4584CC"/>
<path d="M23.8218 110.395L23.7783 113.846L20.3271 113.803L20.3705 110.351L23.8218 110.395Z" fill="#4584CC"/>
<path d="M25.9458 109.658L28.3498 112.135L25.8732 114.539L23.4691 112.062L25.9458 109.658Z" fill="#4584CC"/>
<path d="M32.1784 111.918L29.9255 114.533L27.3106 112.28L29.5635 109.665L32.1784 111.918Z" fill="#4584CC"/>
<path d="M41.4133 114.534L38.8147 112.262L41.0864 109.664L43.685 111.935L41.4133 114.534Z" fill="#4584CC"/>
<path d="M39.6552 111.131L38.3825 114.339L35.1742 113.067L36.4468 109.858L39.6552 111.131Z" fill="#4584CC"/>
<path d="M49.4077 106.82L46.5285 104.917L48.4319 102.037L51.3111 103.941L49.4077 106.82Z" fill="#4584CC"/>
<path d="M9.38542 118.068L8.43491 114.75L11.753 113.8L12.7035 117.118L9.38542 118.068Z" fill="#4584CC"/>
<path d="M21.9316 110.7L19.6381 108.121L22.2175 105.827L24.511 108.407L21.9316 110.7Z" fill="#4584CC"/>
<path d="M12.3287 123.378L8.87778 123.446L8.81034 119.995L12.2612 119.927L12.3287 123.378Z" fill="#4584CC"/>
<path d="M24.4948 115.62L22.3883 118.354L19.654 116.248L21.7606 113.513L24.4948 115.62Z" fill="#4584CC"/>
<path d="M31.935 114.131L35.3829 114.289L35.2246 117.737L31.7766 117.579L31.935 114.131Z" fill="#4584CC"/>
<path d="M32.1816 116.065L29.6137 118.371L27.3074 115.803L29.8753 113.497L32.1816 116.065Z" fill="#4584CC"/>
<path d="M38.1904 107.736L37.1751 104.437L40.474 103.422L41.4892 106.721L38.1904 107.736Z" fill="#4584CC"/>
<path d="M39.5328 117.146L36.2022 118.052L35.2965 114.721L38.6272 113.816L39.5328 117.146Z" fill="#4584CC"/>
<path d="M42.4538 118.057L39.1268 117.138L40.0457 113.811L43.3727 114.73L42.4538 118.057Z" fill="#4584CC"/>
<path d="M2.59158 123.1L5.32082 125.213L3.20788 127.943L0.478638 125.83L2.59158 123.1Z" fill="#4584CC"/>
<path d="M14.9347 117.387L16.7866 120.299L13.8738 122.151L12.022 119.238L14.9347 117.387Z" fill="#4584CC"/>
<path d="M23.5061 119.344L26.3345 117.366L28.3127 120.194L25.4843 122.172L23.5061 119.344Z" fill="#4584CC"/>
<path d="M28.1188 111.837L25.4039 109.706L27.5352 106.991L30.2501 109.122L28.1188 111.837Z" fill="#4584CC"/>
<path d="M25.4112 122.158L23.5202 119.271L26.4077 117.38L28.2987 120.267L25.4112 122.158Z" fill="#4584CC"/>
<path d="M29.7488 122.21L27.3039 119.773L29.7403 117.328L32.1852 119.765L29.7488 122.21Z" fill="#4584CC"/>
<path d="M32.7745 122.073L31.2756 118.964L34.3847 117.465L35.8836 120.574L32.7745 122.073Z" fill="#4584CC"/>
<path d="M45.3375 122.196L42.6574 120.021L44.8323 117.341L47.5124 119.516L45.3375 122.196Z" fill="#4584CC"/>
<path d="M41.5209 122.194L38.8242 120.04L40.9785 117.343L43.6752 119.498L41.5209 122.194Z" fill="#4584CC"/>
<path d="M12.5352 122.158L12.0154 125.57L8.60319 125.05L9.12306 121.638L12.5352 122.158Z" fill="#4584CC"/>
<path d="M12.7354 121.823L16.1851 121.935L16.0732 125.385L12.6234 125.273L12.7354 121.823Z" fill="#4584CC"/>
<path d="M20.5588 122.845L18.9987 125.923L15.9199 124.363L17.48 121.285L20.5588 122.845Z" fill="#4584CC"/>
<path d="M16.2821 127.797L15.9639 131.234L12.527 130.916L12.8452 127.479L16.2821 127.797Z" fill="#4584CC"/>
<path d="M32.6975 121.328L35.8552 122.722L34.4616 125.88L31.3039 124.486L32.6975 121.328Z" fill="#4584CC"/>
<path d="M30.7997 121.403L31.9453 124.659L28.6893 125.805L27.5438 122.549L30.7997 121.403Z" fill="#4584CC"/>
<path d="M33.9153 121.187L35.997 123.94L33.2439 126.021L31.1622 123.268L33.9153 121.187Z" fill="#4584CC"/>
<path d="M43.293 114.277L46.7419 114.142L46.8763 117.591L43.4274 117.726L43.293 114.277Z" fill="#4584CC"/>
<path d="M40.9546 126.027L38.827 123.309L41.5448 121.181L43.6724 123.899L40.9546 126.027Z" fill="#4584CC"/>
<path d="M16.3464 121.31L16.6988 117.876L20.1323 118.228L19.7799 121.662L16.3464 121.31Z" fill="#4584CC"/>
<path d="M8.22171 131.256L8.66988 134.679L5.24754 135.127L4.79937 131.705L8.22171 131.256Z" fill="#4584CC"/>
<path d="M25.7783 117.332L28.3465 119.638L26.0405 122.206L23.4723 119.9L25.7783 117.332Z" fill="#4584CC"/>
<path d="M22.4159 129.856L19.6578 127.781L21.7329 125.022L24.491 127.098L22.4159 129.856Z" fill="#4584CC"/>
<path d="M24.0854 125.817L27.531 125.615L27.7335 129.061L24.2879 129.263L24.0854 125.817Z" fill="#4584CC"/>
<path d="M20.6977 135.207L20.0596 131.815L23.4517 131.177L24.0897 134.569L20.6977 135.207Z" fill="#4584CC"/>
<path d="M34.7914 125.321L35.6981 128.651L32.3678 129.558L31.4611 126.227L34.7914 125.321Z" fill="#4584CC"/>
<path d="M35.6943 129.17L35.6835 125.719L39.135 125.708L39.1459 129.159L35.6943 129.17Z" fill="#4584CC"/>
<path d="M40.4013 129.727L38.9613 126.591L42.0981 125.151L43.5381 128.287L40.4013 129.727Z" fill="#4584CC"/>
<path d="M9.62379 133.524L8.31915 130.329L11.5146 129.024L12.8193 132.22L9.62379 133.524Z" fill="#4584CC"/>
<path d="M12.4675 132.759L12.9192 129.337L16.3411 129.789L15.8894 133.211L12.4675 132.759Z" fill="#4584CC"/>
<path d="M19.4211 133.41L16.1039 132.456L17.0576 129.139L20.3748 130.092L19.4211 133.41Z" fill="#4584CC"/>
<path d="M24.2469 130.162L23.1866 133.447L19.9019 132.386L20.9622 129.102L24.2469 130.162Z" fill="#4584CC"/>
<path d="M26.62 128.939L28.2444 131.985L25.1989 133.609L23.5746 130.564L26.62 128.939Z" fill="#4584CC"/>
<path d="M27.4155 130.545L30.474 128.945L32.0736 132.004L29.0151 133.603L27.4155 130.545Z" fill="#4584CC"/>
<path d="M34.8266 129.176L35.6776 132.521L32.3325 133.372L31.4816 130.027L34.8266 129.176Z" fill="#4584CC"/>
<path d="M37.5531 128.837L39.8514 131.413L37.2763 133.711L34.978 131.136L37.5531 128.837Z" fill="#4584CC"/>
<path d="M40.7793 128.879L43.6446 130.804L41.7201 133.669L38.8549 131.745L40.7793 128.879Z" fill="#4584CC"/>
<path d="M48.4037 8.73424L50.6553 6.11827L53.2713 8.36993L51.0196 10.9859L48.4037 8.73424Z" fill="#3860AC"/>
<path d="M52.6534 10.7564L52.4684 14.203L49.0218 14.018L49.2068 10.5714L52.6534 10.7564Z" fill="#3860AC"/>
<path d="M49.6415 1.3758L52.8402 2.6726L51.5434 5.87128L48.3447 4.57448L49.6415 1.3758Z" fill="#3860AC"/>
<path d="M48.432 20.4689L50.4261 17.6516L53.2433 19.6457L51.2492 22.4629L48.432 20.4689Z" fill="#3860AC"/>
<path d="M52.4036 25.7644L48.9656 25.4583L49.2717 22.0203L52.7097 22.3264L52.4036 25.7644Z" fill="#3860AC"/>
<path d="M50.7826 25.2874L53.2776 27.6723L50.8927 30.1674L48.3977 27.7825L50.7826 25.2874Z" fill="#3860AC"/>
<path d="M44.3286 35.1683L45.3144 38.476L42.0066 39.4619L41.0208 36.1541L44.3286 35.1683Z" fill="#3860AC"/>
<path d="M48.4203 35.061L51.1742 32.9802L53.2549 35.7341L50.5011 37.8149L48.4203 35.061Z" fill="#3860AC"/>
<path d="M50.543 36.8098L53.2604 38.9379L51.1323 41.6554L48.4149 39.5273L50.543 36.8098Z" fill="#3860AC"/>
<path d="M40.7579 49.2079L42.7799 46.4106L45.5772 48.4326L43.5552 51.2299L40.7579 49.2079Z" fill="#3860AC"/>
<path d="M60.9481 39.2797L58.4609 41.6728L56.0678 39.1856L58.555 36.7924L60.9481 39.2797Z" fill="#3860AC"/>
<path d="M53.129 49.898L51.6773 53.0294L48.5459 51.5776L49.9976 48.4462L53.129 49.898Z" fill="#3860AC"/>
<path d="M53.0014 53.4442L51.9661 56.7368L48.6735 55.7015L49.7088 52.4089L53.0014 53.4442Z" fill="#3860AC"/>
<path d="M53.2668 58.1736L51.0718 60.8373L48.4081 58.6422L50.6032 55.9786L53.2668 58.1736Z" fill="#3860AC"/>
<path d="M48.4257 62.617L50.4635 59.8312L53.2493 61.869L51.2114 64.6548L48.4257 62.617Z" fill="#3860AC"/>
<path d="M53.1405 66.8859L50.0296 68.3811L48.5344 65.2702L51.6453 63.775L53.1405 66.8859Z" fill="#3860AC"/>
<path d="M48.4646 70.4844L50.2662 67.5403L53.2103 69.3418L51.4088 72.2859L48.4646 70.4844Z" fill="#3860AC"/>
<path d="M54.5067 6.11711L57.1075 8.38625L54.8384 10.9871L52.2375 8.71793L54.5067 6.11711Z" fill="#3860AC"/>
<path d="M60.0684 5.60195L61.458 2.44248L64.6175 3.8321L63.2279 6.99156L60.0684 5.60195Z" fill="#3860AC"/>
<path d="M52.2528 16.5408L54.3539 13.8025L57.0923 15.9036L54.9911 18.642L52.2528 16.5408Z" fill="#3860AC"/>
<path d="M47.3532 1.06929L44.7093 -1.14947L46.928 -3.7934L49.572 -1.57463L47.3532 1.06929Z" fill="#3860AC"/>
<path d="M45.3315 27.866L48.7814 27.974L48.6734 31.4239L45.2236 31.3159L45.3315 27.866Z" fill="#3860AC"/>
<path d="M55.3092 30.0835L52.3164 28.3641L54.0359 25.3713L57.0286 27.0907L55.3092 30.0835Z" fill="#3860AC"/>
<path d="M60.3309 22.5109L63.7244 21.8803L64.355 25.2737L60.9616 25.9044L60.3309 22.5109Z" fill="#3860AC"/>
<path d="M52.8043 33.8271L56.2429 33.5293L56.5408 36.968L53.1021 37.2658L52.8043 33.8271Z" fill="#3860AC"/>
<path d="M46.1869 47.2855L44.7022 44.1696L47.8181 42.6849L49.3028 45.8008L46.1869 47.2855Z" fill="#3860AC"/>
<path d="M52.2749 43.5237L54.2165 40.67L57.0702 42.6116L55.1286 45.4653L52.2749 43.5237Z" fill="#3860AC"/>
<path d="M56.5053 45.2911L56.2842 48.7355L52.8397 48.5144L53.0609 45.0699L56.5053 45.2911Z" fill="#3860AC"/>
<path d="M52.8057 52.31L53.1003 48.871L56.5393 49.1656L56.2447 52.6046L52.8057 52.31Z" fill="#3860AC"/>
<path d="M44.9964 45.2553L47.8828 43.3627L49.7754 46.2491L46.889 48.1417L44.9964 45.2553Z" fill="#3860AC"/>
<path d="M56.057 39.691L57.2826 42.9177L54.0559 44.1432L52.8304 40.9166L56.057 39.691Z" fill="#3860AC"/>
<path d="M55.9725 64.3086L52.6069 63.543L53.3725 60.1774L56.7381 60.943L55.9725 64.3086Z" fill="#3860AC"/>
<path d="M60.6122 60.1287L60.6221 56.6772L64.0737 56.6871L64.0637 60.1387L60.6122 60.1287Z" fill="#3860AC"/>
<path d="M56.8125 71.0866L53.4991 72.0531L52.5325 68.7397L55.8459 67.7731L56.8125 71.0866Z" fill="#3860AC"/>
<path d="M53.3848 0.860194L50.0921 1.89533L49.057 -1.39735L52.3497 -2.43249L53.3848 0.860194Z" fill="#3860AC"/>
<path d="M59.5702 14.5843L56.3104 13.4498L57.445 10.19L60.7047 11.3245L59.5702 14.5843Z" fill="#3860AC"/>
<path d="M67.8187 10.3587L64.3711 10.193L64.5368 6.74544L67.9844 6.91116L67.8187 10.3587Z" fill="#3860AC"/>
<path d="M56.9273 18.1973L60.3675 18.477L60.0878 21.9172L56.6476 21.6375L56.9273 18.1973Z" fill="#3860AC"/>
<path d="M60.6164 25.121L57.2789 26.0012L56.3988 22.6637L59.7362 21.7835L60.6164 25.121Z" fill="#3860AC"/>
<path d="M60.944 27.5839L58.6511 30.1638L56.0712 27.8709L58.3641 25.291L60.944 27.5839Z" fill="#3860AC"/>
<path d="M60.939 31.3507L58.7193 33.9939L56.0762 31.7742L58.2958 29.1311L60.939 31.3507Z" fill="#3860AC"/>
<path d="M48.8475 42.5629L49.4249 39.16L52.8278 39.7374L52.2504 43.1403L48.8475 42.5629Z" fill="#3860AC"/>
<path d="M66.4123 33.9918L63.7485 31.797L65.9434 29.1331L68.6072 31.328L66.4123 33.9918Z" fill="#3860AC"/>
<path d="M48.9509 47.2719L52.3858 46.9336L52.7241 50.3686L49.2892 50.7069L48.9509 47.2719Z" fill="#3860AC"/>
<path d="M59.8072 48.9686L56.4417 48.2023L57.208 44.8369L60.5734 45.6032L59.8072 48.9686Z" fill="#3860AC"/>
<path d="M60.7621 51.6726L57.5727 52.9923L56.2531 49.8029L59.4424 48.4833L60.7621 51.6726Z" fill="#3860AC"/>
<path d="M64.4705 48.6466L64.4341 45.1953L67.8854 45.1589L67.9218 48.6102L64.4705 48.6466Z" fill="#3860AC"/>
<path d="M63.5444 45.72L66.5935 47.3374L64.9761 50.3865L61.927 48.7691L63.5444 45.72Z" fill="#3860AC"/>
<path d="M60.9328 62.5172L58.2334 64.6682L56.0824 61.9688L58.7817 59.8178L60.9328 62.5172Z" fill="#3860AC"/>
<path d="M56.076 65.8688L58.7169 63.6464L60.9392 66.2874L58.2983 68.5097L56.076 65.8688Z" fill="#3860AC"/>
<path d="M60.8013 69.0792L59.3415 72.2069L56.2139 70.747L57.6737 67.6194L60.8013 69.0792Z" fill="#3860AC"/>
<path d="M60.1551 9.63427L61.2605 6.36451L64.5302 7.4699L63.4248 10.7397L60.1551 9.63427Z" fill="#3860AC"/>
<path d="M60.9714 14.4061L60.3237 11.0159L63.7139 10.3682L64.3616 13.7584L60.9714 14.4061Z" fill="#3860AC"/>
<path d="M63.2823 13.9697L64.5951 17.1619L61.403 18.4747L60.0902 15.2826L63.2823 13.9697Z" fill="#3860AC"/>
<path d="M46.0491 14.9472L49.4279 15.6525L48.7226 19.0312L45.3439 18.326L46.0491 14.9472Z" fill="#3860AC"/>
<path d="M69.961 26.3123L72.9621 24.6074L74.667 27.6085L71.6659 29.3134L69.961 26.3123Z" fill="#3860AC"/>
<path d="M68.6704 21.8298L69.4361 18.4643L72.8017 19.23L72.0359 22.5956L68.6704 21.8298Z" fill="#3860AC"/>
<path d="M59.9028 31.5022L62.4029 29.1226L64.7825 31.6227L62.2824 34.0023L59.9028 31.5022Z" fill="#3860AC"/>
<path d="M59.96 35.9264L61.8138 33.0149L64.7253 34.8687L62.8715 37.7802L59.96 35.9264Z" fill="#3860AC"/>
<path d="M57.3086 29.4724L55.9956 32.6645L52.8036 31.3515L54.1166 28.1594L57.3086 29.4724Z" fill="#3860AC"/>
<path d="M64.2987 44.5273L60.883 45.0237L60.3866 41.608L63.8023 41.1116L64.2987 44.5273Z" fill="#3860AC"/>
<path d="M64.4189 45.6199L63.6255 48.979L60.2664 48.1856L61.0598 44.8265L64.4189 45.6199Z" fill="#3860AC"/>
<path d="M67.573 43.0149L70.0658 40.6276L72.4531 43.1205L69.9602 45.5077L67.573 43.0149Z" fill="#3860AC"/>
<path d="M64.3427 53.1742L63.7414 56.5729L60.3426 55.9716L60.944 52.5728L64.3427 53.1742Z" fill="#3860AC"/>
<path d="M63.9469 56.5686L64.182 60.0121L60.7385 60.2473L60.5033 56.8037L63.9469 56.5686Z" fill="#3860AC"/>
<path d="M71.7103 52.819L71.7669 56.2701L68.3158 56.3267L68.2592 52.8756L71.7103 52.819Z" fill="#3860AC"/>
<path d="M59.9911 65.4246L62.9961 63.7266L64.6942 66.7315L61.6892 68.4296L59.9911 65.4246Z" fill="#3860AC"/>
<path d="M64.7604 70.2465L62.0093 72.3309L59.9249 69.5798L62.676 67.4954L64.7604 70.2465Z" fill="#3860AC"/>
<path d="M65.5922 0.593061L62.248 1.44705L61.394 -1.8972L64.7382 -2.75118L65.5922 0.593061Z" fill="#3860AC"/>
<path d="M68.3208 11.2194L67.3455 14.5303L64.0346 13.5549L65.01 10.244L68.3208 11.2194Z" fill="#3860AC"/>
<path d="M64.2069 14.7826L67.6173 14.2514L68.1486 17.6618L64.7381 18.1931L64.2069 14.7826Z" fill="#3860AC"/>
<path d="M67.4015 22.1689L64.0661 21.281L64.954 17.9456L68.2894 18.8335L67.4015 22.1689Z" fill="#3860AC"/>
<path d="M63.9179 22.9704L67.0997 21.6326L68.4375 24.8143L65.2558 26.1521L63.9179 22.9704Z" fill="#3860AC"/>
<path d="M67.6697 25.7959L68.1092 29.2194L64.6857 29.6589L64.2462 26.2354L67.6697 25.7959Z" fill="#3860AC"/>
<path d="M78.0641 36.1433L74.636 36.5457L74.2336 33.1177L77.6617 32.7153L78.0641 36.1433Z" fill="#3860AC"/>
<path d="M63.9828 36.4649L65.1104 33.2027L68.3726 34.3302L67.245 37.5924L63.9828 36.4649Z" fill="#3860AC"/>
<path d="M56.1379 44.4015L59.0914 42.6154L60.8774 45.5689L57.9239 47.355L56.1379 44.4015Z" fill="#3860AC"/>
<path d="M64.2351 44.5452L64.7002 41.1251L68.1203 41.5902L67.6552 45.0102L64.2351 44.5452Z" fill="#3860AC"/>
<path d="M71.7578 37.9727L75.108 37.1423L75.9384 40.4925L72.5882 41.3229L71.7578 37.9727Z" fill="#3860AC"/>
<path d="M65.3555 53.0358L63.8798 49.9156L66.9999 48.4398L68.4757 51.56L65.3555 53.0358Z" fill="#3860AC"/>
<path d="M75.0899 44.8017L75.949 48.1447L72.6061 49.0037L71.747 45.6608L75.0899 44.8017Z" fill="#3860AC"/>
<path d="M65.2386 56.1552L68.4304 57.4688L67.1169 60.6606L63.925 59.3471L65.2386 56.1552Z" fill="#3860AC"/>
<path d="M63.8038 62.8098L65.611 59.8691L68.5516 61.6762L66.7445 64.6169L63.8038 62.8098Z" fill="#3860AC"/>
<path d="M68.3455 64.9567L67.299 68.2458L64.0099 67.1994L65.0564 63.9103L68.3455 64.9567Z" fill="#3860AC"/>
<path d="M71.432 61.8978L74.1933 59.8269L76.2642 62.5882L73.5029 64.6591L71.432 61.8978Z" fill="#3860AC"/>
<path d="M69.2389 4.31982L72.3274 5.86082L70.7864 8.94928L67.6979 7.40827L69.2389 4.31982Z" fill="#3860AC"/>
<path d="M71.9339 -1.33567L70.8918 1.95479L67.6013 0.912603L68.6435 -2.37785L71.9339 -1.33567Z" fill="#3860AC"/>
<path d="M78.4456 10.8706L75.3647 9.31454L76.9207 6.23362L80.0016 7.78965L78.4456 10.8706Z" fill="#3860AC"/>
<path d="M71.4403 22.0369L68.0332 21.4848L68.5852 18.0777L71.9924 18.6297L71.4403 22.0369Z" fill="#3860AC"/>
<path d="M77.0053 18.6933L76.4078 15.2939L79.8073 14.6964L80.4047 18.0959L77.0053 18.6933Z" fill="#3860AC"/>
<path d="M72.2843 28.6201L69.1201 29.9989L67.7413 26.8348L70.9054 25.4559L72.2843 28.6201Z" fill="#3860AC"/>
<path d="M75.0237 18.8826L78.0907 20.466L76.5074 23.5329L73.4404 21.9496L75.0237 18.8826Z" fill="#3860AC"/>
<path d="M76.9453 25.4009L80.0094 26.9897L78.4206 30.0539L75.3565 28.4651L76.9453 25.4009Z" fill="#3860AC"/>
<path d="M72.3182 38.4317L70.8137 41.5381L67.7073 40.0335L69.2119 36.9271L72.3182 38.4317Z" fill="#3860AC"/>
<path d="M72.3276 43.8411L69.2394 45.3825L67.6979 42.2943L70.7862 40.7528L72.3276 43.8411Z" fill="#3860AC"/>
<path d="M64.8615 39.2639L61.5443 40.2175L60.5907 36.9003L63.9079 35.9467L64.8615 39.2639Z" fill="#3860AC"/>
<path d="M68.5481 52.6901L68.0605 49.2732L71.4774 48.7855L71.9651 52.2024L68.5481 52.6901Z" fill="#3860AC"/>
<path d="M72.1174 53.337L71.2486 56.6775L67.9082 55.8087L68.7769 52.4683L72.1174 53.337Z" fill="#3860AC"/>
<path d="M67.7334 59.2802L69.1405 56.1285L72.2922 57.5357L70.8851 60.6873L67.7334 59.2802Z" fill="#3860AC"/>
<path d="M76.024 52.7831L79.4731 52.9136L79.3426 56.3626L75.8935 56.2322L76.024 52.7831Z" fill="#3860AC"/>
<path d="M68.1358 64.518L71.5728 64.2011L71.8897 67.6381L68.4527 67.955L68.1358 64.518Z" fill="#3860AC"/>
<path d="M68.2424 71.5931L68.3328 68.1427L71.7832 68.2331L71.6928 71.6835L68.2424 71.5931Z" fill="#3860AC"/>
<path d="M73.6754 10.9866L71.4133 8.37966L74.0203 6.11757L76.2824 8.72452L73.6754 10.9866Z" fill="#3860AC"/>
<path d="M77.4218 0.690199L78.1096 4.07253L74.7273 4.76036L74.0394 1.37804L77.4218 0.690199Z" fill="#3860AC"/>
<path d="M87.5816 -0.955313L91.0254 -0.724629L90.7948 2.71921L87.3509 2.48853L87.5816 -0.955313Z" fill="#3860AC"/>
<path d="M82.9866 6.66629L79.5687 6.18568L80.0493 2.76775L83.4672 3.24836L82.9866 6.66629Z" fill="#3860AC"/>
<path d="M77.5039 9.95311L80.117 12.2081L77.8619 14.8212L75.2489 12.5662L77.5039 9.95311Z" fill="#3860AC"/>
<path d="M81.8442 14.8059L79.0993 12.7134L81.1917 9.96844L83.9367 12.0609L81.8442 14.8059Z" fill="#3860AC"/>
<path d="M72.6579 14.0913L75.9787 15.0323L75.0378 18.3531L71.717 17.4122L72.6579 14.0913Z" fill="#3860AC"/>
<path d="M84.2612 10.6565L84.4444 7.20981L87.8911 7.39301L87.7079 10.8397L84.2612 10.6565Z" fill="#3860AC"/>
<path d="M83.3145 14.5703L83.1699 18.0188L79.7214 17.8742L79.866 14.4256L83.3145 14.5703Z" fill="#3860AC"/>
<path d="M82.4766 12.211L85.336 10.2779L87.2692 13.1373L84.4098 15.0704L82.4766 12.211Z" fill="#3860AC"/>
<path d="M75.2681 20.4112L77.329 17.6425L80.0977 19.7034L78.0368 22.4721L75.2681 20.4112Z" fill="#3860AC"/>
<path d="M82.5161 17.8301L83.7451 21.0555L80.5198 22.2844L79.2908 19.0591L82.5161 17.8301Z" fill="#3860AC"/>
<path d="M75.6643 25.5224L72.2178 25.7088L72.0313 22.2623L75.4779 22.0758L75.6643 25.5224Z" fill="#3860AC"/>
<path d="M78.6302 21.6431L79.9322 24.8396L76.7356 26.1416L75.4336 22.9451L78.6302 21.6431Z" fill="#3860AC"/>
<path d="M87.3531 17.8311L87.5794 14.387L91.0236 14.6133L90.7973 18.0574L87.3531 17.8311Z" fill="#3860AC"/>
<path d="M82.6474 22.5076L80.7723 25.4054L77.8745 23.5303L79.7496 20.6325L82.6474 22.5076Z" fill="#3860AC"/>
<path d="M89.9486 31.6272L86.8224 33.09L85.3596 29.9637L88.4858 28.5009L89.9486 31.6272Z" fill="#3860AC"/>
<path d="M82.6732 29.8773L79.3681 28.8826L80.3628 25.5775L83.6679 26.5722L82.6732 29.8773Z" fill="#3860AC"/>
<path d="M71.4738 30.9965L74.4139 29.1884L76.2219 32.1285L73.2818 33.9366L71.4738 30.9965Z" fill="#3860AC"/>
<path d="M83.726 23.7071L86.7342 22.0147L88.4265 25.0229L85.4184 26.7153L83.726 23.7071Z" fill="#3860AC"/>
<path d="M83.6427 30.3616L82.7188 33.6872L79.3932 32.7633L80.3171 29.4377L83.6427 30.3616Z" fill="#3860AC"/>
<path d="M73.5762 37.823L71.4224 35.1259L74.1194 32.9721L76.2733 35.6691L73.5762 37.823Z" fill="#3860AC"/>
<path d="M86.6157 29.8161L83.2645 28.9899L84.0907 25.6387L87.4419 26.4649L86.6157 29.8161Z" fill="#3860AC"/>
<path d="M82.3687 37.6851L79.2304 36.2483L80.6672 33.11L83.8055 34.5468L82.3687 37.6851Z" fill="#3860AC"/>
<path d="M72.2229 37.4116L75.6688 37.6076L75.4728 41.0536L72.0268 40.8576L72.2229 37.4116Z" fill="#3860AC"/>
<path d="M80.1008 38.9002L78.0153 41.6505L75.265 39.565L77.3505 36.8147L80.1008 38.9002Z" fill="#3860AC"/>
<path d="M91.5635 32.1246L88.6264 33.9375L86.8134 31.0004L89.7505 29.1875L91.5635 32.1246Z" fill="#3860AC"/>
<path d="M92.6324 36.3091L93.6459 39.6085L90.3465 40.6221L89.333 37.3227L92.6324 36.3091Z" fill="#3860AC"/>
<path d="M75.2513 42.8579L77.8927 40.6361L80.1145 43.2775L77.4731 45.4993L75.2513 42.8579Z" fill="#3860AC"/>
<path d="M80.6226 45.3381L79.2475 42.1723L82.4133 40.7972L83.7884 43.963L80.6226 45.3381Z" fill="#3860AC"/>
<path d="M78.3416 52.3959L75.6414 50.2458L77.7915 47.5457L80.4916 49.6957L78.3416 52.3959Z" fill="#3860AC"/>
<path d="M77.5597 44.4652L80.1204 46.7795L77.8062 49.3402L75.2454 47.026L77.5597 44.4652Z" fill="#3860AC"/>
<path d="M82.602 44.7161L83.7046 47.9867L80.434 49.0894L79.3313 45.8187L82.602 44.7161Z" fill="#3860AC"/>
<path d="M76.2719 51.0214L73.5643 53.1619L71.4238 50.4542L74.1314 48.3137L76.2719 51.0214Z" fill="#3860AC"/>
<path d="M76.4587 52.8492L75.5716 49.5135L78.9072 48.6264L79.7943 51.9621L76.4587 52.8492Z" fill="#3860AC"/>
<path d="M87.3663 44.6913L87.5647 41.2455L91.0106 41.444L90.8121 44.8898L87.3663 44.6913Z" fill="#3860AC"/>
<path d="M87.3199 51.8283L83.8793 51.5539L84.1536 48.1133L87.5943 48.3877L87.3199 51.8283Z" fill="#3860AC"/>
<path d="M81.4269 60.035L79.5072 57.1665L82.3757 55.2468L84.2954 58.1154L81.4269 60.035Z" fill="#3860AC"/>
<path d="M83.7381 55.5866L80.5042 56.793L79.2979 53.5591L82.5317 52.3527L83.7381 55.5866Z" fill="#3860AC"/>
<path d="M71.4074 58.436L73.8198 55.9675L76.2883 58.3798L73.8759 60.8484L71.4074 58.436Z" fill="#3860AC"/>
<path d="M75.4158 59.3118L76.779 56.1409L79.95 57.5041L78.5868 60.675L75.4158 59.3118Z" fill="#3860AC"/>
<path d="M82.2227 56.0713L83.8546 59.1127L80.8132 60.7446L79.1813 57.7032L82.2227 56.0713Z" fill="#3860AC"/>
<path d="M71.4129 62.0773L74.0136 59.808L76.2828 62.4087L73.6821 64.678L71.4129 62.0773Z" fill="#3860AC"/>
<path d="M75.2634 62.5634L77.3625 59.8235L80.1024 61.9226L78.0033 64.6625L75.2634 62.5634Z" fill="#3860AC"/>
<path d="M79.0976 62.5565L81.2045 59.8226L83.9384 61.9295L81.8315 64.6634L79.0976 62.5565Z" fill="#3860AC"/>
<path d="M75.7247 64.5179L75.408 67.9549L71.971 67.6382L72.2877 64.2012L75.7247 64.5179Z" fill="#3860AC"/>
<path d="M84.8236 60.7904L82.9706 57.8785L85.8825 56.0254L87.7356 58.9374L84.8236 60.7904Z" fill="#3860AC"/>
<path d="M81.5393 68.5186L79.0774 66.0993L81.4967 63.6375L83.9585 66.0568L81.5393 68.5186Z" fill="#3860AC"/>
<path d="M93.3062 63.6814L93.1189 67.1279L89.6724 66.9406L89.8597 63.4942L93.3062 63.6814Z" fill="#3860AC"/>
<path d="M80.1033 69.5995L77.9966 72.3335L75.2625 70.2268L77.3692 67.4927L80.1033 69.5995Z" fill="#3860AC"/>
<path d="M83.9121 70.3873L81.0438 72.3072L79.1239 69.4389L81.9922 67.519L83.9121 70.3873Z" fill="#3860AC"/>
<path d="M48.8705 75.1931L49.3925 71.7813L52.8044 72.3033L52.2824 75.7151L48.8705 75.1931Z" fill="#3860AC"/>
<path d="M69.3127 70.6874L70.7726 73.815L67.645 75.2749L66.1851 72.1473L69.3127 70.6874Z" fill="#3860AC"/>
<path d="M57.0146 74.4348L53.9859 76.0902L52.3305 73.0616L55.3591 71.4061L57.0146 74.4348Z" fill="#3860AC"/>
<path d="M56.6967 76.2196L56.0362 79.6074L52.6484 78.9469L53.3089 75.5591L56.6967 76.2196Z" fill="#3860AC"/>
<path d="M68.5891 67.5062L72.0366 67.3385L72.2043 70.786L68.7568 70.9537L68.5891 67.5062Z" fill="#3860AC"/>
<path d="M58.0637 79.9832L56.1077 77.1394L58.9515 75.1833L60.9075 78.0271L58.0637 79.9832Z" fill="#3860AC"/>
<path d="M61.2825 71.5498L64.541 72.688L63.4028 75.9465L60.1443 74.8083L61.2825 71.5498Z" fill="#3860AC"/>
<path d="M80.51 70.5979L82.3676 73.507L79.4585 75.3645L77.6009 72.4554L80.51 70.5979Z" fill="#3860AC"/>
<path d="M68.1178 72.2674L67.6585 75.6883L64.2376 75.229L64.6969 71.8081L68.1178 72.2674Z" fill="#3860AC"/>
<path d="M67.4654 79.6565L64.1045 78.871L64.89 75.51L68.251 76.2955L67.4654 79.6565Z" fill="#3860AC"/>
<path d="M67.6471 74.3483L69.4127 71.3825L72.3785 73.1481L70.6128 76.1139L67.6471 74.3483Z" fill="#3860AC"/>
<path d="M69.2522 79.9023L67.6937 76.8226L70.7734 75.2642L72.3318 78.3439L69.2522 79.9023Z" fill="#3860AC"/>
<path d="M71.4508 73.2889L74.3071 71.3512L76.2449 74.2075L73.3886 76.1452L71.4508 73.2889Z" fill="#3860AC"/>
<path d="M79.6373 75.2101L76.221 75.7026L75.7285 72.2863L79.1448 71.7938L79.6373 75.2101Z" fill="#3860AC"/>
<path d="M81.3996 71.3104L83.9557 73.6298L81.6364 76.1859L79.0802 73.8666L81.3996 71.3104Z" fill="#3860AC"/>
<path d="M83.951 69.7183L81.713 72.346L79.0854 70.1079L81.3234 67.4803L83.951 69.7183Z" fill="#3860AC"/>
<path d="M79.5874 79.1095L76.1566 79.4878L75.7784 76.057L79.2092 75.6788L79.5874 79.1095Z" fill="#3860AC"/>
<path d="M83.9574 77.5065L81.5947 80.0227L79.0786 77.66L81.4412 75.1438L83.9574 77.5065Z" fill="#3860AC"/>
<path d="M50.9641 83.8557L48.4001 81.5449L50.7108 78.981L53.2748 81.2917L50.9641 83.8557Z" fill="#3860AC"/>
<path d="M55.192 79.0336L57.0572 81.9378L54.153 83.803L52.2878 80.8988L55.192 79.0336Z" fill="#3860AC"/>
<path d="M60.4068 82.9512L56.9747 83.3175L56.6084 79.8855L60.0404 79.5191L60.4068 82.9512Z" fill="#3860AC"/>
<path d="M71.4762 75.7015L68.0596 75.2115L68.5495 71.7949L71.9661 72.2849L71.4762 75.7015Z" fill="#3860AC"/>
<path d="M63.8132 80.8136L66.7824 79.0538L68.5422 82.023L65.573 83.7828L63.8132 80.8136Z" fill="#3860AC"/>
<path d="M76.0712 68.6423L78.1867 71.3696L75.4594 73.485L73.3439 70.7577L76.0712 68.6423Z" fill="#3860AC"/>
<path d="M72.0666 83.0868L72.1793 79.6371L75.629 79.7498L75.5164 83.1995L72.0666 83.0868Z" fill="#3860AC"/>
<path d="M78.5032 79.1197L79.9815 82.2387L76.8626 83.7169L75.3843 80.598L78.5032 79.1197Z" fill="#3860AC"/>
<path d="M91.3376 72.5921L90.3442 75.8976L87.0387 74.9042L88.0321 71.5987L91.3376 72.5921Z" fill="#3860AC"/>
<path d="M52.5091 83.4751L52.6158 86.925L49.1659 87.0317L49.0591 83.5818L52.5091 83.4751Z" fill="#3860AC"/>
<path d="M53.7899 82.978L56.948 84.3707L55.5552 87.5288L52.3971 86.136L53.7899 82.978Z" fill="#3860AC"/>
<path d="M60.9438 85.107L58.654 87.6896L56.0714 85.3998L58.3612 82.8172L60.9438 85.107Z" fill="#3860AC"/>
<path d="M60.5771 83.5683L64.0277 83.4878L64.1082 86.9385L60.6576 87.0189L60.5771 83.5683Z" fill="#3860AC"/>
<path d="M67.9677 83.5943L67.8368 87.0434L64.3877 86.9125L64.5186 83.4634L67.9677 83.5943Z" fill="#3860AC"/>
<path d="M87.3266 78.2328L90.0729 80.3236L87.9822 83.0698L85.2359 80.9791L87.3266 78.2328Z" fill="#3860AC"/>
<path d="M71.95 86.7879L72.3133 83.3555L75.7457 83.7188L75.3824 87.1512L71.95 86.7879Z" fill="#3860AC"/>
<path d="M68.015 92.4078L68.6111 89.0081L72.0108 89.6042L71.4147 93.0039L68.015 92.4078Z" fill="#3860AC"/>
<path d="M79.0866 85.4651L81.3062 82.822L83.9494 85.0416L81.7297 87.6848L79.0866 85.4651Z" fill="#3860AC"/>
<path d="M49.2471 90.9398L48.9861 87.4981L52.4278 87.2371L52.6888 90.6788L49.2471 90.9398Z" fill="#3860AC"/>
<path d="M61.9519 76.8296L62.3294 80.2605L58.8985 80.6379L58.5211 77.2071L61.9519 76.8296Z" fill="#3860AC"/>
<path d="M58.8609 91.5034L56.0927 89.4418L58.1543 86.6735L60.9225 88.7352L58.8609 91.5034Z" fill="#3860AC"/>
<path d="M64.6407 88.2665L63.1646 91.3865L60.0446 89.9104L61.5208 86.7904L64.6407 88.2665Z" fill="#3860AC"/>
<path d="M72.0739 79.7423L75.5241 79.6442L75.6221 83.0944L72.172 83.1924L72.0739 79.7423Z" fill="#3860AC"/>
<path d="M70.0884 86.649L72.4522 89.164L69.9372 91.5279L67.5733 89.0129L70.0884 86.649Z" fill="#3860AC"/>
<path d="M74.6546 86.785L76.1513 89.8952L73.0411 91.3919L71.5444 88.2817L74.6546 86.785Z" fill="#3860AC"/>
<path d="M83.2859 82.7153L84.0564 79.3508L87.4208 80.1213L86.6503 83.4858L83.2859 82.7153Z" fill="#3860AC"/>
<path d="M83.4815 87.6389L82.9675 91.052L79.5544 90.538L80.0685 87.1249L83.4815 87.6389Z" fill="#3860AC"/>
<path d="M52.7036 91.3506L52.4104 94.7897L48.9713 94.4964L49.2646 91.0573L52.7036 91.3506Z" fill="#3860AC"/>
<path d="M54.9787 95.3448L52.2512 93.2296L54.3664 90.5022L57.0939 92.6174L54.9787 95.3448Z" fill="#3860AC"/>
<path d="M80.0778 88.9661L82.7911 91.0996L80.6577 93.8128L77.9444 91.6794L80.0778 88.9661Z" fill="#3860AC"/>
<path d="M60.0126 93.6499L61.6163 90.5935L64.6727 92.1971L63.069 95.2535L60.0126 93.6499Z" fill="#3860AC"/>
<path d="M57.076 96.6995L60.4843 97.2445L59.9393 100.653L56.5311 100.108L57.076 96.6995Z" fill="#3860AC"/>
<path d="M72.3808 92.3325L70.6038 95.2915L67.6448 93.5145L69.4218 90.5555L72.3808 92.3325Z" fill="#3860AC"/>
<path d="M75.5524 91.1768L75.5946 94.6281L72.1433 94.6702L72.1011 91.2189L75.5524 91.1768Z" fill="#3860AC"/>
<path d="M80.2003 94.2416L83.6515 94.2903L83.6028 97.7415L80.1516 97.6928L80.2003 94.2416Z" fill="#3860AC"/>
<path d="M81.0173 90.5348L83.9067 92.4229L82.0186 95.3122L79.1293 93.4242L81.0173 90.5348Z" fill="#3860AC"/>
<path d="M48.8333 95.3657L52.2303 94.7544L52.8416 98.1514L49.4446 98.7627L48.8333 95.3657Z" fill="#3860AC"/>
<path d="M57.099 96.4957L54.9354 99.185L52.2461 97.0214L54.4097 94.3322L57.099 96.4957Z" fill="#3860AC"/>
<path d="M59.852 94.7216L60.5446 98.103L57.1632 98.7955L56.4706 95.4142L59.852 94.7216Z" fill="#3860AC"/>
<path d="M62.8048 99.1551L59.9462 97.2207L61.8805 94.3621L64.7391 96.2965L62.8048 99.1551Z" fill="#3860AC"/>
<path d="M67.5993 98.7424L64.1939 98.1802L64.7561 94.7747L68.1616 95.337L67.5993 98.7424Z" fill="#3860AC"/>
<path d="M71.0121 98.9852L67.7861 97.7579L69.0135 94.5319L72.2394 95.7593L71.0121 98.9852Z" fill="#3860AC"/>
<path d="M79.3377 90.1851L80.4214 86.9081L83.6984 87.9918L82.6147 91.2688L79.3377 90.1851Z" fill="#3860AC"/>
<path d="M75.9847 95.0057L79.4358 95.0603L79.3812 98.5114L75.93 98.4568L75.9847 95.0057Z" fill="#3860AC"/>
<path d="M80.4936 94.5433L83.7332 95.7342L82.5424 98.9738L79.3027 97.783L80.4936 94.5433Z" fill="#3860AC"/>
<path d="M48.4023 100.757L50.6741 98.1585L53.2726 100.43L51.0008 103.029L48.4023 100.757Z" fill="#3860AC"/>
<path d="M53.3924 102.672L52.5946 99.3135L55.9527 98.5157L56.7505 101.874L53.3924 102.672Z" fill="#3860AC"/>
<path d="M57.544 102.836L56.2653 99.63L59.4712 98.3513L60.7499 101.557L57.544 102.836Z" fill="#3860AC"/>
<path d="M70.532 95.3083L67.6282 93.4426L69.4939 90.5387L72.3977 92.4044L70.532 95.3083Z" fill="#3860AC"/>
<path d="M68.4806 101.402L65.3695 102.897L63.8748 99.7854L66.9859 98.2907L68.4806 101.402Z" fill="#3860AC"/>
<path d="M72.292 101.466L69.14 102.873L67.7336 99.7208L70.8856 98.3144L72.292 101.466Z" fill="#3860AC"/>
<path d="M76.2569 100.202L74.2391 103.003L71.4388 100.985L73.4566 98.1846L76.2569 100.202Z" fill="#3860AC"/>
<path d="M79.2391 98.7135L79.5631 102.15L76.1268 102.474L75.8027 99.0375L79.2391 98.7135Z" fill="#3860AC"/>
<path d="M79.8879 98.7772L83.3344 98.9636L83.148 102.41L79.7015 102.224L79.8879 98.7772Z" fill="#3860AC"/>
<path d="M43.378 112.613L40.7358 110.392L42.9567 107.75L45.5989 109.971L43.378 112.613Z" fill="#3860AC"/>
<path d="M74.0826 101.509L70.6321 101.595L70.5459 98.1445L73.9964 98.0583L74.0826 101.509Z" fill="#3860AC"/>
<path d="M56.2113 105.256L57.6806 102.132L60.8038 103.602L59.3345 106.725L56.2113 105.256Z" fill="#3860AC"/>
<path d="M60.6606 106.197L60.5742 102.747L64.0247 102.66L64.1111 106.111L60.6606 106.197Z" fill="#3860AC"/>
<path d="M67.9438 106.113L64.4932 106.195L64.4117 102.744L67.8623 102.663L67.9438 106.113Z" fill="#3860AC"/>
<path d="M79.7134 95.4038L79.0381 98.7886L75.6532 98.1133L76.3285 94.7285L79.7134 95.4038Z" fill="#3860AC"/>
<path d="M72.4244 106.411L71.8653 103.005L75.2713 102.446L75.8304 105.852L72.4244 106.411Z" fill="#3860AC"/>
<path d="M75.3917 103.588L78.5236 102.137L79.9742 105.269L76.8422 106.72L75.3917 103.588Z" fill="#3860AC"/>
<path d="M79.2701 105.379L80.5672 102.181L83.7658 103.478L82.4687 106.677L79.2701 105.379Z" fill="#3860AC"/>
<path d="M48.6508 107.18L51.9214 106.077L53.0242 109.348L49.7535 110.45L48.6508 107.18Z" fill="#3860AC"/>
<path d="M49.4254 113.722L47.2968 116.439L44.5797 114.311L46.7083 111.594L49.4254 113.722Z" fill="#3860AC"/>
<path d="M56.0783 108.499L58.2728 105.834L60.9369 108.029L58.7424 110.693L56.0783 108.499Z" fill="#3860AC"/>
<path d="M61.1326 110.383L60.2231 107.054L63.5527 106.144L64.4622 109.474L61.1326 110.383Z" fill="#3860AC"/>
<path d="M86.0162 104.725L82.7561 105.859L81.6225 102.598L84.8827 101.465L86.0162 104.725Z" fill="#3860AC"/>
<path d="M69.8188 110.697L67.5799 108.07L70.2067 105.831L72.4457 108.458L69.8188 110.697Z" fill="#3860AC"/>
<path d="M71.4236 108.546L73.5653 105.84L76.272 107.981L74.1304 110.688L71.4236 108.546Z" fill="#3860AC"/>
<path d="M86.6659 98.5361L87.4108 101.906L84.0405 102.651L83.2957 99.281L86.6659 98.5361Z" fill="#3860AC"/>
<path d="M86.7509 100.469L89.313 98.1562L91.6258 100.718L89.0637 103.031L86.7509 100.469Z" fill="#3860AC"/>
<path d="M48.4675 111.516L51.4204 109.729L53.2074 112.682L50.2545 114.469L48.4675 111.516Z" fill="#3860AC"/>
<path d="M54.2584 114.504L52.2673 111.685L55.0867 109.694L57.0778 112.513L54.2584 114.504Z" fill="#3860AC"/>
<path d="M58.8711 109.685L60.921 112.462L58.144 114.512L56.0942 111.735L58.8711 109.685Z" fill="#3860AC"/>
<path d="M59.9222 111.786L62.6554 109.678L64.7632 112.412L62.0299 114.519L59.9222 111.786Z" fill="#3860AC"/>
<path d="M64.2251 110.635L67.6419 110.146L68.1304 113.563L64.7136 114.052L64.2251 110.635Z" fill="#3860AC"/>
<path d="M69.2126 109.793L72.3185 111.299L70.813 114.405L67.7071 112.899L69.2126 109.793Z" fill="#3860AC"/>
<path d="M74.9848 114.258L71.6882 113.236L72.7108 109.939L76.0074 110.962L74.9848 114.258Z" fill="#3860AC"/>
<path d="M79.5927 113.618L76.1633 114.009L75.7731 110.579L79.2026 110.189L79.5927 113.618Z" fill="#3860AC"/>
<path d="M80.7547 114.417L79.1998 111.336L82.2812 109.781L83.8362 112.862L80.7547 114.417Z" fill="#3860AC"/>
<path d="M100.543 25.5759L97.0922 25.6593L97.0088 22.2087L100.459 22.1253L100.543 25.5759Z" fill="#2B519B"/>
<path d="M96.7204 17.5382L97.4598 14.1668L100.831 14.9061L100.092 18.2775L96.7204 17.5382Z" fill="#2B519B"/>
<path d="M101.203 33.0539L102.27 29.7713L105.552 30.8379L104.486 34.1205L101.203 33.0539Z" fill="#2B519B"/>
<path d="M93.4783 30.9901L91.6781 33.935L88.7332 32.1348L90.5334 29.1899L93.4783 30.9901Z" fill="#2B519B"/>
<path d="M93.5371 35.61L90.8932 37.8288L88.6744 35.1849L91.3183 32.9661L93.5371 35.61Z" fill="#2B519B"/>
<path d="M83.2438 36.393L84.7515 33.2882L87.8564 34.796L86.3486 37.9008L83.2438 36.393Z" fill="#2B519B"/>
<path d="M89.193 44.5839L89.5891 41.1552L93.0179 41.5513L92.6217 44.9801L89.193 44.5839Z" fill="#2B519B"/>
<path d="M89.2904 48.5343L89.4738 45.0876L92.9205 45.271L92.7371 48.7177L89.2904 48.5343Z" fill="#2B519B"/>
<path d="M93.1965 51.9964L89.8468 52.8288L89.0144 49.4791L92.3641 48.6467L93.1965 51.9964Z" fill="#2B519B"/>
<path d="M90.4461 61.9574L87.0787 61.2L87.8361 57.8326L91.2035 58.59L90.4461 61.9574Z" fill="#2B519B"/>
<path d="M100.879 61.005L100.014 64.3463L96.6724 63.4809L97.5378 60.1396L100.879 61.005Z" fill="#2B519B"/>
<path d="M97.3762 56.5726L96.7755 53.1737L100.174 52.573L100.775 55.9719L97.3762 56.5726Z" fill="#2B519B"/>
<path d="M91.2945 63.6447L93.5387 66.267L90.9164 68.5113L88.6721 65.8889L91.2945 63.6447Z" fill="#2B519B"/>
<path d="M101.215 62.3355L98.6832 64.6818L96.3369 62.1504L98.8683 59.8041L101.215 62.3355Z" fill="#2B519B"/>
<path d="M93.3217 72.7254L92.1285 75.9641L88.8898 74.7709L90.083 71.5321L93.3217 72.7254Z" fill="#2B519B"/>
<path d="M93.1764 76.2913L92.3977 79.6538L89.0351 78.8751L89.8138 75.5125L93.1764 76.2913Z" fill="#2B519B"/>
<path d="M90.6268 83.8114L88.7126 80.9393L91.5847 79.0251L93.4989 81.8972L90.6268 83.8114Z" fill="#2B519B"/>
<path d="M96.7642 18.4349L96.5631 21.8806L93.1174 21.6795L93.3185 18.2338L96.7642 18.4349Z" fill="#2B519B"/>
<path d="M104.008 29.7287L100.61 29.1243L101.214 25.726L104.612 26.3305L104.008 29.7287Z" fill="#2B519B"/>
<path d="M97.1612 26.7141L95.9541 29.9477L92.7205 28.7406L93.9276 25.507L97.1612 26.7141Z" fill="#2B519B"/>
<path d="M103.995 33.3875L104.621 36.7819L101.227 37.4075L100.601 34.0131L103.995 33.3875Z" fill="#2B519B"/>
<path d="M92.8302 36.6231L93.7152 33.2869L97.0514 34.1719L96.1664 37.5081L92.8302 36.6231Z" fill="#2B519B"/>
<path d="M97.3714 39.4538L94.7196 41.6631L92.5102 39.0113L95.1621 36.802L97.3714 39.4538Z" fill="#2B519B"/>
<path d="M93.6295 41.0092L96.9992 41.7563L96.2521 45.126L92.8824 44.3789L93.6295 41.0092Z" fill="#2B519B"/>
<path d="M102.648 41.6729L100.171 39.2691L102.574 36.7922L105.051 39.196L102.648 41.6729Z" fill="#2B519B"/>
<path d="M93.6927 48.6404L97.0382 49.4896L96.1889 52.8351L92.8435 51.9859L93.6927 48.6404Z" fill="#2B519B"/>
<path d="M96.8904 56.0411L93.4726 56.5224L92.9912 53.1046L96.4091 52.6232L96.8904 56.0411Z" fill="#2B519B"/>
<path d="M105.036 50.4653L102.883 53.1631L100.186 51.0102L102.338 48.3124L105.036 50.4653Z" fill="#2B519B"/>
<path d="M93.0983 60.6424L96.5414 60.4004L96.7833 63.8435L93.3403 64.0855L93.0983 60.6424Z" fill="#2B519B"/>
<path d="M100.536 57.1221L103.897 56.3335L104.685 59.6937L101.325 60.4823L100.536 57.1221Z" fill="#2B519B"/>
<path d="M93.1873 68.2155L96.6384 68.1595L96.6944 71.6106L93.2433 71.6666L93.1873 68.2155Z" fill="#2B519B"/>
<path d="M104.995 77.061L103.133 79.9673L100.227 78.1053L102.089 75.1991L104.995 77.061Z" fill="#2B519B"/>
<path d="M107.887 67.9509L109.559 70.9706L106.539 72.6423L104.867 69.6225L107.887 67.9509Z" fill="#2B519B"/>
<path d="M97.3743 81.6054L94.7537 83.8517L92.5074 81.2311L95.128 78.9848L97.3743 81.6054Z" fill="#2B519B"/>
<path d="M101.543 18.8313L104.987 18.606L105.213 22.0502L101.768 22.2755L101.543 18.8313Z" fill="#2B519B"/>
<path d="M106.502 18.6621L104.006 16.2784L106.39 13.7822L108.886 16.1659L106.502 18.6621Z" fill="#2B519B"/>
<path d="M99.4223 25.3739L101.129 28.3738L98.1295 30.0808L96.4224 27.0809L99.4223 25.3739Z" fill="#2B519B"/>
<path d="M104.467 25.3207L105.018 21.9133L108.425 22.4639L107.874 25.8712L104.467 25.3207Z" fill="#2B519B"/>
<path d="M96.3583 35.7323L98.441 32.9799L101.193 35.0626L99.1107 37.815L96.3583 35.7323Z" fill="#2B519B"/>
<path d="M108.845 43.5147L105.999 45.4669L104.047 42.6205L106.893 40.6683L108.845 43.5147Z" fill="#2B519B"/>
<path d="M97.8196 40.8221L101.021 42.1113L99.7322 45.3131L96.5304 44.0239L97.8196 40.8221Z" fill="#2B519B"/>
<path d="M99.6611 44.6282L101.05 47.7879L97.8907 49.1771L96.5014 46.0175L99.6611 44.6282Z" fill="#2B519B"/>
<path d="M96.3402 50.5824L98.9312 48.3021L101.212 50.8931L98.6205 53.1734L96.3402 50.5824Z" fill="#2B519B"/>
<path d="M96.8462 53.0785L100.27 52.6432L100.706 56.0672L97.2815 56.5025L96.8462 53.0785Z" fill="#2B519B"/>
<path d="M98.4898 55.9841L101.2 58.1217L99.062 60.8317L96.3521 58.694L98.4898 55.9841Z" fill="#2B519B"/>
<path d="M95.3924 67.4972L91.9876 68.0635L91.4212 64.6588L94.826 64.0924L95.3924 67.4972Z" fill="#2B519B"/>
<path d="M97.9157 68.362L96.4919 65.2178L99.6361 63.794L101.06 66.9382L97.9157 68.362Z" fill="#2B519B"/>
<path d="M103.604 57.2997L106.787 58.6337L105.453 61.817L102.27 60.483L103.604 57.2997Z" fill="#2B519B"/>
<path d="M108.449 64.6841L107.84 68.0814L104.442 67.4719L105.052 64.0746L108.449 64.6841Z" fill="#2B519B"/>
<path d="M100.945 78.7017L97.6574 79.7524L96.6067 76.4647L99.8944 75.4139L100.945 78.7017Z" fill="#2B519B"/>
<path d="M101.161 80.8989L99.2953 83.803L96.3912 81.9376L98.2565 79.0335L101.161 80.8989Z" fill="#2B519B"/>
<path d="M112.683 11.9556L110.712 14.7893L107.879 12.8186L109.849 9.98492L112.683 11.9556Z" fill="#2B519B"/>
<path d="M100.188 23.5988L102.904 21.4694L105.034 24.1857L102.318 26.3152L100.188 23.5988Z" fill="#2B519B"/>
<path d="M97.647 25.7719L94.8403 27.7808L92.8314 24.974L95.6381 22.9652L97.647 25.7719Z" fill="#2B519B"/>
<path d="M107.854 35.1415L110.537 32.9703L112.708 35.6535L110.025 37.8247L107.854 35.1415Z" fill="#2B519B"/>
<path d="M112.57 38.3851L111.128 41.5213L107.992 40.08L109.433 36.9438L112.57 38.3851Z" fill="#2B519B"/>
<path d="M94.9329 43.8587L96.4506 40.7588L99.5506 42.2765L98.0328 45.3764L94.9329 43.8587Z" fill="#2B519B"/>
<path d="M105.035 43.3484L102.33 45.492L100.187 42.7868L102.892 40.6432L105.035 43.3484Z" fill="#2B519B"/>
<path d="M109.246 48.5274L112.491 49.7029L111.316 52.9481L108.071 51.7726L109.246 48.5274Z" fill="#2B519B"/>
<path d="M111.221 40.8151L112.533 44.0073L109.341 45.3201L108.028 42.1279L111.221 40.8151Z" fill="#2B519B"/>
<path d="M103.427 52.2726L104.911 55.3888L101.795 56.873L100.311 53.7569L103.427 52.2726Z" fill="#2B519B"/>
<path d="M104.87 59.3317L101.687 60.6669L100.352 57.484L103.535 56.1488L104.87 59.3317Z" fill="#2B519B"/>
<path d="M105.048 62.3724L102.481 64.6801L100.174 62.1134L102.74 59.8057L105.048 62.3724Z" fill="#2B519B"/>
<path d="M104.053 68.0471L100.642 67.5199L101.169 64.1088L104.58 64.6361L104.053 68.0471Z" fill="#2B519B"/>
<path d="M109.606 76.0935L107.936 73.073L110.956 71.4027L112.627 74.4232L109.606 76.0935Z" fill="#2B519B"/>
<path d="M104.745 72.5646L103.794 75.8826L100.476 74.9316L101.427 71.6136L104.745 72.5646Z" fill="#2B519B"/>
<path d="M102.89 80.0078L100.186 77.8622L102.332 75.1586L105.036 77.3041L102.89 80.0078Z" fill="#2B519B"/>
<path d="M118.796 72.3432L118.206 75.7438L114.805 75.1531L115.396 71.7524L118.796 72.3432Z" fill="#2B519B"/>
<path d="M101.269 12.5728L101.472 9.12729L104.918 9.33115L104.714 12.7767L101.269 12.5728Z" fill="#2B519B"/>
<path d="M101.514 21.6138L98.9985 23.9773L96.635 21.4619L99.1504 19.0985L101.514 21.6138Z" fill="#2B519B"/>
<path d="M106.781 30.1449L104.028 28.0622L106.111 25.3098L108.864 27.3925L106.781 30.1449Z" fill="#2B519B"/>
<path d="M104.285 32.6958L105.313 29.4009L108.608 30.429L107.579 33.7239L104.285 32.6958Z" fill="#2B519B"/>
<path d="M107.691 37.4967L104.347 36.6425L105.201 33.2983L108.545 34.1525L107.691 37.4967Z" fill="#2B519B"/>
<path d="M116.273 30.4206L115.258 33.7195L111.959 32.7042L112.974 29.4054L116.273 30.4206Z" fill="#2B519B"/>
<path d="M99.0526 48.2662L99.7133 44.8785L103.101 45.5392L102.44 48.9269L99.0526 48.2662Z" fill="#2B519B"/>
<path d="M110.014 49.4971L108.837 46.2526L112.082 45.0752L113.259 48.3198L110.014 49.4971Z" fill="#2B519B"/>
<path d="M116.505 55.0719L113.617 56.9618L111.727 54.0737L114.615 52.1837L116.505 55.0719Z" fill="#2B519B"/>
<path d="M106.248 57.0054L104.013 54.3745L106.644 52.1402L108.879 54.7711L106.248 57.0054Z" fill="#2B519B"/>
<path d="M116.538 51.0386L113.815 53.1598L111.694 50.4369L114.417 48.3157L116.538 51.0386Z" fill="#2B519B"/>
<path d="M104.757 60.4816L108.207 60.5534L108.136 64.0042L104.685 63.9324L104.757 60.4816Z" fill="#2B519B"/>
<path d="M106.98 68.4594L104.065 66.6122L105.912 63.6965L108.827 65.5438L106.98 68.4594Z" fill="#2B519B"/>
<path d="M108.211 71.5984L104.761 71.6783L104.681 68.2277L108.131 68.1478L108.211 71.5984Z" fill="#2B519B"/>
<path d="M107.542 71.5675L108.627 74.8443L105.35 75.9287L104.265 72.6519L107.542 71.5675Z" fill="#2B519B"/>
<path d="M104.039 77.9873L106.042 75.1762L108.853 77.179L106.85 79.9901L104.039 77.9873Z" fill="#2B519B"/>
<path d="M107.416 83.6579L104.206 82.388L105.476 79.1786L108.686 80.4485L107.416 83.6579Z" fill="#2B519B"/>
<path d="M115.988 12.9624L118.422 15.4095L115.975 17.8436L113.541 15.3965L115.988 12.9624Z" fill="#2B519B"/>
<path d="M108.836 25.8591L108.314 22.4473L111.726 21.9254L112.248 25.3373L108.836 25.8591Z" fill="#2B519B"/>
<path d="M117.059 22.3291L115.679 19.1654L118.843 17.7854L120.223 20.949L117.059 22.3291Z" fill="#2B519B"/>
<path d="M110.86 33.9334L107.91 32.1415L109.702 29.1915L112.652 30.9834L110.86 33.9334Z" fill="#2B519B"/>
<path d="M104.074 36.9402L107.204 38.3949L105.75 41.5249L102.62 40.0701L104.074 36.9402Z" fill="#2B519B"/>
<path d="M102.477 43.2283L104.751 40.6323L107.347 42.9069L105.073 45.5029L102.477 43.2283Z" fill="#2B519B"/>
<path d="M102.54 47.4764L104.338 44.5304L107.284 46.3289L105.486 49.2749L102.54 47.4764Z" fill="#2B519B"/>
<path d="M117.532 41.6368L115.547 38.813L118.371 36.8283L120.355 39.6521L117.532 41.6368Z" fill="#2B519B"/>
<path d="M108.986 42.4464L112.436 42.5396L112.343 45.9899L108.893 45.8967L108.986 42.4464Z" fill="#2B519B"/>
<path d="M112.615 55.2871L109.567 56.9066L107.947 53.8585L110.995 52.2391L112.615 55.2871Z" fill="#2B519B"/>
<path d="M112.703 58.103L110.586 60.8294L107.86 58.7128L109.976 55.9864L112.703 58.103Z" fill="#2B519B"/>
<path d="M115.785 55.698L116.826 52.407L120.117 53.4476L119.076 56.7386L115.785 55.698Z" fill="#2B519B"/>
<path d="M108.178 64.8391L111.52 63.9752L112.384 67.3168L109.042 68.1808L108.178 64.8391Z" fill="#2B519B"/>
<path d="M112.705 69.6313L110.563 72.3374L107.857 70.1948L109.999 67.4888L112.705 69.6313Z" fill="#2B519B"/>
<path d="M117.376 66.1667L120.665 65.1192L121.712 68.408L118.423 69.4555L117.376 66.1667Z" fill="#2B519B"/>
<path d="M107.849 77.3848L110.48 75.1507L112.714 77.7816L110.083 80.0157L107.849 77.3848Z" fill="#2B519B"/>
<path d="M109.078 83.5416L108.158 80.2149L111.484 79.2949L112.404 82.6216L109.078 83.5416Z" fill="#2B519B"/>
<path d="M113.282 17.7636L116.41 19.223L114.95 22.3508L111.823 20.8914L113.282 17.7636Z" fill="#2B519B"/>
<path d="M118.832 17.7811L120.227 20.938L117.07 22.3334L115.675 19.1764L118.832 17.7811Z" fill="#2B519B"/>
<path d="M120.703 22.2443L119.599 18.974L122.87 17.8702L123.973 21.1405L120.703 22.2443Z" fill="#2B519B"/>
<path d="M116.391 25.0116L117.983 21.9487L121.045 23.54L119.454 26.6029L116.391 25.0116Z" fill="#2B519B"/>
<path d="M128.062 16.1871L125.656 18.6625L123.181 16.2572L125.586 13.7818L128.062 16.1871Z" fill="#2B519B"/>
<path d="M131.438 14.7972L130.881 18.2036L127.475 17.6471L128.031 14.2407L131.438 14.7972Z" fill="#2B519B"/>
<path d="M116.058 26.2493L115.594 29.6695L112.174 29.2054L112.638 25.7852L116.058 26.2493Z" fill="#2B519B"/>
<path d="M123.363 30.6367L126.547 29.3042L127.88 32.4881L124.696 33.8207L123.363 30.6367Z" fill="#2B519B"/>
<path d="M119.4 28.2386L121.275 25.3409L124.173 27.2161L122.297 30.1138L119.4 28.2386Z" fill="#2B519B"/>
<path d="M124.227 35.3535L121.83 37.8377L119.346 35.4415L121.742 32.9573L124.227 35.3535Z" fill="#2B519B"/>
<path d="M119.829 33.1211L116.393 33.4405L116.073 30.0037L119.51 29.6844L119.829 33.1211Z" fill="#2B519B"/>
<path d="M123.144 33.5903L119.758 32.9204L120.428 29.5345L123.814 30.2044L123.144 33.5903Z" fill="#2B519B"/>
<path d="M127.6 23.9635L127.337 27.405L123.895 27.1421L124.158 23.7005L127.6 23.9635Z" fill="#2B519B"/>
<path d="M115.562 34.9014L118.447 33.0078L120.341 35.8935L117.455 37.7872L115.562 34.9014Z" fill="#2B519B"/>
<path d="M127.539 38.8243L124.112 39.233L123.703 35.8057L127.13 35.3971L127.539 38.8243Z" fill="#2B519B"/>
<path d="M119.39 42.6043L122.25 40.6714L124.182 43.5309L121.323 45.4638L119.39 42.6043Z" fill="#2B519B"/>
<path d="M110.423 44.2062L111.443 40.9089L114.741 41.929L113.721 45.2264L110.423 44.2062Z" fill="#2B519B"/>
<path d="M123.105 37.1787L123.84 40.551L120.468 41.2864L119.732 37.9141L123.105 37.1787Z" fill="#2B519B"/>
<path d="M127.994 41.1866L127.502 37.7703L130.918 37.2785L131.41 40.6949L127.994 41.1866Z" fill="#2B519B"/>
<path d="M118.493 40.688L120.331 43.6097L117.409 45.4473L115.572 42.5255L118.493 40.688Z" fill="#2B519B"/>
<path d="M115.033 44.8927L118.427 45.5183L117.802 48.9127L114.407 48.2871L115.033 44.8927Z" fill="#2B519B"/>
<path d="M116.308 45.83L115.189 49.0949L111.924 47.9753L113.043 44.7104L116.308 45.83Z" fill="#2B519B"/>
<path d="M119.988 45.5582L119.296 48.9396L115.914 48.2472L116.607 44.8658L119.988 45.5582Z" fill="#2B519B"/>
<path d="M122.037 49.3304L119.359 47.1537L121.535 44.475L124.214 46.6517L122.037 49.3304Z" fill="#2B519B"/>
<path d="M106.707 55.9128L107.407 52.5329L110.787 53.2328L110.087 56.6127L106.707 55.9128Z" fill="#2B519B"/>
<path d="M131.046 41.1533L132.521 44.2738L129.401 45.7489L127.926 42.6285L131.046 41.1533Z" fill="#2B519B"/>
<path d="M119.578 51.7764L120.748 48.5292L123.995 49.6991L122.825 52.9463L119.578 51.7764Z" fill="#2B519B"/>
<path d="M119.365 46.5997L122.089 44.481L124.208 47.2057L121.483 49.3244L119.365 46.5997Z" fill="#2B519B"/>
<path d="M119.412 56.5281L115.996 56.0335L116.491 52.6175L119.906 53.1121L119.412 56.5281Z" fill="#2B519B"/>
<path d="M123.189 52.5759L123.783 55.976L120.383 56.5698L119.789 53.1697L123.189 52.5759Z" fill="#2B519B"/>
<path d="M120.601 45.7251L122.197 48.7858L119.136 50.3813L117.541 47.3206L120.601 45.7251Z" fill="#2B519B"/>
<path d="M118.443 60.7984L115.561 58.8998L117.459 56.0173L120.342 57.9159L118.443 60.7984Z" fill="#2B519B"/>
<path d="M123.011 60.5191L119.675 59.6323L120.562 56.2966L123.898 57.1835L123.011 60.5191Z" fill="#2B519B"/>
<path d="M116.974 60.9198L120.425 60.8818L120.463 64.3331L117.012 64.3711L116.974 60.9198Z" fill="#2B519B"/>
<path d="M124.719 52.3052L127.889 53.6703L126.524 56.8404L123.354 55.4753L124.719 52.3052Z" fill="#2B519B"/>
<path d="M128.054 49.5026L129.925 52.4034L127.024 54.2739L125.153 51.3731L128.054 49.5026Z" fill="#2B519B"/>
<path d="M124.224 58.28L121.914 60.8451L119.349 58.5358L121.658 55.9706L124.224 58.28Z" fill="#2B519B"/>
<path d="M115.822 64.8847L119.144 63.949L120.08 67.2713L116.758 68.207L115.822 64.8847Z" fill="#2B519B"/>
<path d="M119.352 66.2491L121.615 63.6434L124.221 65.9068L121.957 68.5126L119.352 66.2491Z" fill="#2B519B"/>
<path d="M119.854 72.225L118.324 69.131L121.418 67.6011L122.948 70.6951L119.854 72.225Z" fill="#2B519B"/>
<path d="M120.217 70.8201L117.044 72.1789L115.685 69.006L118.858 67.6472L120.217 70.8201Z" fill="#2B519B"/>
<path d="M124.189 69.4824L122.217 72.3154L119.384 70.3437L121.356 67.5107L124.189 69.4824Z" fill="#2B519B"/>
<path d="M112.174 72.2701L115.594 71.806L116.058 75.2262L112.638 75.6903L112.174 72.2701Z" fill="#2B519B"/>
<path d="M125.492 68.5152L123.184 65.9485L125.751 63.6408L128.058 66.2075L125.492 68.5152Z" fill="#2B519B"/>
<path d="M123.583 75.3997L120.135 75.545L119.989 72.0965L123.438 71.9512L123.583 75.3997Z" fill="#2B519B"/>
<path d="M119.974 71.5483L120.151 68.1013L123.598 68.2778L123.421 71.7249L119.974 71.5483Z" fill="#2B519B"/>
<path d="M119.682 79.3041L116.23 79.3138L116.221 75.8623L119.672 75.8525L119.682 79.3041Z" fill="#2B519B"/>
<path d="M130.452 78.745L127.144 79.7295L126.159 76.4213L129.468 75.4369L130.452 78.745Z" fill="#2B519B"/>
<path d="M114.218 78.9798L116.555 81.52L114.014 83.8568L111.678 81.3165L114.218 78.9798Z" fill="#2B519B"/>
<path d="M125.604 79.257L126.632 82.552L123.337 83.5796L122.309 80.2845L125.604 79.257Z" fill="#2B519B"/>
<path d="M119.348 81.5145L121.69 78.9795L124.225 81.322L121.883 83.857L119.348 81.5145Z" fill="#2B519B"/>
<path d="M93.166 86.5617L89.7973 87.3136L89.0455 83.9449L92.4142 83.193L93.166 86.5617Z" fill="#2B519B"/>
<path d="M100.306 83.3199L96.8742 82.9481L97.2461 79.5166L100.678 79.8885L100.306 83.3199Z" fill="#2B519B"/>
<path d="M95.2928 79.9493L98.7108 79.4692L99.1909 82.8872L95.773 83.3673L95.2928 79.9493Z" fill="#2B519B"/>
<path d="M93.7015 91.1909L92.8383 87.8491L96.1801 86.9858L97.0434 90.3277L93.7015 91.1909Z" fill="#2B519B"/>
<path d="M114.98 79.1355L116.399 82.2819L113.252 83.701L111.833 80.5546L114.98 79.1355Z" fill="#2B519B"/>
<path d="M97.2497 87.1838L100.68 87.5622L100.302 90.9929L96.8713 90.6146L97.2497 87.1838Z" fill="#2B519B"/>
<path d="M100.17 85.2343L102.63 82.8128L105.052 85.2723L102.592 87.6939L100.17 85.2343Z" fill="#2B519B"/>
<path d="M101.753 91.3732L100.326 88.2304L103.469 86.8035L104.896 89.9463L101.753 91.3732Z" fill="#2B519B"/>
<path d="M104.01 85.4096L106.29 82.8177L108.882 85.097L106.602 87.6889L104.01 85.4096Z" fill="#2B519B"/>
<path d="M108.254 87.4484L108.086 90.8959L104.638 90.7283L104.806 87.2809L108.254 87.4484Z" fill="#2B519B"/>
<path d="M125.838 66.0446L124.888 69.3628L121.57 68.4124L122.52 65.0943L125.838 66.0446Z" fill="#2B519B"/>
<path d="M119.553 91.0816L119.793 94.5248L116.35 94.7653L116.109 91.3221L119.553 91.0816Z" fill="#2B519B"/>
<path d="M116.084 86.6969L112.673 87.2212L112.148 83.8097L115.56 83.2854L116.084 86.6969Z" fill="#2B519B"/>
<path d="M119.619 83.4711L119.733 86.9207L116.284 87.0356L116.169 83.5859L119.619 83.4711Z" fill="#2B519B"/>
<path d="M129.753 75.9248L126.513 77.1131L125.324 73.8725L128.565 72.6842L129.753 75.9248Z" fill="#2B519B"/>
<path d="M117.271 82.967L118.704 86.1074L115.563 87.5396L114.131 84.3992L117.271 82.967Z" fill="#2B519B"/>
<path d="M119.548 90.9343L116.105 90.685L116.355 87.2424L119.797 87.4918L119.548 90.9343Z" fill="#2B519B"/>
<path d="M119.847 90.5697L120.305 87.1487L123.726 87.607L123.268 91.028L119.847 90.5697Z" fill="#2B519B"/>
<path d="M93.0753 94.3649L89.6643 94.8929L89.1362 91.482L92.5472 90.9539L93.0753 94.3649Z" fill="#2B519B"/>
<path d="M97.3209 92.3833L95.4809 95.3036L92.5607 93.4636L94.4007 90.5434L97.3209 92.3833Z" fill="#2B519B"/>
<path d="M105.986 82.8564L108.843 84.7936L106.906 87.6503L104.049 85.7131L105.986 82.8564Z" fill="#2B519B"/>
<path d="M102.548 95.3633L100.171 92.8609L102.673 90.4836L105.051 92.986L102.548 95.3633Z" fill="#2B519B"/>
<path d="M114.568 94.3601L116.514 97.2105L113.664 99.1569L111.718 96.3065L114.568 94.3601Z" fill="#2B519B"/>
<path d="M108.693 94.7771L108.427 91.3358L111.869 91.0698L112.135 94.5111L108.693 94.7771Z" fill="#2B519B"/>
<path d="M117.739 81.3771L121.06 80.4388L121.999 83.7604L118.677 84.6987L117.739 81.3771Z" fill="#2B519B"/>
<path d="M116.145 94.5652L116.309 91.1176L119.757 91.2816L119.593 94.7293L116.145 94.5652Z" fill="#2B519B"/>
<path d="M119.361 92.6517L122.058 90.498L124.212 93.1952L121.515 95.3489L119.361 92.6517Z" fill="#2B519B"/>
<path d="M96.6182 90.2289L97.6355 86.9306L100.934 87.9479L99.9164 91.2461L96.6182 90.2289Z" fill="#2B519B"/>
<path d="M93.1584 95.0913L96.6081 94.9761L96.7232 98.4257L93.2736 98.5409L93.1584 95.0913Z" fill="#2B519B"/>
<path d="M106.896 86.9978L103.935 88.7711L102.161 85.8099L105.122 84.0366L106.896 86.9978Z" fill="#2B519B"/>
<path d="M104.839 97.7539L101.616 98.9869L100.383 95.7631L103.606 94.5301L104.839 97.7539Z" fill="#2B519B"/>
<path d="M116.514 89.5446L113.66 91.486L111.718 88.6322L114.572 86.6908L116.514 89.5446Z" fill="#2B519B"/>
<path d="M112.72 96.6585L110.381 99.1971L107.843 96.8585L110.181 94.3199L112.72 96.6585Z" fill="#2B519B"/>
<path d="M111.676 96.757L114.118 94.3179L116.557 96.76L114.115 99.1991L111.676 96.757Z" fill="#2B519B"/>
<path d="M123.439 90.1802L124.53 86.9056L127.804 87.9966L126.713 91.2712L123.439 90.1802Z" fill="#2B519B"/>
<path d="M122.193 99.165L119.38 97.165L121.38 94.352L124.193 96.352L122.193 99.165Z" fill="#2B519B"/>
<path d="M90.1578 102.843L88.8567 99.6457L92.0537 98.3446L93.3548 101.542L90.1578 102.843Z" fill="#2B519B"/>
<path d="M95.7925 98.3064L97.228 101.445L94.0891 102.881L92.6536 99.7419L95.7925 98.3064Z" fill="#2B519B"/>
<path d="M101.189 100.229L99.1409 103.007L96.3627 100.959L98.4109 98.1804L101.189 100.229Z" fill="#2B519B"/>
<path d="M102.529 103.033L100.172 100.512L102.693 98.1543L105.05 100.675L102.529 103.033Z" fill="#2B519B"/>
<path d="M112.801 92.6039L109.834 90.8418L111.596 87.8739L114.564 89.636L112.801 92.6039Z" fill="#2B519B"/>
<path d="M112.401 101.803L109.072 102.714L108.161 99.3843L111.49 98.4736L112.401 101.803Z" fill="#2B519B"/>
<path d="M111.684 100.396L114.313 98.1609L116.549 100.791L113.919 103.026L111.684 100.396Z" fill="#2B519B"/>
<path d="M115.769 101.686L116.859 98.411L120.134 99.5014L119.043 102.776L115.769 101.686Z" fill="#2B519B"/>
<path d="M122.049 98.1671L124.213 100.856L121.524 103.02L119.36 100.331L122.049 98.1671Z" fill="#2B519B"/>
<path d="M99.0218 110.692L96.3476 108.51L98.5297 105.836L101.204 108.018L99.0218 110.692Z" fill="#2B519B"/>
<path d="M101.31 98.8234L100.546 95.4574L103.912 94.6937L104.676 98.0597L101.31 98.8234Z" fill="#2B519B"/>
<path d="M99.9544 106.566L96.6387 105.607L97.5974 102.291L100.913 103.25L99.9544 106.566Z" fill="#2B519B"/>
<path d="M100.211 104.871L102.168 102.028L105.011 103.986L103.054 106.829L100.211 104.871Z" fill="#2B519B"/>
<path d="M106.361 106.868L104.007 104.344L106.531 101.99L108.885 104.514L106.361 106.868Z" fill="#2B519B"/>
<path d="M107.916 105.032L109.677 102.064L112.646 103.825L110.885 106.793L107.916 105.032Z" fill="#2B519B"/>
<path d="M121.012 99.073L119.472 95.9842L122.56 94.444L124.101 97.5329L121.012 99.073Z" fill="#2B519B"/>
<path d="M120.24 103.581L118.799 106.717L115.663 105.276L117.103 102.14L120.24 103.581Z" fill="#2B519B"/>
<path d="M119.421 105.032L121.183 102.064L124.151 103.826L122.389 106.794L119.421 105.032Z" fill="#2B519B"/>
<path d="M91.2564 105.828L93.5417 108.414L90.9551 110.7L88.6698 108.113L91.2564 105.828Z" fill="#2B519B"/>
<path d="M101.199 100.297L98.3055 98.4144L100.188 95.5213L103.081 97.4037L101.199 100.297Z" fill="#2B519B"/>
<path d="M98.7464 105.823L101.216 108.234L98.8054 110.704L96.3354 108.293L98.7464 105.823Z" fill="#2B519B"/>
<path d="M111.254 98.3555L112.519 101.567L109.307 102.832L108.043 99.6201L111.254 98.3555Z" fill="#2B519B"/>
<path d="M105.944 110.652L104.058 107.762L106.948 105.875L108.835 108.765L105.944 110.652Z" fill="#2B519B"/>
<path d="M109.533 110.587L107.958 107.516L111.029 105.94L112.604 109.011L109.533 110.587Z" fill="#2B519B"/>
<path d="M113.013 110.441L111.939 107.161L115.219 106.087L116.293 109.367L113.013 110.441Z" fill="#2B519B"/>
<path d="M120.373 108.567L117.648 110.685L115.529 107.96L118.254 105.842L120.373 108.567Z" fill="#2B519B"/>
<path d="M124.152 107.663L122.387 110.629L119.421 108.864L121.185 105.898L124.152 107.663Z" fill="#2B519B"/>
<path d="M88.6838 112.4L90.8044 109.677L93.5277 111.797L91.4071 114.521L88.6838 112.4Z" fill="#2B519B"/>
<path d="M95.0089 109.659L97.3805 112.167L94.8728 114.538L92.5011 112.031L95.0089 109.659Z" fill="#2B519B"/>
<path d="M108.668 116.944L105.436 118.156L104.224 114.924L107.456 113.712L108.668 116.944Z" fill="#2B519B"/>
<path d="M112.406 103.228L111.482 106.553L108.156 105.63L109.08 102.304L112.406 103.228Z" fill="#2B519B"/>
<path d="M122.213 93.394L120.549 96.4179L117.525 94.7539L119.189 91.7299L122.213 93.394Z" fill="#2B519B"/>
<path d="M111.464 114.233L108.146 113.282L109.098 109.964L112.416 110.915L111.464 114.233Z" fill="#2B519B"/>
<path d="M114.012 114.537L111.678 111.995L114.22 109.66L116.555 112.203L114.012 114.537Z" fill="#2B519B"/>
<path d="M124.18 99.3503L126.097 102.22L123.228 104.138L121.31 101.268L124.18 99.3503Z" fill="#2B519B"/>
<path d="M128.11 102.393L131.492 103.082L130.802 106.464L127.42 105.775L128.11 102.393Z" fill="#2B519B"/>
<path d="M91.5347 113.531L93.5084 116.363L90.6768 118.336L88.7031 115.505L91.5347 113.531Z" fill="#2B519B"/>
<path d="M92.7189 116.944L93.931 113.712L97.1627 114.924L95.9506 118.156L92.7189 116.944Z" fill="#2B519B"/>
<path d="M100.936 117.071L97.6392 118.094L96.6161 114.797L99.9125 113.774L100.936 117.071Z" fill="#2B519B"/>
<path d="M101.265 117.97L100.575 114.588L103.957 113.898L104.647 117.279L101.265 117.97Z" fill="#2B519B"/>
<path d="M106.647 113.501L108.878 116.135L106.245 118.366L104.014 115.733L106.647 113.501Z" fill="#2B519B"/>
<path d="M109.08 113.809L112.406 114.733L111.482 118.059L108.156 117.135L109.08 113.809Z" fill="#2B519B"/>
<path d="M116.557 115.903L114.147 118.374L111.676 115.965L114.085 113.493L116.557 115.903Z" fill="#2B519B"/>
<path d="M124.094 106.36L127.525 106.736L127.148 110.167L123.718 109.791L124.094 106.36Z" fill="#2B519B"/>
<path d="M120.424 113.909L123.811 114.571L123.149 117.959L119.761 117.296L120.424 113.909Z" fill="#2B519B"/>
<path d="M92.5303 121.751L89.124 121.193L89.6813 117.787L93.0875 118.344L92.5303 121.751Z" fill="#2B519B"/>
<path d="M107.181 103.88L106.228 100.562L109.545 99.6087L110.499 102.926L107.181 103.88Z" fill="#2B519B"/>
<path d="M97.3785 117.768L100.777 118.372L100.173 121.77L96.7749 121.166L97.3785 117.768Z" fill="#2B519B"/>
<path d="M111.139 121.319L112.566 124.462L109.423 125.889L107.996 122.746L111.139 121.319Z" fill="#2B519B"/>
<path d="M116.216 113.342L112.873 114.199L112.016 110.855L115.359 109.999L116.216 113.342Z" fill="#2B519B"/>
<path d="M110.726 122.169L107.881 120.213L109.837 117.369L112.681 119.324L110.726 122.169Z" fill="#2B519B"/>
<path d="M114.387 117.343L116.542 120.04L113.845 122.194L111.691 119.498L114.387 117.343Z" fill="#2B519B"/>
<path d="M119.135 121.903L115.817 120.952L116.768 117.634L120.086 118.585L119.135 121.903Z" fill="#2B519B"/>
<path d="M121.327 117.372L124.183 119.309L122.246 122.166L119.389 120.228L121.327 117.372Z" fill="#2B519B"/>
<path d="M89.3763 121.882L92.8278 121.874L92.8352 125.326L89.3837 125.333L89.3763 121.882Z" fill="#2B519B"/>
<path d="M93.5163 121.622L96.9226 122.179L96.3654 125.586L92.9591 125.029L93.5163 121.622Z" fill="#2B519B"/>
<path d="M99.7007 121.345L101.034 124.529L97.8511 125.863L96.5173 122.679L99.7007 121.345Z" fill="#2B519B"/>
<path d="M101.091 125.514L100.701 122.084L104.131 121.694L104.521 125.124L101.091 125.514Z" fill="#2B519B"/>
<path d="M108.297 122.013L108.037 125.455L104.595 125.195L104.855 121.753L108.297 122.013Z" fill="#2B519B"/>
<path d="M112.566 124.462L109.423 125.889L107.996 122.746L111.139 121.319L112.566 124.462Z" fill="#2B519B"/>
<path d="M115.487 125.623L112.097 124.975L112.745 121.585L116.135 122.233L115.487 125.623Z" fill="#2B519B"/>
<path d="M119.046 125.785L115.77 124.699L116.856 121.423L120.132 122.509L119.046 125.785Z" fill="#2B519B"/>
<path d="M119.433 122.956L122.434 121.251L124.139 124.252L121.139 125.957L119.433 122.956Z" fill="#2B519B"/>
</svg>
