<svg width="118" height="111" viewBox="0 0 118 111" fill="none" xmlns="http://www.w3.org/2000/svg">
<path d="M0 0L3.55184 0V3.55184H0L0 0Z" fill="#4584CC"/>
<path d="M0 3.94649H3.55184V7.49833H0L0 3.94649Z" fill="#4584CC"/>
<path d="M0 7.89298H3.55184V11.4448H0L0 7.89298Z" fill="#4584CC"/>
<path d="M0 11.8395H3.55184V15.3913H0L0 11.8395Z" fill="#4584CC"/>
<path d="M0 15.786H3.55184V19.3378H0L0 15.786Z" fill="#4584CC"/>
<path d="M0 19.7324H3.55184V23.2843H0L0 19.7324Z" fill="#4584CC"/>
<path d="M0 23.6789H3.55184V27.2308H0L0 23.6789Z" fill="#4584CC"/>
<path d="M0 27.6254H3.55184V31.1773H0L0 27.6254Z" fill="#4584CC"/>
<path d="M0 31.5719H3.55184V35.1237H0L0 31.5719Z" fill="#4584CC"/>
<path d="M0 35.5184H3.55184V39.0702H0L0 35.5184Z" fill="#4584CC"/>
<path d="M0 39.4649H3.55184V43.0167H0L0 39.4649Z" fill="#4584CC"/>
<path d="M0 43.4114H3.55184V46.9632H0L0 43.4114Z" fill="#4584CC"/>
<path d="M0 47.3579H3.55184V50.9097H0L0 47.3579Z" fill="#4584CC"/>
<path d="M0 51.3044H3.55184V54.8562H0L0 51.3044Z" fill="#4584CC"/>
<path d="M0 55.2508H3.55184V58.8027H0L0 55.2508Z" fill="#4584CC"/>
<path d="M0 59.1973H3.55184V62.7492H0L0 59.1973Z" fill="#4584CC"/>
<path d="M0 63.1438H3.55184V66.6957H0L0 63.1438Z" fill="#4584CC"/>
<path d="M3.94649 0L7.49833 0V3.55184H3.94649V0Z" fill="#4584CC"/>
<path d="M3.94649 3.94649H7.49833V7.49833H3.94649V3.94649Z" fill="#4584CC"/>
<path d="M3.94649 7.89298H7.49833V11.4448H3.94649V7.89298Z" fill="#4584CC"/>
<path d="M3.94649 11.8395H7.49833V15.3913H3.94649V11.8395Z" fill="#4584CC"/>
<path d="M3.94649 15.786H7.49833V19.3378H3.94649V15.786Z" fill="#4584CC"/>
<path d="M3.94649 19.7324H7.49833V23.2843H3.94649V19.7324Z" fill="#4584CC"/>
<path d="M3.94649 23.6789H7.49833V27.2308H3.94649V23.6789Z" fill="#4584CC"/>
<path d="M3.94649 27.6254H7.49833V31.1773H3.94649V27.6254Z" fill="#4584CC"/>
<path d="M3.94649 31.5719H7.49833V35.1237H3.94649V31.5719Z" fill="#4584CC"/>
<path d="M3.94649 35.5184H7.49833V39.0702H3.94649V35.5184Z" fill="#4584CC"/>
<path d="M3.94649 39.4649H7.49833V43.0167H3.94649V39.4649Z" fill="#4584CC"/>
<path d="M3.94649 43.4114H7.49833V46.9632H3.94649V43.4114Z" fill="#4584CC"/>
<path d="M3.94649 47.3579H7.49833V50.9097H3.94649V47.3579Z" fill="#4584CC"/>
<path d="M3.94649 51.3044H7.49833V54.8562H3.94649V51.3044Z" fill="#4584CC"/>
<path d="M3.94649 55.2508H7.49833V58.8027H3.94649V55.2508Z" fill="#4584CC"/>
<path d="M3.94649 59.1973H7.49833V62.7492H3.94649V59.1973Z" fill="#4584CC"/>
<path d="M3.94649 63.1438H7.49833V66.6957H3.94649V63.1438Z" fill="#4584CC"/>
<path d="M7.89298 0L11.4448 0V3.55184H7.89298V0Z" fill="#4584CC"/>
<path d="M7.89298 3.94649H11.4448V7.49833H7.89298V3.94649Z" fill="#4584CC"/>
<path d="M7.89298 7.89298H11.4448V11.4448H7.89298V7.89298Z" fill="#4584CC"/>
<path d="M7.89298 11.8395H11.4448V15.3913H7.89298V11.8395Z" fill="#4584CC"/>
<path d="M7.89298 15.786H11.4448V19.3378H7.89298V15.786Z" fill="#4584CC"/>
<path d="M7.89298 19.7324H11.4448V23.2843H7.89298V19.7324Z" fill="#4584CC"/>
<path d="M7.89298 23.6789H11.4448V27.2308H7.89298V23.6789Z" fill="#4584CC"/>
<path d="M7.89298 27.6254H11.4448V31.1773H7.89298V27.6254Z" fill="#4584CC"/>
<path d="M7.89298 31.5719H11.4448V35.1237H7.89298V31.5719Z" fill="#4584CC"/>
<path d="M7.89298 35.5184H11.4448V39.0702H7.89298V35.5184Z" fill="#4584CC"/>
<path d="M7.89298 39.4649H11.4448V43.0167H7.89298V39.4649Z" fill="#4584CC"/>
<path d="M7.89298 43.4114H11.4448V46.9632H7.89298V43.4114Z" fill="#4584CC"/>
<path d="M7.89298 47.3579H11.4448V50.9097H7.89298V47.3579Z" fill="#4584CC"/>
<path d="M7.89298 51.3044H11.4448V54.8562H7.89298V51.3044Z" fill="#4584CC"/>
<path d="M7.89298 55.2508H11.4448V58.8027H7.89298V55.2508Z" fill="#4584CC"/>
<path d="M7.89298 59.1973H11.4448V62.7492H7.89298V59.1973Z" fill="#4584CC"/>
<path d="M7.89298 63.1438H11.4448V66.6957H7.89298V63.1438Z" fill="#4584CC"/>
<path d="M11.8395 0L15.3913 0V3.55184H11.8395V0Z" fill="#4584CC"/>
<path d="M11.8395 3.94649H15.3913V7.49833H11.8395V3.94649Z" fill="#4584CC"/>
<path d="M11.8395 7.89298H15.3913V11.4448H11.8395V7.89298Z" fill="#4584CC"/>
<path d="M11.8395 11.8395H15.3913V15.3913H11.8395V11.8395Z" fill="#4584CC"/>
<path d="M11.8395 15.786H15.3913V19.3378H11.8395V15.786Z" fill="#4584CC"/>
<path d="M11.8395 19.7324H15.3913V23.2843H11.8395V19.7324Z" fill="#4584CC"/>
<path d="M11.8395 23.6789H15.3913V27.2308H11.8395V23.6789Z" fill="#4584CC"/>
<path d="M11.8395 27.6254H15.3913V31.1773H11.8395V27.6254Z" fill="#4584CC"/>
<path d="M11.8395 31.5719H15.3913V35.1237H11.8395V31.5719Z" fill="#4584CC"/>
<path d="M11.8395 35.5184H15.3913V39.0702H11.8395V35.5184Z" fill="#4584CC"/>
<path d="M11.8395 39.4649H15.3913V43.0167H11.8395V39.4649Z" fill="#4584CC"/>
<path d="M11.8395 43.4114H15.3913V46.9632H11.8395V43.4114Z" fill="#4584CC"/>
<path d="M11.8395 47.3579H15.3913V50.9097H11.8395V47.3579Z" fill="#4584CC"/>
<path d="M11.8395 51.3044H15.3913V54.8562H11.8395V51.3044Z" fill="#4584CC"/>
<path d="M11.8395 55.2508H15.3913V58.8027H11.8395V55.2508Z" fill="#4584CC"/>
<path d="M11.8395 59.1973H15.3913V62.7492H11.8395V59.1973Z" fill="#4584CC"/>
<path d="M11.8395 63.1438H15.3913V66.6957H11.8395V63.1438Z" fill="#4584CC"/>
<path d="M15.786 0L19.3378 0V3.55184H15.786V0Z" fill="#4584CC"/>
<path d="M15.786 3.94649H19.3378V7.49833H15.786V3.94649Z" fill="#4584CC"/>
<path d="M15.786 7.89298H19.3378V11.4448H15.786V7.89298Z" fill="#4584CC"/>
<path d="M15.786 11.8395H19.3378V15.3913H15.786V11.8395Z" fill="#4584CC"/>
<path d="M15.786 15.786H19.3378V19.3378H15.786V15.786Z" fill="#4584CC"/>
<path d="M15.786 19.7324H19.3378V23.2843H15.786V19.7324Z" fill="#4584CC"/>
<path d="M15.786 23.6789H19.3378V27.2308H15.786V23.6789Z" fill="#4584CC"/>
<path d="M15.786 27.6254H19.3378V31.1773H15.786V27.6254Z" fill="#4584CC"/>
<path d="M15.786 31.5719H19.3378V35.1237H15.786V31.5719Z" fill="#4584CC"/>
<path d="M15.786 35.5184H19.3378V39.0702H15.786V35.5184Z" fill="#4584CC"/>
<path d="M15.786 39.4649H19.3378V43.0167H15.786V39.4649Z" fill="#4584CC"/>
<path d="M15.786 43.4114H19.3378V46.9632H15.786V43.4114Z" fill="#4584CC"/>
<path d="M15.786 47.3579H19.3378V50.9097H15.786V47.3579Z" fill="#4584CC"/>
<path d="M15.786 51.3044H19.3378V54.8562H15.786V51.3044Z" fill="#4584CC"/>
<path d="M15.786 55.2508H19.3378V58.8027H15.786V55.2508Z" fill="#4584CC"/>
<path d="M15.786 59.1973H19.3378V62.7492H15.786V59.1973Z" fill="#4584CC"/>
<path d="M15.786 63.1438H19.3378V66.6957H15.786V63.1438Z" fill="#4584CC"/>
<path d="M19.7324 0L23.2843 0V3.55184H19.7324V0Z" fill="#4584CC"/>
<path d="M19.7324 3.94649H23.2843V7.49833H19.7324V3.94649Z" fill="#4584CC"/>
<path d="M19.7324 7.89298H23.2843V11.4448H19.7324V7.89298Z" fill="#4584CC"/>
<path d="M19.7324 11.8395H23.2843V15.3913H19.7324V11.8395Z" fill="#4584CC"/>
<path d="M19.7324 15.786H23.2843V19.3378H19.7324V15.786Z" fill="#4584CC"/>
<path d="M19.7324 19.7324H23.2843V23.2843H19.7324V19.7324Z" fill="#4584CC"/>
<path d="M19.7324 23.6789H23.2843V27.2308H19.7324V23.6789Z" fill="#4584CC"/>
<path d="M19.7324 27.6254H23.2843V31.1773H19.7324V27.6254Z" fill="#4584CC"/>
<path d="M19.7324 31.5719H23.2843V35.1237H19.7324V31.5719Z" fill="#4584CC"/>
<path d="M19.7324 35.5184H23.2843V39.0702H19.7324V35.5184Z" fill="#4584CC"/>
<path d="M19.7324 39.4649H23.2843V43.0167H19.7324V39.4649Z" fill="#4584CC"/>
<path d="M19.7324 43.4114H23.2843V46.9632H19.7324V43.4114Z" fill="#4584CC"/>
<path d="M19.7324 47.3579H23.2843V50.9097H19.7324V47.3579Z" fill="#4584CC"/>
<path d="M19.7324 51.3044H23.2843V54.8562H19.7324V51.3044Z" fill="#4584CC"/>
<path d="M19.7324 55.2508H23.2843V58.8027H19.7324V55.2508Z" fill="#4584CC"/>
<path d="M19.7324 59.1973H23.2843V62.7492H19.7324V59.1973Z" fill="#4584CC"/>
<path d="M19.7324 63.1438H23.2843V66.6957H19.7324V63.1438Z" fill="#4584CC"/>
<path d="M23.6789 0L27.2308 0V3.55184H23.6789V0Z" fill="#4584CC"/>
<path d="M27.6254 0L31.1773 0V3.55184H27.6254V0Z" fill="#4584CC"/>
<path d="M31.5719 0L35.1237 0V3.55184H31.5719V0Z" fill="#4584CC"/>
<path d="M23.6789 3.94649H27.2308V7.49833H23.6789V3.94649Z" fill="#4584CC"/>
<path d="M27.6254 3.94649H31.1773V7.49833H27.6254V3.94649Z" fill="#4584CC"/>
<path d="M31.5719 3.94649H35.1237V7.49833H31.5719V3.94649Z" fill="#4584CC"/>
<path d="M23.6789 7.89298H27.2308V11.4448H23.6789V7.89298Z" fill="#4584CC"/>
<path d="M27.6254 7.89298H31.1773V11.4448H27.6254V7.89298Z" fill="#4584CC"/>
<path d="M31.5719 7.89298H35.1237V11.4448H31.5719V7.89298Z" fill="#4584CC"/>
<path d="M23.6789 11.8395H27.2308V15.3913H23.6789V11.8395Z" fill="#4584CC"/>
<path d="M27.6254 11.8395H31.1773V15.3913H27.6254V11.8395Z" fill="#4584CC"/>
<path d="M31.5719 11.8395H35.1237V15.3913H31.5719V11.8395Z" fill="#4584CC"/>
<path d="M23.6789 15.786H27.2308V19.3378H23.6789V15.786Z" fill="#4584CC"/>
<path d="M27.6254 15.786H31.1773V19.3378H27.6254V15.786Z" fill="#4584CC"/>
<path d="M31.5719 15.786H35.1237V19.3378H31.5719V15.786Z" fill="#4584CC"/>
<path d="M23.6789 19.7324H27.2308V23.2843H23.6789V19.7324Z" fill="#4584CC"/>
<path d="M27.6254 19.7324H31.1773V23.2843H27.6254V19.7324Z" fill="#4584CC"/>
<path d="M31.5719 19.7324H35.1237V23.2843H31.5719V19.7324Z" fill="#4584CC"/>
<path d="M23.6789 23.6789H27.2308V27.2308H23.6789V23.6789Z" fill="#4584CC"/>
<path d="M27.6254 23.6789H31.1773V27.2308H27.6254V23.6789Z" fill="#4584CC"/>
<path d="M31.5719 23.6789H35.1237V27.2308H31.5719V23.6789Z" fill="#4584CC"/>
<path d="M23.6789 27.6254H27.2308V31.1773H23.6789V27.6254Z" fill="#4584CC"/>
<path d="M27.6254 27.6254H31.1773V31.1773H27.6254V27.6254Z" fill="#4584CC"/>
<path d="M31.5719 27.6254H35.1237V31.1773H31.5719V27.6254Z" fill="#4584CC"/>
<path d="M23.6789 31.5719H27.2308V35.1237H23.6789V31.5719Z" fill="#4584CC"/>
<path d="M27.6254 31.5719H31.1773V35.1237H27.6254V31.5719Z" fill="#4584CC"/>
<path d="M31.5719 31.5719H35.1237V35.1237H31.5719V31.5719Z" fill="#4584CC"/>
<path d="M23.6789 35.5184H27.2308V39.0702H23.6789V35.5184Z" fill="#4584CC"/>
<path d="M27.6254 35.5184H31.1773V39.0702H27.6254V35.5184Z" fill="#4584CC"/>
<path d="M31.5719 35.5184H35.1237V39.0702H31.5719V35.5184Z" fill="#4584CC"/>
<path d="M23.6789 39.4649H27.2308V43.0167H23.6789V39.4649Z" fill="#4584CC"/>
<path d="M27.6254 39.4649H31.1773V43.0167H27.6254V39.4649Z" fill="#4584CC"/>
<path d="M31.5719 39.4649H35.1237V43.0167H31.5719V39.4649Z" fill="#4584CC"/>
<path d="M23.6789 43.4114H27.2308V46.9632H23.6789V43.4114Z" fill="#4584CC"/>
<path d="M27.6254 43.4114H31.1773V46.9632H27.6254V43.4114Z" fill="#4584CC"/>
<path d="M31.5719 43.4114H35.1237V46.9632H31.5719V43.4114Z" fill="#4584CC"/>
<path d="M23.6789 47.3579H27.2308V50.9097H23.6789V47.3579Z" fill="#4584CC"/>
<path d="M27.6254 47.3579H31.1773V50.9097H27.6254V47.3579Z" fill="#4584CC"/>
<path d="M31.5719 47.3579H35.1237V50.9097H31.5719V47.3579Z" fill="#4584CC"/>
<path d="M23.6789 51.3044H27.2308V54.8562H23.6789V51.3044Z" fill="#4584CC"/>
<path d="M27.6254 51.3044H31.1773V54.8562H27.6254V51.3044Z" fill="#4584CC"/>
<path d="M31.5719 51.3044H35.1237V54.8562H31.5719V51.3044Z" fill="#4584CC"/>
<path d="M23.6789 55.2508H27.2308V58.8027H23.6789V55.2508Z" fill="#4584CC"/>
<path d="M27.6254 55.2508H31.1773V58.8027H27.6254V55.2508Z" fill="#4584CC"/>
<path d="M31.5719 55.2508H35.1237V58.8027H31.5719V55.2508Z" fill="#4584CC"/>
<path d="M23.6789 59.1973H27.2308V62.7492H23.6789V59.1973Z" fill="#4584CC"/>
<path d="M27.6254 59.1973H31.1773V62.7492H27.6254V59.1973Z" fill="#4584CC"/>
<path d="M31.5719 59.1973H35.1237V62.7492H31.5719V59.1973Z" fill="#4584CC"/>
<path d="M23.6789 63.1438H27.2308V66.6957H23.6789V63.1438Z" fill="#4584CC"/>
<path d="M27.6254 63.1438H31.1773V66.6957H27.6254V63.1438Z" fill="#4584CC"/>
<path d="M31.5719 63.1438H35.1237V66.6957H31.5719V63.1438Z" fill="#4584CC"/>
<path d="M0 67.0903H3.55184V70.6421H0L0 67.0903Z" fill="#4584CC"/>
<path d="M0 71.0368H3.55184V74.5886H0L0 71.0368Z" fill="#4584CC"/>
<path d="M3.94649 67.0903H7.49833V70.6421H3.94649V67.0903Z" fill="#4584CC"/>
<path d="M3.94649 71.0368H7.49833V74.5886H3.94649V71.0368Z" fill="#4584CC"/>
<path d="M7.89298 67.0903H11.4448V70.6421H7.89298V67.0903Z" fill="#4584CC"/>
<path d="M7.89298 71.0368H11.4448V74.5886H7.89298V71.0368Z" fill="#4584CC"/>
<path d="M11.8395 67.0903H15.3913V70.6421H11.8395V67.0903Z" fill="#4584CC"/>
<path d="M11.8395 71.0368H15.3913V74.5886H11.8395V71.0368Z" fill="#4584CC"/>
<path d="M15.786 67.0903H19.3378V70.6421H15.786V67.0903Z" fill="#4584CC"/>
<path d="M15.786 71.0368H19.3378V74.5886H15.786V71.0368Z" fill="#4584CC"/>
<path d="M19.7324 67.0903H23.2843V70.6421H19.7324V67.0903Z" fill="#4584CC"/>
<path d="M19.7324 71.0368H23.2843V74.5886H19.7324V71.0368Z" fill="#4584CC"/>
<path d="M23.6789 67.0903H27.2308V70.6421H23.6789V67.0903Z" fill="#4584CC"/>
<path d="M27.6254 67.0903H31.1773V70.6421H27.6254V67.0903Z" fill="#4584CC"/>
<path d="M31.5719 67.0903H35.1237V70.6421H31.5719V67.0903Z" fill="#4584CC"/>
<path d="M23.6789 71.0368H27.2308V74.5886H23.6789V71.0368Z" fill="#4584CC"/>
<path d="M27.6254 71.0368H31.1773V74.5886H27.6254V71.0368Z" fill="#4584CC"/>
<path d="M31.5719 71.0368H35.1237V74.5886H31.5719V71.0368Z" fill="#4584CC"/>
<path d="M0 74.9833H3.55184V78.5351H0L0 74.9833Z" fill="#4584CC"/>
<path d="M3.94649 74.9833H7.49833V78.5351H3.94649V74.9833Z" fill="#4584CC"/>
<path d="M7.89298 74.9833H11.4448V78.5351H7.89298V74.9833Z" fill="#4584CC"/>
<path d="M11.8395 74.9833H15.3913V78.5351H11.8395V74.9833Z" fill="#4584CC"/>
<path d="M15.786 74.9833H19.3378V78.5351H15.786V74.9833Z" fill="#4584CC"/>
<path d="M19.7324 74.9833H23.2843V78.5351H19.7324V74.9833Z" fill="#4584CC"/>
<path d="M23.6789 74.9833H27.2308V78.5351H23.6789V74.9833Z" fill="#4584CC"/>
<path d="M27.6254 74.9833H31.1773V78.5351H27.6254V74.9833Z" fill="#4584CC"/>
<path d="M31.5719 74.9833H35.1237V78.5351H31.5719V74.9833Z" fill="#4584CC"/>
<path d="M0 78.9298H3.55184V82.4816H0L0 78.9298Z" fill="#4584CC"/>
<path d="M3.94649 78.9298H7.49833V82.4816H3.94649V78.9298Z" fill="#4584CC"/>
<path d="M7.89298 78.9298H11.4448V82.4816H7.89298V78.9298Z" fill="#4584CC"/>
<path d="M11.8395 78.9298H15.3913V82.4816H11.8395V78.9298Z" fill="#4584CC"/>
<path d="M15.786 78.9298H19.3378V82.4816H15.786V78.9298Z" fill="#4584CC"/>
<path d="M19.7324 78.9298H23.2843V82.4816H19.7324V78.9298Z" fill="#4584CC"/>
<path d="M23.6789 78.9298H27.2308V82.4816H23.6789V78.9298Z" fill="#4584CC"/>
<path d="M27.6254 78.9298H31.1773V82.4816H27.6254V78.9298Z" fill="#4584CC"/>
<path d="M31.5719 78.9298H35.1237V82.4816H31.5719V78.9298Z" fill="#4584CC"/>
<path d="M0 82.8763H3.55184V86.4281H0L0 82.8763Z" fill="#4584CC"/>
<path d="M3.94649 82.8763H7.49833V86.4281H3.94649V82.8763Z" fill="#4584CC"/>
<path d="M7.89298 82.8763H11.4448V86.4281H7.89298V82.8763Z" fill="#4584CC"/>
<path d="M11.8395 82.8763H15.3913V86.4281H11.8395V82.8763Z" fill="#4584CC"/>
<path d="M15.786 82.8763H19.3378V86.4281H15.786V82.8763Z" fill="#4584CC"/>
<path d="M19.7324 82.8763H23.2843V86.4281H19.7324V82.8763Z" fill="#4584CC"/>
<path d="M23.6789 82.8763H27.2308V86.4281H23.6789V82.8763Z" fill="#4584CC"/>
<path d="M27.6254 82.8763H31.1773V86.4281H27.6254V82.8763Z" fill="#4584CC"/>
<path d="M31.5719 82.8763H35.1237V86.4281H31.5719V82.8763Z" fill="#4584CC"/>
<path d="M0 86.8227H3.55184V90.3746H0L0 86.8227Z" fill="#4584CC"/>
<path d="M3.94649 86.8227H7.49833V90.3746H3.94649V86.8227Z" fill="#4584CC"/>
<path d="M7.89298 86.8227H11.4448V90.3746H7.89298V86.8227Z" fill="#4584CC"/>
<path d="M11.8395 86.8227H15.3913V90.3746H11.8395V86.8227Z" fill="#4584CC"/>
<path d="M15.786 86.8227H19.3378V90.3746H15.786V86.8227Z" fill="#4584CC"/>
<path d="M19.7324 86.8227H23.2843V90.3746H19.7324V86.8227Z" fill="#4584CC"/>
<path d="M23.6789 86.8227H27.2308V90.3746H23.6789V86.8227Z" fill="#4584CC"/>
<path d="M27.6254 86.8227H31.1773V90.3746H27.6254V86.8227Z" fill="#4584CC"/>
<path d="M31.5719 86.8227H35.1237V90.3746H31.5719V86.8227Z" fill="#4584CC"/>
<path d="M0 90.7692H3.55184V94.3211H0L0 90.7692Z" fill="#4584CC"/>
<path d="M3.94649 90.7692H7.49833V94.3211H3.94649V90.7692Z" fill="#4584CC"/>
<path d="M7.89298 90.7692H11.4448V94.3211H7.89298V90.7692Z" fill="#4584CC"/>
<path d="M11.8395 90.7692H15.3913V94.3211H11.8395V90.7692Z" fill="#4584CC"/>
<path d="M15.786 90.7692H19.3378V94.3211H15.786V90.7692Z" fill="#4584CC"/>
<path d="M19.7324 90.7692H23.2843V94.3211H19.7324V90.7692Z" fill="#4584CC"/>
<path d="M23.6789 90.7692H27.2308V94.3211H23.6789V90.7692Z" fill="#4584CC"/>
<path d="M27.6254 90.7692H31.1773V94.3211H27.6254V90.7692Z" fill="#4584CC"/>
<path d="M31.5719 90.7692H35.1237V94.3211H31.5719V90.7692Z" fill="#4584CC"/>
<path d="M0 94.7157H3.55184V98.2676H0L0 94.7157Z" fill="#4584CC"/>
<path d="M3.94649 94.7157H7.49833V98.2676H3.94649V94.7157Z" fill="#4584CC"/>
<path d="M7.89298 94.7157H11.4448V98.2676H7.89298V94.7157Z" fill="#4584CC"/>
<path d="M11.8395 94.7157H15.3913V98.2676H11.8395V94.7157Z" fill="#4584CC"/>
<path d="M15.786 94.7157H19.3378V98.2676H15.786V94.7157Z" fill="#4584CC"/>
<path d="M19.7324 94.7157H23.2843V98.2676H19.7324V94.7157Z" fill="#4584CC"/>
<path d="M23.6789 94.7157H27.2308V98.2676H23.6789V94.7157Z" fill="#4584CC"/>
<path d="M27.6254 94.7157H31.1773V98.2676H27.6254V94.7157Z" fill="#4584CC"/>
<path d="M31.5719 94.7157H35.1237V98.2676H31.5719V94.7157Z" fill="#4584CC"/>
<path d="M0 98.6622H3.55184V102.214H0L0 98.6622Z" fill="#4584CC"/>
<path d="M3.94649 98.6622H7.49833V102.214H3.94649V98.6622Z" fill="#4584CC"/>
<path d="M7.89298 98.6622H11.4448V102.214H7.89298V98.6622Z" fill="#4584CC"/>
<path d="M11.8395 98.6622H15.3913V102.214H11.8395V98.6622Z" fill="#4584CC"/>
<path d="M15.786 98.6622H19.3378V102.214H15.786V98.6622Z" fill="#4584CC"/>
<path d="M19.7324 98.6622H23.2843V102.214H19.7324V98.6622Z" fill="#4584CC"/>
<path d="M23.6789 98.6622H27.2308V102.214H23.6789V98.6622Z" fill="#4584CC"/>
<path d="M27.6254 98.6622H31.1773V102.214H27.6254V98.6622Z" fill="#4584CC"/>
<path d="M31.5719 98.6622H35.1237V102.214H31.5719V98.6622Z" fill="#4584CC"/>
<path d="M0 102.609H3.55184V106.161H0L0 102.609Z" fill="#4584CC"/>
<path d="M3.94649 102.609H7.49833V106.161H3.94649V102.609Z" fill="#4584CC"/>
<path d="M7.89298 102.609H11.4448V106.161H7.89298V102.609Z" fill="#4584CC"/>
<path d="M11.8395 102.609H15.3913V106.161H11.8395V102.609Z" fill="#4584CC"/>
<path d="M15.786 102.609H19.3378V106.161H15.786V102.609Z" fill="#4584CC"/>
<path d="M19.7324 102.609H23.2843V106.161H19.7324V102.609Z" fill="#4584CC"/>
<path d="M23.6789 102.609H27.2308V106.161H23.6789V102.609Z" fill="#4584CC"/>
<path d="M27.6254 102.609H31.1773V106.161H27.6254V102.609Z" fill="#4584CC"/>
<path d="M31.5719 102.609H35.1237V106.161H31.5719V102.609Z" fill="#4584CC"/>
<path d="M0 106.555H3.55184V110.107H0L0 106.555Z" fill="#4584CC"/>
<path d="M3.94649 106.555H7.49833V110.107H3.94649V106.555Z" fill="#4584CC"/>
<path d="M7.89298 106.555H11.4448V110.107H7.89298V106.555Z" fill="#4584CC"/>
<path d="M11.8395 106.555H15.3913V110.107H11.8395V106.555Z" fill="#4584CC"/>
<path d="M15.786 106.555H19.3378V110.107H15.786V106.555Z" fill="#4584CC"/>
<path d="M19.7324 106.555H23.2843V110.107H19.7324V106.555Z" fill="#4584CC"/>
<path d="M23.6789 106.555H27.2308V110.107H23.6789V106.555Z" fill="#4584CC"/>
<path d="M27.6254 106.555H31.1773V110.107H27.6254V106.555Z" fill="#4584CC"/>
<path d="M31.5719 106.555H35.1237V110.107H31.5719V106.555Z" fill="#4584CC"/>
<path d="M41.4381 0L44.9899 0V3.55184H41.4381V0Z" fill="#3860AC"/>
<path d="M41.4381 3.94649H44.9899V7.49833H41.4381V3.94649Z" fill="#3860AC"/>
<path d="M41.4381 7.89298H44.9899V11.4448H41.4381V7.89298Z" fill="#3860AC"/>
<path d="M41.4381 11.8395H44.9899V15.3913H41.4381V11.8395Z" fill="#3860AC"/>
<path d="M41.4381 15.786H44.9899V19.3378H41.4381V15.786Z" fill="#3860AC"/>
<path d="M41.4381 19.7324H44.9899V23.2843H41.4381V19.7324Z" fill="#3860AC"/>
<path d="M41.4381 23.6789H44.9899V27.2308H41.4381V23.6789Z" fill="#3860AC"/>
<path d="M41.4381 27.6254H44.9899V31.1773H41.4381V27.6254Z" fill="#3860AC"/>
<path d="M41.4381 31.5719H44.9899V35.1237H41.4381V31.5719Z" fill="#3860AC"/>
<path d="M41.4381 35.5184H44.9899V39.0702H41.4381V35.5184Z" fill="#3860AC"/>
<path d="M41.4381 39.4649H44.9899V43.0167H41.4381V39.4649Z" fill="#3860AC"/>
<path d="M41.4381 43.4114H44.9899V46.9632H41.4381V43.4114Z" fill="#3860AC"/>
<path d="M41.4381 47.3579H44.9899V50.9097H41.4381V47.3579Z" fill="#3860AC"/>
<path d="M41.4381 51.3044H44.9899V54.8562H41.4381V51.3044Z" fill="#3860AC"/>
<path d="M41.4381 55.2508H44.9899V58.8027H41.4381V55.2508Z" fill="#3860AC"/>
<path d="M41.4381 59.1973H44.9899V62.7492H41.4381V59.1973Z" fill="#3860AC"/>
<path d="M41.4381 63.1438H44.9899V66.6957H41.4381V63.1438Z" fill="#3860AC"/>
<path d="M45.3846 0L48.9364 0V3.55184H45.3846V0Z" fill="#3860AC"/>
<path d="M45.3846 3.94649H48.9364V7.49833H45.3846V3.94649Z" fill="#3860AC"/>
<path d="M45.3846 7.89298H48.9364V11.4448H45.3846V7.89298Z" fill="#3860AC"/>
<path d="M45.3846 11.8395H48.9364V15.3913H45.3846V11.8395Z" fill="#3860AC"/>
<path d="M45.3846 15.786H48.9364V19.3378H45.3846V15.786Z" fill="#3860AC"/>
<path d="M45.3846 19.7324H48.9364V23.2843H45.3846V19.7324Z" fill="#3860AC"/>
<path d="M45.3846 23.6789H48.9364V27.2308H45.3846V23.6789Z" fill="#3860AC"/>
<path d="M45.3846 27.6254H48.9364V31.1773H45.3846V27.6254Z" fill="#3860AC"/>
<path d="M45.3846 31.5719H48.9364V35.1237H45.3846V31.5719Z" fill="#3860AC"/>
<path d="M45.3846 35.5184H48.9364V39.0702H45.3846V35.5184Z" fill="#3860AC"/>
<path d="M45.3846 39.4649H48.9364V43.0167H45.3846V39.4649Z" fill="#3860AC"/>
<path d="M45.3846 43.4114H48.9364V46.9632H45.3846V43.4114Z" fill="#3860AC"/>
<path d="M45.3846 47.3579H48.9364V50.9097H45.3846V47.3579Z" fill="#3860AC"/>
<path d="M45.3846 51.3044H48.9364V54.8562H45.3846V51.3044Z" fill="#3860AC"/>
<path d="M45.3846 55.2508H48.9364V58.8027H45.3846V55.2508Z" fill="#3860AC"/>
<path d="M45.3846 59.1973H48.9364V62.7492H45.3846V59.1973Z" fill="#3860AC"/>
<path d="M45.3846 63.1438H48.9364V66.6957H45.3846V63.1438Z" fill="#3860AC"/>
<path d="M49.3311 0L52.8829 0V3.55184H49.3311V0Z" fill="#3860AC"/>
<path d="M49.3311 3.94649H52.8829V7.49833H49.3311V3.94649Z" fill="#3860AC"/>
<path d="M49.3311 7.89298H52.8829V11.4448H49.3311V7.89298Z" fill="#3860AC"/>
<path d="M49.3311 11.8395H52.8829V15.3913H49.3311V11.8395Z" fill="#3860AC"/>
<path d="M49.3311 15.786H52.8829V19.3378H49.3311V15.786Z" fill="#3860AC"/>
<path d="M49.3311 19.7324H52.8829V23.2843H49.3311V19.7324Z" fill="#3860AC"/>
<path d="M49.3311 23.6789H52.8829V27.2308H49.3311V23.6789Z" fill="#3860AC"/>
<path d="M49.3311 27.6254H52.8829V31.1773H49.3311V27.6254Z" fill="#3860AC"/>
<path d="M49.3311 31.5719H52.8829V35.1237H49.3311V31.5719Z" fill="#3860AC"/>
<path d="M49.3311 35.5184H52.8829V39.0702H49.3311V35.5184Z" fill="#3860AC"/>
<path d="M49.3311 39.4649H52.8829V43.0167H49.3311V39.4649Z" fill="#3860AC"/>
<path d="M49.3311 43.4114H52.8829V46.9632H49.3311V43.4114Z" fill="#3860AC"/>
<path d="M49.3311 47.3579H52.8829V50.9097H49.3311V47.3579Z" fill="#3860AC"/>
<path d="M49.3311 51.3044H52.8829V54.8562H49.3311V51.3044Z" fill="#3860AC"/>
<path d="M49.3311 55.2508H52.8829V58.8027H49.3311V55.2508Z" fill="#3860AC"/>
<path d="M49.3311 59.1973H52.8829V62.7492H49.3311V59.1973Z" fill="#3860AC"/>
<path d="M49.3311 63.1438H52.8829V66.6957H49.3311V63.1438Z" fill="#3860AC"/>
<path d="M53.2776 0L56.8294 0V3.55184H53.2776V0Z" fill="#3860AC"/>
<path d="M53.2776 3.94649H56.8294V7.49833H53.2776V3.94649Z" fill="#3860AC"/>
<path d="M53.2776 7.89298H56.8294V11.4448H53.2776V7.89298Z" fill="#3860AC"/>
<path d="M53.2776 11.8395H56.8294V15.3913H53.2776V11.8395Z" fill="#3860AC"/>
<path d="M53.2776 15.786H56.8294V19.3378H53.2776V15.786Z" fill="#3860AC"/>
<path d="M53.2776 19.7324H56.8294V23.2843H53.2776V19.7324Z" fill="#3860AC"/>
<path d="M53.2776 23.6789H56.8294V27.2308H53.2776V23.6789Z" fill="#3860AC"/>
<path d="M53.2776 27.6254H56.8294V31.1773H53.2776V27.6254Z" fill="#3860AC"/>
<path d="M53.2776 31.5719H56.8294V35.1237H53.2776V31.5719Z" fill="#3860AC"/>
<path d="M53.2776 35.5184H56.8294V39.0702H53.2776V35.5184Z" fill="#3860AC"/>
<path d="M53.2776 39.4649H56.8294V43.0167H53.2776V39.4649Z" fill="#3860AC"/>
<path d="M53.2776 43.4114H56.8294V46.9632H53.2776V43.4114Z" fill="#3860AC"/>
<path d="M53.2776 47.3579H56.8294V50.9097H53.2776V47.3579Z" fill="#3860AC"/>
<path d="M53.2776 51.3044H56.8294V54.8562H53.2776V51.3044Z" fill="#3860AC"/>
<path d="M53.2776 55.2508H56.8294V58.8027H53.2776V55.2508Z" fill="#3860AC"/>
<path d="M53.2776 59.1973H56.8294V62.7492H53.2776V59.1973Z" fill="#3860AC"/>
<path d="M53.2776 63.1438H56.8294V66.6957H53.2776V63.1438Z" fill="#3860AC"/>
<path d="M57.2241 0L60.7759 0V3.55184H57.2241V0Z" fill="#3860AC"/>
<path d="M57.2241 3.94649H60.7759V7.49833H57.2241V3.94649Z" fill="#3860AC"/>
<path d="M57.2241 7.89298H60.7759V11.4448H57.2241V7.89298Z" fill="#3860AC"/>
<path d="M57.2241 11.8395H60.7759V15.3913H57.2241V11.8395Z" fill="#3860AC"/>
<path d="M57.2241 15.786H60.7759V19.3378H57.2241V15.786Z" fill="#3860AC"/>
<path d="M57.2241 19.7324H60.7759V23.2843H57.2241V19.7324Z" fill="#3860AC"/>
<path d="M57.2241 23.6789H60.7759V27.2308H57.2241V23.6789Z" fill="#3860AC"/>
<path d="M57.2241 27.6254H60.7759V31.1773H57.2241V27.6254Z" fill="#3860AC"/>
<path d="M57.2241 31.5719H60.7759V35.1237H57.2241V31.5719Z" fill="#3860AC"/>
<path d="M57.2241 35.5184H60.7759V39.0702H57.2241V35.5184Z" fill="#3860AC"/>
<path d="M57.2241 39.4649H60.7759V43.0167H57.2241V39.4649Z" fill="#3860AC"/>
<path d="M57.2241 43.4114H60.7759V46.9632H57.2241V43.4114Z" fill="#3860AC"/>
<path d="M57.2241 47.3579H60.7759V50.9097H57.2241V47.3579Z" fill="#3860AC"/>
<path d="M57.2241 51.3044H60.7759V54.8562H57.2241V51.3044Z" fill="#3860AC"/>
<path d="M57.2241 55.2508H60.7759V58.8027H57.2241V55.2508Z" fill="#3860AC"/>
<path d="M57.2241 59.1973H60.7759V62.7492H57.2241V59.1973Z" fill="#3860AC"/>
<path d="M57.2241 63.1438H60.7759V66.6957H57.2241V63.1438Z" fill="#3860AC"/>
<path d="M61.1706 0L64.7224 0V3.55184H61.1706V0Z" fill="#3860AC"/>
<path d="M61.1706 3.94649H64.7224V7.49833H61.1706V3.94649Z" fill="#3860AC"/>
<path d="M61.1706 7.89298H64.7224V11.4448H61.1706V7.89298Z" fill="#3860AC"/>
<path d="M61.1706 11.8395H64.7224V15.3913H61.1706V11.8395Z" fill="#3860AC"/>
<path d="M61.1706 15.786H64.7224V19.3378H61.1706V15.786Z" fill="#3860AC"/>
<path d="M61.1706 19.7324H64.7224V23.2843H61.1706V19.7324Z" fill="#3860AC"/>
<path d="M61.1706 23.6789H64.7224V27.2308H61.1706V23.6789Z" fill="#3860AC"/>
<path d="M61.1706 27.6254H64.7224V31.1773H61.1706V27.6254Z" fill="#3860AC"/>
<path d="M61.1706 31.5719H64.7224V35.1237H61.1706V31.5719Z" fill="#3860AC"/>
<path d="M61.1706 35.5184H64.7224V39.0702H61.1706V35.5184Z" fill="#3860AC"/>
<path d="M61.1706 39.4649H64.7224V43.0167H61.1706V39.4649Z" fill="#3860AC"/>
<path d="M61.1706 43.4114H64.7224V46.9632H61.1706V43.4114Z" fill="#3860AC"/>
<path d="M61.1706 47.3579H64.7224V50.9097H61.1706V47.3579Z" fill="#3860AC"/>
<path d="M61.1706 51.3044H64.7224V54.8562H61.1706V51.3044Z" fill="#3860AC"/>
<path d="M61.1706 55.2508H64.7224V58.8027H61.1706V55.2508Z" fill="#3860AC"/>
<path d="M61.1706 59.1973H64.7224V62.7492H61.1706V59.1973Z" fill="#3860AC"/>
<path d="M61.1706 63.1438H64.7224V66.6957H61.1706V63.1438Z" fill="#3860AC"/>
<path d="M65.117 0L68.6689 0V3.55184H65.117V0Z" fill="#3860AC"/>
<path d="M69.0635 0L72.6154 0V3.55184H69.0635V0Z" fill="#3860AC"/>
<path d="M73.01 0L76.5619 0V3.55184H73.01V0Z" fill="#3860AC"/>
<path d="M65.117 3.94649H68.6689V7.49833H65.117V3.94649Z" fill="#3860AC"/>
<path d="M69.0635 3.94649H72.6154V7.49833H69.0635V3.94649Z" fill="#3860AC"/>
<path d="M73.01 3.94649H76.5619V7.49833H73.01V3.94649Z" fill="#3860AC"/>
<path d="M65.117 7.89298H68.6689V11.4448H65.117V7.89298Z" fill="#3860AC"/>
<path d="M69.0635 7.89298H72.6154V11.4448H69.0635V7.89298Z" fill="#3860AC"/>
<path d="M73.01 7.89298H76.5619V11.4448H73.01V7.89298Z" fill="#3860AC"/>
<path d="M65.117 11.8395H68.6689V15.3913H65.117V11.8395Z" fill="#3860AC"/>
<path d="M69.0635 11.8395H72.6154V15.3913H69.0635V11.8395Z" fill="#3860AC"/>
<path d="M73.01 11.8395H76.5619V15.3913H73.01V11.8395Z" fill="#3860AC"/>
<path d="M65.117 15.786H68.6689V19.3378H65.117V15.786Z" fill="#3860AC"/>
<path d="M69.0635 15.786H72.6154V19.3378H69.0635V15.786Z" fill="#3860AC"/>
<path d="M73.01 15.786H76.5619V19.3378H73.01V15.786Z" fill="#3860AC"/>
<path d="M65.117 19.7324H68.6689V23.2843H65.117V19.7324Z" fill="#3860AC"/>
<path d="M69.0635 19.7324H72.6154V23.2843H69.0635V19.7324Z" fill="#3860AC"/>
<path d="M73.01 19.7324H76.5619V23.2843H73.01V19.7324Z" fill="#3860AC"/>
<path d="M65.117 23.6789H68.6689V27.2308H65.117V23.6789Z" fill="#3860AC"/>
<path d="M69.0635 23.6789H72.6154V27.2308H69.0635V23.6789Z" fill="#3860AC"/>
<path d="M73.01 23.6789H76.5619V27.2308H73.01V23.6789Z" fill="#3860AC"/>
<path d="M65.117 27.6254H68.6689V31.1773H65.117V27.6254Z" fill="#3860AC"/>
<path d="M69.0635 27.6254H72.6154V31.1773H69.0635V27.6254Z" fill="#3860AC"/>
<path d="M73.01 27.6254H76.5619V31.1773H73.01V27.6254Z" fill="#3860AC"/>
<path d="M65.117 31.5719H68.6689V35.1237H65.117V31.5719Z" fill="#3860AC"/>
<path d="M69.0635 31.5719H72.6154V35.1237H69.0635V31.5719Z" fill="#3860AC"/>
<path d="M73.01 31.5719H76.5619V35.1237H73.01V31.5719Z" fill="#3860AC"/>
<path d="M65.117 35.5184H68.6689V39.0702H65.117V35.5184Z" fill="#3860AC"/>
<path d="M69.0635 35.5184H72.6154V39.0702H69.0635V35.5184Z" fill="#3860AC"/>
<path d="M73.01 35.5184H76.5619V39.0702H73.01V35.5184Z" fill="#3860AC"/>
<path d="M65.117 39.4649H68.6689V43.0167H65.117V39.4649Z" fill="#3860AC"/>
<path d="M69.0635 39.4649H72.6154V43.0167H69.0635V39.4649Z" fill="#3860AC"/>
<path d="M73.01 39.4649H76.5619V43.0167H73.01V39.4649Z" fill="#3860AC"/>
<path d="M65.117 43.4114H68.6689V46.9632H65.117V43.4114Z" fill="#3860AC"/>
<path d="M69.0635 43.4114H72.6154V46.9632H69.0635V43.4114Z" fill="#3860AC"/>
<path d="M73.01 43.4114H76.5619V46.9632H73.01V43.4114Z" fill="#3860AC"/>
<path d="M65.117 47.3579H68.6689V50.9097H65.117V47.3579Z" fill="#3860AC"/>
<path d="M69.0635 47.3579H72.6154V50.9097H69.0635V47.3579Z" fill="#3860AC"/>
<path d="M73.01 47.3579H76.5619V50.9097H73.01V47.3579Z" fill="#3860AC"/>
<path d="M65.117 51.3044H68.6689V54.8562H65.117V51.3044Z" fill="#3860AC"/>
<path d="M69.0635 51.3044H72.6154V54.8562H69.0635V51.3044Z" fill="#3860AC"/>
<path d="M73.01 51.3044H76.5619V54.8562H73.01V51.3044Z" fill="#3860AC"/>
<path d="M65.117 55.2508H68.6689V58.8027H65.117V55.2508Z" fill="#3860AC"/>
<path d="M69.0635 55.2508H72.6154V58.8027H69.0635V55.2508Z" fill="#3860AC"/>
<path d="M73.01 55.2508H76.5619V58.8027H73.01V55.2508Z" fill="#3860AC"/>
<path d="M65.117 59.1973H68.6689V62.7492H65.117V59.1973Z" fill="#3860AC"/>
<path d="M69.0635 59.1973H72.6154V62.7492H69.0635V59.1973Z" fill="#3860AC"/>
<path d="M73.01 59.1973H76.5619V62.7492H73.01V59.1973Z" fill="#3860AC"/>
<path d="M65.117 63.1438H68.6689V66.6957H65.117V63.1438Z" fill="#3860AC"/>
<path d="M69.0635 63.1438H72.6154V66.6957H69.0635V63.1438Z" fill="#3860AC"/>
<path d="M73.01 63.1438H76.5619V66.6957H73.01V63.1438Z" fill="#3860AC"/>
<path d="M41.4381 67.0903H44.9899V70.6421H41.4381V67.0903Z" fill="#3860AC"/>
<path d="M41.4381 71.0368H44.9899V74.5886H41.4381V71.0368Z" fill="#3860AC"/>
<path d="M45.3846 67.0903H48.9364V70.6421H45.3846V67.0903Z" fill="#3860AC"/>
<path d="M45.3846 71.0368H48.9364V74.5886H45.3846V71.0368Z" fill="#3860AC"/>
<path d="M49.3311 67.0903H52.8829V70.6421H49.3311V67.0903Z" fill="#3860AC"/>
<path d="M49.3311 71.0368H52.8829V74.5886H49.3311V71.0368Z" fill="#3860AC"/>
<path d="M53.2776 67.0903H56.8294V70.6421H53.2776V67.0903Z" fill="#3860AC"/>
<path d="M53.2776 71.0368H56.8294V74.5886H53.2776V71.0368Z" fill="#3860AC"/>
<path d="M57.2241 67.0903H60.7759V70.6421H57.2241V67.0903Z" fill="#3860AC"/>
<path d="M57.2241 71.0368H60.7759V74.5886H57.2241V71.0368Z" fill="#3860AC"/>
<path d="M61.1706 67.0903H64.7224V70.6421H61.1706V67.0903Z" fill="#3860AC"/>
<path d="M61.1706 71.0368H64.7224V74.5886H61.1706V71.0368Z" fill="#3860AC"/>
<path d="M65.117 67.0903H68.6689V70.6421H65.117V67.0903Z" fill="#3860AC"/>
<path d="M69.0635 67.0903H72.6154V70.6421H69.0635V67.0903Z" fill="#3860AC"/>
<path d="M73.01 67.0903H76.5619V70.6421H73.01V67.0903Z" fill="#3860AC"/>
<path d="M65.117 71.0368H68.6689V74.5886H65.117V71.0368Z" fill="#3860AC"/>
<path d="M69.0635 71.0368H72.6154V74.5886H69.0635V71.0368Z" fill="#3860AC"/>
<path d="M73.01 71.0368H76.5619V74.5886H73.01V71.0368Z" fill="#3860AC"/>
<path d="M41.4381 74.9833H44.9899V78.5351H41.4381V74.9833Z" fill="#3860AC"/>
<path d="M45.3846 74.9833H48.9364V78.5351H45.3846V74.9833Z" fill="#3860AC"/>
<path d="M49.3311 74.9833H52.8829V78.5351H49.3311V74.9833Z" fill="#3860AC"/>
<path d="M53.2776 74.9833H56.8294V78.5351H53.2776V74.9833Z" fill="#3860AC"/>
<path d="M57.2241 74.9833H60.7759V78.5351H57.2241V74.9833Z" fill="#3860AC"/>
<path d="M61.1706 74.9833H64.7224V78.5351H61.1706V74.9833Z" fill="#3860AC"/>
<path d="M65.117 74.9833H68.6689V78.5351H65.117V74.9833Z" fill="#3860AC"/>
<path d="M69.0635 74.9833H72.6154V78.5351H69.0635V74.9833Z" fill="#3860AC"/>
<path d="M73.01 74.9833H76.5619V78.5351H73.01V74.9833Z" fill="#3860AC"/>
<path d="M41.4381 78.9298H44.9899V82.4816H41.4381V78.9298Z" fill="#3860AC"/>
<path d="M45.3846 78.9298H48.9364V82.4816H45.3846V78.9298Z" fill="#3860AC"/>
<path d="M49.3311 78.9298H52.8829V82.4816H49.3311V78.9298Z" fill="#3860AC"/>
<path d="M53.2776 78.9298H56.8294V82.4816H53.2776V78.9298Z" fill="#3860AC"/>
<path d="M57.2241 78.9298H60.7759V82.4816H57.2241V78.9298Z" fill="#3860AC"/>
<path d="M61.1706 78.9298H64.7224V82.4816H61.1706V78.9298Z" fill="#3860AC"/>
<path d="M65.117 78.9298H68.6689V82.4816H65.117V78.9298Z" fill="#3860AC"/>
<path d="M69.0635 78.9298H72.6154V82.4816H69.0635V78.9298Z" fill="#3860AC"/>
<path d="M73.01 78.9298H76.5619V82.4816H73.01V78.9298Z" fill="#3860AC"/>
<path d="M41.4381 82.8763H44.9899V86.4281H41.4381V82.8763Z" fill="#3860AC"/>
<path d="M45.3846 82.8763H48.9364V86.4281H45.3846V82.8763Z" fill="#3860AC"/>
<path d="M49.3311 82.8763H52.8829V86.4281H49.3311V82.8763Z" fill="#3860AC"/>
<path d="M53.2776 82.8763H56.8294V86.4281H53.2776V82.8763Z" fill="#3860AC"/>
<path d="M57.2241 82.8763H60.7759V86.4281H57.2241V82.8763Z" fill="#3860AC"/>
<path d="M61.1706 82.8763H64.7224V86.4281H61.1706V82.8763Z" fill="#3860AC"/>
<path d="M65.117 82.8763H68.6689V86.4281H65.117V82.8763Z" fill="#3860AC"/>
<path d="M69.0635 82.8763H72.6154V86.4281H69.0635V82.8763Z" fill="#3860AC"/>
<path d="M73.01 82.8763H76.5619V86.4281H73.01V82.8763Z" fill="#3860AC"/>
<path d="M41.4381 86.8227H44.9899V90.3746H41.4381V86.8227Z" fill="#3860AC"/>
<path d="M45.3846 86.8227H48.9364V90.3746H45.3846V86.8227Z" fill="#3860AC"/>
<path d="M49.3311 86.8227H52.8829V90.3746H49.3311V86.8227Z" fill="#3860AC"/>
<path d="M53.2776 86.8227H56.8294V90.3746H53.2776V86.8227Z" fill="#3860AC"/>
<path d="M57.2241 86.8227H60.7759V90.3746H57.2241V86.8227Z" fill="#3860AC"/>
<path d="M61.1706 86.8227H64.7224V90.3746H61.1706V86.8227Z" fill="#3860AC"/>
<path d="M65.117 86.8227H68.6689V90.3746H65.117V86.8227Z" fill="#3860AC"/>
<path d="M69.0635 86.8227H72.6154V90.3746H69.0635V86.8227Z" fill="#3860AC"/>
<path d="M73.01 86.8227H76.5619V90.3746H73.01V86.8227Z" fill="#3860AC"/>
<path d="M41.4381 90.7692H44.9899V94.3211H41.4381V90.7692Z" fill="#3860AC"/>
<path d="M45.3846 90.7692H48.9364V94.3211H45.3846V90.7692Z" fill="#3860AC"/>
<path d="M49.3311 90.7692H52.8829V94.3211H49.3311V90.7692Z" fill="#3860AC"/>
<path d="M53.2776 90.7692H56.8294V94.3211H53.2776V90.7692Z" fill="#3860AC"/>
<path d="M57.2241 90.7692H60.7759V94.3211H57.2241V90.7692Z" fill="#3860AC"/>
<path d="M61.1706 90.7692H64.7224V94.3211H61.1706V90.7692Z" fill="#3860AC"/>
<path d="M65.117 90.7692H68.6689V94.3211H65.117V90.7692Z" fill="#3860AC"/>
<path d="M69.0635 90.7692H72.6154V94.3211H69.0635V90.7692Z" fill="#3860AC"/>
<path d="M73.01 90.7692H76.5619V94.3211H73.01V90.7692Z" fill="#3860AC"/>
<path d="M41.4381 94.7157H44.9899V98.2676H41.4381V94.7157Z" fill="#3860AC"/>
<path d="M45.3846 94.7157H48.9364V98.2676H45.3846V94.7157Z" fill="#3860AC"/>
<path d="M49.3311 94.7157H52.8829V98.2676H49.3311V94.7157Z" fill="#3860AC"/>
<path d="M53.2776 94.7157H56.8294V98.2676H53.2776V94.7157Z" fill="#3860AC"/>
<path d="M57.2241 94.7157H60.7759V98.2676H57.2241V94.7157Z" fill="#3860AC"/>
<path d="M61.1706 94.7157H64.7224V98.2676H61.1706V94.7157Z" fill="#3860AC"/>
<path d="M65.117 94.7157H68.6689V98.2676H65.117V94.7157Z" fill="#3860AC"/>
<path d="M69.0635 94.7157H72.6154V98.2676H69.0635V94.7157Z" fill="#3860AC"/>
<path d="M73.01 94.7157H76.5619V98.2676H73.01V94.7157Z" fill="#3860AC"/>
<path d="M41.4381 98.6622H44.9899V102.214H41.4381V98.6622Z" fill="#3860AC"/>
<path d="M45.3846 98.6622H48.9364V102.214H45.3846V98.6622Z" fill="#3860AC"/>
<path d="M49.3311 98.6622H52.8829V102.214H49.3311V98.6622Z" fill="#3860AC"/>
<path d="M53.2776 98.6622H56.8294V102.214H53.2776V98.6622Z" fill="#3860AC"/>
<path d="M57.2241 98.6622H60.7759V102.214H57.2241V98.6622Z" fill="#3860AC"/>
<path d="M61.1706 98.6622H64.7224V102.214H61.1706V98.6622Z" fill="#3860AC"/>
<path d="M65.117 98.6622H68.6689V102.214H65.117V98.6622Z" fill="#3860AC"/>
<path d="M69.0635 98.6622H72.6154V102.214H69.0635V98.6622Z" fill="#3860AC"/>
<path d="M73.01 98.6622H76.5619V102.214H73.01V98.6622Z" fill="#3860AC"/>
<path d="M41.4381 102.609H44.9899V106.161H41.4381V102.609Z" fill="#3860AC"/>
<path d="M45.3846 102.609H48.9364V106.161H45.3846V102.609Z" fill="#3860AC"/>
<path d="M49.3311 102.609H52.8829V106.161H49.3311V102.609Z" fill="#3860AC"/>
<path d="M53.2776 102.609H56.8294V106.161H53.2776V102.609Z" fill="#3860AC"/>
<path d="M57.2241 102.609H60.7759V106.161H57.2241V102.609Z" fill="#3860AC"/>
<path d="M61.1706 102.609H64.7224V106.161H61.1706V102.609Z" fill="#3860AC"/>
<path d="M65.117 102.609H68.6689V106.161H65.117V102.609Z" fill="#3860AC"/>
<path d="M69.0635 102.609H72.6154V106.161H69.0635V102.609Z" fill="#3860AC"/>
<path d="M73.01 102.609H76.5619V106.161H73.01V102.609Z" fill="#3860AC"/>
<path d="M41.4381 106.555H44.9899V110.107H41.4381V106.555Z" fill="#3860AC"/>
<path d="M45.3846 106.555H48.9364V110.107H45.3846V106.555Z" fill="#3860AC"/>
<path d="M49.3311 106.555H52.8829V110.107H49.3311V106.555Z" fill="#3860AC"/>
<path d="M53.2776 106.555H56.8294V110.107H53.2776V106.555Z" fill="#3860AC"/>
<path d="M57.2241 106.555H60.7759V110.107H57.2241V106.555Z" fill="#3860AC"/>
<path d="M61.1706 106.555H64.7224V110.107H61.1706V106.555Z" fill="#3860AC"/>
<path d="M65.117 106.555H68.6689V110.107H65.117V106.555Z" fill="#3860AC"/>
<path d="M69.0635 106.555H72.6154V110.107H69.0635V106.555Z" fill="#3860AC"/>
<path d="M73.01 106.555H76.5619V110.107H73.01V106.555Z" fill="#3860AC"/>
<path d="M82.8762 0L86.4281 0V3.55184H82.8762V0Z" fill="#2B519B"/>
<path d="M82.8762 3.94649H86.4281V7.49833H82.8762V3.94649Z" fill="#2B519B"/>
<path d="M82.8762 7.89298H86.4281V11.4448H82.8762V7.89298Z" fill="#2B519B"/>
<path d="M82.8762 11.8395H86.4281V15.3913H82.8762V11.8395Z" fill="#2B519B"/>
<path d="M82.8762 15.786H86.4281V19.3378H82.8762V15.786Z" fill="#2B519B"/>
<path d="M82.8762 19.7324H86.4281V23.2843H82.8762V19.7324Z" fill="#2B519B"/>
<path d="M82.8762 23.6789H86.4281V27.2308H82.8762V23.6789Z" fill="#2B519B"/>
<path d="M82.8762 27.6254H86.4281V31.1773H82.8762V27.6254Z" fill="#2B519B"/>
<path d="M82.8762 31.5719H86.4281V35.1237H82.8762V31.5719Z" fill="#2B519B"/>
<path d="M82.8762 35.5184H86.4281V39.0702H82.8762V35.5184Z" fill="#2B519B"/>
<path d="M82.8762 39.4649H86.4281V43.0167H82.8762V39.4649Z" fill="#2B519B"/>
<path d="M82.8762 43.4114H86.4281V46.9632H82.8762V43.4114Z" fill="#2B519B"/>
<path d="M82.8762 47.3579H86.4281V50.9097H82.8762V47.3579Z" fill="#2B519B"/>
<path d="M82.8762 51.3044H86.4281V54.8562H82.8762V51.3044Z" fill="#2B519B"/>
<path d="M82.8762 55.2508H86.4281V58.8027H82.8762V55.2508Z" fill="#2B519B"/>
<path d="M82.8762 59.1973H86.4281V62.7492H82.8762V59.1973Z" fill="#2B519B"/>
<path d="M82.8762 63.1438H86.4281V66.6957H82.8762V63.1438Z" fill="#2B519B"/>
<path d="M86.8227 0L90.3745 0V3.55184H86.8227V0Z" fill="#2B519B"/>
<path d="M86.8227 3.94649H90.3745V7.49833H86.8227V3.94649Z" fill="#2B519B"/>
<path d="M86.8227 7.89298H90.3745V11.4448H86.8227V7.89298Z" fill="#2B519B"/>
<path d="M86.8227 11.8395H90.3745V15.3913H86.8227V11.8395Z" fill="#2B519B"/>
<path d="M86.8227 15.786H90.3745V19.3378H86.8227V15.786Z" fill="#2B519B"/>
<path d="M86.8227 19.7324H90.3745V23.2843H86.8227V19.7324Z" fill="#2B519B"/>
<path d="M86.8227 23.6789H90.3745V27.2308H86.8227V23.6789Z" fill="#2B519B"/>
<path d="M86.8227 27.6254H90.3745V31.1773H86.8227V27.6254Z" fill="#2B519B"/>
<path d="M86.8227 31.5719H90.3745V35.1237H86.8227V31.5719Z" fill="#2B519B"/>
<path d="M86.8227 35.5184H90.3745V39.0702H86.8227V35.5184Z" fill="#2B519B"/>
<path d="M86.8227 39.4649H90.3745V43.0167H86.8227V39.4649Z" fill="#2B519B"/>
<path d="M86.8227 43.4114H90.3745V46.9632H86.8227V43.4114Z" fill="#2B519B"/>
<path d="M86.8227 47.3579H90.3745V50.9097H86.8227V47.3579Z" fill="#2B519B"/>
<path d="M86.8227 51.3044H90.3745V54.8562H86.8227V51.3044Z" fill="#2B519B"/>
<path d="M86.8227 55.2508H90.3745V58.8027H86.8227V55.2508Z" fill="#2B519B"/>
<path d="M86.8227 59.1973H90.3745V62.7492H86.8227V59.1973Z" fill="#2B519B"/>
<path d="M86.8227 63.1438H90.3745V66.6957H86.8227V63.1438Z" fill="#2B519B"/>
<path d="M90.7692 0L94.321 0V3.55184H90.7692V0Z" fill="#2B519B"/>
<path d="M90.7692 3.94649H94.321V7.49833H90.7692V3.94649Z" fill="#2B519B"/>
<path d="M90.7692 7.89298H94.321V11.4448H90.7692V7.89298Z" fill="#2B519B"/>
<path d="M90.7692 11.8395H94.321V15.3913H90.7692V11.8395Z" fill="#2B519B"/>
<path d="M90.7692 15.786H94.321V19.3378H90.7692V15.786Z" fill="#2B519B"/>
<path d="M90.7692 19.7324H94.321V23.2843H90.7692V19.7324Z" fill="#2B519B"/>
<path d="M90.7692 23.6789H94.321V27.2308H90.7692V23.6789Z" fill="#2B519B"/>
<path d="M90.7692 27.6254H94.321V31.1773H90.7692V27.6254Z" fill="#2B519B"/>
<path d="M90.7692 31.5719H94.321V35.1237H90.7692V31.5719Z" fill="#2B519B"/>
<path d="M90.7692 35.5184H94.321V39.0702H90.7692V35.5184Z" fill="#2B519B"/>
<path d="M90.7692 39.4649H94.321V43.0167H90.7692V39.4649Z" fill="#2B519B"/>
<path d="M90.7692 43.4114H94.321V46.9632H90.7692V43.4114Z" fill="#2B519B"/>
<path d="M90.7692 47.3579H94.321V50.9097H90.7692V47.3579Z" fill="#2B519B"/>
<path d="M90.7692 51.3044H94.321V54.8562H90.7692V51.3044Z" fill="#2B519B"/>
<path d="M90.7692 55.2508H94.321V58.8027H90.7692V55.2508Z" fill="#2B519B"/>
<path d="M90.7692 59.1973H94.321V62.7492H90.7692V59.1973Z" fill="#2B519B"/>
<path d="M90.7692 63.1438H94.321V66.6957H90.7692V63.1438Z" fill="#2B519B"/>
<path d="M94.7157 0L98.2675 0V3.55184H94.7157V0Z" fill="#2B519B"/>
<path d="M94.7157 3.94649H98.2675V7.49833H94.7157V3.94649Z" fill="#2B519B"/>
<path d="M94.7157 7.89298H98.2675V11.4448H94.7157V7.89298Z" fill="#2B519B"/>
<path d="M94.7157 11.8395H98.2675V15.3913H94.7157V11.8395Z" fill="#2B519B"/>
<path d="M94.7157 15.786H98.2675V19.3378H94.7157V15.786Z" fill="#2B519B"/>
<path d="M94.7157 19.7324H98.2675V23.2843H94.7157V19.7324Z" fill="#2B519B"/>
<path d="M94.7157 23.6789H98.2675V27.2308H94.7157V23.6789Z" fill="#2B519B"/>
<path d="M94.7157 27.6254H98.2675V31.1773H94.7157V27.6254Z" fill="#2B519B"/>
<path d="M94.7157 31.5719H98.2675V35.1237H94.7157V31.5719Z" fill="#2B519B"/>
<path d="M94.7157 35.5184H98.2675V39.0702H94.7157V35.5184Z" fill="#2B519B"/>
<path d="M94.7157 39.4649H98.2675V43.0167H94.7157V39.4649Z" fill="#2B519B"/>
<path d="M94.7157 43.4114H98.2675V46.9632H94.7157V43.4114Z" fill="#2B519B"/>
<path d="M94.7157 47.3579H98.2675V50.9097H94.7157V47.3579Z" fill="#2B519B"/>
<path d="M94.7157 51.3044H98.2675V54.8562H94.7157V51.3044Z" fill="#2B519B"/>
<path d="M94.7157 55.2508H98.2675V58.8027H94.7157V55.2508Z" fill="#2B519B"/>
<path d="M94.7157 59.1973H98.2675V62.7492H94.7157V59.1973Z" fill="#2B519B"/>
<path d="M94.7157 63.1438H98.2675V66.6957H94.7157V63.1438Z" fill="#2B519B"/>
<path d="M98.6622 0L102.214 0V3.55184H98.6622V0Z" fill="#2B519B"/>
<path d="M98.6622 3.94649H102.214V7.49833H98.6622V3.94649Z" fill="#2B519B"/>
<path d="M98.6622 7.89298H102.214V11.4448H98.6622V7.89298Z" fill="#2B519B"/>
<path d="M98.6622 11.8395H102.214V15.3913H98.6622V11.8395Z" fill="#2B519B"/>
<path d="M98.6622 15.786H102.214V19.3378H98.6622V15.786Z" fill="#2B519B"/>
<path d="M98.6622 19.7324H102.214V23.2843H98.6622V19.7324Z" fill="#2B519B"/>
<path d="M98.6622 23.6789H102.214V27.2308H98.6622V23.6789Z" fill="#2B519B"/>
<path d="M98.6622 27.6254H102.214V31.1773H98.6622V27.6254Z" fill="#2B519B"/>
<path d="M98.6622 31.5719H102.214V35.1237H98.6622V31.5719Z" fill="#2B519B"/>
<path d="M98.6622 35.5184H102.214V39.0702H98.6622V35.5184Z" fill="#2B519B"/>
<path d="M98.6622 39.4649H102.214V43.0167H98.6622V39.4649Z" fill="#2B519B"/>
<path d="M98.6622 43.4114H102.214V46.9632H98.6622V43.4114Z" fill="#2B519B"/>
<path d="M98.6622 47.3579H102.214V50.9097H98.6622V47.3579Z" fill="#2B519B"/>
<path d="M98.6622 51.3044H102.214V54.8562H98.6622V51.3044Z" fill="#2B519B"/>
<path d="M98.6622 55.2508H102.214V58.8027H98.6622V55.2508Z" fill="#2B519B"/>
<path d="M98.6622 59.1973H102.214V62.7492H98.6622V59.1973Z" fill="#2B519B"/>
<path d="M98.6622 63.1438H102.214V66.6957H98.6622V63.1438Z" fill="#2B519B"/>
<path d="M102.609 0L106.161 0V3.55184H102.609V0Z" fill="#2B519B"/>
<path d="M102.609 3.94649H106.161V7.49833H102.609V3.94649Z" fill="#2B519B"/>
<path d="M102.609 7.89298H106.161V11.4448H102.609V7.89298Z" fill="#2B519B"/>
<path d="M102.609 11.8395H106.161V15.3913H102.609V11.8395Z" fill="#2B519B"/>
<path d="M102.609 15.786H106.161V19.3378H102.609V15.786Z" fill="#2B519B"/>
<path d="M102.609 19.7324H106.161V23.2843H102.609V19.7324Z" fill="#2B519B"/>
<path d="M102.609 23.6789H106.161V27.2308H102.609V23.6789Z" fill="#2B519B"/>
<path d="M102.609 27.6254H106.161V31.1773H102.609V27.6254Z" fill="#2B519B"/>
<path d="M102.609 31.5719H106.161V35.1237H102.609V31.5719Z" fill="#2B519B"/>
<path d="M102.609 35.5184H106.161V39.0702H102.609V35.5184Z" fill="#2B519B"/>
<path d="M102.609 39.4649H106.161V43.0167H102.609V39.4649Z" fill="#2B519B"/>
<path d="M102.609 43.4114H106.161V46.9632H102.609V43.4114Z" fill="#2B519B"/>
<path d="M102.609 47.3579H106.161V50.9097H102.609V47.3579Z" fill="#2B519B"/>
<path d="M102.609 51.3044H106.161V54.8562H102.609V51.3044Z" fill="#2B519B"/>
<path d="M102.609 55.2508H106.161V58.8027H102.609V55.2508Z" fill="#2B519B"/>
<path d="M102.609 59.1973H106.161V62.7492H102.609V59.1973Z" fill="#2B519B"/>
<path d="M102.609 63.1438H106.161V66.6957H102.609V63.1438Z" fill="#2B519B"/>
<path d="M106.555 0L110.107 0V3.55184H106.555V0Z" fill="#2B519B"/>
<path d="M110.502 0L114.053 0V3.55184H110.502V0Z" fill="#2B519B"/>
<path d="M114.448 0L118 0V3.55184H114.448V0Z" fill="#2B519B"/>
<path d="M106.555 3.94649H110.107V7.49833H106.555V3.94649Z" fill="#2B519B"/>
<path d="M110.502 3.94649H114.053V7.49833H110.502V3.94649Z" fill="#2B519B"/>
<path d="M114.448 3.94649H118V7.49833H114.448V3.94649Z" fill="#2B519B"/>
<path d="M106.555 7.89298H110.107V11.4448H106.555V7.89298Z" fill="#2B519B"/>
<path d="M110.502 7.89298H114.053V11.4448H110.502V7.89298Z" fill="#2B519B"/>
<path d="M114.448 7.89298H118V11.4448H114.448V7.89298Z" fill="#2B519B"/>
<path d="M106.555 11.8395H110.107V15.3913H106.555V11.8395Z" fill="#2B519B"/>
<path d="M110.502 11.8395H114.053V15.3913H110.502V11.8395Z" fill="#2B519B"/>
<path d="M114.448 11.8395H118V15.3913H114.448V11.8395Z" fill="#2B519B"/>
<path d="M106.555 15.786H110.107V19.3378H106.555V15.786Z" fill="#2B519B"/>
<path d="M110.502 15.786H114.053V19.3378H110.502V15.786Z" fill="#2B519B"/>
<path d="M114.448 15.786H118V19.3378H114.448V15.786Z" fill="#2B519B"/>
<path d="M106.555 19.7324H110.107V23.2843H106.555V19.7324Z" fill="#2B519B"/>
<path d="M110.502 19.7324H114.053V23.2843H110.502V19.7324Z" fill="#2B519B"/>
<path d="M114.448 19.7324H118V23.2843H114.448V19.7324Z" fill="#2B519B"/>
<path d="M106.555 23.6789H110.107V27.2308H106.555V23.6789Z" fill="#2B519B"/>
<path d="M110.502 23.6789H114.053V27.2308H110.502V23.6789Z" fill="#2B519B"/>
<path d="M114.448 23.6789H118V27.2308H114.448V23.6789Z" fill="#2B519B"/>
<path d="M106.555 27.6254H110.107V31.1773H106.555V27.6254Z" fill="#2B519B"/>
<path d="M110.502 27.6254H114.053V31.1773H110.502V27.6254Z" fill="#2B519B"/>
<path d="M114.448 27.6254H118V31.1773H114.448V27.6254Z" fill="#2B519B"/>
<path d="M106.555 31.5719H110.107V35.1237H106.555V31.5719Z" fill="#2B519B"/>
<path d="M110.502 31.5719H114.053V35.1237H110.502V31.5719Z" fill="#2B519B"/>
<path d="M114.448 31.5719H118V35.1237H114.448V31.5719Z" fill="#2B519B"/>
<path d="M106.555 35.5184H110.107V39.0702H106.555V35.5184Z" fill="#2B519B"/>
<path d="M110.502 35.5184H114.053V39.0702H110.502V35.5184Z" fill="#2B519B"/>
<path d="M114.448 35.5184H118V39.0702H114.448V35.5184Z" fill="#2B519B"/>
<path d="M106.555 39.4649H110.107V43.0167H106.555V39.4649Z" fill="#2B519B"/>
<path d="M110.502 39.4649H114.053V43.0167H110.502V39.4649Z" fill="#2B519B"/>
<path d="M114.448 39.4649H118V43.0167H114.448V39.4649Z" fill="#2B519B"/>
<path d="M106.555 43.4114H110.107V46.9632H106.555V43.4114Z" fill="#2B519B"/>
<path d="M110.502 43.4114H114.053V46.9632H110.502V43.4114Z" fill="#2B519B"/>
<path d="M114.448 43.4114H118V46.9632H114.448V43.4114Z" fill="#2B519B"/>
<path d="M106.555 47.3579H110.107V50.9097H106.555V47.3579Z" fill="#2B519B"/>
<path d="M110.502 47.3579H114.053V50.9097H110.502V47.3579Z" fill="#2B519B"/>
<path d="M114.448 47.3579H118V50.9097H114.448V47.3579Z" fill="#2B519B"/>
<path d="M106.555 51.3044H110.107V54.8562H106.555V51.3044Z" fill="#2B519B"/>
<path d="M110.502 51.3044H114.053V54.8562H110.502V51.3044Z" fill="#2B519B"/>
<path d="M114.448 51.3044H118V54.8562H114.448V51.3044Z" fill="#2B519B"/>
<path d="M106.555 55.2508H110.107V58.8027H106.555V55.2508Z" fill="#2B519B"/>
<path d="M110.502 55.2508H114.053V58.8027H110.502V55.2508Z" fill="#2B519B"/>
<path d="M114.448 55.2508H118V58.8027H114.448V55.2508Z" fill="#2B519B"/>
<path d="M106.555 59.1973H110.107V62.7492H106.555V59.1973Z" fill="#2B519B"/>
<path d="M110.502 59.1973H114.053V62.7492H110.502V59.1973Z" fill="#2B519B"/>
<path d="M114.448 59.1973H118V62.7492H114.448V59.1973Z" fill="#2B519B"/>
<path d="M106.555 63.1438H110.107V66.6957H106.555V63.1438Z" fill="#2B519B"/>
<path d="M110.502 63.1438H114.053V66.6957H110.502V63.1438Z" fill="#2B519B"/>
<path d="M114.448 63.1438H118V66.6957H114.448V63.1438Z" fill="#2B519B"/>
<path d="M82.8762 67.0903H86.4281V70.6421H82.8762V67.0903Z" fill="#2B519B"/>
<path d="M82.8762 71.0368H86.4281V74.5886H82.8762V71.0368Z" fill="#2B519B"/>
<path d="M86.8227 67.0903H90.3745V70.6421H86.8227V67.0903Z" fill="#2B519B"/>
<path d="M86.8227 71.0368H90.3745V74.5886H86.8227V71.0368Z" fill="#2B519B"/>
<path d="M90.7692 67.0903H94.321V70.6421H90.7692V67.0903Z" fill="#2B519B"/>
<path d="M90.7692 71.0368H94.321V74.5886H90.7692V71.0368Z" fill="#2B519B"/>
<path d="M94.7157 67.0903H98.2675V70.6421H94.7157V67.0903Z" fill="#2B519B"/>
<path d="M94.7157 71.0368H98.2675V74.5886H94.7157V71.0368Z" fill="#2B519B"/>
<path d="M98.6622 67.0903H102.214V70.6421H98.6622V67.0903Z" fill="#2B519B"/>
<path d="M98.6622 71.0368H102.214V74.5886H98.6622V71.0368Z" fill="#2B519B"/>
<path d="M102.609 67.0903H106.161V70.6421H102.609V67.0903Z" fill="#2B519B"/>
<path d="M102.609 71.0368H106.161V74.5886H102.609V71.0368Z" fill="#2B519B"/>
<path d="M106.555 67.0903H110.107V70.6421H106.555V67.0903Z" fill="#2B519B"/>
<path d="M110.502 67.0903H114.053V70.6421H110.502V67.0903Z" fill="#2B519B"/>
<path d="M114.448 67.0903H118V70.6421H114.448V67.0903Z" fill="#2B519B"/>
<path d="M106.555 71.0368H110.107V74.5886H106.555V71.0368Z" fill="#2B519B"/>
<path d="M110.502 71.0368H114.053V74.5886H110.502V71.0368Z" fill="#2B519B"/>
<path d="M114.448 71.0368H118V74.5886H114.448V71.0368Z" fill="#2B519B"/>
<path d="M82.8762 74.9833H86.4281V78.5351H82.8762V74.9833Z" fill="#2B519B"/>
<path d="M86.8227 74.9833H90.3745V78.5351H86.8227V74.9833Z" fill="#2B519B"/>
<path d="M90.7692 74.9833H94.321V78.5351H90.7692V74.9833Z" fill="#2B519B"/>
<path d="M94.7157 74.9833H98.2675V78.5351H94.7157V74.9833Z" fill="#2B519B"/>
<path d="M98.6622 74.9833H102.214V78.5351H98.6622V74.9833Z" fill="#2B519B"/>
<path d="M102.609 74.9833H106.161V78.5351H102.609V74.9833Z" fill="#2B519B"/>
<path d="M106.555 74.9833H110.107V78.5351H106.555V74.9833Z" fill="#2B519B"/>
<path d="M110.502 74.9833H114.053V78.5351H110.502V74.9833Z" fill="#2B519B"/>
<path d="M114.448 74.9833H118V78.5351H114.448V74.9833Z" fill="#2B519B"/>
<path d="M82.8762 78.9298H86.4281V82.4816H82.8762V78.9298Z" fill="#2B519B"/>
<path d="M86.8227 78.9298H90.3745V82.4816H86.8227V78.9298Z" fill="#2B519B"/>
<path d="M90.7692 78.9298H94.321V82.4816H90.7692V78.9298Z" fill="#2B519B"/>
<path d="M94.7157 78.9298H98.2675V82.4816H94.7157V78.9298Z" fill="#2B519B"/>
<path d="M98.6622 78.9298H102.214V82.4816H98.6622V78.9298Z" fill="#2B519B"/>
<path d="M102.609 78.9298H106.161V82.4816H102.609V78.9298Z" fill="#2B519B"/>
<path d="M106.555 78.9298H110.107V82.4816H106.555V78.9298Z" fill="#2B519B"/>
<path d="M110.502 78.9298H114.053V82.4816H110.502V78.9298Z" fill="#2B519B"/>
<path d="M114.448 78.9298H118V82.4816H114.448V78.9298Z" fill="#2B519B"/>
<path d="M82.8762 82.8763H86.4281V86.4281H82.8762V82.8763Z" fill="#2B519B"/>
<path d="M86.8227 82.8763H90.3745V86.4281H86.8227V82.8763Z" fill="#2B519B"/>
<path d="M90.7692 82.8763H94.321V86.4281H90.7692V82.8763Z" fill="#2B519B"/>
<path d="M94.7157 82.8763H98.2675V86.4281H94.7157V82.8763Z" fill="#2B519B"/>
<path d="M98.6622 82.8763H102.214V86.4281H98.6622V82.8763Z" fill="#2B519B"/>
<path d="M102.609 82.8763H106.161V86.4281H102.609V82.8763Z" fill="#2B519B"/>
<path d="M106.555 82.8763H110.107V86.4281H106.555V82.8763Z" fill="#2B519B"/>
<path d="M110.502 82.8763H114.053V86.4281H110.502V82.8763Z" fill="#2B519B"/>
<path d="M114.448 82.8763H118V86.4281H114.448V82.8763Z" fill="#2B519B"/>
<path d="M82.8762 86.8227H86.4281V90.3746H82.8762V86.8227Z" fill="#2B519B"/>
<path d="M86.8227 86.8227H90.3745V90.3746H86.8227V86.8227Z" fill="#2B519B"/>
<path d="M90.7692 86.8227H94.321V90.3746H90.7692V86.8227Z" fill="#2B519B"/>
<path d="M94.7157 86.8227H98.2675V90.3746H94.7157V86.8227Z" fill="#2B519B"/>
<path d="M98.6622 86.8227H102.214V90.3746H98.6622V86.8227Z" fill="#2B519B"/>
<path d="M102.609 86.8227H106.161V90.3746H102.609V86.8227Z" fill="#2B519B"/>
<path d="M106.555 86.8227H110.107V90.3746H106.555V86.8227Z" fill="#2B519B"/>
<path d="M110.502 86.8227H114.053V90.3746H110.502V86.8227Z" fill="#2B519B"/>
<path d="M114.448 86.8227H118V90.3746H114.448V86.8227Z" fill="#2B519B"/>
<path d="M82.8762 90.7692H86.4281V94.3211H82.8762V90.7692Z" fill="#2B519B"/>
<path d="M86.8227 90.7692H90.3745V94.3211H86.8227V90.7692Z" fill="#2B519B"/>
<path d="M90.7692 90.7692H94.321V94.3211H90.7692V90.7692Z" fill="#2B519B"/>
<path d="M94.7157 90.7692H98.2675V94.3211H94.7157V90.7692Z" fill="#2B519B"/>
<path d="M98.6622 90.7692H102.214V94.3211H98.6622V90.7692Z" fill="#2B519B"/>
<path d="M102.609 90.7692H106.161V94.3211H102.609V90.7692Z" fill="#2B519B"/>
<path d="M106.555 90.7692H110.107V94.3211H106.555V90.7692Z" fill="#2B519B"/>
<path d="M110.502 90.7692H114.053V94.3211H110.502V90.7692Z" fill="#2B519B"/>
<path d="M114.448 90.7692H118V94.3211H114.448V90.7692Z" fill="#2B519B"/>
<path d="M82.8762 94.7157H86.4281V98.2676H82.8762V94.7157Z" fill="#2B519B"/>
<path d="M86.8227 94.7157H90.3745V98.2676H86.8227V94.7157Z" fill="#2B519B"/>
<path d="M90.7692 94.7157H94.321V98.2676H90.7692V94.7157Z" fill="#2B519B"/>
<path d="M94.7157 94.7157H98.2675V98.2676H94.7157V94.7157Z" fill="#2B519B"/>
<path d="M98.6622 94.7157H102.214V98.2676H98.6622V94.7157Z" fill="#2B519B"/>
<path d="M102.609 94.7157H106.161V98.2676H102.609V94.7157Z" fill="#2B519B"/>
<path d="M106.555 94.7157H110.107V98.2676H106.555V94.7157Z" fill="#2B519B"/>
<path d="M110.502 94.7157H114.053V98.2676H110.502V94.7157Z" fill="#2B519B"/>
<path d="M114.448 94.7157H118V98.2676H114.448V94.7157Z" fill="#2B519B"/>
<path d="M82.8762 98.6622H86.4281V102.214H82.8762V98.6622Z" fill="#2B519B"/>
<path d="M86.8227 98.6622H90.3745V102.214H86.8227V98.6622Z" fill="#2B519B"/>
<path d="M90.7692 98.6622H94.321V102.214H90.7692V98.6622Z" fill="#2B519B"/>
<path d="M94.7157 98.6622H98.2675V102.214H94.7157V98.6622Z" fill="#2B519B"/>
<path d="M98.6622 98.6622H102.214V102.214H98.6622V98.6622Z" fill="#2B519B"/>
<path d="M102.609 98.6622H106.161V102.214H102.609V98.6622Z" fill="#2B519B"/>
<path d="M106.555 98.6622H110.107V102.214H106.555V98.6622Z" fill="#2B519B"/>
<path d="M110.502 98.6622H114.053V102.214H110.502V98.6622Z" fill="#2B519B"/>
<path d="M114.448 98.6622H118V102.214H114.448V98.6622Z" fill="#2B519B"/>
<path d="M82.8762 102.609H86.4281V106.161H82.8762V102.609Z" fill="#2B519B"/>
<path d="M86.8227 102.609H90.3745V106.161H86.8227V102.609Z" fill="#2B519B"/>
<path d="M90.7692 102.609H94.321V106.161H90.7692V102.609Z" fill="#2B519B"/>
<path d="M94.7157 102.609H98.2675V106.161H94.7157V102.609Z" fill="#2B519B"/>
<path d="M98.6622 102.609H102.214V106.161H98.6622V102.609Z" fill="#2B519B"/>
<path d="M102.609 102.609H106.161V106.161H102.609V102.609Z" fill="#2B519B"/>
<path d="M106.555 102.609H110.107V106.161H106.555V102.609Z" fill="#2B519B"/>
<path d="M110.502 102.609H114.053V106.161H110.502V102.609Z" fill="#2B519B"/>
<path d="M114.448 102.609H118V106.161H114.448V102.609Z" fill="#2B519B"/>
<path d="M82.8762 106.555H86.4281V110.107H82.8762V106.555Z" fill="#2B519B"/>
<path d="M86.8227 106.555H90.3745V110.107H86.8227V106.555Z" fill="#2B519B"/>
<path d="M90.7692 106.555H94.321V110.107H90.7692V106.555Z" fill="#2B519B"/>
<path d="M94.7157 106.555H98.2675V110.107H94.7157V106.555Z" fill="#2B519B"/>
<path d="M98.6622 106.555H102.214V110.107H98.6622V106.555Z" fill="#2B519B"/>
<path d="M102.609 106.555H106.161V110.107H102.609V106.555Z" fill="#2B519B"/>
<path d="M106.555 106.555H110.107V110.107H106.555V106.555Z" fill="#2B519B"/>
<path d="M110.502 106.555H114.053V110.107H110.502V106.555Z" fill="#2B519B"/>
<path d="M114.448 106.555H118V110.107H114.448V106.555Z" fill="#2B519B"/>
</svg>
