<svg width="299" height="279" viewBox="0 0 299 279" fill="none" xmlns="http://www.w3.org/2000/svg">
<rect width="9" height="9" fill="#4584CC"/>
<rect y="10" width="9" height="9" fill="#4584CC"/>
<rect y="20" width="9" height="9" fill="#4584CC"/>
<rect y="30" width="9" height="9" fill="#4584CC"/>
<rect y="40" width="9" height="9" fill="#4584CC"/>
<rect y="50" width="9" height="9" fill="#4584CC"/>
<rect y="60" width="9" height="9" fill="#4584CC"/>
<rect y="70" width="9" height="9" fill="#4584CC"/>
<rect y="80" width="9" height="9" fill="#4584CC"/>
<rect y="90" width="9" height="9" fill="#4584CC"/>
<rect y="100" width="9" height="9" fill="#4584CC"/>
<rect y="110" width="9" height="9" fill="#4584CC"/>
<rect y="120" width="9" height="9" fill="#4584CC"/>
<rect y="130" width="9" height="9" fill="#4584CC"/>
<rect y="140" width="9" height="9" fill="#4584CC"/>
<rect y="150" width="9" height="9" fill="#4584CC"/>
<rect y="160" width="9" height="9" fill="#4584CC"/>
<rect x="10" width="9" height="9" fill="#4584CC"/>
<rect x="10" y="10" width="9" height="9" fill="#4584CC"/>
<rect x="10" y="20" width="9" height="9" fill="#4584CC"/>
<rect x="10" y="30" width="9" height="9" fill="#4584CC"/>
<rect x="10" y="40" width="9" height="9" fill="#4584CC"/>
<rect x="10" y="50" width="9" height="9" fill="#4584CC"/>
<rect x="10" y="60" width="9" height="9" fill="#4584CC"/>
<rect x="10" y="70" width="9" height="9" fill="#4584CC"/>
<rect x="10" y="80" width="9" height="9" fill="#4584CC"/>
<rect x="10" y="90" width="9" height="9" fill="#4584CC"/>
<rect x="10" y="100" width="9" height="9" fill="#4584CC"/>
<rect x="10" y="110" width="9" height="9" fill="#4584CC"/>
<rect x="10" y="120" width="9" height="9" fill="#4584CC"/>
<rect x="10" y="130" width="9" height="9" fill="#4584CC"/>
<rect x="10" y="140" width="9" height="9" fill="#4584CC"/>
<rect x="10" y="150" width="9" height="9" fill="#4584CC"/>
<rect x="10" y="160" width="9" height="9" fill="#4584CC"/>
<rect x="20" width="9" height="9" fill="#4584CC"/>
<rect x="20" y="10" width="9" height="9" fill="#4584CC"/>
<rect x="20" y="20" width="9" height="9" fill="#4584CC"/>
<rect x="20" y="30" width="9" height="9" fill="#4584CC"/>
<rect x="20" y="40" width="9" height="9" fill="#4584CC"/>
<rect x="20" y="50" width="9" height="9" fill="#4584CC"/>
<rect x="20" y="60" width="9" height="9" fill="#4584CC"/>
<rect x="20" y="70" width="9" height="9" fill="#4584CC"/>
<rect x="20" y="80" width="9" height="9" fill="#4584CC"/>
<rect x="20" y="90" width="9" height="9" fill="#4584CC"/>
<rect x="20" y="100" width="9" height="9" fill="#4584CC"/>
<rect x="20" y="110" width="9" height="9" fill="#4584CC"/>
<rect x="20" y="120" width="9" height="9" fill="#4584CC"/>
<rect x="20" y="130" width="9" height="9" fill="#4584CC"/>
<rect x="20" y="140" width="9" height="9" fill="#4584CC"/>
<rect x="20" y="150" width="9" height="9" fill="#4584CC"/>
<rect x="20" y="160" width="9" height="9" fill="#4584CC"/>
<rect x="30" width="9" height="9" fill="#4584CC"/>
<rect x="30" y="10" width="9" height="9" fill="#4584CC"/>
<rect x="30" y="20" width="9" height="9" fill="#4584CC"/>
<rect x="30" y="30" width="9" height="9" fill="#4584CC"/>
<rect x="30" y="40" width="9" height="9" fill="#4584CC"/>
<rect x="30" y="50" width="9" height="9" fill="#4584CC"/>
<rect x="30" y="60" width="9" height="9" fill="#4584CC"/>
<rect x="30" y="70" width="9" height="9" fill="#4584CC"/>
<rect x="30" y="80" width="9" height="9" fill="#4584CC"/>
<rect x="30" y="90" width="9" height="9" fill="#4584CC"/>
<rect x="30" y="100" width="9" height="9" fill="#4584CC"/>
<rect x="30" y="110" width="9" height="9" fill="#4584CC"/>
<rect x="30" y="120" width="9" height="9" fill="#4584CC"/>
<rect x="30" y="130" width="9" height="9" fill="#4584CC"/>
<rect x="30" y="140" width="9" height="9" fill="#4584CC"/>
<rect x="30" y="150" width="9" height="9" fill="#4584CC"/>
<rect x="30" y="160" width="9" height="9" fill="#4584CC"/>
<rect x="40" width="9" height="9" fill="#4584CC"/>
<rect x="40" y="10" width="9" height="9" fill="#4584CC"/>
<rect x="40" y="20" width="9" height="9" fill="#4584CC"/>
<rect x="40" y="30" width="9" height="9" fill="#4584CC"/>
<rect x="40" y="40" width="9" height="9" fill="#4584CC"/>
<rect x="40" y="50" width="9" height="9" fill="#4584CC"/>
<rect x="40" y="60" width="9" height="9" fill="#4584CC"/>
<rect x="40" y="70" width="9" height="9" fill="#4584CC"/>
<rect x="40" y="80" width="9" height="9" fill="#4584CC"/>
<rect x="40" y="90" width="9" height="9" fill="#4584CC"/>
<rect x="40" y="100" width="9" height="9" fill="#4584CC"/>
<rect x="40" y="110" width="9" height="9" fill="#4584CC"/>
<rect x="40" y="120" width="9" height="9" fill="#4584CC"/>
<rect x="40" y="130" width="9" height="9" fill="#4584CC"/>
<rect x="40" y="140" width="9" height="9" fill="#4584CC"/>
<rect x="40" y="150" width="9" height="9" fill="#4584CC"/>
<rect x="40" y="160" width="9" height="9" fill="#4584CC"/>
<rect x="50" width="9" height="9" fill="#4584CC"/>
<rect x="50" y="10" width="9" height="9" fill="#4584CC"/>
<rect x="50" y="20" width="9" height="9" fill="#4584CC"/>
<rect x="50" y="30" width="9" height="9" fill="#4584CC"/>
<rect x="50" y="40" width="9" height="9" fill="#4584CC"/>
<rect x="50" y="50" width="9" height="9" fill="#4584CC"/>
<rect x="50" y="60" width="9" height="9" fill="#4584CC"/>
<rect x="50" y="70" width="9" height="9" fill="#4584CC"/>
<rect x="50" y="80" width="9" height="9" fill="#4584CC"/>
<rect x="50" y="90" width="9" height="9" fill="#4584CC"/>
<rect x="50" y="100" width="9" height="9" fill="#4584CC"/>
<rect x="50" y="110" width="9" height="9" fill="#4584CC"/>
<rect x="50" y="120" width="9" height="9" fill="#4584CC"/>
<rect x="50" y="130" width="9" height="9" fill="#4584CC"/>
<rect x="50" y="140" width="9" height="9" fill="#4584CC"/>
<rect x="50" y="150" width="9" height="9" fill="#4584CC"/>
<rect x="50" y="160" width="9" height="9" fill="#4584CC"/>
<rect x="60" width="9" height="9" fill="#4584CC"/>
<rect x="70" width="9" height="9" fill="#4584CC"/>
<rect x="80" width="9" height="9" fill="#4584CC"/>
<rect x="60" y="10" width="9" height="9" fill="#4584CC"/>
<rect x="70" y="10" width="9" height="9" fill="#4584CC"/>
<rect x="80" y="10" width="9" height="9" fill="#4584CC"/>
<rect x="60" y="20" width="9" height="9" fill="#4584CC"/>
<rect x="70" y="20" width="9" height="9" fill="#4584CC"/>
<rect x="80" y="20" width="9" height="9" fill="#4584CC"/>
<rect x="60" y="30" width="9" height="9" fill="#4584CC"/>
<rect x="70" y="30" width="9" height="9" fill="#4584CC"/>
<rect x="80" y="30" width="9" height="9" fill="#4584CC"/>
<rect x="60" y="40" width="9" height="9" fill="#4584CC"/>
<rect x="70" y="40" width="9" height="9" fill="#4584CC"/>
<rect x="80" y="40" width="9" height="9" fill="#4584CC"/>
<rect x="60" y="50" width="9" height="9" fill="#4584CC"/>
<rect x="70" y="50" width="9" height="9" fill="#4584CC"/>
<rect x="80" y="50" width="9" height="9" fill="#4584CC"/>
<rect x="60" y="60" width="9" height="9" fill="#4584CC"/>
<rect x="70" y="60" width="9" height="9" fill="#4584CC"/>
<rect x="80" y="60" width="9" height="9" fill="#4584CC"/>
<rect x="60" y="70" width="9" height="9" fill="#4584CC"/>
<rect x="70" y="70" width="9" height="9" fill="#4584CC"/>
<rect x="80" y="70" width="9" height="9" fill="#4584CC"/>
<rect x="60" y="80" width="9" height="9" fill="#4584CC"/>
<rect x="70" y="80" width="9" height="9" fill="#4584CC"/>
<rect x="80" y="80" width="9" height="9" fill="#4584CC"/>
<rect x="60" y="90" width="9" height="9" fill="#4584CC"/>
<rect x="70" y="90" width="9" height="9" fill="#4584CC"/>
<rect x="80" y="90" width="9" height="9" fill="#4584CC"/>
<rect x="60" y="100" width="9" height="9" fill="#4584CC"/>
<rect x="70" y="100" width="9" height="9" fill="#4584CC"/>
<rect x="80" y="100" width="9" height="9" fill="#4584CC"/>
<rect x="60" y="110" width="9" height="9" fill="#4584CC"/>
<rect x="70" y="110" width="9" height="9" fill="#4584CC"/>
<rect x="80" y="110" width="9" height="9" fill="#4584CC"/>
<rect x="60" y="120" width="9" height="9" fill="#4584CC"/>
<rect x="70" y="120" width="9" height="9" fill="#4584CC"/>
<rect x="80" y="120" width="9" height="9" fill="#4584CC"/>
<rect x="60" y="130" width="9" height="9" fill="#4584CC"/>
<rect x="70" y="130" width="9" height="9" fill="#4584CC"/>
<rect x="80" y="130" width="9" height="9" fill="#4584CC"/>
<rect x="60" y="140" width="9" height="9" fill="#4584CC"/>
<rect x="70" y="140" width="9" height="9" fill="#4584CC"/>
<rect x="80" y="140" width="9" height="9" fill="#4584CC"/>
<rect x="60" y="150" width="9" height="9" fill="#4584CC"/>
<rect x="70" y="150" width="9" height="9" fill="#4584CC"/>
<rect x="80" y="150" width="9" height="9" fill="#4584CC"/>
<rect x="60" y="160" width="9" height="9" fill="#4584CC"/>
<rect x="70" y="160" width="9" height="9" fill="#4584CC"/>
<rect x="80" y="160" width="9" height="9" fill="#4584CC"/>
<rect y="170" width="9" height="9" fill="#4584CC"/>
<rect y="180" width="9" height="9" fill="#4584CC"/>
<rect x="10" y="170" width="9" height="9" fill="#4584CC"/>
<rect x="10" y="180" width="9" height="9" fill="#4584CC"/>
<rect x="20" y="170" width="9" height="9" fill="#4584CC"/>
<rect x="20" y="180" width="9" height="9" fill="#4584CC"/>
<rect x="30" y="170" width="9" height="9" fill="#4584CC"/>
<rect x="30" y="180" width="9" height="9" fill="#4584CC"/>
<rect x="40" y="170" width="9" height="9" fill="#4584CC"/>
<rect x="40" y="180" width="9" height="9" fill="#4584CC"/>
<rect x="50" y="170" width="9" height="9" fill="#4584CC"/>
<rect x="50" y="180" width="9" height="9" fill="#4584CC"/>
<rect x="60" y="170" width="9" height="9" fill="#4584CC"/>
<rect x="70" y="170" width="9" height="9" fill="#4584CC"/>
<rect x="80" y="170" width="9" height="9" fill="#4584CC"/>
<rect x="60" y="180" width="9" height="9" fill="#4584CC"/>
<rect x="70" y="180" width="9" height="9" fill="#4584CC"/>
<rect x="80" y="180" width="9" height="9" fill="#4584CC"/>
<rect y="190" width="9" height="9" fill="#4584CC"/>
<rect x="10" y="190" width="9" height="9" fill="#4584CC"/>
<rect x="20" y="190" width="9" height="9" fill="#4584CC"/>
<rect x="30" y="190" width="9" height="9" fill="#4584CC"/>
<rect x="40" y="190" width="9" height="9" fill="#4584CC"/>
<rect x="50" y="190" width="9" height="9" fill="#4584CC"/>
<rect x="60" y="190" width="9" height="9" fill="#4584CC"/>
<rect x="70" y="190" width="9" height="9" fill="#4584CC"/>
<rect x="80" y="190" width="9" height="9" fill="#4584CC"/>
<rect y="200" width="9" height="9" fill="#4584CC"/>
<rect x="10" y="200" width="9" height="9" fill="#4584CC"/>
<rect x="20" y="200" width="9" height="9" fill="#4584CC"/>
<rect x="30" y="200" width="9" height="9" fill="#4584CC"/>
<rect x="40" y="200" width="9" height="9" fill="#4584CC"/>
<rect x="50" y="200" width="9" height="9" fill="#4584CC"/>
<rect x="60" y="200" width="9" height="9" fill="#4584CC"/>
<rect x="70" y="200" width="9" height="9" fill="#4584CC"/>
<rect x="80" y="200" width="9" height="9" fill="#4584CC"/>
<rect y="210" width="9" height="9" fill="#4584CC"/>
<rect x="10" y="210" width="9" height="9" fill="#4584CC"/>
<rect x="20" y="210" width="9" height="9" fill="#4584CC"/>
<rect x="30" y="210" width="9" height="9" fill="#4584CC"/>
<rect x="40" y="210" width="9" height="9" fill="#4584CC"/>
<rect x="50" y="210" width="9" height="9" fill="#4584CC"/>
<rect x="60" y="210" width="9" height="9" fill="#4584CC"/>
<rect x="70" y="210" width="9" height="9" fill="#4584CC"/>
<rect x="80" y="210" width="9" height="9" fill="#4584CC"/>
<rect y="220" width="9" height="9" fill="#4584CC"/>
<rect x="10" y="220" width="9" height="9" fill="#4584CC"/>
<rect x="20" y="220" width="9" height="9" fill="#4584CC"/>
<rect x="30" y="220" width="9" height="9" fill="#4584CC"/>
<rect x="40" y="220" width="9" height="9" fill="#4584CC"/>
<rect x="50" y="220" width="9" height="9" fill="#4584CC"/>
<rect x="60" y="220" width="9" height="9" fill="#4584CC"/>
<rect x="70" y="220" width="9" height="9" fill="#4584CC"/>
<rect x="80" y="220" width="9" height="9" fill="#4584CC"/>
<rect y="230" width="9" height="9" fill="#4584CC"/>
<rect x="10" y="230" width="9" height="9" fill="#4584CC"/>
<rect x="20" y="230" width="9" height="9" fill="#4584CC"/>
<rect x="30" y="230" width="9" height="9" fill="#4584CC"/>
<rect x="40" y="230" width="9" height="9" fill="#4584CC"/>
<rect x="50" y="230" width="9" height="9" fill="#4584CC"/>
<rect x="60" y="230" width="9" height="9" fill="#4584CC"/>
<rect x="70" y="230" width="9" height="9" fill="#4584CC"/>
<rect x="80" y="230" width="9" height="9" fill="#4584CC"/>
<rect y="240" width="9" height="9" fill="#4584CC"/>
<rect x="10" y="240" width="9" height="9" fill="#4584CC"/>
<rect x="20" y="240" width="9" height="9" fill="#4584CC"/>
<rect x="30" y="240" width="9" height="9" fill="#4584CC"/>
<rect x="40" y="240" width="9" height="9" fill="#4584CC"/>
<rect x="50" y="240" width="9" height="9" fill="#4584CC"/>
<rect x="60" y="240" width="9" height="9" fill="#4584CC"/>
<rect x="70" y="240" width="9" height="9" fill="#4584CC"/>
<rect x="80" y="240" width="9" height="9" fill="#4584CC"/>
<rect y="250" width="9" height="9" fill="#4584CC"/>
<rect x="10" y="250" width="9" height="9" fill="#4584CC"/>
<rect x="20" y="250" width="9" height="9" fill="#4584CC"/>
<rect x="30" y="250" width="9" height="9" fill="#4584CC"/>
<rect x="40" y="250" width="9" height="9" fill="#4584CC"/>
<rect x="50" y="250" width="9" height="9" fill="#4584CC"/>
<rect x="60" y="250" width="9" height="9" fill="#4584CC"/>
<rect x="70" y="250" width="9" height="9" fill="#4584CC"/>
<rect x="80" y="250" width="9" height="9" fill="#4584CC"/>
<rect y="260" width="9" height="9" fill="#4584CC"/>
<rect x="10" y="260" width="9" height="9" fill="#4584CC"/>
<rect x="20" y="260" width="9" height="9" fill="#4584CC"/>
<rect x="30" y="260" width="9" height="9" fill="#4584CC"/>
<rect x="40" y="260" width="9" height="9" fill="#4584CC"/>
<rect x="50" y="260" width="9" height="9" fill="#4584CC"/>
<rect x="60" y="260" width="9" height="9" fill="#4584CC"/>
<rect x="70" y="260" width="9" height="9" fill="#4584CC"/>
<rect x="80" y="260" width="9" height="9" fill="#4584CC"/>
<rect y="270" width="9" height="9" fill="#4584CC"/>
<rect x="10" y="270" width="9" height="9" fill="#4584CC"/>
<rect x="20" y="270" width="9" height="9" fill="#4584CC"/>
<rect x="30" y="270" width="9" height="9" fill="#4584CC"/>
<rect x="40" y="270" width="9" height="9" fill="#4584CC"/>
<rect x="50" y="270" width="9" height="9" fill="#4584CC"/>
<rect x="60" y="270" width="9" height="9" fill="#4584CC"/>
<rect x="70" y="270" width="9" height="9" fill="#4584CC"/>
<rect x="80" y="270" width="9" height="9" fill="#4584CC"/>
<rect x="105" width="9" height="9" fill="#3860AC"/>
<rect x="105" y="10" width="9" height="9" fill="#3860AC"/>
<rect x="105" y="20" width="9" height="9" fill="#3860AC"/>
<rect x="105" y="30" width="9" height="9" fill="#3860AC"/>
<rect x="105" y="40" width="9" height="9" fill="#3860AC"/>
<rect x="105" y="50" width="9" height="9" fill="#3860AC"/>
<rect x="105" y="60" width="9" height="9" fill="#3860AC"/>
<rect x="105" y="70" width="9" height="9" fill="#3860AC"/>
<rect x="105" y="80" width="9" height="9" fill="#3860AC"/>
<rect x="105" y="90" width="9" height="9" fill="#3860AC"/>
<rect x="105" y="100" width="9" height="9" fill="#3860AC"/>
<rect x="105" y="110" width="9" height="9" fill="#3860AC"/>
<rect x="105" y="120" width="9" height="9" fill="#3860AC"/>
<rect x="105" y="130" width="9" height="9" fill="#3860AC"/>
<rect x="105" y="140" width="9" height="9" fill="#3860AC"/>
<rect x="105" y="150" width="9" height="9" fill="#3860AC"/>
<rect x="105" y="160" width="9" height="9" fill="#3860AC"/>
<rect x="115" width="9" height="9" fill="#3860AC"/>
<rect x="115" y="10" width="9" height="9" fill="#3860AC"/>
<rect x="115" y="20" width="9" height="9" fill="#3860AC"/>
<rect x="115" y="30" width="9" height="9" fill="#3860AC"/>
<rect x="115" y="40" width="9" height="9" fill="#3860AC"/>
<rect x="115" y="50" width="9" height="9" fill="#3860AC"/>
<rect x="115" y="60" width="9" height="9" fill="#3860AC"/>
<rect x="115" y="70" width="9" height="9" fill="#3860AC"/>
<rect x="115" y="80" width="9" height="9" fill="#3860AC"/>
<rect x="115" y="90" width="9" height="9" fill="#3860AC"/>
<rect x="115" y="100" width="9" height="9" fill="#3860AC"/>
<rect x="115" y="110" width="9" height="9" fill="#3860AC"/>
<rect x="115" y="120" width="9" height="9" fill="#3860AC"/>
<rect x="115" y="130" width="9" height="9" fill="#3860AC"/>
<rect x="115" y="140" width="9" height="9" fill="#3860AC"/>
<rect x="115" y="150" width="9" height="9" fill="#3860AC"/>
<rect x="115" y="160" width="9" height="9" fill="#3860AC"/>
<rect x="125" width="9" height="9" fill="#3860AC"/>
<rect x="125" y="10" width="9" height="9" fill="#3860AC"/>
<rect x="125" y="20" width="9" height="9" fill="#3860AC"/>
<rect x="125" y="30" width="9" height="9" fill="#3860AC"/>
<rect x="125" y="40" width="9" height="9" fill="#3860AC"/>
<rect x="125" y="50" width="9" height="9" fill="#3860AC"/>
<rect x="125" y="60" width="9" height="9" fill="#3860AC"/>
<rect x="125" y="70" width="9" height="9" fill="#3860AC"/>
<rect x="125" y="80" width="9" height="9" fill="#3860AC"/>
<rect x="125" y="90" width="9" height="9" fill="#3860AC"/>
<rect x="125" y="100" width="9" height="9" fill="#3860AC"/>
<rect x="125" y="110" width="9" height="9" fill="#3860AC"/>
<rect x="125" y="120" width="9" height="9" fill="#3860AC"/>
<rect x="125" y="130" width="9" height="9" fill="#3860AC"/>
<rect x="125" y="140" width="9" height="9" fill="#3860AC"/>
<rect x="125" y="150" width="9" height="9" fill="#3860AC"/>
<rect x="125" y="160" width="9" height="9" fill="#3860AC"/>
<rect x="135" width="9" height="9" fill="#3860AC"/>
<rect x="135" y="10" width="9" height="9" fill="#3860AC"/>
<rect x="135" y="20" width="9" height="9" fill="#3860AC"/>
<rect x="135" y="30" width="9" height="9" fill="#3860AC"/>
<rect x="135" y="40" width="9" height="9" fill="#3860AC"/>
<rect x="135" y="50" width="9" height="9" fill="#3860AC"/>
<rect x="135" y="60" width="9" height="9" fill="#3860AC"/>
<rect x="135" y="70" width="9" height="9" fill="#3860AC"/>
<rect x="135" y="80" width="9" height="9" fill="#3860AC"/>
<rect x="135" y="90" width="9" height="9" fill="#3860AC"/>
<rect x="135" y="100" width="9" height="9" fill="#3860AC"/>
<rect x="135" y="110" width="9" height="9" fill="#3860AC"/>
<rect x="135" y="120" width="9" height="9" fill="#3860AC"/>
<rect x="135" y="130" width="9" height="9" fill="#3860AC"/>
<rect x="135" y="140" width="9" height="9" fill="#3860AC"/>
<rect x="135" y="150" width="9" height="9" fill="#3860AC"/>
<rect x="135" y="160" width="9" height="9" fill="#3860AC"/>
<rect x="145" width="9" height="9" fill="#3860AC"/>
<rect x="145" y="10" width="9" height="9" fill="#3860AC"/>
<rect x="145" y="20" width="9" height="9" fill="#3860AC"/>
<rect x="145" y="30" width="9" height="9" fill="#3860AC"/>
<rect x="145" y="40" width="9" height="9" fill="#3860AC"/>
<rect x="145" y="50" width="9" height="9" fill="#3860AC"/>
<rect x="145" y="60" width="9" height="9" fill="#3860AC"/>
<rect x="145" y="70" width="9" height="9" fill="#3860AC"/>
<rect x="145" y="80" width="9" height="9" fill="#3860AC"/>
<rect x="145" y="90" width="9" height="9" fill="#3860AC"/>
<rect x="145" y="100" width="9" height="9" fill="#3860AC"/>
<rect x="145" y="110" width="9" height="9" fill="#3860AC"/>
<rect x="145" y="120" width="9" height="9" fill="#3860AC"/>
<rect x="145" y="130" width="9" height="9" fill="#3860AC"/>
<rect x="145" y="140" width="9" height="9" fill="#3860AC"/>
<rect x="145" y="150" width="9" height="9" fill="#3860AC"/>
<rect x="145" y="160" width="9" height="9" fill="#3860AC"/>
<rect x="155" width="9" height="9" fill="#3860AC"/>
<rect x="155" y="10" width="9" height="9" fill="#3860AC"/>
<rect x="155" y="20" width="9" height="9" fill="#3860AC"/>
<rect x="155" y="30" width="9" height="9" fill="#3860AC"/>
<rect x="155" y="40" width="9" height="9" fill="#3860AC"/>
<rect x="155" y="50" width="9" height="9" fill="#3860AC"/>
<rect x="155" y="60" width="9" height="9" fill="#3860AC"/>
<rect x="155" y="70" width="9" height="9" fill="#3860AC"/>
<rect x="155" y="80" width="9" height="9" fill="#3860AC"/>
<rect x="155" y="90" width="9" height="9" fill="#3860AC"/>
<rect x="155" y="100" width="9" height="9" fill="#3860AC"/>
<rect x="155" y="110" width="9" height="9" fill="#3860AC"/>
<rect x="155" y="120" width="9" height="9" fill="#3860AC"/>
<rect x="155" y="130" width="9" height="9" fill="#3860AC"/>
<rect x="155" y="140" width="9" height="9" fill="#3860AC"/>
<rect x="155" y="150" width="9" height="9" fill="#3860AC"/>
<rect x="155" y="160" width="9" height="9" fill="#3860AC"/>
<rect x="165" width="9" height="9" fill="#3860AC"/>
<rect x="175" width="9" height="9" fill="#3860AC"/>
<rect x="185" width="9" height="9" fill="#3860AC"/>
<rect x="165" y="10" width="9" height="9" fill="#3860AC"/>
<rect x="175" y="10" width="9" height="9" fill="#3860AC"/>
<rect x="185" y="10" width="9" height="9" fill="#3860AC"/>
<rect x="165" y="20" width="9" height="9" fill="#3860AC"/>
<rect x="175" y="20" width="9" height="9" fill="#3860AC"/>
<rect x="185" y="20" width="9" height="9" fill="#3860AC"/>
<rect x="165" y="30" width="9" height="9" fill="#3860AC"/>
<rect x="175" y="30" width="9" height="9" fill="#3860AC"/>
<rect x="185" y="30" width="9" height="9" fill="#3860AC"/>
<rect x="165" y="40" width="9" height="9" fill="#3860AC"/>
<rect x="175" y="40" width="9" height="9" fill="#3860AC"/>
<rect x="185" y="40" width="9" height="9" fill="#3860AC"/>
<rect x="165" y="50" width="9" height="9" fill="#3860AC"/>
<rect x="175" y="50" width="9" height="9" fill="#3860AC"/>
<rect x="185" y="50" width="9" height="9" fill="#3860AC"/>
<rect x="165" y="60" width="9" height="9" fill="#3860AC"/>
<rect x="175" y="60" width="9" height="9" fill="#3860AC"/>
<rect x="185" y="60" width="9" height="9" fill="#3860AC"/>
<rect x="165" y="70" width="9" height="9" fill="#3860AC"/>
<rect x="175" y="70" width="9" height="9" fill="#3860AC"/>
<rect x="185" y="70" width="9" height="9" fill="#3860AC"/>
<rect x="165" y="80" width="9" height="9" fill="#3860AC"/>
<rect x="175" y="80" width="9" height="9" fill="#3860AC"/>
<rect x="185" y="80" width="9" height="9" fill="#3860AC"/>
<rect x="165" y="90" width="9" height="9" fill="#3860AC"/>
<rect x="175" y="90" width="9" height="9" fill="#3860AC"/>
<rect x="185" y="90" width="9" height="9" fill="#3860AC"/>
<rect x="165" y="100" width="9" height="9" fill="#3860AC"/>
<rect x="175" y="100" width="9" height="9" fill="#3860AC"/>
<rect x="185" y="100" width="9" height="9" fill="#3860AC"/>
<rect x="165" y="110" width="9" height="9" fill="#3860AC"/>
<rect x="175" y="110" width="9" height="9" fill="#3860AC"/>
<rect x="185" y="110" width="9" height="9" fill="#3860AC"/>
<rect x="165" y="120" width="9" height="9" fill="#3860AC"/>
<rect x="175" y="120" width="9" height="9" fill="#3860AC"/>
<rect x="185" y="120" width="9" height="9" fill="#3860AC"/>
<rect x="165" y="130" width="9" height="9" fill="#3860AC"/>
<rect x="175" y="130" width="9" height="9" fill="#3860AC"/>
<rect x="185" y="130" width="9" height="9" fill="#3860AC"/>
<rect x="165" y="140" width="9" height="9" fill="#3860AC"/>
<rect x="175" y="140" width="9" height="9" fill="#3860AC"/>
<rect x="185" y="140" width="9" height="9" fill="#3860AC"/>
<rect x="165" y="150" width="9" height="9" fill="#3860AC"/>
<rect x="175" y="150" width="9" height="9" fill="#3860AC"/>
<rect x="185" y="150" width="9" height="9" fill="#3860AC"/>
<rect x="165" y="160" width="9" height="9" fill="#3860AC"/>
<rect x="175" y="160" width="9" height="9" fill="#3860AC"/>
<rect x="185" y="160" width="9" height="9" fill="#3860AC"/>
<rect x="105" y="170" width="9" height="9" fill="#3860AC"/>
<rect x="105" y="180" width="9" height="9" fill="#3860AC"/>
<rect x="115" y="170" width="9" height="9" fill="#3860AC"/>
<rect x="115" y="180" width="9" height="9" fill="#3860AC"/>
<rect x="125" y="170" width="9" height="9" fill="#3860AC"/>
<rect x="125" y="180" width="9" height="9" fill="#3860AC"/>
<rect x="135" y="170" width="9" height="9" fill="#3860AC"/>
<rect x="135" y="180" width="9" height="9" fill="#3860AC"/>
<rect x="145" y="170" width="9" height="9" fill="#3860AC"/>
<rect x="145" y="180" width="9" height="9" fill="#3860AC"/>
<rect x="155" y="170" width="9" height="9" fill="#3860AC"/>
<rect x="155" y="180" width="9" height="9" fill="#3860AC"/>
<rect x="165" y="170" width="9" height="9" fill="#3860AC"/>
<rect x="175" y="170" width="9" height="9" fill="#3860AC"/>
<rect x="185" y="170" width="9" height="9" fill="#3860AC"/>
<rect x="165" y="180" width="9" height="9" fill="#3860AC"/>
<rect x="175" y="180" width="9" height="9" fill="#3860AC"/>
<rect x="185" y="180" width="9" height="9" fill="#3860AC"/>
<rect x="105" y="190" width="9" height="9" fill="#3860AC"/>
<rect x="115" y="190" width="9" height="9" fill="#3860AC"/>
<rect x="125" y="190" width="9" height="9" fill="#3860AC"/>
<rect x="135" y="190" width="9" height="9" fill="#3860AC"/>
<rect x="145" y="190" width="9" height="9" fill="#3860AC"/>
<rect x="155" y="190" width="9" height="9" fill="#3860AC"/>
<rect x="165" y="190" width="9" height="9" fill="#3860AC"/>
<rect x="175" y="190" width="9" height="9" fill="#3860AC"/>
<rect x="185" y="190" width="9" height="9" fill="#3860AC"/>
<rect x="105" y="200" width="9" height="9" fill="#3860AC"/>
<rect x="115" y="200" width="9" height="9" fill="#3860AC"/>
<rect x="125" y="200" width="9" height="9" fill="#3860AC"/>
<rect x="135" y="200" width="9" height="9" fill="#3860AC"/>
<rect x="145" y="200" width="9" height="9" fill="#3860AC"/>
<rect x="155" y="200" width="9" height="9" fill="#3860AC"/>
<rect x="165" y="200" width="9" height="9" fill="#3860AC"/>
<rect x="175" y="200" width="9" height="9" fill="#3860AC"/>
<rect x="185" y="200" width="9" height="9" fill="#3860AC"/>
<rect x="105" y="210" width="9" height="9" fill="#3860AC"/>
<rect x="115" y="210" width="9" height="9" fill="#3860AC"/>
<rect x="125" y="210" width="9" height="9" fill="#3860AC"/>
<rect x="135" y="210" width="9" height="9" fill="#3860AC"/>
<rect x="145" y="210" width="9" height="9" fill="#3860AC"/>
<rect x="155" y="210" width="9" height="9" fill="#3860AC"/>
<rect x="165" y="210" width="9" height="9" fill="#3860AC"/>
<rect x="175" y="210" width="9" height="9" fill="#3860AC"/>
<rect x="185" y="210" width="9" height="9" fill="#3860AC"/>
<rect x="105" y="220" width="9" height="9" fill="#3860AC"/>
<rect x="115" y="220" width="9" height="9" fill="#3860AC"/>
<rect x="125" y="220" width="9" height="9" fill="#3860AC"/>
<rect x="135" y="220" width="9" height="9" fill="#3860AC"/>
<rect x="145" y="220" width="9" height="9" fill="#3860AC"/>
<rect x="155" y="220" width="9" height="9" fill="#3860AC"/>
<rect x="165" y="220" width="9" height="9" fill="#3860AC"/>
<rect x="175" y="220" width="9" height="9" fill="#3860AC"/>
<rect x="185" y="220" width="9" height="9" fill="#3860AC"/>
<rect x="105" y="230" width="9" height="9" fill="#3860AC"/>
<rect x="115" y="230" width="9" height="9" fill="#3860AC"/>
<rect x="125" y="230" width="9" height="9" fill="#3860AC"/>
<rect x="135" y="230" width="9" height="9" fill="#3860AC"/>
<rect x="145" y="230" width="9" height="9" fill="#3860AC"/>
<rect x="155" y="230" width="9" height="9" fill="#3860AC"/>
<rect x="165" y="230" width="9" height="9" fill="#3860AC"/>
<rect x="175" y="230" width="9" height="9" fill="#3860AC"/>
<rect x="185" y="230" width="9" height="9" fill="#3860AC"/>
<rect x="105" y="240" width="9" height="9" fill="#3860AC"/>
<rect x="115" y="240" width="9" height="9" fill="#3860AC"/>
<rect x="125" y="240" width="9" height="9" fill="#3860AC"/>
<rect x="135" y="240" width="9" height="9" fill="#3860AC"/>
<rect x="145" y="240" width="9" height="9" fill="#3860AC"/>
<rect x="155" y="240" width="9" height="9" fill="#3860AC"/>
<rect x="165" y="240" width="9" height="9" fill="#3860AC"/>
<rect x="175" y="240" width="9" height="9" fill="#3860AC"/>
<rect x="185" y="240" width="9" height="9" fill="#3860AC"/>
<rect x="105" y="250" width="9" height="9" fill="#3860AC"/>
<rect x="115" y="250" width="9" height="9" fill="#3860AC"/>
<rect x="125" y="250" width="9" height="9" fill="#3860AC"/>
<rect x="135" y="250" width="9" height="9" fill="#3860AC"/>
<rect x="145" y="250" width="9" height="9" fill="#3860AC"/>
<rect x="155" y="250" width="9" height="9" fill="#3860AC"/>
<rect x="165" y="250" width="9" height="9" fill="#3860AC"/>
<rect x="175" y="250" width="9" height="9" fill="#3860AC"/>
<rect x="185" y="250" width="9" height="9" fill="#3860AC"/>
<rect x="105" y="260" width="9" height="9" fill="#3860AC"/>
<rect x="115" y="260" width="9" height="9" fill="#3860AC"/>
<rect x="125" y="260" width="9" height="9" fill="#3860AC"/>
<rect x="135" y="260" width="9" height="9" fill="#3860AC"/>
<rect x="145" y="260" width="9" height="9" fill="#3860AC"/>
<rect x="155" y="260" width="9" height="9" fill="#3860AC"/>
<rect x="165" y="260" width="9" height="9" fill="#3860AC"/>
<rect x="175" y="260" width="9" height="9" fill="#3860AC"/>
<rect x="185" y="260" width="9" height="9" fill="#3860AC"/>
<rect x="105" y="270" width="9" height="9" fill="#3860AC"/>
<rect x="115" y="270" width="9" height="9" fill="#3860AC"/>
<rect x="125" y="270" width="9" height="9" fill="#3860AC"/>
<rect x="135" y="270" width="9" height="9" fill="#3860AC"/>
<rect x="145" y="270" width="9" height="9" fill="#3860AC"/>
<rect x="155" y="270" width="9" height="9" fill="#3860AC"/>
<rect x="165" y="270" width="9" height="9" fill="#3860AC"/>
<rect x="175" y="270" width="9" height="9" fill="#3860AC"/>
<rect x="185" y="270" width="9" height="9" fill="#3860AC"/>
<rect x="210" width="9" height="9" fill="#2B519B"/>
<rect x="210" y="10" width="9" height="9" fill="#2B519B"/>
<rect x="210" y="20" width="9" height="9" fill="#2B519B"/>
<rect x="210" y="30" width="9" height="9" fill="#2B519B"/>
<rect x="210" y="40" width="9" height="9" fill="#2B519B"/>
<rect x="210" y="50" width="9" height="9" fill="#2B519B"/>
<rect x="210" y="60" width="9" height="9" fill="#2B519B"/>
<rect x="210" y="70" width="9" height="9" fill="#2B519B"/>
<rect x="210" y="80" width="9" height="9" fill="#2B519B"/>
<rect x="210" y="90" width="9" height="9" fill="#2B519B"/>
<rect x="210" y="100" width="9" height="9" fill="#2B519B"/>
<rect x="210" y="110" width="9" height="9" fill="#2B519B"/>
<rect x="210" y="120" width="9" height="9" fill="#2B519B"/>
<rect x="210" y="130" width="9" height="9" fill="#2B519B"/>
<rect x="210" y="140" width="9" height="9" fill="#2B519B"/>
<rect x="210" y="150" width="9" height="9" fill="#2B519B"/>
<rect x="210" y="160" width="9" height="9" fill="#2B519B"/>
<rect x="220" width="9" height="9" fill="#2B519B"/>
<rect x="220" y="10" width="9" height="9" fill="#2B519B"/>
<rect x="220" y="20" width="9" height="9" fill="#2B519B"/>
<rect x="220" y="30" width="9" height="9" fill="#2B519B"/>
<rect x="220" y="40" width="9" height="9" fill="#2B519B"/>
<rect x="220" y="50" width="9" height="9" fill="#2B519B"/>
<rect x="220" y="60" width="9" height="9" fill="#2B519B"/>
<rect x="220" y="70" width="9" height="9" fill="#2B519B"/>
<rect x="220" y="80" width="9" height="9" fill="#2B519B"/>
<rect x="220" y="90" width="9" height="9" fill="#2B519B"/>
<rect x="220" y="100" width="9" height="9" fill="#2B519B"/>
<rect x="220" y="110" width="9" height="9" fill="#2B519B"/>
<rect x="220" y="120" width="9" height="9" fill="#2B519B"/>
<rect x="220" y="130" width="9" height="9" fill="#2B519B"/>
<rect x="220" y="140" width="9" height="9" fill="#2B519B"/>
<rect x="220" y="150" width="9" height="9" fill="#2B519B"/>
<rect x="220" y="160" width="9" height="9" fill="#2B519B"/>
<rect x="230" width="9" height="9" fill="#2B519B"/>
<rect x="230" y="10" width="9" height="9" fill="#2B519B"/>
<rect x="230" y="20" width="9" height="9" fill="#2B519B"/>
<rect x="230" y="30" width="9" height="9" fill="#2B519B"/>
<rect x="230" y="40" width="9" height="9" fill="#2B519B"/>
<rect x="230" y="50" width="9" height="9" fill="#2B519B"/>
<rect x="230" y="60" width="9" height="9" fill="#2B519B"/>
<rect x="230" y="70" width="9" height="9" fill="#2B519B"/>
<rect x="230" y="80" width="9" height="9" fill="#2B519B"/>
<rect x="230" y="90" width="9" height="9" fill="#2B519B"/>
<rect x="230" y="100" width="9" height="9" fill="#2B519B"/>
<rect x="230" y="110" width="9" height="9" fill="#2B519B"/>
<rect x="230" y="120" width="9" height="9" fill="#2B519B"/>
<rect x="230" y="130" width="9" height="9" fill="#2B519B"/>
<rect x="230" y="140" width="9" height="9" fill="#2B519B"/>
<rect x="230" y="150" width="9" height="9" fill="#2B519B"/>
<rect x="230" y="160" width="9" height="9" fill="#2B519B"/>
<rect x="240" width="9" height="9" fill="#2B519B"/>
<rect x="240" y="10" width="9" height="9" fill="#2B519B"/>
<rect x="240" y="20" width="9" height="9" fill="#2B519B"/>
<rect x="240" y="30" width="9" height="9" fill="#2B519B"/>
<rect x="240" y="40" width="9" height="9" fill="#2B519B"/>
<rect x="240" y="50" width="9" height="9" fill="#2B519B"/>
<rect x="240" y="60" width="9" height="9" fill="#2B519B"/>
<rect x="240" y="70" width="9" height="9" fill="#2B519B"/>
<rect x="240" y="80" width="9" height="9" fill="#2B519B"/>
<rect x="240" y="90" width="9" height="9" fill="#2B519B"/>
<rect x="240" y="100" width="9" height="9" fill="#2B519B"/>
<rect x="240" y="110" width="9" height="9" fill="#2B519B"/>
<rect x="240" y="120" width="9" height="9" fill="#2B519B"/>
<rect x="240" y="130" width="9" height="9" fill="#2B519B"/>
<rect x="240" y="140" width="9" height="9" fill="#2B519B"/>
<rect x="240" y="150" width="9" height="9" fill="#2B519B"/>
<rect x="240" y="160" width="9" height="9" fill="#2B519B"/>
<rect x="250" width="9" height="9" fill="#2B519B"/>
<rect x="250" y="10" width="9" height="9" fill="#2B519B"/>
<rect x="250" y="20" width="9" height="9" fill="#2B519B"/>
<rect x="250" y="30" width="9" height="9" fill="#2B519B"/>
<rect x="250" y="40" width="9" height="9" fill="#2B519B"/>
<rect x="250" y="50" width="9" height="9" fill="#2B519B"/>
<rect x="250" y="60" width="9" height="9" fill="#2B519B"/>
<rect x="250" y="70" width="9" height="9" fill="#2B519B"/>
<rect x="250" y="80" width="9" height="9" fill="#2B519B"/>
<rect x="250" y="90" width="9" height="9" fill="#2B519B"/>
<rect x="250" y="100" width="9" height="9" fill="#2B519B"/>
<rect x="250" y="110" width="9" height="9" fill="#2B519B"/>
<rect x="250" y="120" width="9" height="9" fill="#2B519B"/>
<rect x="250" y="130" width="9" height="9" fill="#2B519B"/>
<rect x="250" y="140" width="9" height="9" fill="#2B519B"/>
<rect x="250" y="150" width="9" height="9" fill="#2B519B"/>
<rect x="250" y="160" width="9" height="9" fill="#2B519B"/>
<rect x="260" width="9" height="9" fill="#2B519B"/>
<rect x="260" y="10" width="9" height="9" fill="#2B519B"/>
<rect x="260" y="20" width="9" height="9" fill="#2B519B"/>
<rect x="260" y="30" width="9" height="9" fill="#2B519B"/>
<rect x="260" y="40" width="9" height="9" fill="#2B519B"/>
<rect x="260" y="50" width="9" height="9" fill="#2B519B"/>
<rect x="260" y="60" width="9" height="9" fill="#2B519B"/>
<rect x="260" y="70" width="9" height="9" fill="#2B519B"/>
<rect x="260" y="80" width="9" height="9" fill="#2B519B"/>
<rect x="260" y="90" width="9" height="9" fill="#2B519B"/>
<rect x="260" y="100" width="9" height="9" fill="#2B519B"/>
<rect x="260" y="110" width="9" height="9" fill="#2B519B"/>
<rect x="260" y="120" width="9" height="9" fill="#2B519B"/>
<rect x="260" y="130" width="9" height="9" fill="#2B519B"/>
<rect x="260" y="140" width="9" height="9" fill="#2B519B"/>
<rect x="260" y="150" width="9" height="9" fill="#2B519B"/>
<rect x="260" y="160" width="9" height="9" fill="#2B519B"/>
<rect x="270" width="9" height="9" fill="#2B519B"/>
<rect x="280" width="9" height="9" fill="#2B519B"/>
<rect x="290" width="9" height="9" fill="#2B519B"/>
<rect x="270" y="10" width="9" height="9" fill="#2B519B"/>
<rect x="280" y="10" width="9" height="9" fill="#2B519B"/>
<rect x="290" y="10" width="9" height="9" fill="#2B519B"/>
<rect x="270" y="20" width="9" height="9" fill="#2B519B"/>
<rect x="280" y="20" width="9" height="9" fill="#2B519B"/>
<rect x="290" y="20" width="9" height="9" fill="#2B519B"/>
<rect x="270" y="30" width="9" height="9" fill="#2B519B"/>
<rect x="280" y="30" width="9" height="9" fill="#2B519B"/>
<rect x="290" y="30" width="9" height="9" fill="#2B519B"/>
<rect x="270" y="40" width="9" height="9" fill="#2B519B"/>
<rect x="280" y="40" width="9" height="9" fill="#2B519B"/>
<rect x="290" y="40" width="9" height="9" fill="#2B519B"/>
<rect x="270" y="50" width="9" height="9" fill="#2B519B"/>
<rect x="280" y="50" width="9" height="9" fill="#2B519B"/>
<rect x="290" y="50" width="9" height="9" fill="#2B519B"/>
<rect x="270" y="60" width="9" height="9" fill="#2B519B"/>
<rect x="280" y="60" width="9" height="9" fill="#2B519B"/>
<rect x="290" y="60" width="9" height="9" fill="#2B519B"/>
<rect x="270" y="70" width="9" height="9" fill="#2B519B"/>
<rect x="280" y="70" width="9" height="9" fill="#2B519B"/>
<rect x="290" y="70" width="9" height="9" fill="#2B519B"/>
<rect x="270" y="80" width="9" height="9" fill="#2B519B"/>
<rect x="280" y="80" width="9" height="9" fill="#2B519B"/>
<rect x="290" y="80" width="9" height="9" fill="#2B519B"/>
<rect x="270" y="90" width="9" height="9" fill="#2B519B"/>
<rect x="280" y="90" width="9" height="9" fill="#2B519B"/>
<rect x="290" y="90" width="9" height="9" fill="#2B519B"/>
<rect x="270" y="100" width="9" height="9" fill="#2B519B"/>
<rect x="280" y="100" width="9" height="9" fill="#2B519B"/>
<rect x="290" y="100" width="9" height="9" fill="#2B519B"/>
<rect x="270" y="110" width="9" height="9" fill="#2B519B"/>
<rect x="280" y="110" width="9" height="9" fill="#2B519B"/>
<rect x="290" y="110" width="9" height="9" fill="#2B519B"/>
<rect x="270" y="120" width="9" height="9" fill="#2B519B"/>
<rect x="280" y="120" width="9" height="9" fill="#2B519B"/>
<rect x="290" y="120" width="9" height="9" fill="#2B519B"/>
<rect x="270" y="130" width="9" height="9" fill="#2B519B"/>
<rect x="280" y="130" width="9" height="9" fill="#2B519B"/>
<rect x="290" y="130" width="9" height="9" fill="#2B519B"/>
<rect x="270" y="140" width="9" height="9" fill="#2B519B"/>
<rect x="280" y="140" width="9" height="9" fill="#2B519B"/>
<rect x="290" y="140" width="9" height="9" fill="#2B519B"/>
<rect x="270" y="150" width="9" height="9" fill="#2B519B"/>
<rect x="280" y="150" width="9" height="9" fill="#2B519B"/>
<rect x="290" y="150" width="9" height="9" fill="#2B519B"/>
<rect x="270" y="160" width="9" height="9" fill="#2B519B"/>
<rect x="280" y="160" width="9" height="9" fill="#2B519B"/>
<rect x="290" y="160" width="9" height="9" fill="#2B519B"/>
<rect x="210" y="170" width="9" height="9" fill="#2B519B"/>
<rect x="210" y="180" width="9" height="9" fill="#2B519B"/>
<rect x="220" y="170" width="9" height="9" fill="#2B519B"/>
<rect x="220" y="180" width="9" height="9" fill="#2B519B"/>
<rect x="230" y="170" width="9" height="9" fill="#2B519B"/>
<rect x="230" y="180" width="9" height="9" fill="#2B519B"/>
<rect x="240" y="170" width="9" height="9" fill="#2B519B"/>
<rect x="240" y="180" width="9" height="9" fill="#2B519B"/>
<rect x="250" y="170" width="9" height="9" fill="#2B519B"/>
<rect x="250" y="180" width="9" height="9" fill="#2B519B"/>
<rect x="260" y="170" width="9" height="9" fill="#2B519B"/>
<rect x="260" y="180" width="9" height="9" fill="#2B519B"/>
<rect x="270" y="170" width="9" height="9" fill="#2B519B"/>
<rect x="280" y="170" width="9" height="9" fill="#2B519B"/>
<rect x="290" y="170" width="9" height="9" fill="#2B519B"/>
<rect x="270" y="180" width="9" height="9" fill="#2B519B"/>
<rect x="280" y="180" width="9" height="9" fill="#2B519B"/>
<rect x="290" y="180" width="9" height="9" fill="#2B519B"/>
<rect x="210" y="190" width="9" height="9" fill="#2B519B"/>
<rect x="220" y="190" width="9" height="9" fill="#2B519B"/>
<rect x="230" y="190" width="9" height="9" fill="#2B519B"/>
<rect x="240" y="190" width="9" height="9" fill="#2B519B"/>
<rect x="250" y="190" width="9" height="9" fill="#2B519B"/>
<rect x="260" y="190" width="9" height="9" fill="#2B519B"/>
<rect x="270" y="190" width="9" height="9" fill="#2B519B"/>
<rect x="280" y="190" width="9" height="9" fill="#2B519B"/>
<rect x="290" y="190" width="9" height="9" fill="#2B519B"/>
<rect x="210" y="200" width="9" height="9" fill="#2B519B"/>
<rect x="220" y="200" width="9" height="9" fill="#2B519B"/>
<rect x="230" y="200" width="9" height="9" fill="#2B519B"/>
<rect x="240" y="200" width="9" height="9" fill="#2B519B"/>
<rect x="250" y="200" width="9" height="9" fill="#2B519B"/>
<rect x="260" y="200" width="9" height="9" fill="#2B519B"/>
<rect x="270" y="200" width="9" height="9" fill="#2B519B"/>
<rect x="280" y="200" width="9" height="9" fill="#2B519B"/>
<rect x="290" y="200" width="9" height="9" fill="#2B519B"/>
<rect x="210" y="210" width="9" height="9" fill="#2B519B"/>
<rect x="220" y="210" width="9" height="9" fill="#2B519B"/>
<rect x="230" y="210" width="9" height="9" fill="#2B519B"/>
<rect x="240" y="210" width="9" height="9" fill="#2B519B"/>
<rect x="250" y="210" width="9" height="9" fill="#2B519B"/>
<rect x="260" y="210" width="9" height="9" fill="#2B519B"/>
<rect x="270" y="210" width="9" height="9" fill="#2B519B"/>
<rect x="280" y="210" width="9" height="9" fill="#2B519B"/>
<rect x="290" y="210" width="9" height="9" fill="#2B519B"/>
<rect x="210" y="220" width="9" height="9" fill="#2B519B"/>
<rect x="220" y="220" width="9" height="9" fill="#2B519B"/>
<rect x="230" y="220" width="9" height="9" fill="#2B519B"/>
<rect x="240" y="220" width="9" height="9" fill="#2B519B"/>
<rect x="250" y="220" width="9" height="9" fill="#2B519B"/>
<rect x="260" y="220" width="9" height="9" fill="#2B519B"/>
<rect x="270" y="220" width="9" height="9" fill="#2B519B"/>
<rect x="280" y="220" width="9" height="9" fill="#2B519B"/>
<rect x="290" y="220" width="9" height="9" fill="#2B519B"/>
<rect x="210" y="230" width="9" height="9" fill="#2B519B"/>
<rect x="220" y="230" width="9" height="9" fill="#2B519B"/>
<rect x="230" y="230" width="9" height="9" fill="#2B519B"/>
<rect x="240" y="230" width="9" height="9" fill="#2B519B"/>
<rect x="250" y="230" width="9" height="9" fill="#2B519B"/>
<rect x="260" y="230" width="9" height="9" fill="#2B519B"/>
<rect x="270" y="230" width="9" height="9" fill="#2B519B"/>
<rect x="280" y="230" width="9" height="9" fill="#2B519B"/>
<rect x="290" y="230" width="9" height="9" fill="#2B519B"/>
<rect x="210" y="240" width="9" height="9" fill="#2B519B"/>
<rect x="220" y="240" width="9" height="9" fill="#2B519B"/>
<rect x="230" y="240" width="9" height="9" fill="#2B519B"/>
<rect x="240" y="240" width="9" height="9" fill="#2B519B"/>
<rect x="250" y="240" width="9" height="9" fill="#2B519B"/>
<rect x="260" y="240" width="9" height="9" fill="#2B519B"/>
<rect x="270" y="240" width="9" height="9" fill="#2B519B"/>
<rect x="280" y="240" width="9" height="9" fill="#2B519B"/>
<rect x="290" y="240" width="9" height="9" fill="#2B519B"/>
<rect x="210" y="250" width="9" height="9" fill="#2B519B"/>
<rect x="220" y="250" width="9" height="9" fill="#2B519B"/>
<rect x="230" y="250" width="9" height="9" fill="#2B519B"/>
<rect x="240" y="250" width="9" height="9" fill="#2B519B"/>
<rect x="250" y="250" width="9" height="9" fill="#2B519B"/>
<rect x="260" y="250" width="9" height="9" fill="#2B519B"/>
<rect x="270" y="250" width="9" height="9" fill="#2B519B"/>
<rect x="280" y="250" width="9" height="9" fill="#2B519B"/>
<rect x="290" y="250" width="9" height="9" fill="#2B519B"/>
<rect x="210" y="260" width="9" height="9" fill="#2B519B"/>
<rect x="220" y="260" width="9" height="9" fill="#2B519B"/>
<rect x="230" y="260" width="9" height="9" fill="#2B519B"/>
<rect x="240" y="260" width="9" height="9" fill="#2B519B"/>
<rect x="250" y="260" width="9" height="9" fill="#2B519B"/>
<rect x="260" y="260" width="9" height="9" fill="#2B519B"/>
<rect x="270" y="260" width="9" height="9" fill="#2B519B"/>
<rect x="280" y="260" width="9" height="9" fill="#2B519B"/>
<rect x="290" y="260" width="9" height="9" fill="#2B519B"/>
<rect x="210" y="270" width="9" height="9" fill="#2B519B"/>
<rect x="220" y="270" width="9" height="9" fill="#2B519B"/>
<rect x="230" y="270" width="9" height="9" fill="#2B519B"/>
<rect x="240" y="270" width="9" height="9" fill="#2B519B"/>
<rect x="250" y="270" width="9" height="9" fill="#2B519B"/>
<rect x="260" y="270" width="9" height="9" fill="#2B519B"/>
<rect x="270" y="270" width="9" height="9" fill="#2B519B"/>
<rect x="280" y="270" width="9" height="9" fill="#2B519B"/>
<rect x="290" y="270" width="9" height="9" fill="#2B519B"/>
</svg>
