<svg width="60" height="60" viewBox="0 0 60 60" fill="none" xmlns="http://www.w3.org/2000/svg">
<path d="M30.0002 13C20.6205 13 13 20.6332 13 30.0003C13 39.3668 20.6332 47 30.0002 47C39.3668 47 47 39.3668 47 30.0003C47 20.6332 39.38 13 30.0002 13ZM38.5259 25.9249L28.2663 35.6018C28.0768 35.7878 27.8206 35.8904 27.5547 35.8868C27.2768 35.8894 27.01 35.7772 26.8174 35.576L21.4483 30.0649C21.0551 29.6566 21.0637 29.0072 21.4685 28.61C21.8728 28.2128 22.5217 28.2153 22.9235 28.6155L27.581 33.4024L37.1028 24.424C37.5172 24.0308 38.1716 24.0485 38.5648 24.4629C38.958 24.8773 38.9403 25.5317 38.5259 25.9249Z" fill="url(#paint0_linear_727_17925)"/>
<path d="M55.6966 36.5311L60 30.0069L55.6966 23.4822C55.5705 23.2885 55.5083 23.0597 55.5194 22.8283L55.9551 15.0101L48.9968 11.4825C48.7909 11.3788 48.6239 11.2117 48.5201 11.0058L45.0066 4.0453L37.1903 4.48106C36.9589 4.49223 36.7301 4.43051 36.5365 4.30388L30 0L23.4768 4.30388C23.2832 4.43051 23.0544 4.49223 22.8236 4.48106L15.0066 4.0453L11.4799 11.0058C11.3761 11.2117 11.2091 11.3788 11.0032 11.4825L4.04436 14.9963L4.48003 22.815C4.4912 23.0459 4.42949 23.2747 4.30342 23.4689L0 30.0069L4.30342 36.5311C4.42949 36.7253 4.4912 36.9536 4.48003 37.185L4.04436 45.0032L11.0032 48.5175C11.2091 48.6212 11.3761 48.7883 11.4799 48.9942L14.9934 55.9547L22.8097 55.5184H22.864C23.0762 55.5211 23.2842 55.5823 23.4635 55.6956L29.9862 60L36.5094 55.6956C36.703 55.5695 36.9318 55.5078 37.1626 55.5184L44.9795 55.9547L48.493 48.9942C48.5967 48.7883 48.7638 48.6212 48.9696 48.5175L55.928 45.0032L55.4923 37.185C55.504 36.953 55.5742 36.728 55.6966 36.5311ZM30 50.0839C18.9287 50.0839 9.92712 41.0803 9.92712 30.0069C9.92712 18.933 18.9287 9.92941 30 9.92941C41.0713 9.92941 50.0723 18.933 50.0723 30.0069C50.0723 41.0803 41.0713 50.0839 30 50.0839Z" fill="url(#paint1_linear_727_17925)"/>
<defs>
<linearGradient id="paint0_linear_727_17925" x1="1.49918" y1="58.4887" x2="58.5023" y2="58.4887" gradientUnits="userSpaceOnUse">
<stop offset="0.236684" stop-color="#4584CC"/>
<stop offset="1" stop-color="#2B519B"/>
</linearGradient>
<linearGradient id="paint1_linear_727_17925" x1="4.85222" y1="55.137" x2="55.1491" y2="55.137" gradientUnits="userSpaceOnUse">
<stop offset="0.236684" stop-color="#4584CC"/>
<stop offset="1" stop-color="#2B519B"/>
</linearGradient>
</defs>
</svg>
