<svg width="60" height="60" viewBox="0 0 60 60" fill="none" xmlns="http://www.w3.org/2000/svg">
<path d="M59.8657 8.23397C59.5945 7.57654 58.9525 7.14904 58.2418 7.14904H52.8513V1.75854C52.8514 1.04791 52.4239 0.40596 51.7665 0.134671C51.109 -0.140016 50.3536 0.0145542 49.8507 0.515765L42.8195 7.66408C42.4898 7.99373 42.3044 8.43998 42.3044 8.90686V15.2101L26.9992 30.5154C26.3126 31.202 26.3126 32.3145 26.9992 33.0011C27.6858 33.6877 28.7983 33.6877 29.4849 33.0011L44.7901 17.696H51.0934C51.5603 17.696 52.0067 17.5106 52.3362 17.181L59.4846 10.1497C59.9876 9.64678 60.1387 8.8915 59.8657 8.23397Z" fill="url(#paint0_linear_517_3873)"/>
<path d="M53.8877 20.3972C53.0564 20.9201 52.0987 21.2115 51.0934 21.2115H46.2458L45.115 22.3424C46.6778 25.1317 47.5779 28.3402 47.5779 31.7583C47.5779 42.42 38.9038 51.094 28.242 51.094C17.5802 51.094 8.90622 42.4199 8.90622 31.7583C8.90622 21.0967 17.5803 12.4226 28.2421 12.4226C31.6604 12.4226 34.8688 13.3227 37.6581 14.8855L38.789 13.7547V8.90697C38.789 7.90174 39.0804 6.94408 39.6033 6.11275C36.0492 4.53342 32.2262 3.63354 28.2421 3.63354C12.7343 3.63354 0 16.2504 0 31.7582C0 47.2659 12.7342 60 28.242 60C43.7498 60 56.3669 47.2658 56.3669 31.7582C56.3669 27.7743 55.467 23.9511 53.8877 20.3972Z" fill="url(#paint1_linear_517_3873)"/>
<path d="M42.477 24.9803L35.2255 32.2317C34.9774 35.8899 31.9631 38.7893 28.2421 38.7893C24.3588 38.7893 21.2109 35.6413 21.2109 31.7582C21.2109 28.0369 24.1105 25.0229 27.7686 24.7749L35.0201 17.5234C32.9578 16.5366 30.6771 15.9381 28.2421 15.9381C19.5184 15.9381 12.4219 23.0345 12.4219 31.7582C12.4219 40.4818 19.5184 47.5782 28.2421 47.5782C36.9659 47.5782 44.0624 40.4818 44.0624 31.7582C44.0624 29.3233 43.4639 27.0426 42.477 24.9803Z" fill="url(#paint2_linear_517_3873)"/>
<defs>
<linearGradient id="paint0_linear_517_3873" x1="4.85222" y1="55.137" x2="55.1491" y2="55.137" gradientUnits="userSpaceOnUse">
<stop offset="0.236684" stop-color="#4584CC"/>
<stop offset="1" stop-color="#2B519B"/>
</linearGradient>
<linearGradient id="paint1_linear_517_3873" x1="4.85222" y1="55.137" x2="55.1491" y2="55.137" gradientUnits="userSpaceOnUse">
<stop offset="0.236684" stop-color="#4584CC"/>
<stop offset="1" stop-color="#2B519B"/>
</linearGradient>
<linearGradient id="paint2_linear_517_3873" x1="4.85222" y1="55.137" x2="55.1491" y2="55.137" gradientUnits="userSpaceOnUse">
<stop offset="0.236684" stop-color="#4584CC"/>
<stop offset="1" stop-color="#2B519B"/>
</linearGradient>
</defs>
</svg>
