<svg width="56" height="56" viewBox="0 0 56 56" fill="none" xmlns="http://www.w3.org/2000/svg">
<path d="M33.6338 19.7027L41.3477 15.8683C37.9447 12.1337 33.0836 9.95312 28 9.95312C23.5991 9.95312 19.5648 11.541 16.4293 14.1682C18.0003 13.5973 19.6718 13.2344 21.4375 13.2344C26.3814 13.2344 30.9025 15.6813 33.6338 19.7027Z" fill="url(#paint0_linear_523_3840)"/>
<path d="M26.3594 28C26.3594 28.8694 27.0161 29.5772 27.9345 29.6158C28.4121 29.6358 28.8972 29.4628 29.2272 29.0895L35.9547 22.2146L27.3287 26.502C26.7279 26.7855 26.3594 27.3688 26.3594 28Z" fill="url(#paint1_linear_523_3840)"/>
<path d="M28 0C12.6208 0 0 12.6208 0 28C0 43.3792 12.6208 56 28 56C43.3792 56 56 43.3792 56 28C56 12.6208 43.3792 0 28 0ZM49.3281 28C49.3281 39.76 39.76 49.3281 28 49.3281C16.24 49.3281 6.67188 39.76 6.67188 28C6.67188 16.24 16.24 6.67188 28 6.67188C34.7852 6.67188 41.2308 9.9563 45.241 15.4582L46.0597 16.5797L31.6273 31.3246C30.7494 32.3179 29.4067 32.9219 28 32.9219C25.345 32.9219 23.0781 30.7778 23.0781 28C23.0781 26.1063 24.1836 24.3599 25.8964 23.5492L30.6643 21.1792C28.5187 18.2707 25.1289 16.5156 21.4375 16.5156C15.6674 16.5156 10.9236 20.8086 10.1189 26.3594H13.2344V29.6406H10.0268C10.3659 33.3861 11.8966 36.7667 14.1776 39.5024L16.3986 37.2815L18.7185 39.6014L16.4983 41.8216C19.228 44.0969 22.624 45.5472 26.3593 45.8904V42.7656H29.6405V45.8903C33.3758 45.5471 36.7718 44.0968 39.5014 41.8215L37.2812 39.6013L39.6012 37.2813L41.8222 39.5023C44.1033 36.7666 45.6339 33.3861 45.9729 29.6405H42.7656V26.3593H49.3281V28Z" fill="url(#paint2_linear_523_3840)"/>
<defs>
<linearGradient id="paint0_linear_523_3840" x1="4.52874" y1="51.4612" x2="51.4725" y2="51.4612" gradientUnits="userSpaceOnUse">
<stop offset="0.236684" stop-color="#4584CC"/>
<stop offset="1" stop-color="#2B519B"/>
</linearGradient>
<linearGradient id="paint1_linear_523_3840" x1="4.52874" y1="51.4612" x2="51.4725" y2="51.4612" gradientUnits="userSpaceOnUse">
<stop offset="0.236684" stop-color="#4584CC"/>
<stop offset="1" stop-color="#2B519B"/>
</linearGradient>
<linearGradient id="paint2_linear_523_3840" x1="4.52874" y1="51.4612" x2="51.4725" y2="51.4612" gradientUnits="userSpaceOnUse">
<stop offset="0.236684" stop-color="#4584CC"/>
<stop offset="1" stop-color="#2B519B"/>
</linearGradient>
</defs>
</svg>
