<svg width="60" height="58" viewBox="0 0 60 58" fill="none" xmlns="http://www.w3.org/2000/svg">
<path d="M20.9375 0C18.1761 0 15.9375 2.23858 15.9375 5V25C15.9375 27.7614 18.1761 30 20.9375 30H41.6593C42.8038 30 43.9125 30.3989 44.7947 31.128L48.7707 34.4142C50.3962 35.7576 52.8516 34.6015 52.8516 32.4928C52.8516 31.1161 53.9676 30 55.3443 30H56.4258C58.3998 30 60 28.3998 60 26.4258V5C60 2.23858 57.7614 0 55 0H20.9375ZM38.7891 22.9688C38.7891 23.9396 38.0021 24.7266 37.0312 24.7266C36.0604 24.7266 35.2734 23.9396 35.2734 22.9688C35.2734 21.9979 36.0604 21.2109 37.0312 21.2109C38.0021 21.2109 38.7891 21.9979 38.7891 22.9688ZM39.4839 17.0906C38.6825 17.5129 38.0547 18.4946 37.1488 18.4946H37.0312C36.0604 18.4946 35.2432 17.6877 35.5462 16.7654C35.9426 15.5585 36.752 14.5561 37.847 13.9792C38.4283 13.6734 38.7891 13.0769 38.7891 12.4219C38.7891 11.4505 38.0026 10.6641 37.0312 10.6641C36.6811 10.6641 36.355 10.7663 36.081 10.9425C35.2646 11.4677 34.4864 12.4219 33.5156 12.4219C32.5448 12.4219 31.7291 11.6133 32.0463 10.6958C32.7604 8.6301 34.7213 7.14844 37.0312 7.14844C39.9458 7.14844 42.3047 9.50729 42.3047 12.4219C42.3047 14.3861 41.2244 16.1755 39.4839 17.0906Z" fill="url(#paint0_linear_523_3845)"/>
<path d="M43.5516 34.6617C42.6554 33.9209 41.529 33.5156 40.3662 33.5156H17.4219C14.6605 33.5156 12.4219 31.2774 12.4219 28.516C12.4219 27.7521 12.4219 26.9713 12.4219 26.2104C12.4219 23.449 10.1833 21.2109 7.42188 21.2109H5C2.23858 21.2109 0 23.4495 0 26.2109V49.2773C0 51.2513 1.60023 52.8516 3.57422 52.8516H4.78073C6.08838 52.8516 7.14844 53.9116 7.14844 55.2193C7.14844 57.1787 9.39258 58.2901 10.9511 57.1026L15.1878 53.8745C16.0587 53.2109 17.1233 52.8516 18.2181 52.8516H40.8203C43.5817 52.8516 45.8203 50.613 45.8203 47.8516V38.891C45.8203 37.4001 45.155 35.9869 44.0058 35.0371L43.5516 34.6617ZM33.5156 45.8203C33.5156 46.7911 32.7286 47.5781 31.7578 47.5781H14.1797C13.2089 47.5781 12.4219 46.7911 12.4219 45.8203C12.4219 44.8495 13.2089 44.0625 14.1797 44.0625H31.7578C32.7286 44.0625 33.5156 44.8495 33.5156 45.8203ZM33.5156 38.7891C33.5156 39.7599 32.7286 40.5469 31.7578 40.5469H14.1797C13.2089 40.5469 12.4219 39.7599 12.4219 38.7891C12.4219 37.8182 13.2089 37.0312 14.1797 37.0312H31.7578C32.7286 37.0312 33.5156 37.8182 33.5156 38.7891Z" fill="url(#paint1_linear_523_3845)"/>
<defs>
<linearGradient id="paint0_linear_523_3845" x1="4.85222" y1="55.137" x2="55.1491" y2="55.137" gradientUnits="userSpaceOnUse">
<stop offset="0.236684" stop-color="#4584CC"/>
<stop offset="1" stop-color="#2B519B"/>
</linearGradient>
<linearGradient id="paint1_linear_523_3845" x1="4.85222" y1="55.137" x2="55.1491" y2="55.137" gradientUnits="userSpaceOnUse">
<stop offset="0.236684" stop-color="#4584CC"/>
<stop offset="1" stop-color="#2B519B"/>
</linearGradient>
</defs>
</svg>
