<svg width="58" height="58" viewBox="0 0 58 58" fill="none" xmlns="http://www.w3.org/2000/svg">
<path d="M57.5621 47.275C58.1523 46.6958 57.8249 45.6922 57.0067 45.5725C55.4541 45.3454 53.4447 45.0514 52.4353 44.9038C52.1091 44.8561 51.8276 44.6508 51.6825 44.3548C50.96 42.8812 49.0832 39.0528 48.7455 38.3641C48.7455 38.3641 48.7455 38.3641 48.7455 38.3641C48.7455 38.3642 48.7455 38.3642 48.7455 38.3642L48.7454 38.3642C48.7454 38.3643 48.7454 38.3643 48.7453 38.3643C48.4087 39.051 46.5319 42.8794 45.8086 44.3548C45.6635 44.6508 45.3838 44.8559 45.0577 44.9036C44.147 45.0368 42.4173 45.2898 40.9459 45.5051C40.2938 45.6004 40.1344 44.5764 40.6047 44.1148C41.0067 43.7204 40.55 43.2666 39.9928 43.1851C37.8055 42.8651 34.8044 42.4261 33.3354 42.2113C33.0091 42.1636 32.7294 41.9593 32.5843 41.6632C31.8408 40.1465 30.719 37.8582 29.8966 36.1806C29.5307 35.4342 28.4676 35.4346 28.1017 36.181C27.1624 38.0972 26.0075 40.453 25.4139 41.6637C25.2688 41.9598 24.9888 42.1637 24.6626 42.2114C22.7943 42.4847 19.8599 42.9139 18.0064 43.185C17.4492 43.2665 17.1154 43.8414 17.5173 44.2358C17.9876 44.6973 17.7049 45.6002 17.053 45.5048C15.5824 45.2897 13.8537 45.0368 12.9425 44.9035C12.6162 44.8558 12.3365 44.6508 12.1914 44.3547C11.4693 42.8819 9.59406 39.0566 9.25508 38.3649C9.25482 38.3644 9.25416 38.3646 9.25393 38.3651L9.25333 38.3663C8.91679 39.0529 7.04082 42.8794 6.31762 44.3546C6.17244 44.6508 5.89094 44.8562 5.5646 44.9039C4.55596 45.0513 2.5459 45.3453 0.992661 45.5725C0.174569 45.6922 -0.152729 46.6955 0.437398 47.2746C1.56352 48.3796 3.02392 49.8127 3.7541 50.5292C3.9879 50.7586 4.09447 51.0879 4.03946 51.4108C3.86766 52.4192 3.52359 54.4388 3.2577 55.9995C3.11837 56.8173 3.97729 57.4387 4.71052 57.0506C6.41824 56.1467 8.73641 54.9197 9.25321 54.6462L9.25381 54.6458C9.25418 54.6456 9.25455 54.6455 9.25494 54.6457C9.76953 54.9181 12.0893 56.146 13.7983 57.0505C14.5315 57.4386 15.3905 56.8172 15.2512 55.9993C14.9853 54.4391 14.6413 52.4198 14.4693 51.4106C14.4143 51.0877 14.5197 50.7598 14.7534 50.5304C15.6143 49.6855 17.4966 47.8385 18.6434 46.7133C19.0324 46.3316 19.6542 46.3328 20.0431 46.7144C20.9909 47.6445 21.8814 48.5184 22.4512 49.0776C22.685 49.307 22.7912 49.6348 22.7362 49.9577C22.4517 51.6279 22.0216 54.1527 21.707 55.9993C21.5676 56.8171 22.4268 57.4383 23.1601 57.0502C25.037 56.0569 27.3444 54.8356 28.5329 54.2067C28.8254 54.0518 29.1732 54.0521 29.4658 54.2069C30.9532 54.9941 33.1951 56.1807 34.8387 57.0505C35.5719 57.4386 36.4305 56.8168 36.2912 55.999C35.9316 53.8887 35.4888 51.2892 35.2618 49.9575C35.2068 49.6345 35.3134 49.3068 35.5473 49.0774C36.2219 48.4153 37.0893 47.5641 37.956 46.7137C38.3449 46.332 38.9667 46.331 39.3556 46.7126C40.5017 47.8372 42.3842 49.6845 43.2462 50.5304C43.4799 50.7598 43.5853 51.0878 43.5303 51.4107C43.3585 52.4191 43.0144 54.4387 42.7485 55.9995C42.6092 56.8173 43.4681 57.4387 44.2014 57.0506C45.9093 56.1466 48.2284 54.9191 48.7451 54.6456C48.7451 54.6456 48.7451 54.6456 48.7451 54.6456H48.7452C48.7452 54.6456 48.7452 54.6456 48.7452 54.6455C48.7452 54.6455 48.7453 54.6455 48.7453 54.6455C49.2589 54.9174 51.5797 56.1457 53.2891 57.0505C54.0224 57.4386 54.8814 56.8172 54.742 55.9993C54.4762 54.4392 54.1322 52.42 53.9603 51.4107C53.9053 51.0878 54.0119 50.7586 54.2458 50.5292C54.9753 49.8133 56.4356 48.3804 57.5621 47.275Z" fill="url(#paint0_linear_523_3852)"/>
<path d="M13.4418 28.9143C13.4418 26.2126 14.1253 23.6689 15.3268 21.4482C15.548 21.0392 15.4434 20.5196 15.0403 20.2876C14.4832 19.9669 14.3352 19.1674 14.6817 18.6259C15.2221 17.7813 15.536 16.7768 15.536 15.6996C15.536 12.7103 13.1202 10.2782 10.1508 10.2782C7.18143 10.2782 4.76548 12.7103 4.76548 15.6996C4.76548 16.7067 5.03984 17.6502 5.51708 18.4589C5.88957 19.0901 5.72051 20.0059 5.09285 20.3843C2.21143 22.1216 0.277747 25.2941 0.277747 28.9145V29.7216C0.277747 30.2739 0.725462 30.7216 1.27775 30.7216H12.4418C12.994 30.7216 13.4418 30.2739 13.4418 29.7216V28.9143Z" fill="url(#paint1_linear_523_3852)"/>
<path d="M44.5567 28.9143V29.7215C44.5567 30.2738 45.0044 30.7215 45.5567 30.7215H56.7207C57.273 30.7215 57.7207 30.2738 57.7207 29.7215V28.9143C57.7207 25.2941 55.7871 22.1215 52.9056 20.3842C52.278 20.0058 52.1089 19.0899 52.4814 18.4587C52.9586 17.6501 53.233 16.7066 53.233 15.6995C53.233 12.7101 50.8171 10.2781 47.8477 10.2781C44.8781 10.2781 42.4624 12.7103 42.4624 15.6995C42.4624 16.7768 42.7763 17.7813 43.3168 18.6259C43.6632 19.1674 43.5147 19.9672 42.9576 20.2879C42.5545 20.5199 42.4504 21.0391 42.6717 21.4481C43.8731 23.6688 44.5567 26.2127 44.5567 28.9143Z" fill="url(#paint2_linear_523_3852)"/>
<path d="M40.9657 28.9148C40.9657 28.9145 40.9659 28.9143 40.9661 28.9143C40.9663 28.9143 40.9665 28.9142 40.9665 28.9139C40.9664 24.5586 38.6703 20.7438 35.2305 18.6277C34.4946 18.1751 34.4201 16.9549 35.0708 16.3866C37.0315 14.674 38.2739 12.1494 38.2739 9.33692C38.2739 4.18872 34.1132 0 28.9992 0C23.8852 0 19.7246 4.18872 19.7246 9.33692C19.7246 12.1494 20.967 14.674 22.9276 16.3866C23.5783 16.9549 23.5038 18.1751 22.7679 18.6277C19.328 20.7438 17.0319 24.5589 17.0319 28.9143V29.7215C17.0319 30.2738 17.4797 30.7215 18.0319 30.7215H40.0621C40.5611 30.7215 40.9657 30.3169 40.9657 29.8179V28.9148Z" fill="url(#paint3_linear_523_3852)"/>
<defs>
<linearGradient id="paint0_linear_523_3852" x1="3.85222" y1="53.2991" x2="54.1491" y2="53.2991" gradientUnits="userSpaceOnUse">
<stop offset="0.236684" stop-color="#4584CC"/>
<stop offset="1" stop-color="#2B519B"/>
</linearGradient>
<linearGradient id="paint1_linear_523_3852" x1="3.85222" y1="53.2991" x2="54.1491" y2="53.2991" gradientUnits="userSpaceOnUse">
<stop offset="0.236684" stop-color="#4584CC"/>
<stop offset="1" stop-color="#2B519B"/>
</linearGradient>
<linearGradient id="paint2_linear_523_3852" x1="3.85222" y1="53.2991" x2="54.1491" y2="53.2991" gradientUnits="userSpaceOnUse">
<stop offset="0.236684" stop-color="#4584CC"/>
<stop offset="1" stop-color="#2B519B"/>
</linearGradient>
<linearGradient id="paint3_linear_523_3852" x1="3.85222" y1="53.2991" x2="54.1491" y2="53.2991" gradientUnits="userSpaceOnUse">
<stop offset="0.236684" stop-color="#4584CC"/>
<stop offset="1" stop-color="#2B519B"/>
</linearGradient>
</defs>
</svg>
