<svg width="1748" height="810" viewBox="0 0 1748 810" fill="none" xmlns="http://www.w3.org/2000/svg">
<path d="M651.114 465.185L652.496 469.408L648.272 470.79L646.89 466.567L651.114 465.185Z" fill="#3860AC" fill-opacity="0.2"/>
<path d="M647.558 468.83C647.913 469.896 649.158 470.607 650.402 470.251C651.469 469.896 652.18 468.652 651.825 467.408C651.469 466.341 650.225 465.631 648.98 465.986C647.914 466.341 647.202 467.586 647.558 468.83Z" fill="#3860AC" fill-opacity="0.2"/>
<path d="M800.888 468.791L801.827 471.663L798.954 472.602L798.015 469.731L800.888 468.791Z" fill="#3860AC" fill-opacity="0.2"/>
<path d="M798.494 471.14C798.672 472.029 799.561 472.384 800.45 472.206C801.339 472.029 801.694 471.14 801.516 470.251C801.339 469.363 800.45 469.007 799.561 469.363C798.672 469.54 798.316 470.429 798.494 471.14Z" fill="#3860AC" fill-opacity="0.2"/>
<path d="M823.376 560.269L825.755 567.531L818.49 569.909L816.111 562.647L823.376 560.269Z" fill="#3860AC" fill-opacity="0.2"/>
<path d="M817.161 566.397C817.872 568.352 820.006 569.418 821.961 568.885C823.917 568.174 824.983 566.042 824.45 564.087C823.739 562.132 821.606 561.065 819.65 561.599C817.694 562.132 816.628 564.264 817.161 566.397Z" fill="#3860AC" fill-opacity="0.2"/>
<path d="M26.6102 772.579L28.8239 779.335L22.0662 781.548L19.8524 774.792L26.6102 772.579Z" fill="#3860AC" fill-opacity="0.2"/>
<path d="M21.0575 778.237C21.5908 780.014 23.7242 781.081 25.5021 780.548C27.2799 780.014 28.3464 777.882 27.8131 776.105C27.2798 774.327 25.1465 773.261 23.3687 773.794C21.4131 774.505 20.3463 776.46 21.0575 778.237Z" fill="#3860AC" fill-opacity="0.2"/>
<path d="M124.382 731.681L126.319 737.592L120.406 739.529L118.469 733.618L124.382 731.681Z" fill="#3860AC" fill-opacity="0.2"/>
<path d="M119.548 736.651C120.082 738.251 121.859 739.139 123.459 738.606C125.059 738.073 125.948 736.296 125.415 734.696C124.882 733.097 123.104 732.208 121.504 732.741C119.904 733.274 119.015 734.874 119.548 736.651Z" fill="#3860AC" fill-opacity="0.2"/>
<path d="M169.681 737.579L172.558 746.362L163.772 749.238L160.895 740.455L169.681 737.579Z" fill="#3860AC" fill-opacity="0.2"/>
<path d="M162.393 744.826C163.105 747.314 165.771 748.558 168.26 747.847C170.749 747.137 171.994 744.471 171.282 741.983C170.571 739.495 167.905 738.251 165.416 738.961C162.927 739.85 161.505 742.338 162.393 744.826Z" fill="#3860AC" fill-opacity="0.2"/>
<path d="M244.326 737.174L247.091 745.619L238.643 748.383L235.877 739.938L244.326 737.174Z" fill="#3860AC" fill-opacity="0.2"/>
<path d="M237.239 744.293C237.95 746.603 240.617 747.847 242.928 747.137C245.239 746.426 246.484 743.76 245.773 741.45C245.062 739.139 242.395 737.895 240.084 738.606C237.773 739.317 236.528 741.805 237.239 744.293Z" fill="#3860AC" fill-opacity="0.2"/>
<path d="M247.298 749.613L249.677 756.875L242.413 759.253L240.034 751.991L247.298 749.613Z" fill="#3860AC" fill-opacity="0.2"/>
<path d="M241.15 755.489C241.862 757.444 243.995 758.51 245.951 757.977C247.906 757.266 248.973 755.134 248.44 753.179C247.906 751.224 245.595 750.158 243.639 750.691C241.684 751.402 240.439 753.534 241.15 755.489Z" fill="#3860AC" fill-opacity="0.2"/>
<path d="M298.793 758.164L301.227 765.595L293.794 768.028L291.359 760.597L298.793 758.164Z" fill="#3860AC" fill-opacity="0.2"/>
<path d="M292.529 764.197C293.24 766.33 295.374 767.396 297.507 766.685C299.641 765.975 300.707 763.842 299.996 761.709C299.285 759.577 297.151 758.51 295.018 759.221C292.885 759.932 291.818 762.065 292.529 764.197Z" fill="#3860AC" fill-opacity="0.2"/>
<path d="M305.083 802.059L305.912 804.593L303.378 805.422L302.548 802.889L305.083 802.059Z" fill="#3860AC" fill-opacity="0.2"/>
<path d="M302.84 804.184C303.018 804.895 303.729 805.25 304.441 805.073C305.152 804.895 305.507 804.184 305.329 803.473C305.152 802.762 304.441 802.407 303.729 802.585C303.018 802.762 302.663 803.473 302.84 804.184Z" fill="#3860AC" fill-opacity="0.2"/>
<path d="M376.445 804.619L377.773 808.673L373.718 810L372.39 805.946L376.445 804.619Z" fill="#3860AC" fill-opacity="0.2"/>
<path d="M372.886 808.094C373.242 809.16 374.486 809.871 375.553 809.516C376.62 809.16 377.331 807.916 376.975 806.85C376.62 805.784 375.375 805.073 374.309 805.428C373.064 805.606 372.531 806.85 372.886 808.094Z" fill="#3860AC" fill-opacity="0.2"/>
<path d="M410.558 645.4L411.885 649.453L407.831 650.78L406.503 646.727L410.558 645.4Z" fill="#3860AC" fill-opacity="0.2"/>
<path d="M407.198 648.681C407.554 649.747 408.798 650.458 409.865 650.102C410.931 649.747 411.642 648.503 411.287 647.437C410.931 646.37 409.687 645.659 408.62 646.015C407.376 646.548 406.842 647.614 407.198 648.681Z" fill="#3860AC" fill-opacity="0.2"/>
<path d="M421.8 609.797L423.128 613.85L419.073 615.178L417.745 611.124L421.8 609.797Z" fill="#3860AC" fill-opacity="0.2"/>
<path d="M418.398 612.959C418.754 614.025 419.998 614.736 421.065 614.381C422.132 614.025 422.843 612.781 422.487 611.715C422.132 610.649 420.887 609.938 419.82 610.293C418.754 610.649 418.043 611.893 418.398 612.959Z" fill="#3860AC" fill-opacity="0.2"/>
<path d="M491.68 762.365L493.449 767.769L488.043 769.539L486.273 764.134L491.68 762.365Z" fill="#3860AC" fill-opacity="0.2"/>
<path d="M487.022 766.863C487.555 768.285 489.155 769.174 490.577 768.641C492 768.107 492.888 766.508 492.355 765.086C491.822 763.664 490.222 762.776 488.799 763.309C487.377 763.664 486.666 765.442 487.022 766.863Z" fill="#3860AC" fill-opacity="0.2"/>
<path d="M518.757 766.178L521.358 774.116L513.417 776.716L510.816 768.779L518.757 766.178Z" fill="#3860AC" fill-opacity="0.2"/>
<path d="M512.089 772.728C512.8 774.861 515.111 776.105 517.422 775.394C519.556 774.683 520.8 772.373 520.089 770.062C519.378 767.93 517.067 766.686 514.755 767.396C512.622 768.107 511.378 770.595 512.089 772.728Z" fill="#3860AC" fill-opacity="0.2"/>
<path d="M579.892 717.75L581.829 723.661L575.916 725.597L573.979 719.687L579.892 717.75Z" fill="#3860AC" fill-opacity="0.2"/>
<path d="M575.023 722.611C575.557 724.211 577.334 725.099 578.934 724.566C580.534 724.033 581.423 722.256 580.89 720.656C580.357 719.057 578.579 718.168 576.979 718.702C575.379 719.235 574.49 721.012 575.023 722.611Z" fill="#3860AC" fill-opacity="0.2"/>
<path d="M618.99 696.077L621.536 703.846L613.764 706.39L611.218 698.622L618.99 696.077Z" fill="#3860AC" fill-opacity="0.2"/>
<path d="M612.535 702.529C613.246 704.662 615.557 705.906 617.691 705.195C619.824 704.484 621.069 702.174 620.357 700.041C619.646 697.909 617.335 696.664 615.202 697.375C613.068 698.086 611.824 700.397 612.535 702.529Z" fill="#3860AC" fill-opacity="0.2"/>
<path d="M622.978 668.027L624.637 673.093L619.569 674.753L617.909 669.686L622.978 668.027Z" fill="#3860AC" fill-opacity="0.2"/>
<path d="M618.58 672.139C619.113 673.561 620.535 674.272 621.957 673.917C623.38 673.383 624.091 671.962 623.735 670.54C623.38 669.118 621.78 668.407 620.357 668.763C618.935 669.296 618.224 670.718 618.58 672.139Z" fill="#3860AC" fill-opacity="0.2"/>
<path d="M678.792 670.42L681.004 677.177L674.245 679.388L672.033 672.632L678.792 670.42Z" fill="#3860AC" fill-opacity="0.2"/>
<path d="M673.336 676.049C673.87 677.826 676.003 678.893 677.781 678.359C679.558 677.826 680.625 675.694 680.092 673.917C679.558 672.139 677.425 671.073 675.647 671.606C673.692 672.317 672.625 674.272 673.336 676.049Z" fill="#3860AC" fill-opacity="0.2"/>
<path d="M750.507 786.294L753.328 794.908L744.711 797.728L741.89 789.114L750.507 786.294Z" fill="#3860AC" fill-opacity="0.2"/>
<path d="M139.815 68.9633C140.526 71.2736 143.193 72.6954 145.504 71.8068C147.815 71.0959 149.06 68.6078 148.349 66.1198C147.637 63.8095 144.971 62.3877 142.66 63.2763C140.349 64.1649 139.104 66.6529 139.815 68.9633Z" fill="#3860AC" fill-opacity="0.2"/>
<path d="M762.697 745.556L765.299 753.494L757.359 756.095L754.757 748.157L762.697 745.556Z" fill="#3860AC" fill-opacity="0.2"/>
<path d="M756.004 752.113C756.716 754.245 759.027 755.489 761.338 754.779C763.471 754.068 764.716 751.757 764.005 749.447C763.293 747.314 760.982 746.07 758.671 746.781C756.538 747.492 755.293 749.98 756.004 752.113Z" fill="#3860AC" fill-opacity="0.2"/>
<path d="M785.408 642.707L787.954 650.475L780.183 653.021L777.636 645.252L785.408 642.707Z" fill="#3860AC" fill-opacity="0.2"/>
<path d="M778.938 649.036C779.649 651.169 781.96 652.413 784.094 651.702C786.227 650.991 787.472 648.681 786.76 646.548C786.049 644.415 783.738 643.171 781.605 643.882C779.294 644.593 778.227 646.903 778.938 649.036Z" fill="#3860AC" fill-opacity="0.2"/>
<path d="M893.38 703.058L895.871 710.658L888.268 713.148L885.778 705.548L893.38 703.058Z" fill="#3860AC" fill-opacity="0.2"/>
<path d="M887.029 709.282C887.74 711.415 890.051 712.481 892.007 711.771C894.14 711.06 895.207 708.749 894.496 706.794C893.785 704.662 891.474 703.596 889.518 704.306C887.562 705.017 886.318 707.15 887.029 709.282Z" fill="#3860AC" fill-opacity="0.2"/>
<path d="M897.452 605.318L898.614 608.864L895.066 610.026L893.904 606.479L897.452 605.318Z" fill="#3860AC" fill-opacity="0.2"/>
<path d="M894.496 608.161C894.851 609.049 895.918 609.583 896.807 609.405C897.696 609.049 898.229 607.983 898.051 607.094C897.696 606.206 896.629 605.673 895.74 605.85C894.851 606.206 894.318 607.272 894.496 608.161Z" fill="#3860AC" fill-opacity="0.2"/>
<path d="M920.024 533.511L921.406 537.734L917.182 539.116L915.8 534.893L920.024 533.511Z" fill="#3860AC" fill-opacity="0.2"/>
<path d="M916.541 537.073C916.896 538.317 918.141 538.851 919.385 538.495C920.63 538.14 921.163 536.896 920.807 535.652C920.452 534.408 919.207 533.875 917.963 534.23C916.719 534.585 916.185 536.007 916.541 537.073Z" fill="#3860AC" fill-opacity="0.2"/>
<path d="M974.95 592.308L977.052 598.727L970.631 600.828L968.53 594.409L974.95 592.308Z" fill="#3860AC" fill-opacity="0.2"/>
<path d="M969.697 597.498C970.231 599.275 972.186 600.163 973.964 599.63C975.742 599.097 976.631 597.142 976.097 595.365C975.564 593.588 973.608 592.699 971.831 593.232C970.053 593.943 969.164 595.898 969.697 597.498Z" fill="#3860AC" fill-opacity="0.2"/>
<path d="M1006.38 607.976L1008.98 615.914L1001.04 618.514L998.439 610.575L1006.38 607.976Z" fill="#3860AC" fill-opacity="0.2"/>
<path d="M999.742 614.559C1000.45 616.691 1002.76 617.935 1005.08 617.224C1007.21 616.513 1008.45 614.203 1007.74 611.893C1007.03 609.76 1004.72 608.516 1002.41 609.227C1000.28 609.938 999.031 612.426 999.742 614.559Z" fill="#3860AC" fill-opacity="0.2"/>
<path d="M1109.81 601.904L1111.58 607.309L1106.17 609.078L1104.4 603.673L1109.81 601.904Z" fill="#3860AC" fill-opacity="0.2"/>
<path d="M1105.52 606.384C1106.06 607.805 1107.66 608.694 1109.08 608.161C1110.5 607.628 1111.39 606.028 1110.86 604.606C1110.32 603.185 1108.72 602.296 1107.3 602.829C1105.7 603.362 1104.99 604.962 1105.52 606.384Z" fill="#3860AC" fill-opacity="0.2"/>
<path d="M1169.15 493.625L1170.81 498.692L1165.74 500.351L1164.08 495.285L1169.15 493.625Z" fill="#3860AC" fill-opacity="0.2"/>
<path d="M1164.72 497.798C1165.26 499.219 1166.68 499.93 1168.1 499.575C1169.52 499.042 1170.23 497.62 1169.88 496.198C1169.35 494.776 1167.92 494.066 1166.5 494.421C1165.08 494.954 1164.37 496.376 1164.72 497.798Z" fill="#3860AC" fill-opacity="0.2"/>
<path d="M1245.07 542.758L1245.9 545.291L1243.37 546.121L1242.54 543.587L1245.07 542.758Z" fill="#3860AC" fill-opacity="0.2"/>
<path d="M1242.95 544.893C1243.12 545.604 1244.01 545.959 1244.72 545.782C1245.44 545.604 1245.79 544.715 1245.61 544.004C1245.44 543.294 1244.55 542.938 1243.84 543.116C1242.95 543.471 1242.59 544.182 1242.95 544.893Z" fill="#3860AC" fill-opacity="0.2"/>
<path d="M1244.12 517.429L1246.27 524.016L1239.68 526.172L1237.53 519.585L1244.12 517.429Z" fill="#3860AC" fill-opacity="0.2"/>
<path d="M1238.68 522.856C1239.21 524.633 1241.17 525.699 1243.12 524.989C1244.9 524.455 1245.97 522.501 1245.26 520.546C1244.72 518.768 1242.77 517.702 1240.81 518.413C1239.04 519.124 1238.15 521.079 1238.68 522.856Z" fill="#3860AC" fill-opacity="0.2"/>
<path d="M1290.07 485.011L1290.84 487.375L1288.48 488.15L1287.7 485.785L1290.07 485.011Z" fill="#3860AC" fill-opacity="0.2"/>
<path d="M1288.1 486.957C1288.28 487.668 1288.99 488.023 1289.7 487.668C1290.41 487.49 1290.77 486.779 1290.41 486.068C1290.24 485.357 1289.53 485.002 1288.81 485.357C1288.28 485.535 1287.93 486.246 1288.1 486.957Z" fill="#3860AC" fill-opacity="0.2"/>
<path d="M1329.17 343.153L1330.16 346.193L1327.12 347.189L1326.13 344.149L1329.17 343.153Z" fill="#3860AC" fill-opacity="0.2"/>
<path d="M1326.5 345.671C1326.86 346.559 1327.75 346.915 1328.46 346.737C1329.35 346.382 1329.7 345.493 1329.53 344.782C1329.17 343.894 1328.28 343.538 1327.57 343.716C1326.68 343.894 1326.33 344.782 1326.5 345.671Z" fill="#3860AC" fill-opacity="0.2"/>
<path d="M1404.27 332.56L1405.93 337.627L1400.86 339.286L1399.2 334.219L1404.27 332.56Z" fill="#3860AC" fill-opacity="0.2"/>
<path d="M1495.57 360.599C1496.11 362.021 1497.53 362.732 1498.95 362.376C1500.37 361.843 1501.08 360.421 1500.55 359C1500.02 357.578 1498.6 356.867 1497.17 357.222C1495.93 357.756 1495.04 359.177 1495.57 360.599Z" fill="#3860AC" fill-opacity="0.2"/>
<path d="M1476.11 483.867L1478.1 489.947L1472.02 491.939L1470.03 485.859L1476.11 483.867Z" fill="#3860AC" fill-opacity="0.2"/>
<path d="M1532.37 442.527C1532.91 444.127 1534.69 445.193 1536.46 444.482C1538.24 443.771 1539.13 442.172 1538.42 440.395C1537.89 438.795 1536.11 437.729 1534.33 438.44C1532.73 439.151 1531.66 440.928 1532.37 442.527Z" fill="#3860AC" fill-opacity="0.2"/>
<path d="M1567.04 386.975L1569.09 393.224L1562.83 395.269L1560.79 389.02L1567.04 386.975Z" fill="#3860AC" fill-opacity="0.2"/>
<path d="M1657.53 427.954C1658.07 429.732 1660.02 430.62 1661.62 430.087C1663.4 429.554 1664.29 427.599 1663.75 425.999C1663.22 424.222 1661.27 423.334 1659.67 423.867C1657.89 424.4 1657 426.177 1657.53 427.954Z" fill="#3860AC" fill-opacity="0.2"/>
<path d="M1612.63 462.989L1613.46 465.523L1610.93 466.352L1610.1 463.818L1612.63 462.989Z" fill="#3860AC" fill-opacity="0.2"/>
<path d="M1610.42 465.098C1610.6 465.808 1611.49 466.164 1612.02 465.986C1612.73 465.808 1613.09 464.92 1612.91 464.387C1612.73 463.676 1611.84 463.32 1611.31 463.498C1610.78 463.676 1610.24 464.387 1610.42 465.098Z" fill="#3860AC" fill-opacity="0.2"/>
<path d="M1631.41 518.998L1633.29 524.74L1627.54 526.621L1625.66 520.879L1631.41 518.998Z" fill="#3860AC" fill-opacity="0.2"/>
<path d="M1742.16 528.898C1742.69 530.498 1744.47 531.386 1745.89 530.853C1747.49 530.32 1748.38 528.543 1747.84 527.121C1747.31 525.522 1745.53 524.633 1744.11 525.166C1742.69 525.699 1741.62 527.299 1742.16 528.898Z" fill="#3860AC" fill-opacity="0.2"/>
<path d="M4.73047 543.43L6.28052 548.159L1.55005 549.708L0 544.98L4.73047 543.43Z" fill="#3860AC" fill-opacity="0.2"/>
<path d="M386.042 244.727C386.397 245.971 387.82 246.682 389.064 246.326C390.309 245.971 391.02 244.549 390.664 243.305C390.309 242.061 388.886 241.35 387.642 241.706C386.397 242.061 385.686 243.483 386.042 244.727Z" fill="#3860AC" fill-opacity="0.2"/>
<path d="M38.6187 659.482L40.8309 666.238L34.0725 668.45L31.8601 661.694L38.6187 659.482Z" fill="#3860AC" fill-opacity="0.2"/>
<path d="M32.9689 665.208C33.5022 666.986 35.6355 668.052 37.4133 667.519C39.1912 666.986 40.2579 664.853 39.7246 663.076C39.1913 661.299 37.0579 660.232 35.28 660.765C33.5022 661.299 32.4355 663.253 32.9689 665.208Z" fill="#3860AC" fill-opacity="0.2"/>
<path d="M137.551 693.247L138.935 697.469L134.711 698.852L133.327 694.63L137.551 693.247Z" fill="#3860AC" fill-opacity="0.2"/>
<path d="M133.948 696.842C134.304 698.086 135.548 698.619 136.793 698.264C138.037 697.909 138.571 696.664 138.215 695.42C137.859 694.176 136.615 693.643 135.371 693.999C134.126 694.354 133.593 695.598 133.948 696.842Z" fill="#3860AC" fill-opacity="0.2"/>
<path d="M146.571 679.752L147.678 683.13L144.299 684.236L143.192 680.858L146.571 679.752Z" fill="#3860AC" fill-opacity="0.2"/>
<path d="M143.548 682.447C143.904 683.336 144.971 683.869 145.86 683.691C146.749 683.336 147.282 682.269 147.104 681.381C146.749 680.492 145.682 679.959 144.793 680.137C143.726 680.492 143.371 681.559 143.548 682.447Z" fill="#3860AC" fill-opacity="0.2"/>
<path d="M174.636 637.346L175.686 640.555L172.476 641.605L171.426 638.396L174.636 637.346Z" fill="#3860AC" fill-opacity="0.2"/>
<path d="M171.816 639.972C172.171 640.861 173.06 641.394 173.949 641.039C174.838 640.683 175.371 639.795 175.016 638.906C174.66 638.017 173.771 637.484 172.882 637.84C171.994 638.017 171.46 639.084 171.816 639.972Z" fill="#3860AC" fill-opacity="0.2"/>
<path d="M218.184 619.816L219.291 623.194L215.911 624.3L214.805 620.922L218.184 619.816Z" fill="#3860AC" fill-opacity="0.2"/>
<path d="M215.55 622.734C215.906 623.622 216.794 624.155 217.861 623.8C218.75 623.445 219.283 622.556 218.928 621.49C218.572 620.601 217.683 620.068 216.617 620.423C215.728 620.779 215.194 621.845 215.55 622.734Z" fill="#3860AC" fill-opacity="0.2"/>
<path d="M228.072 475.569L229.842 480.973L224.436 482.743L222.666 477.339L228.072 475.569Z" fill="#3860AC" fill-opacity="0.2"/>
<path d="M223.372 479.848C223.906 481.448 225.506 482.158 226.928 481.625C228.528 481.092 229.239 479.493 228.706 478.071C228.172 476.471 226.572 475.761 224.972 476.294C223.728 476.827 222.839 478.426 223.372 479.848Z" fill="#3860AC" fill-opacity="0.2"/>
<path d="M255.267 512.435L256.815 517.164L252.084 518.711L250.536 513.982L255.267 512.435Z" fill="#3860AC" fill-opacity="0.2"/>
<path d="M251.284 516.28C251.639 517.524 253.062 518.235 254.484 517.88C255.728 517.524 256.44 516.103 256.084 514.681C255.728 513.437 254.306 512.726 252.884 513.081C251.462 513.615 250.75 515.036 251.284 516.28Z" fill="#3860AC" fill-opacity="0.2"/>
<path d="M365.662 529.644L366.825 533.19L363.277 534.353L362.114 530.807L365.662 529.644Z" fill="#3860AC" fill-opacity="0.2"/>
<path d="M362.575 532.63C362.93 533.697 363.997 534.23 364.886 533.875C365.953 533.519 366.486 532.453 366.13 531.564C365.775 530.498 364.708 529.965 363.819 530.32C362.93 530.498 362.397 531.564 362.575 532.63Z" fill="#3860AC" fill-opacity="0.2"/>
<path d="M476.788 585.079L477.84 588.288L474.63 589.339L473.578 586.131L476.788 585.079Z" fill="#3860AC" fill-opacity="0.2"/>
<path d="M474.221 587.723C474.577 588.612 475.466 589.145 476.355 588.789C477.244 588.434 477.777 587.545 477.421 586.657C477.066 585.768 476.177 585.235 475.288 585.591C474.399 585.946 473.866 586.835 474.221 587.723Z" fill="#3860AC" fill-opacity="0.2"/>
<path d="M467.836 437.92L469.386 442.649L464.656 444.199L463.106 439.47L467.836 437.92Z" fill="#3860AC" fill-opacity="0.2"/>
<path d="M463.91 441.816C464.266 443.06 465.688 443.771 467.11 443.416C468.354 443.06 469.066 441.639 468.71 440.217C468.354 438.973 466.932 438.262 465.51 438.617C464.266 439.151 463.554 440.572 463.91 441.816Z" fill="#3860AC" fill-opacity="0.2"/>
<path d="M557.445 441.726L558.938 446.286L554.376 447.779L552.883 443.218L557.445 441.726Z" fill="#3860AC" fill-opacity="0.2"/>
<path d="M553.512 445.371C553.867 446.615 555.29 447.326 556.534 446.97C557.779 446.615 558.49 445.193 558.134 443.949C557.778 442.705 556.356 441.994 555.112 442.35C553.689 442.883 553.156 444.127 553.512 445.371Z" fill="#3860AC" fill-opacity="0.2"/>
<path d="M561.498 379.465L563.988 387.065L556.385 389.554L553.896 381.954L561.498 379.465Z" fill="#3860AC" fill-opacity="0.2"/>
<path d="M554.934 385.835C555.645 387.968 557.956 389.034 559.912 388.323C562.045 387.612 563.112 385.302 562.401 383.347C561.69 381.214 559.379 380.148 557.423 380.859C555.467 381.392 554.401 383.702 554.934 385.835Z" fill="#3860AC" fill-opacity="0.2"/>
<path d="M585.383 380.568L587.54 387.155L580.95 389.311L578.793 382.724L585.383 380.568Z" fill="#3860AC" fill-opacity="0.2"/>
<path d="M579.823 386.191C580.357 387.968 582.312 389.034 584.268 388.501C586.046 387.968 587.112 386.013 586.579 384.058C586.046 382.281 584.09 381.214 582.135 381.748C580.179 382.281 579.29 384.236 579.823 386.191Z" fill="#3860AC" fill-opacity="0.2"/>
<path d="M681.047 404.128L682.762 409.364L677.525 411.079L675.81 405.843L681.047 404.128Z" fill="#3860AC" fill-opacity="0.2"/>
<path d="M676.714 408.405C677.247 409.827 678.67 410.538 680.092 410.183C681.514 409.649 682.225 408.228 681.87 406.806C681.336 405.384 679.914 404.673 678.492 405.029C677.07 405.562 676.358 406.984 676.714 408.405Z" fill="#3860AC" fill-opacity="0.2"/>
<path d="M720.366 537.285L722.967 545.223L715.026 547.823L712.425 539.885L720.366 537.285Z" fill="#3860AC" fill-opacity="0.2"/>
<path d="M713.693 543.827C714.404 545.959 716.715 547.203 718.848 546.492C720.982 545.782 722.226 543.471 721.515 541.339C720.804 539.206 718.493 537.962 716.359 538.673C714.226 539.206 712.981 541.694 713.693 543.827Z" fill="#3860AC" fill-opacity="0.2"/>
<path d="M780.497 527.754L783.317 536.368L774.7 539.188L771.88 530.574L780.497 527.754Z" fill="#3860AC" fill-opacity="0.2"/>
<path d="M773.427 534.941C774.138 537.251 776.805 538.673 779.116 537.784C781.427 537.073 782.849 534.408 781.96 532.097C781.249 529.787 778.583 528.365 776.271 529.254C773.96 529.965 772.716 532.63 773.427 534.941Z" fill="#3860AC" fill-opacity="0.2"/>
<path d="M775.074 390.522L777.065 396.602L770.983 398.593L768.992 392.512L775.074 390.522Z" fill="#3860AC" fill-opacity="0.2"/>
<path d="M769.871 395.61C770.405 397.209 772.182 398.275 773.96 397.565C775.56 397.031 776.627 395.254 775.916 393.477C775.383 391.878 773.605 390.811 771.827 391.522C770.405 392.055 769.338 393.832 769.871 395.61Z" fill="#3860AC" fill-opacity="0.2"/>
<path d="M783.466 358.937L784.682 362.652L780.965 363.868L779.749 360.152L783.466 358.937Z" fill="#3860AC" fill-opacity="0.2"/>
<path d="M780.36 361.843C780.716 362.909 781.783 363.443 782.849 363.087C783.916 362.732 784.449 361.665 784.094 360.599C783.738 359.533 782.672 359 781.605 359.355C780.538 359.71 780.005 360.777 780.36 361.843Z" fill="#3860AC" fill-opacity="0.2"/>
<path d="M812.124 486.815L814.005 492.557L808.261 494.438L806.38 488.696L812.124 486.815Z" fill="#3860AC" fill-opacity="0.2"/>
<path d="M807.205 491.4C807.739 492.999 809.516 493.888 810.939 493.355C812.539 492.822 813.428 491.044 812.894 489.623C812.361 488.023 810.583 487.135 809.161 487.668C807.561 488.201 806.672 489.8 807.205 491.4Z" fill="#3860AC" fill-opacity="0.2"/>
<path d="M908.879 487.481L910.318 491.872L905.925 493.31L904.486 488.919L908.879 487.481Z" fill="#3860AC" fill-opacity="0.2"/>
<path d="M905.163 491.222C905.518 492.466 906.941 493.177 908.185 492.644C909.429 492.288 910.141 490.867 909.607 489.623C909.252 488.379 907.829 487.668 906.585 488.201C905.341 488.556 904.629 489.978 905.163 491.222Z" fill="#3860AC" fill-opacity="0.2"/>
<path d="M979.333 372.024L981.822 379.624L974.219 382.112L971.73 374.512L979.333 372.024Z" fill="#3860AC" fill-opacity="0.2"/>
<path d="M973.075 378.371C973.786 380.504 976.097 381.57 978.053 380.859C980.186 380.148 981.253 377.838 980.542 375.883C979.831 373.75 977.52 372.684 975.564 373.395C973.431 374.106 972.364 376.416 973.075 378.371Z" fill="#3860AC" fill-opacity="0.2"/>
<path d="M1021.47 486.655L1024.12 494.761L1016.01 497.417L1013.36 489.31L1021.47 486.655Z" fill="#3860AC" fill-opacity="0.2"/>
<path d="M1014.68 493.355C1015.39 495.665 1017.88 496.909 1020.01 496.02C1022.32 495.31 1023.56 492.822 1022.68 490.689C1021.96 488.379 1019.48 487.135 1017.34 488.023C1015.03 488.556 1013.79 491.044 1014.68 493.355Z" fill="#3860AC" fill-opacity="0.2"/>
<path d="M1031.08 326.723L1033.62 334.492L1025.85 337.035L1023.3 329.266L1031.08 326.723Z" fill="#3860AC" fill-opacity="0.2"/>
<path d="M426.754 512.726C427.465 514.859 429.776 516.103 431.91 515.392C434.043 514.681 435.287 512.371 434.576 510.238C433.865 508.105 431.554 506.861 429.421 507.572C427.109 508.283 426.043 510.593 426.754 512.726Z" fill="#3860AC" fill-opacity="0.2"/>
<path d="M1125.82 415.829L1126.6 418.194L1124.23 418.968L1123.46 416.603L1125.82 415.829Z" fill="#3860AC" fill-opacity="0.2"/>
<path d="M1123.83 418.002C1124.01 418.713 1124.72 419.068 1125.43 418.713C1126.14 418.535 1126.5 417.824 1126.14 417.114C1125.97 416.403 1125.26 416.047 1124.54 416.403C1124.01 416.58 1123.66 417.291 1123.83 418.002Z" fill="#3860AC" fill-opacity="0.2"/>
<path d="M1172.37 393.102L1173.64 396.987L1169.75 398.259L1168.48 394.374L1172.37 393.102Z" fill="#3860AC" fill-opacity="0.2"/>
<path d="M1169.17 396.32C1169.52 397.387 1170.77 397.92 1171.83 397.565C1172.9 397.209 1173.43 395.965 1173.08 394.899C1172.72 393.832 1171.48 393.299 1170.41 393.655C1169.35 394.01 1168.81 395.254 1169.17 396.32Z" fill="#3860AC" fill-opacity="0.2"/>
<path d="M1256.11 459.109L1257.27 462.656L1253.73 463.816L1252.57 460.27L1256.11 459.109Z" fill="#3860AC" fill-opacity="0.2"/>
<path d="M1253.08 462.076C1253.44 463.143 1254.5 463.676 1255.39 463.32C1256.46 462.965 1256.99 461.899 1256.64 461.01C1256.28 459.944 1255.21 459.411 1254.32 459.766C1253.26 459.944 1252.72 461.01 1253.08 462.076Z" fill="#3860AC" fill-opacity="0.2"/>
<path d="M1281.58 425.072L1284.01 432.504L1276.58 434.937L1274.14 427.505L1281.58 425.072Z" fill="#3860AC" fill-opacity="0.2"/>
<path d="M1275.3 431.153C1276.01 433.286 1278.15 434.352 1280.28 433.641C1282.41 432.93 1283.48 430.798 1282.77 428.665C1282.06 426.533 1279.93 425.466 1277.79 426.177C1275.66 426.888 1274.59 429.198 1275.3 431.153Z" fill="#3860AC" fill-opacity="0.2"/>
<path d="M1362.9 492.151L1365.28 499.414L1358.02 501.792L1355.64 494.53L1362.9 492.151Z" fill="#3860AC" fill-opacity="0.2"/>
<path d="M1356.9 498.153C1357.62 500.108 1359.75 501.174 1361.7 500.641C1363.66 499.93 1364.73 497.798 1364.19 495.843C1363.48 493.888 1361.35 492.822 1359.39 493.355C1357.26 493.888 1356.19 496.021 1356.9 498.153Z" fill="#3860AC" fill-opacity="0.2"/>
<path d="M1426.55 520.781L1429.15 528.718L1421.21 531.319L1418.61 523.381L1426.55 520.781Z" fill="#3860AC" fill-opacity="0.2"/>
<path d="M1419.84 527.299C1420.55 529.432 1422.86 530.676 1425.17 529.965C1427.31 529.254 1428.55 526.944 1427.84 524.633C1427.13 522.323 1424.82 521.257 1422.51 521.967C1420.37 522.856 1419.13 525.166 1419.84 527.299Z" fill="#3860AC" fill-opacity="0.2"/>
<path d="M1439.65 511.516L1441.2 516.244L1436.46 517.794L1434.91 513.065L1439.65 511.516Z" fill="#3860AC" fill-opacity="0.2"/>
<path d="M1435.66 515.57C1436.02 516.814 1437.44 517.524 1438.86 517.169C1440.11 516.814 1440.82 515.392 1440.46 513.97C1440.11 512.726 1438.68 512.015 1437.26 512.371C1435.84 512.726 1435.13 514.148 1435.66 515.57Z" fill="#3860AC" fill-opacity="0.2"/>
<path d="M1505.84 490.379L1508.66 498.993L1500.04 501.813L1497.22 493.2L1505.84 490.379Z" fill="#3860AC" fill-opacity="0.2"/>
<path d="M1500.8 500.12C1498.52 498.966 1497.61 496.186 1498.76 493.909C1499.91 491.633 1502.7 490.722 1504.97 491.875C1507.25 493.029 1508.16 495.809 1507.01 498.086C1505.85 500.362 1503.07 501.273 1500.8 500.12Z" fill="#3860AC" fill-opacity="0.2"/>
<path d="M1559.36 389.537L1561.02 394.603L1555.95 396.263L1554.29 391.197L1559.36 389.537Z" fill="#3860AC" fill-opacity="0.2"/>
<path d="M1693.62 492.999C1694.16 494.421 1695.58 495.132 1697 494.776C1698.42 494.243 1699.13 492.822 1698.78 491.4C1698.24 489.978 1696.82 489.267 1695.4 489.623C1693.98 489.978 1693.09 491.578 1693.62 492.999Z" fill="#3860AC" fill-opacity="0.2"/>
<path d="M256.913 395.381L258.74 400.954L253.164 402.78L251.338 397.207L256.913 395.381Z" fill="#3860AC" fill-opacity="0.2"/>
<path d="M252.351 399.875C252.884 401.474 254.484 402.185 256.084 401.652C257.684 401.119 258.395 399.519 257.862 397.92C257.329 396.32 255.729 395.61 254.129 396.143C252.706 396.854 251.817 398.453 252.351 399.875Z" fill="#3860AC" fill-opacity="0.2"/>
<path d="M209.746 346.18L211.517 351.584L206.11 353.354L204.339 347.95L209.746 346.18Z" fill="#3860AC" fill-opacity="0.2"/>
<path d="M205.239 350.647C205.772 352.069 207.372 352.957 208.794 352.424C210.216 351.891 211.105 350.291 210.572 348.87C210.039 347.448 208.439 346.559 207.016 347.093C205.594 347.626 204.705 349.225 205.239 350.647Z" fill="#3860AC" fill-opacity="0.2"/>
<path d="M146.246 306.36L147.574 310.413L143.519 311.741L142.191 307.687L146.246 306.36Z" fill="#3860AC" fill-opacity="0.2"/>
<path d="M142.838 309.772C143.193 310.838 144.438 311.549 145.504 311.193C146.571 310.838 147.282 309.594 146.927 308.528C146.571 307.461 145.326 306.75 144.26 307.106C143.193 307.461 142.482 308.705 142.838 309.772Z" fill="#3860AC" fill-opacity="0.2"/>
<path d="M149.203 467.463L150.53 471.517L146.475 472.844L145.147 468.79L149.203 467.463Z" fill="#3860AC" fill-opacity="0.2"/>
<path d="M145.682 470.784C146.038 471.851 147.282 472.562 148.349 472.206C149.415 471.851 150.127 470.607 149.771 469.54C149.415 468.474 148.171 467.763 147.104 468.119C146.038 468.474 145.327 469.718 145.682 470.784Z" fill="#3860AC" fill-opacity="0.2"/>
<path d="M36.7581 375.807L39.4692 384.083L31.1908 386.793L28.4799 378.517L36.7581 375.807Z" fill="#3860AC" fill-opacity="0.2"/>
<path d="M29.7688 382.636C30.48 384.947 32.9689 386.191 35.28 385.48C37.5912 384.769 38.8357 382.281 38.1245 379.97C37.4133 377.66 34.9244 376.416 32.6133 377.127C30.3021 377.838 29.0576 380.326 29.7688 382.636Z" fill="#3860AC" fill-opacity="0.2"/>
<path d="M845.571 193.933L848.061 201.533L840.458 204.022L837.969 196.422L845.571 193.933Z" fill="#3860AC" fill-opacity="0.2"/>
<path d="M839.206 200.119C839.917 202.252 842.05 203.318 844.184 202.607C846.317 201.897 847.384 199.764 846.673 197.631C845.962 195.499 843.828 194.432 841.695 195.143C839.739 195.854 838.495 198.165 839.206 200.119Z" fill="#3860AC" fill-opacity="0.2"/>
<path d="M768.635 295.181L770.075 299.572L765.682 301.011L764.243 296.62L768.635 295.181Z" fill="#3860AC" fill-opacity="0.2"/>
<path d="M764.893 298.753C765.249 299.997 766.671 300.708 767.916 300.175C769.16 299.819 769.871 298.398 769.338 297.154C768.982 295.91 767.56 295.199 766.316 295.732C765.249 296.265 764.538 297.509 764.893 298.753Z" fill="#3860AC" fill-opacity="0.2"/>
<path d="M722.934 163.67L725.202 170.595L718.274 172.862L716.006 165.937L722.934 163.67Z" fill="#3860AC" fill-opacity="0.2"/>
<path d="M403.998 408.761C404.709 410.716 406.665 411.782 408.62 411.071C410.576 410.538 411.643 408.405 410.931 406.45C410.22 404.496 408.265 403.429 406.309 404.14C404.531 404.851 403.465 406.806 403.998 408.761Z" fill="#3860AC" fill-opacity="0.2"/>
<path d="M603.816 330.363L606.084 337.287L599.158 339.555L596.889 332.631L603.816 330.363Z" fill="#3860AC" fill-opacity="0.2"/>
<path d="M597.957 336.074C598.668 338.029 600.624 339.095 602.579 338.384C604.535 337.673 605.602 335.719 604.891 333.764C604.179 331.809 602.224 330.742 600.268 331.453C598.313 332.164 597.424 334.119 597.957 336.074Z" fill="#3860AC" fill-opacity="0.2"/>
<path d="M522.129 217.795L523.347 221.51L519.631 222.728L518.412 219.013L522.129 217.795Z" fill="#3860AC" fill-opacity="0.2"/>
<path d="M518.844 220.912C519.2 221.979 520.267 222.512 521.333 222.156C522.4 221.801 522.933 220.735 522.578 219.668C522.222 218.602 521.156 218.069 520.089 218.424C519.2 218.602 518.489 219.846 518.844 220.912Z" fill="#3860AC" fill-opacity="0.2"/>
<path d="M548.08 165.334L549.462 169.556L545.238 170.938L543.856 166.716L548.08 165.334Z" fill="#3860AC" fill-opacity="0.2"/>
<path d="M544.445 168.841C544.8 170.085 546.045 170.618 547.289 170.263C548.534 169.907 549.067 168.663 548.712 167.419C548.356 166.175 547.112 165.642 545.867 165.997C544.8 166.353 544.089 167.597 544.445 168.841Z" fill="#3860AC" fill-opacity="0.2"/>
<path d="M547.713 105.861L549.317 110.758L544.418 112.362L542.813 107.464L547.713 105.861Z" fill="#3860AC" fill-opacity="0.2"/>
<path d="M543.556 109.839C544.089 111.26 545.512 111.971 546.756 111.438C548.178 110.905 548.889 109.483 548.356 108.239C547.823 106.995 546.401 106.106 545.156 106.64C543.911 106.995 543.2 108.417 543.556 109.839Z" fill="#3860AC" fill-opacity="0.2"/>
<path d="M594.565 162.599L595.615 165.808L592.405 166.859L591.354 163.65L594.565 162.599Z" fill="#3860AC" fill-opacity="0.2"/>
<path d="M591.912 165.287C592.268 166.175 593.157 166.708 594.046 166.353C594.935 165.997 595.468 165.109 595.112 164.22C594.757 163.332 593.868 162.799 592.979 163.154C592.09 163.509 591.557 164.398 591.912 165.287Z" fill="#3860AC" fill-opacity="0.2"/>
<path d="M554.837 9.11366L557.16 16.2076L550.064 18.5297L547.741 11.4358L554.837 9.11366Z" fill="#3860AC" fill-opacity="0.2"/>
<path d="M548.712 14.9369C549.423 16.8918 551.556 17.9581 553.512 17.425C555.467 16.7141 556.534 14.5815 556.001 12.6266C555.29 10.6717 553.156 9.60535 551.201 10.1385C549.245 10.8494 548.178 12.982 548.712 14.9369Z" fill="#3860AC" fill-opacity="0.2"/>
<path d="M596.307 22.7789L598.907 30.7165L590.967 33.3159L588.367 25.3783L596.307 22.7789Z" fill="#3860AC" fill-opacity="0.2"/>
<path d="M629.069 176.127C629.78 178.26 632.091 179.504 634.224 178.793C636.358 178.082 637.602 175.772 636.891 173.639C636.18 171.507 633.869 170.263 631.735 170.974C629.602 171.685 628.358 173.995 629.069 176.127Z" fill="#3860AC" fill-opacity="0.2"/>
<path d="M693.837 150.121L695.389 154.85L690.659 156.4L689.107 151.672L693.837 150.121Z" fill="#3860AC" fill-opacity="0.2"/>
<path d="M690.048 153.913C690.403 155.157 691.825 155.868 693.07 155.512C694.314 155.157 695.026 153.735 694.67 152.491C694.314 151.247 692.892 150.536 691.648 150.891C690.225 151.247 689.514 152.669 690.048 153.913Z" fill="#3860AC" fill-opacity="0.2"/>
<path d="M767.198 71.1807L768.084 73.8826L765.382 74.7683L764.495 72.0664L767.198 71.1807Z" fill="#3860AC" fill-opacity="0.2"/>
<path d="M764.893 73.2285C765.071 73.9394 765.96 74.2948 766.671 74.1171C767.382 73.9394 767.738 73.0508 767.56 72.3399C767.382 71.6291 766.493 71.2736 765.782 71.4513C765.071 71.8068 764.716 72.5176 764.893 73.2285Z" fill="#3860AC" fill-opacity="0.2"/>
<path d="M796.248 0L797.965 5.23548L792.727 6.95107L791.011 1.71559L796.248 0Z" fill="#3860AC" fill-opacity="0.2"/>
<path d="M398.664 250.591C399.198 252.013 400.62 252.902 402.22 252.369C403.642 251.835 404.531 250.414 403.998 248.814C403.464 247.393 402.042 246.504 400.442 247.037C398.842 247.57 398.309 249.17 398.664 250.591Z" fill="#3860AC" fill-opacity="0.2"/>
<path d="M10.8348 114.02L13.1041 120.944L6.17725 123.213L3.9082 116.288L10.8348 114.02Z" fill="#3860AC" fill-opacity="0.2"/>
<path d="M400.62 146.982C401.331 148.937 403.287 150.003 405.242 149.292C407.198 148.581 408.265 146.626 407.553 144.671C406.842 142.716 404.887 141.65 402.931 142.361C400.976 143.072 399.909 145.027 400.62 146.982Z" fill="#3860AC" fill-opacity="0.2"/>
<path d="M91.1898 83.3163L93.7903 91.2539L85.8497 93.8533L83.2494 85.9156L91.1898 83.3163Z" fill="#3860AC" fill-opacity="0.2"/>
<path d="M84.703 89.9341C85.4142 92.0667 87.7252 93.3107 90.0364 92.5998C92.1698 91.889 93.4143 89.5786 92.7031 87.2683C91.9919 85.1357 89.6808 83.8916 87.3696 84.6025C85.0585 85.3134 83.9918 87.6237 84.703 89.9341Z" fill="#3860AC" fill-opacity="0.2"/>
<path d="M194.841 205.788L197.386 213.558L189.614 216.102L187.069 208.332L194.841 205.788Z" fill="#3860AC" fill-opacity="0.2"/>
<path d="M188.349 212.204C189.06 214.337 191.372 215.581 193.505 214.87C195.638 214.159 196.883 211.849 196.172 209.716C195.461 207.584 193.149 206.34 191.016 207.05C188.705 207.761 187.638 210.072 188.349 212.204Z" fill="#3860AC" fill-opacity="0.2"/>
</svg>
