<svg width="540" height="231" viewBox="0 0 540 231" fill="none" xmlns="http://www.w3.org/2000/svg">
<path d="M125.26 15.4729H90.4866L89.2701 17.5742H125.26V15.4729Z" fill="#4584CC"/>
<path d="M128.787 136.617V133.838H99.3319V136.617H57.3644L59.0153 133.838H24.9546L13.155 154.035H148.841V136.617H128.787ZM46.034 151.256H39.3609V149.277H46.034V151.256ZM127.484 147.905H120.811V143.945H127.484V147.905Z" fill="#4584CC"/>
<path d="M66.9222 112.253V114.232H70.7453L65.6362 122.776H31.4018L41.7938 104.976H46.034V102.997H42.9407L47.9629 94.4005H82.597L71.927 112.253H66.9222Z" fill="#4584CC"/>
<path d="M63.8289 125.815H29.6293L28.239 128.194H62.4039L63.8289 125.815Z" fill="#4584CC"/>
<path d="M164.586 156.865H27.2659L26.8141 157.612H164.586V156.865Z" fill="#4584CC"/>
<path d="M128.787 166.035H148.841V162.301H8.34138L6.15177 166.035H99.3319V184.651H128.787V166.035Z" fill="#4584CC"/>
<path d="M128.787 195.296H99.3319V207.244H128.787V195.296Z" fill="#4584CC"/>
<path d="M99.3319 66.3895V68.786H128.787V55.9179H70.4151L62.9079 68.786H97.9069L99.3319 66.3895Z" fill="#4584CC"/>
<path d="M128.787 0H103.033L96.3255 11.5135H128.787V0Z" fill="#4584CC"/>
<path d="M90.4518 81.272H55.6266L54.4623 83.2517H89.2701L90.4518 81.272Z" fill="#4584CC"/>
<path d="M128.787 190.295H99.3319V192.257H128.787V190.295Z" fill="#4584CC"/>
<path d="M86.8894 87.2111H52.151L49.7181 91.3615H84.4043L86.8894 87.2111Z" fill="#4584CC"/>
<path d="M88.3317 25.2152L74.8639 48.277H128.787V25.2152H88.3317ZM112.556 46.6098H106.075V43.2235H112.556V46.6098Z" fill="#4584CC"/>
<path d="M128.787 87.2111H99.3319V91.3789H128.787V87.2111Z" fill="#4584CC"/>
<path d="M128.787 215.926H99.3319V227.457H128.787V215.926Z" fill="#4584CC"/>
<path d="M128.787 94.4005H99.3319V122.776H128.787V94.4005Z" fill="#4584CC"/>
<path d="M128.787 81.272H99.3319V83.2517H128.787V81.272Z" fill="#4584CC"/>
<path d="M128.787 125.815H99.3319V128.194H128.787V125.815Z" fill="#4584CC"/>
<path d="M346.15 87.2111H315.999V91.3789H346.15V87.2111Z" fill="#4584CC"/>
<path d="M214.565 150.266V133.838H184.414V150.266C184.414 151.534 184.449 152.802 184.501 154.052H214.721C214.617 152.802 214.565 151.534 214.565 150.266Z" fill="#4584CC"/>
<path d="M214.565 87.2111H184.414V91.3789H214.565V87.2111Z" fill="#4584CC"/>
<path d="M230.709 156.865H200.419C200.436 157.108 200.454 157.369 200.471 157.612H230.796C230.761 157.369 230.743 157.108 230.709 156.865Z" fill="#4584CC"/>
<path d="M214.565 125.815H184.414V128.194H214.565V125.815Z" fill="#4584CC"/>
<path d="M229.423 45.0643C239.328 35.2005 251.267 30.286 265.204 30.286C279.245 30.286 291.218 35.2179 301.124 45.0643C302.184 46.1062 303.157 47.1829 304.095 48.277H339.546C335.88 39.9587 330.666 32.2657 323.924 25.2152H206.588C199.846 32.2657 194.632 39.9587 190.965 48.277H226.416C227.389 47.1829 228.38 46.1062 229.423 45.0643Z" fill="#4584CC"/>
<path d="M215.903 162.301H185.213C186.308 170.202 188.515 177.652 191.852 184.651H228.05C221.898 178.086 217.849 170.636 215.903 162.301Z" fill="#4584CC"/>
<path d="M346.15 125.815H315.999V128.194H346.15V125.815Z" fill="#4584CC"/>
<path d="M314.661 68.786H345.35C344.742 64.3577 343.769 60.0683 342.448 55.9179H309.552C311.881 59.9468 313.584 64.2361 314.661 68.786Z" fill="#4584CC"/>
<path d="M220.994 55.9179H188.098C186.795 60.0683 185.804 64.3577 185.196 68.786H215.885C216.963 64.2361 218.666 59.9468 220.994 55.9179Z" fill="#4584CC"/>
<path d="M346.15 81.272H315.999V83.2517H346.15V81.272Z" fill="#4584CC"/>
<path d="M310.143 17.5742C309.257 16.8448 308.37 16.1502 307.467 15.4729H211.975C211.072 16.1502 210.185 16.8622 209.299 17.5742H310.143Z" fill="#4584CC"/>
<path d="M302.497 184.651H338.695C342.014 177.652 344.221 170.202 345.333 162.301H314.644C312.715 170.636 308.666 178.086 302.497 184.651Z" fill="#4584CC"/>
<path d="M218.075 215.926C231.717 225.964 247.426 231 265.204 231C283.068 231 298.812 225.964 312.472 215.926H218.075ZM254.012 221.692H248.33V217.733H254.012V221.692Z" fill="#4584CC"/>
<path d="M331.257 157.612H361.581C361.599 157.369 361.616 157.108 361.634 156.865H331.344C331.309 157.108 331.292 157.369 331.257 157.612Z" fill="#4584CC"/>
<path d="M300.672 210.439H330.996C331.014 210.196 331.031 209.935 331.048 209.692H300.759C300.724 209.935 300.689 210.196 300.672 210.439Z" fill="#4584CC"/>
<path d="M214.565 81.272H184.414V83.2517H214.565V81.272Z" fill="#4584CC"/>
<path d="M346.15 94.4005H315.999V122.776H346.15V94.4005Z" fill="#4584CC"/>
<path d="M315.999 150.266C315.999 151.551 315.947 152.802 315.86 154.052H346.08C346.132 152.802 346.167 151.551 346.167 150.266V133.838H316.017V150.266H315.999Z" fill="#4584CC"/>
<path d="M234.184 190.295H194.858C195.24 190.954 195.623 191.614 196.04 192.257H236.843C235.939 191.649 235.053 190.989 234.184 190.295Z" fill="#4584CC"/>
<path d="M293.721 192.257H334.524C334.924 191.614 335.323 190.954 335.706 190.295H296.362C295.493 190.989 294.607 191.649 293.721 192.257Z" fill="#4584CC"/>
<path d="M184.414 94.4005V122.776H214.582V94.4005H184.414ZM203.113 105.966H196.439V102.007H203.113V105.966Z" fill="#4584CC"/>
<path d="M288.699 195.296C281.643 199.012 273.806 200.87 265.204 200.87C256.654 200.87 248.869 199.012 241.83 195.296H198.021C200.888 199.464 204.207 203.458 207.996 207.244H322.551C326.322 203.458 329.658 199.481 332.526 195.296H288.699ZM315.999 202.885H300.064V198.925H315.999V202.885Z" fill="#4584CC"/>
<path d="M265.204 0C249.668 0 235.713 3.83784 223.34 11.5135H307.189C294.798 3.83784 280.809 0 265.204 0Z" fill="#4584CC"/>
<path d="M381.583 166.035H474.746V184.651H504.202V166.035H524.256V162.301H383.756L381.583 166.035Z" fill="#4584CC"/>
<path d="M504.202 87.2111H474.746V91.3789H504.202V87.2111Z" fill="#4584CC"/>
<path d="M504.202 94.4005H474.746V122.776H504.202V94.4005Z" fill="#4584CC"/>
<path d="M402.246 157.612H540V156.865H402.68L402.246 157.612Z" fill="#4584CC"/>
<path d="M412.342 201.652H483.418V200.888H412.777L412.342 201.652Z" fill="#4584CC"/>
<path d="M44.9218 173.033H115.997V172.286H45.3736L44.9218 173.033Z" fill="#4584CC"/>
<path d="M83.1531 198.821H154.229V198.074H83.5876L83.1531 198.821Z" fill="#4584CC"/>
<path d="M164.881 168.483H235.957V167.736H165.316L164.881 168.483Z" fill="#4584CC"/>
<path d="M85.2732 103.552H124.148V102.788H85.5165L85.2732 103.552Z" fill="#4584CC"/>
<path d="M290.714 71.2866H329.589V70.5399H290.958L290.714 71.2866Z" fill="#4584CC"/>
<path d="M211.367 75.7844H250.241V75.0203H211.593L211.367 75.7844Z" fill="#4584CC"/>
<path d="M430.85 106.348H469.724V105.601H431.093L430.85 106.348Z" fill="#4584CC"/>
<path d="M409.006 62.7253H447.88V61.9786H409.232L409.006 62.7253Z" fill="#4584CC"/>
<path d="M474.746 136.617H432.796L434.447 133.838H400.369L388.569 154.035H524.256V136.617H504.202V133.838H474.746V136.617Z" fill="#4584CC"/>
<path d="M504.202 125.815H474.746V128.194H504.202V125.815Z" fill="#4584CC"/>
<path d="M438.322 68.786H473.321L474.746 66.3895V68.786H504.202V55.9179H445.829L438.322 68.786Z" fill="#4584CC"/>
<path d="M462.634 17.5742H498.641V15.4729H463.868L462.634 17.5742Z" fill="#4584CC"/>
<path d="M504.202 190.295H474.746V192.257H504.202V190.295Z" fill="#4584CC"/>
<path d="M504.202 81.272H474.746V83.2517H504.202V81.272Z" fill="#4584CC"/>
<path d="M463.729 25.2152L450.278 48.277H504.202V25.2152H463.729ZM463.729 42.442H460.357V38.4826H463.729V42.442ZM494.818 31.1543H488.058V27.1949H494.818V31.1543Z" fill="#4584CC"/>
<path d="M464.684 83.2517L465.866 81.272H431.041L429.876 83.2517H464.684Z" fill="#4584CC"/>
<path d="M504.202 195.296H474.746V207.244H504.202V195.296Z" fill="#4584CC"/>
<path d="M504.202 0H478.448L471.74 11.5135H504.202V0Z" fill="#4584CC"/>
<path d="M504.202 215.926H474.746V227.457H504.202V215.926Z" fill="#4584CC"/>
<path d="M425.15 91.3615H459.819L462.321 87.2111H427.565L425.15 91.3615Z" fill="#4584CC"/>
<path d="M406.816 122.776H441.05L458.011 94.4005H423.377L406.816 122.776Z" fill="#4584CC"/>
<path d="M403.653 128.194H437.818L439.243 125.815H405.043L403.653 128.194Z" fill="#4584CC"/>
<path d="M133.41 11.5135H100.948L98.6368 15.4729H133.41V11.5135Z" fill="#4584CC"/>
<path d="M317.65 15.4729C315.756 14.0489 313.81 12.7291 311.829 11.5135H227.98C225.999 12.7291 224.07 14.0489 222.176 15.4729H317.65Z" fill="#4584CC"/>
<path d="M508.824 15.4729V11.5135H476.362L474.051 15.4729H508.824Z" fill="#4584CC"/>
<path d="M96.6731 83.2517H61.8826L59.5713 87.2111H94.3097L96.6731 83.2517Z" fill="#4584CC"/>
<path d="M136.208 83.2517H106.752V87.2111H136.208V83.2517Z" fill="#4584CC"/>
<path d="M221.968 83.2517H191.817V87.2111H221.968V83.2517Z" fill="#4584CC"/>
<path d="M353.553 83.2517H323.402V87.2111H353.553V83.2517Z" fill="#4584CC"/>
<path d="M434.986 87.2111H469.724L472.087 83.2517H437.297L434.986 87.2111Z" fill="#4584CC"/>
<path d="M511.622 83.2517H482.166V87.2111H511.622V83.2517Z" fill="#4584CC"/>
<path d="M59.1543 122.776H24.9199L23.1473 125.815H57.347L59.1543 122.776Z" fill="#4584CC"/>
<path d="M122.305 122.776H92.85V125.815H122.305V122.776Z" fill="#4584CC"/>
<path d="M339.668 122.776H309.517V125.815H339.668V122.776Z" fill="#4584CC"/>
<path d="M208.065 122.776H177.915V125.815H208.065V122.776Z" fill="#4584CC"/>
<path d="M398.562 125.815H432.761L434.568 122.776H400.334L398.562 125.815Z" fill="#4584CC"/>
<path d="M497.72 122.776H468.264V125.815H497.72V122.776Z" fill="#4584CC"/>
<path d="M140.5 157.612H2.7457L0 162.301H140.5V157.612Z" fill="#4584CC"/>
<path d="M206.71 157.612H176.385C176.507 159.192 176.681 160.755 176.889 162.301H207.579C207.214 160.773 206.936 159.21 206.71 157.612Z" fill="#4584CC"/>
<path d="M306.32 162.301H337.009C337.218 160.755 337.391 159.192 337.513 157.612H307.189C306.963 159.21 306.667 160.773 306.32 162.301Z" fill="#4584CC"/>
<path d="M375.414 162.301H515.914V157.612H378.16L375.414 162.301Z" fill="#4584CC"/>
<path d="M125.086 91.3615H95.6304V94.4005H125.086V91.3615Z" fill="#4584CC"/>
<path d="M80.7028 91.3615H46.0166L44.2441 94.4005H78.8955L80.7028 91.3615Z" fill="#4584CC"/>
<path d="M342.448 91.3615H312.298V94.4005H342.448V91.3615Z" fill="#4584CC"/>
<path d="M210.846 91.3615H180.695V94.4005H210.846V91.3615Z" fill="#4584CC"/>
<path d="M500.5 91.3615H471.045V94.4005H500.5V91.3615Z" fill="#4584CC"/>
<path d="M419.658 94.4005H454.31L456.117 91.3615H421.431L419.658 94.4005Z" fill="#4584CC"/>
<path d="M134.348 212.887H104.893V215.926H134.348V212.887Z" fill="#4584CC"/>
<path d="M219.726 212.887C221.012 213.947 222.315 214.954 223.636 215.926H318.032C319.353 214.954 320.656 213.947 321.942 212.887H219.726Z" fill="#4584CC"/>
<path d="M509.763 212.887H480.307V215.926H509.763V212.887Z" fill="#4584CC"/>
<path d="M135.269 192.257H105.814V195.296H135.269V192.257Z" fill="#4584CC"/>
<path d="M295.181 195.296H339.008C339.703 194.289 340.363 193.281 340.989 192.257H300.185C298.569 193.386 296.901 194.393 295.181 195.296Z" fill="#4584CC"/>
<path d="M243.308 192.257H202.504C203.147 193.281 203.808 194.289 204.485 195.296H248.295C246.609 194.393 244.941 193.386 243.308 192.257Z" fill="#4584CC"/>
<path d="M510.701 192.257H481.245V195.296H510.701V192.257Z" fill="#4584CC"/>
<path d="M101.608 68.786H66.6094L59.3281 81.272H94.1533L101.608 68.786Z" fill="#4584CC"/>
<path d="M132.489 68.786H103.033V81.2546H132.489V68.786Z" fill="#4584CC"/>
<path d="M319.701 80.751V81.272H349.851V80.751C349.851 76.6527 349.573 72.6759 349.052 68.786H318.363C319.249 72.5891 319.701 76.5832 319.701 80.751Z" fill="#4584CC"/>
<path d="M218.266 80.751C218.266 76.5832 218.718 72.6065 219.604 68.786H188.915C188.376 72.6585 188.115 76.6527 188.115 80.751V81.272H218.266V80.751Z" fill="#4584CC"/>
<path d="M469.567 81.272L477.023 68.786H442.024L434.742 81.272H469.567Z" fill="#4584CC"/>
<path d="M507.92 68.786H478.465V81.2546H507.92V68.786Z" fill="#4584CC"/>
<path d="M135.269 48.277H81.3458L76.8971 55.9179H135.269V48.277Z" fill="#4584CC"/>
<path d="M316.972 55.9179H349.869C349.052 53.313 348.079 50.7603 346.984 48.277H311.533C313.618 50.7082 315.426 53.2609 316.972 55.9179Z" fill="#4584CC"/>
<path d="M233.854 48.277H198.403C197.308 50.7603 196.335 53.313 195.518 55.9179H228.415C229.944 53.2609 231.769 50.7082 233.854 48.277Z" fill="#4584CC"/>
<path d="M453.232 55.9179H511.605V48.277H457.698L453.232 55.9179Z" fill="#4584CC"/>
<path d="M124.165 184.651H94.7094V190.295H124.165V184.651Z" fill="#4584CC"/>
<path d="M224.8 186.092C224.331 185.623 223.879 185.137 223.427 184.668H187.229C188.133 186.596 189.158 188.471 190.236 190.312H229.562C227.928 189.009 226.329 187.62 224.8 186.092Z" fill="#4584CC"/>
<path d="M296.501 186.092C294.972 187.62 293.373 189.009 291.74 190.312H331.083C332.161 188.454 333.169 186.578 334.09 184.668H297.891C297.422 185.137 296.97 185.623 296.501 186.092Z" fill="#4584CC"/>
<path d="M499.579 184.651H470.124V190.295H499.579V184.651Z" fill="#4584CC"/>
<path d="M134.348 128.194H104.893V133.838H134.348V128.194Z" fill="#4584CC"/>
<path d="M67.9649 128.194H33.8L30.4982 133.838H64.5936L67.9649 128.194Z" fill="#4584CC"/>
<path d="M220.108 128.194H189.958V133.838H220.108V128.194Z" fill="#4584CC"/>
<path d="M351.711 128.194H321.56V133.838H351.711V128.194Z" fill="#4584CC"/>
<path d="M509.763 128.194H480.307V133.838H509.763V128.194Z" fill="#4584CC"/>
<path d="M409.214 128.194L405.93 133.838H440.008L443.379 128.194H409.214Z" fill="#4584CC"/>
<path d="M155.323 154.035H19.637L18.0035 156.865H155.323V154.035Z" fill="#4584CC"/>
<path d="M322.081 156.865H352.371C352.441 155.928 352.51 154.99 352.545 154.035H322.325C322.273 154.99 322.186 155.928 322.081 156.865Z" fill="#4584CC"/>
<path d="M221.186 154.035H190.983C191.018 154.99 191.087 155.928 191.157 156.865H221.446C221.342 155.928 221.255 154.99 221.186 154.035Z" fill="#4584CC"/>
<path d="M393.418 156.865H530.738V154.035H395.069L393.418 156.865Z" fill="#4584CC"/>
<path d="M126.007 207.244H96.5515V212.887H126.007V207.244Z" fill="#4584CC"/>
<path d="M114.468 198.821H85.0126V204.465H114.468V198.821Z" fill="#4584CC"/>
<path d="M134.192 218.861H118.691V224.505H134.192V218.861Z" fill="#4584CC"/>
<path d="M319.788 207.244H205.233C205.267 207.278 205.302 207.313 205.32 207.348C207.301 209.327 209.316 211.168 211.402 212.905H313.618C315.704 211.186 317.72 209.327 319.701 207.348C319.718 207.313 319.753 207.278 319.788 207.244Z" fill="#4584CC"/>
<path d="M501.438 207.244H471.983V212.887H501.438V207.244Z" fill="#4584CC"/>
<path d="M128.787 17.5742H92.7805L88.3143 25.2152H128.787V17.5742Z" fill="#4584CC"/>
<path d="M322.464 23.6696C320.274 21.4815 318.015 19.4497 315.704 17.5742H214.843C212.531 19.4671 210.272 21.4815 208.083 23.6696C207.579 24.1732 207.092 24.6942 206.606 25.2152H323.941C323.454 24.6942 322.985 24.1906 322.464 23.6696ZM288.785 23.3744H275.439V19.415H288.785V23.3744Z" fill="#4584CC"/>
<path d="M463.746 25.2152H504.202V17.5742H468.195L463.746 25.2152Z" fill="#4584CC"/>
<path d="M145.957 25.2152H108.56V26.8475H145.957V25.2152Z" fill="#4584CC"/>
<path d="M214.217 35.8778H176.82V37.5102H214.217V35.8778Z" fill="#4584CC"/>
<path d="M370.409 103.17H333.012V104.803H370.409V103.17Z" fill="#4584CC"/>
<path d="M422.352 113.416H384.955V115.048H422.352V113.416Z" fill="#4584CC"/>
<path d="M482.444 172.668H445.047V174.301H482.444V172.668Z" fill="#4584CC"/>
<path d="M528.461 32.4046H491.064V34.037H528.461V32.4046Z" fill="#4584CC"/>
<path d="M466.578 28.3584H429.181V29.9908H466.578V28.3584Z" fill="#4584CC"/>
<path d="M96.8121 36.7113H67.9649V40.6707H96.8121V36.7113Z" fill="#4584CC"/>
<path d="M41.2377 111.263H12.3904V115.222H41.2377V111.263Z" fill="#4584CC"/>
<path d="M330.996 23.2355H293.599V27.1949H330.996V23.2355Z" fill="#4584CC"/>
<path d="M228.05 113.242H210.88V115.222H228.05V113.242Z" fill="#4584CC"/>
<path d="M151.865 48.277H145.088V55.9179H151.865V48.277Z" fill="#4584CC"/>
<path d="M137.407 107.442H121.958V115.083H137.407V107.442Z" fill="#4584CC"/>
<path d="M522.831 48.277H516.053V55.9179H522.831V48.277Z" fill="#4584CC"/>
<path d="M353.24 30.2339H346.463V37.8748H353.24V30.2339Z" fill="#4584CC"/>
</svg>
