<svg width="460" height="460" viewBox="0 0 460 460" fill="none" xmlns="http://www.w3.org/2000/svg">
<path d="M68.2812 215.625C79.1537 215.625 88.9944 211.263 96.2662 204.258L136.159 224.202C135.959 225.827 135.664 227.424 135.664 229.102C135.664 251.394 153.801 269.531 176.094 269.531C198.386 269.531 216.523 251.394 216.523 229.102C216.523 222.879 214.993 217.053 212.47 211.782L266.587 157.665C271.858 160.189 277.684 161.719 283.906 161.719C306.199 161.719 324.336 143.582 324.336 121.289C324.336 117.092 323.511 113.122 322.318 109.315L369.339 74.0579C375.754 78.343 383.443 80.8594 391.719 80.8594C414.011 80.8594 432.148 62.7222 432.148 40.4297C432.148 18.1372 414.011 0 391.719 0C369.426 0 351.289 18.1372 351.289 40.4297C351.289 44.6271 352.114 48.5963 353.307 52.4042L306.286 87.6608C299.871 83.3757 292.182 80.8594 283.906 80.8594C261.614 80.8594 243.477 98.9966 243.477 121.289C243.477 127.511 245.007 133.337 247.53 138.609L193.413 192.725C188.142 190.202 182.316 188.672 176.094 188.672C165.221 188.672 155.381 193.034 148.109 200.039L108.216 180.095C108.416 178.47 108.711 176.873 108.711 175.195C108.711 152.903 90.5737 134.766 68.2812 134.766C45.9888 134.766 27.8516 152.903 27.8516 175.195C27.8516 197.488 45.9888 215.625 68.2812 215.625Z" fill="#3860AC"/>
<path d="M446.523 433.047H432.148V148.242C432.148 140.795 426.119 134.766 418.672 134.766H364.766C357.318 134.766 351.289 140.795 351.289 148.242V433.047H324.336V229.102C324.336 221.654 318.307 215.625 310.859 215.625H256.953C249.506 215.625 243.477 221.654 243.477 229.102V433.047H216.523V336.914C216.523 329.467 210.494 323.438 203.047 323.438H149.141C141.693 323.438 135.664 329.467 135.664 336.914V433.047H108.711V283.008C108.711 275.561 102.682 269.531 95.2344 269.531H41.3281C33.8809 269.531 27.8516 275.561 27.8516 283.008V433.047H13.4766C6.02936 433.047 0 439.076 0 446.523C0 453.971 6.02936 460 13.4766 460H446.523C453.971 460 460 453.971 460 446.523C460 439.076 453.971 433.047 446.523 433.047Z" fill="#3860AC"/>
</svg>
