<svg width="512" height="492" viewBox="0 0 512 492" fill="none" xmlns="http://www.w3.org/2000/svg">
<path d="M0 81H512V0H0V81ZM331 26H451V56H331V26ZM181 26H211V56H181V26ZM121 26H151V56H121V26ZM61 26H91V56H61V26Z" fill="#3860AC"/>
<path d="M0 432H100.278C84.928 405.503 76 373.825 76 341C76 241.588 156.588 161 256 161C355.412 161 436 241.588 436 341C436 373.825 427.072 405.503 411.722 432H512V111H0V432Z" fill="#3860AC"/>
<path d="M271 492C302.324 478.686 326.801 420.484 330.218 356H271V492Z" fill="#3860AC"/>
<path d="M241 492V356H181.782C185.199 420.484 209.676 478.686 241 492Z" fill="#3860AC"/>
<path d="M241 194.179C209.676 207.493 185.199 261.516 181.782 326H241V194.179Z" fill="#3860AC"/>
<path d="M329.021 210.731C346.865 240.092 358.464 280.37 360.572 326H404.488C399.476 276.274 370.562 234.079 329.021 210.731Z" fill="#3860AC"/>
<path d="M107.512 326H151.428C153.536 280.37 165.135 240.092 182.979 210.731C141.438 234.079 112.524 276.274 107.512 326Z" fill="#3860AC"/>
<path d="M329.021 475.447C370.562 452.099 399.476 405.726 404.488 356H360.572C358.464 401.63 346.864 446.086 329.021 475.447Z" fill="#3860AC"/>
<path d="M182.979 475.447C165.136 446.086 153.536 401.63 151.428 356H107.512C112.524 405.726 141.438 452.099 182.979 475.447Z" fill="#3860AC"/>
<path d="M271 194.179V326H330.218C326.801 261.516 302.324 207.492 271 194.179Z" fill="#3860AC"/>
</svg>
