<svg width="512" height="512" viewBox="0 0 512 512" fill="none" xmlns="http://www.w3.org/2000/svg">
<path d="M338.5 32.78H271V0H241V32.78H173.5V69.116H338.5V32.78Z" fill="#3860AC"/>
<path d="M512 482H486V136.831H394.438V197.44H438.583V227.44H394.438V257.443H438.583V287.443H394.438V317.447H438.583V347.447H394.438V377.451H438.583V407.451H394.438V482H365.438V98.116H146.562V482H117.562V407.451H74.097V377.451H117.561V347.447H74.097V317.447H117.561V287.443H74.097V257.443H117.561V227.44H74.097V197.44H117.561V136.831H26.001V482H0V512H512V482ZM305.5 197.78V227.78H273.5V197.78H305.5ZM273.5 167.78V137.78H305.5V167.78H273.5ZM305.5 257.78V287.78H273.5V257.78H305.5ZM305.5 317.78V347.78H273.5V317.78H305.5ZM305.5 377.78V407.78H273.5V377.78H305.5ZM206.5 347.78V317.78H238.5V347.78H206.5ZM238.5 377.78V407.78H206.5V377.78H238.5ZM206.5 287.78V257.78H238.5V287.78H206.5ZM206.5 227.78V197.78H238.5V227.78H206.5ZM206.5 167.78V137.78H238.5V167.78H206.5ZM241 436.78H271V482H241V436.78Z" fill="#3860AC"/>
</svg>
