<svg width="512" height="448" viewBox="0 0 512 448" fill="none" xmlns="http://www.w3.org/2000/svg">
<path d="M432.651 112.095C427.215 112.095 421.855 112.636 416.61 113.713C396.61 80.3016 357.945 60.4869 318.57 64.2809C257.829 -42.5057 95.1744 -9.16589 80.7574 112.119C-25.5848 113.675 -27.5879 266.581 78.8153 270.795C78.8143 270.795 432.651 270.795 432.651 270.795C476.405 270.795 512.001 235.198 512.001 191.445C512.001 147.691 476.405 112.095 432.651 112.095Z" fill="#3860AC"/>
<path d="M82.8345 361.389H74.7931C65.2131 361.389 61.6634 352.71 61.6634 348.259C61.6634 341.019 67.5536 335.128 74.7931 335.128H94.8971C103.19 335.128 109.913 328.405 109.913 320.112C109.913 311.82 103.19 305.096 94.8971 305.096H74.7931C17.3141 307.433 17.9177 389.361 74.7941 391.42C74.7931 391.42 82.8355 391.42 82.8355 391.42C89.8869 391.42 95.9663 397.181 95.9663 404.55C95.9663 411.79 90.0751 417.681 82.8355 417.681H62.7305C54.4379 417.681 47.7148 424.404 47.7148 432.697C47.7148 440.99 54.4379 447.713 62.7305 447.713H82.8345C140.34 445.363 139.69 363.435 82.8345 361.389Z" fill="#3860AC"/>
<path d="M193.902 305.096C167.885 305.096 146.718 326.263 146.718 352.279V432.696C147.447 452.577 176.011 452.602 176.75 432.696V399.461H211.053V432.696C211.781 452.577 240.345 452.602 241.084 432.696V352.279C241.083 326.263 219.918 305.096 193.902 305.096ZM211.052 369.431H176.749V352.28C176.749 342.823 184.444 335.129 193.901 335.129C203.357 335.129 211.052 342.823 211.052 352.28V369.431Z" fill="#3860AC"/>
<path d="M436.671 361.389H428.63C419.05 361.389 415.5 352.71 415.5 348.259C415.5 341.019 421.39 335.128 428.63 335.128H448.734C457.027 335.128 463.75 328.405 463.75 320.112C463.75 311.82 457.027 305.096 448.734 305.096H428.63C371.151 307.433 371.754 389.361 428.631 391.42C428.63 391.42 436.672 391.42 436.672 391.42C443.724 391.42 449.803 397.181 449.803 404.55C449.803 411.79 443.912 417.681 436.672 417.681H416.568C408.276 417.681 401.553 424.404 401.553 432.697C401.553 440.99 408.276 447.713 416.568 447.713H436.672C494.175 445.363 493.526 363.435 436.671 361.389Z" fill="#3860AC"/>
<path d="M317.565 305.096C291.549 305.096 270.382 326.263 270.382 352.279V432.696C271.11 452.577 299.674 452.602 300.413 432.696V399.461H334.716V432.696C335.445 452.577 364.008 452.602 364.747 432.696V352.279C364.747 326.263 343.581 305.096 317.565 305.096ZM334.716 369.431H300.413V352.28C300.413 342.823 308.108 335.129 317.565 335.129C327.022 335.129 334.716 342.823 334.716 352.28V369.431Z" fill="#3860AC"/>
</svg>
