<svg width="22" height="22" viewBox="0 0 22 22" fill="none" xmlns="http://www.w3.org/2000/svg">
<path d="M18.6607 3.24107C16.6473 1.17857 13.8973 0 10.9509 0C4.95982 0 0.0491071 4.91071 0.0491071 10.9018C0.0491071 12.8661 0.589286 14.7321 1.52232 16.3527L0 22L5.74554 20.5268C7.36607 21.3616 9.13393 21.8527 10.9509 21.8527C16.9911 21.8527 22 16.942 22 10.9509C22 8.00446 20.7232 5.30357 18.6607 3.24107ZM10.9509 19.9866C9.33036 19.9866 7.75893 19.5446 6.33482 18.7098L6.04018 18.5134L2.60268 19.4464L3.53571 16.1071L3.29018 15.7634C2.40625 14.2902 1.91518 12.6205 1.91518 10.9018C1.91518 5.94196 5.99107 1.86607 11 1.86607C13.4062 1.86607 15.6652 2.79911 17.3839 4.51786C19.1027 6.23661 20.1339 8.49554 20.1339 10.9509C20.1339 15.9107 15.9598 19.9866 10.9509 19.9866ZM15.9598 13.2098C15.6652 13.0625 14.3393 12.4241 14.0938 12.3259C13.8482 12.2277 13.6518 12.1786 13.4554 12.4732C13.308 12.7188 12.7679 13.3571 12.6205 13.5536C12.4241 13.7009 12.2768 13.75 12.0312 13.6027C10.4107 12.817 9.37946 12.1786 8.29911 10.3616C8.00446 9.87054 8.59375 9.91964 9.08482 8.88839C9.18304 8.69196 9.13393 8.54464 9.08482 8.39732C9.03571 8.25 8.44643 6.92411 8.25 6.38393C8.00446 5.84375 7.80804 5.89286 7.61161 5.89286C7.46429 5.89286 7.26786 5.89286 7.12054 5.89286C6.92411 5.89286 6.62946 5.94196 6.38393 6.23661C6.13839 6.53125 5.45089 7.16964 5.45089 8.49554C5.45089 9.87054 6.38393 11.1473 6.53125 11.3438C6.67857 11.4911 8.44643 14.2411 11.1964 15.4196C12.9152 16.2054 13.6027 16.2545 14.4866 16.1071C14.9777 16.058 16.058 15.4688 16.3036 14.8304C16.5491 14.192 16.5491 13.6518 16.4509 13.5536C16.4018 13.4062 16.2054 13.3571 15.9598 13.2098Z" fill="#4584CC"/>
</svg>
