<svg width="146" height="39" viewBox="0 0 146 39" fill="none" xmlns="http://www.w3.org/2000/svg">
<path fill-rule="evenodd" clip-rule="evenodd" d="M88.915 17.1856C89.729 16.8507 90.4573 16.7502 90.9178 16.7502C93.2312 16.7502 94.7949 18.4473 94.7949 21.1047C94.7949 23.8625 93.1562 25.4703 90.2538 25.4703C89.247 25.4703 88.2617 25.2694 87.2335 24.9009L87.1907 12.7083H88.9257V17.1856H88.915ZM90.4359 23.8067C92.0531 23.8067 92.9849 22.8465 92.9849 21.1158C92.9849 19.4187 92.0531 18.4027 90.5965 18.4027C89.9646 18.4027 89.3648 18.626 88.9257 18.8381V23.4941C89.4505 23.7174 89.9539 23.8067 90.4359 23.8067Z" fill="#3860AC"/>
<path d="M103.149 11H101.435V27H103.149V11Z" fill="#3860AC"/>
<path fill-rule="evenodd" clip-rule="evenodd" d="M112.06 20.1556H115.99C115.947 19.0614 115.38 18.492 114.384 18.4361C113.366 18.358 112.392 19.0391 112.06 20.1556ZM113.998 25.5038C111.363 25.2359 110.068 23.3043 110.142 21.0042C110.217 18.5255 111.76 16.7725 114.105 16.7725C116.569 16.7725 117.993 18.6706 117.875 21.4731H111.953C112.092 23.0251 112.981 23.762 114.202 23.8514C115.219 23.9407 116.654 23.695 117.436 23.1814V24.8897C116.408 25.4145 115.337 25.6378 113.998 25.5038Z" fill="#3860AC"/>
<path fill-rule="evenodd" clip-rule="evenodd" d="M142.444 24.097C143.537 24.097 144.265 23.5164 144.265 22.2212V16.9288H146V22.4445C146 24.2868 144.629 25.4145 142.444 25.4145C140.259 25.4145 138.888 24.2868 138.888 22.4445V16.9288H140.623V22.2212C140.623 23.5164 141.352 24.097 142.444 24.097Z" fill="#3860AC"/>
<path fill-rule="evenodd" clip-rule="evenodd" d="M75.7844 25.4703C72.882 25.4815 71.2433 23.8625 71.2433 21.1047C71.2433 18.4473 72.807 16.7502 75.1204 16.7502C75.9022 16.7502 76.5448 16.9288 77.1232 17.3196V16.7055H78.8582L78.8154 24.9009C78.0764 25.2359 76.8768 25.4703 75.7844 25.4703ZM75.6023 23.8067C75.9986 23.8067 76.4806 23.7732 77.0803 23.6057L77.1125 18.9944C76.5555 18.6036 76.02 18.4138 75.4417 18.4138C73.9851 18.4138 73.0533 19.4299 73.0533 21.127C73.064 22.8465 73.9851 23.8402 75.6023 23.8067Z" fill="#3860AC"/>
<path fill-rule="evenodd" clip-rule="evenodd" d="M129.099 25.4703C126.197 25.4815 124.569 23.8625 124.569 21.1047C124.569 18.4473 126.133 16.7502 128.446 16.7502C129.228 16.7502 129.871 16.9288 130.449 17.3196V16.7055H132.184L132.13 24.9009C131.391 25.2359 130.192 25.4703 129.099 25.4703ZM128.928 23.8067C129.271 23.8067 129.796 23.7732 130.406 23.6057L130.438 18.9944C129.881 18.6036 129.346 18.4138 128.767 18.4138C127.311 18.4138 126.379 19.4299 126.379 21.127C126.379 22.8465 127.3 23.8179 128.928 23.8067Z" fill="#3860AC"/>
<path d="M58.6375 13.2889H60.3511V18.3692H64.9886V20.0328H60.3511V25.5373H58.6375V20.0328H54V18.3692H58.6375V13.2889Z" fill="#3860AC"/>
<path d="M26.593 18.3685H21.0975V12.4538H18.9341V18.3685H13.4228V20.4598H18.9341V26.3745H21.0975V20.4598H26.593V18.3685Z" fill="#3860AC"/>
<path d="M15.5389 28.0132H10.5961V22.7227H8.74852V28.0132H3.80576V29.6363H8.74852V34.9268H10.5961V29.6363H15.5389V28.0132Z" fill="#3860AC"/>
<path d="M36.21 9.08283H31.2831V3.77671H29.4197V9.08283H24.4927V10.7059H29.4197V15.9652H31.2831V10.7059H36.21V9.08283Z" fill="#3860AC"/>
<path d="M24.1927 33.8811H20.8448V30.1981H19.2499V33.8811H15.9021V35.3169H19.2499V39H20.8448V35.3169H24.1927V33.8811Z" fill="#3860AC"/>
<path d="M15.5389 9.08283H10.5488V3.77671H8.79589V9.08283H3.80576V10.6435H8.79589V15.9652H10.5488V10.6435H15.5389V9.08283Z" fill="#3860AC"/>
<path d="M40 18.7119H36.6522V15.0132H35.0572V18.7119H31.7252V20.1321H35.0572V23.8307H36.6522V20.1321H40V18.7119Z" fill="#3860AC"/>
<path fill-rule="evenodd" clip-rule="evenodd" d="M36.21 28.0132H31.2831V22.7227H29.4197V28.0132H24.4927V29.6363H29.4197V34.9268H31.2831V29.6363H36.21V28.0132Z" fill="#3860AC"/>
<path d="M19.4394 0V3.62065H16.139V4.71308H19.4394V8.33373H20.6396V4.71308H23.94V3.62065H20.6396V0H19.4394Z" fill="#3860AC"/>
<path d="M3.30043 15.2941V18.8523H0V19.9916L3.30043 19.9604V23.5342H4.46901V19.9604L7.80103 19.9448V18.8523H4.46901V15.2941H3.30043Z" fill="#3860AC"/>
</svg>
