<svg width="13" height="15" viewBox="0 0 13 15" fill="none" xmlns="http://www.w3.org/2000/svg">
<path d="M2.95994 15C2.16893 15 1.42527 14.6779 0.865962 14.093C-0.288654 12.8855 -0.288654 10.9209 0.865962 9.71345L7.51031 2.76518C8.29425 1.94535 9.56993 1.94535 10.3539 2.76518C11.1379 3.58502 11.1379 4.91903 10.3539 5.73886L5.46659 10.8497C5.27242 11.0528 4.95754 11.0528 4.76334 10.8497C4.56913 10.6466 4.56913 10.3174 4.76334 10.1143L9.65063 5.00341C10.0468 4.58909 10.0468 3.91493 9.65063 3.5006C9.45868 3.29987 9.20351 3.18935 8.93209 3.18935C8.66068 3.18935 8.40547 3.29987 8.21356 3.5006L1.56921 10.4489C0.802376 11.2508 0.802376 12.5556 1.56921 13.3576C1.94071 13.746 2.43461 13.9599 2.95994 13.9599C3.48526 13.9599 3.97919 13.746 4.35066 13.3576L11.1509 6.2462C11.702 5.66998 12.0054 4.90388 12.0054 4.08896C12.0054 3.27405 11.702 2.50794 11.1509 1.93172C10.0134 0.742181 8.16264 0.742215 7.02516 1.93172L1.98192 7.20561C1.78775 7.4087 1.47287 7.4087 1.27867 7.20561C1.08447 7.00253 1.08447 6.67328 1.27867 6.47019L6.32191 1.19627C7.84716 -0.398756 10.3289 -0.398756 11.8542 1.19627C12.5931 1.96892 13 2.99625 13 4.08896C13 5.18167 12.5931 6.20897 11.8542 6.98166L5.05391 14.093C4.49461 14.6779 3.75094 15 2.95994 15Z" fill="#3F5682"/>
</svg>
