<svg width="28" height="27" viewBox="0 0 28 27" fill="none" xmlns="http://www.w3.org/2000/svg">
<path d="M6.25 27H0.4375V8.97991H6.25V27ZM3.375 6.50893C2.45833 6.50893 1.66667 6.1875 1 5.54464C0.333333 4.90179 0 4.13839 0 3.25446C0 2.37054 0.333333 1.60714 1 0.964286C1.66667 0.321429 2.45833 0 3.375 0C3.95833 0 4.5 0.140625 5 0.421875C5.54167 0.703125 5.95833 1.10491 6.25 1.62723C6.58333 2.10938 6.75 2.65179 6.75 3.25446C6.75 3.81696 6.58333 4.35938 6.25 4.8817C5.95833 5.36384 5.54167 5.76562 5 6.08705C4.5 6.3683 3.95833 6.50893 3.375 6.50893ZM28 27H22.1875V18.2009C22.1875 17.5179 22.1667 16.9754 22.125 16.5737C22.0833 16.1317 21.9792 15.6496 21.8125 15.1272C21.6458 14.5647 21.3333 14.1429 20.875 13.8616C20.4583 13.5804 19.8958 13.4397 19.1875 13.4397C17.8125 13.4397 16.875 13.8616 16.375 14.7054C15.9167 15.5491 15.6875 16.6741 15.6875 18.0804V27H9.875V8.97991H15.5V11.4509H15.5625C15.9792 10.6473 16.6667 9.96429 17.625 9.40179C18.5833 8.79911 19.7292 8.49777 21.0625 8.49777C22.4792 8.49777 23.6458 8.71875 24.5625 9.16071C25.5208 9.5625 26.2292 10.1853 26.6875 11.029C27.1875 11.8326 27.5208 12.7165 27.6875 13.6808C27.8958 14.6451 28 15.7902 28 17.1161V27Z" fill="#2B519B"/>
</svg>
