<svg width="19" height="20" viewBox="0 0 19 20" fill="none" xmlns="http://www.w3.org/2000/svg">
<path d="M16.1161 2.94643C14.3772 1.07143 12.0022 0 9.45759 0C4.28348 0 0.0424107 4.46429 0.0424107 9.91071C0.0424107 11.6964 0.508929 13.3929 1.31473 14.8661L0 20L4.96205 18.6607C6.36161 19.4196 7.88839 19.8661 9.45759 19.8661C14.6741 19.8661 19 15.4018 19 9.95536C19 7.27679 17.8973 4.82143 16.1161 2.94643ZM9.45759 18.1696C8.05804 18.1696 6.70089 17.7679 5.47098 17.0089L5.21652 16.8304L2.24777 17.6786L3.05357 14.6429L2.84152 14.3304C2.07812 12.9911 1.65402 11.4732 1.65402 9.91071C1.65402 5.40179 5.17411 1.69643 9.5 1.69643C11.5781 1.69643 13.529 2.54464 15.0134 4.10714C16.4978 5.66964 17.3884 7.72321 17.3884 9.95536C17.3884 14.4643 13.7835 18.1696 9.45759 18.1696ZM13.7835 12.0089C13.529 11.875 12.3839 11.2946 12.1719 11.2054C11.9598 11.1161 11.7902 11.0714 11.6205 11.3393C11.4933 11.5625 11.0268 12.1429 10.8996 12.3214C10.7299 12.4554 10.6027 12.5 10.3906 12.3661C8.99107 11.6518 8.10045 11.0714 7.16741 9.41964C6.91295 8.97321 7.42188 9.01786 7.84598 8.08036C7.9308 7.90179 7.88839 7.76786 7.84598 7.63393C7.80357 7.5 7.29464 6.29464 7.125 5.80357C6.91295 5.3125 6.7433 5.35714 6.57366 5.35714C6.44643 5.35714 6.27679 5.35714 6.14955 5.35714C5.97991 5.35714 5.72545 5.40179 5.51339 5.66964C5.30134 5.9375 4.70759 6.51786 4.70759 7.72321C4.70759 8.97321 5.51339 10.1339 5.64062 10.3125C5.76786 10.4464 7.29464 12.9464 9.66964 14.0179C11.154 14.7321 11.7478 14.7768 12.5112 14.6429C12.9353 14.5982 13.8683 14.0625 14.0804 13.4821C14.2924 12.9018 14.2924 12.4107 14.2076 12.3214C14.1652 12.1875 13.9955 12.1429 13.7835 12.0089Z" fill="#2B519B"/>
</svg>
