<svg width="31" height="22" viewBox="0 0 31 22" fill="none" xmlns="http://www.w3.org/2000/svg">
<path d="M30.3199 3.49479C29.9799 2.11979 28.9031 1.03125 27.5996 0.6875C25.1627 0 15.5283 0 15.5283 0C15.5283 0 5.83729 0 3.40037 0.6875C2.09689 1.03125 1.02011 2.11979 0.680073 3.49479C0 5.90104 0 11.0573 0 11.0573C0 11.0573 0 16.1563 0.680073 18.6198C1.02011 19.9948 2.09689 21.026 3.40037 21.3698C5.83729 22 15.5283 22 15.5283 22C15.5283 22 25.1627 22 27.5996 21.3698C28.9031 21.026 29.9799 19.9948 30.3199 18.6198C31 16.1563 31 11.0573 31 11.0573C31 11.0573 31 5.90104 30.3199 3.49479ZM12.3547 15.6979V6.41667L20.4022 11.0573L12.3547 15.6979Z" fill="#2B519B"/>
</svg>
