<svg width="15" height="15" viewBox="0 0 15 15" fill="none" xmlns="http://www.w3.org/2000/svg">
<path d="M7.5 0C3.36425 0 0 3.36425 0 7.5C0 11.6358 3.36425 15 7.5 15C11.6358 15 15 11.6358 15 7.5C15 3.36425 11.6358 0 7.5 0ZM7.18749 12.5C6.67052 12.5 6.24999 12.0795 6.24999 11.5625C6.24999 11.0455 6.67052 10.625 7.18749 10.625C7.70446 10.625 8.12499 11.0455 8.12499 11.5625C8.12499 12.0795 7.70446 12.5 7.18749 12.5ZM8.12499 8.68775V9.68751C8.12499 9.86024 7.98521 10 7.81248 10H6.5625C6.38977 10 6.24999 9.86024 6.24999 9.68751V8.12502C6.24999 7.43593 6.81091 6.87501 7.5 6.87501C8.18909 6.87501 8.75001 6.31409 8.75001 5.625C8.75001 4.93591 8.18909 4.37499 7.5 4.37499C6.81091 4.37499 6.24999 4.93591 6.24999 5.625V5.93751C6.24999 6.11024 6.11021 6.25002 5.93748 6.25002H4.6875C4.51477 6.25002 4.37499 6.11024 4.37499 5.93751V5.625C4.37499 3.90196 5.77696 2.49999 7.5 2.49999C9.22304 2.49999 10.625 3.90199 10.625 5.625C10.625 7.12465 9.56848 8.3954 8.12499 8.68775Z" fill="url(#paint0_linear_682_12034)"/>
<defs>
<linearGradient id="paint0_linear_682_12034" x1="1.21306" y1="13.7843" x2="13.7873" y2="13.7843" gradientUnits="userSpaceOnUse">
<stop offset="0.236684" stop-color="#4584CC"/>
<stop offset="1" stop-color="#2B519B"/>
</linearGradient>
</defs>
</svg>
