<svg width="15" height="15" viewBox="0 0 15 15" fill="none" xmlns="http://www.w3.org/2000/svg">
<path d="M8.5 5.43009C9.0792 5.43009 9.54873 4.97756 9.54873 4.41935C9.54873 3.86113 9.0792 3.4086 8.5 3.4086C7.9208 3.4086 7.45127 3.86113 7.45127 4.41935C7.45127 4.97756 7.9208 5.43009 8.5 5.43009Z" fill="url(#paint0_linear_682_12024)"/>
<path d="M15 11.1912V0H2V15H11.048V11.1912H15ZM6.57861 8.93555V8.05664H12.858V8.93555H6.57861ZM5.82055 12.4609H4.90669V11.582H5.82055V12.4609ZM5.82055 10.6983H4.90669V9.81935H5.82055V10.6983ZM5.82055 8.93555H4.90669V8.05664H5.82055V8.93555ZM5.86253 5.37949L6.6208 4.95756C6.56806 4.78688 6.53933 4.60632 6.53933 4.41935C6.53933 4.23237 6.56809 4.05182 6.6208 3.88113L5.86253 3.4592L6.31849 2.69807L7.07783 3.12059C7.33506 2.85908 7.66865 2.66836 8.04403 2.58182V1.73789H8.95597V2.58182C9.33135 2.66833 9.66494 2.85908 9.92214 3.12056L10.6815 2.69804L11.1374 3.45917L10.3792 3.8811C10.4319 4.05179 10.4606 4.23234 10.4606 4.41932C10.4606 4.60629 10.4319 4.78685 10.3792 4.95753L11.1374 5.37946L10.6815 6.1406L9.92214 5.71808C9.66491 5.97955 9.33132 6.1703 8.95597 6.25682V7.10074H8.04403V6.25682C7.66865 6.1703 7.33506 5.97955 7.07786 5.71808L6.31852 6.1406L5.86253 5.37949ZM9.96386 12.4609H6.57861V11.582H9.96386V12.4609ZM6.57861 10.6983V9.81935H10.8758V10.6983H6.57861Z" fill="url(#paint1_linear_682_12024)"/>
<path d="M11.96 12.0701V15H12.1231L15 12.2273V12.0701H11.96Z" fill="url(#paint2_linear_682_12024)"/>
<defs>
<linearGradient id="paint0_linear_682_12024" x1="3.05131" y1="13.7843" x2="13.949" y2="13.7843" gradientUnits="userSpaceOnUse">
<stop offset="0.236684" stop-color="#4584CC"/>
<stop offset="1" stop-color="#2B519B"/>
</linearGradient>
<linearGradient id="paint1_linear_682_12024" x1="3.05131" y1="13.7843" x2="13.949" y2="13.7843" gradientUnits="userSpaceOnUse">
<stop offset="0.236684" stop-color="#4584CC"/>
<stop offset="1" stop-color="#2B519B"/>
</linearGradient>
<linearGradient id="paint2_linear_682_12024" x1="3.05131" y1="13.7843" x2="13.949" y2="13.7843" gradientUnits="userSpaceOnUse">
<stop offset="0.236684" stop-color="#4584CC"/>
<stop offset="1" stop-color="#2B519B"/>
</linearGradient>
</defs>
</svg>
