<svg width="15" height="15" viewBox="0 0 15 15" fill="none" xmlns="http://www.w3.org/2000/svg">
<path d="M13.9063 4.6875H9.21875C8.61563 4.6875 8.125 5.17812 8.125 5.78125V8.28125C8.125 8.88437 8.61563 9.375 9.21875 9.375H13.9063C14.5094 9.375 15 8.88437 15 8.28125V5.78125C15 5.17812 14.5094 4.6875 13.9063 4.6875Z" fill="url(#paint0_linear_682_12019)"/>
<path d="M13.9063 10.3125H9.21875C8.61563 10.3125 8.125 10.8031 8.125 11.4062V13.9062C8.125 14.5094 8.61563 15 9.21875 15H13.9063C14.5094 15 15 14.5094 15 13.9062V11.4062C15 10.8031 14.5094 10.3125 13.9063 10.3125Z" fill="url(#paint1_linear_682_12019)"/>
<path d="M13.9063 0H1.09375C0.490625 0 2.23517e-07 0.490625 2.23517e-07 1.09375V2.65625C2.23517e-07 3.25938 0.490625 3.75 1.09375 3.75H13.9063C14.5094 3.75 15 3.25938 15 2.65625V1.09375C15 0.490625 14.5094 0 13.9063 0Z" fill="url(#paint2_linear_682_12019)"/>
<path d="M0.46875 5.625H6.40625C6.665 5.625 6.875 5.415 6.875 5.15625C6.875 4.8975 6.665 4.6875 6.40625 4.6875H0.46875C0.21 4.6875 0 4.8975 0 5.15625C0 5.415 0.21 5.625 0.46875 5.625Z" fill="url(#paint3_linear_682_12019)"/>
<path d="M0.46875 7.5H6.40625C6.665 7.5 6.875 7.29 6.875 7.03125C6.875 6.7725 6.665 6.5625 6.40625 6.5625H0.46875C0.21 6.5625 0 6.7725 0 7.03125C0 7.29 0.21 7.5 0.46875 7.5Z" fill="url(#paint4_linear_682_12019)"/>
<path d="M0.46875 9.375H6.40625C6.665 9.375 6.875 9.165 6.875 8.90625C6.875 8.6475 6.665 8.4375 6.40625 8.4375H0.46875C0.21 8.4375 0 8.6475 0 8.90625C0 9.165 0.21 9.375 0.46875 9.375Z" fill="url(#paint5_linear_682_12019)"/>
<path d="M0.46875 11.25H6.40625C6.665 11.25 6.875 11.04 6.875 10.7812C6.875 10.5225 6.665 10.3125 6.40625 10.3125H0.46875C0.21 10.3125 0 10.5225 0 10.7812C0 11.04 0.21 11.25 0.46875 11.25Z" fill="url(#paint6_linear_682_12019)"/>
<path d="M0.46875 13.125H6.40625C6.665 13.125 6.875 12.915 6.875 12.6562C6.875 12.3975 6.665 12.1875 6.40625 12.1875H0.46875C0.21 12.1875 0 12.3975 0 12.6562C0 12.915 0.21 13.125 0.46875 13.125Z" fill="url(#paint7_linear_682_12019)"/>
<path d="M0.46875 15H6.40625C6.665 15 6.875 14.79 6.875 14.5312C6.875 14.2725 6.665 14.0625 6.40625 14.0625H0.46875C0.21 14.0625 0 14.2725 0 14.5312C0 14.79 0.21 15 0.46875 15Z" fill="url(#paint8_linear_682_12019)"/>
<defs>
<linearGradient id="paint0_linear_682_12019" x1="1.21306" y1="13.7843" x2="13.7873" y2="13.7843" gradientUnits="userSpaceOnUse">
<stop offset="0.236684" stop-color="#4584CC"/>
<stop offset="1" stop-color="#2B519B"/>
</linearGradient>
<linearGradient id="paint1_linear_682_12019" x1="1.21306" y1="13.7843" x2="13.7873" y2="13.7843" gradientUnits="userSpaceOnUse">
<stop offset="0.236684" stop-color="#4584CC"/>
<stop offset="1" stop-color="#2B519B"/>
</linearGradient>
<linearGradient id="paint2_linear_682_12019" x1="1.21306" y1="13.7843" x2="13.7873" y2="13.7843" gradientUnits="userSpaceOnUse">
<stop offset="0.236684" stop-color="#4584CC"/>
<stop offset="1" stop-color="#2B519B"/>
</linearGradient>
<linearGradient id="paint3_linear_682_12019" x1="1.21306" y1="13.7843" x2="13.7873" y2="13.7843" gradientUnits="userSpaceOnUse">
<stop offset="0.236684" stop-color="#4584CC"/>
<stop offset="1" stop-color="#2B519B"/>
</linearGradient>
<linearGradient id="paint4_linear_682_12019" x1="1.21306" y1="13.7843" x2="13.7873" y2="13.7843" gradientUnits="userSpaceOnUse">
<stop offset="0.236684" stop-color="#4584CC"/>
<stop offset="1" stop-color="#2B519B"/>
</linearGradient>
<linearGradient id="paint5_linear_682_12019" x1="1.21306" y1="13.7843" x2="13.7873" y2="13.7843" gradientUnits="userSpaceOnUse">
<stop offset="0.236684" stop-color="#4584CC"/>
<stop offset="1" stop-color="#2B519B"/>
</linearGradient>
<linearGradient id="paint6_linear_682_12019" x1="1.21306" y1="13.7843" x2="13.7873" y2="13.7843" gradientUnits="userSpaceOnUse">
<stop offset="0.236684" stop-color="#4584CC"/>
<stop offset="1" stop-color="#2B519B"/>
</linearGradient>
<linearGradient id="paint7_linear_682_12019" x1="1.21306" y1="13.7843" x2="13.7873" y2="13.7843" gradientUnits="userSpaceOnUse">
<stop offset="0.236684" stop-color="#4584CC"/>
<stop offset="1" stop-color="#2B519B"/>
</linearGradient>
<linearGradient id="paint8_linear_682_12019" x1="1.21306" y1="13.7843" x2="13.7873" y2="13.7843" gradientUnits="userSpaceOnUse">
<stop offset="0.236684" stop-color="#4584CC"/>
<stop offset="1" stop-color="#2B519B"/>
</linearGradient>
</defs>
</svg>
