<svg width="160" height="240" viewBox="0 0 160 240" fill="none" xmlns="http://www.w3.org/2000/svg">
<path d="M52.8969 38.5945C52.8969 40.3888 53.0909 41.8376 53.4304 42.8984C53.8183 43.9653 54.3033 45.1292 54.9822 46.39C55.2247 46.7719 55.3217 47.1599 55.3217 47.4994C55.3217 47.9843 55.0307 48.4693 54.4003 48.9542L51.3511 50.9849C50.9826 51.2507 50.5442 51.4024 50.0903 51.4214C49.6053 51.4214 49.1204 51.1789 48.6415 50.7425C47.9903 50.042 47.4077 49.2808 46.9017 48.4693C46.3598 47.5396 45.8583 46.587 45.3984 45.6141C41.6279 50.0635 36.8815 52.2882 31.1712 52.2882C27.1097 52.2882 23.8666 51.1304 21.4964 48.8087C19.1262 46.481 17.9199 43.3894 17.9199 39.5159C17.9199 35.4059 19.3687 32.0598 22.3208 29.5502C25.273 27.0345 29.1889 25.7736 34.1718 25.7736C35.8206 25.7736 37.5119 25.9191 39.3001 26.1616C41.0945 26.404 42.9373 26.792 44.8649 27.2285V23.6944C44.8649 20.0148 44.0951 17.4507 42.5917 15.9534C41.046 14.45 38.4333 13.7287 34.7113 13.7287C33.014 13.7287 31.2682 13.9166 29.4799 14.3531C27.6917 14.7895 25.9458 15.3229 24.2546 16.0019C23.7031 16.2488 23.1362 16.4594 22.5573 16.6323C22.3079 16.7127 22.0491 16.7596 21.7874 16.7717C21.1085 16.7717 20.769 16.2868 20.769 15.2745V12.9043C20.769 12.1283 20.866 11.5464 21.1085 11.2069C21.4746 10.7668 21.94 10.4199 22.4663 10.1946C24.405 9.23204 26.4496 8.49964 28.5585 8.01233C31.0258 7.38068 33.5648 7.07298 36.1116 7.09699C41.8704 7.09699 46.0773 8.40635 48.787 11.019C51.4481 13.6256 52.7999 17.5961 52.7999 22.9185V38.5945H52.8969ZM33.2565 45.9536C34.8507 45.9536 36.4935 45.6626 38.2393 45.0807C40.0138 44.4675 41.5976 43.4018 42.8342 41.9891C43.6158 41.0955 44.1801 40.0333 44.483 38.8854C44.7679 37.7276 44.968 36.3213 44.968 34.6785V32.6478C43.4994 32.2898 42.0119 32.0145 40.5125 31.8234C39.0046 31.6318 37.4862 31.5346 35.9661 31.5324C32.723 31.5324 30.3528 32.1628 28.7525 33.4722C27.1582 34.7755 26.3884 36.6122 26.3884 39.0309C26.3884 41.3041 26.9642 43.0015 28.1766 44.1593C29.3344 45.3716 31.0257 45.9536 33.2565 45.9536ZM72.113 51.1789C71.2401 51.1789 70.6582 51.0334 70.2702 50.694C69.8823 50.403 69.5428 49.7241 69.2518 48.8087L57.8858 11.4009C57.6647 10.7737 57.5182 10.1226 57.4494 9.46112C57.4494 8.6852 57.8373 8.24875 58.6072 8.24875H63.3536C64.269 8.24875 64.8994 8.40029 65.2328 8.7337C65.6268 9.02467 65.9178 9.70359 66.2027 10.625L74.3378 42.6559L81.8848 10.625C82.1273 9.6551 82.4182 9.02467 82.8001 8.7337C83.3817 8.37703 84.0589 8.20774 84.7399 8.24875H88.6074C89.5288 8.24875 90.1592 8.40029 90.5472 8.7337C90.9291 9.02467 91.2746 9.70359 91.4625 10.625L99.1066 43.0439L107.478 10.625C107.769 9.6551 108.108 9.02467 108.448 8.7337C109.009 8.3772 109.669 8.20745 110.333 8.24875H114.837C115.607 8.24875 116.049 8.64277 116.049 9.46112C116.049 9.7036 115.995 9.94607 115.946 10.237C115.87 10.6507 115.757 11.0565 115.607 11.4494L103.95 48.8512C103.659 49.8211 103.32 50.4454 102.932 50.7364C102.385 51.0868 101.743 51.2565 101.095 51.2214H96.9303C96.015 51.2214 95.3846 51.0759 94.9905 50.7364C94.6086 50.3969 94.2692 49.7665 94.0813 48.7966L86.5767 17.5901L79.1206 48.7481C78.8781 49.718 78.5932 50.3484 78.2113 50.6879C77.8173 51.0274 77.1383 51.1729 76.2715 51.1729L72.113 51.1789ZM134.284 52.4822C131.768 52.4822 129.252 52.1912 126.834 51.6154C124.415 51.0334 122.53 50.403 121.269 49.6756C120.493 49.2452 119.965 48.7602 119.771 48.3238C119.582 47.8959 119.483 47.4337 119.48 46.9659V44.4987C119.48 43.4864 119.868 43.0014 120.59 43.0014C120.881 43.0014 121.172 43.0499 121.463 43.1469C121.754 43.2439 122.19 43.4379 122.675 43.6319C124.318 44.3593 126.106 44.9352 127.997 45.3231C129.931 45.7111 131.816 45.9051 133.756 45.9051C136.799 45.9051 139.176 45.3716 140.818 44.3048C141.606 43.829 142.253 43.1533 142.695 42.3462C143.137 41.5392 143.357 40.6296 143.334 39.7099C143.352 39.0869 143.246 38.4666 143.022 37.8849C142.798 37.3033 142.461 36.7718 142.031 36.3213C141.158 35.4059 139.509 34.5815 137.139 33.8056L130.125 31.6233C126.591 30.514 123.978 28.8712 122.384 26.695C120.824 24.6866 119.971 22.2186 119.959 19.6754C119.959 17.6446 120.402 15.8564 121.269 14.3046C122.142 12.7588 123.299 11.4009 124.754 10.3401C126.209 9.22471 127.846 8.40029 129.786 7.82442C131.725 7.24248 133.756 7 135.884 7C136.945 7 138.06 7.0485 139.127 7.19398C140.236 7.33947 141.249 7.53344 142.267 7.72742C143.237 7.9699 144.158 8.21238 145.025 8.49728C145.898 8.78825 146.577 9.07922 147.062 9.37019C147.633 9.65777 148.131 10.0725 148.517 10.5826C148.829 11.0533 148.98 11.6128 148.947 12.1768V14.45C148.947 15.4684 148.559 16.0019 147.832 16.0019C147.188 15.928 146.564 15.7304 145.995 15.4199C143.072 14.1286 139.904 13.4854 136.708 13.5347C133.95 13.5347 131.768 13.9651 130.271 14.8865C128.767 15.8079 127.997 17.2082 127.997 19.1904C127.997 20.5483 128.482 21.7122 129.452 22.6275C130.416 23.5489 132.204 24.4703 134.769 25.2947L141.643 27.4649C145.122 28.5803 147.644 30.1321 149.141 32.1143C150.639 34.0966 151.366 36.3698 151.366 38.8854C151.366 40.9647 150.929 42.856 150.111 44.4987C149.251 46.1552 148.046 47.6083 146.577 48.7602C145.074 49.9726 143.285 50.8395 141.206 51.4699C139.024 52.1427 136.757 52.4822 134.284 52.4822Z" fill="#3860AC"/>
<path d="M143.432 76.0022C127.513 87.7623 104.381 93.9999 84.4981 93.9999C56.6256 93.9999 31.5173 83.6947 12.5437 66.5639C11.0464 65.2121 12.3982 63.3693 14.1925 64.4362C34.7059 76.3356 60.0142 83.5493 86.1893 83.5493C103.854 83.5493 123.252 79.8697 141.11 72.3227C143.771 71.1103 146.044 74.0624 143.432 76.0022ZM150.063 68.4491C148.026 65.8425 136.606 67.1943 131.429 67.8248C129.883 68.0187 129.641 66.6609 131.047 65.6425C140.14 59.2593 155.095 61.0961 156.834 63.2238C158.574 65.4061 156.349 80.3547 147.832 87.5137C146.529 88.6291 145.268 88.0472 145.85 86.5984C147.79 81.8095 152.094 71.0194 150.063 68.4491Z" fill="#2B519B"/>
</svg>
