<svg width="160" height="240" viewBox="0 0 160 240" fill="none" xmlns="http://www.w3.org/2000/svg">
<path d="M60.693 0.463199H94.1502L59.4183 103.37C59.0614 104.427 58.3818 105.346 57.4752 105.997C56.5686 106.648 55.4807 106.998 54.3647 106.999H28.3267C27.4811 106.999 26.6476 106.798 25.8952 106.412C25.1428 106.026 24.4931 105.466 23.9999 104.779C23.5067 104.092 23.1841 103.298 23.0588 102.462C22.9335 101.625 23.0091 100.771 23.2795 99.9701L55.6381 4.09186C55.9949 3.03398 56.6746 2.11469 57.5814 1.46349C58.4883 0.812281 59.5766 0.461976 60.693 0.461914V0.463199Z" fill="#2B519B"/>
<path d="M109.312 69.4863H56.2571C55.7638 69.4858 55.2818 69.6338 54.8739 69.9111C54.466 70.1884 54.151 70.5821 53.9701 71.041C53.7891 71.4998 53.7505 72.0025 53.8593 72.4836C53.9682 72.9647 54.2194 73.4019 54.5802 73.7382L88.6722 105.558C89.6648 106.484 90.9717 106.999 92.3291 106.999H122.371L109.312 69.4863Z" fill="#3860AC"/>
<path d="M103.427 4.08666C103.07 3.03049 102.392 2.11272 101.486 1.46266C100.581 0.812597 99.4941 0.463005 98.3794 0.463135H61.0918C62.2064 0.463198 63.2929 0.812864 64.1984 1.4629C65.1038 2.11293 65.7826 3.03059 66.139 4.08666L98.4989 99.9688C98.7694 100.77 98.8452 101.624 98.7201 102.461C98.5949 103.297 98.2724 104.092 97.7791 104.779C97.2859 105.466 96.6362 106.026 95.8837 106.412C95.1311 106.798 94.2975 107 93.4517 107H130.741C131.586 107 132.42 106.798 133.172 106.412C133.924 106.026 134.574 105.466 135.067 104.779C135.56 104.092 135.883 103.297 136.008 102.461C136.133 101.624 136.057 100.77 135.787 99.9688L103.427 4.08666Z" fill="#4584CC"/>
</svg>
