<svg width="160" height="140" viewBox="0 0 160 140" fill="none" xmlns="http://www.w3.org/2000/svg">
<path d="M135.228 27C125.655 27 117.673 33.7086 115.848 42.6185V27L96.0189 46.4995L76.2463 27V42.6185C74.4215 33.7084 66.4383 27 56.8661 27C47.2949 27 39.3125 33.7071 37.4868 42.6155C36.7794 39.1663 35.1496 36.0467 32.8614 33.5189C29.2402 29.5189 23.9728 27 18.1081 27H5V66H18.1081C23.9726 66 29.24 63.4811 32.861 59.4813C35.1494 56.9537 36.7792 53.8339 37.4868 50.3845C39.3127 59.2929 47.2949 66 56.8661 66C66.4383 66 74.4215 59.2914 76.2463 50.3813V66H82.799V42.6786L96.0189 55.7158L109.181 42.6786V65.9998H115.848V50.3811C117.673 59.2912 125.656 65.9998 135.228 65.9998C146.148 65.9998 155 57.2693 155 46.4999C155 35.7303 146.148 27 135.228 27ZM18.9669 59.4811H11.5528V33.5187H18.9718C25.8552 33.9579 31.3018 39.5999 31.3018 46.4997C31.3018 53.4012 25.8528 59.0445 18.9669 59.4811ZM56.8661 59.5116C49.5794 59.5116 43.6724 53.686 43.6724 46.4997C43.6724 39.3135 49.5794 33.4878 56.8661 33.4878C64.1527 33.4878 70.0597 39.3135 70.0597 46.4997C70.0597 53.686 64.1527 59.5116 56.8661 59.5116ZM135.228 59.5116C127.941 59.5116 122.034 53.686 122.034 46.4997C122.034 39.3135 127.941 33.4878 135.228 33.4878C142.514 33.4878 148.421 39.3135 148.421 46.4997C148.421 53.686 142.514 59.5116 135.228 59.5116Z" fill="#3860AC"/>
</svg>
