<svg width="160" height="190" viewBox="0 0 160 190" fill="none" xmlns="http://www.w3.org/2000/svg">
<path d="M126 85.0909H79.5238C68.2705 85.0909 62 92.8327 62 101.045C62 108.643 67.3333 117 79.5238 117H126V85.0909Z" fill="#3860AC"/>
<path d="M78 42.5455H31.5238C20.2705 42.5455 14 50.2872 14 58.5C14 66.0974 19.3333 74.4545 31.5238 74.4545H78V42.5455Z" fill="#3860AC"/>
<path d="M126 0H79.5238C68.2705 0 62 7.74175 62 15.9545C62 23.5519 67.3333 31.9091 79.5238 31.9091H126V0Z" fill="#3860AC"/>
<path d="M123.8 117C132.747 117 140 109.857 140 101.045C140 92.234 132.747 85.0909 123.8 85.0909C114.853 85.0909 107.6 92.234 107.6 101.045C107.6 109.857 114.853 117 123.8 117Z" fill="#2B519B"/>
<path d="M75.2 74.4545C84.147 74.4545 91.4 67.3114 91.4 58.5C91.4 49.6885 84.147 42.5455 75.2 42.5455C66.253 42.5455 59 49.6885 59 58.5C59 67.3114 66.253 74.4545 75.2 74.4545Z" fill="#2B519B"/>
<path d="M123.8 31.9091C132.747 31.9091 140 24.766 140 15.9545C140 7.14309 132.747 0 123.8 0C114.853 0 107.6 7.14309 107.6 15.9545C107.6 24.766 114.853 31.9091 123.8 31.9091Z" fill="#2B519B"/>
</svg>
