<svg width="160" height="241" viewBox="0 0 160 241" fill="none" xmlns="http://www.w3.org/2000/svg">
<path d="M97.0493 29.282H100.944L112.046 18.1801L112.59 13.4649C91.9278 -4.77495 60.3933 -2.80452 42.1535 17.8581C37.0856 23.593 33.4131 30.4243 31.4043 37.8153C32.6387 37.3093 34.0111 37.225 35.2991 37.5853L57.5028 33.9205C57.5028 33.9205 58.6299 32.0497 59.2202 32.1648C69.0954 21.3159 85.7175 20.0509 97.126 29.282H97.0493Z" fill="#3860AC"/>
<path d="M127.861 37.8157C125.307 28.4159 120.071 19.9669 112.787 13.5112L97.2078 29.0906C103.786 34.4652 107.535 42.5692 107.374 51.0643V53.8321C115.034 53.8321 121.244 60.0424 121.244 67.7017C121.244 75.3611 115.034 81.5714 107.374 81.5714H79.635L76.8672 84.3775V101.015L79.635 103.783H107.374C127.293 103.936 143.57 87.912 143.724 67.9931C143.816 55.8945 137.858 44.578 127.861 37.8157Z" fill="#2B519B"/>
<path d="M51.8603 103.606H79.5995V81.4021H51.8603C49.8822 81.4021 47.9348 80.9727 46.133 80.1523L42.2382 81.3637L31.0596 92.4656L30.0859 96.3604C36.3499 101.099 44.0016 103.644 51.8603 103.606Z" fill="#3860AC"/>
<path d="M51.8593 31.5823C31.9327 31.6973 15.8856 47.9438 16.0006 67.8703C16.0696 78.9952 21.2602 89.4683 30.0849 96.246L46.1703 80.1606C39.1933 77.0094 36.0882 68.7904 39.2394 61.8134C42.3905 54.8364 50.6095 51.7313 57.5865 54.8824C60.661 56.2701 63.1221 58.7389 64.5175 61.8134L80.6029 45.728C73.7639 36.7729 63.1221 31.5363 51.8593 31.5823Z" fill="#4584CC"/>
</svg>
