<svg width="161" height="240" viewBox="0 0 161 240" fill="none" xmlns="http://www.w3.org/2000/svg">
<mask id="mask0_593_6497" style="mask-type:alpha" maskUnits="userSpaceOnUse" x="0" y="0" width="128" height="101">
<path d="M81.8491 0.437988C83.3549 0.437988 84.7894 1.07934 85.7934 2.20153L126.046 47.1898C127.844 49.1992 127.844 52.2388 126.046 54.2482L85.7934 99.2365C84.7894 100.359 83.3549 101 81.8491 101H6.07656C1.50156 101 -0.918406 95.5876 2.13218 92.1781L39.2272 50.719L2.13218 9.25993C-0.918406 5.85048 1.50156 0.437988 6.07656 0.437988H81.8491Z" fill="white"/>
</mask>
<g mask="url(#mask0_593_6497)">
<path d="M84.2188 0.437988L39.2305 50.719L-5.75781 0.437988H84.2188Z" fill="#2B519B"/>
<path d="M-5.75781 101L84.2188 0.437988L129.207 50.719L84.2188 101H-5.75781Z" fill="#4584CC"/>
<path d="M-5.75781 101L84.2188 0.437988L106.713 25.5785L39.2305 101H-5.75781Z" fill="#3860AC"/>
</g>
</svg>
