<svg width="160" height="240" viewBox="0 0 160 240" fill="none" xmlns="http://www.w3.org/2000/svg">
<mask id="mask0_593_6424" style="mask-type:alpha" maskUnits="userSpaceOnUse" x="13" y="0" width="135" height="131">
<path d="M15.0901 59.6251C12.3033 62.81 12.3033 67.5656 15.0901 70.7504L65.1166 127.924C67.3603 130.488 71.3494 130.488 73.5931 127.924L78.9803 121.767L84.9128 128.238C87.1449 130.673 90.9836 130.673 93.2155 128.238L145.78 70.8958C148.74 67.6662 148.74 62.7093 145.78 59.4797L93.2155 2.13699C90.9836 -0.297942 87.1449 -0.297942 84.9128 2.13699L78.9803 8.60877L73.5931 2.45191C71.3494 -0.112324 67.3603 -0.112324 65.1166 2.45191L15.0901 59.6251Z" fill="white"/>
</mask>
<g mask="url(#mask0_593_6424)">
<path d="M69.3548 132.767L10.2227 65.1878L69.3548 -2.39172L128.487 65.1878L69.3548 132.767Z" fill="#2B519B"/>
<path d="M89.0636 -2.39172L151.011 65.1878L89.0636 132.767L61.578 102.783C59.6042 100.63 59.6042 97.3253 61.578 95.1722L85.5753 68.9933C87.5489 66.8401 87.5489 63.5355 85.5753 61.3824L61.578 35.2035C59.6042 33.0504 59.6042 29.7457 61.578 27.5926L89.0636 -2.39172Z" fill="#3860AC"/>
<path d="M115.885 35.9271C118.117 33.4921 121.956 33.4921 124.187 35.9271L151.01 65.188L124.187 94.449C121.956 96.884 118.117 96.884 115.885 94.449L94.2946 70.8961C91.3341 67.6665 91.3341 62.7095 94.2946 59.4799L115.885 35.9271Z" fill="#4584CC"/>
</g>
</svg>
