<svg width="160" height="190" viewBox="0 0 160 190" fill="none" xmlns="http://www.w3.org/2000/svg">
<path d="M96.7333 8.00607C90.9961 8.03247 85.5179 8.51701 80.7006 9.36213C66.4953 11.8474 63.9171 17.0473 63.9171 26.6414V39.3096H97.4717V43.5315H63.9171H51.3263C41.574 43.5315 33.0283 49.3375 30.3625 60.3769C27.2811 73.0327 27.1447 80.941 30.3625 94.1546C32.748 103.994 38.4451 111 48.1973 111H59.7356V95.8156C59.7356 84.8456 69.3189 75.1647 80.6994 75.1647H114.216C123.547 75.1647 131 67.5564 131 58.2821V26.6365C131 17.6299 123.328 10.8694 114.216 9.35717C108.452 8.40681 102.47 7.97508 96.732 8.00111L96.7333 8.00607ZM78.5855 18.1939C82.0523 18.1939 84.8821 21.0436 84.8821 24.5466C84.8821 28.0371 82.0511 30.8608 78.5855 30.8608C75.1074 30.8608 72.2888 28.0384 72.2888 24.5466C72.2888 21.0436 75.1074 18.1939 78.5855 18.1939Z" fill="#2B519B"/>
<path d="M99.1104 48V62.652C99.1104 74.0082 89.3368 83.5658 78.1919 83.5658H44.7473C35.5856 83.5658 28 91.2891 28 100.321V131.729C28 140.668 35.8916 145.926 44.7473 148.485C55.3464 151.555 65.5159 152.11 78.1919 148.485C86.6217 146.081 94.9392 141.241 94.9392 131.729V119.156H61.4946V114.966H94.9392H111.686C121.418 114.966 125.049 108.28 128.434 98.2473C131.929 87.9146 131.781 77.9732 128.434 64.7237C126.028 55.1808 121.435 48.0049 111.686 48.0049H99.1229L99.1104 48ZM80.3025 127.546C83.7731 127.546 86.5855 130.347 86.5855 133.813C86.5855 137.29 83.7731 140.118 80.3025 140.118C76.8431 140.118 74.0194 137.29 74.0194 133.813C74.0194 130.349 76.8444 127.546 80.3025 127.546Z" fill="#4584CC"/>
</svg>
