<svg width="160" height="240" viewBox="0 0 160 240" fill="none" xmlns="http://www.w3.org/2000/svg">
<path fill-rule="evenodd" clip-rule="evenodd" d="M83.3971 84.202C52.8022 84.202 28 67.5914 28 47.1011C28 26.6107 52.8022 10 83.3971 10C113.992 10 138.794 26.6107 138.794 47.1011C138.794 67.5914 113.992 84.202 83.3971 84.202ZM91.8766 24.5052C68.6218 24.5052 49.77 35.861 49.77 49.8691C49.77 63.8771 68.6218 75.2329 91.8766 75.2329C115.131 75.2329 132.293 67.4692 132.293 49.8691C132.293 32.2744 115.131 24.5052 91.8766 24.5052V24.5052Z" fill="#4584CC"/>
<path fill-rule="evenodd" clip-rule="evenodd" d="M112.37 67.4641C112.37 67.4641 115.722 68.4759 117.67 69.4616C118.346 69.8036 119.516 70.4861 120.359 71.3822C121.186 72.2598 121.588 73.1491 121.588 73.1491L134.802 95.428L113.445 95.4375L103.458 76.683C103.458 76.683 101.413 73.1692 100.155 72.1504C99.1049 71.3006 98.6573 70.998 97.6194 70.998H92.545L92.549 95.424L73.6504 95.432V33.0376H111.601C111.601 33.0376 128.887 33.3493 128.887 49.7947C128.887 66.24 112.37 67.4641 112.37 67.4641ZM104.149 46.5718L92.7084 46.5644L92.7027 57.1738L104.149 57.1701C104.149 57.1701 109.45 57.1536 109.45 51.7732C109.45 46.2846 104.149 46.5718 104.149 46.5718Z" fill="#3860AC"/>
</svg>
