<svg width="160" height="240" viewBox="0 0 160 240" fill="none" xmlns="http://www.w3.org/2000/svg">
<path d="M77.352 69.1191C96.3565 69.1191 111.763 53.713 111.763 34.7085C111.763 15.704 96.3565 0.297852 77.352 0.297852C58.3476 0.297852 42.9414 15.704 42.9414 34.7085C42.9414 53.713 58.3476 69.1191 77.352 69.1191Z" fill="#2B519B"/>
<path d="M110.489 94.6085C126.678 94.6085 139.801 81.4847 139.801 65.2957C139.801 49.1067 126.678 35.9829 110.489 35.9829C94.2996 35.9829 81.1758 49.1067 81.1758 65.2957C81.1758 81.4847 94.2996 94.6085 110.489 94.6085Z" fill="#3860AC"/>
<path d="M81.1748 115C93.8445 115 104.115 104.729 104.115 92.0598C104.115 79.3902 93.8445 69.1194 81.1748 69.1194C68.5052 69.1194 58.2344 79.3902 58.2344 92.0598C58.2344 104.729 68.5052 115 81.1748 115Z" fill="#2B519B"/>
<path d="M76.0766 89.5109H25.0979C22.2813 89.5109 20 87.2296 20 84.413V33.4343C20 30.6177 22.2813 28.3364 25.0979 28.3364H76.0766C78.8932 28.3364 81.1745 30.6177 81.1745 33.4343V84.413C81.1745 87.2296 78.8932 89.5109 76.0766 89.5109Z" fill="#4584CC"/>
<path d="M42.3282 58.3053C41.0601 57.4386 40.0915 56.4063 39.4097 55.2211C38.7342 54.0358 38.3965 52.6275 38.3965 51.0026C38.3965 48.836 39.0273 47.0135 40.2827 45.5415C41.5444 44.0695 43.214 42.9734 45.3041 42.2661C47.3942 41.5588 49.6819 41.2019 52.1671 41.2019C55.9778 41.2019 58.9919 41.6225 61.2031 42.47V48.8551C60.0242 48.1223 58.6605 47.5615 57.1121 47.1792C55.5636 46.7968 53.9705 46.6057 52.3328 46.6057C50.3574 46.6057 48.7197 46.9498 47.4197 47.6443C46.1198 48.3389 45.4698 49.3203 45.4698 50.5947C45.4698 51.3913 45.7438 52.0859 46.2918 52.6849C46.8398 53.2839 47.5854 53.8128 48.5158 54.2716C49.4461 54.7368 50.8417 55.3485 52.6896 56.1132C53.0083 56.2279 53.2058 56.3044 53.2886 56.3553C55.4744 57.2475 57.2268 58.1141 58.5458 58.9489C59.8713 59.7837 60.9036 60.8287 61.6555 62.0777C62.4075 63.3267 62.7771 64.9006 62.7771 66.7996C62.7771 69.1255 62.1844 71.0245 61.0056 72.4901C59.8267 73.9557 58.2463 75.0135 56.2709 75.6699C54.2955 76.3263 52.046 76.6512 49.529 76.6512C47.3751 76.6512 45.3423 76.4856 43.4179 76.1478C41.4998 75.8101 39.843 75.3322 38.4538 74.7141V67.9721C39.8111 68.9789 41.4807 69.7755 43.4752 70.3617C45.4698 70.9544 47.3114 71.2475 49.0001 71.2475C51.2176 71.2475 52.8872 70.8906 54.0087 70.1833C55.1303 69.476 55.6974 68.4755 55.6974 67.1819C55.6974 66.3026 55.3851 65.5379 54.7543 64.8879C54.1234 64.2315 53.2568 63.6262 52.148 63.0718C51.0392 62.511 49.4015 61.7782 47.2349 60.8733C45.234 60.0322 43.5963 59.1719 42.3282 58.3053Z" fill="#E3EFFF"/>
</svg>
