<svg width="160" height="190" viewBox="0 0 160 190" fill="none" xmlns="http://www.w3.org/2000/svg">
<path d="M99.7789 55.1056H83.2925V37.3613H76.8022V55.1056H60.2685V61.3794H76.8022V79.1236H83.2925V61.3794H99.7789V55.1056Z" fill="#3860AC"/>
<path d="M66.6167 84.0396H51.7884V68.1681H46.2456V84.0396H31.4173V88.9088H46.2456V104.78H51.7884V88.9088H66.6167V84.0396Z" fill="#3860AC"/>
<path d="M128.63 27.2485H113.849V11.3301H108.259V27.2485H93.4781V32.1176H108.259V47.8956H113.849V32.1176H128.63V27.2485Z" fill="#3860AC"/>
<path d="M92.578 101.643H82.5345V90.5942H77.7497V101.643H67.7063V105.951H77.7497V117H82.5345V105.951H92.578V101.643Z" fill="#3860AC"/>
<path d="M66.6167 27.2485H51.6463V11.3301H46.3877V27.2485H31.4173V31.9304H46.3877V47.8956H51.6463V31.9304H66.6167V27.2485Z" fill="#3860AC"/>
<path d="M140 56.1357H129.957V45.0396H125.172V56.1357H115.176V60.3962H125.172V71.4922H129.957V60.3962H140V56.1357Z" fill="#3860AC"/>
<path fill-rule="evenodd" clip-rule="evenodd" d="M128.63 84.0396H113.849V68.1681H108.259V84.0396H93.4781V88.9088H108.259V104.78H113.849V88.9088H128.63V84.0396Z" fill="#3860AC"/>
<path d="M78.3182 0V10.8619H68.4169V14.1393H78.3182V25.0012H81.9187V14.1393H91.82V10.8619H81.9187V0H78.3182Z" fill="#3860AC"/>
<path d="M29.9013 45.8824V56.557H20V59.9748L29.9013 59.8812V70.6026H33.407V59.8812L43.4031 59.8343V56.557H33.407V45.8824H29.9013Z" fill="#3860AC"/>
</svg>
