<svg width="2714" height="766" viewBox="0 0 2714 766" fill="none" xmlns="http://www.w3.org/2000/svg">
<path d="M1.67038 765C-5.24073 650.389 38.398 451.152 268.242 571.094C555.547 721.021 613.008 254.248 900.313 412.671C1187.62 571.094 1412.72 708.028 1678.7 505.126C1944.68 302.224 2296.56 68.8376 2557.8 165.791M1.67048 527.115C50.2457 432.994 201.777 265.042 419.299 346.203C691.202 447.654 1019.97 549.105 1281.21 302.224C1542.45 55.3441 1684.03 -103.579 1913.88 81.8313C2143.72 267.241 2394.3 522.118 2713 346.203M1.28172 734.702C-2.98718 621.067 45.7893 423.32 275.047 541.415C561.618 689.034 631.999 249.319 918.062 388.442C1204.13 527.565 1425.25 650.41 1689.51 465.999C1953.77 281.589 2300.82 71.4524 2564.8 155.412M1.099 704.449C-0.527697 591.79 53.3865 395.532 282.057 511.781C567.895 657.091 651.195 244.434 936.018 364.257C1220.84 484.08 1437.99 592.837 1700.53 426.917C1963.07 260.998 2305.29 74.1121 2572.01 145.078M1.09603 674.263C2.11154 562.579 61.1635 367.811 289.247 482.213C574.352 625.215 670.572 239.616 954.153 340.139C1237.73 440.662 1450.91 535.33 1711.72 387.901C1972.54 240.473 2309.94 76.838 2579.39 134.81M1.12785 644.179C4.78557 533.471 68.9753 340.193 296.472 452.748C580.844 593.442 689.983 234.902 972.323 316.124C1254.66 397.347 1463.86 477.927 1722.95 348.989C1982.05 220.052 2314.63 79.6674 2586.82 124.646M1.15967 614.271C7.45959 504.539 76.787 312.751 303.697 423.459C587.335 561.844 709.394 230.362 990.493 292.285C1271.59 354.207 1476.81 420.699 1734.19 310.252C1991.56 199.806 2319.32 82.672 2594.24 114.656M1.19148 584.697C10.1336 475.941 84.5988 285.642 310.922 394.504C593.827 530.581 728.805 226.157 1008.66 268.779C1288.52 311.401 1489.76 363.805 1745.42 271.849C2001.07 179.894 2324 86.0107 2601.66 105.001M1.2233 555.897C12.8076 448.116 92.4105 259.307 318.147 366.322C600.318 500.09 748.216 222.725 1026.83 246.047C1305.45 269.369 1502.71 307.684 1756.65 234.219C2010.58 160.755 2328.69 90.1226 2609.08 96.1197M1.2557 528.852C15.4823 422.047 100.223 234.728 325.373 339.896C606.811 471.356 767.628 221.049 1045 225.071C1322.38 229.093 1515.66 253.319 1767.88 198.346C2020.09 143.373 2333.38 95.9909 2616.51 88.9943M1.28751 502.165C18.1563 396.335 108.035 210.506 332.598 313.827C613.302 442.979 787.039 219.73 1063.17 204.452C1339.31 189.174 1528.62 199.312 1779.11 162.829C2029.6 126.347 2338.06 102.216 2623.93 82.2255M1.31933 475.477C20.8303 370.623 115.846 186.284 339.823 287.758C619.794 414.602 806.45 218.411 1081.34 183.833C1356.24 149.254 1541.57 145.304 1790.34 127.312C2039.11 109.321 2342.75 108.441 2631.35 75.4567M1.35115 448.789C23.5043 344.911 123.658 162.062 347.048 261.69C626.285 386.224 825.861 217.092 1099.51 163.214C1373.17 109.335 1554.52 91.2961 1801.57 91.7958C2048.62 92.2956 2347.44 114.666 2638.77 68.688M1.38297 433.1C26.1784 330.197 131.47 148.837 354.273 246.619C632.777 368.845 845.273 226.771 1117.68 153.592C1390.09 80.4135 1567.47 48.2862 1812.8 67.277C2058.13 86.2678 2352.12 131.888 2646.2 72.9171M1.41478 442.846C28.8524 340.92 139.282 161.05 361.498 256.984C639.268 376.902 864.684 261.887 1135.85 169.408C1407.02 76.9286 1580.42 30.7129 1824.03 68.1947C2067.64 105.677 2356.81 174.548 2653.62 102.583M1.44718 453.079C31.527 352.128 147.094 173.748 368.724 267.836C645.761 385.445 884.095 297.488 1154.02 185.709C1423.95 73.9297 1593.37 13.6256 1835.26 69.5985C2077.15 125.571 2361.49 217.693 2661.04 132.735M1.479 463.501C34.201 363.526 154.906 186.636 375.949 278.877C652.252 394.178 903.507 333.279 1172.19 202.2C1440.88 71.1203 1606.32 -3.27223 1846.49 71.1917C2086.66 145.656 2366.18 261.028 2668.46 163.076M1.51081 474.018C36.875 375.018 162.718 199.618 383.174 290.012C658.744 403.005 922.918 369.164 1190.36 218.785C1457.81 68.4051 1619.28 -20.0758 1857.72 72.8791C2096.17 165.834 2370.87 304.457 2675.89 193.511M1.54263 484.588C39.5491 386.564 170.529 212.653 390.399 301.201C665.235 411.885 942.329 405.103 1208.53 235.423L1215.08 231.252C1477.33 64.0716 1634.17 -35.9093 1868.95 74.6204C2105.68 186.066 2375.55 347.94 2683.31 224M1.57445 495.192C42.2231 398.144 178.341 225.723 397.624 312.424C671.727 420.8 961.74 441.076 1226.7 252.096C1491.67 63.1163 1645.18 -53.5415 1880.18 76.3955C2115.19 206.333 2380.24 391.457 2690.73 254.523M1.60684 505.819C44.8977 409.747 186.153 238.815 404.849 323.669C678.219 429.737 981.152 477.071 1244.87 268.791C1508.6 60.5112 1658.13 -70.2349 1891.42 78.1931C2124.7 226.621 2384.93 434.996 2698.16 285.069M1.63866 516.461C47.5717 421.365 193.965 251.923 412.074 334.93C684.711 438.69 1000.56 513.082 1263.04 285.502C1525.53 57.9219 1671.08 -86.9126 1902.65 80.0064C2134.21 246.925 2389.61 478.551 2705.58 315.63" stroke="url(#paint0_linear_236_195)"/>
<defs>
<linearGradient id="paint0_linear_236_195" x1="1357" y1="1" x2="1357" y2="765" gradientUnits="userSpaceOnUse">
<stop stop-color="#081426"/>
<stop offset="1" stop-color="#081626" stop-opacity="0.15"/>
</linearGradient>
</defs>
</svg>
