<svg width="14" height="14" viewBox="0 0 14 14" fill="none" xmlns="http://www.w3.org/2000/svg">
<path d="M3.125 14H0.21875V4.65625H3.125V14ZM1.6875 3.375C1.22917 3.375 0.833333 3.20833 0.5 2.875C0.166667 2.54167 0 2.14583 0 1.6875C0 1.22917 0.166667 0.833333 0.5 0.5C0.833333 0.166667 1.22917 0 1.6875 0C1.97917 0 2.25 0.0729167 2.5 0.21875C2.77083 0.364583 2.97917 0.572917 3.125 0.84375C3.29167 1.09375 3.375 1.375 3.375 1.6875C3.375 1.97917 3.29167 2.26042 3.125 2.53125C2.97917 2.78125 2.77083 2.98958 2.5 3.15625C2.25 3.30208 1.97917 3.375 1.6875 3.375ZM14 14H11.0938V9.4375C11.0938 9.08333 11.0833 8.80208 11.0625 8.59375C11.0417 8.36458 10.9896 8.11458 10.9062 7.84375C10.8229 7.55208 10.6667 7.33333 10.4375 7.1875C10.2292 7.04167 9.94792 6.96875 9.59375 6.96875C8.90625 6.96875 8.4375 7.1875 8.1875 7.625C7.95833 8.0625 7.84375 8.64583 7.84375 9.375V14H4.9375V4.65625H7.75V5.9375H7.78125C7.98958 5.52083 8.33333 5.16667 8.8125 4.875C9.29167 4.5625 9.86458 4.40625 10.5312 4.40625C11.2396 4.40625 11.8229 4.52083 12.2812 4.75C12.7604 4.95833 13.1146 5.28125 13.3438 5.71875C13.5938 6.13542 13.7604 6.59375 13.8438 7.09375C13.9479 7.59375 14 8.1875 14 8.875V14Z" fill="#5370A8"/>
</svg>
