<svg width="2714" height="766" viewBox="0 0 2714 766" fill="none" xmlns="http://www.w3.org/2000/svg">
<path d="M1.67038 1C1.02649 11.678 0.821382 23.0907 1.16477 34.9114M1.16477 34.9114C4.50704 149.965 59.812 303.673 268.242 194.906C453.774 98.0878 543.458 258.444 661.085 341.536M1.16477 34.9114C1.19778 33.6979 1.2368 32.4932 1.28171 31.2979M1.16477 34.9114C-1.94104 149.059 48.201 341.438 275.047 224.585C448.488 135.242 542.738 261.041 653.543 343.444M661.085 341.536C665.797 344.865 670.554 348.07 675.364 351.129M661.085 341.536C658.569 342.165 656.055 342.801 653.543 343.444M661.085 341.536C763.021 316.053 867.557 302.414 969.516 315.118M675.364 351.129C681.379 354.955 687.477 358.553 693.672 361.882M675.364 351.129C672.469 351.721 669.575 352.324 666.682 352.939M675.364 351.129C760.868 333.65 847.524 326.065 932.859 335.348M693.672 361.882C702.499 366.624 711.525 370.819 720.795 374.345M693.672 361.882C689.979 362.434 686.286 363.006 682.594 363.6M693.672 361.882C761.242 351.789 829.146 348.764 896.475 355.416M720.795 374.345C759.632 389.118 802.754 392.153 853.471 374.51M720.795 374.345C714.966 374.802 709.138 375.318 703.309 375.891M720.795 374.345C765.073 370.871 809.352 370.767 853.471 374.51M853.471 374.51C867.225 369.725 881.538 363.42 896.475 355.416M853.471 374.51C872.288 376.106 891.075 378.402 909.82 381.435M896.475 355.416C897.75 354.733 899.029 354.037 900.313 353.329C911.25 347.298 922.096 341.299 932.859 335.348M896.475 355.416C913.943 357.141 931.372 359.518 948.746 362.592M932.859 335.348C945.186 328.532 957.402 321.78 969.516 315.118M932.859 335.348C951.123 337.335 969.326 340.095 987.445 343.696M969.516 315.118C1224.66 174.806 1434.44 74.543 1678.7 260.874C1805.79 357.819 1952.48 461.724 2099.52 533.231M969.516 315.118C988.458 317.478 1007.31 320.748 1026.04 325.02M2099.52 533.231C2102.45 534.654 2105.38 536.065 2108.31 537.463M2099.52 533.231C2096.66 535.429 2093.81 537.636 2090.96 539.851M2099.52 533.231C2279.6 394.827 2477.74 289.94 2713 419.797M2108.31 537.463C2112.27 539.354 2116.23 541.222 2120.19 543.064M2108.31 537.463C2105.26 539.501 2102.23 541.549 2099.2 543.607M2108.31 537.463C2285.45 418.771 2480.09 334.103 2705.58 450.37M2120.19 543.064C2125.48 545.521 2130.76 547.935 2136.04 550.302M2120.19 543.064C2116.96 544.918 2113.72 546.783 2110.5 548.66M2120.19 543.064C2293.53 443.785 2483.38 378.13 2698.16 480.931M2136.04 550.302C2143.08 553.456 2150.11 556.529 2157.14 559.516M2136.04 550.302C2132.59 551.946 2129.15 553.603 2125.71 555.273M2136.04 550.302C2304.4 470.023 2487.87 422.009 2690.73 511.477M2157.14 559.516C2166.65 563.556 2176.15 567.438 2185.64 571.153M2157.14 559.516C2153.46 560.924 2149.78 562.349 2146.1 563.788M2157.14 559.516C2318.92 497.687 2493.95 465.739 2683.31 542M2185.64 571.153C2199.02 576.393 2212.38 581.298 2225.69 585.838M2185.64 571.153C2181.66 572.302 2177.68 573.47 2173.71 574.655M2185.64 571.153C2338.51 527.042 2502.28 509.344 2675.89 572.489M2225.69 585.838C2246.84 593.052 2267.88 599.345 2288.76 604.597M2225.69 585.838C2221.24 586.706 2216.79 587.596 2212.36 588.507M2225.69 585.838C2365.88 558.505 2514.21 552.94 2668.46 602.924M2288.76 604.597C2375.56 626.436 2459.46 630.263 2536.22 607.413M2288.76 604.597C2283.02 605.151 2277.29 605.74 2271.58 606.364M2288.76 604.597C2369.27 596.826 2451.97 596.104 2536.22 607.413M2536.22 607.413C2543.48 605.253 2550.67 602.854 2557.8 600.209M2536.22 607.413C2544.95 608.585 2553.7 609.886 2562.47 611.322M1.67038 238.885C3.70156 242.82 5.91273 246.885 8.30124 251.055M8.30124 251.055C12.2811 258.004 16.7535 265.246 21.7055 272.671M8.30124 251.055C4.90763 236.689 2.59133 222.831 1.22336 210.103M8.30124 251.055C10.0138 258.305 12.0007 265.685 14.2783 273.115M21.7055 272.671C51.1373 316.802 97.5175 367.42 158.221 401.591M21.7055 272.671C9.81971 241.093 3.43783 208.624 1.19138 181.303M21.7055 272.671C26.4924 285.389 32.172 297.962 38.8337 309.997M158.221 401.591C178.501 413.007 200.379 422.587 223.758 429.477M158.221 401.591C141.556 398.737 126.472 393.472 112.853 386.316M158.221 401.591C199.047 408.582 249.368 401.104 310.922 371.496C417.541 320.213 503.149 331.494 583.421 363.186M223.758 429.477C244.507 435.591 266.439 439.586 289.484 440.865M223.758 429.477C211.509 431.132 199.863 431.716 188.798 431.343M223.758 429.477C251.93 425.67 283.297 416.199 318.147 399.678C406.515 357.786 481.714 356.216 551.883 373.105M289.484 440.865C329.515 443.085 372.906 437.107 419.299 419.797C447.717 409.194 476.755 398.591 506.272 388.386M289.484 440.865C278.372 444.788 267.643 447.95 257.286 450.404M289.484 440.865C301.03 436.788 312.989 431.888 325.373 426.104C391.271 395.322 450.556 385.472 506.272 388.386M506.272 388.386C521.357 383.171 536.567 378.059 551.883 373.105M506.272 388.386C513.628 388.771 520.921 389.378 528.159 390.189M551.883 373.105C562.348 369.72 572.863 366.408 583.421 363.186M551.883 373.105C557.677 374.499 563.437 376.02 569.167 377.654M583.421 363.186C590.987 360.877 598.576 358.614 606.185 356.404M583.421 363.186C588.48 365.183 593.517 367.261 598.538 369.41M606.185 356.404C611.771 354.782 617.367 353.188 622.973 351.624M606.185 356.404C518.262 310.561 426.001 282.87 303.697 342.541C76.787 453.249 7.45957 261.461 1.15964 151.729M606.185 356.404C610.819 358.82 615.44 361.286 620.053 363.793M622.973 351.624C627.179 350.452 631.391 349.296 635.607 348.159M622.973 351.624C528.818 293.073 432.774 245.816 296.472 313.252C68.9751 425.807 4.78562 232.529 1.1279 121.821M622.973 351.624C627.348 354.345 631.72 357.09 636.091 359.85M635.607 348.159C638.871 347.279 642.138 346.41 645.408 345.552M635.607 348.159C535.934 278.89 438.458 208.946 289.247 283.787C61.1635 398.189 2.11143 203.421 1.09592 91.7374M635.607 348.159C639.847 351.106 644.091 354.051 648.342 356.984M645.408 345.552C648.118 344.842 650.829 344.139 653.543 343.444M645.408 345.552C540.364 268.101 443.527 172.134 282.057 254.219C53.3866 370.468 -0.527606 174.21 1.09909 61.5507M645.408 345.552C649.63 348.666 653.866 351.749 658.12 354.79M653.543 343.444C657.895 346.681 662.273 349.851 666.682 352.939M1026.04 325.02C1044.57 329.246 1062.99 334.454 1081.25 340.732M1026.04 325.02C1013.29 331.136 1000.43 337.371 987.445 343.696M1026.04 325.02C1262.05 211.797 1459.43 139.443 1689.51 300.001C1811.17 384.901 1950.38 475.254 2090.96 539.851M1081.25 340.732C1099.06 346.858 1116.74 354.003 1134.23 362.252M1081.25 340.732C1068.16 346.063 1054.95 351.535 1041.61 357.116M1081.25 340.732C1298.98 252.068 1484.37 202.473 1700.53 339.083C1816.47 412.355 1947.95 489.716 2081.6 547.152M1134.23 362.252C1151.06 370.185 1167.73 379.137 1184.2 389.185M1134.23 362.252C1121.14 366.627 1107.93 371.152 1094.59 375.797M1134.23 362.252C1334.92 295.202 1508.92 263.463 1711.72 378.099C1821.6 440.206 1945.07 505.189 2071.32 555.27M1184.2 389.185C1199.85 398.728 1215.34 409.258 1230.62 420.84M1184.2 389.185C1171.45 392.53 1158.59 396.018 1145.62 399.623M1184.2 389.185C1369.36 340.624 1532.7 322.334 1722.95 417.011C1826.39 468.486 1941.54 521.785 2059.88 564.386M1230.62 420.84C1244.97 431.709 1259.15 443.503 1273.14 456.275M1230.62 420.84C1218.53 423.182 1206.34 425.647 1194.05 428.212M1230.62 420.84C1401.91 387.677 1555.47 379.058 1734.19 455.748C1830.76 497.19 1937.24 539.573 2047.12 574.667M1273.14 456.275C1275.84 458.739 1278.53 461.239 1281.21 463.776C1292.07 474.035 1302.72 484.143 1313.18 494.08M1273.14 456.275C1261.95 457.725 1250.7 459.267 1239.36 460.885M1273.14 456.275C1432.3 435.643 1577.06 433.594 1745.42 494.151C1834.64 526.242 1932.05 558.569 2032.88 586.25M1313.18 494.08C1327.03 507.247 1340.55 520.115 1353.77 532.641M1313.18 494.08C1302.67 494.823 1292.1 495.629 1281.46 496.489M1313.18 494.08C1461.33 483.613 1597.92 485.86 1756.65 531.781C1838.02 555.323 1925.99 578.575 2017.2 599.108M1353.77 532.641C1368.55 546.644 1382.95 560.219 1397.02 573.308M1353.77 532.641C1343.8 532.807 1333.78 533.011 1323.71 533.245M1353.77 532.641C1490.87 530.358 1619.13 535.231 1767.88 567.654C1841.06 583.605 1919.38 598.916 2000.62 612.788M1397.02 573.308C1413.25 588.407 1429.04 602.858 1444.47 616.569M1397.02 573.308C1387.78 573.024 1378.51 572.752 1369.19 572.487M1397.02 573.308C1522.28 577.153 1641.46 583.123 1779.11 603.171C1842.92 612.465 1910.5 620.957 1980.5 628.784M1444.47 616.569C1462.95 632.983 1480.9 648.337 1498.46 662.474M1444.47 616.569C1436.26 616.012 1428.03 615.445 1419.77 614.864M1444.47 616.569C1556.68 624.168 1665.52 629.661 1790.34 638.688C1842.27 642.443 1896.58 645.453 1952.65 648.165M1498.46 662.474C1514.52 675.407 1530.26 687.32 1545.76 698.094M1498.46 662.474C1491.76 661.886 1485.07 661.274 1478.36 660.638M1498.46 662.474C1595.76 671.015 1692.23 674.425 1801.57 674.204C1835.94 674.135 1871.31 673.642 1907.53 672.969M1545.76 698.094C1549.24 700.51 1552.7 702.869 1556.16 705.169M1545.76 698.094C1540.78 697.645 1535.79 697.171 1530.81 696.673M1545.76 698.094C1630.88 705.757 1716.62 706.169 1812.8 698.723C1816.38 698.446 1819.98 698.162 1823.58 697.874M1556.16 705.169C1559.44 707.349 1562.7 709.477 1565.96 711.551M1556.16 705.169C1551.42 704.657 1546.69 704.111 1541.95 703.532M1556.16 705.169C1641.26 714.366 1726.89 712.715 1823.58 697.874M1565.96 711.551C1569.18 713.601 1572.39 715.599 1575.59 717.542M1565.96 711.551C1561.44 710.964 1556.92 710.336 1552.39 709.667M1565.96 711.551C1650.46 722.521 1735.37 719.119 1831.71 697.217M1575.59 717.542C1578.8 719.49 1582.01 721.384 1585.2 723.222M1575.59 717.542C1571.27 716.871 1566.95 716.152 1562.62 715.386M1575.59 717.542C1659.97 730.645 1744.59 725.636 1841.19 696.432M1585.2 723.222C1588.43 725.074 1591.64 726.87 1594.85 728.61M1585.2 723.222C1581.07 722.458 1576.93 721.641 1572.79 720.771M1585.2 723.222C1669.66 738.817 1754.17 732.344 1851.34 695.573M1594.85 728.61C1598.09 730.366 1601.32 732.064 1604.55 733.703M1594.85 728.61C1590.89 727.746 1586.92 726.825 1582.96 725.848M1594.85 728.61C1679.49 747.061 1763.97 739.278 1861.86 694.664M1604.55 733.703C1607.81 735.359 1611.07 736.955 1614.33 738.489M1604.55 733.703C1600.76 732.734 1596.97 731.705 1593.17 730.616M1604.55 733.703C1689.43 755.385 1773.92 746.457 1872.62 693.719M1614.33 738.489C1617.62 740.04 1620.91 741.528 1624.19 742.951M1614.33 738.489C1610.7 737.411 1607.07 736.269 1603.44 735.065M1614.33 738.489C1699.48 763.789 1783.96 753.894 1883.52 692.745M1624.19 742.951C1713.36 781.579 1800.31 772.616 1905.59 690.738M1624.19 742.951C1617.29 740.58 1610.37 737.948 1603.44 735.065M1624.19 742.951C1709.63 772.266 1794.07 761.595 1894.52 691.75M1905.59 690.738C1908.34 688.598 1911.1 686.409 1913.88 684.169C1914.38 683.767 1914.87 683.365 1915.37 682.962M1905.59 690.738C1901.89 691.078 1898.2 691.415 1894.52 691.75M1905.59 690.738C1992.06 682.798 2083.38 673.669 2177.69 668.374M1915.37 682.962C1918.76 680.226 1922.15 677.475 1925.55 674.711M1915.37 682.962C1911.66 683.583 1907.97 684.202 1904.28 684.818M1915.37 682.962C1938.18 679.141 1961.32 675.236 1984.76 671.373M1925.55 674.711C1926.43 673.998 1927.3 673.283 1928.18 672.569M1925.55 674.711C1921.86 675.614 1918.17 676.516 1914.49 677.414M1925.55 674.711C1928.65 673.953 1931.75 673.194 1934.86 672.433M1928.18 672.569C1930.75 670.473 1933.32 668.371 1935.9 666.262M1928.18 672.569C1925.77 672.617 1923.35 672.665 1920.95 672.712M1928.18 672.569C1930.4 672.524 1932.63 672.479 1934.86 672.433M1935.9 666.262C1939.36 663.424 1942.83 660.575 1946.31 657.715M1935.9 666.262C1932.23 667.448 1928.57 668.632 1924.91 669.813M1935.9 666.262C1952.82 660.791 1969.92 655.274 1987.18 649.791M1946.31 657.715C1949.78 654.859 1953.26 651.993 1956.74 649.118M1946.31 657.715C1942.67 659.183 1939.04 660.65 1935.41 662.113M1946.31 657.715C1953.57 654.785 1960.87 651.846 1968.19 648.907M1956.74 649.118C1957.02 648.88 1957.31 648.642 1957.6 648.403M1956.74 649.118C1953.13 650.868 1949.53 652.616 1945.93 654.361M1956.74 649.118C1957.21 648.889 1957.68 648.659 1958.16 648.43M1957.6 648.403C1960.78 645.775 1963.97 643.141 1967.16 640.5M1957.6 648.403C1956.47 648.349 1955.35 648.295 1954.22 648.24M1957.6 648.403C1957.79 648.412 1957.97 648.421 1958.16 648.43M1967.16 640.5C1970.62 637.634 1974.09 634.761 1977.56 631.882M1967.16 640.5C1963.59 642.53 1960.02 644.558 1956.46 646.583M1967.16 640.5C1973.63 636.826 1980.12 633.146 1986.63 629.466M1977.56 631.882C1978.78 630.876 1979.99 629.869 1981.21 628.862M1977.56 631.882C1974.03 634.191 1970.5 636.498 1966.97 638.801M1977.56 631.882C1979.06 630.907 1980.55 629.932 1982.05 628.956M1981.21 628.862C1983.45 627.003 1985.7 625.142 1987.94 623.279M1981.21 628.862C1980.97 628.836 1980.74 628.81 1980.5 628.784M1981.21 628.862C1981.49 628.893 1981.77 628.925 1982.05 628.956M1987.94 623.279C1992.16 619.786 1996.38 616.288 2000.62 612.788M1987.94 623.279C1985.46 625.115 1982.98 626.95 1980.5 628.784M1987.94 623.279C1992.58 619.855 1997.22 616.429 2001.87 613.002M2000.62 612.788C2006.13 608.23 2011.65 603.667 2017.2 599.108M2000.62 612.788C2001.03 612.859 2001.45 612.93 2001.87 613.002M2017.2 599.108C2022.41 594.818 2027.64 590.53 2032.88 586.25M2017.2 599.108C2018.12 599.315 2019.04 599.521 2019.96 599.728M2032.88 586.25C2037.61 582.382 2042.36 578.519 2047.12 574.667M2032.88 586.25C2034.24 586.623 2035.59 586.995 2036.95 587.367M2047.12 574.667C2051.37 571.231 2055.62 567.803 2059.88 564.386M2047.12 574.667C2048.85 575.22 2050.58 575.771 2052.32 576.32M2059.88 564.386C2063.69 561.338 2067.5 558.299 2071.32 555.27M2059.88 564.386C2061.93 565.122 2063.98 565.855 2066.02 566.585M2071.32 555.27C2074.74 552.555 2078.17 549.849 2081.6 547.152M2071.32 555.27C2073.63 556.187 2075.94 557.099 2078.26 558.007M2081.6 547.152C2084.72 544.71 2087.83 542.276 2090.96 539.851M2081.6 547.152C2084.15 548.245 2086.69 549.331 2089.24 550.41M2090.96 539.851C2093.7 541.113 2096.45 542.365 2099.2 543.607M666.682 352.939C671.938 356.619 677.239 360.181 682.594 363.6M666.682 352.939C663.827 353.545 660.973 354.162 658.12 354.79M682.594 363.6C689.404 367.948 696.303 372.063 703.309 375.891M682.594 363.6C679.4 364.114 676.206 364.643 673.014 365.187M703.309 375.891C713.736 381.587 724.402 386.647 735.374 390.89M703.309 375.891C699.312 376.284 695.315 376.704 691.319 377.15M735.374 390.89C772.88 405.394 813.963 410.359 861.284 398.598M735.374 390.89C728.872 390.997 722.369 391.18 715.864 391.439M735.374 390.89C777.436 390.199 819.422 392.714 861.284 398.598M861.284 398.598C876.764 394.75 892.912 389.113 909.82 381.435M861.284 398.598C880.247 401.263 899.185 404.62 918.093 408.684M909.82 381.435C912.548 380.196 915.295 378.904 918.062 377.558C928.373 372.544 938.599 367.551 948.746 362.592M909.82 381.435C926.713 384.168 943.571 387.499 960.386 391.456M948.746 362.592C961.773 356.226 974.669 349.918 987.445 343.696M948.746 362.592C966.326 365.702 983.849 369.526 1001.3 374.11M987.445 343.696C1005.59 347.302 1023.66 351.753 1041.61 357.116M2099.2 543.607C2102.96 545.31 2106.73 546.995 2110.5 548.66M2099.2 543.607C2095.87 545.864 2092.55 548.132 2089.24 550.41M2110.5 548.66C2115.57 550.9 2120.64 553.105 2125.71 555.273M2110.5 548.66C2106.96 550.721 2103.42 552.794 2099.89 554.88M2125.71 555.273C2132.51 558.179 2139.31 561.018 2146.1 563.788M2125.71 555.273C2121.94 557.109 2118.17 558.959 2114.41 560.824M2146.1 563.788C2155.31 567.541 2164.51 571.166 2173.71 574.655M2146.1 563.788C2142.07 565.367 2138.05 566.964 2134.04 568.577M2173.71 574.655C2186.61 579.549 2199.5 584.174 2212.36 588.507M2173.71 574.655C2169.38 575.948 2165.05 577.261 2160.74 578.593M2212.36 588.507C2232.18 595.185 2251.93 601.167 2271.58 606.364M2212.36 588.507C2207.6 589.484 2202.85 590.486 2198.11 591.51M2271.58 606.364C2373.72 633.388 2472.84 639.191 2562.47 611.322M2271.58 606.364C2265.83 606.99 2260.1 607.651 2254.38 608.345M2562.47 611.322C2563.24 611.08 2564.02 610.835 2564.8 610.588M2562.47 611.322C2595.11 616.671 2627.99 623.89 2661.04 633.266M658.12 354.79C663.058 358.32 668.02 361.792 673.014 365.187M658.12 354.79C654.859 355.508 651.599 356.239 648.342 356.984M673.014 365.187C679.065 369.3 685.162 373.3 691.319 377.15M673.014 365.187C669.652 365.76 666.292 366.35 662.933 366.957M691.319 377.15C699.388 382.196 707.56 386.986 715.864 391.439M691.319 377.15C687.634 377.562 683.949 377.996 680.264 378.453M715.864 391.439C729.537 398.773 743.569 405.193 758.09 410.345M715.864 391.439C711.268 391.623 706.671 391.844 702.073 392.103M758.09 410.345C789.039 421.324 822.215 426.537 858.9 422.528M758.09 410.345C749.691 409.849 741.288 409.484 732.879 409.25M758.09 410.345C791.757 412.332 825.35 416.413 858.9 422.528M858.9 422.528C877.657 420.478 897.331 416.017 918.093 408.684M858.9 422.528C879.265 426.24 899.613 430.702 919.952 435.899M918.093 408.684C923.979 406.604 929.953 404.294 936.018 401.743C944.196 398.303 952.317 394.871 960.386 391.456M918.093 408.684C934.679 412.248 951.241 416.356 967.778 421.018M960.386 391.456C974.175 385.618 987.808 379.826 1001.3 374.11M960.386 391.456C977.408 395.461 994.385 400.107 1011.31 405.422M1001.3 374.11C1014.88 368.358 1028.31 362.683 1041.61 357.116M1001.3 374.11C1018.82 378.711 1036.26 384.079 1053.61 390.26M1041.61 357.116C1059.39 362.426 1077.06 368.631 1094.59 375.797M2089.24 550.41C2092.79 551.914 2096.34 553.405 2099.89 554.88M2089.24 550.41C2085.57 552.93 2081.91 555.463 2078.26 558.007M2099.89 554.88C2104.73 556.889 2109.57 558.871 2114.41 560.824M2099.89 554.88C2095.98 557.193 2092.08 559.521 2088.18 561.862M2114.41 560.824C2120.95 563.461 2127.49 566.047 2134.04 568.577M2114.41 560.824C2110.24 562.895 2106.07 564.983 2101.91 567.087M2134.04 568.577C2142.94 572.02 2151.84 575.361 2160.74 578.593M2134.04 568.577C2129.58 570.369 2125.13 572.181 2120.69 574.012M2160.74 578.593C2173.2 583.118 2185.66 587.43 2198.11 591.51M2160.74 578.593C2155.96 580.068 2151.2 581.567 2146.44 583.087M2198.11 591.51C2216.91 597.675 2235.68 603.309 2254.38 608.345M2198.11 591.51C2192.92 592.631 2187.74 593.779 2182.57 594.953M2254.38 608.345C2294.81 619.232 2334.91 627.325 2374.31 631.95M2254.38 608.345C2248.4 609.07 2242.44 609.83 2236.48 610.624M2374.31 631.95C2408.73 635.991 2442.61 637.384 2475.7 635.68M2374.31 631.95C2361.79 631.955 2349.32 632.123 2336.89 632.44M2374.31 631.95C2407.86 631.935 2441.68 633.088 2475.7 635.68M2475.7 635.68C2508.67 633.983 2540.85 629.212 2572.01 620.922M2475.7 635.68C2491.2 636.861 2506.73 638.34 2522.3 640.143M648.342 356.984C653.193 360.33 658.055 363.659 662.933 366.957M648.342 356.984C644.255 357.918 640.171 358.874 636.091 359.85M662.933 366.957C668.683 370.843 674.457 374.684 680.264 378.453M662.933 366.957C658.906 367.683 654.882 368.434 650.859 369.208M680.264 378.453C687.476 383.133 694.739 387.7 702.073 392.103M680.264 378.453C676.174 378.96 672.083 379.494 667.994 380.056M702.073 392.103C712.19 398.177 722.442 403.938 732.879 409.25M702.073 392.103C697.635 392.353 693.198 392.638 688.759 392.958M732.879 409.25C787.675 437.135 847.584 452.622 919.952 435.899M732.879 409.25C727.212 409.092 721.542 408.994 715.87 408.956M919.952 435.899C931.051 433.335 942.442 430.012 954.153 425.861C958.713 424.245 963.254 422.63 967.778 421.018M919.952 435.899C936.843 440.216 953.727 445.04 970.609 450.364M967.778 421.018C982.47 415.782 996.974 410.572 1011.31 405.422M967.778 421.018C984.377 425.697 1000.95 430.935 1017.49 436.741M1011.31 405.422C1025.57 400.298 1039.67 395.233 1053.61 390.26M1011.31 405.422C1028.37 410.782 1045.39 416.822 1062.33 423.57M1053.61 390.26C1067.42 385.337 1081.07 380.506 1094.59 375.797M1053.61 390.26C1070.85 396.399 1087.99 403.34 1105.03 411.131M1094.59 375.797C1111.73 382.8 1128.75 390.721 1145.62 399.623M2078.26 558.007C2081.56 559.302 2084.87 560.588 2088.18 561.862M2078.26 558.007C2074.17 560.854 2070.09 563.714 2066.02 566.585M2088.18 561.862C2092.75 563.624 2097.33 565.366 2101.91 567.087M2088.18 561.862C2083.8 564.49 2079.44 567.134 2075.09 569.793M2101.91 567.087C2108.17 569.436 2114.43 571.745 2120.69 574.012M2101.91 567.087C2097.23 569.455 2092.57 571.844 2087.91 574.249M2120.69 574.012C2129.27 577.117 2137.85 580.144 2146.44 583.087M2120.69 574.012C2115.68 576.076 2110.69 578.165 2105.71 580.274M2146.44 583.087C2158.48 587.213 2170.53 591.173 2182.57 594.953M2146.44 583.087C2141.08 584.8 2135.73 586.541 2130.4 588.306M2182.57 594.953C2200.56 600.597 2218.54 605.838 2236.48 610.624M2182.57 594.953C2176.79 596.266 2171.03 597.611 2165.27 598.986M2236.48 610.624C2270.15 619.607 2303.69 626.99 2336.89 632.44M2236.48 610.624C2230.03 611.485 2223.59 612.386 2217.16 613.323M2336.89 632.44C2400.4 642.867 2462.68 646.215 2522.3 640.143M2336.89 632.44C2327.24 632.685 2317.63 633.02 2308.03 633.437M2522.3 640.143C2541.63 638.175 2560.68 635.217 2579.39 631.19M2522.3 640.143C2534.88 641.599 2547.48 643.266 2560.1 645.158M636.091 359.85C641.012 362.956 645.933 366.081 650.859 369.208M636.091 359.85C630.739 361.13 625.393 362.445 620.053 363.793M650.859 369.208C656.561 372.828 662.269 376.451 667.994 380.056M650.859 369.208C645.71 370.199 640.565 371.228 635.422 372.293M667.994 380.056C674.888 384.398 681.805 388.712 688.759 392.958M667.994 380.056C662.968 380.746 657.944 381.477 652.92 382.249M688.759 392.958C697.723 398.432 706.749 403.793 715.87 408.956M688.759 392.958C683.7 393.323 678.64 393.733 673.58 394.188M715.87 408.956C729.735 416.804 743.817 424.195 758.229 430.825M715.87 408.956C710.372 408.918 704.871 408.938 699.369 409.013M758.229 430.825C804.687 452.198 854.566 465.668 911.619 461.122M758.229 430.825C750.552 429.991 742.872 429.265 735.186 428.649M758.229 430.825C809.437 436.388 860.462 446.751 911.619 461.122M911.619 461.122C930.455 459.621 950.073 456.157 970.609 450.364M911.619 461.122C929.961 466.275 948.321 471.943 966.711 478.09M970.609 450.364C971.179 450.203 971.751 450.04 972.323 449.876C987.587 445.485 1002.64 441.095 1017.49 436.741M970.609 450.364C986.952 455.519 1003.29 461.142 1019.63 467.227M1017.49 436.741C1032.64 432.303 1047.57 427.901 1062.33 423.57M1017.49 436.741C1034.34 442.654 1051.16 449.158 1067.95 456.262M1062.33 423.57C1076.73 419.345 1090.96 415.188 1105.03 411.131M1062.33 423.57C1079.29 430.325 1096.19 437.789 1113.01 445.993M1105.03 411.131C1118.7 407.191 1132.22 403.345 1145.62 399.623M1105.03 411.131C1121.78 418.788 1138.43 427.267 1154.96 436.61M1145.62 399.623C1161.91 408.22 1178.06 417.731 1194.05 428.212M2066.02 566.585C2069.04 567.662 2072.06 568.731 2075.09 569.793M2066.02 566.585C2061.44 569.817 2056.87 573.063 2052.32 576.32M2075.09 569.793C2079.36 571.293 2083.63 572.779 2087.91 574.249M2075.09 569.793C2070.17 572.797 2065.26 575.82 2060.37 578.857M2087.91 574.249C2093.84 576.287 2099.77 578.296 2105.71 580.274M2087.91 574.249C2082.63 576.978 2077.36 579.73 2072.11 582.501M2105.71 580.274C2113.93 583.011 2122.16 585.69 2130.4 588.306M2105.71 580.274C2100.04 582.674 2094.39 585.102 2088.75 587.554M2130.4 588.306C2142.01 591.995 2153.64 595.559 2165.27 598.986M2130.4 588.306C2124.32 590.32 2118.25 592.365 2112.21 594.439M2165.27 598.986C2182.56 604.079 2199.87 608.87 2217.16 613.323M2165.27 598.986C2158.74 600.548 2152.22 602.148 2145.72 603.782M2217.16 613.323C2247.53 621.143 2277.87 627.916 2308.03 633.437M2217.16 613.323C2210.01 614.366 2202.88 615.454 2195.76 616.584M2308.03 633.437C2394.6 649.282 2479.73 654.81 2560.1 645.158M2308.03 633.437C2298.91 633.833 2289.81 634.305 2280.74 634.845M2560.1 645.158C2569.06 644.082 2577.97 642.816 2586.82 641.354M2560.1 645.158C2591.16 649.815 2622.35 655.835 2653.62 663.417M620.053 363.793C625.185 366.581 630.306 369.419 635.422 372.293M620.053 363.793C612.869 365.607 605.697 367.481 598.538 369.41M635.422 372.293C641.259 375.572 647.089 378.897 652.92 382.249M635.422 372.293C628.608 373.705 621.8 375.182 614.999 376.721M652.92 382.249C659.801 386.204 666.683 390.195 673.58 394.188M652.92 382.249C646.413 383.248 639.908 384.315 633.405 385.448M673.58 394.188C682.146 399.148 690.735 404.112 699.369 409.013M673.58 394.188C667.281 394.754 660.981 395.391 654.679 396.097M699.369 409.013C711.201 415.731 723.119 422.332 735.186 428.649M699.369 409.013C693.062 409.1 686.751 409.261 680.437 409.497M735.186 428.649C759.819 441.546 785.072 453.26 811.475 462.365M735.186 428.649C728.17 428.087 721.15 427.618 714.125 427.242M811.475 462.365C831.539 469.284 852.268 474.696 873.893 477.976M811.475 462.365C796.68 459.124 781.887 456.231 767.083 453.718M811.475 462.365C832.263 466.917 853.057 472.154 873.893 477.976M873.893 477.976C903.017 482.393 933.767 482.94 966.711 478.09M873.893 477.976C898.905 484.965 923.979 492.798 949.18 501.307M966.711 478.09C974.513 476.941 982.438 475.49 990.493 473.715C1000.3 471.556 1010.01 469.39 1019.63 467.227M966.711 478.09C983.391 483.665 1000.1 489.634 1016.84 495.969M1019.63 467.227C1035.98 463.553 1052.08 459.886 1067.95 456.262M1019.63 467.227C1036.51 473.511 1053.38 480.286 1070.26 487.547M1067.95 456.262C1083.17 452.787 1098.18 449.353 1113.01 445.993M1067.95 456.262C1084.93 463.449 1101.88 471.251 1118.8 479.679M1113.01 445.993C1127.15 442.789 1141.13 439.651 1154.96 436.61M1113.01 445.993C1129.67 454.119 1146.26 462.97 1162.77 472.574M1154.96 436.61C1168.11 433.716 1181.14 430.908 1194.05 428.212M1154.96 436.61C1171 445.68 1186.94 455.566 1202.76 466.308M1194.05 428.212C1209.3 438.205 1224.41 449.08 1239.36 460.885M2052.32 576.32C2055 577.17 2057.68 578.016 2060.37 578.857M2052.32 576.32C2047.18 579.989 2042.06 583.673 2036.95 587.367M2060.37 578.857C2064.28 580.081 2068.19 581.296 2072.11 582.501M2060.37 578.857C2054.83 582.296 2049.3 585.754 2043.8 589.226M2072.11 582.501C2077.65 584.205 2083.2 585.89 2088.75 587.554M2072.11 582.501C2066.13 585.654 2060.17 588.832 2054.23 592.029M2088.75 587.554C2096.56 589.891 2104.38 592.188 2112.21 594.439M2088.75 587.554C2082.31 590.357 2075.89 593.192 2069.49 596.052M2112.21 594.439C2123.36 597.646 2134.53 600.764 2145.72 603.782M2112.21 594.439C2105.27 596.82 2098.36 599.239 2091.47 601.69M2145.72 603.782C2162.38 608.277 2179.07 612.553 2195.76 616.584M2145.72 603.782C2138.26 605.659 2130.83 607.58 2123.42 609.541M2195.76 616.584C2224.09 623.422 2252.45 629.554 2280.74 634.845M2195.76 616.584C2187.71 617.864 2179.67 619.198 2171.66 620.581M2280.74 634.845C2388.27 654.959 2494.71 662.922 2594.24 651.344M2280.74 634.845C2271.37 635.403 2262.02 636.035 2252.71 636.734M38.8337 309.997C56.2561 341.471 80.396 369.262 112.853 386.316M38.8337 309.997C29.4236 297.395 21.2246 284.944 14.2783 273.115M38.8337 309.997C58.3964 336.195 83.1935 363.044 112.853 386.316M112.853 386.316C135.41 404.014 160.78 419.644 188.798 431.343M598.538 369.41C604.044 371.767 609.529 374.208 614.999 376.721M598.538 369.41C588.721 372.057 578.929 374.808 569.167 377.654M614.999 376.721C621.151 379.547 627.284 382.463 633.405 385.448M614.999 376.721C605.818 378.798 596.651 380.988 587.498 383.285M633.405 385.448C640.509 388.914 647.597 392.474 654.679 396.097M633.405 385.448C624.779 386.951 616.157 388.571 607.54 390.303M654.679 396.097C663.266 400.489 671.845 404.974 680.437 409.497M654.679 396.097C646.526 397.01 638.37 398.04 630.213 399.184M680.437 409.497C691.629 415.389 702.844 421.344 714.125 427.242M680.437 409.497C672.628 409.789 664.814 410.195 656.994 410.716M714.125 427.242C731.561 436.356 749.158 445.332 767.083 453.718M714.125 427.242C706.329 426.825 698.526 426.524 690.716 426.341M767.083 453.718C822.91 479.836 881.922 500.236 949.18 501.307M767.083 453.718C757.64 452.115 748.193 450.668 738.737 449.385M949.18 501.307C968.302 501.612 988.091 500.354 1008.66 497.221C1011.4 496.805 1014.12 496.387 1016.84 495.969M949.18 501.307C967.776 507.586 986.442 514.233 1005.2 521.18M1016.84 495.969C1034.96 493.183 1052.76 490.361 1070.26 487.547M1016.84 495.969C1033.83 502.4 1050.87 509.208 1067.95 516.366M1070.26 487.547C1086.69 484.906 1102.85 482.272 1118.8 479.679M1070.26 487.547C1087.5 494.964 1104.75 502.886 1122.01 511.306M1118.8 479.679C1133.64 477.265 1148.29 474.887 1162.77 472.574M1118.8 479.679C1135.64 488.073 1152.44 497.088 1169.21 506.736M1162.77 472.574C1176.24 470.422 1189.56 468.325 1202.76 466.308M1162.77 472.574C1178.82 481.913 1194.8 491.965 1210.69 502.756M1202.76 466.308C1215.06 464.425 1227.26 462.612 1239.36 460.885M1202.76 466.308C1216.9 475.914 1230.94 486.205 1244.87 497.209C1245.79 497.929 1246.7 498.648 1247.61 499.366M1239.36 460.885C1247.3 467.158 1255.2 473.693 1263.04 480.498C1269.25 485.875 1275.38 491.207 1281.46 496.489M2036.95 587.367C2039.23 587.989 2041.51 588.609 2043.8 589.226M2036.95 587.367C2031.27 591.477 2025.61 595.599 2019.96 599.728M2043.8 589.226C2047.27 590.167 2050.75 591.101 2054.23 592.029M2043.8 589.226C2037.63 593.114 2031.49 597.019 2025.36 600.937M2054.23 592.029C2059.31 593.383 2064.4 594.724 2069.49 596.052M2054.23 592.029C2047.54 595.632 2040.88 599.259 2034.24 602.904M2069.49 596.052C2076.8 597.959 2084.13 599.839 2091.47 601.69M2069.49 596.052C2062.24 599.294 2055.01 602.569 2047.81 605.869M2091.47 601.69C2102.1 604.37 2112.75 606.989 2123.42 609.541M2091.47 601.69C2083.62 604.483 2075.81 607.318 2068.02 610.186M2123.42 609.541C2139.46 613.377 2155.55 617.063 2171.66 620.581M2123.42 609.541C2114.97 611.779 2106.55 614.069 2098.16 616.403M2171.66 620.581C2198.62 626.464 2225.67 631.878 2252.71 636.734M2171.66 620.581C2162.61 622.143 2153.59 623.768 2144.61 625.446M2252.71 636.734C2371.47 658.058 2490.21 668.621 2601.66 660.999M2252.71 636.734C2242.85 637.473 2233.02 638.289 2223.22 639.172M14.2783 273.115C17.4065 283.319 21.0833 293.617 25.3515 303.803M14.2783 273.115C10.5003 266.681 7.09295 260.431 4.06272 254.441M25.3515 303.803C47.5964 356.89 85.9055 406.925 146.342 424.661M25.3515 303.803C18.9458 293.718 13.332 283.872 8.52609 274.517M25.3515 303.803C52.1747 346.035 92.8865 392.472 146.342 424.661M146.342 424.661C159.435 428.504 173.566 430.83 188.798 431.343M146.342 424.661C168.855 438.218 193.628 449.248 220.576 456.372M188.798 431.343C210.118 440.246 232.971 446.873 257.286 450.404M569.167 377.654C575.309 379.405 581.418 381.288 587.498 383.285M569.167 377.654C555.436 381.656 541.763 385.844 528.159 390.189M587.498 383.285C594.211 385.49 600.889 387.836 607.54 390.303M587.498 383.285C574.996 386.422 562.522 389.758 550.083 393.276M607.54 390.303C615.13 393.117 622.683 396.087 630.213 399.184M607.54 390.303C596.054 392.612 584.578 395.121 573.113 397.822M630.213 399.184C639.168 402.867 648.089 406.728 656.994 410.716M630.213 399.184C619.606 400.672 608.997 402.355 598.386 404.229M656.994 410.716C668.246 415.755 679.474 420.998 690.716 426.341M656.994 410.716C647.16 411.371 637.317 412.208 627.465 413.229M690.716 426.341C706.658 433.918 722.629 441.697 738.737 449.385M690.716 426.341C681.505 426.126 672.283 426.076 663.049 426.196M738.737 449.385C819.504 487.931 903.738 524.186 1005.2 521.18M738.737 449.385C729.579 448.142 720.414 447.054 711.238 446.128M1005.2 521.18C1012.33 520.968 1019.53 520.564 1026.83 519.953C1040.73 518.789 1054.43 517.588 1067.95 516.366M1005.2 521.18C1022.2 527.474 1039.28 534.014 1056.45 540.751M1067.95 516.366C1086.29 514.706 1104.3 513.006 1122.01 511.306M1067.95 516.366C1085.39 523.676 1102.89 531.351 1120.45 539.359M1122.01 511.306C1137.97 509.773 1153.7 508.24 1169.21 506.736M1122.01 511.306C1139.12 519.657 1156.24 528.497 1173.38 537.819M1169.21 506.736C1183.2 505.379 1197.02 504.045 1210.69 502.756M1169.21 506.736C1182.34 514.293 1195.45 522.238 1208.53 530.577L1215.08 534.748C1215.94 535.296 1216.8 535.844 1217.65 536.39M1210.69 502.756C1223.11 501.584 1235.41 500.449 1247.61 499.366M1210.69 502.756C1216.04 506.388 1221.38 510.103 1226.7 513.904C1236.78 521.089 1246.69 528.169 1256.45 535.135M1247.61 499.366C1258.98 498.357 1270.26 497.393 1281.46 496.489M1247.61 499.366C1262.59 511.204 1277.2 522.788 1291.48 534.08M1281.46 496.489C1295.88 509.032 1309.95 521.298 1323.71 533.245M2019.96 599.728C2021.76 600.132 2023.56 600.535 2025.36 600.937M2019.96 599.728C2013.91 604.148 2007.88 608.575 2001.87 613.002M2025.36 600.937C2028.32 601.595 2031.28 602.251 2034.24 602.904M2025.36 600.937C2018.76 605.16 2012.18 609.397 2005.62 613.639M2034.24 602.904C2038.75 603.899 2043.28 604.888 2047.81 605.869M2034.24 602.904C2027.02 606.862 2019.84 610.842 2012.68 614.833M2047.81 605.869C2054.53 607.325 2061.27 608.764 2068.02 610.186M2047.81 605.869C2039.94 609.478 2032.1 613.117 2024.3 616.777M2068.02 610.186C2078.04 612.297 2088.09 614.37 2098.16 616.403M2068.02 610.186C2059.46 613.34 2050.94 616.535 2042.46 619.761M2098.16 616.403C2113.59 619.516 2129.07 622.534 2144.61 625.446M2098.16 616.403C2088.93 618.972 2079.74 621.593 2070.6 624.257M2144.61 625.446C2170.71 630.338 2196.94 634.931 2223.22 639.172M2144.61 625.446C2134.84 627.27 2125.12 629.158 2115.44 631.099M2223.22 639.172C2353.34 660.164 2484.91 672.536 2609.08 669.88M2223.22 639.172C2213.31 640.066 2203.43 641.029 2193.58 642.055M1.25559 237.148C1.99664 242.711 2.92913 248.493 4.06272 254.441M4.06272 254.441C5.30469 260.957 6.78809 267.672 8.52609 274.517M4.06272 254.441C3.22588 252.786 2.4178 251.152 1.63864 249.539M8.52609 274.517C10.8154 283.533 13.5465 292.774 16.7488 302.082M8.52609 274.517C5.99482 269.59 3.68777 264.799 1.60691 260.181M16.7488 302.082C22.2359 318.031 29.1066 334.174 37.5107 349.716M16.7488 302.082C11.5106 292.541 6.99666 283.321 3.21506 274.646M16.7488 302.082C46.7909 356.801 100.652 422.058 176.767 455.341M37.5107 349.716C55.8914 383.708 81.606 414.819 116.217 434.709M37.5107 349.716C25.8456 332.228 16.3122 314.86 8.92478 298.802M37.5107 349.716C57.5068 379.694 83.7665 410.025 116.217 434.709M116.217 434.709C133.986 444.92 154.098 452.173 176.767 455.341M116.217 434.709C144.482 456.208 177.443 473.425 215.053 482.394M176.767 455.341C190.427 457.25 205.014 457.676 220.576 456.372M176.767 455.341C202.654 466.661 231.115 474.283 262.089 476.534M220.576 456.372C232.257 455.392 244.487 453.438 257.286 450.404M220.576 456.372C245.669 463.005 272.647 466.252 301.442 465M257.286 450.404C281.958 453.988 308.134 454.385 335.739 450.74M528.159 390.189C535.521 391.013 542.827 392.049 550.083 393.276M528.159 390.189C502.839 398.274 477.758 406.899 452.985 415.867M550.083 393.276C557.813 394.582 565.487 396.106 573.113 397.822M550.083 393.276C529.035 399.227 508.085 405.698 487.262 412.607M573.113 397.822C581.592 399.73 590.012 401.877 598.386 404.229M573.113 397.822C554.691 402.163 536.301 406.999 517.954 412.296M598.386 404.229C608.135 406.968 617.822 409.985 627.465 413.229M598.386 404.229C581.862 407.148 565.335 410.531 548.807 414.37M627.465 413.229C639.381 417.238 651.23 421.593 663.049 426.196M627.465 413.229C612.454 414.784 597.422 416.764 582.365 419.175M663.049 426.196C679.137 432.462 695.17 439.188 711.238 446.128M663.049 426.196C649.311 426.374 635.546 426.927 621.749 427.871M711.238 446.128C739.817 458.471 768.511 471.488 797.836 483.792M711.238 446.128C698.452 444.837 685.645 443.862 672.809 443.225M797.836 483.792C849.307 505.387 902.725 524.782 960.89 534.467M797.836 483.792C783.135 480.093 768.443 476.706 753.742 473.684M797.836 483.792C851.729 497.351 905.752 515.104 960.89 534.467M960.89 534.467C987.818 538.95 1015.76 541.353 1045 540.929C1048.84 540.873 1052.65 540.814 1056.45 540.751M960.89 534.467C983.086 542.262 1005.46 550.317 1028.08 558.466M1056.45 540.751C1078.28 540.389 1099.59 539.908 1120.45 539.359M1056.45 540.751C1075.79 548.334 1095.25 556.166 1114.86 564.174M1120.45 539.359C1138.41 538.886 1156.03 538.362 1173.38 537.819M1120.45 539.359C1137.63 547.196 1154.88 555.352 1172.19 563.8C1174.26 564.809 1176.32 565.813 1178.37 566.815M1173.38 537.819C1188.34 537.351 1203.09 536.867 1217.65 536.39M1173.38 537.819C1179.04 540.899 1184.7 544.031 1190.36 547.215C1203.26 554.465 1215.9 561.571 1228.32 568.519M1217.65 536.39C1230.73 535.962 1243.65 535.539 1256.45 535.135M1217.65 536.39C1235.63 547.851 1253.11 558.991 1270.16 569.766M1256.45 535.135C1268.23 534.763 1279.9 534.408 1291.48 534.08M1256.45 535.135C1273.62 547.384 1290.32 559.281 1306.61 570.772M1291.48 534.08C1302.3 533.774 1313.04 533.493 1323.71 533.245M1291.48 534.08C1307.83 547.006 1323.75 559.55 1339.28 571.656M1323.71 533.245C1339.26 546.752 1354.4 559.851 1369.19 572.487M2001.87 613.002C2003.12 613.214 2004.37 613.427 2005.62 613.639M2005.62 613.639C2007.97 614.038 2010.32 614.437 2012.68 614.833M2005.62 613.639C1997.73 618.742 1989.87 623.853 1982.05 628.956M2012.68 614.833C2016.55 615.485 2020.42 616.132 2024.3 616.777M2012.68 614.833C2003.96 619.699 1995.27 624.582 1986.63 629.466M2024.3 616.777C2030.34 617.78 2036.39 618.775 2042.46 619.761M2024.3 616.777C2014.64 621.307 2005.03 625.869 1995.46 630.442M2042.46 619.761C2051.81 621.28 2061.19 622.779 2070.6 624.257M2042.46 619.761C2031.76 623.828 2021.13 627.944 2010.55 632.087M2070.6 624.257C2085.47 626.593 2100.43 628.875 2115.44 631.099M2070.6 624.257C2058.81 627.69 2047.09 631.192 2035.45 634.742M2115.44 631.099C2141.33 634.933 2167.4 638.593 2193.58 642.055M2115.44 631.099C2102.65 633.664 2089.94 636.322 2077.3 639.051M2193.58 642.055C2266.14 651.647 2339.56 659.717 2412.46 665.755M2193.58 642.055C2180.35 643.433 2167.19 644.923 2154.09 646.507M2412.46 665.755C2444 668.369 2475.44 670.602 2506.67 672.413M2412.46 665.755C2394.8 664.989 2377.2 664.48 2359.65 664.199M2412.46 665.755C2443.73 667.113 2475.16 669.278 2506.67 672.413M2506.67 672.413C2543.65 674.558 2580.32 676.112 2616.51 677.006M2506.67 672.413C2527.35 674.47 2548.07 676.946 2568.81 679.885M1.28757 263.835C1.84857 267.355 2.49029 270.963 3.21506 274.646M3.21506 274.646C4.74252 282.408 6.6386 290.502 8.92478 298.802M3.21506 274.646C2.65195 273.354 2.10504 272.074 1.57443 270.808M8.92478 298.802C12.5071 311.808 17.0471 325.319 22.6262 338.846M8.92478 298.802C6.16408 292.802 3.70324 286.984 1.5427 281.412M22.6262 338.846C46.0089 395.537 87.6463 452.505 153.553 473.748M22.6262 338.846C13.7802 322.507 6.80603 306.718 1.69187 292.488M22.6262 338.846C49.2284 387.98 92.7603 442.089 153.553 473.748M153.553 473.748C172.089 479.723 192.544 482.872 215.053 482.394M153.553 473.748C188.252 491.818 228.574 502.575 274.58 500.918M215.053 482.394C229.834 482.08 245.499 480.202 262.089 476.534M215.053 482.394C248.605 490.395 285.856 491.833 326.773 483.893M262.089 476.534C274.67 473.752 287.782 469.941 301.442 465M262.089 476.534C302.943 479.504 348.168 473.13 397.624 453.576C437.44 437.833 477.592 423.95 517.954 412.296M301.442 465C311.527 461.353 321.91 457.09 332.598 452.173C333.646 451.69 334.693 451.213 335.739 450.74M301.442 465C333.668 463.599 368.169 456.563 404.849 442.331C432.05 431.777 459.544 421.804 487.262 412.607M335.739 450.74C376.895 432.136 415.755 421.106 452.985 415.867M335.739 450.74C360.089 447.525 385.551 441.164 412.074 431.07C425.609 425.919 439.25 420.84 452.985 415.867M452.985 415.867C464.562 414.239 475.981 413.17 487.262 412.607M487.262 412.607C497.603 412.092 507.829 412.002 517.954 412.296M517.954 412.296C528.338 412.598 538.617 413.304 548.807 414.37M548.807 414.37C560.094 415.55 571.273 417.172 582.365 419.175M548.807 414.37C514.987 422.224 481.163 431.985 447.359 443.566M582.365 419.175C595.603 421.566 608.718 424.498 621.749 427.871M582.365 419.175C554.551 423.63 526.654 429.554 498.659 436.982M621.749 427.871C638.886 432.307 655.877 437.503 672.809 443.225M621.749 427.871C597.49 429.53 573.129 432.397 548.635 436.551M672.809 443.225C699.818 452.354 726.678 462.824 753.742 473.684M672.809 443.225C651.088 442.148 629.282 442.037 607.35 443.003M753.742 473.684C839.392 508.054 927.093 546.343 1028.08 558.466M753.742 473.684C733.238 469.469 712.713 465.962 692.115 463.307M1028.08 558.466C1039.6 559.848 1051.29 560.891 1063.17 561.548C1080.74 562.52 1097.96 563.389 1114.86 564.174M1028.08 558.466C1052.22 567.158 1076.63 575.956 1101.39 584.655M1114.86 564.174C1136.52 565.18 1157.66 566.047 1178.37 566.815M1114.86 564.174C1127.85 569.476 1140.9 574.855 1154.02 580.291C1165.86 585.193 1177.5 589.996 1188.97 594.694M1178.37 566.815C1195.3 567.442 1211.94 568.003 1228.32 568.519M1178.37 566.815C1202.6 578.623 1225.99 589.96 1248.67 600.756M1228.32 568.519C1242.44 568.964 1256.38 569.375 1270.16 569.766M1228.32 568.519C1251.03 581.222 1272.98 593.399 1294.31 604.969M1270.16 569.766C1282.43 570.114 1294.57 570.446 1306.61 570.772M1270.16 569.766C1291.36 583.165 1311.89 595.998 1331.86 608.175M1306.61 570.772C1317.58 571.07 1328.47 571.362 1339.28 571.656M1306.61 570.772C1326.4 584.733 1345.59 598.095 1364.29 610.767M1339.28 571.656C1349.31 571.929 1359.27 572.204 1369.19 572.487M1339.28 571.656C1357.78 586.075 1375.74 599.873 1393.26 612.956M1369.19 572.487C1386.51 587.281 1403.34 601.438 1419.77 614.864M1980.5 628.784C1975.98 632.129 1971.47 635.469 1966.97 638.801M1982.05 628.956C1983.57 629.126 1985.1 629.296 1986.63 629.466M1986.63 629.466C1989.57 629.792 1992.52 630.118 1995.46 630.442M1995.46 630.442C2000.48 630.994 2005.51 631.542 2010.55 632.087M1995.46 630.442C1982.94 636.432 1970.51 642.442 1958.16 648.43M2010.55 632.087C2018.82 632.981 2027.12 633.865 2035.45 634.742M2010.55 632.087C1996.32 637.662 1982.2 643.286 1968.19 648.907M2035.45 634.742C2049.32 636.202 2063.27 637.638 2077.3 639.051M2035.45 634.742C2019.22 639.688 2003.13 644.725 1987.18 649.791M2077.3 639.051C2102.69 641.61 2128.3 644.093 2154.09 646.507M2077.3 639.051C2058.86 643.034 2040.58 647.167 2022.47 651.381M2154.09 646.507C2221.8 652.846 2290.67 658.707 2359.65 664.199M2154.09 646.507C2133.79 648.962 2113.64 651.642 2093.67 654.477M2359.65 664.199C2429.63 669.77 2499.72 674.961 2568.81 679.885M2359.65 664.199C2339.24 663.872 2318.92 663.853 2298.69 664.095M2568.81 679.885C2587.26 681.2 2605.64 682.496 2623.93 683.774M2568.81 679.885C2594.58 683.538 2620.39 687.908 2646.2 693.083M1.31931 290.523C1.44061 291.175 1.56472 291.83 1.69187 292.488M1.69187 292.488C3.63711 302.553 6.26842 313.318 9.63181 324.466M1.69187 292.488C1.63121 292.319 1.57085 292.15 1.51071 291.982M9.63181 324.466C33.3702 403.15 93.5758 500.973 206.42 507.425M9.63181 324.466C6.48171 316.847 3.76558 309.485 1.47898 302.499M9.63181 324.466C38.2821 393.765 102.821 484.364 206.42 507.425M206.42 507.425C227.303 508.619 249.989 506.684 274.58 500.918M206.42 507.425C254.434 518.113 310.838 514.294 375.949 487.123C434.501 462.69 491.928 446.168 548.635 436.551M274.58 500.918C291.107 497.044 308.494 491.44 326.773 483.893M274.58 500.918C307.805 499.722 343.995 492.052 383.174 475.988C421.88 460.117 460.361 447.143 498.659 436.982M326.773 483.893C331.074 482.118 335.423 480.235 339.823 478.242C377.186 461.314 412.888 450.139 447.359 443.566M326.773 483.893C347.08 479.953 368.29 473.703 390.399 464.799C409.376 457.156 428.364 450.074 447.359 443.566M447.359 443.566C464.754 440.249 481.835 438.104 498.659 436.982M498.659 436.982C515.559 435.855 532.199 435.762 548.635 436.551M548.635 436.551C568.471 437.504 588.01 439.742 607.35 443.003M607.35 443.003C635.932 447.822 664.081 454.874 692.115 463.307M607.35 443.003C550.643 445.501 493.09 455.194 433.965 473.963M692.115 463.307C815.085 500.298 935.857 563.867 1081.34 582.167C1088.08 583.015 1094.76 583.844 1101.39 584.655M692.115 463.307C647.128 457.507 601.787 455.767 555.529 459.568M1101.39 584.655C1131.58 588.348 1160.7 591.674 1188.97 594.694M1101.39 584.655C1112.8 588.662 1124.29 592.648 1135.85 596.592C1166.08 606.901 1195.09 616.634 1223.12 625.741M1188.97 594.694C1209.29 596.865 1229.16 598.878 1248.67 600.756M1188.97 594.694C1227.25 610.379 1263.53 624.901 1298.37 638.055M1248.67 600.756C1264.1 602.241 1279.3 603.641 1294.31 604.969M1248.67 600.756C1282.26 616.745 1314.31 631.547 1345.24 644.94M1294.31 604.969C1306.95 606.087 1319.46 607.153 1331.86 608.175M1294.31 604.969C1324.07 621.118 1352.61 636.084 1380.26 649.644M1331.86 608.175C1342.75 609.072 1353.55 609.935 1364.29 610.767M1331.86 608.175C1358.51 624.429 1384.17 639.515 1409.1 653.219M1364.29 610.767C1374 611.52 1383.65 612.249 1393.26 612.956M1364.29 610.767C1388.37 627.095 1411.63 642.276 1434.28 656.11M1393.26 612.956C1402.13 613.609 1410.96 614.244 1419.77 614.864M1393.26 612.956C1415.18 629.334 1436.41 644.591 1457.12 658.541M1419.77 614.864C1439.85 631.271 1459.33 646.586 1478.36 660.638M1952.65 648.165C1952.97 648.18 1953.28 648.195 1953.6 648.21M1952.65 648.165C1950.35 649.671 1948.05 651.174 1945.75 652.676M1952.65 648.165C1957.41 645.052 1962.19 641.93 1966.97 638.801M1953.6 648.21C1953.8 648.22 1954.01 648.23 1954.22 648.24M1953.6 648.21C1950.98 649.701 1948.36 651.189 1945.75 652.676M1953.6 648.21C1954.55 647.668 1955.51 647.125 1956.46 646.583M1954.22 648.24C1951.45 650.285 1948.69 652.325 1945.93 654.361M1954.22 648.24C1954.96 647.688 1955.71 647.136 1956.46 646.583M1958.16 648.43C1961.5 648.59 1964.84 648.749 1968.19 648.907M1968.19 648.907C1974.5 649.204 1980.83 649.499 1987.18 649.791M1987.18 649.791C1998.88 650.328 2010.64 650.857 2022.47 651.381M2022.47 651.381C2045.97 652.422 2069.72 653.444 2093.67 654.477M2022.47 651.381C1992.79 658.287 1963.57 665.409 1934.86 672.433M2093.67 654.477C2160.71 657.369 2229.37 660.351 2298.69 664.095M2093.67 654.477C2056.74 659.722 2020.4 665.5 1984.76 671.373M2298.69 664.095C2409.18 670.065 2521.36 677.972 2631.35 690.543M2298.69 664.095C2257.91 664.585 2217.53 666.137 2177.69 668.374M1.35105 317.211C3.93734 329.338 7.5868 342.542 12.3713 356.247M12.3713 356.247C36.9965 426.784 91.6906 510.598 186.267 529.275M12.3713 356.247C7.84316 344.659 4.20106 333.504 1.41477 323.154M12.3713 356.247C38.6162 423.409 94.6244 505.128 186.267 529.275M186.267 529.275C224.679 536.86 269.669 533.701 321.895 514.544M186.267 529.275C234.515 541.988 292.64 538.743 361.498 509.016C428.782 479.968 492.994 464.705 555.529 459.568M321.895 514.544C330.1 511.534 338.483 508.13 347.048 504.31C376.866 491.012 405.776 481.062 433.965 473.963M321.895 514.544C130.684 566.633 29.3322 406.506 1.44724 312.921M321.895 514.544C336.945 510.444 352.552 505.03 368.724 498.164C390.702 488.834 412.438 480.797 433.965 473.963M433.965 473.963C475.875 463.409 516.191 459.156 555.529 459.568M555.529 459.568C634.03 460.39 708.633 479.791 784.226 504.765M784.226 504.765C864.321 531.226 945.529 563.944 1033.66 587.449M784.226 504.765C646.851 465.519 511.016 450.592 354.273 519.381C131.47 617.163 26.1784 435.803 1.38303 332.9M784.226 504.765C865.298 527.926 946.906 559.557 1033.66 587.449M1033.66 587.449C1055.17 593.185 1077.09 598.372 1099.51 602.786C1142.82 611.313 1183.81 618.941 1223.12 625.741M1033.66 587.449C1061.11 596.271 1089.06 604.72 1117.68 612.408C1230.16 642.622 1326.43 665.839 1417.98 681.348M1223.12 625.741C1248.87 630.195 1273.89 634.293 1298.37 638.055M1223.12 625.741C1292.97 648.436 1356.72 667.239 1417.98 681.348M1298.37 638.055C1314.2 640.489 1329.81 642.782 1345.24 644.94M1298.37 638.055C1346.75 656.325 1392.34 671.956 1436.59 684.405M1345.24 644.94C1357.01 646.586 1368.68 648.153 1380.26 649.644M1345.24 644.94C1382.72 661.166 1418.56 675.323 1453.52 687.013M1380.26 649.644C1389.93 650.889 1399.54 652.08 1409.1 653.219M1380.26 649.644C1410.99 664.712 1440.62 678.044 1469.62 689.335M1409.1 653.219C1417.53 654.222 1425.92 655.186 1434.28 656.11M1409.1 653.219C1435.17 667.55 1460.46 680.371 1485.26 691.437M1434.28 656.11C1441.92 656.953 1449.53 657.763 1457.12 658.541M1434.28 656.11C1456.92 669.935 1478.96 682.416 1500.6 693.351M1457.12 658.541C1464.21 659.268 1471.29 659.967 1478.36 660.638M1457.12 658.541C1477.1 671.996 1496.59 684.236 1515.77 695.094M1478.36 660.638C1496.19 673.805 1513.63 685.864 1530.81 696.673M1907.53 672.969C1907.86 672.962 1908.2 672.956 1908.53 672.95M1907.53 672.969C1905.94 673.737 1904.35 674.504 1902.75 675.269M1907.53 672.969C1913.11 670.279 1918.7 667.573 1924.31 664.853M1908.53 672.95C1909.03 672.941 1909.54 672.931 1910.04 672.922M1908.53 672.95C1906.6 673.725 1904.68 674.498 1902.75 675.269M1908.53 672.95C1910.22 672.268 1911.92 671.585 1913.62 670.901M1910.04 672.922C1911.61 672.892 1913.18 672.862 1914.75 672.832M1910.04 672.922C1907.68 674.25 1905.33 675.574 1902.98 676.894M1910.04 672.922C1911.23 672.249 1912.43 671.576 1913.62 670.901M1914.75 672.832C1915.04 672.827 1915.33 672.821 1915.62 672.815M1914.75 672.832C1914.48 673.008 1914.21 673.184 1913.94 673.36M1914.75 672.832C1918 670.734 1921.25 668.626 1924.51 666.511M1915.62 672.815C1917.4 672.781 1919.17 672.747 1920.95 672.712M1915.62 672.815C1915.06 672.997 1914.5 673.179 1913.94 673.36M1915.62 672.815C1918.71 671.817 1921.81 670.816 1924.91 669.813M1920.95 672.712C1918.79 674.284 1916.64 675.852 1914.49 677.414M1920.95 672.712C1922.27 671.747 1923.59 670.781 1924.91 669.813M1934.86 672.433C1951.34 672.097 1967.98 671.736 1984.76 671.373M1984.76 671.373C2047.27 670.022 2111.83 668.642 2177.69 668.374M2177.69 668.374C2327.59 667.766 2484.23 672.923 2638.77 697.312M1417.98 681.348C1424.2 682.403 1430.41 683.422 1436.59 684.405M1417.98 681.348C1430.05 684.13 1442.04 686.729 1453.95 689.14M1436.59 684.405C1442.25 685.304 1447.89 686.174 1453.52 687.013M1436.59 684.405C1442.4 686.039 1448.18 687.618 1453.95 689.14M1453.52 687.013C1458.9 687.815 1464.27 688.589 1469.62 689.335M1453.52 687.013C1458.84 688.789 1464.13 690.509 1469.41 692.17M1469.62 689.335C1474.84 690.062 1480.05 690.763 1485.26 691.437M1469.62 689.335C1474.54 691.249 1479.44 693.104 1484.32 694.899M1485.26 691.437C1490.38 692.101 1495.49 692.739 1500.6 693.351M1485.26 691.437C1489.83 693.479 1494.39 695.461 1498.94 697.382M1500.6 693.351C1505.66 693.957 1510.72 694.538 1515.77 695.094M1500.6 693.351C1504.88 695.509 1509.13 697.607 1513.38 699.643M1515.77 695.094C1520.78 695.645 1525.79 696.171 1530.81 696.673M1515.77 695.094C1519.76 697.353 1523.73 699.553 1527.7 701.691M1530.81 696.673C1534.53 699.019 1538.25 701.306 1541.95 703.532M1823.58 697.874C1826.29 697.658 1828.99 697.439 1831.71 697.217M1823.58 697.874C1823.73 697.851 1823.88 697.828 1824.03 697.805C1829.27 696.999 1834.54 696.178 1839.82 695.344M1831.71 697.217C1834.86 696.959 1838.02 696.697 1841.19 696.432M1831.71 697.217C1832.89 696.948 1834.08 696.676 1835.26 696.402C1836.78 696.05 1838.3 695.698 1839.82 695.344M1841.19 696.432C1844.56 696.15 1847.95 695.863 1851.34 695.573M1841.19 696.432C1842.95 695.899 1844.72 695.358 1846.49 694.808C1847.65 694.451 1848.8 694.092 1849.95 693.733M1851.34 695.573C1854.84 695.274 1858.35 694.971 1861.86 694.664M1851.34 695.573C1853.46 694.77 1855.59 693.953 1857.72 693.121C1858.65 692.759 1859.58 692.397 1860.51 692.034M1861.86 694.664C1865.44 694.353 1869.02 694.037 1872.62 693.719M1861.86 694.664C1864.22 693.591 1866.58 692.496 1868.95 691.38C1869.73 691.013 1870.51 690.646 1871.29 690.279M1872.62 693.719C1876.24 693.397 1879.88 693.073 1883.52 692.745M1872.62 693.719C1875.13 692.376 1877.65 691.004 1880.18 689.604C1880.86 689.231 1881.53 688.858 1882.21 688.484M1883.52 692.745C1887.18 692.416 1890.84 692.084 1894.52 691.75M1883.52 692.745C1886.14 691.135 1888.77 689.489 1891.42 687.807C1892.02 687.425 1892.62 687.043 1893.22 686.661M1894.52 691.75C1897.22 689.874 1899.93 687.955 1902.65 685.994C1903.19 685.602 1903.73 685.21 1904.28 684.818M1453.95 689.14C1459.11 690.186 1464.26 691.196 1469.41 692.17M1453.95 689.14C1463.89 691.768 1473.78 694.229 1483.62 696.516M1469.41 692.17C1474.39 693.114 1479.36 694.024 1484.32 694.899M1469.41 692.17C1474.16 693.666 1478.9 695.115 1483.62 696.516M1484.32 694.899C1489.2 695.76 1494.07 696.588 1498.94 697.382M1484.32 694.899C1488.78 696.539 1493.23 698.128 1497.66 699.666M1498.94 697.382C1503.76 698.169 1508.57 698.922 1513.38 699.643M1498.94 697.382C1503.13 699.155 1507.32 700.875 1511.49 702.542M1513.38 699.643C1518.15 700.358 1522.93 701.041 1527.7 701.691M1513.38 699.643C1517.32 701.537 1521.26 703.377 1525.18 705.163M1527.7 701.691C1532.45 702.338 1537.2 702.952 1541.95 703.532M1527.7 701.691C1531.41 703.694 1535.12 705.644 1538.81 707.538M1541.95 703.532C1545.44 705.631 1548.92 707.677 1552.39 709.667M1839.82 695.344C1843.19 694.812 1846.57 694.275 1849.95 693.733M1839.82 695.344C1846.5 693.788 1853.22 692.206 1859.97 690.602M1849.95 693.733C1853.46 693.172 1856.98 692.605 1860.51 692.034M1849.95 693.733C1853.28 692.697 1856.62 691.653 1859.97 690.602M1860.51 692.034C1864.09 691.454 1867.69 690.868 1871.29 690.279M1860.51 692.034C1863.88 690.715 1867.27 689.386 1870.66 688.05M1871.29 690.279C1874.92 689.684 1878.56 689.086 1882.21 688.484M1871.29 690.279C1874.69 688.675 1878.1 687.061 1881.51 685.438M1882.21 688.484C1885.87 687.88 1889.54 687.272 1893.22 686.661M1882.21 688.484C1885.62 686.596 1889.03 684.696 1892.46 682.787M1893.22 686.661C1896.89 686.05 1900.58 685.435 1904.28 684.818M1893.22 686.661C1896.62 684.489 1900.04 682.305 1903.46 680.109M1904.28 684.818C1907.68 682.364 1911.08 679.895 1914.49 677.414M1483.62 696.516C1488.31 697.606 1492.99 698.656 1497.66 699.666M1483.62 696.516C1492.62 699.182 1501.57 701.673 1510.49 703.981M1497.66 699.666C1502.28 700.664 1506.89 701.623 1511.49 702.542M1497.66 699.666C1501.95 701.152 1506.23 702.591 1510.49 703.981M1511.49 702.542C1516.06 703.455 1520.62 704.329 1525.18 705.163M1511.49 702.542C1515.54 704.162 1519.58 705.731 1523.62 707.249M1525.18 705.163C1529.73 705.995 1534.27 706.786 1538.81 707.538M1525.18 705.163C1529.02 706.907 1532.84 708.599 1536.66 710.237M1538.81 707.538C1543.34 708.288 1547.87 708.998 1552.39 709.667M1538.81 707.538C1542.43 709.395 1546.04 711.199 1549.65 712.95M1552.39 709.667C1555.81 711.627 1559.22 713.534 1562.62 715.386M1859.97 690.602C1863.52 689.757 1867.09 688.906 1870.66 688.05M1859.97 690.602C1867.01 688.389 1874.09 686.145 1881.2 683.876M1870.66 688.05C1874.27 687.184 1877.88 686.313 1881.51 685.438M1870.66 688.05C1874.17 686.667 1877.68 685.276 1881.2 683.876M1881.51 685.438C1885.15 684.559 1888.8 683.675 1892.46 682.787M1881.51 685.438C1885.02 683.769 1888.54 682.091 1892.06 680.404M1892.46 682.787C1896.12 681.898 1899.78 681.005 1903.46 680.109M1892.46 682.787C1895.96 680.833 1899.46 678.868 1902.98 676.894M1903.46 680.109C1907.13 679.214 1910.81 678.316 1914.49 677.414M1903.46 680.109C1906.95 677.871 1910.44 675.621 1913.94 673.36M1510.49 703.981C1514.88 705.114 1519.25 706.204 1523.62 707.249M1510.49 703.981C1518.88 706.713 1527.24 709.256 1535.57 711.601M1523.62 707.249C1527.97 708.29 1532.31 709.286 1536.66 710.237M1523.62 707.249C1527.61 708.751 1531.59 710.202 1535.57 711.601M1536.66 710.237C1540.99 711.187 1545.32 712.091 1549.65 712.95M1536.66 710.237C1540.44 711.863 1544.22 713.437 1547.99 714.957M1549.65 712.95C1553.97 713.808 1558.3 714.62 1562.62 715.386M1549.65 712.95C1553.24 714.692 1556.82 716.381 1560.39 718.015M1562.62 715.386C1566.02 717.236 1569.41 719.031 1572.79 720.771M1881.2 683.876C1884.81 682.725 1888.43 681.567 1892.06 680.404M1881.2 683.876C1888.36 681.037 1895.54 678.165 1902.75 675.269M1892.06 680.404C1895.69 679.239 1899.33 678.069 1902.98 676.894M1892.06 680.404C1895.62 678.701 1899.18 676.989 1902.75 675.269M1902.98 676.894C1906.62 675.721 1910.28 674.542 1913.94 673.36M1924.91 669.813C1928.41 667.257 1931.91 664.69 1935.41 662.113M1535.57 711.601C1539.71 712.769 1543.85 713.888 1547.99 714.957M1535.57 711.601C1543.49 714.392 1551.39 716.979 1559.27 719.352M1547.99 714.957C1552.13 716.026 1556.26 717.046 1560.39 718.015M1547.99 714.957C1551.76 716.476 1555.52 717.941 1559.27 719.352M1560.39 718.015C1564.52 718.985 1568.66 719.904 1572.79 720.771M1560.39 718.015C1563.97 719.652 1567.54 721.234 1571.11 722.759M1572.79 720.771C1576.19 722.52 1579.58 724.212 1582.96 725.848M1913.62 670.901C1917.24 669.443 1920.87 667.979 1924.51 666.511M1913.62 670.901C1917.18 668.893 1920.74 666.877 1924.31 664.853M1924.51 666.511C1928.14 665.049 1931.77 663.583 1935.41 662.113M1924.51 666.511C1928.04 664.219 1931.58 661.917 1935.12 659.608M1935.41 662.113C1938.91 659.538 1942.42 656.954 1945.93 654.361M1559.27 719.352C1563.22 720.542 1567.17 721.678 1571.11 722.759M1559.27 719.352C1566.82 722.187 1574.34 724.802 1581.84 727.188M1571.11 722.759C1575.06 723.844 1579.01 724.874 1582.96 725.848M1571.11 722.759C1574.69 724.293 1578.27 725.769 1581.84 727.188M1582.96 725.848C1586.37 727.495 1589.77 729.085 1593.17 730.616M1924.31 664.853C1927.91 663.11 1931.51 661.361 1935.12 659.608M1924.31 664.853C1931.43 660.819 1938.57 656.756 1945.75 652.676M1935.12 659.608C1938.72 657.863 1942.32 656.114 1945.93 654.361M1935.12 659.608C1938.66 657.305 1942.2 654.993 1945.75 652.676M1581.84 727.188C1585.62 728.389 1589.4 729.532 1593.17 730.616M1581.84 727.188C1589.06 730.053 1596.26 732.681 1603.44 735.065M1593.17 730.616C1596.6 732.159 1600.02 733.642 1603.44 735.065M1956.46 646.583C1959.96 643.995 1963.46 641.401 1966.97 638.801" stroke="url(#paint0_linear_385_8508)"/>
<defs>
<linearGradient id="paint0_linear_385_8508" x1="1357" y1="765" x2="1357" y2="1" gradientUnits="userSpaceOnUse">
<stop stop-color="#081426"/>
<stop offset="1" stop-color="#081626" stop-opacity="0.15"/>
</linearGradient>
</defs>
</svg>
