<svg width="104" height="82" viewBox="0 0 104 82" fill="none" xmlns="http://www.w3.org/2000/svg">
<path fill-rule="evenodd" clip-rule="evenodd" d="M104 56.2222C104 58.8024 102.355 60.005 99.4101 60.005H93.7825V57.4247H99.4101C99.9298 57.4247 100.363 57.3393 100.537 57.1679C100.709 56.9952 100.883 56.7371 100.883 56.3936C100.883 56.0489 100.71 55.7054 100.537 55.534C100.363 55.3613 100.017 55.2759 99.4973 55.2759C96.8138 55.1892 93.436 55.3613 93.436 51.5779C93.436 49.8573 94.5615 47.9652 97.5922 47.9652H103.394V50.5455H98.0247C97.5062 50.5455 97.1591 50.5455 96.8992 50.7169C96.6393 50.975 96.4667 51.2331 96.4667 51.6633C96.4667 52.0934 96.7266 52.3515 97.0724 52.5242C97.4196 52.6096 97.7661 52.6956 98.1992 52.6956H99.7572C101.402 52.6956 102.442 53.0391 103.135 53.6419C103.653 54.2435 104 55.0184 104 56.2222ZM91.7901 53.6419C91.0971 53.0391 90.0576 52.6956 88.4124 52.6956H86.8544C86.4219 52.6956 86.0747 52.609 85.7288 52.5242C85.3817 52.3515 85.1231 52.0934 85.1231 51.6633C85.1231 51.2331 85.2091 50.975 85.5556 50.7169C85.8155 50.5455 86.1613 50.5455 86.6811 50.5455H92.05V47.9652H86.2486C83.1307 47.9652 82.0912 49.8573 82.0912 51.5779C82.0912 55.3606 85.469 55.1892 88.1537 55.2759C88.6722 55.2759 89.0194 55.3613 89.192 55.534C89.3646 55.7054 89.5391 56.0489 89.5391 56.3936C89.5391 56.7371 89.3652 56.9952 89.192 57.1679C88.9321 57.3393 88.5862 57.4247 88.0665 57.4247H82.4377V60.005H88.0665C91.0099 60.005 92.6558 58.8018 92.6558 56.2222C92.6558 55.0184 92.3099 54.2435 91.7901 53.6419ZM80.7058 57.512H73.8661V55.1038H80.5332V52.6969H73.8661V50.4601H80.7058V47.9665H71.0081V60.0056H80.7058V57.512ZM67.8902 48.5687C66.9373 48.0525 65.8118 47.9659 64.3398 47.9659H57.6727V60.005H60.6161V55.6194H63.734C64.7723 55.6194 65.3793 55.706 65.8124 56.1355C66.3322 56.7371 66.3322 57.7695 66.3322 58.5437V60.005H69.189V57.6828C69.189 56.5651 69.103 56.0489 68.7565 55.4473C68.4966 55.1026 67.9781 54.673 67.2851 54.415C68.0635 54.1581 69.3635 53.1258 69.3635 51.2331C69.3628 49.8579 68.8431 49.0836 67.8902 48.5687ZM51.4376 47.9659H42.1717L38.4481 51.922L34.8977 47.9659H23.2076V60.005H34.725L38.4487 56.0489L41.9991 60.005H47.6279V55.9641H51.2649C53.7758 55.9641 56.288 55.2759 56.288 51.922C56.2874 48.6541 53.6892 47.9659 51.4376 47.9659ZM65.5519 52.9543C65.1194 53.1258 64.6863 53.1258 64.1665 53.1258L60.6161 53.2124V50.4595H64.1665C64.6863 50.4595 65.2061 50.4595 65.5519 50.7176C65.8991 50.8902 66.1577 51.2337 66.1577 51.7499C66.1577 52.2661 65.8991 52.6962 65.5519 52.9543ZM51.4376 53.5559H47.6273V50.4595H51.4376C52.4771 50.4595 53.1695 50.8902 53.1695 51.922C53.1695 52.9543 52.4764 53.5559 51.4376 53.5559ZM40.2666 53.9854L44.7692 49.2563V58.9739L40.2666 53.9854ZM33.2524 57.512H26.065V55.1038H32.4728V52.6969H26.065V50.4601H33.339L36.5429 53.986L33.2524 57.512ZM95.9463 39.28H91.7901L86.3346 30.2501V39.28H80.4472L79.3204 36.6138H73.2591L72.1336 39.28H68.7558C67.3704 39.28 65.5519 38.9359 64.5137 37.9036C63.5608 36.8718 63.041 35.496 63.041 33.3459C63.041 31.5399 63.3009 29.906 64.599 28.6161C65.4647 27.6698 67.0239 27.2403 69.0151 27.2403H71.7858V29.8206H69.0151C67.9768 29.8206 67.3698 29.9926 66.7641 30.5088C66.2443 31.025 65.9844 31.9707 65.9844 33.2605C65.9844 34.5503 66.2443 35.4966 66.7641 36.0988C67.1966 36.5283 67.9768 36.7004 68.7552 36.7004H70.0546L74.2107 27.2409H78.5408L83.3899 38.5924V27.2403H87.8932L93.0023 35.582V27.2403H95.9457L95.9463 39.28ZM61.569 27.2403H58.6256V39.28H61.569V27.2403ZM55.4205 27.7565C54.4676 27.2403 53.4293 27.2403 51.9573 27.2403H45.289V39.28H48.1464V34.8938H51.2637C52.3032 34.8938 52.9962 34.9798 53.4287 35.41C53.9485 36.0122 53.8612 37.0445 53.8612 37.7321V39.28H56.8046V36.8718C56.8046 35.8401 56.7186 35.3239 56.2861 34.7217C56.0262 34.3776 55.5065 33.9475 54.9007 33.69C55.6791 33.3459 56.9791 32.4002 56.9791 30.5082C56.9797 29.1323 56.3727 28.3581 55.4205 27.7565ZM43.2106 36.7864H36.4563V34.3782H43.124V31.8846H36.4563V29.7345H43.2106V27.2409H33.5123V39.2807H43.2106V36.7864ZM31.3473 27.2403H26.5847L23.0343 35.41L19.224 27.2403H14.5481V38.5918L9.61233 27.2403H5.28292L0.0872535 39.28H3.20453L4.33004 36.6138H10.3913L11.5168 39.28H17.4055V29.8206L21.6483 39.28H24.1592L28.4026 29.8206V39.28H31.3466L31.3473 27.2403ZM78.2822 34.0341L76.2898 29.3044L74.2986 34.0341H78.2822ZM53.1695 32.1427C52.7369 32.4008 52.3038 32.4008 51.6974 32.4008H48.1464V29.7352H51.6968C52.2166 29.7352 52.8217 29.7352 53.1688 29.9072C53.5147 30.1653 53.6886 30.5094 53.6886 31.025C53.6886 31.5405 53.5153 31.97 53.1695 32.1427ZM5.36892 34.0341L7.36069 29.3044L9.35246 34.0341H5.36892ZM103.308 0H0V32.8303L3.55041 24.8327H11.0837L12.1232 26.8108V24.8327H20.9559L22.9477 29.1323L24.8528 24.8327H52.9962C54.2943 24.8327 55.4198 25.0908 56.2867 25.7784V24.8327H63.9933V25.7784C65.2914 25.0902 66.9367 24.8327 68.8425 24.8327H80.0128L81.0523 26.8108V24.8327H89.2786L90.4914 26.8108V24.8327H98.5438V41.6882H90.4048L88.8467 39.1086V41.6882H78.7147L77.5891 38.9365H75.077L73.9515 41.6882H68.6698C66.5914 41.6882 65.0322 41.1721 63.9939 40.6565V41.6882H51.4376V37.8182C51.4376 37.302 51.3509 37.216 51.0044 37.216H50.5719V41.6876H26.3248V39.5375L25.4592 41.6876H20.3502L19.4845 39.6235V41.6876H9.69896L8.66008 38.9359H6.14855L5.02305 41.6876H0V82H103.308V61.6389C102.182 62.1551 100.623 62.4132 99.0642 62.4132H91.5303V61.3808C90.6646 62.0697 89.1054 62.4132 87.634 62.4132H63.9067V58.5437C63.9067 58.0276 63.8207 58.0276 63.3869 58.0276H62.9544V62.4132H55.1606V57.8555C53.8625 58.4571 52.3898 58.4571 51.0911 58.4571H50.2248V62.4132H40.6997L38.4487 59.8329L35.9378 62.4132H20.6094V45.5583H36.1964L38.4481 48.1373L40.873 45.5583H51.3509C52.5624 45.5583 54.5548 45.7297 55.4205 46.5894V45.5583H64.7723C65.7252 45.5583 67.5443 45.7297 68.7558 46.5894V45.5583H82.8708V46.59C83.6505 45.9018 85.1231 45.5589 86.4212 45.5589H94.301V46.59C95.1679 45.9884 96.3794 45.5589 97.9387 45.5589H103.308V0Z" fill="url(#paint0_linear_309_694)"/>
<defs>
<linearGradient id="paint0_linear_309_694" x1="0" y1="82" x2="104" y2="82" gradientUnits="userSpaceOnUse">
<stop offset="0.236684" stop-color="#4584CC"/>
<stop offset="1" stop-color="#2B519B"/>
</linearGradient>
</defs>
</svg>
