<svg width="88" height="70" viewBox="0 0 88 70" fill="none" xmlns="http://www.w3.org/2000/svg">
<path d="M55.9897 49.3844H32.2627V6.74365H55.9902L55.9897 49.3844Z" fill="url(#paint0_linear_309_698)"/>
<path d="M55.9897 49.3844H32.2627V6.74365H55.9902L55.9897 49.3844Z" fill="#4584CC"/>
<path d="M86.2604 68.4565H86.424C86.4547 68.457 86.485 68.4493 86.5117 68.4341C86.5224 68.4266 86.531 68.4165 86.5367 68.4048C86.5425 68.3931 86.5452 68.3801 86.5446 68.367C86.5452 68.3542 86.5424 68.3415 86.5367 68.3301C86.5309 68.3186 86.5223 68.3088 86.5117 68.3017C86.4853 68.2858 86.4548 68.278 86.424 68.2793H86.2604V68.4565ZM86.4257 68.1569C86.4959 68.1526 86.5653 68.1727 86.6223 68.2139C86.6451 68.2326 86.6632 68.2564 86.6752 68.2834C86.6871 68.3103 86.6926 68.3397 86.6911 68.3692C86.6922 68.3946 86.6878 68.4199 86.6783 68.4434C86.6687 68.4669 86.6543 68.4882 86.6359 68.5056C86.592 68.5438 86.5369 68.5668 86.4788 68.571L86.6982 68.8211H86.5293L86.3275 68.5728H86.2621V68.8211H86.1208V68.1573H86.4279L86.4257 68.1569ZM86.3819 69.0501C86.456 69.0508 86.5294 69.0358 86.5973 69.0062C86.6627 68.978 86.7223 68.9377 86.7727 68.8873C86.8233 68.837 86.8637 68.7774 86.8916 68.7118C86.9492 68.5728 86.9492 68.4166 86.8916 68.2775C86.8632 68.2122 86.8229 68.1526 86.7727 68.1021C86.7223 68.0517 86.6627 68.0114 86.5973 67.9832C86.5289 67.9552 86.4557 67.9411 86.3819 67.9419C86.3068 67.9412 86.2322 67.9552 86.1625 67.9832C86.0956 68.0108 86.0347 68.0512 85.9831 68.1021C85.9055 68.1817 85.853 68.2823 85.8322 68.3915C85.8114 68.5007 85.8231 68.6136 85.866 68.7162C85.8927 68.7821 85.9325 68.8418 85.9831 68.8917C86.0347 68.9425 86.0956 68.9829 86.1625 69.0106C86.2318 69.0402 86.3065 69.0551 86.3819 69.0545V69.0501ZM86.3819 67.7822C86.5747 67.7821 86.7598 67.8577 86.8973 67.9928C86.9636 68.0577 87.0164 68.1351 87.0526 68.2205C87.0901 68.3082 87.1095 68.4026 87.1095 68.498C87.1095 68.5933 87.0901 68.6877 87.0526 68.7754C87.0156 68.8604 86.9629 68.9376 86.8973 69.0031C86.83 69.0677 86.7517 69.1197 86.6661 69.1567C86.5763 69.1949 86.4795 69.2143 86.3819 69.2137C86.2831 69.2144 86.1852 69.195 86.0941 69.1567C86.0075 69.1205 85.9285 69.0684 85.8611 69.0031C85.7956 68.9352 85.7436 68.8554 85.708 68.768C85.6705 68.6803 85.6512 68.5859 85.6512 68.4905C85.6512 68.3951 85.6705 68.3007 85.708 68.213C85.7442 68.1276 85.797 68.0502 85.8633 67.9854C85.9298 67.9189 86.009 67.8667 86.0963 67.8318C86.1873 67.7935 86.2853 67.7741 86.3841 67.7748L86.3819 67.7822ZM19.2095 65.219C19.2095 63.9533 20.0386 62.9137 21.3937 62.9137C22.6887 62.9137 23.5626 63.9086 23.5626 65.219C23.5626 66.5293 22.6887 67.5243 21.3937 67.5243C20.0386 67.5243 19.2095 66.4846 19.2095 65.219ZM25.0388 65.219V61.6173H23.4731V62.4947C22.9765 61.8463 22.2233 61.4396 21.1989 61.4396C19.1809 61.4396 17.5973 63.0224 17.5973 65.2207C17.5973 67.419 19.1801 69.0018 21.1989 69.0018C22.2228 69.0018 22.9765 68.5947 23.4731 67.9468V68.8211H25.037V65.219H25.0388ZM77.9414 65.219C77.9414 63.9533 78.7706 62.9137 80.1261 62.9137C81.4225 62.9137 82.295 63.9086 82.295 65.219C82.295 66.5293 81.4225 67.5243 80.1261 67.5243C78.771 67.5243 77.9414 66.4846 77.9414 65.219ZM83.7725 58.7263H82.2055V62.4947C81.7089 61.8463 80.9557 61.4396 79.9314 61.4396C77.9134 61.4396 76.3297 63.0224 76.3297 65.2207C76.3297 67.419 77.9125 69.0018 79.9314 69.0018C80.9557 69.0018 81.7089 68.5947 82.2055 67.9468V68.8211H83.7725V58.7263ZM44.4711 62.8395C45.48 62.8395 46.128 63.4721 46.2934 64.5859H42.5575C42.7246 63.5462 43.3559 62.8395 44.4715 62.8395H44.4711ZM44.5026 61.4357C42.3925 61.4357 40.9163 62.9711 40.9163 65.2168C40.9163 67.5063 42.4518 68.9979 44.6075 68.9979C45.6919 68.9979 46.6851 68.7272 47.559 67.9889L46.7917 66.8285C46.1881 67.3111 45.4195 67.5818 44.697 67.5818C43.688 67.5818 42.7694 67.1146 42.5434 65.8182H47.8898C47.9051 65.6234 47.9209 65.4269 47.9209 65.2163C47.9051 62.9716 46.5171 61.4353 44.5018 61.4353L44.5026 61.4357ZM63.405 65.2163C63.405 63.9507 64.2341 62.911 65.5892 62.911C66.8842 62.911 67.7581 63.906 67.7581 65.2163C67.7581 66.5267 66.8842 67.5217 65.5892 67.5217C64.2341 67.5217 63.4045 66.482 63.4045 65.2163H63.405ZM69.2339 65.2163V61.6173H67.6691V62.4947C67.1707 61.8463 66.4192 61.4396 65.3949 61.4396C63.3769 61.4396 61.7932 63.0224 61.7932 65.2207C61.7932 67.419 63.376 69.0018 65.3949 69.0018C66.4192 69.0018 67.1707 68.5947 67.6691 67.9468V68.8211H69.2343V65.219L69.2339 65.2163ZM54.5632 65.2163C54.5632 67.4006 56.0837 68.9974 58.4043 68.9974C59.4888 68.9974 60.2113 68.7561 60.9926 68.1389L60.2407 66.8733C59.6528 67.2957 59.0356 67.5217 58.3543 67.5217C57.1045 67.5063 56.1854 66.6026 56.1854 65.2163C56.1854 63.8301 57.1045 62.9268 58.3543 62.911C59.0339 62.911 59.6511 63.1369 60.2407 63.5594L60.9926 62.2938C60.21 61.6765 59.4875 61.4353 58.4043 61.4353C56.0837 61.4353 54.5632 63.0317 54.5632 65.2163ZM74.7473 61.4353C73.8441 61.4353 73.2558 61.8577 72.8491 62.4903V61.6173H71.2975V68.8171H72.8649V64.7812C72.8649 63.5897 73.3769 62.9277 74.4003 62.9277C74.7355 62.9229 75.0683 62.9844 75.3795 63.1089L75.8621 61.6331C75.5155 61.4967 75.0636 61.4366 74.7465 61.4366L74.7473 61.4353ZM32.7795 62.1898C32.0263 61.6932 30.9883 61.4366 29.8433 61.4366C28.0193 61.4366 26.8449 62.3109 26.8449 63.7415C26.8449 64.9154 27.7192 65.6397 29.3292 65.8656L30.0688 65.9709C30.9273 66.0915 31.3327 66.3175 31.3327 66.7241C31.3327 67.2808 30.7624 67.5984 29.6915 67.5984C28.6071 67.5984 27.8245 67.2519 27.2967 66.8452L26.561 68.0661C27.4196 68.6987 28.504 69.0005 29.6784 69.0005C31.7578 69.0005 32.9629 68.0213 32.9629 66.6504C32.9629 65.3848 32.0144 64.7228 30.4474 64.4969L29.7095 64.3898C29.0318 64.3021 28.4887 64.1657 28.4887 63.6831C28.4887 63.1567 29.0006 62.84 29.8596 62.84C30.7786 62.84 31.6683 63.1865 32.1043 63.4572L32.7821 62.1916L32.7795 62.1898ZM52.9817 61.4379C52.0784 61.4379 51.4901 61.8604 51.0852 62.4929V61.6173H49.5336V68.8171H51.0992V64.7812C51.0992 63.5897 51.6112 62.9277 52.6347 62.9277C52.9698 62.9229 53.3026 62.9844 53.6138 63.1089L54.0964 61.6331C53.7498 61.4967 53.298 61.4366 52.9808 61.4366L52.9817 61.4379ZM39.6209 61.6173H37.0607V59.4331H35.4779V61.6173H34.0175V63.0483H35.4779V66.3328C35.4779 68.0033 36.1263 68.9983 37.9784 68.9983C38.658 68.9983 39.4406 68.7877 39.9372 68.4416L39.4849 67.101C39.0177 67.3716 38.5057 67.5081 38.0986 67.5081C37.316 67.5081 37.0607 67.0255 37.0607 66.303V63.0496H39.6209V61.6173ZM16.2128 68.8189V64.3004C16.2128 62.5987 15.1283 61.4537 13.3801 61.4383C12.4611 61.423 11.5131 61.709 10.8493 62.7193C10.3527 61.9209 9.5701 61.4383 8.46986 61.4383C7.70083 61.4383 6.94935 61.6643 6.36107 62.5074V61.6173H4.79406V68.8171H6.37335V64.825C6.37335 63.5752 7.06648 62.911 8.13689 62.911C9.17659 62.911 9.70258 63.5888 9.70258 64.8092V68.8162H11.2854V64.8242C11.2854 63.5743 12.0079 62.9101 13.0472 62.9101C14.1163 62.9101 14.6265 63.5879 14.6265 64.8084V68.8154L16.2128 68.8189Z" fill="url(#paint1_linear_309_698)"/>
<path d="M33.767 28.0649C33.767 19.4152 37.817 11.71 44.1236 6.7445C39.3498 2.9803 33.4454 0.937336 27.366 0.946319C12.3904 0.946319 0.250977 13.0875 0.250977 28.0649C0.250977 43.0423 12.3904 55.1835 27.366 55.1835C33.4455 55.1926 39.3501 53.1496 44.1241 49.3853C37.8179 44.4206 33.767 36.715 33.767 28.0649Z" fill="url(#paint2_linear_309_698)"/>
<path d="M88.0002 28.0649C88.0002 43.0423 75.8607 55.1835 60.8851 55.1835C54.805 55.1924 48.8997 53.1495 44.1249 49.3853C50.4333 44.4197 54.4833 36.715 54.4833 28.0649C54.4833 19.4148 50.4333 11.71 44.1249 6.7445C48.8996 2.98041 54.8047 0.937494 60.8847 0.946319C75.8603 0.946319 87.9998 13.0875 87.9998 28.0649" fill="url(#paint3_linear_309_698)"/>
<defs>
<linearGradient id="paint0_linear_309_698" x1="32.2627" y1="49.3844" x2="55.9902" y2="49.3844" gradientUnits="userSpaceOnUse">
<stop offset="0.236684" stop-color="#2B519B"/>
<stop offset="1" stop-color="#1D3963"/>
</linearGradient>
<linearGradient id="paint1_linear_309_698" x1="0.250977" y1="69.2137" x2="88.0002" y2="69.2137" gradientUnits="userSpaceOnUse">
<stop offset="0.236684" stop-color="#4584CC"/>
<stop offset="1" stop-color="#2B519B"/>
</linearGradient>
<linearGradient id="paint2_linear_309_698" x1="0.250977" y1="69.2137" x2="88.0002" y2="69.2137" gradientUnits="userSpaceOnUse">
<stop offset="0.236684" stop-color="#4584CC"/>
<stop offset="1" stop-color="#2B519B"/>
</linearGradient>
<linearGradient id="paint3_linear_309_698" x1="0.250977" y1="69.2137" x2="88.0002" y2="69.2137" gradientUnits="userSpaceOnUse">
<stop offset="0.236684" stop-color="#4584CC"/>
<stop offset="1" stop-color="#2B519B"/>
</linearGradient>
</defs>
</svg>
