<svg width="202" height="43" viewBox="0 0 202 43" fill="none" xmlns="http://www.w3.org/2000/svg">
<path d="M34.2 31.2L34.9 31.1V33.2H36.7V33.9H34.9V39.5C34.9 41.1 35.4 41.4 36.8 41.3V41.9C34.8 42.1 34.2 41.3 34.2 39.4V31.2Z" fill="url(#paint0_linear_312_800)"/>
<path d="M44.2 39.5C44.2 41.1 43.4 41.9 41.7 41.9C39.9 41.9 39 41.1 39 38.7V36.4C39 34.1 39.8 33.1 41.8 33.1C43.8 33.1 44.4 34.1 44.4 36.4V37.7H39.7V38.7C39.7 40.5 40.1 41.3 41.7 41.3C43.3 41.3 43.6 40.6 43.6 39.6L44.2 39.5ZM43.6 37V36.4C43.6 34.8 43.3 33.8 41.6 33.7C40 33.7 39.5 34.5 39.5 36.3V36.9L43.6 37Z" fill="url(#paint1_linear_312_800)"/>
<path d="M49.1 41.9C47.3 42 47 41.4 47 39.5L47.1 30.6H47.8L47.7 39.6C47.7 41.1 47.8 41.3 49 41.3L49.1 41.9Z" fill="url(#paint2_linear_312_800)"/>
<path d="M56.4 39.6C56.4 41.2 55.6 42 53.9 42C52.1 42 51.2 41.2 51.2 38.8V36.5C51.2 34.2 52 33.2 54 33.2C56 33.2 56.6 34.2 56.6 36.5V37.8H51.9V38.8C51.9 40.6 52.3 41.4 53.9 41.4C55.5 41.4 55.8 40.7 55.8 39.7L56.4 39.6ZM55.9 37V36.4C55.9 34.8 55.6 33.8 53.9 33.7C52.3 33.7 51.8 34.5 51.8 36.3V36.9L55.9 37Z" fill="url(#paint3_linear_312_800)"/>
<path d="M64.3 39.4C64.3 41.2 63.4 42.1 61.6 42C59.8 42 58.9 41.1 58.9 38.7V36.4C58.9 34 59.8 33.2 61.7 33.2C63.6 33.2 64.2 34 64.2 35.7H63.5C63.4 34.6 63.1 33.9 61.6 33.9C60 33.9 59.5 34.6 59.5 36.4V38.7C59.5 40.5 59.9 41.2 61.5 41.3C63.1 41.3 63.5 40.6 63.5 39.4H64.3Z" fill="url(#paint4_linear_312_800)"/>
<path d="M66.6 38.9V36.6C66.6 34.2 67.4 33.4 69.4 33.4C71.2 33.4 72.1 34.1 72.1 36.7V39C72.1 41.4 71.3 42.2 69.3 42.2C67.4 42.1 66.6 41.4 66.6 38.9ZM71.3 38.8V36.5C71.3 34.7 71 34 69.3 34C67.7 34 67.3 34.7 67.3 36.5V38.8C67.3 40.6 67.6 41.4 69.3 41.4C70.9 41.4 71.3 40.6 71.3 38.8Z" fill="url(#paint5_linear_312_800)"/>
<path d="M74.8 33.4H75.5L75.6 34.1C76 33.5 76.8 33.3 77.7 33.3C79 33.3 79.7 33.9 80 34.6C80.7 33.5 81.6 33.3 82.5 33.3C84.6 33.3 85.1 34.4 85.1 36.5V42.1H84.4V36.5C84.4 34.7 84 34 82.4 34C80.8 34 80.3 35 80.3 36.2V42H79.6V36.4C79.6 34.8 79.2 33.9 77.6 33.9C76 33.9 75.5 34.6 75.5 35.9V42H74.8V33.4Z" fill="url(#paint6_linear_312_800)"/>
<path d="M88.1 33.5H88.8L88.9 34.2C89.3 33.6 90.1 33.4 91 33.4C92.3 33.4 93 34 93.3 34.7C94 33.6 94.9 33.4 95.8 33.4C97.9 33.4 98.4 34.5 98.4 36.6V42.2H97.7V36.6C97.7 34.8 97.3 34.1 95.7 34.1C94.1 34.1 93.6 35.1 93.6 36.3V42.1H92.9V36.5C92.9 34.9 92.5 34 90.9 34C89.3 34 88.8 34.7 88.8 36V42.1H88.1V33.5Z" fill="url(#paint7_linear_312_800)"/>
<path d="M106.1 42.1L106 41.2C105.6 41.8 104.9 42.3 103.8 42.3C101.8 42.3 101.2 41.4 101.2 39.2V33.7H101.9V39.2C101.9 41.1 102.3 41.7 103.9 41.7C105.5 41.7 106 40.6 106 39.6V33.7H106.7V42.2L106.1 42.1Z" fill="url(#paint8_linear_312_800)"/>
<path d="M110.5 33.6L110.6 34.5C111 33.9 111.7 33.4 112.8 33.4C114.8 33.4 115.4 34.3 115.4 36.5V42.1H114.7V36.5C114.7 34.6 114.3 34 112.7 34C111.1 34 110.6 35.1 110.6 36.1V42.1H109.9L110 33.5H110.5V33.6Z" fill="url(#paint9_linear_312_800)"/>
<path d="M119.3 31.3C119.3 32 118.2 32 118.2 31.3C118.2 30.6 119.3 30.6 119.3 31.3ZM119 42.2H118.3L118.4 33.5H119.1L119 42.2Z" fill="url(#paint10_linear_312_800)"/>
<path d="M127.2 39.7C127.2 41.5 126.3 42.4 124.5 42.3C122.7 42.3 121.8 41.4 121.8 39V36.7C121.8 34.3 122.7 33.5 124.6 33.5C126.5 33.5 127.1 34.3 127.1 36H126.4C126.3 34.9 126 34.2 124.5 34.2C122.9 34.2 122.4 34.9 122.4 36.7V39C122.4 40.8 122.8 41.5 124.4 41.5C126 41.5 126.4 40.8 126.4 39.6L127.2 39.7Z" fill="url(#paint11_linear_312_800)"/>
<path d="M134.2 42.3V41.2C133.6 42.1 132.8 42.4 131.7 42.4C130.3 42.4 129.3 41.8 129.3 40.1C129.3 38 131.1 37.6 134.2 37.8V36.6C134.2 35 133.7 34.4 132.4 34.4C131.2 34.4 130.6 34.8 130.5 36.4H129.8C129.8 34.6 130.5 33.7 132.4 33.7C134.2 33.7 134.9 34.5 134.9 36.5V42.3H134.2ZM134.2 38.4C131.4 38.1 130.1 38.5 130.1 40C130.1 41.1 130.7 41.6 132 41.6C133.6 41.6 134.2 40.4 134.2 39.5V38.4Z" fill="url(#paint12_linear_312_800)"/>
<path d="M137.7 31.7L138.4 31.6V33.7H140.2V34.4H138.4V40C138.4 41.6 138.9 41.9 140.3 41.8V42.4C138.3 42.6 137.7 41.8 137.7 39.9V31.7Z" fill="url(#paint13_linear_312_800)"/>
<path d="M143.6 31.5C143.6 32.2 142.5 32.2 142.5 31.5C142.5 30.8 143.6 30.8 143.6 31.5ZM143.4 42.3H142.7V33.6H143.4V42.3Z" fill="url(#paint14_linear_312_800)"/>
<path d="M146.1 39.2V36.9C146.1 34.5 146.9 33.7 148.9 33.7C150.7 33.7 151.6 34.4 151.6 37V39.2C151.6 41.6 150.8 42.4 148.8 42.4C147 42.4 146.1 41.7 146.1 39.2ZM150.8 39.2V36.9C150.8 35.1 150.5 34.4 148.8 34.4C147.2 34.4 146.8 35.1 146.8 36.9V39.2C146.8 41 147.1 41.8 148.8 41.8C150.4 41.7 150.8 41 150.8 39.2Z" fill="url(#paint15_linear_312_800)"/>
<path d="M155 33.8L155.1 34.7C155.5 34.1 156.2 33.6 157.3 33.6C159.3 33.6 159.9 34.5 159.9 36.7V42.3H159.2V36.7C159.2 34.8 158.8 34.2 157.2 34.2C155.6 34.2 155.1 35.3 155.1 36.3V42.3H154.4V33.7L155 33.8Z" fill="url(#paint16_linear_312_800)"/>
<path d="M163 39.9C163 40.9 163.5 41.7 165.1 41.7C166.4 41.7 167.1 41.1 167.1 39.9C167.1 38.3 165.9 38.3 164.7 38.1C163.6 38 162.4 37.7 162.4 35.8C162.4 34.4 163.3 33.5 165.1 33.5C166.9 33.5 167.7 34.3 167.7 35.8H167C167 34.7 166.4 34.2 165.2 34.2C163.9 34.2 163.3 34.8 163.3 35.8C163.3 37.3 164.3 37.3 165.4 37.4C166.7 37.6 167.9 37.8 167.9 39.7C167.9 41.2 167.1 42.2 165.1 42.2C163.4 42.2 162.3 41.5 162.3 39.7L163 39.9Z" fill="url(#paint17_linear_312_800)"/>
<path d="M78.6 0.599999V4.3C78.6 4.5 78.5 4.7 78.2 4.7H71.3V26.9C71.3 27.1 71.2 27.3 70.9 27.3H66.8C66.6 27.3 66.4 27.2 66.4 26.9V4.7H59.5C59.3 4.7 59.1 4.6 59.1 4.3V1.2C59.1 1 59.2 0.8 59.5 0.8C64.4 0.5 78 0.2 78 0.2C78.4 0.3 78.6 0.399999 78.6 0.599999Z" fill="url(#paint18_linear_312_800)"/>
<path d="M49.8 1.3C45.6 1.6 38.6 1.9 32.8 2.4C32.6 2.4 32.4 2.5 32.4 2.8V26.8C32.4 27 32.5 27.2 32.8 27.2H49.8C50 27.2 50.2 27.1 50.2 26.8V22.8C50.2 22.6 50.1 22.4 49.8 22.4H37.2V17.2H46.9C47.1 17.2 47.3 17.1 47.3 16.8V12.8C47.3 12.6 47.2 12.4 46.9 12.4H37.2V6.2L49.9 5.6C50.1 5.6 50.3 5.5 50.3 5.2V1.8C50.2 1.6 50 1.3 49.8 1.3Z" fill="url(#paint19_linear_312_800)"/>
<path d="M105.1 0C100.9 0 92.4 -5.73695e-07 88.1 0.0999994C87.9 0.0999994 87.7 0.2 87.7 0.5V27C87.7 27.2 87.8 27.4 88.1 27.4H105.1C105.3 27.4 105.5 27.3 105.5 27V23C105.5 22.8 105.4 22.6 105.1 22.6H92.4V17.4H102.1C102.3 17.4 102.5 17.3 102.5 17V13C102.5 12.8 102.4 12.6 102.1 12.6H92.4V4.8H105.1C105.3 4.8 105.5 4.7 105.5 4.4V0.3C105.5 0.1 105.3 0 105.1 0Z" fill="url(#paint20_linear_312_800)"/>
<path d="M21.8 3.5C20.8 3.6 17.8 3.9 17.8 3.9C17.6 3.9 17.4 4 17.4 4.3V17.5L0.599998 6.4C0.499998 6.2 0.300001 6.2 0.200001 6.3C0.100001 6.4 0 6.4 0 6.6V27C0 27.2 0.0999977 27.4 0.399998 27.4H4.4C4.6 27.4 4.8 27.3 4.8 27V15.1L21.5 27.2C21.6 27.3 21.6 27.3 21.8 27.3C21.9 27.3 21.9 27.3 21.9 27.3C22 27.2 22.1 27.1 22.1 26.9V3.9C22.1 3.7 22 3.5 21.8 3.5Z" fill="url(#paint21_linear_312_800)"/>
<path d="M137.8 26.8L131.8 19.2C133.1 18.2 137 16.9 136.9 10C136.8 4.5 132 0.799999 125.8 0.399999C122.5 0.0999994 118.5 0.3 118.5 0.3C118.3 0.3 118.1 0.4 118.1 0.7V27.1C118.1 27.3 118.2 27.5 118.5 27.5H122.7C122.9 27.5 123.1 27.4 123.1 27.1V20.9H126.9L132 27.3C132.1 27.4 132.2 27.4 132.3 27.4H137.6C137.7 27.4 137.9 27.3 138 27.2C137.9 27.1 137.9 26.9 137.8 26.8ZM125.8 15.9H123V4.9C123 4.9 124.9 4.9 125.8 4.9C126.4 4.9 127.4 5 128.2 5.3C130.2 6 132.2 7.6 132.2 10.7C132.2 15.1 127.5 15.9 125.8 15.9Z" fill="url(#paint22_linear_312_800)"/>
<path d="M169.6 26.8L163.6 19.2C164.9 18.2 169 16.7 168.7 10.4C168.6 7.8 166.4 2.6 158.7 1.8C156.6 1.6 153.4 1.4 150.3 1.2C150.1 1.2 149.9 1.3 149.9 1.6V27C149.9 27.2 150 27.4 150.3 27.4H154.5C154.7 27.4 154.9 27.3 154.9 27V20.8H158.7L163.8 27.2C163.9 27.3 164 27.3 164.1 27.3H169.4C169.5 27.3 169.7 27.2 169.8 27.1C169.7 27.1 169.7 26.9 169.6 26.8ZM157.6 15.9H154.8V6.2C154.8 6.2 156.8 6.2 157.4 6.3C158.2 6.4 159 6.5 159.7 6.7C162.2 7.3 164 8.8 163.9 11.2C163.9 15.6 159.3 15.9 157.6 15.9Z" fill="url(#paint23_linear_312_800)"/>
<path d="M201.6 26.8L189.8 4.8C189.7 4.5 189.2 4.5 189.1 4.8L177.3 26.9C177.2 27 177.2 27.2 177.3 27.3C177.4 27.4 177.5 27.4 177.6 27.4H181.9C182 27.4 182.2 27.3 182.3 27.2C184 23.6 189.4 12.5 189.4 12.5L193.2 20.5C194.8 20.7 197 22 197.4 24C197.8 25.6 197.3 26.8 196.7 27.5H201.2C201.3 27.5 201.4 27.4 201.5 27.4C201.6 27.1 201.6 26.9 201.6 26.8Z" fill="url(#paint24_linear_312_800)"/>
<path d="M196.4 24.2C196.4 25.9 195 27.3 193.3 27.3C191.6 27.3 190.2 25.9 190.2 24.2C190.2 22.5 191.6 21.1 193.3 21.1C195 21.1 196.4 22.6 196.4 24.2Z" fill="url(#paint25_linear_312_800)"/>
<defs>
<linearGradient id="paint0_linear_312_800" x1="0" y1="42.4299" x2="201.6" y2="42.4299" gradientUnits="userSpaceOnUse">
<stop offset="0.236684" stop-color="#4584CC"/>
<stop offset="1" stop-color="#2B519B"/>
</linearGradient>
<linearGradient id="paint1_linear_312_800" x1="0" y1="42.4299" x2="201.6" y2="42.4299" gradientUnits="userSpaceOnUse">
<stop offset="0.236684" stop-color="#4584CC"/>
<stop offset="1" stop-color="#2B519B"/>
</linearGradient>
<linearGradient id="paint2_linear_312_800" x1="0" y1="42.4299" x2="201.6" y2="42.4299" gradientUnits="userSpaceOnUse">
<stop offset="0.236684" stop-color="#4584CC"/>
<stop offset="1" stop-color="#2B519B"/>
</linearGradient>
<linearGradient id="paint3_linear_312_800" x1="0" y1="42.4299" x2="201.6" y2="42.4299" gradientUnits="userSpaceOnUse">
<stop offset="0.236684" stop-color="#4584CC"/>
<stop offset="1" stop-color="#2B519B"/>
</linearGradient>
<linearGradient id="paint4_linear_312_800" x1="0" y1="42.4299" x2="201.6" y2="42.4299" gradientUnits="userSpaceOnUse">
<stop offset="0.236684" stop-color="#4584CC"/>
<stop offset="1" stop-color="#2B519B"/>
</linearGradient>
<linearGradient id="paint5_linear_312_800" x1="0" y1="42.4299" x2="201.6" y2="42.4299" gradientUnits="userSpaceOnUse">
<stop offset="0.236684" stop-color="#4584CC"/>
<stop offset="1" stop-color="#2B519B"/>
</linearGradient>
<linearGradient id="paint6_linear_312_800" x1="0" y1="42.4299" x2="201.6" y2="42.4299" gradientUnits="userSpaceOnUse">
<stop offset="0.236684" stop-color="#4584CC"/>
<stop offset="1" stop-color="#2B519B"/>
</linearGradient>
<linearGradient id="paint7_linear_312_800" x1="0" y1="42.4299" x2="201.6" y2="42.4299" gradientUnits="userSpaceOnUse">
<stop offset="0.236684" stop-color="#4584CC"/>
<stop offset="1" stop-color="#2B519B"/>
</linearGradient>
<linearGradient id="paint8_linear_312_800" x1="0" y1="42.4299" x2="201.6" y2="42.4299" gradientUnits="userSpaceOnUse">
<stop offset="0.236684" stop-color="#4584CC"/>
<stop offset="1" stop-color="#2B519B"/>
</linearGradient>
<linearGradient id="paint9_linear_312_800" x1="0" y1="42.4299" x2="201.6" y2="42.4299" gradientUnits="userSpaceOnUse">
<stop offset="0.236684" stop-color="#4584CC"/>
<stop offset="1" stop-color="#2B519B"/>
</linearGradient>
<linearGradient id="paint10_linear_312_800" x1="0" y1="42.4299" x2="201.6" y2="42.4299" gradientUnits="userSpaceOnUse">
<stop offset="0.236684" stop-color="#4584CC"/>
<stop offset="1" stop-color="#2B519B"/>
</linearGradient>
<linearGradient id="paint11_linear_312_800" x1="0" y1="42.4299" x2="201.6" y2="42.4299" gradientUnits="userSpaceOnUse">
<stop offset="0.236684" stop-color="#4584CC"/>
<stop offset="1" stop-color="#2B519B"/>
</linearGradient>
<linearGradient id="paint12_linear_312_800" x1="0" y1="42.4299" x2="201.6" y2="42.4299" gradientUnits="userSpaceOnUse">
<stop offset="0.236684" stop-color="#4584CC"/>
<stop offset="1" stop-color="#2B519B"/>
</linearGradient>
<linearGradient id="paint13_linear_312_800" x1="0" y1="42.4299" x2="201.6" y2="42.4299" gradientUnits="userSpaceOnUse">
<stop offset="0.236684" stop-color="#4584CC"/>
<stop offset="1" stop-color="#2B519B"/>
</linearGradient>
<linearGradient id="paint14_linear_312_800" x1="0" y1="42.4299" x2="201.6" y2="42.4299" gradientUnits="userSpaceOnUse">
<stop offset="0.236684" stop-color="#4584CC"/>
<stop offset="1" stop-color="#2B519B"/>
</linearGradient>
<linearGradient id="paint15_linear_312_800" x1="0" y1="42.4299" x2="201.6" y2="42.4299" gradientUnits="userSpaceOnUse">
<stop offset="0.236684" stop-color="#4584CC"/>
<stop offset="1" stop-color="#2B519B"/>
</linearGradient>
<linearGradient id="paint16_linear_312_800" x1="0" y1="42.4299" x2="201.6" y2="42.4299" gradientUnits="userSpaceOnUse">
<stop offset="0.236684" stop-color="#4584CC"/>
<stop offset="1" stop-color="#2B519B"/>
</linearGradient>
<linearGradient id="paint17_linear_312_800" x1="0" y1="42.4299" x2="201.6" y2="42.4299" gradientUnits="userSpaceOnUse">
<stop offset="0.236684" stop-color="#4584CC"/>
<stop offset="1" stop-color="#2B519B"/>
</linearGradient>
<linearGradient id="paint18_linear_312_800" x1="0" y1="42.4299" x2="201.6" y2="42.4299" gradientUnits="userSpaceOnUse">
<stop offset="0.236684" stop-color="#4584CC"/>
<stop offset="1" stop-color="#2B519B"/>
</linearGradient>
<linearGradient id="paint19_linear_312_800" x1="0" y1="42.4299" x2="201.6" y2="42.4299" gradientUnits="userSpaceOnUse">
<stop offset="0.236684" stop-color="#4584CC"/>
<stop offset="1" stop-color="#2B519B"/>
</linearGradient>
<linearGradient id="paint20_linear_312_800" x1="0" y1="42.4299" x2="201.6" y2="42.4299" gradientUnits="userSpaceOnUse">
<stop offset="0.236684" stop-color="#4584CC"/>
<stop offset="1" stop-color="#2B519B"/>
</linearGradient>
<linearGradient id="paint21_linear_312_800" x1="0" y1="42.4299" x2="201.6" y2="42.4299" gradientUnits="userSpaceOnUse">
<stop offset="0.236684" stop-color="#4584CC"/>
<stop offset="1" stop-color="#2B519B"/>
</linearGradient>
<linearGradient id="paint22_linear_312_800" x1="0" y1="42.4299" x2="201.6" y2="42.4299" gradientUnits="userSpaceOnUse">
<stop offset="0.236684" stop-color="#4584CC"/>
<stop offset="1" stop-color="#2B519B"/>
</linearGradient>
<linearGradient id="paint23_linear_312_800" x1="0" y1="42.4299" x2="201.6" y2="42.4299" gradientUnits="userSpaceOnUse">
<stop offset="0.236684" stop-color="#4584CC"/>
<stop offset="1" stop-color="#2B519B"/>
</linearGradient>
<linearGradient id="paint24_linear_312_800" x1="0" y1="42.4299" x2="201.6" y2="42.4299" gradientUnits="userSpaceOnUse">
<stop offset="0.236684" stop-color="#4584CC"/>
<stop offset="1" stop-color="#2B519B"/>
</linearGradient>
<linearGradient id="paint25_linear_312_800" x1="0" y1="42.4299" x2="201.6" y2="42.4299" gradientUnits="userSpaceOnUse">
<stop offset="0.236684" stop-color="#4584CC"/>
<stop offset="1" stop-color="#2B519B"/>
</linearGradient>
</defs>
</svg>
