<svg width="184" height="34" viewBox="0 0 184 34" fill="none" xmlns="http://www.w3.org/2000/svg">
<path d="M140.079 27.5344V27.6047C141.047 27.6047 141.785 27.386 142.296 26.9488C142.82 26.4959 143.082 25.8947 143.082 25.1451C143.082 24.3955 142.786 23.7865 142.195 23.318C141.617 22.8339 140.59 22.3966 139.112 22.0062C136.721 21.4441 134.955 20.6242 133.813 19.5467C132.671 18.4692 132.1 16.97 132.1 15.0492C132.1 13.1128 132.812 11.4731 134.236 10.1301C135.674 8.78706 137.601 8.11556 140.019 8.11556C142.45 8.11556 144.405 8.79487 145.882 10.1535C147.373 11.4965 148.085 13.2221 148.018 15.3303L147.978 15.4474H142.86C142.86 14.5104 142.605 13.7608 142.094 13.1987C141.584 12.6365 140.879 12.3554 139.979 12.3554C139.092 12.3554 138.4 12.5974 137.903 13.0815C137.406 13.55 137.158 14.1591 137.158 14.9086C137.158 15.6582 137.426 16.2516 137.964 16.6889C138.501 17.1105 139.529 17.4853 141.047 17.8133C143.518 18.3911 145.325 19.2265 146.467 20.3197C147.622 21.4128 148.199 22.951 148.199 24.9343C148.199 26.9019 147.44 28.5338 145.923 29.83C144.418 31.1105 142.41 31.7508 139.898 31.7508C137.386 31.7508 135.351 31.009 133.793 29.5255C132.248 28.0263 131.516 26.2461 131.597 24.1847L131.617 24.0442H136.473C136.526 26.371 137.729 27.5344 140.079 27.5344Z" fill="url(#paint0_linear_315_876)"/>
<path d="M17.5666 31.4314V15.781H8.30414V20.572H10.8593V24.0853C10.8541 24.1323 10.8489 24.1816 10.8435 24.2328L10.8435 24.2336C10.7392 25.2277 10.5576 26.9599 8.43203 26.9599C6.35812 26.9599 6.37276 25.5857 6.38575 24.3671C6.38676 24.272 6.38777 24.1778 6.38777 24.0853V9.39314C6.38777 8.43495 7.02669 6.19919 8.30438 6.19919C9.90149 6.19919 10.8593 7.79616 10.8593 8.75435V11.3095H17.5666C17.6731 10.1384 17.6306 7.34901 16.6085 5.5604C15.331 3.32463 13.4143 1.08887 8.30414 1.08887C3.19395 1.08887 0 5.5604 0 7.47677V26.3211C0 27.9181 1.91624 32.0702 6.38777 32.0702C9.96499 32.0702 12.137 30.1538 12.7758 29.1956V31.4314H17.5666Z" fill="url(#paint1_linear_315_876)"/>
<path d="M20.4413 8.75435V31.4314H27.1486V17.0586C28.6817 15.0145 31.6201 14.9293 32.8977 15.1423V8.11556C32.8977 8.11556 29.3843 9.07374 27.1486 11.3095V8.75435H20.4413Z" fill="url(#paint2_linear_315_876)"/>
<path fill-rule="evenodd" clip-rule="evenodd" d="M39.9244 15.781H34.4947C34.4947 8.36588 42.2942 6.52252 47.9093 10.0319C49.9534 11.3095 50.2515 14.6099 50.145 16.1004V31.4314H44.0765V29.515L42.1602 30.7926C41.202 31.4314 37.0498 31.7508 35.4529 30.4732C33.8559 29.1956 33.8559 27.2793 33.8559 23.4465C33.8559 19.8948 38.7927 18.5373 41.2959 17.849C41.4939 17.7946 41.6769 17.7442 41.8408 17.6974C44.0765 17.0586 44.0765 15.781 44.0765 15.1423C44.0765 14.5035 44.0765 12.5871 41.8408 12.5871C40.0521 12.5871 39.8179 14.7164 39.9244 15.781ZM41.202 21.8495C41.9686 21.3385 43.4378 20.7849 44.0766 20.572C44.0766 20.9876 44.1157 21.4815 44.1576 22.01C44.3402 24.3155 44.575 27.2793 41.8408 27.2793C40.2439 27.2793 39.8163 22.7734 41.202 21.8495Z" fill="url(#paint3_linear_315_876)"/>
<path d="M80.807 32.0702C84.9591 32.0702 89.75 29.515 89.75 26.6405C89.75 26.1672 89.7453 25.1547 89.7387 23.7728V23.7702C89.7145 18.6234 89.6661 8.35676 89.75 1.72766H83.0427V25.0435C82.9363 25.5758 82.4039 26.6405 81.1264 26.6405C79.8488 26.6405 79.3164 25.5758 79.21 25.0435V21.8495H72.8221C72.8221 27.6788 75.0578 32.0702 80.807 32.0702Z" fill="url(#paint4_linear_315_876)"/>
<path fill-rule="evenodd" clip-rule="evenodd" d="M99.6513 8.11556C95.7705 8.11556 92.6246 11.2615 92.6246 15.1423V24.7241C92.6246 28.6048 95.7705 31.7508 99.6513 31.7508H102.845C106.726 31.7508 109.872 28.6048 109.872 24.7241V15.1423C109.872 11.2615 106.726 8.11556 102.845 8.11556H99.6513ZM101.248 13.2259C100.366 13.2259 99.6513 13.9409 99.6513 14.8229V25.6823C99.6513 26.5643 100.366 27.2793 101.248 27.2793C102.13 27.2793 102.845 26.5643 102.845 25.6823V14.8229C102.845 13.9409 102.13 13.2259 101.248 13.2259Z" fill="url(#paint5_linear_315_876)"/>
<path fill-rule="evenodd" clip-rule="evenodd" d="M123.925 8.11556C120.397 8.11556 117.537 10.9755 117.537 14.5035V25.3629C117.537 28.8908 120.397 31.7508 123.925 31.7508C127.453 31.7508 130.313 28.8908 130.313 25.3629V14.5035C130.313 10.9755 127.453 8.11556 123.925 8.11556ZM121.69 13.2259C120.808 13.2259 120.093 13.9409 120.093 14.8229V25.6823C120.093 26.5643 120.808 27.2793 121.69 27.2793C122.572 27.2793 123.287 26.5643 123.287 25.6823V14.8229C123.287 13.9409 122.572 13.2259 121.69 13.2259Z" fill="url(#paint6_linear_315_876)"/>
<path d="M112.427 1.72766H119.454V31.7508H112.427V1.72766Z" fill="url(#paint7_linear_315_876)"/>
<path fill-rule="evenodd" clip-rule="evenodd" d="M59.4075 8.11556C62.9354 8.11556 65.7954 10.9755 65.7954 14.5035V25.3629C65.7954 28.8908 62.9354 31.7508 59.4075 31.7508C55.8795 31.7508 53.0196 28.8908 53.0196 25.3629V14.5035C53.0196 10.9755 55.8795 8.11556 59.4075 8.11556ZM61.6433 13.2259C62.5252 13.2259 63.2402 13.9409 63.2402 14.8229V25.6823C63.2402 26.5643 62.5252 27.2793 61.6433 27.2793C60.7613 27.2793 60.0463 26.5643 60.0463 25.6823V14.8229C60.0463 13.9409 60.7613 13.2259 61.6433 13.2259Z" fill="url(#paint8_linear_315_876)"/>
<path d="M70.9057 1.72766H63.879V31.7508H70.9057V1.72766Z" fill="url(#paint9_linear_315_876)"/>
<path d="M153.373 2.17069L153.373 2.17069L160.88 9.6774C161.753 10.5504 161.746 11.9631 160.877 12.8328L151.954 21.7551C151.697 22.0127 151.7 22.424 151.95 22.6739M153.373 2.17069L151.95 22.6739M153.373 2.17069L153.371 2.16795M153.373 2.17069L153.371 2.16795M151.95 22.6739L151.243 23.381L153.181 1.70111C153.186 1.34054 153.484 1.05077 153.844 1.05485L153.844 1.05494L153.857 1.05491L182.272 1.00008V1.00011L182.28 1.00003C182.454 0.998325 182.619 1.06603 182.741 1.18701C182.858 1.30803 182.923 1.47081 182.921 1.64117L182.921 1.64117L182.921 1.64904L182.866 30.0639H182.866L182.867 30.0774C182.869 30.2571 182.796 30.4311 182.665 30.5572L182.665 30.5572C182.403 30.8098 181.992 30.799 181.747 30.5443L181.74 30.5375L181.733 30.5308L174.209 23.0067C173.336 22.1337 171.924 22.1404 171.054 23.0101L162.132 31.9324C161.874 32.1899 161.463 32.1868 161.213 31.9369L151.95 22.6739ZM153.371 2.16795C153.247 2.04532 153.178 1.87719 153.181 1.70114L153.371 2.16795Z" stroke="#2B519B" stroke-width="2"/>
<defs>
<linearGradient id="paint0_linear_315_876" x1="0" y1="32.0702" x2="148.199" y2="32.0702" gradientUnits="userSpaceOnUse">
<stop offset="0.236684" stop-color="#4584CC"/>
<stop offset="1" stop-color="#2B519B"/>
</linearGradient>
<linearGradient id="paint1_linear_315_876" x1="0" y1="32.0702" x2="148.199" y2="32.0702" gradientUnits="userSpaceOnUse">
<stop offset="0.236684" stop-color="#4584CC"/>
<stop offset="1" stop-color="#2B519B"/>
</linearGradient>
<linearGradient id="paint2_linear_315_876" x1="0" y1="32.0702" x2="148.199" y2="32.0702" gradientUnits="userSpaceOnUse">
<stop offset="0.236684" stop-color="#4584CC"/>
<stop offset="1" stop-color="#2B519B"/>
</linearGradient>
<linearGradient id="paint3_linear_315_876" x1="0" y1="32.0702" x2="148.199" y2="32.0702" gradientUnits="userSpaceOnUse">
<stop offset="0.236684" stop-color="#4584CC"/>
<stop offset="1" stop-color="#2B519B"/>
</linearGradient>
<linearGradient id="paint4_linear_315_876" x1="0" y1="32.0702" x2="148.199" y2="32.0702" gradientUnits="userSpaceOnUse">
<stop offset="0.236684" stop-color="#4584CC"/>
<stop offset="1" stop-color="#2B519B"/>
</linearGradient>
<linearGradient id="paint5_linear_315_876" x1="0" y1="32.0702" x2="148.199" y2="32.0702" gradientUnits="userSpaceOnUse">
<stop offset="0.236684" stop-color="#4584CC"/>
<stop offset="1" stop-color="#2B519B"/>
</linearGradient>
<linearGradient id="paint6_linear_315_876" x1="0" y1="32.0702" x2="148.199" y2="32.0702" gradientUnits="userSpaceOnUse">
<stop offset="0.236684" stop-color="#4584CC"/>
<stop offset="1" stop-color="#2B519B"/>
</linearGradient>
<linearGradient id="paint7_linear_315_876" x1="0" y1="32.0702" x2="148.199" y2="32.0702" gradientUnits="userSpaceOnUse">
<stop offset="0.236684" stop-color="#4584CC"/>
<stop offset="1" stop-color="#2B519B"/>
</linearGradient>
<linearGradient id="paint8_linear_315_876" x1="0" y1="32.0702" x2="148.199" y2="32.0702" gradientUnits="userSpaceOnUse">
<stop offset="0.236684" stop-color="#4584CC"/>
<stop offset="1" stop-color="#2B519B"/>
</linearGradient>
<linearGradient id="paint9_linear_315_876" x1="0" y1="32.0702" x2="148.199" y2="32.0702" gradientUnits="userSpaceOnUse">
<stop offset="0.236684" stop-color="#4584CC"/>
<stop offset="1" stop-color="#2B519B"/>
</linearGradient>
</defs>
</svg>
