<svg width="178" height="26" viewBox="0 0 178 26" fill="none" xmlns="http://www.w3.org/2000/svg">
<path d="M47.1878 2.85954V23.4807H55.9365C57.3298 23.4807 58.5847 23.3642 59.6656 23.1367C60.7761 22.9026 61.7433 22.5492 62.5403 22.0895C63.3433 21.6233 64.0869 20.9812 64.7554 20.1822C65.4219 19.3823 65.9717 18.368 66.392 17.1695C66.8083 15.9747 67.021 14.5947 67.021 13.0663C67.021 11.269 66.7085 9.64084 66.0934 8.22893C65.4896 6.8188 64.5031 5.58617 63.2345 4.65686C62.2525 3.9321 61.056 3.42355 59.6794 3.15001C58.7113 2.95448 57.3674 2.85954 55.5736 2.85954H47.1878ZM55.5162 6.52561C57.1726 6.52561 58.3711 6.64406 59.0772 6.87906C60.0236 7.19773 60.8147 7.81908 61.4941 8.78072C62.1705 9.73954 62.5136 11.1665 62.5136 13.0259C62.5136 14.3889 62.3326 15.5536 61.9747 16.4908C61.6285 17.3979 61.147 18.1217 60.5418 18.6453C60.1294 19.0016 59.5539 19.2854 58.831 19.4894C58.0705 19.7047 56.9818 19.8147 55.5924 19.8147H51.5775V6.52561H55.5162Z" fill="#387DB7"/>
<path d="M94.0008 2.85954H79.656V23.4807H95.2082V19.8156H83.7797V14.6483H93.9781V10.9832H83.7797V6.5275H94.7267V2.86142H94.0008V2.85954Z" fill="#387DB7"/>
<path d="M112.797 2.85954H109.399V23.4807H123.456V19.8156H113.522V2.86048L112.797 2.85954Z" fill="#387DB7"/>
<path d="M130.857 2.85954V6.52562H137.533V23.4798H141.655V6.52562H148.331V2.85954H130.857Z" fill="#387DB7"/>
<path d="M164.399 2.85954L155.197 23.4807H159.588C159.588 23.4807 161.493 18.4216 161.785 17.6423H171.073L173.379 23.4807H178L168.349 2.85954H164.399ZM166.373 7.82472C166.724 8.8155 167.079 9.80628 167.079 9.80628L168.811 14.1783H164.003L165.865 9.48574V9.48668C166.077 8.94993 166.197 8.37839 166.373 7.82472Z" fill="#387DB7"/>
<path d="M0 22.787L15.8727 0V16.0123L0 22.787ZM15.8727 18.9969V26H0.0543889L15.8727 18.9969ZM31.7453 22.787L15.8727 0V16.0123L31.7453 22.787ZM15.8727 18.9969V26H31.6899L15.8727 18.9969Z" fill="#387DB7"/>
</svg>
