<svg width="194" height="44" viewBox="0 0 194 44" fill="none" xmlns="http://www.w3.org/2000/svg">
<path fill-rule="evenodd" clip-rule="evenodd" d="M50.0557 0.12177H56.1308V36.1541H50.0557V0.12177ZM26.3466 13.131C26.3466 12.2783 25.762 11.8141 25.091 11.8141C24.4232 11.8141 23.8235 12.2649 23.8235 13.131V30.4847C23.8235 31.3496 24.4229 31.8016 25.091 31.8016C25.7623 31.8016 26.3466 31.3294 26.3466 30.4847V24.7977H32.4157V30.0398C32.4157 34.292 29.08 36.5082 25.0628 36.5082C21.2208 36.5082 17.7532 34.3632 17.7532 30.0398V13.5723C17.7532 9.25809 21.2211 7.10692 25.0628 7.10692C29.0121 7.10692 32.4157 9.32492 32.4157 13.5723V18.2664H26.3466V13.131ZM39.9691 13.9124C39.9691 13.0466 40.5667 12.5958 41.2348 12.5958C41.9053 12.5958 42.4925 13.0627 42.4925 13.9124V36.1571H48.5673V12.3237C48.5673 8.43986 46.0564 7.10187 44.1401 7.10187C41.9992 7.10187 40.495 8.6531 40.08 9.44075H39.9816V0.12177H33.9068V36.1571H39.9689V13.9124H39.9691ZM66.207 29.9661C66.207 30.8138 65.6201 31.2836 64.9493 31.2836C64.2833 31.2836 63.6836 30.8319 63.6836 29.9661V7.44194H57.6118V31.3597C57.6118 34.531 59.7936 36.5085 62.1347 36.5085C64.507 36.5085 65.7946 34.7847 66.159 34.1533H66.2959L66.4046 36.1571H72.2791V7.44194H66.2073V29.9661H66.207ZM79.8322 36.1571H73.7598V7.44194H79.7742L79.8349 9.44491H79.9564C80.402 8.56371 81.8469 7.10187 84.0366 7.10187C86.3043 7.10187 87.7622 8.85299 88.0736 9.88328H88.1595C88.6128 8.83576 90.2026 7.10187 92.5029 7.10187C94.8268 7.10187 97.0536 8.68221 97.0536 12.5907V36.1571H90.9792V13.6282C90.9792 12.7603 90.3848 12.3086 89.7159 12.3086C89.0448 12.3086 88.4529 12.7746 88.4529 13.6282V36.1571H82.3502V13.6386C82.3502 12.7704 81.7453 12.319 81.0775 12.319C80.4064 12.319 79.8319 12.7868 79.8319 13.6386V36.1571H79.8322ZM108.619 7.10187C106.586 7.09979 105.124 8.82566 104.741 9.455H104.612V0.12177H98.5377V36.1571H104.544L104.612 34.1533H104.741C105.045 34.9266 106.348 36.4972 108.576 36.5002C111.147 36.5034 113.238 34.2822 113.238 30.9231V12.3237C113.238 9.09356 111.058 7.10187 108.619 7.10187ZM107.143 29.9759C107.143 30.8269 106.556 31.294 105.882 31.294C105.215 31.294 104.614 30.8402 104.614 29.9759V13.6469C104.614 12.7808 105.215 12.33 105.882 12.33C106.556 12.33 107.143 12.7989 107.143 13.6469V29.9759ZM120.794 30.4987C120.794 31.3644 121.396 31.8165 122.064 31.8165C122.733 31.8165 123.319 31.3496 123.319 30.4987V24.7977H129.39V30.035C129.39 34.3653 125.835 36.5085 122.039 36.5085C118.194 36.5085 114.713 34.3653 114.713 30.035V13.5824C114.713 9.26611 118.188 7.10692 122.034 7.10692C125.98 7.10692 129.39 9.31482 129.39 13.5824V22.8607H120.793V30.4987H120.794ZM123.319 18.4817V13.136C123.319 12.2866 122.733 11.8194 122.065 11.8194C121.396 11.8194 120.794 12.2679 120.794 13.136L120.799 18.4817H123.319ZM138.229 12.3237C137.563 12.3237 136.958 12.7746 136.958 13.6433V36.1571H130.88V7.44194H136.836L136.953 9.44075H137.087C137.66 8.64271 139.127 7.10187 141.156 7.10187C143.508 7.10187 145.561 9.01426 145.561 12.0517V22.8304H139.483V13.4526C139.483 12.7657 138.828 12.3237 138.215 12.3237H138.229ZM169.25 30.4987C169.25 31.3644 169.854 31.8165 170.521 31.8165C171.191 31.8165 171.776 31.3496 171.776 30.4987V24.7977H177.848V30.035C177.848 34.3653 174.287 36.5085 170.496 36.5085C166.65 36.5085 163.175 34.3653 163.175 30.035V13.5824C163.175 9.26611 166.645 7.10692 170.49 7.10692C174.435 7.10692 177.848 9.31482 177.848 13.5824V22.8607H169.25V30.4987ZM171.776 18.4817V13.136C171.776 12.2866 171.191 11.8194 170.521 11.8194C169.854 11.8194 169.25 12.2679 169.25 13.136L169.255 18.4817H171.776ZM186.667 12.3237C185.993 12.3237 185.394 12.7746 185.394 13.6433V36.1571H179.314V7.44194H185.267L185.389 9.44075H185.52C186.094 8.64271 187.563 7.10187 189.593 7.10187C191.946 7.10187 194 9.01426 194 12.0517V22.8304H187.917V13.4526C187.917 12.7657 187.262 12.3237 186.651 12.3237H186.667ZM155.63 28.177C155.63 29.0247 155.047 29.4918 154.374 29.4918C153.708 29.4918 153.106 29.0431 153.106 28.177V13.6516C153.106 12.7888 153.708 12.3401 154.374 12.3401C155.047 12.3401 155.63 12.8031 155.63 13.6516V28.177ZM155.63 38.2605C155.63 39.1102 155.044 39.575 154.374 39.575C153.708 39.575 153.106 39.1233 153.106 38.2605V35.9317H147.042V37.5144C147.042 42.003 150.129 44 154.354 44C158.545 44 161.707 42.003 161.707 37.5144V7.44194H155.721L155.63 9.455H155.483C155.166 8.79715 153.744 7.10187 151.479 7.10187C149.288 7.10187 147.041 8.78913 147.041 11.9076V29.0573C147.041 32.3416 149.145 34.259 151.514 34.259C153.767 34.259 155.078 32.7493 155.45 32.1515H155.63V38.2605H155.63ZM6.83707 30.035C6.83707 30.9029 7.43909 31.3546 8.10777 31.3546C8.77765 31.3546 9.36071 30.8845 9.36071 30.035V26.6299C9.36071 23.9127 8.78031 22.9258 6.76774 21.0297C5.05232 19.4116 4.18662 18.5792 3.07826 17.5316C1.66031 16.1874 0.0245906 14.3154 0.0245906 10.8173V6.50104C0.0228129 1.76329 3.95582 0 8.09948 0C12.2301 0 16.1308 1.8019 16.1308 6.46748V12.0324H9.36041V6.63291C9.36041 5.7823 8.77557 5.31512 8.10481 5.31512C7.43642 5.31512 6.83707 5.76775 6.83707 6.63291V9.22542C6.83707 11.471 7.53834 12.4586 9.39537 14.2361C10.1423 14.9528 11.8328 16.6014 13.134 17.8735C15.4607 20.1583 16.265 22.2192 16.265 25.0535V29.8773C16.265 34.8931 12.2378 36.6543 8.09948 36.6543C3.90783 36.6546 0 34.8931 0 30.1161V23.2061H6.83707V30.035Z" fill="url(#paint0_linear_309_697)"/>
<defs>
<linearGradient id="paint0_linear_309_697" x1="0" y1="44" x2="194" y2="44" gradientUnits="userSpaceOnUse">
<stop offset="0.236684" stop-color="#4584CC"/>
<stop offset="1" stop-color="#2B519B"/>
</linearGradient>
</defs>
</svg>
