<svg width="143" height="78" viewBox="0 0 143 78" fill="none" xmlns="http://www.w3.org/2000/svg">
<path fill-rule="evenodd" clip-rule="evenodd" d="M42.1637 57.5955H38.6008L28.7193 67.5456V57.5955H26.0802V77.6696H28.7193V70.7131L31.9742 67.5061L39.0435 77.6696H42.5296L33.8234 65.7187L42.1637 57.5955ZM0 59.9677H6.54904V77.6696H9.18809V59.9677H15.7755V57.5955H0V59.9677ZM60.6935 57.5955H57.1298L47.2483 67.5456V57.5955H44.61V77.6696H47.2483V70.7131L50.5047 67.5061L57.5921 77.6696H61.0594L52.3532 65.7187L60.6935 57.5955ZM18.9153 77.6696H21.5536V57.5955H18.9153V77.6696ZM103.839 77.6696H106.46V57.5955H103.839V77.6696ZM134.851 57.5955H132.021L124.374 77.6696H127.166L129.362 71.5867H137.683L139.994 77.6696H143L134.851 57.5955ZM130.112 69.4104L132.308 63.5424C132.759 62.2894 133.113 61.0031 133.368 59.6951L133.482 60.103C133.791 61.1132 134.234 62.3764 134.792 63.8531L136.852 69.4104H130.112ZM113.624 57.5955H111.005V77.6696H123.429V75.2989H113.624V57.5955ZM76.2951 69.178C76.2951 71.6846 75.8907 73.3953 75.0625 74.2696C74.2539 75.1629 72.8858 75.6103 70.9402 75.6103C69.8236 75.6103 68.8598 75.3771 68.07 74.9297C67.3183 74.5046 66.7337 73.8325 66.4135 73.0254C66.1056 72.2088 65.9324 70.9266 65.9324 69.178V57.5963H63.313V69.178C63.313 71.3155 63.5637 72.9866 64.0644 74.2111C64.5651 75.4546 65.4129 76.3874 66.6063 77.0285C67.7816 77.6703 69.3033 78 71.1713 78C73.0974 78 74.6198 77.6308 75.7944 76.8925C76.9885 76.1344 77.7972 75.1819 78.2587 73.9969C78.7015 72.8111 78.9334 71.1977 78.9334 69.1772V57.5955H76.2936V69.178H76.2951ZM95.2495 69.5274C94.8836 69.1962 94.3437 68.8665 93.6495 68.5361C95.5567 68.2641 96.982 67.6413 97.8878 66.6705C98.8131 65.699 99.2551 64.4942 99.2551 63.076C99.2551 61.9685 98.9863 60.9575 98.4269 60.0445C97.887 59.1314 97.1356 58.4896 96.2125 58.1401C95.2872 57.771 93.9386 57.5955 92.167 57.5955H83.3644V77.6696H85.9839V68.7503H89.0468C89.7207 68.7503 90.2026 68.789 90.5098 68.8475C90.7612 68.9053 91.0112 69.0025 91.2612 69.1195C91.4156 69.1969 91.5699 69.2744 91.7054 69.3716C92.0909 69.6436 92.5525 70.0713 93.0524 70.7131C93.5351 71.3542 94.1698 72.2863 94.9408 73.4917L97.5806 77.6696H100.892L97.4255 72.189C96.732 71.1408 96.0198 70.2467 95.2495 69.5274ZM91.6467 66.4571H85.9831V59.812H92.2814C93.7655 59.812 94.8429 60.1037 95.5183 60.7251C96.2125 61.3274 96.5385 62.1243 96.5385 63.0768C96.5414 63.711 96.3611 64.3323 96.0198 64.8649C95.6727 65.4278 95.1524 65.8167 94.4785 66.0696C93.785 66.3211 92.8409 66.4571 91.6467 66.4571Z" fill="url(#paint0_linear_309_695)"/>
<path fill-rule="evenodd" clip-rule="evenodd" d="M71.1721 0L47.1918 24.1926L71.1721 48.405L95.1524 24.1926L71.1721 0ZM58.516 34.6661V13.8734C60.5963 12.8442 62.7151 14.8062 61.6362 17.6433C64.1788 18.6544 65.2194 20.1895 62.9658 22.8322L59.7297 23.0654C60.1724 26.2322 61.6557 28.0978 64.6411 28.0203C67.954 28.1753 69.2634 26.0575 70.0344 23.3176C68.1468 23.3958 66.4324 23.2014 65.8353 21.0243C65.1607 18.6734 66.7207 18.0323 68.5895 17.6433C67.8193 15.2726 68.5315 13.9517 70.7467 13.679V13.6402C70.7851 13.6592 70.8235 13.6592 70.8626 13.6592C70.901 13.6592 70.9394 13.6592 70.9974 13.6402V13.679C73.193 13.9509 73.906 15.2726 73.135 17.6433C75.0038 18.0323 76.5646 18.6734 75.8704 21.0243C75.2733 23.2006 73.5777 23.3951 71.6909 23.3176C72.4619 26.0575 73.7705 28.176 77.0646 28.0203C80.0688 28.0978 81.534 26.2322 81.976 23.0654L78.7406 22.8322C76.4863 20.1895 77.5261 18.6544 80.0688 17.6433C78.9906 14.8062 81.1101 12.8442 83.1897 13.8734V34.6661H58.516Z" fill="url(#paint1_linear_309_695)"/>
<path d="M71.1721 0L95.1524 24.1926L71.1721 48.405L47.1911 24.1926L71.1721 0ZM83.1912 34.6661V13.8734C81.1116 12.8442 78.9928 14.8062 80.0703 17.6433C77.5276 18.6544 76.4878 20.1895 78.7421 22.8322L81.9775 23.0654C81.5348 26.2322 80.0703 28.0978 77.0661 28.0203C73.772 28.1753 72.4634 26.0575 71.6924 23.3176C73.5792 23.3958 75.2748 23.2014 75.8719 21.0243C76.5661 18.6734 75.0061 18.0323 73.1365 17.6433C73.9068 15.2726 73.1937 13.9517 70.9989 13.679V13.6402C70.9409 13.6592 70.9025 13.6592 70.8641 13.6592C70.825 13.6592 70.7866 13.6592 70.7482 13.6402V13.679C68.5331 13.9509 67.8208 15.2726 68.591 17.6433C66.723 18.0323 65.1622 18.6734 65.8368 21.0243C66.4331 23.2006 68.1475 23.3951 70.0359 23.3176C69.2649 26.0575 67.9556 28.176 64.6426 28.0203C61.6572 28.0978 60.174 26.2322 59.7312 23.0654L62.9673 22.8322C65.2209 20.1895 64.1803 18.6544 61.6377 17.6433C62.7166 14.8062 60.5979 12.8442 58.5175 13.8734V34.6661H83.1912Z" fill="url(#paint2_linear_309_695)"/>
<defs>
<linearGradient id="paint0_linear_309_695" x1="0" y1="78" x2="143" y2="78" gradientUnits="userSpaceOnUse">
<stop offset="0.236684" stop-color="#4584CC"/>
<stop offset="1" stop-color="#2B519B"/>
</linearGradient>
<linearGradient id="paint1_linear_309_695" x1="0" y1="78" x2="143" y2="78" gradientUnits="userSpaceOnUse">
<stop offset="0.236684" stop-color="#4584CC"/>
<stop offset="1" stop-color="#2B519B"/>
</linearGradient>
<linearGradient id="paint2_linear_309_695" x1="0" y1="78" x2="143" y2="78" gradientUnits="userSpaceOnUse">
<stop offset="0.236684" stop-color="#4584CC"/>
<stop offset="1" stop-color="#2B519B"/>
</linearGradient>
</defs>
</svg>
