<svg width="186" height="74" viewBox="0 0 186 74" fill="none" xmlns="http://www.w3.org/2000/svg">
<path d="M1.77274e-07 1H4V73H1.77274e-07V1Z" fill="url(#paint0_linear_310_717)"/>
<path d="M74 3.19033e-06V4.00001L0 4L1.77274e-07 0L74 3.19033e-06Z" fill="url(#paint1_linear_310_717)"/>
<path d="M70 1H74V73H70V1Z" fill="url(#paint2_linear_310_717)"/>
<path d="M74 70V74L0 74L1.77274e-07 70H74Z" fill="url(#paint3_linear_310_717)"/>
<path d="M14.695 51V26.325H18.055L31.32 43.545V26.325H35.485V51H32.16L18.86 33.71V51H14.695Z" fill="url(#paint4_linear_310_717)"/>
<path d="M40.8766 51V26.325H51.5866C54.2933 26.325 56.3816 27.0017 57.8516 28.355C59.3216 29.7083 60.0566 31.5983 60.0566 34.025C60.0566 36.4517 59.3216 38.3533 57.8516 39.73C56.3816 41.0833 54.2933 41.76 51.5866 41.76H45.3566V51H40.8766ZM45.3566 38.225H50.8866C54.1066 38.225 55.7166 36.825 55.7166 34.025C55.7166 31.2483 54.1066 29.86 50.8866 29.86H45.3566V38.225Z" fill="url(#paint5_linear_310_717)"/>
<path d="M90.995 49.315C89.5017 49.315 88.1833 48.965 87.04 48.265C85.92 47.5417 85.045 46.515 84.415 45.185C83.785 43.855 83.47 42.28 83.47 40.46C83.47 38.64 83.785 37.0767 84.415 35.77C85.045 34.44 85.92 33.4133 87.04 32.69C88.16 31.9667 89.4783 31.605 90.995 31.605C92.2783 31.605 93.4217 31.885 94.425 32.445C95.4283 33.005 96.175 33.7633 96.665 34.72V24.325H100.2V49H96.735V46.025C96.245 47.0517 95.4867 47.8567 94.46 48.44C93.4567 49.0233 92.3017 49.315 90.995 49.315ZM91.905 46.585C93.3517 46.585 94.5183 46.06 95.405 45.01C96.2917 43.96 96.735 42.4433 96.735 40.46C96.735 38.4767 96.2917 36.9717 95.405 35.945C94.5183 34.895 93.3517 34.37 91.905 34.37C90.435 34.37 89.2567 34.895 88.37 35.945C87.4833 36.9717 87.04 38.4767 87.04 40.46C87.04 42.4433 87.4833 43.96 88.37 45.01C89.2567 46.06 90.435 46.585 91.905 46.585Z" fill="url(#paint6_linear_310_717)"/>
<path d="M105.899 27.965V24.29H110.029V27.965H105.899ZM106.214 49V31.92H109.749V49H106.214Z" fill="url(#paint7_linear_310_717)"/>
<path d="M123.509 55.615C121.969 55.615 120.534 55.4283 119.204 55.055C117.874 54.705 116.696 54.145 115.669 53.375L116.754 50.855C117.781 51.555 118.831 52.0683 119.904 52.395C120.978 52.7217 122.098 52.885 123.264 52.885C126.531 52.885 128.164 51.2517 128.164 47.985V45.29C127.674 46.3167 126.904 47.1217 125.854 47.705C124.828 48.2883 123.673 48.58 122.389 48.58C120.849 48.58 119.508 48.23 118.364 47.53C117.221 46.8067 116.334 45.815 115.704 44.555C115.074 43.2717 114.759 41.7783 114.759 40.075C114.759 38.395 115.074 36.925 115.704 35.665C116.334 34.3817 117.221 33.39 118.364 32.69C119.508 31.9667 120.849 31.605 122.389 31.605C123.696 31.605 124.863 31.8967 125.889 32.48C126.916 33.0633 127.674 33.8683 128.164 34.895V31.92H131.594V47.565C131.594 50.2483 130.906 52.255 129.529 53.585C128.153 54.9383 126.146 55.615 123.509 55.615ZM123.229 45.815C124.723 45.815 125.913 45.3017 126.799 44.275C127.686 43.2483 128.129 41.8483 128.129 40.075C128.129 38.3017 127.686 36.9133 126.799 35.91C125.913 34.8833 124.723 34.37 123.229 34.37C121.736 34.37 120.546 34.8833 119.659 35.91C118.773 36.9133 118.329 38.3017 118.329 40.075C118.329 41.8483 118.773 43.2483 119.659 44.275C120.546 45.3017 121.736 45.815 123.229 45.815Z" fill="url(#paint8_linear_310_717)"/>
<path d="M137.291 27.965V24.29H141.421V27.965H137.291ZM137.606 49V31.92H141.141V49H137.606Z" fill="url(#paint9_linear_310_717)"/>
<path d="M154.446 49.315C152.3 49.315 150.701 48.7667 149.651 47.67C148.601 46.5733 148.076 44.9867 148.076 42.91V34.65H144.751V31.92H148.076V26.775H151.611V31.92H156.896V34.65H151.611V42.63C151.611 43.8667 151.868 44.8 152.381 45.43C152.918 46.06 153.781 46.375 154.971 46.375C155.345 46.375 155.706 46.34 156.056 46.27C156.406 46.1767 156.756 46.0717 157.106 45.955L157.666 48.615C157.316 48.825 156.826 48.9883 156.196 49.105C155.59 49.245 155.006 49.315 154.446 49.315Z" fill="url(#paint10_linear_310_717)"/>
<path d="M166.46 49.315C165.27 49.315 164.208 49.0817 163.275 48.615C162.341 48.1483 161.595 47.5183 161.035 46.725C160.498 45.9317 160.23 45.0333 160.23 44.03C160.23 42.77 160.545 41.7783 161.175 41.055C161.828 40.3317 162.89 39.8067 164.36 39.48C165.853 39.1533 167.86 38.99 170.38 38.99H171.57V38.08C171.57 36.75 171.29 35.7933 170.73 35.21C170.17 34.6267 169.248 34.335 167.965 34.335C166.985 34.335 166.005 34.4867 165.025 34.79C164.045 35.07 163.041 35.525 162.015 36.155L160.93 33.67C161.816 33.04 162.925 32.5383 164.255 32.165C165.585 31.7917 166.856 31.605 168.07 31.605C170.403 31.605 172.13 32.165 173.25 33.285C174.37 34.3817 174.93 36.1083 174.93 38.465V49H171.605V46.165C171.185 47.145 170.531 47.915 169.645 48.475C168.758 49.035 167.696 49.315 166.46 49.315ZM167.16 46.795C168.42 46.795 169.47 46.3517 170.31 45.465C171.15 44.5783 171.57 43.4583 171.57 42.105V41.16H170.415C168.711 41.16 167.37 41.2417 166.39 41.405C165.433 41.5683 164.745 41.8483 164.325 42.245C163.928 42.6183 163.73 43.1433 163.73 43.82C163.73 44.7067 164.033 45.43 164.64 45.99C165.246 46.5267 166.086 46.795 167.16 46.795Z" fill="url(#paint11_linear_310_717)"/>
<path d="M181.685 49V23.92H185.22V49H181.685Z" fill="url(#paint12_linear_310_717)"/>
<defs>
<linearGradient id="paint0_linear_310_717" x1="0" y1="74" x2="185.22" y2="74" gradientUnits="userSpaceOnUse">
<stop offset="0.236684" stop-color="#4584CC"/>
<stop offset="1" stop-color="#2B519B"/>
</linearGradient>
<linearGradient id="paint1_linear_310_717" x1="0" y1="74" x2="185.22" y2="74" gradientUnits="userSpaceOnUse">
<stop offset="0.236684" stop-color="#4584CC"/>
<stop offset="1" stop-color="#2B519B"/>
</linearGradient>
<linearGradient id="paint2_linear_310_717" x1="0" y1="74" x2="185.22" y2="74" gradientUnits="userSpaceOnUse">
<stop offset="0.236684" stop-color="#4584CC"/>
<stop offset="1" stop-color="#2B519B"/>
</linearGradient>
<linearGradient id="paint3_linear_310_717" x1="0" y1="74" x2="185.22" y2="74" gradientUnits="userSpaceOnUse">
<stop offset="0.236684" stop-color="#4584CC"/>
<stop offset="1" stop-color="#2B519B"/>
</linearGradient>
<linearGradient id="paint4_linear_310_717" x1="0" y1="74" x2="185.22" y2="74" gradientUnits="userSpaceOnUse">
<stop offset="0.236684" stop-color="#4584CC"/>
<stop offset="1" stop-color="#2B519B"/>
</linearGradient>
<linearGradient id="paint5_linear_310_717" x1="0" y1="74" x2="185.22" y2="74" gradientUnits="userSpaceOnUse">
<stop offset="0.236684" stop-color="#4584CC"/>
<stop offset="1" stop-color="#2B519B"/>
</linearGradient>
<linearGradient id="paint6_linear_310_717" x1="0" y1="74" x2="185.22" y2="74" gradientUnits="userSpaceOnUse">
<stop offset="0.236684" stop-color="#4584CC"/>
<stop offset="1" stop-color="#2B519B"/>
</linearGradient>
<linearGradient id="paint7_linear_310_717" x1="0" y1="74" x2="185.22" y2="74" gradientUnits="userSpaceOnUse">
<stop offset="0.236684" stop-color="#4584CC"/>
<stop offset="1" stop-color="#2B519B"/>
</linearGradient>
<linearGradient id="paint8_linear_310_717" x1="0" y1="74" x2="185.22" y2="74" gradientUnits="userSpaceOnUse">
<stop offset="0.236684" stop-color="#4584CC"/>
<stop offset="1" stop-color="#2B519B"/>
</linearGradient>
<linearGradient id="paint9_linear_310_717" x1="0" y1="74" x2="185.22" y2="74" gradientUnits="userSpaceOnUse">
<stop offset="0.236684" stop-color="#4584CC"/>
<stop offset="1" stop-color="#2B519B"/>
</linearGradient>
<linearGradient id="paint10_linear_310_717" x1="0" y1="74" x2="185.22" y2="74" gradientUnits="userSpaceOnUse">
<stop offset="0.236684" stop-color="#4584CC"/>
<stop offset="1" stop-color="#2B519B"/>
</linearGradient>
<linearGradient id="paint11_linear_310_717" x1="0" y1="74" x2="185.22" y2="74" gradientUnits="userSpaceOnUse">
<stop offset="0.236684" stop-color="#4584CC"/>
<stop offset="1" stop-color="#2B519B"/>
</linearGradient>
<linearGradient id="paint12_linear_310_717" x1="0" y1="74" x2="185.22" y2="74" gradientUnits="userSpaceOnUse">
<stop offset="0.236684" stop-color="#4584CC"/>
<stop offset="1" stop-color="#2B519B"/>
</linearGradient>
</defs>
</svg>
