<svg width="169" height="49" viewBox="0 0 169 49" fill="none" xmlns="http://www.w3.org/2000/svg">
<path d="M32.1236 3.27204C28.0761 -1.28138 22.5108 1.2483 19.9812 3.27204C16.1577 6.33084 -6.37 25.6007 1.76744 32.1103C5.48106 35.0811 5.2697 36.1579 20.4873 24.1605C35.7049 12.163 36.8896 8.63382 32.1236 3.27204Z" fill="url(#paint0_linear_310_737)"/>
<path d="M41.2311 24.5215C38.0985 19.968 34.6535 22.4976 27.8933 27.2204C24.9165 29.3 6.45206 41.234 11.8431 46.7713C14.3034 49.2984 16.2829 49.6618 28.5827 42.2292C40.8826 34.7967 44.7116 29.5806 41.2311 24.5215Z" fill="url(#paint1_linear_310_737)"/>
<path d="M60.1777 34.8424C58.9466 34.8424 57.8504 34.6316 56.8891 34.21C55.9279 33.7883 55.169 33.215 54.6124 32.4898C54.0559 31.7477 53.7439 30.9214 53.6764 30.0107H57.9516C58.0022 30.4998 58.2299 30.8961 58.6346 31.1996C59.0394 31.5032 59.5369 31.655 60.1271 31.655C60.6668 31.655 61.08 31.5538 61.3667 31.3514C61.6702 31.1322 61.822 30.8539 61.822 30.5166C61.822 30.1119 61.6112 29.8168 61.1896 29.6312C60.768 29.4289 60.085 29.2096 59.1405 28.9735C58.1287 28.7374 57.2854 28.4929 56.6109 28.2399C55.9363 27.9701 55.3545 27.5569 54.8654 27.0004C54.3763 26.427 54.1318 25.6597 54.1318 24.6984C54.1318 23.8889 54.351 23.1553 54.7895 22.4976C55.2448 21.823 55.9026 21.2917 56.7626 20.9039C57.6396 20.516 58.6768 20.322 59.8741 20.322C61.6449 20.322 63.0362 20.7605 64.0481 21.6375C65.0769 22.5144 65.6671 23.6781 65.8189 25.1284H61.822C61.7545 24.6393 61.5353 24.2515 61.1643 23.9648C60.8101 23.6781 60.3379 23.5347 59.7477 23.5347C59.2417 23.5347 58.8538 23.6359 58.584 23.8383C58.3142 24.0238 58.1793 24.2852 58.1793 24.6225C58.1793 25.0272 58.3901 25.3308 58.8117 25.5332C59.2502 25.7355 59.9247 25.9379 60.8354 26.1403C61.881 26.4101 62.7327 26.68 63.3904 26.9498C64.0481 27.2028 64.6215 27.6244 65.1106 28.2146C65.6165 28.788 65.8779 29.5638 65.8948 30.5419C65.8948 31.3683 65.6587 32.1103 65.1865 32.768C64.7311 33.4089 64.065 33.9148 63.188 34.2858C62.3279 34.6569 61.3245 34.8424 60.1777 34.8424Z" fill="url(#paint2_linear_310_737)"/>
<path d="M83.7446 20.5244V34.64H79.4189V32.7174C78.9804 33.3414 78.3817 33.8474 77.6228 34.2353C76.8807 34.6063 76.0544 34.7918 75.1437 34.7918C74.0644 34.7918 73.1115 34.5557 72.2852 34.0835C71.4588 33.5944 70.818 32.8945 70.3626 31.9838C69.9073 31.0732 69.6796 30.0023 69.6796 28.7712V20.5244H73.9801V28.1893C73.9801 29.1337 74.2246 29.8673 74.7137 30.3901C75.2027 30.9129 75.8605 31.1743 76.6868 31.1743C77.53 31.1743 78.1962 30.9129 78.6852 30.3901C79.1743 29.8673 79.4189 29.1337 79.4189 28.1893V20.5244H83.7446Z" fill="url(#paint3_linear_310_737)"/>
<path d="M104.679 27.5569C104.679 26.1066 104.948 24.8333 105.488 23.7371C106.045 22.6409 106.795 21.7977 107.74 21.2074C108.684 20.6172 109.738 20.322 110.902 20.322C111.897 20.322 112.765 20.5244 113.507 20.9292C114.266 21.3339 114.848 21.8651 115.253 22.5229V20.5244H119.578V34.64H115.253V32.6416C114.831 33.2993 114.241 33.8305 113.482 34.2353C112.74 34.64 111.871 34.8424 110.876 34.8424C109.73 34.8424 108.684 34.5472 107.74 33.957C106.795 33.3499 106.045 32.4982 105.488 31.402C104.948 30.289 104.679 29.0073 104.679 27.5569ZM115.253 27.5822C115.253 26.5029 114.949 25.6512 114.342 25.0272C113.752 24.4032 113.027 24.0913 112.166 24.0913C111.306 24.0913 110.573 24.4032 109.966 25.0272C109.375 25.6344 109.08 26.4776 109.08 27.5569C109.08 28.6362 109.375 29.4963 109.966 30.1372C110.573 30.7612 111.306 31.0732 112.166 31.0732C113.027 31.0732 113.752 30.7612 114.342 30.1372C114.949 29.5132 115.253 28.6615 115.253 27.5822Z" fill="url(#paint4_linear_310_737)"/>
<path d="M131.84 30.972V34.64H129.639C128.071 34.64 126.848 34.2605 125.971 33.5016C125.094 32.7259 124.656 31.4695 124.656 29.7324V24.1165H122.936V20.5244H124.656V17.0841L128.982 15.0603V20.5244H132.827L131.815 24.1165H128.982V29.783C128.982 30.2046 129.083 30.5082 129.285 30.6937C129.487 30.8792 129.825 30.972 130.297 30.972H131.84Z" fill="url(#paint5_linear_310_737)"/>
<path d="M135.666 27.5569C135.666 26.1066 135.936 24.8333 136.476 23.7371C137.032 22.6409 137.783 21.7977 138.727 21.2074C139.672 20.6172 140.726 20.322 141.889 20.322C142.884 20.322 143.753 20.5244 144.495 20.9292C145.254 21.3339 145.835 21.8651 146.24 22.5229V20.5244H150.566V34.64H146.24V32.6416C145.819 33.2993 145.228 33.8305 144.469 34.2353C143.727 34.64 142.859 34.8424 141.864 34.8424C140.717 34.8424 139.672 34.5472 138.727 33.957C137.783 33.3499 137.032 32.4982 136.476 31.402C135.936 30.289 135.666 29.0073 135.666 27.5569ZM146.24 27.5822C146.24 26.5029 145.937 25.6512 145.33 25.0272C144.739 24.4032 144.014 24.0913 143.154 24.0913C142.294 24.0913 141.56 24.4032 140.953 25.0272C140.363 25.6344 140.068 26.4776 140.068 27.5569C140.068 28.6362 140.363 29.4963 140.953 30.1372C141.56 30.7612 142.294 31.0732 143.154 31.0732C144.014 31.0732 144.739 30.7612 145.33 30.1372C145.937 29.5132 146.24 28.6615 146.24 27.5822Z" fill="url(#paint6_linear_310_737)"/>
<path d="M163.561 20.3726C165.214 20.3726 166.529 20.9123 167.507 21.9916C168.502 23.0541 169 24.5213 169 26.3933V34.64H164.7V26.9751C164.7 26.0307 164.455 25.2971 163.966 24.7743C163.477 24.2515 162.819 23.9901 161.993 23.9901C161.166 23.9901 160.509 24.2515 160.02 24.7743C159.531 25.2971 159.286 26.0307 159.286 26.9751V34.64H154.96V20.5244H159.286V22.3964C159.725 21.7724 160.315 21.2833 161.057 20.9292C161.799 20.5581 162.634 20.3726 163.561 20.3726Z" fill="url(#paint7_linear_310_737)"/>
<path d="M93.8479 46.7825C87.7767 46.7825 86.2589 42.3978 85.7529 40.2054H89.8004C89.8004 41.2173 90.6099 43.241 93.8479 43.241C97.0859 43.241 97.5581 39.1935 97.3894 37.1698L101.437 35.146C101.437 41.2389 100.425 46.7825 93.8479 46.7825Z" fill="url(#paint8_linear_310_737)"/>
<path fill-rule="evenodd" clip-rule="evenodd" d="M93.3419 35.652C97.8129 35.652 101.437 32.0277 101.437 27.557C101.437 23.0863 97.8129 19.462 93.3419 19.462C88.871 19.462 85.247 23.0863 85.247 27.557C85.247 32.0277 88.871 35.652 93.3419 35.652ZM93.3419 31.6045C95.5772 31.6045 97.3894 29.7925 97.3894 27.557C97.3894 25.3216 95.5772 23.5095 93.3419 23.5095C91.1068 23.5095 89.2945 25.3216 89.2945 27.557C89.2945 29.7925 91.1068 31.6045 93.3419 31.6045Z" fill="url(#paint9_linear_310_737)"/>
<defs>
<linearGradient id="paint0_linear_310_737" x1="53.6764" y1="46.7825" x2="169" y2="46.7825" gradientUnits="userSpaceOnUse">
<stop offset="0.236684" stop-color="#4584CC"/>
<stop offset="1" stop-color="#2B519B"/>
</linearGradient>
<linearGradient id="paint1_linear_310_737" x1="53.6764" y1="46.7825" x2="169" y2="46.7825" gradientUnits="userSpaceOnUse">
<stop offset="0.236684" stop-color="#4584CC"/>
<stop offset="1" stop-color="#2B519B"/>
</linearGradient>
<linearGradient id="paint2_linear_310_737" x1="53.6764" y1="46.7825" x2="169" y2="46.7825" gradientUnits="userSpaceOnUse">
<stop offset="0.236684" stop-color="#4584CC"/>
<stop offset="1" stop-color="#2B519B"/>
</linearGradient>
<linearGradient id="paint3_linear_310_737" x1="53.6764" y1="46.7825" x2="169" y2="46.7825" gradientUnits="userSpaceOnUse">
<stop offset="0.236684" stop-color="#4584CC"/>
<stop offset="1" stop-color="#2B519B"/>
</linearGradient>
<linearGradient id="paint4_linear_310_737" x1="53.6764" y1="46.7825" x2="169" y2="46.7825" gradientUnits="userSpaceOnUse">
<stop offset="0.236684" stop-color="#4584CC"/>
<stop offset="1" stop-color="#2B519B"/>
</linearGradient>
<linearGradient id="paint5_linear_310_737" x1="53.6764" y1="46.7825" x2="169" y2="46.7825" gradientUnits="userSpaceOnUse">
<stop offset="0.236684" stop-color="#4584CC"/>
<stop offset="1" stop-color="#2B519B"/>
</linearGradient>
<linearGradient id="paint6_linear_310_737" x1="53.6764" y1="46.7825" x2="169" y2="46.7825" gradientUnits="userSpaceOnUse">
<stop offset="0.236684" stop-color="#4584CC"/>
<stop offset="1" stop-color="#2B519B"/>
</linearGradient>
<linearGradient id="paint7_linear_310_737" x1="53.6764" y1="46.7825" x2="169" y2="46.7825" gradientUnits="userSpaceOnUse">
<stop offset="0.236684" stop-color="#4584CC"/>
<stop offset="1" stop-color="#2B519B"/>
</linearGradient>
<linearGradient id="paint8_linear_310_737" x1="53.6764" y1="46.7825" x2="169" y2="46.7825" gradientUnits="userSpaceOnUse">
<stop offset="0.236684" stop-color="#4584CC"/>
<stop offset="1" stop-color="#2B519B"/>
</linearGradient>
<linearGradient id="paint9_linear_310_737" x1="53.6764" y1="46.7825" x2="169" y2="46.7825" gradientUnits="userSpaceOnUse">
<stop offset="0.236684" stop-color="#4584CC"/>
<stop offset="1" stop-color="#2B519B"/>
</linearGradient>
</defs>
</svg>
