<svg width="201" height="18" viewBox="0 0 201 18" fill="none" xmlns="http://www.w3.org/2000/svg">
<path d="M6.15 1.75H0V0.15H14.15V1.75H8V17.65H6.15V1.75Z" fill="url(#paint0_linear_310_745)"/>
<path d="M25.8137 17.8C23.547 17.8 21.7803 17.15 20.5137 15.85C19.247 14.55 18.6137 12.6583 18.6137 10.175V0.15H20.4637V10.1C20.4637 12.1333 20.922 13.65 21.8387 14.65C22.7553 15.65 24.0803 16.15 25.8137 16.15C27.5637 16.15 28.897 15.65 29.8137 14.65C30.7303 13.65 31.1887 12.1333 31.1887 10.1V0.15H32.9887V10.175C32.9887 12.6583 32.3553 14.55 31.0887 15.85C29.8387 17.15 28.0803 17.8 25.8137 17.8Z" fill="url(#paint1_linear_310_745)"/>
<path d="M51.5885 8.625C52.7385 8.875 53.6218 9.375 54.2385 10.125C54.8718 10.8583 55.1885 11.8083 55.1885 12.975C55.1885 14.475 54.6301 15.6333 53.5135 16.45C52.4135 17.25 50.7801 17.65 48.6135 17.65H40.5635V0.15H48.1135C50.0635 0.15 51.5718 0.541666 52.6385 1.325C53.7218 2.10833 54.2635 3.21667 54.2635 4.65C54.2635 5.61667 54.0218 6.44167 53.5385 7.125C53.0718 7.79167 52.4218 8.29167 51.5885 8.625ZM42.4135 1.675V8.025H47.9885C49.4051 8.025 50.4968 7.75833 51.2635 7.225C52.0301 6.675 52.4135 5.88333 52.4135 4.85C52.4135 3.81667 52.0301 3.03333 51.2635 2.5C50.4968 1.95 49.4051 1.675 47.9885 1.675H42.4135ZM48.5885 16.125C50.1551 16.125 51.3385 15.8583 52.1385 15.325C52.9385 14.7917 53.3385 13.9583 53.3385 12.825C53.3385 10.6417 51.7551 9.55 48.5885 9.55H42.4135V16.125H48.5885Z" fill="url(#paint2_linear_310_745)"/>
<path d="M73.7861 16.05V17.65H61.4111V0.15H73.4111V1.75H63.2611V7.975H72.3111V9.55H63.2611V16.05H73.7861Z" fill="url(#paint3_linear_310_745)"/>
<path d="M84.9598 17.8C83.6598 17.8 82.4098 17.5917 81.2098 17.175C80.0264 16.7583 79.1098 16.2083 78.4598 15.525L79.1848 14.1C79.8181 14.7333 80.6598 15.25 81.7098 15.65C82.7598 16.0333 83.8431 16.225 84.9598 16.225C86.5264 16.225 87.7014 15.9417 88.4848 15.375C89.2681 14.7917 89.6598 14.0417 89.6598 13.125C89.6598 12.425 89.4431 11.8667 89.0098 11.45C88.5931 11.0333 88.0764 10.7167 87.4598 10.5C86.8431 10.2667 85.9848 10.0167 84.8848 9.75C83.5681 9.41667 82.5181 9.1 81.7348 8.8C80.9514 8.48333 80.2764 8.00833 79.7098 7.375C79.1598 6.74167 78.8848 5.88333 78.8848 4.8C78.8848 3.91667 79.1181 3.11667 79.5848 2.4C80.0514 1.66667 80.7681 1.08333 81.7348 0.650001C82.7014 0.216667 83.9014 0 85.3348 0C86.3348 0 87.3098 0.141667 88.2598 0.425C89.2264 0.691667 90.0598 1.06667 90.7598 1.55L90.1348 3.025C89.4014 2.54167 88.6181 2.18333 87.7848 1.95C86.9514 1.7 86.1348 1.575 85.3348 1.575C83.8014 1.575 82.6431 1.875 81.8598 2.475C81.0931 3.05833 80.7098 3.81667 80.7098 4.75C80.7098 5.45 80.9181 6.01667 81.3348 6.45C81.7681 6.86667 82.3014 7.19167 82.9348 7.425C83.5848 7.64167 84.4514 7.88333 85.5348 8.15C86.8181 8.46667 87.8514 8.78333 88.6348 9.1C89.4348 9.4 90.1098 9.86667 90.6598 10.5C91.2098 11.1167 91.4848 11.9583 91.4848 13.025C91.4848 13.9083 91.2431 14.7167 90.7598 15.45C90.2931 16.1667 89.5681 16.7417 88.5848 17.175C87.6014 17.5917 86.3931 17.8 84.9598 17.8Z" fill="url(#paint4_linear_310_745)"/>
<path d="M105.116 17.8C103.382 17.8 101.816 17.4167 100.416 16.65C99.0323 15.8833 97.9406 14.825 97.1406 13.475C96.3573 12.1083 95.9656 10.5833 95.9656 8.9C95.9656 7.21667 96.3573 5.7 97.1406 4.35C97.9406 2.98333 99.0406 1.91667 100.441 1.15C101.841 0.383333 103.407 0 105.141 0C106.441 0 107.641 0.216667 108.741 0.650001C109.841 1.08333 110.774 1.71667 111.541 2.55L110.366 3.725C108.999 2.34167 107.274 1.65 105.191 1.65C103.807 1.65 102.549 1.96667 101.416 2.6C100.282 3.23333 99.3906 4.1 98.7406 5.2C98.1073 6.3 97.7906 7.53333 97.7906 8.9C97.7906 10.2667 98.1073 11.5 98.7406 12.6C99.3906 13.7 100.282 14.5667 101.416 15.2C102.549 15.8333 103.807 16.15 105.191 16.15C107.291 16.15 109.016 15.45 110.366 14.05L111.541 15.225C110.774 16.0583 109.832 16.7 108.716 17.15C107.616 17.5833 106.416 17.8 105.116 17.8Z" fill="url(#paint5_linear_310_745)"/>
<path d="M117.484 0.15H119.334V17.65H117.484V0.15Z" fill="url(#paint6_linear_310_745)"/>
<path d="M139.403 16.05V17.65H127.028V0.15H139.028V1.75H128.878V7.975H137.928V9.55H128.878V16.05H139.403Z" fill="url(#paint7_linear_310_745)"/>
<path d="M160.377 0.15V17.65H158.852L147.602 3.45V17.65H145.752V0.15H147.277L158.552 14.35V0.15H160.377Z" fill="url(#paint8_linear_310_745)"/>
<path d="M175.689 17.8C173.956 17.8 172.389 17.4167 170.989 16.65C169.606 15.8833 168.514 14.825 167.714 13.475C166.931 12.1083 166.539 10.5833 166.539 8.9C166.539 7.21667 166.931 5.7 167.714 4.35C168.514 2.98333 169.614 1.91667 171.014 1.15C172.414 0.383333 173.981 0 175.714 0C177.014 0 178.214 0.216667 179.314 0.650001C180.414 1.08333 181.347 1.71667 182.114 2.55L180.939 3.725C179.572 2.34167 177.847 1.65 175.764 1.65C174.381 1.65 173.122 1.96667 171.989 2.6C170.856 3.23333 169.964 4.1 169.314 5.2C168.681 6.3 168.364 7.53333 168.364 8.9C168.364 10.2667 168.681 11.5 169.314 12.6C169.964 13.7 170.856 14.5667 171.989 15.2C173.122 15.8333 174.381 16.15 175.764 16.15C177.864 16.15 179.589 15.45 180.939 14.05L182.114 15.225C181.347 16.0583 180.406 16.7 179.289 17.15C178.189 17.5833 176.989 17.8 175.689 17.8Z" fill="url(#paint9_linear_310_745)"/>
<path d="M200.433 16.05V17.65H188.058V0.15H200.058V1.75H189.908V7.975H198.958V9.55H189.908V16.05H200.433Z" fill="url(#paint10_linear_310_745)"/>
<defs>
<linearGradient id="paint0_linear_310_745" x1="-0.100098" y1="18.6499" x2="202.9" y2="18.6499" gradientUnits="userSpaceOnUse">
<stop offset="0.236684" stop-color="#4584CC"/>
<stop offset="1" stop-color="#2B519B"/>
</linearGradient>
<linearGradient id="paint1_linear_310_745" x1="-0.100098" y1="18.6499" x2="202.9" y2="18.6499" gradientUnits="userSpaceOnUse">
<stop offset="0.236684" stop-color="#4584CC"/>
<stop offset="1" stop-color="#2B519B"/>
</linearGradient>
<linearGradient id="paint2_linear_310_745" x1="-0.100098" y1="18.6499" x2="202.9" y2="18.6499" gradientUnits="userSpaceOnUse">
<stop offset="0.236684" stop-color="#4584CC"/>
<stop offset="1" stop-color="#2B519B"/>
</linearGradient>
<linearGradient id="paint3_linear_310_745" x1="-0.100098" y1="18.6499" x2="202.9" y2="18.6499" gradientUnits="userSpaceOnUse">
<stop offset="0.236684" stop-color="#4584CC"/>
<stop offset="1" stop-color="#2B519B"/>
</linearGradient>
<linearGradient id="paint4_linear_310_745" x1="-0.100098" y1="18.6499" x2="202.9" y2="18.6499" gradientUnits="userSpaceOnUse">
<stop offset="0.236684" stop-color="#4584CC"/>
<stop offset="1" stop-color="#2B519B"/>
</linearGradient>
<linearGradient id="paint5_linear_310_745" x1="-0.100098" y1="18.6499" x2="202.9" y2="18.6499" gradientUnits="userSpaceOnUse">
<stop offset="0.236684" stop-color="#4584CC"/>
<stop offset="1" stop-color="#2B519B"/>
</linearGradient>
<linearGradient id="paint6_linear_310_745" x1="-0.100098" y1="18.6499" x2="202.9" y2="18.6499" gradientUnits="userSpaceOnUse">
<stop offset="0.236684" stop-color="#4584CC"/>
<stop offset="1" stop-color="#2B519B"/>
</linearGradient>
<linearGradient id="paint7_linear_310_745" x1="-0.100098" y1="18.6499" x2="202.9" y2="18.6499" gradientUnits="userSpaceOnUse">
<stop offset="0.236684" stop-color="#4584CC"/>
<stop offset="1" stop-color="#2B519B"/>
</linearGradient>
<linearGradient id="paint8_linear_310_745" x1="-0.100098" y1="18.6499" x2="202.9" y2="18.6499" gradientUnits="userSpaceOnUse">
<stop offset="0.236684" stop-color="#4584CC"/>
<stop offset="1" stop-color="#2B519B"/>
</linearGradient>
<linearGradient id="paint9_linear_310_745" x1="-0.100098" y1="18.6499" x2="202.9" y2="18.6499" gradientUnits="userSpaceOnUse">
<stop offset="0.236684" stop-color="#4584CC"/>
<stop offset="1" stop-color="#2B519B"/>
</linearGradient>
<linearGradient id="paint10_linear_310_745" x1="-0.100098" y1="18.6499" x2="202.9" y2="18.6499" gradientUnits="userSpaceOnUse">
<stop offset="0.236684" stop-color="#4584CC"/>
<stop offset="1" stop-color="#2B519B"/>
</linearGradient>
</defs>
</svg>
