<svg width="196" height="49" viewBox="0 0 196 49" fill="none" xmlns="http://www.w3.org/2000/svg">
<path d="M195.284 27.7277C194.544 27.2511 193.586 27.4244 193.063 28.1609C192.976 28.2909 191.06 31.0637 187.708 31.0637C186.402 31.0637 185.4 30.6737 184.747 29.8506C184.703 29.8072 184.66 29.7206 184.616 29.6773C184.616 29.6773 184.66 29.6773 184.66 29.634C192.584 25.1282 192.497 21.2723 192.149 19.8426C191.67 18.1096 190.146 16.9832 188.187 16.9832C183.658 16.9832 180.654 22.0088 180.654 26.6879C180.654 27.2944 180.698 27.8576 180.785 28.4209C179.174 29.5906 176.692 31.0637 174.515 31.0637C173.252 31.0637 172.294 30.6737 171.684 29.9372C171.467 29.6773 171.293 29.374 171.162 29.0707C177.214 27.3377 179.522 23.4819 179.087 20.4058C178.825 18.4129 177.301 16.9832 175.429 16.9832C171.205 16.9832 168.158 21.4023 167.679 25.7347C166.851 25.6481 166.155 25.4315 165.502 24.9982C165.589 24.305 165.676 23.6118 165.676 22.962C165.676 21.5323 165.414 20.3192 164.892 19.366C164.195 18.1096 163.02 17.4164 161.67 17.4164C160.93 17.4164 160.277 17.8064 159.885 18.4995C159.101 19.9293 159.623 22.702 161.06 24.9116C161.322 25.3448 161.626 25.7347 161.975 26.1247C161.191 28.6375 159.536 31.0203 157.446 31.0203C156.488 31.0203 155.792 30.7171 155.182 30.1105C154.355 29.2007 153.789 27.5977 153.615 25.5614C159.536 18.1963 162.454 10.9611 160.799 7.53844C160.233 6.36868 159.188 5.71881 157.925 5.71881C153.832 5.71881 151.394 11.0044 150.436 21.8789C150.393 22.5287 150.349 23.3519 150.349 24.2184C148.172 27.1645 144.558 31.0203 141.336 31.0203C140.422 31.0203 139.725 30.7171 139.289 30.0672C139.246 30.0239 139.202 29.9372 139.159 29.8939C139.202 29.8939 139.246 29.8506 139.289 29.8072C147.258 24.695 147.127 20.8391 146.735 19.4527C146.3 17.9363 144.906 16.9399 143.121 16.9399C138.506 16.9399 135.371 22.2255 135.371 27.1644C135.371 27.5977 135.414 28.0309 135.458 28.4642C133.977 29.504 132.802 30.4571 131.626 31.3669C131.8 30.0239 132.062 28.2909 132.366 25.7347C132.453 25.2148 132.497 24.7816 132.541 24.565C132.802 22.702 129.71 22.3121 129.362 24.3917C129.014 26.5579 128.099 31.0203 125.53 31.0203C124.006 31.0203 123.179 29.3307 123.353 26.8612C123.571 22.962 125.705 19.7993 128.317 19.7993C129.231 19.7993 129.667 20.7524 129.667 20.7524C130.494 22.2255 133.063 20.969 132.497 19.4094C132.236 18.7162 131.408 16.9399 128.404 16.9399C122.308 16.9399 120.392 23.0919 120.131 27.1644C120.088 27.8143 120.088 28.4642 120.175 29.1141C119.304 30.1538 118.302 31.0203 117.301 31.0203C116.343 31.0203 115.733 29.9372 116.082 27.4677C116.43 25.0849 116.691 23.1353 116.822 22.0088C117.562 16.8532 111.075 16.9832 111.075 16.9832C111.075 16.9832 110.987 13.9505 108.506 13.9505C107.243 13.9505 106.067 14.9469 106.067 16.8099C106.067 18.5429 107.504 19.4094 107.504 19.4094C107.199 22.0955 105.937 31.0203 103.106 31.0203C101.844 31.0203 101.757 29.6773 101.887 28.7241C102.061 27.4244 102.279 25.1715 102.366 24.6083C102.627 22.7453 99.536 22.3554 99.1877 24.435C98.8393 26.6012 97.925 31.0637 95.356 31.0637C93.8321 31.0637 93.0048 29.1574 93.1354 26.8179C93.3531 22.8753 95.4866 19.8426 98.0991 19.8426C99.0135 19.8426 99.4489 20.7957 99.4489 20.7957C100.146 22.2688 102.802 21.229 102.279 19.4527C102.061 18.6728 101.191 16.9832 98.1862 16.9832C92.0904 16.9832 90.1746 23.1353 89.9133 27.2078C89.8698 27.8576 89.8698 28.4642 89.9133 29.0274C89.0425 30.1972 87.9975 31.0637 86.996 31.0637C86.0816 31.0637 85.385 30.5871 85.5591 28.5508C85.6462 27.5977 86.7348 21.0557 86.6912 19.8859C86.5606 17.893 85.6462 17.0265 83.4256 17.0265C81.0744 17.0265 79.3327 18.2396 78.5925 18.9761C78.5925 18.9761 79.681 10.7445 79.8987 9.14145C80.1164 7.49512 76.8944 7.45179 76.7202 9.14145C76.6331 9.87796 75.7623 16.3766 74.9785 22.4421C73.1498 26.4279 69.5358 32.4934 64.1802 32.4934C54.035 32.4934 58.694 10.4845 68.2296 10.4845C70.4502 10.4845 69.4488 14.0371 67.9683 16.16C66.9233 17.7197 69.5794 19.4527 71.0598 16.9832C75.1527 10.0946 71.7129 7.53844 68.4473 7.53844C54.3398 7.53844 49.1148 35.5261 63.7883 35.5261C68.6215 35.5261 71.8871 32.84 73.9771 29.8939C73.7594 31.5402 73.6287 32.6667 73.5852 32.8833C73.324 34.6163 76.5896 34.4863 76.7637 33.0133C76.8944 32.1034 77.3733 28.2476 77.7652 25.2582C77.9829 23.5685 80.0729 20.4491 82.4241 20.4491C82.9902 20.4491 83.3385 21.0124 83.295 21.4889C83.2079 22.0522 82.2064 29.374 82.25 30.4571C82.4241 33.5332 84.6448 34.2263 86.7348 34.2263C88.3894 34.2263 89.7391 33.4465 90.8277 32.2334C91.5679 33.4465 92.7 34.2263 94.2675 34.2263C97.7943 34.2263 99.0135 31.7135 99.0135 31.7135C99.0135 31.7135 99.4489 34.2263 102.497 34.2263C108.68 34.2263 110.117 23.5252 110.421 19.9292C110.77 19.9292 112.947 20.0592 113.339 21.2723C113.687 22.4421 112.598 26.168 112.511 30.0239C112.468 32.0601 113.208 34.2263 116.43 34.2263C118.39 34.2263 119.957 33.3165 121.046 32.3201C121.786 33.4898 122.918 34.2263 124.442 34.2263C126.183 34.2263 127.359 33.6631 128.099 33.0999C128.056 33.4465 128.012 33.7498 127.969 34.0964V34.1397C127.969 34.0964 119.826 39.9452 119.826 45.4474C119.826 47.6136 120.828 49 123.397 49C128.491 49 130.102 42.198 130.842 36.6092C130.886 36.3492 130.93 36.0893 130.93 35.8727C131.713 35.2661 132.453 34.7029 133.194 34.1397C134.239 33.3165 135.284 32.5367 136.459 31.6702C136.503 31.7568 136.59 31.8435 136.633 31.9301C137.722 33.4032 139.333 34.183 141.292 34.183C144.993 34.183 148.433 31.3669 150.872 28.5942C151.263 29.9372 151.829 31.2369 152.787 32.2767C153.963 33.5331 155.574 34.2263 157.403 34.2263C160.93 34.2263 163.368 31.4102 164.674 28.1609C165.632 28.5942 166.721 28.8541 167.853 28.9408C168.114 30.0672 168.549 31.107 169.246 31.9301C170.117 32.9699 171.728 34.2263 174.558 34.2263C177.388 34.2263 180.175 32.71 182.047 31.4536C182.134 31.5835 182.221 31.7135 182.309 31.8435C183.179 32.9266 184.878 34.2263 187.751 34.2263C192.846 34.2263 195.676 30.0672 195.806 29.8939C196.198 29.2007 195.981 28.2042 195.284 27.7277ZM123.789 45.924C123.31 45.924 122.961 45.6207 122.961 45.0142C122.961 42.2414 127.272 38.4721 127.316 38.4721C126.793 42.1981 125.269 45.924 123.789 45.924ZM143.034 19.9292C143.426 19.9292 143.513 20.2325 143.6 20.4058C143.774 21.0124 143.165 23.3086 138.506 26.5146C138.767 23.4819 140.639 19.9292 143.034 19.9292ZM157.838 8.96815C159.188 8.96815 158.099 13.5605 153.789 19.9726C154.79 11.4376 156.184 8.96815 157.838 8.96815ZM175.081 19.9292C175.777 19.9292 175.821 20.6224 175.864 20.8824C176.039 22.1821 174.819 24.5217 170.814 25.8647C171.249 23.0486 173.121 19.9292 175.081 19.9292ZM188.143 19.9292C188.622 19.9292 188.883 20.2759 189.014 20.7091C189.275 21.6189 188.056 23.9151 183.789 26.5146C183.876 23.4819 185.705 19.9292 188.143 19.9292Z" fill="url(#paint0_linear_312_818)"/>
<path d="M36.5006 30.1247C36.0915 29.8488 35.5531 29.87 35.144 30.1459C34.7349 30.4218 34.5626 30.9524 34.7134 31.4193C34.8641 31.8862 35.2948 32.2258 35.79 32.247C36.2853 32.2683 36.7374 31.9924 36.9312 31.5467C37.1466 31.0373 36.9743 30.4219 36.5006 30.1247C35.9838 29.7639 37.0389 30.4855 36.5006 30.1247Z" fill="url(#paint1_linear_312_818)"/>
<path d="M21.4708 40.9273C21.7292 40.9273 22.0091 40.9273 22.2675 40.9061C22.8058 40.8849 23.3442 40.8424 23.8609 40.7787C22.9781 40.8849 24.2916 40.7363 23.8609 40.7787C24.3993 40.7151 24.8299 41.2032 24.7222 41.7338C24.6576 41.9672 24.4854 42.1582 24.2701 42.2644C24.1193 42.328 23.9686 42.328 23.8179 42.3493C23.6456 42.3705 23.4518 42.3917 23.2796 42.3917C21.8584 42.4978 20.4373 42.4766 19.0161 42.328C17.7242 42.1795 16.4753 41.946 15.2264 41.564C14.0205 41.2032 12.8578 40.7363 11.7381 40.1633C10.5969 39.5902 9.54177 38.9111 8.52974 38.1471C7.36698 37.2981 6.31188 36.3219 5.36444 35.2395C4.41701 34.1783 3.57724 33.0111 2.86666 31.8014C2.13455 30.5492 1.53164 29.2334 1.07946 27.8539C0.605738 26.4531 0.304283 25.01 0.132023 23.5456C-0.0402383 22.0599 -0.0402396 20.5531 0.110489 19.0675C0.261217 17.6031 0.562674 16.1387 1.03639 14.738C1.48858 13.3584 2.06995 12.0426 2.80206 10.7692C3.51264 9.51706 4.37394 8.34979 5.32138 7.26741C6.26881 6.20625 7.32391 5.22999 8.46514 4.35984C9.6279 3.48969 10.8768 2.72566 12.1687 2.11018C13.5038 1.47349 14.9034 0.985359 16.3461 0.624565C17.8103 0.263772 19.3176 0.072765 20.8248 0.00909563C22.3321 -0.0333506 23.8609 0.072765 25.3467 0.327443C26.7894 0.58212 28.2105 0.985358 29.5886 1.51594C30.9452 2.04651 32.2371 2.72566 33.443 3.51091C34.6488 4.29617 35.7685 5.20876 36.802 6.22748C37.2327 6.65194 37.6203 7.0764 37.9002 7.6282C38.1371 8.09511 38.2663 8.62569 38.3093 9.13505C38.3739 10.1962 38.0079 11.2786 37.2758 12.0638C36.436 12.9977 35.1656 13.507 33.9167 13.4221C33.3138 13.3797 32.7108 13.2099 32.1725 12.9128C31.8926 12.7642 31.6342 12.5732 31.4189 12.361C31.1605 12.1275 30.9236 11.8516 30.6652 11.6182C29.6101 10.6419 28.4043 9.85663 27.0908 9.26238C25.7343 8.66813 24.2916 8.28612 22.8274 8.15878C21.3201 8.03144 19.7913 8.13756 18.3271 8.49835C16.9059 8.85914 15.5494 9.45339 14.3005 10.2386C13.0946 11.0239 12.018 12.0002 11.1352 13.1038C10.2308 14.2286 9.52024 15.502 9.02499 16.8603C8.52974 18.2398 8.27135 19.7042 8.27135 21.1686C8.27135 22.6542 8.5082 24.1186 9.00345 25.5193C9.47717 26.8776 10.1877 28.1298 11.0706 29.2546C11.9534 30.3794 13.03 31.3557 14.2359 32.1409C15.4632 32.9474 16.8198 33.5417 18.2625 33.9024C19.7267 34.2845 21.2555 34.3906 22.7628 34.2632C24.227 34.1359 25.6697 33.7751 27.0262 33.1809C27.177 33.1172 27.3062 33.0323 27.4569 33.0111C27.5861 32.9898 27.7153 32.9898 27.8445 33.0323C28.1029 33.1172 28.2967 33.3082 28.3613 33.5629C28.4259 33.7963 28.3828 34.0722 28.2105 34.2632C28.1244 34.3694 27.9952 34.433 27.866 34.4967C27.6937 34.5604 27.543 34.6453 27.3708 34.7089C25.9927 35.2819 24.55 35.6427 23.0642 35.7701C21.557 35.9186 20.0281 35.8338 18.5639 35.5366C18.7577 35.7489 18.93 35.9823 19.1022 36.2158C19.2745 36.4492 19.4468 36.7039 19.5975 36.9374C19.619 36.9798 19.6836 37.0647 19.6836 37.0647C19.6836 37.0647 19.7052 37.0647 19.7482 37.0647C19.8343 37.0647 19.8989 37.0859 19.9851 37.0859C20.1358 37.1071 20.2865 37.1071 20.4373 37.1284C21.0617 37.1708 21.6862 37.1708 22.3106 37.1496C23.538 37.0859 24.7653 36.9161 25.9496 36.5766C27.0908 36.2582 28.2105 35.8125 29.2656 35.2607C30.2992 34.7089 31.2682 34.0722 32.151 33.3082C32.3663 33.1172 32.5816 32.9262 32.797 32.7352C32.9908 32.5654 33.1415 32.3532 33.3783 32.247C33.7875 32.0348 34.2827 32.0985 34.6272 32.3744C34.9933 32.6503 35.144 33.1172 35.0364 33.5629C34.9718 33.7963 34.8641 33.9873 34.6918 34.1359C34.4765 34.3269 34.2827 34.5391 34.0674 34.7301C33.2061 35.4942 32.2802 36.1945 31.2897 36.7888C30.2777 37.4043 29.2226 37.9136 28.1029 38.3169C26.9616 38.7413 25.7989 39.0384 24.5931 39.2295C23.3657 39.4205 22.1168 39.5054 20.8679 39.4629C20.9756 39.7388 21.0617 40.0147 21.1478 40.2906C21.1909 40.4179 21.2124 40.5453 21.2555 40.6726C21.2555 40.7151 21.2986 40.8212 21.2986 40.8212L21.4708 40.9273Z" fill="url(#paint2_linear_312_818)"/>
<path d="M33.486 37.0222C32.2802 37.9136 30.9667 38.6776 29.5886 39.2719C28.8996 39.569 28.189 39.8237 27.4569 40.0572C27.0908 40.1633 26.7248 40.2694 26.3587 40.3543C26.208 40.3967 26.0357 40.4179 25.885 40.5028C25.7558 40.5665 25.6697 40.6726 25.6051 40.8C25.4544 41.0759 25.4974 41.3942 25.6912 41.6277C25.9065 41.9036 26.2295 41.946 26.5525 41.8823C27.2846 41.7126 28.0167 41.5003 28.7273 41.2456C30.1485 40.7575 31.5265 40.0996 32.8185 39.3143C33.1415 39.1233 33.4645 38.9111 33.7659 38.6989C33.9167 38.5928 34.0889 38.4866 34.2397 38.3805C34.3689 38.2744 34.5196 38.1895 34.6272 38.041C34.7995 37.8075 34.7995 37.4679 34.6488 37.2133C34.498 36.9586 34.1966 36.81 33.9167 36.8312C33.7444 36.8737 33.5937 36.9374 33.486 37.0222C31.2682 38.6352 33.8305 36.7676 33.486 37.0222Z" fill="url(#paint3_linear_312_818)"/>
<path d="M36.0699 34.7302C35.8761 34.9424 35.6608 35.1546 35.4455 35.3668C35.2732 35.5366 35.0794 35.6852 34.9933 35.9186C34.8641 36.3643 35.1656 36.8312 35.6177 36.8949C35.8977 36.9374 36.1345 36.8312 36.3283 36.6615C36.5436 36.4704 36.759 36.2582 36.9528 36.046C37.125 35.8762 37.3188 35.7064 37.3834 35.4517C37.4265 35.2607 37.4049 35.0273 37.2973 34.8575C37.0389 34.433 36.4144 34.3694 36.0699 34.7302C35.79 35.0273 36.3714 34.4118 36.0699 34.7302Z" fill="url(#paint4_linear_312_818)"/>
<path d="M31.182 30.2733C30.6868 30.7826 30.17 31.2495 29.6101 31.674C29.4594 31.7801 29.2872 31.9075 29.1364 32.0136C29.0072 32.0985 28.8996 32.2258 28.835 32.3744C28.7058 32.6715 28.7919 33.0323 29.0503 33.2445C29.3518 33.4992 29.7393 33.478 30.0623 33.2445C30.3638 33.0323 30.6652 32.8201 30.9452 32.6078C31.2036 32.3956 31.4619 32.1621 31.7203 31.9287C31.8711 31.8014 32.0003 31.6528 32.151 31.5042C32.2802 31.3769 32.4094 31.2496 32.4955 31.0798C32.6247 30.7402 32.4955 30.337 32.1725 30.1459C31.8495 29.9762 31.4404 30.0186 31.182 30.2733C30.4284 31.0585 31.4835 29.9762 31.182 30.2733Z" fill="url(#paint5_linear_312_818)"/>
<path d="M21.557 16.2236C20.5019 16.2236 19.4683 16.5419 18.607 17.1574C17.7672 17.7516 17.1212 18.5793 16.7767 19.5344C16.4107 20.5106 16.3676 21.6142 16.6691 22.633C16.949 23.6092 17.5304 24.4794 18.3271 25.1161C19.1238 25.774 20.1358 26.1772 21.1694 26.2409C22.2245 26.3258 23.3011 26.0711 24.2055 25.5193C25.0883 24.9887 25.7773 24.2247 26.208 23.2909C26.6386 22.3358 26.7678 21.2535 26.5525 20.2135C26.3587 19.216 25.8204 18.2822 25.0883 17.5819C24.3347 16.8815 23.3657 16.4146 22.3537 16.2448C22.0737 16.2448 21.8153 16.2236 21.557 16.2236Z" fill="url(#paint6_linear_312_818)"/>
<defs>
<linearGradient id="paint0_linear_312_818" x1="0" y1="49" x2="196" y2="49" gradientUnits="userSpaceOnUse">
<stop offset="0.236684" stop-color="#4584CC"/>
<stop offset="1" stop-color="#2B519B"/>
</linearGradient>
<linearGradient id="paint1_linear_312_818" x1="0" y1="49" x2="196" y2="49" gradientUnits="userSpaceOnUse">
<stop offset="0.236684" stop-color="#4584CC"/>
<stop offset="1" stop-color="#2B519B"/>
</linearGradient>
<linearGradient id="paint2_linear_312_818" x1="0" y1="49" x2="196" y2="49" gradientUnits="userSpaceOnUse">
<stop offset="0.236684" stop-color="#4584CC"/>
<stop offset="1" stop-color="#2B519B"/>
</linearGradient>
<linearGradient id="paint3_linear_312_818" x1="0" y1="49" x2="196" y2="49" gradientUnits="userSpaceOnUse">
<stop offset="0.236684" stop-color="#4584CC"/>
<stop offset="1" stop-color="#2B519B"/>
</linearGradient>
<linearGradient id="paint4_linear_312_818" x1="0" y1="49" x2="196" y2="49" gradientUnits="userSpaceOnUse">
<stop offset="0.236684" stop-color="#4584CC"/>
<stop offset="1" stop-color="#2B519B"/>
</linearGradient>
<linearGradient id="paint5_linear_312_818" x1="0" y1="49" x2="196" y2="49" gradientUnits="userSpaceOnUse">
<stop offset="0.236684" stop-color="#4584CC"/>
<stop offset="1" stop-color="#2B519B"/>
</linearGradient>
<linearGradient id="paint6_linear_312_818" x1="0" y1="49" x2="196" y2="49" gradientUnits="userSpaceOnUse">
<stop offset="0.236684" stop-color="#4584CC"/>
<stop offset="1" stop-color="#2B519B"/>
</linearGradient>
</defs>
</svg>
