<svg width="142" height="45" viewBox="0 0 142 45" fill="none" xmlns="http://www.w3.org/2000/svg">
<path d="M34.9116 15.892H18.3421V20.6442H30.0935C29.5129 27.3081 23.7767 30.15 18.362 30.15C11.4346 30.15 5.3896 24.8819 5.3896 17.4982C5.3896 10.3052 11.152 4.76567 18.3773 4.76567C23.9516 4.76567 27.2364 8.20024 27.2364 8.20024L30.6791 4.75454C30.6791 4.75454 26.2603 1.69081e-09 18.2013 1.69081e-09C7.93906 -0.000137381 0 8.37114 0 17.4133C0 26.2735 7.468 34.9131 18.4628 34.9131C28.1329 34.9131 35.2114 28.5105 35.2114 19.0426C35.2114 17.0452 34.9114 15.8908 34.9114 15.8908L34.9116 15.892Z" fill="#4584CC"/>
<path d="M48.4848 12.4504C41.6858 12.4504 36.8134 17.5879 36.8134 23.5796C36.8134 29.6598 41.5394 34.8927 48.5647 34.8927C54.9244 34.8927 60.1346 30.1947 60.1346 23.7102C60.1346 16.2781 54.0739 12.4504 48.4848 12.4504ZM48.5524 16.8581C51.8958 16.8581 55.0642 19.4707 55.0642 23.6805C55.0642 27.801 51.9094 30.4881 48.537 30.4881C44.8317 30.4881 41.9085 27.6198 41.9085 23.6478C41.9085 19.761 44.7954 16.8581 48.5524 16.8581Z" fill="#4584CC"/>
<path d="M73.8685 12.4504C67.0696 12.4504 62.1971 17.5879 62.1971 23.5796C62.1971 29.6598 66.9231 34.8927 73.9484 34.8927C80.3081 34.8927 85.5183 30.1947 85.5183 23.7102C85.5183 16.2781 79.4577 12.4504 73.8685 12.4504ZM73.9361 16.8581C77.2796 16.8581 80.4479 19.4707 80.4479 23.6805C80.4479 27.801 77.2931 30.4881 73.9207 30.4881C70.2154 30.4881 67.2922 27.6198 67.2922 23.6478C67.2922 19.761 70.1791 16.8581 73.9361 16.8581Z" fill="#4584CC"/>
<path d="M98.7661 12.4623C92.5255 12.4623 87.6202 17.745 87.6202 23.6745C87.6202 30.4286 93.3071 34.9076 98.6585 34.9076C101.967 34.9076 103.727 33.6381 105.026 32.181V34.3936C105.026 38.2651 102.594 40.5834 98.9229 40.5834C95.3766 40.5834 93.5978 38.0348 92.9796 36.5886L88.5176 38.3915C90.1005 41.6264 93.2871 45 98.9598 45C105.165 45 109.894 41.2227 109.894 33.3006V13.137H105.026V15.0378C103.529 13.4789 101.482 12.4625 98.7661 12.4625V12.4623ZM99.2178 16.861C102.277 16.861 105.419 19.3861 105.419 23.6983C105.419 28.0813 102.284 30.4969 99.1502 30.4969C95.8232 30.4969 92.7275 27.886 92.7275 23.7399C92.7275 19.4318 95.9427 16.861 99.2178 16.861Z" fill="#4584CC"/>
<path d="M131.537 12.4355C125.65 12.4355 120.708 16.9622 120.708 23.6418C120.708 30.7097 126.217 34.9015 132.102 34.9015C137.014 34.9015 140.029 32.3042 141.829 29.9771L137.815 27.396C136.774 28.9582 135.033 30.485 132.127 30.485C128.863 30.485 127.362 28.7575 126.433 27.0842L142 20.841L141.192 19.0113C139.688 15.4284 136.18 12.4362 131.538 12.4362L131.537 12.4355ZM131.74 16.7511C133.861 16.7511 135.388 17.8411 136.036 19.148L125.64 23.3478C125.192 20.0963 128.379 16.7511 131.74 16.7511Z" fill="#4584CC"/>
<path d="M113.286 34.2354H118.399V1.16047H113.286V34.2354Z" fill="#4584CC"/>
</svg>
