<svg width="66" height="66" viewBox="0 0 66 66" fill="none" xmlns="http://www.w3.org/2000/svg">
<path d="M33 0C14.7746 0 0 14.7746 0 33C0 51.2254 14.7746 66 33 66C51.2254 66 66 51.2254 66 33C65.9807 14.7828 51.2174 0.0194741 33 0ZM46.8976 34.0515C46.6691 34.5097 46.2978 34.8812 45.8394 35.1097V35.1214L26.9822 44.5501C25.8177 45.1319 24.402 44.6597 23.82 43.4951C23.6545 43.1641 23.5693 42.7986 23.5714 42.4286V23.5715C23.5708 22.2696 24.6256 21.2139 25.9275 21.2132C26.2936 21.2131 26.6548 21.2982 26.9822 21.4618L45.8394 30.8904C47.0045 31.4711 47.4784 32.8863 46.8976 34.0515Z" fill="#4584CC"/>
</svg>
