<svg width="159" height="50" viewBox="0 0 159 50" fill="none" xmlns="http://www.w3.org/2000/svg">
<path d="M0 11.375L8.31249 0L16.625 11.375L8.31249 22.75L0 11.375Z" fill="#4584CC"/>
<path d="M9.87549 25L26.438 2.25L34.7505 13.625L18.188 36.3749L9.87549 25Z" fill="#3860AC"/>
<path d="M19.75 38.6249L44.625 4.5L52.9375 15.875L28.0625 49.9999L19.75 38.6249Z" fill="#2B519B"/>
<path d="M96.4186 15.6975H103.365L91.156 42.3081H84.2093L72 15.6975H78.9467L87.6827 34.7507L96.4186 15.6975Z" fill="#E3EFFF"/>
<path d="M107.562 42.3081V15.6975H113.877V42.3081H107.562ZM107.562 5.05322H113.877V11.4398H107.562V5.05322Z" fill="#E3EFFF"/>
<path d="M146.36 5V42.3081H140.045V29.0028C140.045 26.8385 139.308 25.0289 137.834 23.5742C136.361 22.084 134.589 21.3389 132.519 21.3389C130.414 21.3389 128.625 22.084 127.151 23.5742C125.678 25.0644 124.941 26.874 124.941 29.0028C124.941 31.0962 125.678 32.888 127.151 34.3782C127.853 35.1233 128.66 35.6909 129.572 36.0812C130.519 36.436 131.502 36.6134 132.519 36.6134C133.537 36.6134 134.466 36.436 135.308 36.0812L137.571 41.7759C135.957 42.592 134.098 43 131.993 43C130.063 43 128.274 42.6452 126.625 41.9356C125.011 41.1905 123.608 40.1793 122.415 38.902C121.222 37.6247 120.292 36.1345 119.626 34.4314C118.959 32.7283 118.626 30.9188 118.626 29.0028C118.626 27.0514 118.959 25.2241 119.626 23.521C120.292 21.8179 121.222 20.3277 122.415 19.0504C123.608 17.7731 125.011 16.7796 126.625 16.07C128.274 15.3249 130.063 14.9524 131.993 14.9524C133.677 14.9524 135.185 15.2185 136.519 15.7507C137.852 16.2829 139.027 16.957 140.045 17.7731V5H146.36Z" fill="#E3EFFF"/>
<path d="M152.685 42.3081V15.6975H159V42.3081H152.685ZM152.685 5.05322H159V11.4398H152.685V5.05322Z" fill="#E3EFFF"/>
</svg>
