<svg width="24" height="24" viewBox="0 0 24 24" fill="none" xmlns="http://www.w3.org/2000/svg">
<path d="M11 5H18M11 7.5H20M11 10H16M11 14.5H18M11 17H20M11 19.5H16M1 5V22C1 22.5523 1.44772 23 2 23H22C22.5523 23 23 22.5523 23 22V5V2C23 1.44772 22.5523 1 22 1H2C1.44772 1 1 1.44772 1 2V5ZM5 19.5H8C8.55228 19.5 9 19.0523 9 18.5V15.5C9 14.9477 8.55228 14.5 8 14.5H5C4.44772 14.5 4 14.9477 4 15.5V18.5C4 19.0523 4.44772 19.5 5 19.5ZM5 10H8C8.55228 10 9 9.55228 9 9V6C9 5.44772 8.55228 5 8 5H5C4.44772 5 4 5.44772 4 6V9C4 9.55228 4.44772 10 5 10Z" stroke="#2B519B" stroke-width="1.5"/>
</svg>
