<svg width="24" height="24" viewBox="0 0 24 24" fill="none" xmlns="http://www.w3.org/2000/svg">
<path d="M4 17.5H10M1 5V22C1 22.5523 1.44772 23 2 23H22C22.5523 23 23 22.5523 23 22V5V2C23 1.44772 22.5523 1 22 1H2C1.44772 1 1 1.44772 1 2V5ZM20 12V10.5C20 9.94772 19.5523 9.5 19 9.5H5C4.44772 9.5 4 9.94772 4 10.5V12C4 12.5523 4.44772 13 5 13H19C19.5523 13 20 12.5523 20 12ZM12.5 7H19C19.5523 7 20 6.55228 20 6V5.5C20 4.94772 19.5523 4.5 19 4.5H12.5C11.9477 4.5 11.5 4.94772 11.5 5.5V6C11.5 6.55228 11.9477 7 12.5 7ZM13 19H19C19.5523 19 20 18.5523 20 18V17C20 16.4477 19.5523 16 19 16H13C12.4477 16 12 16.4477 12 17V18C12 18.5523 12.4477 19 13 19ZM5 7H8C8.55228 7 9 6.55228 9 6V5.5C9 4.94772 8.55228 4.5 8 4.5H5C4.44772 4.5 4 4.94772 4 5.5V6C4 6.55228 4.44772 7 5 7Z" stroke="#2B519B" stroke-width="1.5"/>
</svg>
