<svg width="23" height="24" viewBox="0 0 23 24" fill="none" xmlns="http://www.w3.org/2000/svg">
<path d="M17.7409 17.7507C17.4458 17.46 16.971 17.4635 16.6803 17.7586C16.3895 18.0536 16.3931 18.5285 16.6881 18.8192L17.7409 17.7507ZM21.4736 23.5342C21.7687 23.825 22.2435 23.8214 22.5342 23.5264C22.825 23.2313 22.8214 22.7565 22.5264 22.4658L21.4736 23.5342ZM11 3.25C10.5858 3.25 10.25 3.58579 10.25 4C10.25 4.41421 10.5858 4.75 11 4.75V3.25ZM17.25 11C17.25 11.4142 17.5858 11.75 18 11.75C18.4142 11.75 18.75 11.4142 18.75 11H17.25ZM20.0147 10.7778C20.0147 15.7562 15.9336 19.8056 10.8824 19.8056V21.3056C16.7469 21.3056 21.5147 16.5996 21.5147 10.7778H20.0147ZM10.8824 19.8056C5.83115 19.8056 1.75 15.7562 1.75 10.7778H0.25C0.25 16.5996 5.01781 21.3056 10.8824 21.3056V19.8056ZM1.75 10.7778C1.75 5.79938 5.83115 1.75 10.8824 1.75V0.25C5.01781 0.25 0.25 4.95594 0.25 10.7778H1.75ZM10.8824 1.75C15.9336 1.75 20.0147 5.79938 20.0147 10.7778H21.5147C21.5147 4.95594 16.7469 0.25 10.8824 0.25V1.75ZM16.6881 18.8192L21.4736 23.5342L22.5264 22.4658L17.7409 17.7507L16.6881 18.8192ZM11 4.75C14.4518 4.75 17.25 7.54822 17.25 11H18.75C18.75 6.71979 15.2802 3.25 11 3.25V4.75Z" fill="#2B519B"/>
</svg>
