<svg width="160" height="60" viewBox="0 0 160 60" fill="none" xmlns="http://www.w3.org/2000/svg">
<mask id="mask0_290_421" style="mask-type:alpha" maskUnits="userSpaceOnUse" x="12" y="11" width="30" height="39">
<path d="M28.25 12.625C28.25 11.7275 28.9776 11 29.875 11H39.625C40.5224 11 41.25 11.7275 41.25 12.625V48.375C41.25 49.2724 40.5224 50 39.625 50H13.625C12.7276 50 12 49.2724 12 48.375V32.125C12 31.2276 12.7276 30.5 13.625 30.5H20.125V22.375C20.125 21.4776 20.8526 20.75 21.75 20.75H28.25V12.625Z" fill="white"/>
</mask>
<g mask="url(#mask0_290_421)">
<path d="M41.25 11V50H28.25V11H41.25Z" fill="#2B519B"/>
<path d="M33.1255 22.375V50H20.1255V20.75H31.5005C32.3979 20.75 33.1255 21.4776 33.1255 22.375Z" fill="#3860AC"/>
<path d="M12 30.5V50H25V32.125C25 31.2276 24.2724 30.5 23.375 30.5H12Z" fill="#4584CC"/>
</g>
<path d="M72.7109 29.918C72.7109 30.9297 72.3646 31.709 71.6719 32.2559C70.9837 32.7982 69.9971 33.0693 68.7119 33.0693H67.5361V37H66.374V27.0059H68.9648C71.4622 27.0059 72.7109 27.9766 72.7109 29.918ZM67.5361 32.0713H68.582C69.612 32.0713 70.3571 31.9049 70.8174 31.5723C71.2777 31.2396 71.5078 30.7064 71.5078 29.9727C71.5078 29.3118 71.2913 28.8197 70.8584 28.4961C70.4255 28.1725 69.751 28.0107 68.835 28.0107H67.5361V32.0713ZM81.1055 33.2471C81.1055 34.4684 80.7979 35.4232 80.1826 36.1113C79.5674 36.7949 78.7174 37.1367 77.6328 37.1367C76.9629 37.1367 76.3682 36.9795 75.8486 36.665C75.3291 36.3506 74.9281 35.8994 74.6455 35.3115C74.363 34.7236 74.2217 34.0355 74.2217 33.2471C74.2217 32.0257 74.527 31.0755 75.1377 30.3965C75.7484 29.7129 76.596 29.3711 77.6807 29.3711C78.7288 29.3711 79.5605 29.7197 80.1758 30.417C80.7956 31.1143 81.1055 32.0576 81.1055 33.2471ZM75.3975 33.2471C75.3975 34.2041 75.5889 34.9333 75.9717 35.4346C76.3545 35.9359 76.9173 36.1865 77.6602 36.1865C78.403 36.1865 78.9658 35.9382 79.3486 35.4414C79.736 34.9401 79.9297 34.2087 79.9297 33.2471C79.9297 32.2946 79.736 31.5723 79.3486 31.0801C78.9658 30.5833 78.3984 30.335 77.6465 30.335C76.9036 30.335 76.3431 30.5788 75.9648 31.0664C75.5866 31.554 75.3975 32.2809 75.3975 33.2471ZM89.2197 37L87.8457 32.6045C87.7591 32.3356 87.5973 31.7249 87.3604 30.7725H87.3057C87.1234 31.57 86.9639 32.1852 86.8271 32.6182L85.4121 37H84.0996L82.0557 29.5078H83.2451C83.7282 31.39 84.0951 32.8232 84.3457 33.8076C84.6009 34.792 84.7467 35.4551 84.7832 35.7969H84.8379C84.888 35.5371 84.9678 35.2021 85.0771 34.792C85.1911 34.3773 85.2891 34.0492 85.3711 33.8076L86.7451 29.5078H87.9756L89.3154 33.8076C89.5706 34.5915 89.7438 35.25 89.835 35.7832H89.8896C89.9079 35.6191 89.9557 35.3662 90.0332 35.0244C90.1152 34.6826 90.5915 32.8438 91.4619 29.5078H92.6377L90.5664 37H89.2197ZM97.1631 37.1367C96.0557 37.1367 95.1807 36.7995 94.5381 36.125C93.9001 35.4505 93.5811 34.514 93.5811 33.3154C93.5811 32.1077 93.8773 31.1484 94.4697 30.4375C95.0667 29.7266 95.8665 29.3711 96.8691 29.3711C97.8079 29.3711 98.5508 29.681 99.0977 30.3008C99.6445 30.916 99.918 31.7295 99.918 32.7412V33.459H94.7568C94.7796 34.3385 95.0007 35.0062 95.4199 35.4619C95.8438 35.9176 96.4385 36.1455 97.2041 36.1455C98.0107 36.1455 98.8083 35.9769 99.5967 35.6396V36.6514C99.1956 36.8245 98.8151 36.9476 98.4551 37.0205C98.0996 37.098 97.6689 37.1367 97.1631 37.1367ZM96.8555 30.3213C96.2539 30.3213 95.7731 30.5173 95.4131 30.9092C95.0576 31.3011 94.848 31.8434 94.7842 32.5361H98.7012C98.7012 31.8206 98.5417 31.2738 98.2227 30.8955C97.9036 30.5127 97.4479 30.3213 96.8555 30.3213ZM105.277 29.3711C105.61 29.3711 105.909 29.3984 106.173 29.4531L106.016 30.5059C105.706 30.4375 105.432 30.4033 105.195 30.4033C104.589 30.4033 104.07 30.6494 103.637 31.1416C103.208 31.6338 102.994 32.2467 102.994 32.9805V37H101.859V29.5078H102.796L102.926 30.8955H102.98C103.258 30.4079 103.593 30.0319 103.985 29.7676C104.377 29.5033 104.808 29.3711 105.277 29.3711ZM111.382 27.0059H114.205C115.531 27.0059 116.491 27.2041 117.083 27.6006C117.675 27.9971 117.972 28.6237 117.972 29.4805C117.972 30.0729 117.805 30.5628 117.473 30.9502C117.145 31.333 116.664 31.5814 116.03 31.6953V31.7637C117.548 32.0234 118.307 32.821 118.307 34.1562C118.307 35.0495 118.004 35.7467 117.397 36.248C116.796 36.7493 115.953 37 114.868 37H111.382V27.0059ZM112.544 31.2852H114.458C115.278 31.2852 115.868 31.1576 116.229 30.9023C116.589 30.6426 116.769 30.2074 116.769 29.5967C116.769 29.0361 116.568 28.6328 116.167 28.3867C115.766 28.1361 115.128 28.0107 114.253 28.0107H112.544V31.2852ZM112.544 32.2695V36.0088H114.629C115.436 36.0088 116.042 35.8538 116.447 35.5439C116.857 35.2295 117.062 34.7396 117.062 34.0742C117.062 33.4544 116.853 32.9987 116.434 32.707C116.019 32.4154 115.385 32.2695 114.533 32.2695H112.544ZM120.46 37V27.0059H121.622V37H120.46Z" fill="#3860AC"/>
</svg>
