<svg width="160" height="60" viewBox="0 0 160 60" fill="none" xmlns="http://www.w3.org/2000/svg">
<path d="M21.0017 8.46241H34.3175L20.4943 49.4189C20.3523 49.8398 20.0818 50.2055 19.721 50.4645C19.3602 50.7236 18.9272 50.863 18.483 50.8631H8.12C7.78345 50.8631 7.45173 50.783 7.15228 50.6294C6.85283 50.4758 6.59425 50.2531 6.39795 49.9798C6.20165 49.7064 6.07325 49.3902 6.02339 49.0574C5.97353 48.7246 6.00364 48.3846 6.11122 48.0657L18.9898 9.9066C19.1318 9.48557 19.4023 9.1197 19.7633 8.86052C20.1242 8.60134 20.5573 8.46192 21.0017 8.4619V8.46241Z" fill="#2B519B"/>
<path d="M40.3519 35.9333H19.2362C19.0399 35.9331 18.848 35.992 18.6857 36.1023C18.5233 36.2127 18.398 36.3694 18.326 36.552C18.2539 36.7347 18.2386 36.9347 18.2819 37.1262C18.3252 37.3177 18.4252 37.4917 18.5688 37.6255L32.1373 50.2898C32.5323 50.6583 33.0525 50.8632 33.5927 50.8631H45.5492L40.3519 35.9333Z" fill="#3860AC"/>
<path d="M38.0097 9.90456C37.8679 9.4842 37.5978 9.11894 37.2374 8.86022C36.8771 8.60149 36.4446 8.46236 36.001 8.46241H21.1606C21.6043 8.46244 22.0367 8.6016 22.397 8.86031C22.7574 9.11902 23.0275 9.48425 23.1694 9.90456L36.0485 48.0652C36.1562 48.3842 36.1864 48.7242 36.1365 49.0571C36.0867 49.39 35.9584 49.7063 35.7621 49.9798C35.5657 50.2532 35.3072 50.476 35.0077 50.6297C34.7082 50.7834 34.3764 50.8636 34.0397 50.8636H48.8806C49.2172 50.8635 49.5489 50.7833 49.8483 50.6295C50.1477 50.4758 50.4063 50.253 50.6025 49.9796C50.7988 49.7061 50.9271 49.3899 50.9769 49.057C51.0267 48.7241 50.9965 48.3841 50.8888 48.0652L38.0097 9.90456Z" fill="#4584CC"/>
<path d="M72.6562 33L71.4121 29.8213H67.4062L66.1758 33H65L68.9512 22.9648H69.9287L73.8594 33H72.6562ZM71.0498 28.7754L69.8877 25.6787C69.7373 25.2868 69.5824 24.806 69.4229 24.2363C69.3226 24.6738 69.179 25.1546 68.9922 25.6787L67.8164 28.7754H71.0498ZM79.8545 33H74.4199V32.2275L78.5078 26.3896H74.6729V25.5078H79.752V26.3896L75.7188 32.1182H79.8545V33ZM82.6777 25.5078V30.3682C82.6777 30.9788 82.8167 31.4346 83.0947 31.7353C83.3727 32.0361 83.8079 32.1865 84.4004 32.1865C85.1842 32.1865 85.7562 31.9723 86.1162 31.5439C86.4808 31.1156 86.6631 30.416 86.6631 29.4453V25.5078H87.7979V33H86.8613L86.6973 31.9951H86.6357C86.4033 32.3643 86.0798 32.6468 85.665 32.8428C85.2549 33.0387 84.7855 33.1367 84.2568 33.1367C83.3454 33.1367 82.6618 32.9202 82.2061 32.4873C81.7549 32.0544 81.5293 31.3616 81.5293 30.4092V25.5078H82.6777ZM93.6289 25.3711C93.9616 25.3711 94.2601 25.3984 94.5244 25.4531L94.3672 26.5059C94.0573 26.4375 93.7839 26.4033 93.5469 26.4033C92.9408 26.4033 92.4212 26.6494 91.9883 27.1416C91.5599 27.6338 91.3457 28.2467 91.3457 28.9805V33H90.2109V25.5078H91.1475L91.2773 26.8955H91.332C91.61 26.4079 91.945 26.0319 92.3369 25.7676C92.7288 25.5033 93.1595 25.3711 93.6289 25.3711ZM99.0908 33.1367C97.9834 33.1367 97.1084 32.7995 96.4658 32.125C95.8278 31.4505 95.5088 30.514 95.5088 29.3154C95.5088 28.1077 95.805 27.1484 96.3975 26.4375C96.9945 25.7266 97.7943 25.3711 98.7969 25.3711C99.7357 25.3711 100.479 25.681 101.025 26.3008C101.572 26.916 101.846 27.7295 101.846 28.7412V29.459H96.6846C96.7074 30.3385 96.9284 31.0062 97.3477 31.4619C97.7715 31.9176 98.3662 32.1455 99.1318 32.1455C99.9385 32.1455 100.736 31.9769 101.524 31.6396V32.6514C101.123 32.8245 100.743 32.9476 100.383 33.0205C100.027 33.098 99.5967 33.1367 99.0908 33.1367ZM98.7832 26.3213C98.1816 26.3213 97.7008 26.5172 97.3408 26.9092C96.9854 27.3011 96.7757 27.8434 96.7119 28.5361H100.629C100.629 27.8206 100.469 27.2738 100.15 26.8955C99.8314 26.5127 99.3757 26.3213 98.7832 26.3213Z" fill="#3860AC"/>
</svg>
