<svg width="160" height="60" viewBox="0 0 160 60" fill="none" xmlns="http://www.w3.org/2000/svg">
<path d="M63.4162 23.5047C63.4162 24.442 63.5175 25.1988 63.6949 25.753C63.8975 26.3103 64.1509 26.9183 64.5055 27.577C64.6322 27.7765 64.6829 27.9792 64.6829 28.1565C64.6829 28.4098 64.5309 28.6632 64.2015 28.9165L62.6087 29.9773C62.4162 30.1161 62.1872 30.1954 61.95 30.2053C61.6967 30.2053 61.4434 30.0787 61.1932 29.8507C60.853 29.4848 60.5487 29.0871 60.2844 28.6632C60.0013 28.1775 59.7393 27.6799 59.499 27.1717C57.5294 29.496 55.0499 30.6582 52.0669 30.6582C49.9452 30.6582 48.251 30.0533 47.0129 28.8405C45.7747 27.6245 45.1445 26.0095 45.1445 23.986C45.1445 21.839 45.9014 20.091 47.4435 18.78C48.9857 17.4658 51.0314 16.8072 53.6344 16.8072C54.4957 16.8072 55.3792 16.8832 56.3134 17.0098C57.2507 17.1365 58.2134 17.3392 59.2204 17.5672V15.721C59.2204 13.7988 58.8182 12.4593 58.0329 11.6772C57.2254 10.8918 55.8605 10.515 53.9162 10.515C53.0295 10.515 52.1175 10.6132 51.1834 10.8412C50.2492 11.0692 49.3372 11.3478 48.4537 11.7025C48.1656 11.8315 47.8694 11.9415 47.567 12.0318C47.4368 12.0738 47.3016 12.0983 47.1649 12.1047C46.8102 12.1047 46.6329 11.8513 46.6329 11.3225V10.0843C46.6329 9.679 46.6835 9.375 46.8102 9.19767C47.0015 8.96776 47.2446 8.78652 47.5195 8.66883C48.5323 8.166 49.6004 7.7834 50.702 7.52883C51.9909 7.19887 53.3173 7.03813 54.6477 7.05067C57.656 7.05067 59.8537 7.73467 61.2692 9.0995C62.6594 10.4612 63.3655 12.5353 63.3655 15.3157V23.5047H63.4162ZM53.1562 27.349C53.989 27.349 54.8472 27.197 55.7592 26.893C56.6862 26.5727 57.5136 26.016 58.1595 25.278C58.5678 24.8112 58.8626 24.2563 59.0209 23.6567C59.1697 23.0518 59.2742 22.3172 59.2742 21.459V20.3982C58.507 20.2112 57.73 20.0674 56.9467 19.9675C56.159 19.8674 55.3658 19.8167 54.5717 19.8155C52.8775 19.8155 51.6394 20.1448 50.8034 20.8288C49.9705 21.5097 49.5684 22.4692 49.5684 23.7327C49.5684 24.9202 49.8692 25.8068 50.5025 26.4117C51.1074 27.045 51.9909 27.349 53.1562 27.349ZM73.4545 30.0787C72.9985 30.0787 72.6945 30.0027 72.4919 29.8253C72.2892 29.6733 72.1119 29.3187 71.9599 28.8405L66.0224 9.299C65.9069 8.97134 65.8303 8.63122 65.7944 8.28567C65.7944 7.88033 65.997 7.65233 66.3992 7.65233H68.8787C69.3569 7.65233 69.6862 7.7315 69.8604 7.90567C70.0662 8.05767 70.2182 8.41233 70.367 8.89367L74.6167 25.6263L78.5592 8.89367C78.6859 8.387 78.8379 8.05767 79.0374 7.90567C79.3412 7.71935 79.6949 7.63091 80.0507 7.65233H82.071C82.5524 7.65233 82.8817 7.7315 83.0844 7.90567C83.2839 8.05767 83.4644 8.41233 83.5625 8.89367L87.5557 25.829L91.9289 8.89367C92.0809 8.387 92.2582 8.05767 92.4355 7.90567C92.7289 7.71944 93.0736 7.63076 93.4204 7.65233H95.7732C96.1754 7.65233 96.4065 7.85817 96.4065 8.28567C96.4065 8.41233 96.378 8.539 96.3527 8.691C96.313 8.90708 96.2537 9.11908 96.1754 9.32433L90.0859 28.8627C89.9339 29.3693 89.7565 29.6955 89.5539 29.8475C89.2685 30.0306 88.9329 30.1192 88.5944 30.1008H86.4189C85.9407 30.1008 85.6114 30.0248 85.4055 29.8475C85.206 29.6702 85.0287 29.3408 84.9305 28.8342L81.0102 12.5322L77.1152 28.8088C76.9885 29.3155 76.8397 29.6448 76.6402 29.8222C76.4344 29.9995 76.0797 30.0755 75.6269 30.0755L73.4545 30.0787ZM105.932 30.7595C104.618 30.7595 103.304 30.6075 102.04 30.3067C100.777 30.0027 99.7917 29.6733 99.133 29.2933C98.7277 29.0685 98.4522 28.8152 98.3509 28.5872C98.2521 28.3636 98.2004 28.1222 98.1989 27.8778V26.589C98.1989 26.0602 98.4015 25.8068 98.7784 25.8068C98.9304 25.8068 99.0824 25.8322 99.2344 25.8828C99.3864 25.9335 99.6144 26.0348 99.8677 26.1362C100.726 26.5162 101.66 26.817 102.648 27.0197C103.658 27.2223 104.643 27.3237 105.656 27.3237C107.246 27.3237 108.487 27.045 109.346 26.4877C109.757 26.2391 110.095 25.8861 110.326 25.4646C110.557 25.043 110.672 24.5678 110.66 24.0873C110.669 23.7619 110.614 23.4379 110.497 23.134C110.38 22.8302 110.204 22.5525 109.979 22.3172C109.523 21.839 108.662 21.4083 107.423 21.003L103.76 19.863C101.913 19.2835 100.549 18.4253 99.7157 17.2885C98.9006 16.2393 98.4552 14.9501 98.449 13.6215C98.449 12.5607 98.6802 11.6265 99.133 10.8158C99.589 10.0083 100.194 9.299 100.954 8.74483C101.714 8.16217 102.569 7.7315 103.582 7.43067C104.596 7.12667 105.656 7 106.768 7C107.322 7 107.905 7.02533 108.462 7.10133C109.042 7.17733 109.57 7.27867 110.102 7.38C110.609 7.50667 111.09 7.63333 111.543 7.78217C111.999 7.93417 112.354 8.08617 112.607 8.23817C112.906 8.3884 113.166 8.60506 113.367 8.8715C113.53 9.11741 113.609 9.40969 113.592 9.70433V10.8918C113.592 11.4238 113.389 11.7025 113.009 11.7025C112.673 11.6639 112.347 11.5607 112.05 11.3985C110.523 10.7239 108.868 10.3879 107.199 10.4137C105.758 10.4137 104.618 10.6385 103.836 11.1198C103.05 11.6012 102.648 12.3327 102.648 13.3682C102.648 14.0775 102.901 14.6855 103.408 15.1637C103.912 15.645 104.846 16.1263 106.185 16.557L109.776 17.6907C111.594 18.2733 112.911 19.084 113.693 20.1195C114.476 21.155 114.856 22.3425 114.856 23.6567C114.856 24.7428 114.628 25.7308 114.2 26.589C113.751 27.4543 113.121 28.2134 112.354 28.8152C111.569 29.4485 110.634 29.9013 109.548 30.2307C108.408 30.5822 107.224 30.7595 105.932 30.7595Z" fill="#3860AC"/>
<path d="M110.711 43.0462C102.395 49.1895 90.3111 52.448 79.9244 52.448C65.364 52.448 52.2477 47.0647 42.336 38.1157C41.5539 37.4095 42.26 36.4468 43.1974 37.0042C53.9134 43.2203 67.1342 46.9887 80.8079 46.9887C90.0355 46.9887 100.169 45.0665 109.498 41.124C110.888 40.4907 112.076 42.0329 110.711 43.0462ZM114.175 39.1005C113.111 37.7389 107.145 38.445 104.441 38.7743C103.633 38.8757 103.507 38.1663 104.241 37.6343C108.991 34.2998 116.803 35.2593 117.712 36.3708C118.621 37.5108 117.459 45.3199 113.01 49.0597C112.329 49.6424 111.67 49.3383 111.974 48.5815C112.988 46.0798 115.236 40.4432 114.175 39.1005Z" fill="#2B519B"/>
</svg>
