<svg width="160" height="60" viewBox="0 0 160 60" fill="none" xmlns="http://www.w3.org/2000/svg">
<path d="M32.0193 20.6663H33.3527L37.1534 16.8656L37.3397 15.2514C30.2659 9.00704 19.4702 9.6816 13.2258 16.7554C11.4909 18.7187 10.2336 21.0574 9.5459 23.5877C9.96849 23.4145 10.4383 23.3856 10.8793 23.509L18.4807 22.2543C18.4807 22.2543 18.8665 21.6139 19.0686 21.6532C22.4493 17.9392 28.1399 17.5061 32.0456 20.6663H32.0193Z" fill="#3860AC"/>
<path d="M42.5688 23.5877C41.6947 20.3697 39.902 17.4772 37.4084 15.2671L32.0749 20.6007C34.3269 22.4407 35.6105 25.2151 35.5553 28.1233V29.0709C38.1775 29.0709 40.3036 31.197 40.3036 33.8191C40.3036 36.4413 38.1775 38.5674 35.5553 38.5674H26.0589L25.1113 39.528V45.2238L26.0589 46.1714H35.5553C42.3745 46.2238 47.947 40.738 47.9995 33.9189C48.0309 29.7769 45.9915 25.9028 42.5688 23.5877Z" fill="#2B519B"/>
<path d="M16.5486 46.111H26.0451V38.5096H16.5486C15.8714 38.5096 15.2047 38.3626 14.5879 38.0818L13.2545 38.4965L9.42759 42.2972L9.09424 43.6306C11.2387 45.2527 13.8582 46.1241 16.5486 46.111Z" fill="#3860AC"/>
<path d="M16.5493 21.4538C9.72746 21.4931 4.23379 27.0551 4.27316 33.8769C4.29678 37.6854 6.07376 41.2709 9.09489 43.5912L14.6017 38.0844C12.2131 37.0056 11.1501 34.1918 12.2289 31.8033C13.3077 29.4147 16.1214 28.3517 18.51 29.4305C19.5625 29.9056 20.4051 30.7508 20.8828 31.8033L26.3896 26.2965C24.0483 23.2307 20.4051 21.438 16.5493 21.4538Z" fill="#4584CC"/>
<path d="M70.7695 19.7637H74.167V24.624C73.6383 24.7926 73.1006 24.9202 72.5537 25.0068C72.0068 25.0934 71.3734 25.1367 70.6533 25.1367C69.1403 25.1367 67.9622 24.6878 67.1191 23.79C66.276 22.8877 65.8545 21.6253 65.8545 20.0029C65.8545 18.9639 66.0618 18.0547 66.4766 17.2754C66.8958 16.4915 67.4974 15.8945 68.2812 15.4844C69.0651 15.0697 69.9834 14.8623 71.0361 14.8623C72.1025 14.8623 73.096 15.0583 74.0166 15.4502L73.5654 16.4756C72.6631 16.0928 71.7949 15.9014 70.9609 15.9014C69.7441 15.9014 68.7939 16.2637 68.1104 16.9883C67.4268 17.7129 67.085 18.7178 67.085 20.0029C67.085 21.3519 67.4131 22.375 68.0693 23.0723C68.7301 23.7695 69.6986 24.1182 70.9746 24.1182C71.6673 24.1182 72.3441 24.0384 73.0049 23.8789V20.8027H70.7695V19.7637ZM82.8691 21.2471C82.8691 22.4684 82.5615 23.4232 81.9463 24.1113C81.3311 24.7949 80.4811 25.1367 79.3965 25.1367C78.7266 25.1367 78.1318 24.9795 77.6123 24.665C77.0928 24.3506 76.6917 23.8994 76.4092 23.3115C76.1266 22.7236 75.9854 22.0355 75.9854 21.2471C75.9854 20.0257 76.2907 19.0755 76.9014 18.3965C77.512 17.7129 78.3597 17.3711 79.4443 17.3711C80.4925 17.3711 81.3242 17.7197 81.9395 18.417C82.5592 19.1143 82.8691 20.0576 82.8691 21.2471ZM77.1611 21.2471C77.1611 22.2041 77.3525 22.9333 77.7354 23.4346C78.1182 23.9359 78.681 24.1865 79.4238 24.1865C80.1667 24.1865 80.7295 23.9382 81.1123 23.4414C81.4997 22.9401 81.6934 22.2087 81.6934 21.2471C81.6934 20.2946 81.4997 19.5723 81.1123 19.0801C80.7295 18.5833 80.1621 18.335 79.4102 18.335C78.6673 18.335 78.1068 18.5788 77.7285 19.0664C77.3503 19.554 77.1611 20.2809 77.1611 21.2471ZM91.332 21.2471C91.332 22.4684 91.0244 23.4232 90.4092 24.1113C89.7939 24.7949 88.944 25.1367 87.8594 25.1367C87.1895 25.1367 86.5947 24.9795 86.0752 24.665C85.5557 24.3506 85.1546 23.8994 84.8721 23.3115C84.5895 22.7236 84.4482 22.0355 84.4482 21.2471C84.4482 20.0257 84.7536 19.0755 85.3643 18.3965C85.9749 17.7129 86.8226 17.3711 87.9072 17.3711C88.9554 17.3711 89.7871 17.7197 90.4023 18.417C91.0221 19.1143 91.332 20.0576 91.332 21.2471ZM85.624 21.2471C85.624 22.2041 85.8154 22.9333 86.1982 23.4346C86.5811 23.9359 87.1439 24.1865 87.8867 24.1865C88.6296 24.1865 89.1924 23.9382 89.5752 23.4414C89.9626 22.9401 90.1562 22.2087 90.1562 21.2471C90.1562 20.2946 89.9626 19.5723 89.5752 19.0801C89.1924 18.5833 88.625 18.335 87.873 18.335C87.1302 18.335 86.5697 18.5788 86.1914 19.0664C85.8132 19.554 85.624 20.2809 85.624 21.2471ZM99.46 17.5078V18.2256L98.0723 18.3896C98.1999 18.5492 98.3138 18.7588 98.4141 19.0186C98.5143 19.2738 98.5645 19.5632 98.5645 19.8867C98.5645 20.6204 98.3138 21.2061 97.8125 21.6436C97.3112 22.0811 96.623 22.2998 95.748 22.2998C95.5247 22.2998 95.3151 22.2816 95.1191 22.2451C94.6361 22.5003 94.3945 22.8216 94.3945 23.209C94.3945 23.4141 94.4788 23.5667 94.6475 23.667C94.8161 23.7627 95.1055 23.8105 95.5156 23.8105H96.8418C97.653 23.8105 98.2751 23.9814 98.708 24.3232C99.1455 24.665 99.3643 25.1618 99.3643 25.8135C99.3643 26.6429 99.0316 27.2741 98.3662 27.707C97.7008 28.1445 96.7301 28.3633 95.4541 28.3633C94.4743 28.3633 93.7178 28.181 93.1846 27.8164C92.6559 27.4518 92.3916 26.9368 92.3916 26.2715C92.3916 25.8158 92.5374 25.4215 92.8291 25.0889C93.1208 24.7562 93.5309 24.5306 94.0596 24.4121C93.8682 24.3255 93.7064 24.1911 93.5742 24.0088C93.4466 23.8265 93.3828 23.6146 93.3828 23.373C93.3828 23.0996 93.4557 22.8604 93.6016 22.6553C93.7474 22.4502 93.9775 22.252 94.292 22.0605C93.9046 21.901 93.5879 21.6299 93.3418 21.2471C93.1003 20.8643 92.9795 20.4268 92.9795 19.9346C92.9795 19.1143 93.2256 18.4831 93.7178 18.041C94.21 17.5944 94.9072 17.3711 95.8096 17.3711C96.2015 17.3711 96.5547 17.4167 96.8691 17.5078H99.46ZM93.4854 26.2578C93.4854 26.6634 93.6562 26.971 93.998 27.1807C94.3398 27.3903 94.8298 27.4951 95.4678 27.4951C96.4202 27.4951 97.1243 27.3516 97.5801 27.0645C98.0404 26.7819 98.2705 26.3968 98.2705 25.9092C98.2705 25.5036 98.1452 25.221 97.8945 25.0615C97.6439 24.9066 97.1722 24.8291 96.4795 24.8291H95.1191C94.6042 24.8291 94.2031 24.9521 93.916 25.1982C93.6289 25.4443 93.4854 25.7975 93.4854 26.2578ZM94.1006 19.9072C94.1006 20.4313 94.2487 20.8278 94.5449 21.0967C94.8411 21.3656 95.2536 21.5 95.7822 21.5C96.8896 21.5 97.4434 20.9622 97.4434 19.8867C97.4434 18.7611 96.8828 18.1982 95.7617 18.1982C95.2285 18.1982 94.8184 18.3418 94.5312 18.6289C94.2441 18.916 94.1006 19.3421 94.1006 19.9072ZM102.133 25H100.998V14.3633H102.133V25ZM107.704 25.1367C106.597 25.1367 105.722 24.7995 105.079 24.125C104.441 23.4505 104.122 22.514 104.122 21.3154C104.122 20.1077 104.418 19.1484 105.011 18.4375C105.608 17.7266 106.408 17.3711 107.41 17.3711C108.349 17.3711 109.092 17.681 109.639 18.3008C110.186 18.916 110.459 19.7295 110.459 20.7412V21.459H105.298C105.321 22.3385 105.542 23.0062 105.961 23.4619C106.385 23.9176 106.979 24.1455 107.745 24.1455C108.552 24.1455 109.349 23.9769 110.138 23.6396V24.6514C109.737 24.8245 109.356 24.9476 108.996 25.0205C108.641 25.098 108.21 25.1367 107.704 25.1367ZM107.396 18.3213C106.795 18.3213 106.314 18.5173 105.954 18.9092C105.599 19.3011 105.389 19.8434 105.325 20.5361H109.242C109.242 19.8206 109.083 19.2738 108.764 18.8955C108.445 18.5127 107.989 18.3213 107.396 18.3213ZM120.487 15.9014C119.389 15.9014 118.521 16.2682 117.883 17.002C117.249 17.7311 116.933 18.7314 116.933 20.0029C116.933 21.3109 117.238 22.3226 117.849 23.0381C118.464 23.749 119.339 24.1045 120.474 24.1045C121.171 24.1045 121.966 23.9792 122.859 23.7285V24.7471C122.167 25.0068 121.312 25.1367 120.296 25.1367C118.824 25.1367 117.687 24.6901 116.885 23.7969C116.087 22.9036 115.688 21.6344 115.688 19.9893C115.688 18.9593 115.88 18.057 116.263 17.2822C116.65 16.5075 117.206 15.9105 117.931 15.4912C118.66 15.0719 119.517 14.8623 120.501 14.8623C121.549 14.8623 122.465 15.0537 123.249 15.4365L122.757 16.4346C122 16.0791 121.244 15.9014 120.487 15.9014ZM126.004 25H124.869V14.3633H126.004V25ZM134.877 21.2471C134.877 22.4684 134.569 23.4232 133.954 24.1113C133.339 24.7949 132.489 25.1367 131.404 25.1367C130.734 25.1367 130.14 24.9795 129.62 24.665C129.101 24.3506 128.7 23.8994 128.417 23.3115C128.134 22.7236 127.993 22.0355 127.993 21.2471C127.993 20.0257 128.299 19.0755 128.909 18.3965C129.52 17.7129 130.368 17.3711 131.452 17.3711C132.5 17.3711 133.332 17.7197 133.947 18.417C134.567 19.1143 134.877 20.0576 134.877 21.2471ZM129.169 21.2471C129.169 22.2041 129.36 22.9333 129.743 23.4346C130.126 23.9359 130.689 24.1865 131.432 24.1865C132.174 24.1865 132.737 23.9382 133.12 23.4414C133.507 22.9401 133.701 22.2087 133.701 21.2471C133.701 20.2946 133.507 19.5723 133.12 19.0801C132.737 18.5833 132.17 18.335 131.418 18.335C130.675 18.335 130.115 18.5788 129.736 19.0664C129.358 19.554 129.169 20.2809 129.169 21.2471ZM137.939 17.5078V22.3682C137.939 22.9788 138.078 23.4346 138.356 23.7354C138.634 24.0361 139.07 24.1865 139.662 24.1865C140.446 24.1865 141.018 23.9723 141.378 23.5439C141.743 23.1156 141.925 22.416 141.925 21.4453V17.5078H143.06V25H142.123L141.959 23.9951H141.897C141.665 24.3643 141.341 24.6468 140.927 24.8428C140.517 25.0387 140.047 25.1367 139.519 25.1367C138.607 25.1367 137.924 24.9202 137.468 24.4873C137.017 24.0544 136.791 23.3617 136.791 22.4092V17.5078H137.939ZM150.572 23.9951H150.511C149.987 24.7562 149.203 25.1367 148.159 25.1367C147.179 25.1367 146.416 24.8018 145.869 24.1318C145.327 23.4619 145.056 22.5094 145.056 21.2744C145.056 20.0394 145.329 19.0801 145.876 18.3965C146.423 17.7129 147.184 17.3711 148.159 17.3711C149.175 17.3711 149.955 17.7402 150.497 18.4785H150.586L150.538 17.9385L150.511 17.4121V14.3633H151.646V25H150.723L150.572 23.9951ZM148.303 24.1865C149.077 24.1865 149.638 23.9769 149.984 23.5576C150.335 23.1338 150.511 22.4525 150.511 21.5137V21.2744C150.511 20.2126 150.333 19.4561 149.978 19.0049C149.627 18.5492 149.064 18.3213 148.289 18.3213C147.624 18.3213 147.113 18.5811 146.758 19.1006C146.407 19.6156 146.231 20.3447 146.231 21.2881C146.231 22.2451 146.407 22.9674 146.758 23.4551C147.109 23.9427 147.624 24.1865 148.303 24.1865ZM72.7109 37.918C72.7109 38.9297 72.3646 39.709 71.6719 40.2559C70.9837 40.7982 69.9971 41.0693 68.7119 41.0693H67.5361V45H66.374V35.0059H68.9648C71.4622 35.0059 72.7109 35.9766 72.7109 37.918ZM67.5361 40.0713H68.582C69.612 40.0713 70.3571 39.9049 70.8174 39.5723C71.2777 39.2396 71.5078 38.7064 71.5078 37.9727C71.5078 37.3118 71.2913 36.8197 70.8584 36.4961C70.4255 36.1725 69.751 36.0107 68.835 36.0107H67.5361V40.0713ZM75.7734 45H74.6387V34.3633H75.7734V45ZM82.7871 45L82.5615 43.9336H82.5068C82.1331 44.403 81.7594 44.722 81.3857 44.8906C81.0166 45.0547 80.554 45.1367 79.998 45.1367C79.2552 45.1367 78.6719 44.9453 78.248 44.5625C77.8288 44.1797 77.6191 43.6351 77.6191 42.9287C77.6191 41.4157 78.8291 40.6227 81.249 40.5498L82.5205 40.5088V40.0439C82.5205 39.4561 82.3929 39.0231 82.1377 38.7451C81.887 38.4626 81.4837 38.3213 80.9277 38.3213C80.3034 38.3213 79.597 38.5127 78.8086 38.8955L78.46 38.0273C78.8291 37.8268 79.2324 37.6696 79.6699 37.5557C80.112 37.4417 80.554 37.3848 80.9961 37.3848C81.8893 37.3848 82.5501 37.583 82.9785 37.9795C83.4115 38.376 83.6279 39.0117 83.6279 39.8867V45H82.7871ZM80.2236 44.2002C80.93 44.2002 81.4837 44.0065 81.8848 43.6191C82.2904 43.2318 82.4932 42.6895 82.4932 41.9922V41.3154L81.3584 41.3633C80.4561 41.3952 79.8044 41.5365 79.4033 41.7871C79.0068 42.0332 78.8086 42.4183 78.8086 42.9424C78.8086 43.3525 78.9316 43.6647 79.1777 43.8789C79.4284 44.0931 79.777 44.2002 80.2236 44.2002ZM88.3926 44.2002C88.5931 44.2002 88.7868 44.1865 88.9736 44.1592C89.1605 44.1273 89.3086 44.0954 89.418 44.0635V44.9316C89.2949 44.9909 89.1126 45.0387 88.8711 45.0752C88.6341 45.1162 88.4199 45.1367 88.2285 45.1367C86.7793 45.1367 86.0547 44.3734 86.0547 42.8467V38.3896H84.9814V37.8428L86.0547 37.3711L86.5332 35.7715H87.1895V37.5078H89.3633V38.3896H87.1895V42.7988C87.1895 43.25 87.2965 43.5964 87.5107 43.8379C87.7249 44.0794 88.0189 44.2002 88.3926 44.2002ZM94.2988 38.3896H92.3916V45H91.2568V38.3896H89.917V37.877L91.2568 37.4668V37.0498C91.2568 35.2087 92.0612 34.2881 93.6699 34.2881C94.0664 34.2881 94.5312 34.3678 95.0645 34.5273L94.7705 35.4365C94.333 35.2952 93.9593 35.2246 93.6494 35.2246C93.221 35.2246 92.9043 35.3682 92.6992 35.6553C92.4941 35.9378 92.3916 36.3936 92.3916 37.0225V37.5078H94.2988V38.3896ZM102.133 41.2471C102.133 42.4684 101.825 43.4232 101.21 44.1113C100.595 44.7949 99.7448 45.1367 98.6602 45.1367C97.9902 45.1367 97.3955 44.9795 96.876 44.665C96.3564 44.3506 95.9554 43.8994 95.6729 43.3115C95.3903 42.7236 95.249 42.0355 95.249 41.2471C95.249 40.0257 95.5544 39.0755 96.165 38.3965C96.7757 37.7129 97.6234 37.3711 98.708 37.3711C99.7562 37.3711 100.588 37.7197 101.203 38.417C101.823 39.1143 102.133 40.0576 102.133 41.2471ZM96.4248 41.2471C96.4248 42.2041 96.6162 42.9333 96.999 43.4346C97.3818 43.9359 97.9447 44.1865 98.6875 44.1865C99.4303 44.1865 99.9932 43.9382 100.376 43.4414C100.763 42.9401 100.957 42.2087 100.957 41.2471C100.957 40.2946 100.763 39.5723 100.376 39.0801C99.9932 38.5833 99.4258 38.335 98.6738 38.335C97.931 38.335 97.3704 38.5788 96.9922 39.0664C96.6139 39.554 96.4248 40.2809 96.4248 41.2471ZM107.547 37.3711C107.88 37.3711 108.178 37.3984 108.442 37.4531L108.285 38.5059C107.975 38.4375 107.702 38.4033 107.465 38.4033C106.859 38.4033 106.339 38.6494 105.906 39.1416C105.478 39.6338 105.264 40.2467 105.264 40.9805V45H104.129V37.5078H105.065L105.195 38.8955H105.25C105.528 38.4079 105.863 38.0319 106.255 37.7676C106.647 37.5033 107.077 37.3711 107.547 37.3711ZM119.394 45V40.126C119.394 39.529 119.266 39.0824 119.011 38.7861C118.756 38.4854 118.359 38.335 117.821 38.335C117.115 38.335 116.593 38.5378 116.256 38.9434C115.919 39.349 115.75 39.9733 115.75 40.8164V45H114.615V40.126C114.615 39.529 114.488 39.0824 114.232 38.7861C113.977 38.4854 113.578 38.335 113.036 38.335C112.325 38.335 111.803 38.5492 111.471 38.9775C111.143 39.4014 110.979 40.0986 110.979 41.0693V45H109.844V37.5078H110.767L110.951 38.5332H111.006C111.22 38.1686 111.521 37.8838 111.908 37.6787C112.3 37.4736 112.738 37.3711 113.221 37.3711C114.392 37.3711 115.158 37.7949 115.518 38.6426H115.572C115.796 38.2507 116.119 37.9408 116.543 37.7129C116.967 37.485 117.45 37.3711 117.992 37.3711C118.84 37.3711 119.473 37.5898 119.893 38.0273C120.316 38.4603 120.528 39.1553 120.528 40.1123V45H119.394Z" fill="#3860AC"/>
</svg>
