<svg width="160" height="60" viewBox="0 0 160 60" fill="none" xmlns="http://www.w3.org/2000/svg">
<path d="M47 40.5455H30.4014C26.3823 40.5455 24.1429 43.3245 24.1429 46.2727C24.1429 49 26.0476 52 30.4014 52H47V40.5455Z" fill="#3860AC"/>
<path d="M29.8571 25.2727H13.2585C9.23946 25.2727 7 28.0518 7 31C7 33.7273 8.90476 36.7273 13.2585 36.7273H29.8571V25.2727Z" fill="#3860AC"/>
<path d="M47 10H30.4014C26.3823 10 24.1429 12.7791 24.1429 15.7273C24.1429 18.4545 26.0476 21.4545 30.4014 21.4545H47V10Z" fill="#3860AC"/>
<path d="M46.2 52C49.4033 52 52 49.4358 52 46.2727C52 43.1096 49.4033 40.5455 46.2 40.5455C42.9967 40.5455 40.4 43.1096 40.4 46.2727C40.4 49.4358 42.9967 52 46.2 52Z" fill="#2B519B"/>
<path d="M28.8 36.7273C32.0033 36.7273 34.6 34.1631 34.6 31C34.6 27.8369 32.0033 25.2727 28.8 25.2727C25.5967 25.2727 23 27.8369 23 31C23 34.1631 25.5967 36.7273 28.8 36.7273Z" fill="#2B519B"/>
<path d="M46.2 21.4545C49.4033 21.4545 52 18.8904 52 15.7273C52 12.5642 49.4033 10 46.2 10C42.9967 10 40.4 12.5642 40.4 15.7273C40.4 18.8904 42.9967 21.4545 46.2 21.4545Z" fill="#2B519B"/>
<path d="M70.7695 19.2262H74.167V24.0865C73.6383 24.2551 73.1006 24.3827 72.5537 24.4693C72.0068 24.5559 71.3734 24.5992 70.6533 24.5992C69.1403 24.5992 67.9622 24.1503 67.1191 23.2525C66.276 22.3502 65.8545 21.0878 65.8545 19.4654C65.8545 18.4264 66.0618 17.5172 66.4766 16.7379C66.8958 15.954 67.4974 15.357 68.2812 14.9469C69.0651 14.5322 69.9834 14.3248 71.0361 14.3248C72.1025 14.3248 73.096 14.5208 74.0166 14.9127L73.5654 15.9381C72.6631 15.5553 71.7949 15.3639 70.9609 15.3639C69.7441 15.3639 68.7939 15.7262 68.1104 16.4508C67.4268 17.1754 67.085 18.1803 67.085 19.4654C67.085 20.8144 67.4131 21.8375 68.0693 22.5348C68.7301 23.232 69.6986 23.5807 70.9746 23.5807C71.6673 23.5807 72.3441 23.5009 73.0049 23.3414V20.2652H70.7695V19.2262ZM82.8691 20.7096C82.8691 21.9309 82.5615 22.8857 81.9463 23.5738C81.3311 24.2574 80.4811 24.5992 79.3965 24.5992C78.7266 24.5992 78.1318 24.442 77.6123 24.1275C77.0928 23.8131 76.6917 23.3619 76.4092 22.774C76.1266 22.1861 75.9854 21.498 75.9854 20.7096C75.9854 19.4882 76.2907 18.538 76.9014 17.859C77.512 17.1754 78.3597 16.8336 79.4443 16.8336C80.4925 16.8336 81.3242 17.1822 81.9395 17.8795C82.5592 18.5768 82.8691 19.5201 82.8691 20.7096ZM77.1611 20.7096C77.1611 21.6666 77.3525 22.3958 77.7354 22.8971C78.1182 23.3984 78.681 23.649 79.4238 23.649C80.1667 23.649 80.7295 23.4006 81.1123 22.9039C81.4997 22.4026 81.6934 21.6712 81.6934 20.7096C81.6934 19.7571 81.4997 19.0348 81.1123 18.5426C80.7295 18.0458 80.1621 17.7975 79.4102 17.7975C78.6673 17.7975 78.1068 18.0413 77.7285 18.5289C77.3503 19.0165 77.1611 19.7434 77.1611 20.7096ZM91.332 20.7096C91.332 21.9309 91.0244 22.8857 90.4092 23.5738C89.7939 24.2574 88.944 24.5992 87.8594 24.5992C87.1895 24.5992 86.5947 24.442 86.0752 24.1275C85.5557 23.8131 85.1546 23.3619 84.8721 22.774C84.5895 22.1861 84.4482 21.498 84.4482 20.7096C84.4482 19.4882 84.7536 18.538 85.3643 17.859C85.9749 17.1754 86.8226 16.8336 87.9072 16.8336C88.9554 16.8336 89.7871 17.1822 90.4023 17.8795C91.0221 18.5768 91.332 19.5201 91.332 20.7096ZM85.624 20.7096C85.624 21.6666 85.8154 22.3958 86.1982 22.8971C86.5811 23.3984 87.1439 23.649 87.8867 23.649C88.6296 23.649 89.1924 23.4006 89.5752 22.9039C89.9626 22.4026 90.1562 21.6712 90.1562 20.7096C90.1562 19.7571 89.9626 19.0348 89.5752 18.5426C89.1924 18.0458 88.625 17.7975 87.873 17.7975C87.1302 17.7975 86.5697 18.0413 86.1914 18.5289C85.8132 19.0165 85.624 19.7434 85.624 20.7096ZM99.46 16.9703V17.6881L98.0723 17.8521C98.1999 18.0116 98.3138 18.2213 98.4141 18.481C98.5143 18.7363 98.5645 19.0256 98.5645 19.3492C98.5645 20.0829 98.3138 20.6685 97.8125 21.106C97.3112 21.5435 96.623 21.7623 95.748 21.7623C95.5247 21.7623 95.3151 21.7441 95.1191 21.7076C94.6361 21.9628 94.3945 22.2841 94.3945 22.6715C94.3945 22.8766 94.4788 23.0292 94.6475 23.1295C94.8161 23.2252 95.1055 23.273 95.5156 23.273H96.8418C97.653 23.273 98.2751 23.4439 98.708 23.7857C99.1455 24.1275 99.3643 24.6243 99.3643 25.276C99.3643 26.1054 99.0316 26.7366 98.3662 27.1695C97.7008 27.607 96.7301 27.8258 95.4541 27.8258C94.4743 27.8258 93.7178 27.6435 93.1846 27.2789C92.6559 26.9143 92.3916 26.3993 92.3916 25.734C92.3916 25.2782 92.5374 24.884 92.8291 24.5514C93.1208 24.2187 93.5309 23.9931 94.0596 23.8746C93.8682 23.788 93.7064 23.6536 93.5742 23.4713C93.4466 23.289 93.3828 23.0771 93.3828 22.8355C93.3828 22.5621 93.4557 22.3228 93.6016 22.1178C93.7474 21.9127 93.9775 21.7144 94.292 21.523C93.9046 21.3635 93.5879 21.0924 93.3418 20.7096C93.1003 20.3268 92.9795 19.8893 92.9795 19.3971C92.9795 18.5768 93.2256 17.9456 93.7178 17.5035C94.21 17.0569 94.9072 16.8336 95.8096 16.8336C96.2015 16.8336 96.5547 16.8792 96.8691 16.9703H99.46ZM93.4854 25.7203C93.4854 26.1259 93.6562 26.4335 93.998 26.6432C94.3398 26.8528 94.8298 26.9576 95.4678 26.9576C96.4202 26.9576 97.1243 26.8141 97.5801 26.5269C98.0404 26.2444 98.2705 25.8593 98.2705 25.3717C98.2705 24.9661 98.1452 24.6835 97.8945 24.524C97.6439 24.3691 97.1722 24.2916 96.4795 24.2916H95.1191C94.6042 24.2916 94.2031 24.4146 93.916 24.6607C93.6289 24.9068 93.4854 25.26 93.4854 25.7203ZM94.1006 19.3697C94.1006 19.8938 94.2487 20.2903 94.5449 20.5592C94.8411 20.8281 95.2536 20.9625 95.7822 20.9625C96.8896 20.9625 97.4434 20.4247 97.4434 19.3492C97.4434 18.2236 96.8828 17.6607 95.7617 17.6607C95.2285 17.6607 94.8184 17.8043 94.5312 18.0914C94.2441 18.3785 94.1006 18.8046 94.1006 19.3697ZM102.133 24.4625H100.998V13.8258H102.133V24.4625ZM107.704 24.5992C106.597 24.5992 105.722 24.262 105.079 23.5875C104.441 22.913 104.122 21.9765 104.122 20.7779C104.122 19.5702 104.418 18.6109 105.011 17.9C105.608 17.1891 106.408 16.8336 107.41 16.8336C108.349 16.8336 109.092 17.1435 109.639 17.7633C110.186 18.3785 110.459 19.192 110.459 20.2037V20.9215H105.298C105.321 21.801 105.542 22.4687 105.961 22.9244C106.385 23.3801 106.979 23.608 107.745 23.608C108.552 23.608 109.349 23.4394 110.138 23.1021V24.1139C109.737 24.287 109.356 24.4101 108.996 24.483C108.641 24.5605 108.21 24.5992 107.704 24.5992ZM107.396 17.7838C106.795 17.7838 106.314 17.9797 105.954 18.3717C105.599 18.7636 105.389 19.3059 105.325 19.9986H109.242C109.242 19.2831 109.083 18.7363 108.764 18.358C108.445 17.9752 107.989 17.7838 107.396 17.7838ZM74.3516 39.3697C74.3516 41.0195 73.9027 42.2818 73.0049 43.1568C72.1117 44.0273 70.8242 44.4625 69.1426 44.4625H66.374V34.4684H69.4365C70.9906 34.4684 72.1982 34.899 73.0596 35.7603C73.9209 36.6217 74.3516 37.8248 74.3516 39.3697ZM73.1211 39.4107C73.1211 38.1074 72.793 37.1253 72.1367 36.4644C71.485 35.8036 70.5143 35.4732 69.2246 35.4732H67.5361V43.4576H68.9512C70.3366 43.4576 71.3779 43.1181 72.0752 42.4391C72.7725 41.7555 73.1211 40.746 73.1211 39.4107ZM81.0234 44.4625L80.7979 43.3961H80.7432C80.3695 43.8655 79.9958 44.1845 79.6221 44.3531C79.2529 44.5172 78.7904 44.5992 78.2344 44.5992C77.4915 44.5992 76.9082 44.4078 76.4844 44.025C76.0651 43.6422 75.8555 43.0976 75.8555 42.3912C75.8555 40.8782 77.0654 40.0852 79.4854 40.0123L80.7568 39.9713V39.5064C80.7568 38.9185 80.6292 38.4856 80.374 38.2076C80.1234 37.9251 79.7201 37.7838 79.1641 37.7838C78.5397 37.7838 77.8333 37.9752 77.0449 38.358L76.6963 37.4898C77.0654 37.2893 77.4688 37.1321 77.9062 37.0182C78.3483 36.9042 78.7904 36.8473 79.2324 36.8473C80.1257 36.8473 80.7865 37.0455 81.2148 37.442C81.6478 37.8385 81.8643 38.4742 81.8643 39.3492V44.4625H81.0234ZM78.46 43.6627C79.1663 43.6627 79.7201 43.469 80.1211 43.0816C80.5267 42.6943 80.7295 42.1519 80.7295 41.4547V40.7779L79.5947 40.8258C78.6924 40.8577 78.0407 40.999 77.6396 41.2496C77.2432 41.4957 77.0449 41.8808 77.0449 42.4049C77.0449 42.815 77.168 43.1272 77.4141 43.3414C77.6647 43.5556 78.0133 43.6627 78.46 43.6627ZM86.6289 43.6627C86.8294 43.6627 87.0231 43.649 87.21 43.6217C87.3968 43.5898 87.5449 43.5579 87.6543 43.526V44.3941C87.5312 44.4534 87.349 44.5012 87.1074 44.5377C86.8704 44.5787 86.6562 44.5992 86.4648 44.5992C85.0156 44.5992 84.291 43.8359 84.291 42.3092V37.8521H83.2178V37.3053L84.291 36.8336L84.7695 35.234H85.4258V36.9703H87.5996V37.8521H85.4258V42.2613C85.4258 42.7125 85.5329 43.0588 85.7471 43.3004C85.9613 43.5419 86.2552 43.6627 86.6289 43.6627ZM93.7656 44.4625L93.54 43.3961H93.4854C93.1117 43.8655 92.738 44.1845 92.3643 44.3531C91.9951 44.5172 91.5326 44.5992 90.9766 44.5992C90.2337 44.5992 89.6504 44.4078 89.2266 44.025C88.8073 43.6422 88.5977 43.0976 88.5977 42.3912C88.5977 40.8782 89.8076 40.0852 92.2275 40.0123L93.499 39.9713V39.5064C93.499 38.9185 93.3714 38.4856 93.1162 38.2076C92.8656 37.9251 92.4622 37.7838 91.9062 37.7838C91.2819 37.7838 90.5755 37.9752 89.7871 38.358L89.4385 37.4898C89.8076 37.2893 90.2109 37.1321 90.6484 37.0182C91.0905 36.9042 91.5326 36.8473 91.9746 36.8473C92.8678 36.8473 93.5286 37.0455 93.957 37.442C94.39 37.8385 94.6064 38.4742 94.6064 39.3492V44.4625H93.7656ZM91.2021 43.6627C91.9085 43.6627 92.4622 43.469 92.8633 43.0816C93.2689 42.6943 93.4717 42.1519 93.4717 41.4547V40.7779L92.3369 40.8258C91.4346 40.8577 90.7829 40.999 90.3818 41.2496C89.9854 41.4957 89.7871 41.8808 89.7871 42.4049C89.7871 42.815 89.9102 43.1272 90.1562 43.3414C90.4069 43.5556 90.7555 43.6627 91.2021 43.6627ZM106.398 41.8033C106.398 42.6829 106.079 43.3687 105.441 43.8609C104.803 44.3531 103.938 44.5992 102.844 44.5992C101.659 44.5992 100.747 44.4465 100.109 44.1412V43.0201C100.52 43.1933 100.966 43.33 101.449 43.4303C101.932 43.5305 102.411 43.5807 102.885 43.5807C103.66 43.5807 104.243 43.4348 104.635 43.1432C105.027 42.8469 105.223 42.4368 105.223 41.9127C105.223 41.5663 105.152 41.2838 105.011 41.065C104.874 40.8417 104.642 40.6366 104.313 40.4498C103.99 40.2629 103.495 40.051 102.83 39.8141C101.9 39.4814 101.235 39.0872 100.834 38.6314C100.438 38.1757 100.239 37.581 100.239 36.8473C100.239 36.0771 100.529 35.4641 101.107 35.0084C101.686 34.5527 102.452 34.3248 103.404 34.3248C104.398 34.3248 105.312 34.5071 106.146 34.8717L105.783 35.8834C104.958 35.537 104.156 35.3639 103.377 35.3639C102.762 35.3639 102.281 35.496 101.935 35.7603C101.588 36.0247 101.415 36.3915 101.415 36.8609C101.415 37.2073 101.479 37.4921 101.606 37.7154C101.734 37.9342 101.948 38.137 102.249 38.3238C102.554 38.5061 103.019 38.7089 103.644 38.9322C104.692 39.3059 105.412 39.707 105.804 40.1353C106.2 40.5637 106.398 41.1197 106.398 41.8033ZM110.691 43.6627C110.892 43.6627 111.086 43.649 111.272 43.6217C111.459 43.5898 111.607 43.5579 111.717 43.526V44.3941C111.594 44.4534 111.411 44.5012 111.17 44.5377C110.933 44.5787 110.719 44.5992 110.527 44.5992C109.078 44.5992 108.354 43.8359 108.354 42.3092V37.8521H107.28V37.3053L108.354 36.8336L108.832 35.234H109.488V36.9703H111.662V37.8521H109.488V42.2613C109.488 42.7125 109.595 43.0588 109.81 43.3004C110.024 43.5419 110.318 43.6627 110.691 43.6627ZM114.287 36.9703V41.8307C114.287 42.4413 114.426 42.8971 114.704 43.1978C114.982 43.4986 115.417 43.649 116.01 43.649C116.794 43.649 117.366 43.4348 117.726 43.0064C118.09 42.5781 118.272 41.8785 118.272 40.9078V36.9703H119.407V44.4625H118.471L118.307 43.4576H118.245C118.013 43.8268 117.689 44.1093 117.274 44.3053C116.864 44.5012 116.395 44.5992 115.866 44.5992C114.955 44.5992 114.271 44.3827 113.815 43.9498C113.364 43.5169 113.139 42.8241 113.139 41.8717V36.9703H114.287ZM126.92 43.4576H126.858C126.334 44.2187 125.55 44.5992 124.507 44.5992C123.527 44.5992 122.764 44.2643 122.217 43.5943C121.674 42.9244 121.403 41.9719 121.403 40.7369C121.403 39.5019 121.677 38.5426 122.224 37.859C122.771 37.1754 123.532 36.8336 124.507 36.8336C125.523 36.8336 126.302 37.2027 126.845 37.941H126.934L126.886 37.401L126.858 36.8746V33.8258H127.993V44.4625H127.07L126.92 43.4576ZM124.65 43.649C125.425 43.649 125.986 43.4394 126.332 43.0201C126.683 42.5963 126.858 41.915 126.858 40.9762V40.7369C126.858 39.6751 126.681 38.9185 126.325 38.4674C125.974 38.0116 125.411 37.7838 124.637 37.7838C123.971 37.7838 123.461 38.0435 123.105 38.5631C122.755 39.0781 122.579 39.8072 122.579 40.7506C122.579 41.7076 122.755 42.4299 123.105 42.9176C123.456 43.4052 123.971 43.649 124.65 43.649ZM131.541 44.4625H130.406V36.9703H131.541V44.4625ZM130.311 34.94C130.311 34.6803 130.374 34.4911 130.502 34.3727C130.63 34.2496 130.789 34.1881 130.98 34.1881C131.163 34.1881 131.32 34.2496 131.452 34.3727C131.584 34.4957 131.65 34.6848 131.65 34.94C131.65 35.1952 131.584 35.3866 131.452 35.5143C131.32 35.6373 131.163 35.6988 130.98 35.6988C130.789 35.6988 130.63 35.6373 130.502 35.5143C130.374 35.3866 130.311 35.1952 130.311 34.94ZM140.414 40.7096C140.414 41.9309 140.106 42.8857 139.491 43.5738C138.876 44.2574 138.026 44.5992 136.941 44.5992C136.271 44.5992 135.677 44.442 135.157 44.1275C134.638 43.8131 134.237 43.3619 133.954 42.774C133.672 42.1861 133.53 41.498 133.53 40.7096C133.53 39.4882 133.836 38.538 134.446 37.859C135.057 37.1754 135.905 36.8336 136.989 36.8336C138.037 36.8336 138.869 37.1822 139.484 37.8795C140.104 38.5768 140.414 39.5201 140.414 40.7096ZM134.706 40.7096C134.706 41.6666 134.897 42.3958 135.28 42.8971C135.663 43.3984 136.226 43.649 136.969 43.649C137.712 43.649 138.274 43.4006 138.657 42.9039C139.045 42.4026 139.238 41.6712 139.238 40.7096C139.238 39.7571 139.045 39.0348 138.657 38.5426C138.274 38.0458 137.707 37.7975 136.955 37.7975C136.212 37.7975 135.652 38.0413 135.273 38.5289C134.895 39.0165 134.706 39.7434 134.706 40.7096Z" fill="#3860AC"/>
</svg>
