<svg width="160" height="60" viewBox="0 0 160 60" fill="none" xmlns="http://www.w3.org/2000/svg">
<path fill-rule="evenodd" clip-rule="evenodd" d="M93.915 28.1856C94.729 27.8507 95.4573 27.7502 95.9178 27.7502C98.2312 27.7502 99.7949 29.4473 99.7949 32.1047C99.7949 34.8625 98.1562 36.4703 95.2538 36.4703C94.247 36.4703 93.2617 36.2694 92.2335 35.9009L92.1907 23.7083H93.9257V28.1856H93.915ZM95.4359 34.8067C97.0531 34.8067 97.9849 33.8465 97.9849 32.1158C97.9849 30.4187 97.0531 29.4027 95.5965 29.4027C94.9646 29.4027 94.3648 29.626 93.9257 29.8381V34.4941C94.4505 34.7174 94.9539 34.8067 95.4359 34.8067Z" fill="#3860AC"/>
<path d="M108.149 22H106.435V38H108.149V22Z" fill="#3860AC"/>
<path fill-rule="evenodd" clip-rule="evenodd" d="M117.06 31.1556H120.99C120.947 30.0614 120.38 29.492 119.384 29.4361C118.366 29.358 117.392 30.0391 117.06 31.1556ZM118.998 36.5038C116.363 36.2359 115.068 34.3043 115.142 32.0042C115.217 29.5255 116.76 27.7725 119.105 27.7725C121.569 27.7725 122.993 29.6706 122.875 32.4731H116.953C117.092 34.0251 117.981 34.762 119.202 34.8514C120.219 34.9407 121.654 34.695 122.436 34.1814V35.8897C121.408 36.4145 120.337 36.6378 118.998 36.5038Z" fill="#3860AC"/>
<path fill-rule="evenodd" clip-rule="evenodd" d="M147.444 35.097C148.537 35.097 149.265 34.5164 149.265 33.2212V27.9288H151V33.4445C151 35.2868 149.629 36.4145 147.444 36.4145C145.259 36.4145 143.888 35.2868 143.888 33.4445V27.9288H145.623V33.2212C145.623 34.5164 146.352 35.097 147.444 35.097Z" fill="#3860AC"/>
<path fill-rule="evenodd" clip-rule="evenodd" d="M80.7844 36.4703C77.882 36.4815 76.2433 34.8625 76.2433 32.1047C76.2433 29.4473 77.807 27.7502 80.1204 27.7502C80.9022 27.7502 81.5448 27.9288 82.1232 28.3196V27.7055H83.8582L83.8154 35.9009C83.0764 36.2359 81.8768 36.4703 80.7844 36.4703ZM80.6023 34.8067C80.9986 34.8067 81.4806 34.7732 82.0803 34.6057L82.1125 29.9944C81.5555 29.6036 81.02 29.4138 80.4417 29.4138C78.9851 29.4138 78.0533 30.4299 78.0533 32.127C78.064 33.8465 78.9851 34.8402 80.6023 34.8067Z" fill="#3860AC"/>
<path fill-rule="evenodd" clip-rule="evenodd" d="M134.099 36.4703C131.197 36.4815 129.569 34.8625 129.569 32.1047C129.569 29.4473 131.133 27.7502 133.446 27.7502C134.228 27.7502 134.871 27.9288 135.449 28.3196V27.7055H137.184L137.13 35.9009C136.391 36.2359 135.192 36.4703 134.099 36.4703ZM133.928 34.8067C134.271 34.8067 134.796 34.7732 135.406 34.6057L135.438 29.9944C134.881 29.6036 134.346 29.4138 133.767 29.4138C132.311 29.4138 131.379 30.4299 131.379 32.127C131.379 33.8465 132.3 34.8179 133.928 34.8067Z" fill="#3860AC"/>
<path d="M63.6375 24.2889H65.3511V29.3692H69.9886V31.0328H65.3511V36.5373H63.6375V31.0328H59V29.3692H63.6375V24.2889Z" fill="#3860AC"/>
<path d="M31.593 29.3685H26.0975V23.4538H23.9341V29.3685H18.4228V31.4598H23.9341V37.3745H26.0975V31.4598H31.593V29.3685Z" fill="#3860AC"/>
<path d="M20.5389 39.0132H15.5961V33.7227H13.7485V39.0132H8.80576V40.6363H13.7485V45.9268H15.5961V40.6363H20.5389V39.0132Z" fill="#3860AC"/>
<path d="M41.21 20.0828H36.2831V14.7767H34.4197V20.0828H29.4927V21.7059H34.4197V26.9652H36.2831V21.7059H41.21V20.0828Z" fill="#3860AC"/>
<path d="M29.1927 44.8811H25.8448V41.1981H24.2499V44.8811H20.9021V46.3169H24.2499V50H25.8448V46.3169H29.1927V44.8811Z" fill="#3860AC"/>
<path d="M20.5389 20.0828H15.5488V14.7767H13.7959V20.0828H8.80576V21.6435H13.7959V26.9652H15.5488V21.6435H20.5389V20.0828Z" fill="#3860AC"/>
<path d="M45 29.7119H41.6522V26.0132H40.0572V29.7119H36.7252V31.1321H40.0572V34.8307H41.6522V31.1321H45V29.7119Z" fill="#3860AC"/>
<path fill-rule="evenodd" clip-rule="evenodd" d="M41.21 39.0132H36.2831V33.7227H34.4197V39.0132H29.4927V40.6363H34.4197V45.9268H36.2831V40.6363H41.21V39.0132Z" fill="#3860AC"/>
<path d="M24.4394 11V14.6206H21.139V15.7131H24.4394V19.3337H25.6396V15.7131H28.94V14.6206H25.6396V11H24.4394Z" fill="#3860AC"/>
<path d="M8.30043 26.2941V29.8523H5V30.9916L8.30043 30.9604V34.5342H9.46901V30.9604L12.801 30.9448V29.8523H9.46901V26.2941H8.30043Z" fill="#3860AC"/>
</svg>
