<svg width="160" height="60" viewBox="0 0 160 60" fill="none" xmlns="http://www.w3.org/2000/svg">
<path d="M121.237 16C114.089 16 108.129 20.9885 106.766 27.6138V16L91.9608 30.4997L77.1972 16V27.6138C75.8347 20.9883 69.8739 16 62.7267 16C55.5802 16 49.62 20.9874 48.2568 27.6116C47.7286 25.0467 46.5117 22.727 44.8032 20.8474C42.0993 17.8731 38.1663 16 33.7874 16H24V45H33.7874C38.1662 45 42.0992 43.1269 44.8029 40.1528C46.5116 38.2732 47.7285 35.9534 48.2568 33.3885C49.6201 40.0126 55.5802 45 62.7267 45C69.8739 45 75.8347 40.0115 77.1972 33.3861V45H82.0899V27.6584L91.9608 37.3528L101.789 27.6584V44.9999H106.766V33.386C108.129 40.0114 114.09 44.9999 121.237 44.9999C129.39 44.9999 136 38.5079 136 30.4999C136 22.4918 129.39 16 121.237 16ZM34.4286 40.1526H28.8927V20.8472H34.4322C39.5719 21.1738 43.6386 25.3692 43.6386 30.4998C43.6386 35.6317 39.5701 39.828 34.4286 40.1526ZM62.7267 40.1753C57.286 40.1753 52.8754 35.8434 52.8754 30.4998C52.8754 25.1562 57.286 20.8243 62.7267 20.8243C68.1673 20.8243 72.5779 25.1562 72.5779 30.4998C72.5779 35.8434 68.1673 40.1753 62.7267 40.1753ZM121.237 40.1753C115.796 40.1753 111.386 35.8434 111.386 30.4998C111.386 25.1562 115.796 20.8243 121.237 20.8243C126.677 20.8243 131.088 25.1562 131.088 30.4998C131.088 35.8434 126.677 40.1753 121.237 40.1753Z" fill="#3860AC"/>
</svg>
