<svg width="160" height="60" viewBox="0 0 160 60" fill="none" xmlns="http://www.w3.org/2000/svg">
<path d="M28.3521 10.0017C26.7368 10.0091 25.1944 10.1456 23.838 10.3835C19.8385 11.0833 19.1126 12.5473 19.1126 15.2486V18.8153H28.56V20.004H19.1126H15.5676C12.8218 20.004 10.4157 21.6387 9.66516 24.7469C8.79759 28.3102 8.75918 30.5368 9.66516 34.2571C10.3368 37.0275 11.9409 39 14.6866 39H17.9353V34.7248C17.9353 31.6361 20.6335 28.9105 23.8377 28.9105H33.2745C35.9016 28.9105 38 26.7683 38 24.1571V15.2472C38 12.7113 35.8399 10.8079 33.2745 10.3821C31.6514 10.1145 29.9674 9.99298 28.3517 10.0003L28.3521 10.0017ZM23.2425 12.8701C24.2186 12.8701 25.0154 13.6725 25.0154 14.6587C25.0154 15.6415 24.2183 16.4365 23.2425 16.4365C22.2632 16.4365 21.4697 15.6419 21.4697 14.6587C21.4697 13.6725 22.2632 12.8701 23.2425 12.8701Z" fill="#2B519B"/>
<path d="M40.0214 21V25.1253C40.0214 28.3227 37.2696 31.0137 34.1317 31.0137H24.7153C22.1358 31.0137 20 33.1882 20 35.7313V44.5742C20 47.0909 22.2219 48.5713 24.7153 49.2918C27.6995 50.1564 30.5627 50.3126 34.1317 49.2918C36.5051 48.615 38.847 47.2523 38.847 44.5742V41.0343H29.4305V39.8545H38.847H43.5622C46.302 39.8545 47.3246 37.972 48.2775 35.1473C49.2617 32.2381 49.2198 29.439 48.2775 25.7086C47.6002 23.0218 46.307 21.0014 43.5622 21.0014H40.0249L40.0214 21ZM34.7259 43.3965C35.7031 43.3965 36.4949 44.1852 36.4949 45.1609C36.4949 46.1398 35.7031 46.9361 34.7259 46.9361C33.7519 46.9361 32.9569 46.1398 32.9569 45.1609C32.9569 44.1856 33.7523 43.3965 34.7259 43.3965Z" fill="#4584CC"/>
<path d="M74.0662 29.7291C74.0662 26.0738 73.0238 24.196 70.9381 24.093C70.1086 24.0539 69.2985 24.186 68.5107 24.492C67.8818 24.7171 67.4585 24.9398 67.2359 25.1648V33.8913C68.5694 34.7283 69.7539 35.1172 70.7857 35.0562C72.9709 34.9118 74.0644 33.1376 74.0644 29.7289L74.0662 29.7291ZM76.6369 29.8808C76.6369 31.7381 76.2014 33.2801 75.3255 34.5052C74.3491 35.8927 72.996 36.6072 71.266 36.6464C69.9618 36.688 68.6174 36.2794 67.2366 35.4228V43.3535L65 42.5556V24.952C65.367 24.5018 65.8393 24.115 66.4119 23.7871C67.743 23.0113 69.3618 22.6124 71.2647 22.5928L71.2965 22.6247C73.0363 22.6026 74.3769 23.3171 75.3184 24.7659C76.1968 26.0947 76.6374 27.7986 76.6374 29.8798L76.6369 29.8808Z" fill="#3860AC"/>
<path d="M90.3092 35.0865C90.3092 37.5777 90.0596 39.3017 89.5603 40.2632C89.0587 41.2225 88.1042 41.9884 86.6958 42.5586C85.553 43.0087 84.3173 43.2535 82.9903 43.2952L82.6207 41.8858C83.9691 41.7022 84.9186 41.5187 85.4701 41.3352C86.5542 40.9682 87.2981 40.4053 87.7068 39.6517C88.0346 39.0373 88.1961 37.8654 88.1961 36.1294V35.547C86.6667 36.2419 85.0629 36.5871 83.3884 36.5871C82.2873 36.5871 81.3158 36.2421 80.4788 35.547C79.5391 34.7908 79.0694 33.8315 79.0694 32.6699V23.361L81.306 22.595V31.9642C81.306 32.9652 81.6291 33.7359 82.275 34.2767C82.921 34.8174 83.758 35.0768 84.7833 35.0572C85.8086 35.0352 86.9072 34.6387 88.0746 33.8629V22.9322H90.3112V35.0855L90.3092 35.0865Z" fill="#3860AC"/>
<path d="M99.0456 36.5251C98.779 36.5471 98.5342 36.5569 98.309 36.5569C97.044 36.5569 96.0578 36.2559 95.3541 35.6516C94.6519 35.0471 94.2995 34.2128 94.2995 33.1484V24.339H92.7676V22.9319H94.2995V19.1962L96.5336 18.4009V22.9324H99.0466V24.3395H96.5336V33.0886C96.5336 33.9279 96.7587 34.5226 97.2089 34.8701C97.5955 35.1563 98.2098 35.3202 99.0466 35.3619V36.5268L99.0456 36.5251Z" fill="#3860AC"/>
<path d="M112.577 36.3418H110.341V27.7082C110.341 26.8298 110.135 26.0736 109.726 25.4422C109.254 24.7277 108.598 24.3705 107.757 24.3705C106.731 24.3705 105.449 24.9112 103.91 25.9928V36.3411H101.674V15.7047L103.91 15V24.3993C105.339 23.3592 106.9 22.838 108.598 22.838C109.782 22.838 110.741 23.237 111.475 24.0323C112.211 24.8276 112.578 25.8185 112.578 27.0022V36.3388L112.577 36.3418Z" fill="#3860AC"/>
<path d="M124.477 29.3777C124.477 27.973 124.21 26.8144 123.679 25.8956C123.048 24.7774 122.067 24.1877 120.739 24.1264C118.287 24.2684 117.064 26.0254 117.064 29.3935C117.064 30.9374 117.319 32.2278 117.832 33.2622C118.488 34.5812 119.472 35.2319 120.785 35.2101C123.247 35.1905 124.478 33.2476 124.478 29.3782L124.477 29.3777ZM126.927 29.3923C126.927 31.3915 126.415 33.0552 125.395 34.3832C124.271 35.871 122.721 36.6173 120.74 36.6173C118.778 36.6173 117.248 35.871 116.143 34.3832C115.142 33.0544 114.643 31.3907 114.643 29.3923C114.643 27.513 115.184 25.9329 116.266 24.645C117.408 23.2795 118.912 22.5944 120.767 22.5944C122.624 22.5944 124.136 23.2795 125.301 24.645C126.383 25.9321 126.923 27.512 126.923 29.3923H126.927Z" fill="#3860AC"/>
<path d="M139.741 36.3418H137.504V27.2186C137.504 26.2177 137.203 25.4372 136.601 24.8743C135.999 24.314 135.197 24.0423 134.196 24.0644C133.134 24.084 132.123 24.4315 131.163 25.1045V36.3416H128.927V24.8284C130.214 23.8912 131.398 23.2794 132.479 22.9932C133.5 22.7266 134.4 22.5943 135.175 22.5943C135.706 22.5943 136.206 22.6457 136.675 22.7484C137.554 22.9515 138.268 23.3284 138.819 23.8814C139.433 24.4933 139.739 25.2273 139.739 26.0862V36.3416L139.741 36.3418Z" fill="#3860AC"/>
</svg>
