<svg width="160" height="60" viewBox="0 0 160 60" fill="none" xmlns="http://www.w3.org/2000/svg">
<path fill-rule="evenodd" clip-rule="evenodd" d="M79.9868 42.0497C64.5302 42.0497 52 33.6579 52 23.3062C52 12.9543 64.5302 4.56256 79.9868 4.56256C95.4435 4.56256 107.974 12.9543 107.974 23.3062C107.974 33.6579 95.4435 42.0497 79.9868 42.0497ZM84.2707 11.8907C72.5223 11.8907 62.9983 17.6276 62.9983 24.7045C62.9983 31.7814 72.5223 37.5184 84.2707 37.5184C96.019 37.5184 104.689 33.5962 104.689 24.7045C104.689 15.8157 96.019 11.8907 84.2707 11.8907Z" fill="#4584CC"/>
<path fill-rule="evenodd" clip-rule="evenodd" d="M94.6226 33.5936C94.6226 33.5936 96.3165 34.1048 97.3006 34.6027C97.642 34.7755 98.2328 35.1203 98.659 35.573C99.0764 36.0164 99.28 36.4657 99.28 36.4657L105.956 47.7211L95.1659 47.7259L90.1204 38.251C90.1204 38.251 89.0873 36.4759 88.4515 35.9612C87.9212 35.5318 87.6951 35.379 87.1707 35.379H84.6072L84.6092 47.719L75.0615 47.7231V16.2012H94.2345C94.2345 16.2012 102.967 16.3587 102.967 24.667C102.967 32.9752 94.6226 33.5936 94.6226 33.5936ZM90.4697 23.0388L84.6897 23.035L84.6868 28.3949L90.4697 28.393C90.4697 28.393 93.1477 28.3847 93.1477 25.6665C93.1477 22.8937 90.4697 23.0388 90.4697 23.0388Z" fill="#3860AC"/>
</svg>
