<svg width="160" height="60" viewBox="0 0 160 60" fill="none" xmlns="http://www.w3.org/2000/svg">
<mask id="mask0_290_453" style="mask-type:alpha" maskUnits="userSpaceOnUse" x="4" y="6" width="42" height="40">
<path d="M4.63932 24.4539C3.78689 25.4281 3.78689 26.8828 4.63932 27.8569L19.9414 45.345C20.6277 46.1294 21.8479 46.1294 22.5342 45.345L24.182 43.4618L25.9967 45.4414C26.6794 46.1862 27.8536 46.1862 28.5363 45.4414L44.6146 27.9014C45.5202 26.9135 45.5202 25.3973 44.6146 24.4094L28.5363 6.86947C27.8536 6.12467 26.6794 6.12467 25.9967 6.86947L24.182 8.84905L22.5342 6.96579C21.8479 6.18144 20.6277 6.18144 19.9414 6.96579L4.63932 24.4539Z" fill="white"/>
</mask>
<g mask="url(#mask0_290_453)">
<path d="M21.2377 46.8267L3.15039 26.1554L21.2377 5.48421L39.325 26.1554L21.2377 46.8267Z" fill="#2B519B"/>
<path d="M27.2663 5.48421L46.215 26.1554L27.2663 46.8267L18.859 37.6551C18.2553 36.9965 18.2553 35.9856 18.859 35.327L26.1994 27.3194C26.803 26.6608 26.803 25.65 26.1994 24.9914L18.859 16.9838C18.2553 16.3252 18.2553 15.3144 18.859 14.6558L27.2663 5.48421Z" fill="#3860AC"/>
<path d="M35.4711 17.2051C36.1539 16.4603 37.3281 16.4603 38.0108 17.2051L46.2153 26.1554L38.0108 35.1058C37.3281 35.8506 36.1539 35.8506 35.4711 35.1058L28.8672 27.9014C27.9616 26.9135 27.9616 25.3973 28.8672 24.4094L35.4711 17.2051Z" fill="#4584CC"/>
</g>
<path d="M72.7109 26.918C72.7109 27.9297 72.3646 28.709 71.6719 29.2559C70.9837 29.7982 69.9971 30.0693 68.7119 30.0693H67.5361V34H66.374V24.0059H68.9648C71.4622 24.0059 72.7109 24.9766 72.7109 26.918ZM67.5361 29.0713H68.582C69.612 29.0713 70.3571 28.9049 70.8174 28.5723C71.2777 28.2396 71.5078 27.7064 71.5078 26.9727C71.5078 26.3118 71.2913 25.8197 70.8584 25.4961C70.4255 25.1725 69.751 25.0107 68.835 25.0107H67.5361V29.0713ZM81.1055 30.2471C81.1055 31.4684 80.7979 32.4232 80.1826 33.1113C79.5674 33.7949 78.7174 34.1367 77.6328 34.1367C76.9629 34.1367 76.3682 33.9795 75.8486 33.665C75.3291 33.3506 74.9281 32.8994 74.6455 32.3115C74.363 31.7236 74.2217 31.0355 74.2217 30.2471C74.2217 29.0257 74.527 28.0755 75.1377 27.3965C75.7484 26.7129 76.596 26.3711 77.6807 26.3711C78.7288 26.3711 79.5605 26.7197 80.1758 27.417C80.7956 28.1143 81.1055 29.0576 81.1055 30.2471ZM75.3975 30.2471C75.3975 31.2041 75.5889 31.9333 75.9717 32.4346C76.3545 32.9359 76.9173 33.1865 77.6602 33.1865C78.403 33.1865 78.9658 32.9382 79.3486 32.4414C79.736 31.9401 79.9297 31.2087 79.9297 30.2471C79.9297 29.2946 79.736 28.5723 79.3486 28.0801C78.9658 27.5833 78.3984 27.335 77.6465 27.335C76.9036 27.335 76.3431 27.5788 75.9648 28.0664C75.5866 28.554 75.3975 29.2809 75.3975 30.2471ZM89.2197 34L87.8457 29.6045C87.7591 29.3356 87.5973 28.7249 87.3604 27.7725H87.3057C87.1234 28.57 86.9639 29.1852 86.8271 29.6182L85.4121 34H84.0996L82.0557 26.5078H83.2451C83.7282 28.39 84.0951 29.8232 84.3457 30.8076C84.6009 31.792 84.7467 32.4551 84.7832 32.7969H84.8379C84.888 32.5371 84.9678 32.2021 85.0771 31.792C85.1911 31.3773 85.2891 31.0492 85.3711 30.8076L86.7451 26.5078H87.9756L89.3154 30.8076C89.5706 31.5915 89.7438 32.25 89.835 32.7832H89.8896C89.9079 32.6191 89.9557 32.3662 90.0332 32.0244C90.1152 31.6826 90.5915 29.8438 91.4619 26.5078H92.6377L90.5664 34H89.2197ZM97.1631 34.1367C96.0557 34.1367 95.1807 33.7995 94.5381 33.125C93.9001 32.4505 93.5811 31.514 93.5811 30.3154C93.5811 29.1077 93.8773 28.1484 94.4697 27.4375C95.0667 26.7266 95.8665 26.3711 96.8691 26.3711C97.8079 26.3711 98.5508 26.681 99.0977 27.3008C99.6445 27.916 99.918 28.7295 99.918 29.7412V30.459H94.7568C94.7796 31.3385 95.0007 32.0062 95.4199 32.4619C95.8438 32.9176 96.4385 33.1455 97.2041 33.1455C98.0107 33.1455 98.8083 32.9769 99.5967 32.6396V33.6514C99.1956 33.8245 98.8151 33.9476 98.4551 34.0205C98.0996 34.098 97.6689 34.1367 97.1631 34.1367ZM96.8555 27.3213C96.2539 27.3213 95.7731 27.5173 95.4131 27.9092C95.0576 28.3011 94.848 28.8434 94.7842 29.5361H98.7012C98.7012 28.8206 98.5417 28.2738 98.2227 27.8955C97.9036 27.5127 97.4479 27.3213 96.8555 27.3213ZM105.277 26.3711C105.61 26.3711 105.909 26.3984 106.173 26.4531L106.016 27.5059C105.706 27.4375 105.432 27.4033 105.195 27.4033C104.589 27.4033 104.07 27.6494 103.637 28.1416C103.208 28.6338 102.994 29.2467 102.994 29.9805V34H101.859V26.5078H102.796L102.926 27.8955H102.98C103.258 27.4079 103.593 27.0319 103.985 26.7676C104.377 26.5033 104.808 26.3711 105.277 26.3711ZM117.664 34L116.42 30.8213H112.414L111.184 34H110.008L113.959 23.9648H114.937L118.867 34H117.664ZM116.058 29.7754L114.896 26.6787C114.745 26.2868 114.59 25.806 114.431 25.2363C114.33 25.6738 114.187 26.1546 114 26.6787L112.824 29.7754H116.058ZM123.557 34.1367C123.069 34.1367 122.622 34.0479 122.217 33.8701C121.816 33.6878 121.479 33.4098 121.205 33.0361H121.123C121.178 33.4736 121.205 33.8883 121.205 34.2803V37.3633H120.07V26.5078H120.993L121.15 27.5332H121.205C121.497 27.123 121.836 26.8268 122.224 26.6445C122.611 26.4622 123.055 26.3711 123.557 26.3711C124.55 26.3711 125.316 26.7106 125.854 27.3896C126.396 28.0687 126.667 29.0212 126.667 30.2471C126.667 31.4775 126.391 32.4346 125.84 33.1182C125.293 33.7972 124.532 34.1367 123.557 34.1367ZM123.393 27.335C122.627 27.335 122.073 27.5469 121.731 27.9707C121.39 28.3945 121.214 29.069 121.205 29.9941V30.2471C121.205 31.2998 121.381 32.054 121.731 32.5098C122.082 32.9609 122.645 33.1865 123.42 33.1865C124.067 33.1865 124.573 32.9245 124.938 32.4004C125.307 31.8763 125.491 31.154 125.491 30.2334C125.491 29.2992 125.307 28.5837 124.938 28.0869C124.573 27.5856 124.058 27.335 123.393 27.335ZM132.143 34.1367C131.655 34.1367 131.208 34.0479 130.803 33.8701C130.402 33.6878 130.064 33.4098 129.791 33.0361H129.709C129.764 33.4736 129.791 33.8883 129.791 34.2803V37.3633H128.656V26.5078H129.579L129.736 27.5332H129.791C130.083 27.123 130.422 26.8268 130.81 26.6445C131.197 26.4622 131.641 26.3711 132.143 26.3711C133.136 26.3711 133.902 26.7106 134.439 27.3896C134.982 28.0687 135.253 29.0212 135.253 30.2471C135.253 31.4775 134.977 32.4346 134.426 33.1182C133.879 33.7972 133.118 34.1367 132.143 34.1367ZM131.979 27.335C131.213 27.335 130.659 27.5469 130.317 27.9707C129.976 28.3945 129.8 29.069 129.791 29.9941V30.2471C129.791 31.2998 129.966 32.054 130.317 32.5098C130.668 32.9609 131.231 33.1865 132.006 33.1865C132.653 33.1865 133.159 32.9245 133.523 32.4004C133.893 31.8763 134.077 31.154 134.077 30.2334C134.077 29.2992 133.893 28.5837 133.523 28.0869C133.159 27.5856 132.644 27.335 131.979 27.335Z" fill="#3860AC"/>
</svg>
