<svg width="160" height="60" viewBox="0 0 160 60" fill="none" xmlns="http://www.w3.org/2000/svg">
<path d="M72.7109 17.918C72.7109 18.9297 72.3646 19.709 71.6719 20.2559C70.9837 20.7982 69.9971 21.0693 68.7119 21.0693H67.5361V25H66.374V15.0059H68.9648C71.4622 15.0059 72.7109 15.9766 72.7109 17.918ZM67.5361 20.0713H68.582C69.612 20.0713 70.3571 19.9049 70.8174 19.5723C71.2777 19.2396 71.5078 18.7064 71.5078 17.9727C71.5078 17.3118 71.2913 16.8197 70.8584 16.4961C70.4255 16.1725 69.751 16.0107 68.835 16.0107H67.5361V20.0713ZM81.1055 21.2471C81.1055 22.4684 80.7979 23.4232 80.1826 24.1113C79.5674 24.7949 78.7174 25.1367 77.6328 25.1367C76.9629 25.1367 76.3682 24.9795 75.8486 24.665C75.3291 24.3506 74.9281 23.8994 74.6455 23.3115C74.363 22.7236 74.2217 22.0355 74.2217 21.2471C74.2217 20.0257 74.527 19.0755 75.1377 18.3965C75.7484 17.7129 76.596 17.3711 77.6807 17.3711C78.7288 17.3711 79.5605 17.7197 80.1758 18.417C80.7956 19.1143 81.1055 20.0576 81.1055 21.2471ZM75.3975 21.2471C75.3975 22.2041 75.5889 22.9333 75.9717 23.4346C76.3545 23.9359 76.9173 24.1865 77.6602 24.1865C78.403 24.1865 78.9658 23.9382 79.3486 23.4414C79.736 22.9401 79.9297 22.2087 79.9297 21.2471C79.9297 20.2946 79.736 19.5723 79.3486 19.0801C78.9658 18.5833 78.3984 18.335 77.6465 18.335C76.9036 18.335 76.3431 18.5788 75.9648 19.0664C75.5866 19.554 75.3975 20.2809 75.3975 21.2471ZM89.2197 25L87.8457 20.6045C87.7591 20.3356 87.5973 19.7249 87.3604 18.7725H87.3057C87.1234 19.57 86.9639 20.1852 86.8271 20.6182L85.4121 25H84.0996L82.0557 17.5078H83.2451C83.7282 19.39 84.0951 20.8232 84.3457 21.8076C84.6009 22.792 84.7467 23.4551 84.7832 23.7969H84.8379C84.888 23.5371 84.9678 23.2021 85.0771 22.792C85.1911 22.3773 85.2891 22.0492 85.3711 21.8076L86.7451 17.5078H87.9756L89.3154 21.8076C89.5706 22.5915 89.7438 23.25 89.835 23.7832H89.8896C89.9079 23.6191 89.9557 23.3662 90.0332 23.0244C90.1152 22.6826 90.5915 20.8438 91.4619 17.5078H92.6377L90.5664 25H89.2197ZM97.1631 25.1367C96.0557 25.1367 95.1807 24.7995 94.5381 24.125C93.9001 23.4505 93.5811 22.514 93.5811 21.3154C93.5811 20.1077 93.8773 19.1484 94.4697 18.4375C95.0667 17.7266 95.8665 17.3711 96.8691 17.3711C97.8079 17.3711 98.5508 17.681 99.0977 18.3008C99.6445 18.916 99.918 19.7295 99.918 20.7412V21.459H94.7568C94.7796 22.3385 95.0007 23.0062 95.4199 23.4619C95.8438 23.9176 96.4385 24.1455 97.2041 24.1455C98.0107 24.1455 98.8083 23.9769 99.5967 23.6396V24.6514C99.1956 24.8245 98.8151 24.9476 98.4551 25.0205C98.0996 25.098 97.6689 25.1367 97.1631 25.1367ZM96.8555 18.3213C96.2539 18.3213 95.7731 18.5173 95.4131 18.9092C95.0576 19.3011 94.848 19.8434 94.7842 20.5361H98.7012C98.7012 19.8206 98.5417 19.2738 98.2227 18.8955C97.9036 18.5127 97.4479 18.3213 96.8555 18.3213ZM105.277 17.3711C105.61 17.3711 105.909 17.3984 106.173 17.4531L106.016 18.5059C105.706 18.4375 105.432 18.4033 105.195 18.4033C104.589 18.4033 104.07 18.6494 103.637 19.1416C103.208 19.6338 102.994 20.2467 102.994 20.9805V25H101.859V17.5078H102.796L102.926 18.8955H102.98C103.258 18.4079 103.593 18.0319 103.985 17.7676C104.377 17.5033 104.808 17.3711 105.277 17.3711ZM72.6562 45L71.4121 41.8213H67.4062L66.1758 45H65L68.9512 34.9648H69.9287L73.8594 45H72.6562ZM71.0498 40.7754L69.8877 37.6787C69.7373 37.2868 69.5824 36.806 69.4229 36.2363C69.3226 36.6738 69.179 37.1546 68.9922 37.6787L67.8164 40.7754H71.0498ZM76.1289 37.5078V42.3682C76.1289 42.9788 76.2679 43.4346 76.5459 43.7354C76.8239 44.0361 77.2591 44.1865 77.8516 44.1865C78.6354 44.1865 79.2074 43.9723 79.5674 43.5439C79.932 43.1156 80.1143 42.416 80.1143 41.4453V37.5078H81.249V45H80.3125L80.1484 43.9951H80.0869C79.8545 44.3643 79.5309 44.6468 79.1162 44.8428C78.7061 45.0387 78.2367 45.1367 77.708 45.1367C76.7965 45.1367 76.113 44.9202 75.6572 44.4873C75.2061 44.0544 74.9805 43.3617 74.9805 42.4092V37.5078H76.1289ZM86.082 44.2002C86.2826 44.2002 86.4762 44.1865 86.6631 44.1592C86.8499 44.1273 86.998 44.0954 87.1074 44.0635V44.9316C86.9844 44.9909 86.8021 45.0387 86.5605 45.0752C86.3236 45.1162 86.1094 45.1367 85.918 45.1367C84.4688 45.1367 83.7441 44.3734 83.7441 42.8467V38.3896H82.6709V37.8428L83.7441 37.3711L84.2227 35.7715H84.8789V37.5078H87.0527V38.3896H84.8789V42.7988C84.8789 43.25 84.986 43.5964 85.2002 43.8379C85.4144 44.0794 85.7083 44.2002 86.082 44.2002ZM95.0781 41.2471C95.0781 42.4684 94.7705 43.4232 94.1553 44.1113C93.54 44.7949 92.6901 45.1367 91.6055 45.1367C90.9355 45.1367 90.3408 44.9795 89.8213 44.665C89.3018 44.3506 88.9007 43.8994 88.6182 43.3115C88.3356 42.7236 88.1943 42.0355 88.1943 41.2471C88.1943 40.0257 88.4997 39.0755 89.1104 38.3965C89.721 37.7129 90.5687 37.3711 91.6533 37.3711C92.7015 37.3711 93.5332 37.7197 94.1484 38.417C94.7682 39.1143 95.0781 40.0576 95.0781 41.2471ZM89.3701 41.2471C89.3701 42.2041 89.5615 42.9333 89.9443 43.4346C90.3271 43.9359 90.89 44.1865 91.6328 44.1865C92.3757 44.1865 92.9385 43.9382 93.3213 43.4414C93.7087 42.9401 93.9023 42.2087 93.9023 41.2471C93.9023 40.2946 93.7087 39.5723 93.3213 39.0801C92.9385 38.5833 92.3711 38.335 91.6191 38.335C90.8763 38.335 90.3158 38.5788 89.9375 39.0664C89.5592 39.554 89.3701 40.2809 89.3701 41.2471ZM106.624 45V40.126C106.624 39.529 106.496 39.0824 106.241 38.7861C105.986 38.4854 105.59 38.335 105.052 38.335C104.345 38.335 103.824 38.5378 103.486 38.9434C103.149 39.349 102.98 39.9733 102.98 40.8164V45H101.846V40.126C101.846 39.529 101.718 39.0824 101.463 38.7861C101.208 38.4854 100.809 38.335 100.267 38.335C99.5557 38.335 99.0339 38.5492 98.7012 38.9775C98.373 39.4014 98.209 40.0986 98.209 41.0693V45H97.0742V37.5078H97.9971L98.1816 38.5332H98.2363C98.4505 38.1686 98.7513 37.8838 99.1387 37.6787C99.5306 37.4736 99.9681 37.3711 100.451 37.3711C101.622 37.3711 102.388 37.7949 102.748 38.6426H102.803C103.026 38.2507 103.35 37.9408 103.773 37.7129C104.197 37.485 104.68 37.3711 105.223 37.3711C106.07 37.3711 106.704 37.5898 107.123 38.0273C107.547 38.4603 107.759 39.1553 107.759 40.1123V45H106.624ZM114.711 45L114.485 43.9336H114.431C114.057 44.403 113.683 44.722 113.31 44.8906C112.94 45.0547 112.478 45.1367 111.922 45.1367C111.179 45.1367 110.596 44.9453 110.172 44.5625C109.753 44.1797 109.543 43.6351 109.543 42.9287C109.543 41.4157 110.753 40.6227 113.173 40.5498L114.444 40.5088V40.0439C114.444 39.4561 114.317 39.0231 114.062 38.7451C113.811 38.4626 113.408 38.3213 112.852 38.3213C112.227 38.3213 111.521 38.5127 110.732 38.8955L110.384 38.0273C110.753 37.8268 111.156 37.6696 111.594 37.5557C112.036 37.4417 112.478 37.3848 112.92 37.3848C113.813 37.3848 114.474 37.583 114.902 37.9795C115.335 38.376 115.552 39.0117 115.552 39.8867V45H114.711ZM112.147 44.2002C112.854 44.2002 113.408 44.0065 113.809 43.6191C114.214 43.2318 114.417 42.6895 114.417 41.9922V41.3154L113.282 41.3633C112.38 41.3952 111.728 41.5365 111.327 41.7871C110.931 42.0332 110.732 42.4183 110.732 42.9424C110.732 43.3525 110.855 43.6647 111.102 43.8789C111.352 44.0931 111.701 44.2002 112.147 44.2002ZM120.316 44.2002C120.517 44.2002 120.711 44.1865 120.897 44.1592C121.084 44.1273 121.232 44.0954 121.342 44.0635V44.9316C121.219 44.9909 121.036 45.0387 120.795 45.0752C120.558 45.1162 120.344 45.1367 120.152 45.1367C118.703 45.1367 117.979 44.3734 117.979 42.8467V38.3896H116.905V37.8428L117.979 37.3711L118.457 35.7715H119.113V37.5078H121.287V38.3896H119.113V42.7988C119.113 43.25 119.22 43.5964 119.435 43.8379C119.649 44.0794 119.943 44.2002 120.316 44.2002ZM126.011 45.1367C124.903 45.1367 124.028 44.7995 123.386 44.125C122.748 43.4505 122.429 42.514 122.429 41.3154C122.429 40.1077 122.725 39.1484 123.317 38.4375C123.914 37.7266 124.714 37.3711 125.717 37.3711C126.656 37.3711 127.398 37.681 127.945 38.3008C128.492 38.916 128.766 39.7295 128.766 40.7412V41.459H123.604C123.627 42.3385 123.848 43.0062 124.268 43.4619C124.691 43.9176 125.286 44.1455 126.052 44.1455C126.858 44.1455 127.656 43.9769 128.444 43.6396V44.6514C128.043 44.8245 127.663 44.9476 127.303 45.0205C126.947 45.098 126.517 45.1367 126.011 45.1367ZM125.703 38.3213C125.102 38.3213 124.621 38.5173 124.261 38.9092C123.905 39.3011 123.696 39.8434 123.632 40.5361H127.549C127.549 39.8206 127.389 39.2738 127.07 38.8955C126.751 38.5127 126.296 38.3213 125.703 38.3213Z" fill="#3860AC"/>
<mask id="mask0_290_464" style="mask-type:alpha" maskUnits="userSpaceOnUse" x="3" y="9" width="45" height="36">
<path d="M32.0919 9.43793C32.6178 9.43793 33.1189 9.66194 33.4696 10.0539L47.529 25.7673C48.1569 26.4692 48.1569 27.5308 47.529 28.2327L33.4696 43.9461C33.1189 44.3381 32.6178 44.5621 32.0919 44.5621H5.62619C4.02824 44.5621 3.183 42.6716 4.2485 41.4808L17.205 27L4.2485 12.5192C3.183 11.3284 4.02824 9.43793 5.62619 9.43793H32.0919Z" fill="white"/>
</mask>
<g mask="url(#mask0_290_464)">
<path d="M32.9186 9.43793L17.2051 27L1.4917 9.43793H32.9186Z" fill="#2B519B"/>
<path d="M1.4917 44.5621L32.9186 9.43793L48.632 27L32.9186 44.5621H1.4917Z" fill="#4584CC"/>
<path d="M1.4917 44.5621L32.9186 9.43793L40.7753 18.219L17.2051 44.5621H1.4917Z" fill="#3860AC"/>
</g>
</svg>
