<svg width="160" height="60" viewBox="0 0 160 60" fill="none" xmlns="http://www.w3.org/2000/svg">
<path d="M72.0137 33.3408C72.0137 34.2204 71.6947 34.9062 71.0566 35.3984C70.4186 35.8906 69.5527 36.1367 68.459 36.1367C67.2741 36.1367 66.3626 35.984 65.7246 35.6787V34.5576C66.1348 34.7308 66.5814 34.8675 67.0645 34.9678C67.5475 35.068 68.026 35.1182 68.5 35.1182C69.2747 35.1182 69.8581 34.9723 70.25 34.6807C70.6419 34.3844 70.8379 33.9743 70.8379 33.4502C70.8379 33.1038 70.7673 32.8213 70.626 32.6025C70.4893 32.3792 70.2568 32.1742 69.9287 31.9873C69.6051 31.8005 69.1107 31.5885 68.4453 31.3516C67.5156 31.0189 66.8503 30.6247 66.4492 30.1689C66.0527 29.7132 65.8545 29.1185 65.8545 28.3848C65.8545 27.6146 66.1439 27.0016 66.7227 26.5459C67.3014 26.0902 68.0671 25.8623 69.0195 25.8623C70.013 25.8623 70.9268 26.0446 71.7607 26.4092L71.3984 27.4209C70.5736 27.0745 69.7715 26.9014 68.9922 26.9014C68.377 26.9014 67.8962 27.0335 67.5498 27.2979C67.2035 27.5622 67.0303 27.929 67.0303 28.3984C67.0303 28.7448 67.0941 29.0296 67.2217 29.2529C67.3493 29.4717 67.5635 29.6745 67.8643 29.8613C68.1696 30.0436 68.6344 30.2464 69.2588 30.4697C70.307 30.8434 71.027 31.2445 71.4189 31.6729C71.8154 32.1012 72.0137 32.6572 72.0137 33.3408ZM79.0137 36V31.1533C79.0137 30.5426 78.8747 30.0869 78.5967 29.7861C78.3187 29.4854 77.8835 29.335 77.291 29.335C76.5026 29.335 75.9261 29.5492 75.5615 29.9775C75.2015 30.4059 75.0215 31.1077 75.0215 32.083V36H73.8867V25.3633H75.0215V28.583C75.0215 28.9704 75.0033 29.2917 74.9668 29.5469H75.0352C75.2585 29.1868 75.5752 28.9043 75.9854 28.6992C76.4001 28.4896 76.8717 28.3848 77.4004 28.3848C78.3164 28.3848 79.0023 28.6035 79.458 29.041C79.9183 29.474 80.1484 30.1644 80.1484 31.1123V36H79.0137ZM87.0938 36L86.8682 34.9336H86.8135C86.4398 35.403 86.0661 35.722 85.6924 35.8906C85.3232 36.0547 84.8607 36.1367 84.3047 36.1367C83.5618 36.1367 82.9785 35.9453 82.5547 35.5625C82.1354 35.1797 81.9258 34.6351 81.9258 33.9287C81.9258 32.4157 83.1357 31.6227 85.5557 31.5498L86.8271 31.5088V31.0439C86.8271 30.4561 86.6995 30.0231 86.4443 29.7451C86.1937 29.4626 85.7904 29.3213 85.2344 29.3213C84.61 29.3213 83.9036 29.5127 83.1152 29.8955L82.7666 29.0273C83.1357 28.8268 83.5391 28.6696 83.9766 28.5557C84.4186 28.4417 84.8607 28.3848 85.3027 28.3848C86.196 28.3848 86.8568 28.583 87.2852 28.9795C87.7181 29.376 87.9346 30.0117 87.9346 30.8867V36H87.0938ZM84.5303 35.2002C85.2367 35.2002 85.7904 35.0065 86.1914 34.6191C86.597 34.2318 86.7998 33.6895 86.7998 32.9922V32.3154L85.665 32.3633C84.7627 32.3952 84.111 32.5365 83.71 32.7871C83.3135 33.0332 83.1152 33.4183 83.1152 33.9424C83.1152 34.3525 83.2383 34.6647 83.4844 34.8789C83.735 35.0931 84.0837 35.2002 84.5303 35.2002ZM93.6973 28.3711C94.0299 28.3711 94.3285 28.3984 94.5928 28.4531L94.4355 29.5059C94.1257 29.4375 93.8522 29.4033 93.6152 29.4033C93.0091 29.4033 92.4896 29.6494 92.0566 30.1416C91.6283 30.6338 91.4141 31.2467 91.4141 31.9805V36H90.2793V28.5078H91.2158L91.3457 29.8955H91.4004C91.6784 29.4079 92.0133 29.0319 92.4053 28.7676C92.7972 28.5033 93.2279 28.3711 93.6973 28.3711ZM99.1592 36.1367C98.0518 36.1367 97.1768 35.7995 96.5342 35.125C95.8962 34.4505 95.5771 33.514 95.5771 32.3154C95.5771 31.1077 95.8734 30.1484 96.4658 29.4375C97.0628 28.7266 97.8626 28.3711 98.8652 28.3711C99.804 28.3711 100.547 28.681 101.094 29.3008C101.641 29.916 101.914 30.7295 101.914 31.7412V32.459H96.7529C96.7757 33.3385 96.9967 34.0062 97.416 34.4619C97.8398 34.9176 98.4346 35.1455 99.2002 35.1455C100.007 35.1455 100.804 34.9769 101.593 34.6396V35.6514C101.192 35.8245 100.811 35.9476 100.451 36.0205C100.096 36.098 99.665 36.1367 99.1592 36.1367ZM98.8516 29.3213C98.25 29.3213 97.7692 29.5173 97.4092 29.9092C97.0537 30.3011 96.8441 30.8434 96.7803 31.5361H100.697C100.697 30.8206 100.538 30.2738 100.219 29.8955C99.8997 29.5127 99.444 29.3213 98.8516 29.3213ZM107.342 36.1367C106.854 36.1367 106.408 36.0479 106.002 35.8701C105.601 35.6878 105.264 35.4098 104.99 35.0361H104.908C104.963 35.4736 104.99 35.8883 104.99 36.2803V39.3633H103.855V28.5078H104.778L104.936 29.5332H104.99C105.282 29.123 105.621 28.8268 106.009 28.6445C106.396 28.4622 106.84 28.3711 107.342 28.3711C108.335 28.3711 109.101 28.7106 109.639 29.3896C110.181 30.0687 110.452 31.0212 110.452 32.2471C110.452 33.4775 110.176 34.4346 109.625 35.1182C109.078 35.7972 108.317 36.1367 107.342 36.1367ZM107.178 29.335C106.412 29.335 105.858 29.5469 105.517 29.9707C105.175 30.3945 104.999 31.069 104.99 31.9941V32.2471C104.99 33.2998 105.166 34.054 105.517 34.5098C105.868 34.9609 106.43 35.1865 107.205 35.1865C107.852 35.1865 108.358 34.9245 108.723 34.4004C109.092 33.8763 109.276 33.154 109.276 32.2334C109.276 31.2992 109.092 30.5837 108.723 30.0869C108.358 29.5856 107.843 29.335 107.178 29.335ZM118.908 32.2471C118.908 33.4684 118.601 34.4232 117.985 35.1113C117.37 35.7949 116.52 36.1367 115.436 36.1367C114.766 36.1367 114.171 35.9795 113.651 35.665C113.132 35.3506 112.731 34.8994 112.448 34.3115C112.166 33.7236 112.024 33.0355 112.024 32.2471C112.024 31.0257 112.33 30.0755 112.94 29.3965C113.551 28.7129 114.399 28.3711 115.483 28.3711C116.532 28.3711 117.363 28.7197 117.979 29.417C118.598 30.1143 118.908 31.0576 118.908 32.2471ZM113.2 32.2471C113.2 33.2041 113.392 33.9333 113.774 34.4346C114.157 34.9359 114.72 35.1865 115.463 35.1865C116.206 35.1865 116.769 34.9382 117.151 34.4414C117.539 33.9401 117.732 33.2087 117.732 32.2471C117.732 31.2946 117.539 30.5723 117.151 30.0801C116.769 29.5833 116.201 29.335 115.449 29.335C114.706 29.335 114.146 29.5788 113.768 30.0664C113.389 30.554 113.2 31.2809 113.2 32.2471ZM122.039 36H120.904V28.5078H122.039V36ZM120.809 26.4775C120.809 26.2178 120.872 26.0286 121 25.9102C121.128 25.7871 121.287 25.7256 121.479 25.7256C121.661 25.7256 121.818 25.7871 121.95 25.9102C122.082 26.0332 122.148 26.2223 122.148 26.4775C122.148 26.7327 122.082 26.9242 121.95 27.0518C121.818 27.1748 121.661 27.2363 121.479 27.2363C121.287 27.2363 121.128 27.1748 121 27.0518C120.872 26.9242 120.809 26.7327 120.809 26.4775ZM129.572 36V31.1533C129.572 30.5426 129.433 30.0869 129.155 29.7861C128.877 29.4854 128.442 29.335 127.85 29.335C127.066 29.335 126.492 29.5469 126.127 29.9707C125.762 30.3945 125.58 31.0941 125.58 32.0693V36H124.445V28.5078H125.368L125.553 29.5332H125.607C125.84 29.1641 126.166 28.8792 126.585 28.6787C127.004 28.4736 127.471 28.3711 127.986 28.3711C128.889 28.3711 129.568 28.5898 130.023 29.0273C130.479 29.4603 130.707 30.1553 130.707 31.1123V36H129.572ZM135.465 35.2002C135.665 35.2002 135.859 35.1865 136.046 35.1592C136.233 35.1273 136.381 35.0954 136.49 35.0635V35.9316C136.367 35.9909 136.185 36.0387 135.943 36.0752C135.706 36.1162 135.492 36.1367 135.301 36.1367C133.852 36.1367 133.127 35.3734 133.127 33.8467V29.3896H132.054V28.8428L133.127 28.3711L133.605 26.7715H134.262V28.5078H136.436V29.3896H134.262V33.7988C134.262 34.25 134.369 34.5964 134.583 34.8379C134.797 35.0794 135.091 35.2002 135.465 35.2002Z" fill="#3860AC"/>
<path d="M29.1063 34.4256C35.769 34.4256 41.1701 29.0244 41.1701 22.3618C41.1701 15.6991 35.769 10.2979 29.1063 10.2979C22.4436 10.2979 17.0425 15.6991 17.0425 22.3618C17.0425 29.0244 22.4436 34.4256 29.1063 34.4256Z" fill="#2B519B"/>
<path d="M40.7234 43.3618C46.399 43.3618 51 38.7608 51 33.0852C51 27.4096 46.399 22.8086 40.7234 22.8086C35.0478 22.8086 30.4468 27.4096 30.4468 33.0852C30.4468 38.7608 35.0478 43.3618 40.7234 43.3618Z" fill="#3860AC"/>
<path d="M30.4468 50.5107C34.8886 50.5107 38.4894 46.9099 38.4894 42.4681C38.4894 38.0264 34.8886 34.4256 30.4468 34.4256C26.0051 34.4256 22.4043 38.0264 22.4043 42.4681C22.4043 46.9099 26.0051 50.5107 30.4468 50.5107Z" fill="#2B519B"/>
<path d="M28.6596 41.5745H10.7872C9.79979 41.5745 9 40.7747 9 39.7873V21.9149C9 20.9275 9.79979 20.1277 10.7872 20.1277H28.6596C29.647 20.1277 30.4468 20.9275 30.4468 21.9149V39.7873C30.4468 40.7747 29.647 41.5745 28.6596 41.5745Z" fill="#4584CC"/>
<path d="M16.8276 30.6344C16.383 30.3306 16.0435 29.9687 15.8044 29.5531C15.5676 29.1376 15.4492 28.6439 15.4492 28.0742C15.4492 27.3146 15.6704 26.6757 16.1105 26.1596C16.5528 25.6436 17.1382 25.2593 17.8709 25.0113C18.6037 24.7634 19.4057 24.6382 20.277 24.6382C21.6129 24.6382 22.6696 24.7857 23.4448 25.0828V27.3213C23.0316 27.0644 22.5535 26.8678 22.0106 26.7338C21.4677 26.5997 20.9092 26.5327 20.3351 26.5327C19.6425 26.5327 19.0684 26.6533 18.6126 26.8969C18.1569 27.1404 17.929 27.4844 17.929 27.9312C17.929 28.2105 18.0251 28.454 18.2172 28.664C18.4093 28.874 18.6707 29.0594 18.9969 29.2203C19.323 29.3833 19.8123 29.5978 20.4602 29.8659C20.5719 29.9061 20.6411 29.9329 20.6702 29.9508C21.4364 30.2636 22.0508 30.5674 22.5133 30.86C22.9779 31.1527 23.3399 31.5191 23.6035 31.957C23.8671 32.3948 23.9967 32.9466 23.9967 33.6124C23.9967 34.4278 23.7889 35.0936 23.3756 35.6074C22.9623 36.1212 22.4083 36.4921 21.7157 36.7222C21.0232 36.9523 20.2345 37.0662 19.3521 37.0662C18.597 37.0662 17.8843 37.0081 17.2096 36.8897C16.5372 36.7713 15.9563 36.6038 15.4693 36.3871V34.0235C15.9452 34.3764 16.5305 34.6557 17.2297 34.8612C17.929 35.069 18.5746 35.1717 19.1667 35.1717C19.9441 35.1717 20.5294 35.0466 20.9226 34.7987C21.3158 34.5507 21.5146 34.1999 21.5146 33.7464C21.5146 33.4381 21.4052 33.17 21.184 32.9422C20.9628 32.7121 20.659 32.4998 20.2703 32.3055C19.8816 32.1089 19.3074 31.852 18.5478 31.5347C17.8463 31.2398 17.2722 30.9382 16.8276 30.6344Z" fill="#E3EFFF"/>
</svg>
