<svg width="2714" height="766" viewBox="0 0 2714 766" fill="none" xmlns="http://www.w3.org/2000/svg">
<path d="M2712.33 765C2712.97 754.322 2713.18 742.909 2712.84 731.089M2712.84 731.089C2709.49 616.035 2654.19 462.327 2445.76 571.094C2260.23 667.912 2170.54 507.556 2052.92 424.464M2712.84 731.089C2712.8 732.302 2712.76 733.507 2712.72 734.702M2712.84 731.089C2715.94 616.941 2665.8 424.562 2438.95 541.415C2265.51 630.758 2171.26 504.959 2060.46 422.556M2052.92 424.464C2048.2 421.135 2043.45 417.93 2038.64 414.871M2052.92 424.464C2055.43 423.835 2057.94 423.199 2060.46 422.556M2052.92 424.464C1950.98 449.947 1846.44 463.586 1744.48 450.882M2038.64 414.871C2032.62 411.045 2026.52 407.447 2020.33 404.118M2038.64 414.871C2041.53 414.279 2044.42 413.676 2047.32 413.061M2038.64 414.871C1953.13 432.35 1866.48 439.935 1781.14 430.652M2020.33 404.118C2011.5 399.376 2002.47 395.181 1993.2 391.655M2020.33 404.118C2024.02 403.566 2027.71 402.994 2031.41 402.4M2020.33 404.118C1952.76 414.211 1884.85 417.236 1817.53 410.584M1993.2 391.655C1954.37 376.882 1911.25 373.847 1860.53 391.49M1993.2 391.655C1999.03 391.198 2004.86 390.682 2010.69 390.109M1993.2 391.655C1948.93 395.129 1904.65 395.233 1860.53 391.49M1860.53 391.49C1846.77 396.275 1832.46 402.58 1817.53 410.584M1860.53 391.49C1841.71 389.894 1822.93 387.598 1804.18 384.565M1817.53 410.584C1816.25 411.267 1814.97 411.963 1813.69 412.671C1802.75 418.702 1791.9 424.701 1781.14 430.652M1817.53 410.584C1800.06 408.859 1782.63 406.482 1765.25 403.408M1781.14 430.652C1768.81 437.468 1756.6 444.22 1744.48 450.882M1781.14 430.652C1762.88 428.665 1744.67 425.905 1726.55 422.304M1744.48 450.882C1489.34 591.194 1279.56 691.457 1035.3 505.126C908.215 408.181 761.523 304.276 614.477 232.769M1744.48 450.882C1725.54 448.522 1706.69 445.252 1687.96 440.98M614.477 232.769C611.549 231.346 608.622 229.935 605.694 228.537M614.477 232.769C617.337 230.571 620.193 228.364 623.045 226.149M614.477 232.769C434.398 371.173 236.26 476.06 1 346.203M605.694 228.537C601.732 226.646 597.77 224.778 593.808 222.936M605.694 228.537C608.736 226.499 611.773 224.451 614.805 222.393M605.694 228.537C428.549 347.229 233.908 431.897 8.42236 315.63M593.808 222.936C588.525 220.479 583.242 218.065 577.961 215.698M593.808 222.936C597.045 221.082 600.276 219.217 603.501 217.34M593.808 222.936C420.472 322.215 230.618 387.87 15.845 285.069M577.961 215.698C570.923 212.544 563.887 209.471 556.857 206.485M577.961 215.698C581.409 214.054 584.85 212.397 588.285 210.727M577.961 215.698C409.599 295.977 226.133 343.991 23.2681 254.523M556.857 206.485C547.347 202.444 537.846 198.562 528.359 194.847M556.857 206.485C560.544 205.076 564.224 203.651 567.897 202.212M556.857 206.485C395.075 268.313 220.054 300.261 30.6907 224M528.359 194.847C514.976 189.607 501.622 184.702 488.31 180.162M528.359 194.847C532.343 193.698 536.32 192.53 540.29 191.345M528.359 194.847C375.495 238.958 211.716 256.656 38.113 193.511M488.31 180.162C467.159 172.948 446.118 166.655 425.244 161.403M488.31 180.162C492.762 179.294 497.207 178.404 501.642 177.493M488.31 180.162C348.116 207.495 199.79 213.06 45.5354 163.076M425.244 161.403C338.438 139.564 254.537 135.737 177.779 158.587M425.244 161.403C430.981 160.849 436.708 160.26 442.423 159.636M425.244 161.403C344.734 169.174 262.033 169.896 177.779 158.587M177.779 158.587C170.522 160.747 163.329 163.146 156.204 165.791M177.779 158.587C169.047 157.415 160.299 156.114 151.534 154.678M2712.33 527.115C2710.3 523.18 2708.09 519.115 2705.7 514.945M2705.7 514.945C2701.72 507.996 2697.25 500.754 2692.29 493.329M2705.7 514.945C2709.09 529.311 2711.41 543.169 2712.78 555.897M2705.7 514.945C2703.99 507.695 2702 500.315 2699.72 492.885M2692.29 493.329C2662.86 449.198 2616.48 398.58 2555.78 364.409M2692.29 493.329C2704.18 524.907 2710.56 557.376 2712.81 584.697M2692.29 493.329C2687.51 480.611 2681.83 468.038 2675.17 456.003M2555.78 364.409C2535.5 352.993 2513.62 343.413 2490.24 336.523M2555.78 364.409C2572.44 367.263 2587.53 372.528 2601.15 379.684M2555.78 364.409C2514.95 357.418 2464.63 364.896 2403.08 394.504C2296.46 445.787 2210.85 434.506 2130.58 402.814M2490.24 336.523C2469.49 330.409 2447.56 326.414 2424.52 325.135M2490.24 336.523C2502.49 334.868 2514.14 334.284 2525.2 334.657M2490.24 336.523C2462.07 340.33 2430.7 349.801 2395.85 366.322C2307.48 408.214 2232.29 409.784 2162.12 392.895M2424.52 325.135C2384.49 322.915 2341.09 328.893 2294.7 346.203C2266.28 356.806 2237.25 367.409 2207.73 377.614M2424.52 325.135C2435.63 321.212 2446.36 318.05 2456.71 315.596M2424.52 325.135C2412.97 329.212 2401.01 334.112 2388.63 339.896C2322.73 370.678 2263.44 380.528 2207.73 377.614M2207.73 377.614C2192.64 382.829 2177.43 387.941 2162.12 392.895M2207.73 377.614C2200.37 377.229 2193.08 376.622 2185.84 375.811M2162.12 392.895C2151.65 396.28 2141.14 399.592 2130.58 402.814M2162.12 392.895C2156.32 391.501 2150.56 389.98 2144.83 388.346M2130.58 402.814C2123.01 405.123 2115.42 407.386 2107.81 409.596M2130.58 402.814C2125.52 400.817 2120.48 398.739 2115.46 396.59M2107.81 409.596C2102.23 411.218 2096.63 412.812 2091.03 414.376M2107.81 409.596C2195.74 455.439 2288 483.13 2410.3 423.459C2637.21 312.751 2706.54 504.539 2712.84 614.271M2107.81 409.596C2103.18 407.18 2098.56 404.714 2093.95 402.207M2091.03 414.376C2086.82 415.548 2082.61 416.704 2078.39 417.841M2091.03 414.376C2185.18 472.927 2281.23 520.184 2417.53 452.748C2645.02 340.193 2709.21 533.471 2712.87 644.179M2091.03 414.376C2086.65 411.655 2082.28 408.91 2077.91 406.15M2078.39 417.841C2075.13 418.721 2071.86 419.59 2068.59 420.448M2078.39 417.841C2178.07 487.11 2275.54 557.054 2424.75 482.213C2652.84 367.811 2711.89 562.579 2712.9 674.263M2078.39 417.841C2074.15 414.894 2069.91 411.949 2065.66 409.016M2068.59 420.448C2065.88 421.158 2063.17 421.861 2060.46 422.556M2068.59 420.448C2173.64 497.899 2270.47 593.866 2431.94 511.781C2660.61 395.532 2714.53 591.79 2712.9 704.449M2068.59 420.448C2064.37 417.334 2060.13 414.251 2055.88 411.21M2060.46 422.556C2056.1 419.319 2051.73 416.149 2047.32 413.061M1687.96 440.98C1669.43 436.754 1651.01 431.546 1632.75 425.268M1687.96 440.98C1700.71 434.864 1713.57 428.629 1726.55 422.304M1687.96 440.98C1451.95 554.203 1254.57 626.557 1024.49 465.999C902.827 381.099 763.617 290.746 623.045 226.149M1632.75 425.268C1614.94 419.142 1597.26 411.997 1579.77 403.748M1632.75 425.268C1645.84 419.937 1659.05 414.465 1672.39 408.884M1632.75 425.268C1415.02 513.932 1229.63 563.527 1013.47 426.917C897.532 353.645 766.051 276.284 632.396 218.848M1579.77 403.748C1562.94 395.815 1546.27 386.863 1529.8 376.815M1579.77 403.748C1592.86 399.373 1606.07 394.848 1619.41 390.203M1579.77 403.748C1379.08 470.798 1205.08 502.537 1002.28 387.901C892.401 325.794 768.935 260.811 642.683 210.73M1529.8 376.815C1514.15 367.272 1498.66 356.742 1483.38 345.16M1529.8 376.815C1542.55 373.47 1555.41 369.982 1568.38 366.377M1529.8 376.815C1344.64 425.376 1181.3 443.666 991.045 348.989C887.608 297.514 772.458 244.215 654.116 201.614M1483.38 345.16C1469.03 334.291 1454.85 322.497 1440.86 309.725M1483.38 345.16C1495.47 342.818 1507.66 340.353 1519.95 337.788M1483.38 345.16C1312.09 378.323 1158.53 386.942 979.814 310.252C883.242 268.81 776.76 226.427 666.879 191.333M1440.86 309.725C1438.16 307.261 1435.47 304.761 1432.79 302.224C1421.93 291.965 1411.28 281.857 1400.82 271.92M1440.86 309.725C1452.05 308.275 1463.3 306.733 1474.64 305.115M1440.86 309.725C1281.7 330.357 1136.94 332.406 968.584 271.849C879.363 239.758 781.948 207.431 681.123 179.75M1400.82 271.92C1386.97 258.753 1373.45 245.885 1360.23 233.359M1400.82 271.92C1411.33 271.177 1421.9 270.371 1432.54 269.511M1400.82 271.92C1252.67 282.387 1116.08 280.14 957.353 234.219C875.976 210.677 788.009 187.425 696.804 166.892M1360.23 233.359C1345.45 219.356 1331.05 205.781 1316.98 192.692M1360.23 233.359C1370.2 233.193 1380.22 232.989 1390.29 232.755M1360.23 233.359C1223.13 235.642 1094.87 230.769 946.122 198.346C872.941 182.395 794.619 167.084 713.383 153.212M1316.98 192.692C1300.75 177.593 1284.96 163.142 1269.53 149.431M1316.98 192.692C1326.22 192.976 1335.49 193.248 1344.81 193.513M1316.98 192.692C1191.72 188.847 1072.54 182.877 934.891 162.829C871.078 153.535 803.502 145.043 733.497 137.216M1269.53 149.431C1251.05 133.017 1233.1 117.663 1215.54 103.526M1269.53 149.431C1277.74 149.987 1285.97 150.555 1294.23 151.136M1269.53 149.431C1157.32 141.832 1048.48 136.339 923.661 127.312C871.735 123.557 817.419 120.547 761.348 117.835M1215.54 103.526C1199.48 90.5935 1183.74 78.6799 1168.24 67.9058M1215.54 103.526C1222.24 104.114 1228.93 104.726 1235.64 105.362M1215.54 103.526C1118.24 94.9848 1021.77 91.5747 912.43 91.7958C878.059 91.8654 842.686 92.3582 806.47 93.0314M1168.24 67.9058C1164.76 65.4899 1161.3 63.1313 1157.84 60.8313M1168.24 67.9058C1173.22 68.3548 1178.21 68.8286 1183.19 69.3272M1168.24 67.9058C1083.12 60.2433 997.383 59.8315 901.199 67.277C897.616 67.5544 894.021 67.8375 890.417 68.1259M1157.84 60.8313C1154.56 58.6506 1151.3 56.5227 1148.04 54.4487M1157.84 60.8313C1162.58 61.3433 1167.31 61.8888 1172.05 62.4676M1157.84 60.8313C1072.74 51.6343 987.105 53.2849 890.417 68.1259M1148.04 54.4487C1144.82 52.3986 1141.61 50.4012 1138.41 48.4575M1148.04 54.4487C1152.56 55.0357 1157.08 55.6638 1161.61 56.3325M1148.04 54.4487C1063.54 43.4793 978.627 46.881 882.291 68.7833M1138.41 48.4575C1135.2 46.51 1131.99 44.6164 1128.8 42.778M1138.41 48.4575C1142.73 49.1291 1147.05 49.8482 1151.38 50.6142M1138.41 48.4575C1054.03 35.3545 969.414 40.3643 872.81 69.568M1128.8 42.778C1125.57 40.9258 1122.36 39.1295 1119.15 37.3903M1128.8 42.778C1132.93 43.5422 1137.07 44.3593 1141.21 45.2285M1128.8 42.778C1044.34 27.1832 959.829 33.6563 862.66 70.4268M1119.15 37.3903C1115.91 35.634 1112.68 33.9359 1109.45 32.2972M1119.15 37.3903C1123.11 38.2538 1127.08 39.1748 1131.04 40.1521M1119.15 37.3903C1034.51 18.9392 950.026 26.722 852.135 71.3358M1109.45 32.2972C1106.19 30.6408 1102.93 29.045 1099.67 27.5112M1109.45 32.2972C1113.24 33.2656 1117.03 34.2951 1120.83 35.3845M1109.45 32.2972C1024.57 10.615 940.084 19.5427 841.383 72.2813M1099.67 27.5112C1096.38 25.9601 1093.09 24.4724 1089.81 23.0492M1099.67 27.5112C1103.3 28.5891 1106.93 29.7308 1110.56 30.9352M1099.67 27.5112C1014.52 2.21123 930.044 12.1063 830.482 73.2549M1089.81 23.0492C1000.64 -15.5794 913.689 -6.61633 808.414 75.2619M1089.81 23.0492C1096.71 25.4198 1103.63 28.0518 1110.56 30.9352M1089.81 23.0492C1004.37 -6.26647 919.933 4.40545 819.482 74.2501M808.414 75.2619C805.663 77.4017 802.899 79.5914 800.122 81.8313C799.624 82.2332 799.126 82.6354 798.628 83.0379M808.414 75.2619C812.112 74.9223 815.802 74.5849 819.482 74.2501M808.414 75.2619C721.942 83.2021 630.622 92.3311 536.314 97.6257M798.628 83.0379C795.24 85.7741 791.848 88.5251 788.451 91.2893M798.628 83.0379C802.335 82.4168 806.034 81.7979 809.724 81.1817M798.628 83.0379C775.818 86.8592 752.678 90.7637 729.237 94.627M788.451 91.2893C787.574 92.0025 786.697 92.7165 785.82 93.4314M788.451 91.2893C792.144 90.3856 795.829 89.4841 799.505 88.5855M788.451 91.2893C785.354 92.047 782.251 92.8062 779.143 93.5666M785.82 93.4314C783.25 95.5266 780.677 97.6291 778.101 99.7383M785.82 93.4314C788.234 93.383 790.645 93.3351 793.052 93.2879M785.82 93.4314C783.598 93.476 781.372 93.5211 779.143 93.5666M778.101 99.7383C774.636 102.576 771.166 105.425 767.69 108.285M778.101 99.7383C781.771 98.552 785.433 97.3678 789.086 96.1866M778.101 99.7383C761.177 105.209 744.082 110.726 726.82 116.209M767.69 108.285C764.22 111.141 760.745 114.007 757.264 116.882M767.69 108.285C771.331 106.817 774.964 105.35 778.59 103.887M767.69 108.285C760.426 111.215 753.131 114.154 745.805 117.093M757.264 116.882C756.975 117.12 756.686 117.358 756.398 117.597M757.264 116.882C760.872 115.132 764.474 113.384 768.067 111.639M757.264 116.882C756.79 117.111 756.317 117.341 755.843 117.57M756.398 117.597C753.217 120.225 750.031 122.859 746.842 125.5M756.398 117.597C757.526 117.651 758.655 117.705 759.782 117.76M756.398 117.597C756.213 117.588 756.028 117.579 755.843 117.57M746.842 125.5C743.379 128.366 739.911 131.239 736.437 134.118M746.842 125.5C750.415 123.47 753.981 121.442 757.541 119.417M746.842 125.5C740.375 129.174 733.885 132.854 727.372 136.534M736.437 134.118C735.223 135.124 734.008 136.131 732.793 137.138M736.437 134.118C739.974 131.809 743.504 129.502 747.027 127.199M736.437 134.118C734.944 135.093 733.449 136.068 731.953 137.044M732.793 137.138C730.549 138.997 728.303 140.858 726.055 142.721M732.793 137.138C733.027 137.164 733.262 137.19 733.497 137.216M732.793 137.138C732.513 137.107 732.233 137.075 731.953 137.044M726.055 142.721C721.839 146.214 717.615 149.712 713.383 153.212M726.055 142.721C728.539 140.885 731.019 139.05 733.497 137.216M726.055 142.721C721.424 146.145 716.783 149.571 712.13 152.998M713.383 153.212C707.871 157.77 702.345 162.333 696.804 166.892M713.383 153.212C712.965 153.141 712.548 153.07 712.13 152.998M696.804 166.892C691.59 171.182 686.364 175.47 681.123 179.75M696.804 166.892C695.884 166.685 694.964 166.479 694.044 166.272M681.123 179.75C676.387 183.618 671.639 187.481 666.879 191.333M681.123 179.75C679.765 179.377 678.405 179.005 677.046 178.633M666.879 191.333C662.634 194.769 658.38 198.197 654.116 201.614M666.879 191.333C665.148 190.78 663.417 190.229 661.684 189.68M654.116 201.614C650.312 204.662 646.502 207.701 642.683 210.73M654.116 201.614C652.071 200.878 650.024 200.145 647.977 199.415M642.683 210.73C639.26 213.445 635.831 216.151 632.396 218.848M642.683 210.73C640.37 209.813 638.056 208.901 635.742 207.993M632.396 218.848C629.284 221.29 626.167 223.724 623.045 226.149M632.396 218.848C629.853 217.755 627.308 216.669 624.764 215.59M623.045 226.149C620.299 224.887 617.552 223.635 614.805 222.393M2047.32 413.061C2042.06 409.381 2036.76 405.819 2031.41 402.4M2047.32 413.061C2050.17 412.455 2053.03 411.838 2055.88 411.21M2031.41 402.4C2024.6 398.052 2017.7 393.937 2010.69 390.109M2031.41 402.4C2034.6 401.886 2037.79 401.357 2040.99 400.813M2010.69 390.109C2000.26 384.413 1989.6 379.353 1978.63 375.11M2010.69 390.109C2014.69 389.716 2018.68 389.296 2022.68 388.85M1978.63 375.11C1941.12 360.606 1900.04 355.641 1852.72 367.402M1978.63 375.11C1985.13 375.003 1991.63 374.82 1998.14 374.561M1978.63 375.11C1936.56 375.801 1894.58 373.286 1852.72 367.402M1852.72 367.402C1837.24 371.25 1821.09 376.887 1804.18 384.565M1852.72 367.402C1833.75 364.737 1814.81 361.38 1795.91 357.316M1804.18 384.565C1801.45 385.804 1798.7 387.096 1795.94 388.442C1785.63 393.456 1775.4 398.449 1765.25 403.408M1804.18 384.565C1787.29 381.832 1770.43 378.501 1753.61 374.544M1765.25 403.408C1752.23 409.774 1739.33 416.082 1726.55 422.304M1765.25 403.408C1747.67 400.298 1730.15 396.474 1712.7 391.89M1726.55 422.304C1708.41 418.698 1690.34 414.247 1672.39 408.884M614.805 222.393C611.037 220.69 607.269 219.005 603.501 217.34M614.805 222.393C618.131 220.136 621.45 217.868 624.764 215.59M603.501 217.34C598.429 215.1 593.357 212.895 588.285 210.727M603.501 217.34C607.043 215.279 610.578 213.206 614.107 211.12M588.285 210.727C581.489 207.821 574.692 204.982 567.897 202.212M588.285 210.727C592.06 208.891 595.827 207.041 599.587 205.176M567.897 202.212C558.69 198.459 549.486 194.834 540.29 191.345M567.897 202.212C571.927 200.633 575.95 199.036 579.964 197.423M540.29 191.345C527.388 186.451 514.501 181.826 501.642 177.493M540.29 191.345C544.622 190.052 548.945 188.739 553.26 187.407M501.642 177.493C481.821 170.815 462.066 164.833 442.423 159.636M501.642 177.493C506.403 176.516 511.153 175.514 515.894 174.49M442.423 159.636C340.279 132.612 241.164 126.809 151.534 154.678M442.423 159.636C448.165 159.01 453.896 158.349 459.616 157.655M151.534 154.678C150.756 154.92 149.979 155.165 149.202 155.412M151.534 154.678C118.885 149.329 86.0142 142.11 52.958 132.735M2055.88 411.21C2050.94 407.68 2045.98 404.208 2040.99 400.813M2055.88 411.21C2059.14 410.492 2062.4 409.761 2065.66 409.016M2040.99 400.813C2034.94 396.7 2028.84 392.7 2022.68 388.85M2040.99 400.813C2044.35 400.24 2047.71 399.65 2051.07 399.043M2022.68 388.85C2014.61 383.804 2006.44 379.014 1998.14 374.561M2022.68 388.85C2026.37 388.438 2030.05 388.004 2033.74 387.547M1998.14 374.561C1984.46 367.227 1970.43 360.807 1955.91 355.655M1998.14 374.561C2002.73 374.377 2007.33 374.156 2011.93 373.897M1955.91 355.655C1924.96 344.676 1891.78 339.463 1855.1 343.472M1955.91 355.655C1964.31 356.151 1972.71 356.516 1981.12 356.75M1955.91 355.655C1922.24 353.668 1888.65 349.587 1855.1 343.472M1855.1 343.472C1836.34 345.522 1816.67 349.983 1795.91 357.316M1855.1 343.472C1834.74 339.76 1814.39 335.298 1794.05 330.101M1795.91 357.316C1790.02 359.396 1784.05 361.706 1777.98 364.257C1769.8 367.697 1761.68 371.129 1753.61 374.544M1795.91 357.316C1779.32 353.752 1762.76 349.644 1746.22 344.982M1753.61 374.544C1739.83 380.382 1726.19 386.174 1712.7 391.89M1753.61 374.544C1736.59 370.539 1719.61 365.893 1702.69 360.578M1712.7 391.89C1699.12 397.642 1685.69 403.317 1672.39 408.884M1712.7 391.89C1695.18 387.289 1677.74 381.921 1660.39 375.74M1672.39 408.884C1654.61 403.574 1636.94 397.369 1619.41 390.203M624.764 215.59C621.213 214.086 617.66 212.595 614.107 211.12M624.764 215.59C628.43 213.07 632.09 210.537 635.742 207.993M614.107 211.12C609.269 209.111 604.429 207.129 599.587 205.176M614.107 211.12C618.02 208.807 621.925 206.479 625.821 204.138M599.587 205.176C593.048 202.539 586.507 199.953 579.964 197.423M599.587 205.176C603.763 203.105 607.929 201.017 612.086 198.913M579.964 197.423C571.063 193.98 562.16 190.639 553.26 187.407M579.964 197.423C584.423 195.631 588.872 193.819 593.311 191.988M553.26 187.407C540.797 182.882 528.338 178.57 515.894 174.49M553.26 187.407C558.038 185.932 562.805 184.434 567.561 182.913M515.894 174.49C497.089 168.325 478.317 162.691 459.616 157.655M515.894 174.49C521.083 173.369 526.261 172.221 531.427 171.047M459.616 157.655C419.187 146.768 379.088 138.675 339.695 134.05M459.616 157.655C465.596 156.93 471.563 156.17 477.517 155.376M339.695 134.05C305.274 130.009 271.391 128.616 238.298 130.32M339.695 134.05C352.206 134.045 364.68 133.877 377.114 133.56M339.695 134.05C306.143 134.065 272.324 132.912 238.298 130.32M238.298 130.32C205.331 132.017 173.148 136.788 141.994 145.078M238.298 130.32C222.805 129.139 207.269 127.66 191.695 125.857M2065.66 409.016C2060.81 405.67 2055.95 402.341 2051.07 399.043M2065.66 409.016C2069.74 408.082 2073.83 407.126 2077.91 406.15M2051.07 399.043C2045.32 395.157 2039.54 391.316 2033.74 387.547M2051.07 399.043C2055.09 398.317 2059.12 397.566 2063.14 396.792M2033.74 387.547C2026.52 382.867 2019.26 378.3 2011.93 373.897M2033.74 387.547C2037.83 387.04 2041.92 386.506 2046.01 385.944M2011.93 373.897C2001.81 367.823 1991.56 362.062 1981.12 356.75M2011.93 373.897C2016.36 373.647 2020.8 373.362 2025.24 373.042M1981.12 356.75C1926.32 328.865 1866.42 313.378 1794.05 330.101M1981.12 356.75C1986.79 356.908 1992.46 357.006 1998.13 357.044M1794.05 330.101C1782.95 332.665 1771.56 335.988 1759.85 340.139C1755.29 341.755 1750.75 343.37 1746.22 344.982M1794.05 330.101C1777.16 325.784 1760.27 320.96 1743.39 315.636M1746.22 344.982C1731.53 350.218 1717.03 355.428 1702.69 360.578M1746.22 344.982C1729.62 340.303 1713.05 335.065 1696.51 329.259M1702.69 360.578C1688.43 365.702 1674.33 370.767 1660.39 375.74M1702.69 360.578C1685.63 355.218 1668.61 349.178 1651.67 342.43M1660.39 375.74C1646.58 380.663 1632.93 385.494 1619.41 390.203M1660.39 375.74C1643.15 369.601 1626.01 362.66 1608.97 354.869M1619.41 390.203C1602.27 383.2 1585.25 375.279 1568.38 366.377M635.742 207.993C632.437 206.698 629.129 205.412 625.821 204.138M635.742 207.993C639.829 205.146 643.908 202.286 647.977 199.415M625.821 204.138C621.245 202.376 616.667 200.634 612.086 198.913M625.821 204.138C630.195 201.51 634.559 198.866 638.913 196.207M612.086 198.913C605.832 196.564 599.573 194.255 593.311 191.988M612.086 198.913C616.766 196.545 621.434 194.156 626.091 191.751M593.311 191.988C584.733 188.883 576.149 185.856 567.561 182.913M593.311 191.988C598.317 189.924 603.31 187.836 608.291 185.726M567.561 182.913C555.519 178.787 543.471 174.827 531.427 171.047M567.561 182.913C572.922 181.2 578.27 179.459 583.603 177.694M531.427 171.047C513.439 165.403 495.459 160.162 477.517 155.376M531.427 171.047C537.208 169.734 542.974 168.389 548.726 167.014M477.517 155.376C443.847 146.393 410.312 139.01 377.114 133.56M477.517 155.376C483.973 154.515 490.414 153.614 496.839 152.677M377.114 133.56C313.596 123.133 251.316 119.785 191.695 125.857M377.114 133.56C386.756 133.315 396.374 132.98 405.966 132.563M191.695 125.857C172.37 127.825 153.324 130.783 134.606 134.81M191.695 125.857C179.121 124.401 166.523 122.734 153.903 120.842M2077.91 406.15C2072.99 403.044 2068.07 399.919 2063.14 396.792M2077.91 406.15C2083.26 404.87 2088.61 403.555 2093.95 402.207M2063.14 396.792C2057.44 393.172 2051.73 389.549 2046.01 385.944M2063.14 396.792C2068.29 395.801 2073.44 394.772 2078.58 393.707M2046.01 385.944C2039.11 381.602 2032.2 377.288 2025.24 373.042M2046.01 385.944C2051.03 385.254 2056.06 384.523 2061.08 383.751M2025.24 373.042C2016.28 367.568 2007.25 362.207 1998.13 357.044M2025.24 373.042C2030.3 372.677 2035.36 372.267 2040.42 371.812M1998.13 357.044C1984.27 349.196 1970.18 341.805 1955.77 335.175M1998.13 357.044C2003.63 357.082 2009.13 357.062 2014.63 356.987M1955.77 335.175C1909.31 313.802 1859.43 300.332 1802.38 304.878M1955.77 335.175C1963.45 336.009 1971.13 336.735 1978.81 337.351M1955.77 335.175C1904.56 329.612 1853.54 319.249 1802.38 304.878M1802.38 304.878C1783.54 306.379 1763.93 309.843 1743.39 315.636M1802.38 304.878C1784.04 299.725 1765.68 294.057 1747.29 287.91M1743.39 315.636C1742.82 315.797 1742.25 315.96 1741.68 316.124C1726.41 320.515 1711.36 324.905 1696.51 329.259M1743.39 315.636C1727.05 310.481 1710.71 304.858 1694.37 298.773M1696.51 329.259C1681.36 333.697 1666.43 338.099 1651.67 342.43M1696.51 329.259C1679.66 323.346 1662.84 316.842 1646.05 309.738M1651.67 342.43C1637.27 346.655 1623.04 350.812 1608.97 354.869M1651.67 342.43C1634.71 335.675 1617.81 328.211 1600.99 320.007M1608.97 354.869C1595.3 358.809 1581.78 362.655 1568.38 366.377M1608.97 354.869C1592.22 347.212 1575.57 338.733 1559.04 329.39M1568.38 366.377C1552.09 357.78 1535.94 348.269 1519.95 337.788M647.977 199.415C644.958 198.338 641.936 197.269 638.913 196.207M647.977 199.415C652.557 196.183 657.126 192.937 661.684 189.68M638.913 196.207C634.642 194.707 630.368 193.221 626.091 191.751M638.913 196.207C643.832 193.203 648.738 190.18 653.632 187.143M626.091 191.751C620.163 189.713 614.229 187.704 608.291 185.726M626.091 191.751C631.373 189.022 636.64 186.27 641.892 183.499M608.291 185.726C600.07 182.989 591.84 180.31 583.603 177.694M608.291 185.726C613.959 183.326 619.61 180.898 625.245 178.446M583.603 177.694C571.989 174.005 560.361 170.441 548.726 167.014M583.603 177.694C589.683 175.68 595.746 173.635 601.79 171.561M548.726 167.014C531.436 161.921 514.132 157.13 496.839 152.677M548.726 167.014C555.262 165.452 561.78 163.852 568.278 162.218M496.839 152.677C466.466 144.857 436.128 138.084 405.966 132.563M496.839 152.677C503.991 151.634 511.124 150.546 518.236 149.416M405.966 132.563C319.396 116.718 234.273 111.19 153.903 120.842M405.966 132.563C415.088 132.167 424.187 131.695 433.261 131.155M153.903 120.842C144.936 121.918 136.028 123.184 127.184 124.646M153.903 120.842C122.844 116.185 91.6548 110.165 60.3811 102.583M2093.95 402.207C2088.82 399.419 2083.69 396.581 2078.58 393.707M2093.95 402.207C2101.13 400.393 2108.3 398.519 2115.46 396.59M2078.58 393.707C2072.74 390.428 2066.91 387.103 2061.08 383.751M2078.58 393.707C2085.39 392.295 2092.2 390.818 2099 389.279M2061.08 383.751C2054.2 379.796 2047.32 375.805 2040.42 371.812M2061.08 383.751C2067.59 382.752 2074.09 381.685 2080.6 380.552M2040.42 371.812C2031.85 366.852 2023.27 361.888 2014.63 356.987M2040.42 371.812C2046.72 371.246 2053.02 370.609 2059.32 369.903M2014.63 356.987C2002.8 350.269 1990.88 343.668 1978.81 337.351M2014.63 356.987C2020.94 356.9 2027.25 356.739 2033.56 356.503M1978.81 337.351C1954.18 324.454 1928.93 312.74 1902.53 303.635M1978.81 337.351C1985.83 337.913 1992.85 338.382 1999.88 338.758M1902.53 303.635C1882.46 296.716 1861.73 291.304 1840.11 288.024M1902.53 303.635C1917.32 306.876 1932.11 309.769 1946.92 312.282M1902.53 303.635C1881.74 299.083 1860.94 293.846 1840.11 288.024M1840.11 288.024C1810.98 283.607 1780.23 283.06 1747.29 287.91M1840.11 288.024C1815.09 281.035 1790.02 273.202 1764.82 264.693M1747.29 287.91C1739.49 289.059 1731.56 290.51 1723.51 292.285C1713.7 294.444 1703.99 296.61 1694.37 298.773M1747.29 287.91C1730.61 282.335 1713.9 276.366 1697.16 270.031M1694.37 298.773C1678.02 302.447 1661.92 306.114 1646.05 309.738M1694.37 298.773C1677.49 292.489 1660.62 285.714 1643.74 278.453M1646.05 309.738C1630.83 313.213 1615.82 316.647 1600.99 320.007M1646.05 309.738C1629.07 302.551 1612.12 294.749 1595.2 286.321M1600.99 320.007C1586.85 323.211 1572.87 326.349 1559.04 329.39M1600.99 320.007C1584.33 311.881 1567.74 303.03 1551.23 293.426M1559.04 329.39C1545.89 332.284 1532.86 335.092 1519.95 337.788M1559.04 329.39C1543 320.32 1527.06 310.434 1511.24 299.692M1519.95 337.788C1504.7 327.795 1489.59 316.92 1474.64 305.115M661.684 189.68C659.002 188.83 656.318 187.984 653.632 187.143M661.684 189.68C666.818 186.011 671.939 182.327 677.046 178.633M653.632 187.143C649.722 185.919 645.809 184.704 641.892 183.499M653.632 187.143C659.172 183.704 664.695 180.246 670.203 176.774M641.892 183.499C636.35 181.795 630.801 180.11 625.245 178.446M641.892 183.499C647.869 180.346 653.827 177.168 659.765 173.971M625.245 178.446C617.439 176.109 609.62 173.812 601.79 171.561M625.245 178.446C631.689 175.643 638.111 172.808 644.511 169.948M601.79 171.561C590.638 168.354 579.466 165.236 568.278 162.218M601.79 171.561C608.727 169.18 615.64 166.761 622.53 164.31M568.278 162.218C551.623 157.723 534.935 153.447 518.236 149.416M568.278 162.218C575.737 160.341 583.17 158.42 590.578 156.459M518.236 149.416C489.907 142.578 461.547 136.446 433.261 131.155M518.236 149.416C526.295 148.136 534.328 146.802 542.335 145.419M433.261 131.155C325.734 111.041 219.286 103.078 119.761 114.656M433.261 131.155C442.632 130.597 451.976 129.965 461.293 129.266M2675.17 456.003C2657.74 424.529 2633.6 396.738 2601.15 379.684M2675.17 456.003C2684.58 468.605 2692.78 481.056 2699.72 492.885M2675.17 456.003C2655.6 429.805 2630.81 402.956 2601.15 379.684M2601.15 379.684C2578.59 361.986 2553.22 346.356 2525.2 334.657M2115.46 396.59C2109.96 394.233 2104.47 391.792 2099 389.279M2115.46 396.59C2125.28 393.943 2135.07 391.192 2144.83 388.346M2099 389.279C2092.85 386.453 2086.72 383.537 2080.6 380.552M2099 389.279C2108.18 387.202 2117.35 385.012 2126.5 382.715M2080.6 380.552C2073.49 377.086 2066.4 373.526 2059.32 369.903M2080.6 380.552C2089.22 379.049 2097.84 377.429 2106.46 375.697M2059.32 369.903C2050.73 365.511 2042.15 361.026 2033.56 356.503M2059.32 369.903C2067.47 368.99 2075.63 367.96 2083.79 366.816M2033.56 356.503C2022.37 350.611 2011.16 344.656 1999.88 338.758M2033.56 356.503C2041.37 356.211 2049.19 355.805 2057.01 355.284M1999.88 338.758C1982.44 329.644 1964.84 320.668 1946.92 312.282M1999.88 338.758C2007.67 339.175 2015.47 339.476 2023.28 339.659M1946.92 312.282C1891.09 286.164 1832.08 265.764 1764.82 264.693M1946.92 312.282C1956.36 313.885 1965.81 315.332 1975.26 316.615M1764.82 264.693C1745.7 264.388 1725.91 265.646 1705.34 268.779C1702.6 269.195 1699.88 269.613 1697.16 270.031M1764.82 264.693C1746.22 258.414 1727.56 251.767 1708.8 244.82M1697.16 270.031C1679.04 272.817 1661.24 275.639 1643.74 278.453M1697.16 270.031C1680.17 263.6 1663.13 256.792 1646.05 249.634M1643.74 278.453C1627.31 281.094 1611.15 283.728 1595.2 286.321M1643.74 278.453C1626.5 271.036 1609.25 263.114 1591.99 254.694M1595.2 286.321C1580.36 288.735 1565.71 291.113 1551.23 293.426M1595.2 286.321C1578.36 277.927 1561.56 268.912 1544.79 259.264M1551.23 293.426C1537.76 295.578 1524.44 297.675 1511.24 299.692M1551.23 293.426C1535.18 284.087 1519.2 274.035 1503.31 263.244M1511.24 299.692C1498.94 301.575 1486.74 303.388 1474.64 305.115M1511.24 299.692C1497.1 290.086 1483.06 279.795 1469.13 268.791C1468.21 268.071 1467.3 267.352 1466.39 266.634M1474.64 305.115C1466.7 298.842 1458.8 292.307 1450.96 285.502C1444.75 280.125 1438.62 274.793 1432.54 269.511M677.046 178.633C674.766 178.011 672.485 177.391 670.203 176.774M677.046 178.633C682.729 174.523 688.394 170.401 694.044 166.272M670.203 176.774C666.727 175.834 663.248 174.899 659.765 173.971M670.203 176.774C676.368 172.886 682.513 168.981 688.639 165.063M659.765 173.971C654.688 172.617 649.603 171.276 644.511 169.948M659.765 173.971C666.455 170.368 673.121 166.741 679.763 163.096M644.511 169.948C637.198 168.041 629.87 166.161 622.53 164.31M644.511 169.948C651.764 166.706 658.99 163.431 666.188 160.131M622.53 164.31C611.905 161.63 601.252 159.011 590.578 156.459M622.53 164.31C630.377 161.517 638.194 158.682 645.979 155.814M590.578 156.459C574.54 152.623 558.453 148.937 542.335 145.419M590.578 156.459C599.032 154.221 607.453 151.931 615.839 149.597M542.335 145.419C515.378 139.536 488.335 134.122 461.293 129.266M542.335 145.419C551.388 143.857 560.407 142.232 569.391 140.554M461.293 129.266C342.533 107.942 223.789 97.3787 112.339 105.001M461.293 129.266C471.152 128.527 480.98 127.711 490.776 126.828M2699.72 492.885C2696.59 482.681 2692.92 472.383 2688.65 462.197M2699.72 492.885C2703.5 499.319 2706.91 505.569 2709.94 511.559M2688.65 462.197C2666.4 409.11 2628.09 359.075 2567.66 341.339M2688.65 462.197C2695.05 472.282 2700.67 482.128 2705.47 491.483M2688.65 462.197C2661.83 419.965 2621.11 373.528 2567.66 341.339M2567.66 341.339C2554.57 337.496 2540.43 335.17 2525.2 334.657M2567.66 341.339C2545.15 327.782 2520.37 316.752 2493.42 309.628M2525.2 334.657C2503.88 325.754 2481.03 319.127 2456.71 315.596M2144.83 388.346C2138.69 386.595 2132.58 384.712 2126.5 382.715M2144.83 388.346C2158.56 384.344 2172.24 380.156 2185.84 375.811M2126.5 382.715C2119.79 380.51 2113.11 378.164 2106.46 375.697M2126.5 382.715C2139 379.578 2151.48 376.242 2163.92 372.724M2106.46 375.697C2098.87 372.883 2091.32 369.913 2083.79 366.816M2106.46 375.697C2117.95 373.388 2129.42 370.879 2140.89 368.178M2083.79 366.816C2074.83 363.133 2065.91 359.272 2057.01 355.284M2083.79 366.816C2094.39 365.328 2105 363.645 2115.61 361.771M2057.01 355.284C2045.75 350.245 2034.53 345.002 2023.28 339.659M2057.01 355.284C2066.84 354.629 2076.68 353.792 2086.54 352.771M2023.28 339.659C2007.34 332.082 1991.37 324.303 1975.26 316.615M2023.28 339.659C2032.5 339.874 2041.72 339.924 2050.95 339.804M1975.26 316.615C1894.5 278.069 1810.26 241.814 1708.8 244.82M1975.26 316.615C1984.42 317.858 1993.59 318.946 2002.76 319.872M1708.8 244.82C1701.67 245.031 1694.47 245.436 1687.17 246.047C1673.27 247.211 1659.57 248.412 1646.05 249.634M1708.8 244.82C1691.8 238.526 1674.72 231.986 1657.55 225.249M1646.05 249.634C1627.71 251.294 1609.7 252.994 1591.99 254.694M1646.05 249.634C1628.61 242.324 1611.11 234.649 1593.55 226.641M1591.99 254.694C1576.03 256.227 1560.3 257.76 1544.79 259.264M1591.99 254.694C1574.88 246.343 1557.76 237.503 1540.62 228.181M1544.79 259.264C1530.8 260.621 1516.98 261.955 1503.31 263.244M1544.79 259.264C1531.66 251.707 1518.55 243.762 1505.47 235.423L1498.92 231.252C1498.06 230.704 1497.2 230.156 1496.35 229.61M1503.31 263.244C1490.89 264.416 1478.59 265.551 1466.39 266.634M1503.31 263.244C1497.96 259.612 1492.62 255.896 1487.3 252.096C1477.22 244.911 1467.31 237.831 1457.55 230.865M1466.39 266.634C1455.02 267.643 1443.74 268.607 1432.54 269.511M1466.39 266.634C1451.41 254.796 1436.8 243.212 1422.52 231.92M1432.54 269.511C1418.12 256.968 1404.05 244.702 1390.29 232.755M694.044 166.272C692.243 165.868 690.442 165.465 688.639 165.063M694.044 166.272C700.091 161.852 706.12 157.425 712.13 152.998M688.639 165.063C685.683 164.405 682.725 163.749 679.763 163.096M688.639 165.063C695.243 160.84 701.824 156.603 708.382 152.361M679.763 163.096C675.245 162.101 670.72 161.112 666.188 160.131M679.763 163.096C686.977 159.138 694.162 155.158 701.32 151.167M666.188 160.131C659.466 158.675 652.73 157.236 645.979 155.814M666.188 160.131C674.058 156.522 681.896 152.883 689.701 149.223M645.979 155.814C635.962 153.703 625.914 151.63 615.839 149.597M645.979 155.814C654.538 152.66 663.059 149.465 671.542 146.239M615.839 149.597C600.414 146.484 584.926 143.466 569.391 140.554M615.839 149.597C625.069 147.028 634.258 144.407 643.404 141.743M569.391 140.554C543.294 135.662 517.065 131.069 490.776 126.828M569.391 140.554C579.155 138.73 588.879 136.842 598.56 134.901M490.776 126.828C360.659 105.836 229.09 93.4638 104.917 96.1197M490.776 126.828C500.69 125.934 510.571 124.971 520.417 123.945M2712.74 528.852C2712 523.289 2711.07 517.507 2709.94 511.559M2709.94 511.559C2708.7 505.043 2707.21 498.328 2705.47 491.483M2709.94 511.559C2710.77 513.214 2711.58 514.848 2712.36 516.461M2705.47 491.483C2703.18 482.467 2700.45 473.226 2697.25 463.918M2705.47 491.483C2708.01 496.41 2710.31 501.201 2712.39 505.819M2697.25 463.918C2691.76 447.969 2684.89 431.826 2676.49 416.284M2697.25 463.918C2702.49 473.459 2707 482.679 2710.78 491.354M2697.25 463.918C2667.21 409.199 2613.35 343.942 2537.23 310.659M2676.49 416.284C2658.11 382.292 2632.39 351.181 2597.78 331.291M2676.49 416.284C2688.15 433.772 2697.69 451.14 2705.08 467.198M2676.49 416.284C2656.49 386.306 2630.23 355.975 2597.78 331.291M2597.78 331.291C2580.01 321.08 2559.9 313.827 2537.23 310.659M2597.78 331.291C2569.52 309.792 2536.56 292.575 2498.95 283.606M2537.23 310.659C2523.57 308.75 2508.99 308.324 2493.42 309.628M2537.23 310.659C2511.35 299.339 2482.88 291.717 2451.91 289.466M2493.42 309.628C2481.74 310.608 2469.51 312.562 2456.71 315.596M2493.42 309.628C2468.33 302.995 2441.35 299.748 2412.56 301M2456.71 315.596C2432.04 312.012 2405.87 311.615 2378.26 315.26M2185.84 375.811C2178.48 374.987 2171.17 373.951 2163.92 372.724M2185.84 375.811C2211.16 367.726 2236.24 359.101 2261.01 350.133M2163.92 372.724C2156.19 371.418 2148.51 369.894 2140.89 368.178M2163.92 372.724C2184.97 366.773 2205.91 360.302 2226.74 353.393M2140.89 368.178C2132.41 366.27 2123.99 364.123 2115.61 361.771M2140.89 368.178C2159.31 363.837 2177.7 359.001 2196.05 353.704M2115.61 361.771C2105.86 359.032 2096.18 356.015 2086.54 352.771M2115.61 361.771C2132.14 358.852 2148.66 355.469 2165.19 351.63M2086.54 352.771C2074.62 348.762 2062.77 344.407 2050.95 339.804M2086.54 352.771C2101.55 351.216 2116.58 349.236 2131.63 346.825M2050.95 339.804C2034.86 333.538 2018.83 326.812 2002.76 319.872M2050.95 339.804C2064.69 339.626 2078.45 339.073 2092.25 338.129M2002.76 319.872C1974.18 307.529 1945.49 294.512 1916.16 282.208M2002.76 319.872C2015.55 321.163 2028.36 322.138 2041.19 322.775M1916.16 282.208C1864.69 260.613 1811.27 241.218 1753.11 231.533M1916.16 282.208C1930.87 285.907 1945.56 289.294 1960.26 292.316M1916.16 282.208C1862.27 268.649 1808.25 250.896 1753.11 231.533M1753.11 231.533C1726.18 227.05 1698.24 224.647 1669 225.071C1665.16 225.127 1661.35 225.186 1657.55 225.249M1753.11 231.533C1730.91 223.738 1708.54 215.683 1685.92 207.534M1657.55 225.249C1635.72 225.611 1614.41 226.092 1593.55 226.641M1657.55 225.249C1638.21 217.666 1618.75 209.834 1599.14 201.826M1593.55 226.641C1575.59 227.114 1557.97 227.638 1540.62 228.181M1593.55 226.641C1576.37 218.804 1559.12 210.648 1541.81 202.2C1539.74 201.191 1537.68 200.187 1535.63 199.185M1540.62 228.181C1525.66 228.649 1510.91 229.133 1496.35 229.61M1540.62 228.181C1534.96 225.101 1529.3 221.969 1523.64 218.785C1510.74 211.535 1498.1 204.429 1485.68 197.481M1496.35 229.61C1483.27 230.038 1470.35 230.461 1457.55 230.865M1496.35 229.61C1478.37 218.149 1460.89 207.009 1443.84 196.234M1457.55 230.865C1445.77 231.237 1434.1 231.592 1422.52 231.92M1457.55 230.865C1440.38 218.616 1423.68 206.719 1407.39 195.228M1422.52 231.92C1411.7 232.226 1400.96 232.507 1390.29 232.755M1422.52 231.92C1406.17 218.994 1390.25 206.45 1374.72 194.344M1390.29 232.755C1374.74 219.248 1359.6 206.149 1344.81 193.513M712.13 152.998C710.881 152.786 709.632 152.573 708.382 152.361M708.382 152.361C706.031 151.962 703.676 151.563 701.32 151.167M708.382 152.361C716.272 147.258 724.128 142.147 731.953 137.044M701.32 151.167C697.453 150.515 693.58 149.868 689.701 149.223M701.32 151.167C710.045 146.301 718.729 141.418 727.372 136.534M689.701 149.223C683.662 148.22 677.609 147.225 671.542 146.239M689.701 149.223C699.363 144.693 708.974 140.131 718.535 135.558M671.542 146.239C662.194 144.72 652.814 143.22 643.404 141.743M671.542 146.239C682.238 142.172 692.873 138.056 703.447 133.913M643.404 141.743C628.526 139.407 613.573 137.125 598.56 134.901M643.404 141.743C655.191 138.31 666.908 134.808 678.555 131.258M598.56 134.901C572.671 131.067 546.601 127.407 520.417 123.945M598.56 134.901C611.348 132.336 624.063 129.678 636.702 126.949M520.417 123.945C447.865 114.353 374.436 106.283 301.545 100.245M520.417 123.945C533.646 122.567 546.812 121.077 559.91 119.493M301.545 100.245C270 97.6312 238.556 95.3982 207.327 93.5868M301.545 100.245C319.199 101.011 336.805 101.52 354.352 101.801M301.545 100.245C270.269 98.887 238.843 96.7223 207.327 93.5868M207.327 93.5868C170.35 91.4421 133.676 89.8884 97.4934 88.9943M207.327 93.5868C186.649 91.5296 165.932 89.0545 145.193 86.1152M2712.71 502.165C2712.15 498.645 2711.51 495.037 2710.78 491.354M2710.78 491.354C2709.26 483.592 2707.36 475.498 2705.08 467.198M2710.78 491.354C2711.35 492.646 2711.89 493.926 2712.43 495.192M2705.08 467.198C2701.49 454.192 2696.95 440.681 2691.37 427.154M2705.08 467.198C2707.84 473.198 2710.3 479.016 2712.46 484.588M2691.37 427.154C2667.99 370.463 2626.35 313.495 2560.45 292.252M2691.37 427.154C2700.22 443.493 2707.19 459.282 2712.31 473.512M2691.37 427.154C2664.77 378.02 2621.24 323.911 2560.45 292.252M2560.45 292.252C2541.91 286.277 2521.46 283.128 2498.95 283.606M2560.45 292.252C2525.75 274.182 2485.43 263.425 2439.42 265.082M2498.95 283.606C2484.17 283.92 2468.5 285.798 2451.91 289.466M2498.95 283.606C2465.4 275.605 2428.14 274.167 2387.23 282.107M2451.91 289.466C2439.33 292.248 2426.22 296.059 2412.56 301M2451.91 289.466C2411.06 286.496 2365.83 292.87 2316.38 312.424C2276.56 328.167 2236.41 342.05 2196.05 353.704M2412.56 301C2402.47 304.647 2392.09 308.91 2381.4 313.827C2380.35 314.31 2379.31 314.787 2378.26 315.26M2412.56 301C2380.33 302.401 2345.83 309.437 2309.15 323.669C2281.95 334.223 2254.46 344.196 2226.74 353.393M2378.26 315.26C2337.11 333.864 2298.25 344.894 2261.01 350.133M2378.26 315.26C2353.91 318.475 2328.45 324.836 2301.93 334.93C2288.39 340.081 2274.75 345.16 2261.01 350.133M2261.01 350.133C2249.44 351.761 2238.02 352.83 2226.74 353.393M2226.74 353.393C2216.4 353.908 2206.17 353.998 2196.05 353.704M2196.05 353.704C2185.66 353.402 2175.38 352.696 2165.19 351.63M2165.19 351.63C2153.91 350.45 2142.73 348.828 2131.63 346.825M2165.19 351.63C2199.01 343.776 2232.84 334.015 2266.64 322.434M2131.63 346.825C2118.4 344.434 2105.28 341.502 2092.25 338.129M2131.63 346.825C2159.45 342.37 2187.35 336.446 2215.34 329.018M2092.25 338.129C2075.11 333.693 2058.12 328.497 2041.19 322.775M2092.25 338.129C2116.51 336.47 2140.87 333.603 2165.37 329.449M2041.19 322.775C2014.18 313.646 1987.32 303.176 1960.26 292.316M2041.19 322.775C2062.91 323.852 2084.72 323.963 2106.65 322.997M1960.26 292.316C1874.61 257.946 1786.91 219.657 1685.92 207.534M1960.26 292.316C1980.76 296.531 2001.29 300.038 2021.89 302.693M1685.92 207.534C1674.4 206.152 1662.71 205.109 1650.83 204.452C1633.26 203.48 1616.04 202.611 1599.14 201.826M1685.92 207.534C1661.78 198.842 1637.37 190.044 1612.61 181.345M1599.14 201.826C1577.48 200.82 1556.34 199.953 1535.63 199.185M1599.14 201.826C1586.15 196.524 1573.1 191.145 1559.98 185.709C1548.14 180.807 1536.5 176.004 1525.03 171.306M1535.63 199.185C1518.7 198.558 1502.06 197.997 1485.68 197.481M1535.63 199.185C1511.4 187.377 1488.01 176.04 1465.33 165.244M1485.68 197.481C1471.56 197.036 1457.62 196.625 1443.84 196.234M1485.68 197.481C1462.97 184.778 1441.02 172.601 1419.69 161.031M1443.84 196.234C1431.57 195.886 1419.43 195.554 1407.39 195.228M1443.84 196.234C1422.64 182.835 1402.11 170.002 1382.14 157.825M1407.39 195.228C1396.42 194.93 1385.53 194.638 1374.72 194.344M1407.39 195.228C1387.6 181.267 1368.41 167.905 1349.71 155.233M1374.72 194.344C1364.69 194.071 1354.73 193.796 1344.81 193.513M1374.72 194.344C1356.22 179.925 1338.26 166.127 1320.74 153.044M1344.81 193.513C1327.49 178.719 1310.66 164.562 1294.23 151.136M733.497 137.216C738.017 133.871 742.527 130.531 747.027 127.199M731.953 137.044C730.427 136.874 728.9 136.704 727.372 136.534M727.372 136.534C724.431 136.208 721.485 135.882 718.535 135.558M718.535 135.558C713.518 135.006 708.488 134.458 703.447 133.913M718.535 135.558C731.057 129.568 743.493 123.558 755.843 117.57M703.447 133.913C695.18 133.019 686.881 132.135 678.555 131.258M703.447 133.913C717.677 128.338 731.797 122.714 745.805 117.093M678.555 131.258C664.68 129.798 650.726 128.362 636.702 126.949M678.555 131.258C694.782 126.312 710.872 121.275 726.82 116.209M636.702 126.949C611.313 124.39 585.696 121.907 559.91 119.493M636.702 126.949C655.144 122.966 673.423 118.833 691.531 114.619M559.91 119.493C492.201 113.154 423.328 107.293 354.352 101.801M559.91 119.493C580.215 117.038 600.358 114.358 620.326 111.523M354.352 101.801C284.37 96.2295 214.281 91.0385 145.193 86.1152M354.352 101.801C374.757 102.128 395.082 102.147 415.311 101.905M145.193 86.1152C126.741 84.8003 108.36 83.5044 90.071 82.2255M145.193 86.1152C119.419 82.4623 93.6118 78.0925 67.8035 72.9171M2712.68 475.477C2712.56 474.825 2712.44 474.17 2712.31 473.512M2712.31 473.512C2710.36 463.447 2707.73 452.682 2704.37 441.534M2712.31 473.512C2712.37 473.681 2712.43 473.85 2712.49 474.018M2704.37 441.534C2680.63 362.85 2620.42 265.027 2507.58 258.575M2704.37 441.534C2707.52 449.153 2710.23 456.515 2712.52 463.501M2704.37 441.534C2675.72 372.235 2611.18 281.636 2507.58 258.575M2507.58 258.575C2486.7 257.381 2464.01 259.316 2439.42 265.082M2507.58 258.575C2459.57 247.887 2403.16 251.706 2338.05 278.877C2279.5 303.31 2222.07 319.832 2165.37 329.449M2439.42 265.082C2422.89 268.956 2405.51 274.56 2387.23 282.107M2439.42 265.082C2406.19 266.278 2370 273.948 2330.83 290.012C2292.12 305.883 2253.64 318.857 2215.34 329.018M2387.23 282.107C2382.93 283.882 2378.58 285.765 2374.18 287.758C2336.81 304.686 2301.11 315.861 2266.64 322.434M2387.23 282.107C2366.92 286.047 2345.71 292.297 2323.6 301.201C2304.62 308.844 2285.64 315.926 2266.64 322.434M2266.64 322.434C2249.25 325.751 2232.16 327.896 2215.34 329.018M2215.34 329.018C2198.44 330.145 2181.8 330.238 2165.37 329.449M2165.37 329.449C2145.53 328.496 2125.99 326.258 2106.65 322.997M2106.65 322.997C2078.07 318.178 2049.92 311.126 2021.89 302.693M2106.65 322.997C2163.36 320.499 2220.91 310.806 2280.04 292.037M2021.89 302.693C1898.91 265.702 1778.14 202.133 1632.66 183.833C1625.92 182.985 1619.24 182.156 1612.61 181.345M2021.89 302.693C2066.87 308.493 2112.21 310.233 2158.47 306.432M1612.61 181.345C1582.42 177.652 1553.3 174.326 1525.03 171.306M1612.61 181.345C1601.2 177.338 1589.71 173.352 1578.15 169.408C1547.92 159.099 1518.91 149.366 1490.88 140.259M1525.03 171.306C1504.71 169.135 1484.84 167.122 1465.33 165.244M1525.03 171.306C1486.75 155.621 1450.47 141.099 1415.63 127.945M1465.33 165.244C1449.9 163.759 1434.7 162.359 1419.69 161.031M1465.33 165.244C1431.74 149.255 1399.69 134.453 1368.76 121.06M1419.69 161.031C1407.05 159.913 1394.54 158.847 1382.14 157.825M1419.69 161.031C1389.93 144.882 1361.39 129.916 1333.74 116.356M1382.14 157.825C1371.25 156.928 1360.45 156.065 1349.71 155.233M1382.14 157.825C1355.49 141.571 1329.83 126.485 1304.9 112.782M1349.71 155.233C1340 154.48 1330.35 153.751 1320.74 153.044M1349.71 155.233C1325.63 138.905 1302.37 123.724 1279.72 109.89M1320.74 153.044C1311.87 152.391 1303.04 151.756 1294.23 151.136M1320.74 153.044C1298.82 136.666 1277.59 121.409 1256.88 107.459M1294.23 151.136C1274.15 134.729 1254.67 119.414 1235.64 105.362M761.348 117.835C761.032 117.82 760.717 117.805 760.402 117.79M761.348 117.835C763.652 116.329 765.953 114.826 768.251 113.324M761.348 117.835C756.586 120.948 751.812 124.07 747.027 127.199M760.402 117.79C760.195 117.78 759.989 117.77 759.782 117.76M760.402 117.79C763.022 116.299 765.639 114.811 768.251 113.324M760.402 117.79C759.449 118.332 758.495 118.874 757.541 119.417M759.782 117.76C762.547 115.715 765.309 113.675 768.067 111.639M759.782 117.76C759.035 118.312 758.288 118.864 757.541 119.417M755.843 117.57C752.503 117.41 749.157 117.251 745.805 117.093M745.805 117.093C739.498 116.796 733.169 116.501 726.82 116.209M726.82 116.209C715.124 115.672 703.359 115.143 691.531 114.619M691.531 114.619C668.032 113.578 644.282 112.556 620.326 111.523M691.531 114.619C721.209 107.713 750.426 100.591 779.143 93.5666M620.326 111.523C553.288 108.631 484.631 105.649 415.311 101.905M620.326 111.523C657.264 106.278 693.599 100.5 729.237 94.627M415.311 101.905C304.819 95.9355 192.642 88.0277 82.6482 75.4567M415.311 101.905C456.085 101.415 496.467 99.8629 536.314 97.6257M2712.65 448.789C2710.06 436.662 2706.41 423.458 2701.63 409.753M2701.63 409.753C2677 339.216 2622.31 255.402 2527.73 236.725M2701.63 409.753C2706.16 421.341 2709.8 432.496 2712.59 442.846M2701.63 409.753C2675.38 342.591 2619.38 260.872 2527.73 236.725M2527.73 236.725C2489.32 229.14 2444.33 232.299 2392.1 251.456M2527.73 236.725C2479.49 224.012 2421.36 227.257 2352.5 256.984C2285.22 286.032 2221.01 301.295 2158.47 306.432M2392.1 251.456C2383.9 254.466 2375.52 257.87 2366.95 261.69C2337.13 274.988 2308.22 284.938 2280.04 292.037M2392.1 251.456C2583.32 199.367 2684.67 359.494 2712.55 453.079M2392.1 251.456C2377.05 255.556 2361.45 260.97 2345.28 267.836C2323.3 277.166 2301.56 285.203 2280.04 292.037M2280.04 292.037C2238.12 302.591 2197.81 306.844 2158.47 306.432M2158.47 306.432C2079.97 305.61 2005.37 286.209 1929.77 261.235M1929.77 261.235C1849.68 234.774 1768.47 202.056 1680.34 178.551M1929.77 261.235C2067.15 300.481 2202.98 315.408 2359.73 246.619C2582.53 148.837 2687.82 330.197 2712.62 433.1M1929.77 261.235C1848.7 238.074 1767.09 206.443 1680.34 178.551M1680.34 178.551C1658.83 172.815 1636.91 167.628 1614.49 163.214C1571.18 154.687 1530.19 147.059 1490.88 140.259M1680.34 178.551C1652.89 169.729 1624.94 161.28 1596.32 153.592C1483.84 123.378 1387.57 100.161 1296.02 84.652M1490.88 140.259C1465.13 135.805 1440.11 131.707 1415.63 127.945M1490.88 140.259C1421.03 117.564 1357.28 98.7609 1296.02 84.652M1415.63 127.945C1399.8 125.511 1384.19 123.218 1368.76 121.06M1415.63 127.945C1367.25 109.675 1321.66 94.0435 1277.41 81.5949M1368.76 121.06C1356.99 119.414 1345.32 117.847 1333.74 116.356M1368.76 121.06C1331.28 104.834 1295.44 90.677 1260.48 78.9869M1333.74 116.356C1324.07 115.111 1314.46 113.92 1304.9 112.782M1333.74 116.356C1303.01 101.288 1273.38 87.9559 1244.38 76.665M1304.9 112.782C1296.47 111.778 1288.08 110.814 1279.72 109.89M1304.9 112.782C1278.83 98.4499 1253.54 85.6291 1228.74 74.5628M1279.72 109.89C1272.08 109.047 1264.47 108.237 1256.88 107.459M1279.72 109.89C1257.08 96.0647 1235.04 83.5844 1213.4 72.6487M1256.88 107.459C1249.79 106.732 1242.71 106.033 1235.64 105.362M1256.88 107.459C1236.9 94.0037 1217.41 81.7641 1198.23 70.9064M1235.64 105.362C1217.81 92.1946 1200.37 80.1359 1183.19 69.3272M806.47 93.0314C806.137 93.0376 805.804 93.0438 805.472 93.0501M806.47 93.0314C808.063 92.2631 809.655 91.4961 811.245 90.7307M806.47 93.0314C800.894 95.7207 795.301 98.4273 789.689 101.147M805.472 93.0501C804.968 93.0595 804.465 93.0689 803.961 93.0783M805.472 93.0501C807.398 92.2753 809.323 91.5021 811.245 90.7307M805.472 93.0501C803.776 93.7318 802.079 94.4147 800.38 95.0987M803.961 93.0783C802.391 93.1079 800.819 93.1377 799.245 93.1679M803.961 93.0783C806.318 91.7501 808.671 90.4258 811.021 89.1057M803.961 93.0783C802.768 93.7508 801.575 94.4243 800.38 95.0987M799.245 93.1679C798.956 93.1734 798.666 93.179 798.376 93.1846M799.245 93.1679C799.518 92.9918 799.791 92.8157 800.063 92.6398M799.245 93.1679C795.999 95.2664 792.746 97.3737 789.489 99.4886M798.376 93.1846C796.603 93.2186 794.829 93.2531 793.052 93.2879M798.376 93.1846C798.938 93.0029 799.501 92.8213 800.063 92.6398M798.376 93.1846C795.285 94.1828 792.189 95.1836 789.086 96.1866M793.052 93.2879C795.205 91.7158 797.356 90.1482 799.505 88.5855M793.052 93.2879C791.731 94.2525 790.409 95.2187 789.086 96.1866M779.143 93.5666C762.665 93.9032 746.025 94.2641 729.237 94.627M729.237 94.627C666.729 95.9782 602.172 97.3584 536.314 97.6257M536.314 97.6257C386.409 98.2342 229.766 93.0767 75.2258 68.688M1296.02 84.652C1289.8 83.5973 1283.59 82.5781 1277.41 81.5949M1296.02 84.652C1283.95 81.87 1271.96 79.2705 1260.05 76.8597M1277.41 81.5949C1271.75 80.6955 1266.11 79.8261 1260.48 78.9869M1277.41 81.5949C1271.6 79.9613 1265.82 78.3825 1260.05 76.8597M1260.48 78.9869C1255.1 78.1854 1249.73 77.4113 1244.38 76.665M1260.48 78.9869C1255.16 77.2106 1249.87 75.4913 1244.59 73.8303M1244.38 76.665C1239.16 75.9379 1233.95 75.2372 1228.74 74.5628M1244.38 76.665C1239.46 74.751 1234.56 72.8957 1229.68 71.1005M1228.74 74.5628C1223.62 73.8991 1218.51 73.2611 1213.4 72.6487M1228.74 74.5628C1224.17 72.5208 1219.61 70.5385 1215.06 68.6175M1213.4 72.6487C1208.34 72.0427 1203.28 71.4619 1198.23 70.9064M1213.4 72.6487C1209.12 70.491 1204.87 68.3933 1200.62 66.3574M1198.23 70.9064C1193.22 70.3551 1188.21 69.8286 1183.19 69.3272M1198.23 70.9064C1194.24 68.647 1190.27 66.4473 1186.3 64.309M1183.19 69.3272C1179.47 66.9813 1175.75 64.6943 1172.05 62.4676M890.417 68.1259C887.714 68.3421 885.005 68.5613 882.291 68.7833M890.417 68.1259C890.267 68.1488 890.118 68.1718 889.969 68.1947C884.727 69.0013 879.463 69.8224 874.179 70.6563M882.291 68.7833C879.138 69.0412 875.978 69.3028 872.81 69.568M882.291 68.7833C881.108 69.0522 879.924 69.324 878.738 69.5985C877.22 69.9497 875.7 70.3023 874.179 70.6563M872.81 69.568C869.435 69.8504 866.052 70.1368 862.66 70.4268M872.81 69.568C871.046 70.1011 869.279 70.6423 867.507 71.1917C866.354 71.5491 865.2 71.9075 864.045 72.2669M862.66 70.4268C859.161 70.7261 855.653 71.0292 852.135 71.3358M862.66 70.4268C860.538 71.2298 858.41 72.0472 856.276 72.8791C855.349 73.2406 854.421 73.6029 853.492 73.9658M852.135 71.3358C848.56 71.6475 844.976 71.9628 841.383 72.2813M852.135 71.3358C849.78 72.4093 847.417 73.5041 845.046 74.6204C844.267 74.9869 843.488 75.3539 842.709 75.7214M841.383 72.2813C837.758 72.6027 834.125 72.9273 830.482 73.2549M841.383 72.2813C838.87 73.6243 836.347 74.9956 833.815 76.3955C833.14 76.7686 832.465 77.1422 831.79 77.5162M830.482 73.2549C826.824 73.5838 823.158 73.9156 819.482 74.2501M830.482 73.2549C827.86 74.8653 825.227 76.5113 822.584 78.1931C821.984 78.5747 821.384 78.9567 820.784 79.3391M819.482 74.2501C816.784 76.126 814.075 78.0447 811.353 80.0064C810.81 80.3978 810.267 80.7896 809.724 81.1817M1260.05 76.8597C1254.89 75.8142 1249.74 74.8043 1244.59 73.8303M1260.05 76.8597C1250.11 74.2321 1240.22 71.7713 1230.38 69.4838M1244.59 73.8303C1239.61 72.8864 1234.64 71.9763 1229.68 71.1005M1244.59 73.8303C1239.84 72.3337 1235.1 70.8846 1230.38 69.4838M1229.68 71.1005C1224.8 70.2396 1219.93 69.4118 1215.06 68.6175M1229.68 71.1005C1225.22 69.4612 1220.77 67.8721 1216.34 66.3342M1215.06 68.6175C1210.24 67.8312 1205.43 67.0776 1200.62 66.3574M1215.06 68.6175C1210.87 66.8452 1206.68 65.1251 1202.51 63.4583M1200.62 66.3574C1195.85 65.6416 1191.07 64.9587 1186.3 64.309M1200.62 66.3574C1196.68 64.4634 1192.74 62.6228 1188.82 60.8368M1186.3 64.309C1181.55 63.6621 1176.8 63.0482 1172.05 62.4676M1186.3 64.309C1182.59 62.3058 1178.88 60.3564 1175.19 58.4621M1172.05 62.4676C1168.56 60.3686 1165.08 58.3231 1161.61 56.3325M874.179 70.6563C870.81 71.1881 867.432 71.7251 864.045 72.2669M874.179 70.6563C867.496 72.2117 860.78 73.7936 854.033 75.3975M864.045 72.2669C860.536 72.8282 857.019 73.3947 853.492 73.9658M864.045 72.2669C860.715 73.303 857.378 74.3468 854.033 75.3975M853.492 73.9658C849.907 74.5464 846.312 75.1318 842.709 75.7214M853.492 73.9658C850.116 75.2853 846.733 76.6138 843.342 77.9503M842.709 75.7214C839.078 76.3155 835.439 76.914 831.79 77.5162M842.709 75.7214C839.309 77.3253 835.903 78.9392 832.489 80.5624M831.79 77.5162C828.13 78.1202 824.462 78.728 820.784 79.3391M831.79 77.5162C828.381 79.4043 824.965 81.3038 821.543 83.2135M820.784 79.3391C817.106 79.9502 813.419 80.5646 809.724 81.1817M820.784 79.3391C817.375 81.511 813.961 83.6954 810.541 85.8912M809.724 81.1817C806.323 83.6364 802.917 86.1048 799.505 88.5855M1230.38 69.4838C1225.69 68.3944 1221.01 67.3443 1216.34 66.3342M1230.38 69.4838C1221.38 66.818 1212.43 64.3275 1203.51 62.0192M1216.34 66.3342C1211.72 65.3363 1207.11 64.3775 1202.51 63.4583M1216.34 66.3342C1212.05 64.8476 1207.77 63.4089 1203.51 62.0192M1202.51 63.4583C1197.94 62.5451 1193.38 61.671 1188.82 60.8368M1202.51 63.4583C1198.46 61.8384 1194.42 60.269 1190.38 58.751M1188.82 60.8368C1184.27 60.0055 1179.73 59.2137 1175.19 58.4621M1188.82 60.8368C1184.98 59.0931 1181.16 57.4014 1177.34 55.763M1175.19 58.4621C1170.66 57.712 1166.13 57.002 1161.61 56.3325M1175.19 58.4621C1171.57 56.6048 1167.96 54.8005 1164.35 53.0503M1161.61 56.3325C1158.19 54.3729 1154.78 52.4664 1151.38 50.6142M854.033 75.3975C850.478 76.2425 846.914 77.0937 843.342 77.9503M854.033 75.3975C846.987 77.6109 839.907 79.855 832.795 82.1236M843.342 77.9503C839.733 78.8156 836.116 79.6866 832.489 80.5624M843.342 77.9503C839.834 79.3331 836.318 80.7245 832.795 82.1236M832.489 80.5624C828.849 81.4414 825.201 82.3253 821.543 83.2135M832.489 80.5624C828.98 82.2309 825.464 83.9091 821.94 85.5959M821.543 83.2135C817.885 84.102 814.217 84.9948 810.541 85.8912M821.543 83.2135C818.043 85.1673 814.535 87.1317 811.021 89.1057M810.541 85.8912C806.871 86.7859 803.193 87.6843 799.505 88.5855M810.541 85.8912C807.054 88.1295 803.562 90.3794 800.063 92.6398M1203.51 62.0192C1199.12 60.8856 1194.75 59.7959 1190.38 58.751M1203.51 62.0192C1195.12 59.2873 1186.76 56.7445 1178.43 54.3986M1190.38 58.751C1186.03 57.7103 1181.69 56.714 1177.34 55.763M1190.38 58.751C1186.39 57.2495 1182.41 55.7983 1178.43 54.3986M1177.34 55.763C1173.01 54.8134 1168.68 53.9089 1164.35 53.0503M1177.34 55.763C1173.56 54.137 1169.78 52.5634 1166.01 51.0433M1164.35 53.0503C1160.03 52.1921 1155.7 51.3798 1151.38 50.6142M1164.35 53.0503C1160.76 51.308 1157.18 49.6194 1153.61 47.9854M1151.38 50.6142C1147.98 48.7644 1144.59 46.9688 1141.21 45.2285M832.795 82.1236C829.185 83.275 825.567 84.4327 821.94 85.5959M832.795 82.1236C825.643 84.9634 818.46 87.835 811.245 90.7307M821.94 85.5959C818.309 86.7607 814.669 87.9308 811.021 89.1057M821.94 85.5959C818.383 87.2991 814.818 89.0111 811.245 90.7307M811.021 89.1057C807.377 90.2793 803.724 91.4576 800.063 92.6398M789.086 96.1866C785.593 98.7427 782.094 101.31 778.59 103.887M1178.43 54.3986C1174.29 53.2311 1170.15 52.1123 1166.01 51.0433M1178.43 54.3986C1170.51 51.6076 1162.61 49.0211 1154.73 46.6477M1166.01 51.0433C1161.87 49.9739 1157.74 48.9543 1153.61 47.9854M1166.01 51.0433C1162.24 49.5243 1158.48 48.0587 1154.73 46.6477M1153.61 47.9854C1149.48 47.0153 1145.34 46.096 1141.21 45.2285M1153.61 47.9854C1150.03 46.3484 1146.46 44.7664 1142.89 43.2405M1141.21 45.2285C1137.81 43.4802 1134.42 41.7877 1131.04 40.1521M800.38 95.0987C796.758 96.5573 793.127 98.0209 789.489 99.4886M800.38 95.0987C796.823 97.1069 793.26 99.1235 789.689 101.147M789.489 99.4886C785.864 100.951 782.231 102.417 778.59 103.887M789.489 99.4886C785.958 101.781 782.421 104.083 778.877 106.392M778.59 103.887C775.088 106.462 771.581 109.047 768.067 111.639M1154.73 46.6477C1150.78 45.4581 1146.83 44.322 1142.89 43.2405M1154.73 46.6477C1147.18 43.8126 1139.66 41.1976 1132.16 38.8119M1142.89 43.2405C1138.94 42.1558 1134.99 41.126 1131.04 40.1521M1142.89 43.2405C1139.31 41.7073 1135.73 40.2307 1132.16 38.8119M1131.04 40.1521C1127.63 38.5047 1124.23 36.9151 1120.83 35.3845M789.689 101.147C786.092 102.89 782.488 104.639 778.877 106.392M789.689 101.147C782.571 105.181 775.425 109.244 768.251 113.324M778.877 106.392C775.281 108.137 771.678 109.886 768.067 111.639M778.877 106.392C775.341 108.695 771.8 111.007 768.251 113.324M1132.16 38.8119C1128.38 37.611 1124.6 36.4681 1120.83 35.3845M1132.16 38.8119C1124.94 35.9474 1117.74 33.3187 1110.56 30.9352M1120.83 35.3845C1117.4 33.8411 1113.98 32.3576 1110.56 30.9352M757.541 119.417C754.042 122.005 750.538 124.599 747.027 127.199" stroke="url(#paint0_linear_266_310)"/>
<defs>
<linearGradient id="paint0_linear_266_310" x1="1357" y1="1" x2="1357" y2="765" gradientUnits="userSpaceOnUse">
<stop stop-color="#081426"/>
<stop offset="1" stop-color="#081626" stop-opacity="0.15"/>
</linearGradient>
</defs>
</svg>
