<svg width="250" height="37" viewBox="0 0 250 37" fill="none" xmlns="http://www.w3.org/2000/svg">
<path d="M26.6822 17.8832C18.7685 19.1184 10.6875 18.5862 2.99346 16.323L2.76114 20.5705C7.07864 21.8653 11.532 22.6261 16.0261 22.8366C16.0261 22.8366 19.7279 21.3545 20.9961 20.7733C22.4548 20.1142 26.6822 17.8832 26.6822 17.8832Z" fill="url(#paint0_linear_475_2668)"/>
<path d="M40.9449 13.9048C45.9387 11.9225 50.6023 9.15941 54.7697 5.71403L56.5559 9.80551C48.5276 16.3074 41.5505 19.8177 31.2143 21.7406C33.1314 20.5203 34.9801 19.1908 36.7518 17.7584C38.6141 16.1826 40.9449 13.9048 40.9449 13.9048Z" fill="url(#paint1_linear_475_2668)"/>
<path d="M1.16539 30.4852L0 26.1324C18.2807 25.5825 35.9558 15.5663 46.193 0L49.057 3.2061C38.0619 19.9348 20.8095 29.8885 1.16539 30.4852Z" fill="url(#paint2_linear_475_2668)"/>
<path fill-rule="evenodd" clip-rule="evenodd" d="M42.5559 30.4189C44.4372 27.9046 45.5834 24.8954 45.8617 21.7406L42.3693 22.4349C41.9652 24.2644 41.1575 25.9748 40.008 27.4352C35.674 33.1141 27.4934 33.9917 21.7274 29.3853C15.9613 24.779 14.8721 16.4478 19.1985 10.7806C22.6262 6.30689 28.7806 5.10558 33.8992 6.91144L35.8035 4.18119C29.032 1.20521 20.4363 2.51964 15.6186 8.86163C12.8963 12.5312 11.6943 17.1508 12.2727 21.7211C12.851 26.2913 15.1632 30.4446 18.7089 33.2822C22.2546 36.1198 26.7486 37.4136 31.2186 36.8836C35.6887 36.3536 39.7752 34.0424 42.594 30.4501L42.5559 30.4189Z" fill="url(#paint3_linear_475_2668)"/>
<path d="M68.4595 36.8557C69.6988 36.8557 70.8158 36.6213 71.8107 36.1524C72.8056 35.6836 73.591 35.0705 74.167 34.295C74.743 33.5196 75.1968 32.7261 75.5284 31.9147C75.8601 31.1032 76.1044 30.2556 76.2441 29.372L75.9124 29.2277C74.7779 31.3917 73.1372 32.4737 70.9904 32.4737C69.2275 32.4737 67.8661 31.7884 66.9061 30.4179C65.9461 29.0474 65.4749 27.208 65.4749 24.8817C65.4749 23.2047 65.7192 21.8341 66.1905 20.7702C66.6617 19.7062 67.325 19.1833 68.1628 19.1833C69.0704 19.1833 69.786 19.8325 70.3271 21.1128C70.8682 22.3932 71.1824 23.7817 71.2696 25.2785L71.514 25.4047L75.5633 22.2128C73.9925 19.4898 71.5838 18.1193 68.3373 18.1193C65.8588 18.1193 63.7469 18.9128 62.0189 20.4997C60.291 22.0866 59.4183 24.3768 59.4183 27.3883C59.4183 30.4359 60.291 32.7802 62.0538 34.4213C63.8167 36.0623 65.9287 36.8738 68.4072 36.8738L68.4595 36.8557Z" fill="url(#paint4_linear_475_2668)"/>
<path d="M76.4361 36.4951H86.734V36.2426C85.9835 35.7196 85.4948 35.2328 85.2678 34.7819C85.0409 34.3311 84.9188 33.4475 84.9188 32.1311V8.94046C82.3356 9.75195 79.5254 10.2749 76.471 10.5093V10.7798C77.047 11.3028 77.4135 11.6815 77.588 11.8979C77.7626 12.1143 77.9197 12.529 78.0593 13.1241C78.1989 13.7192 78.2687 14.6029 78.2687 15.775V32.095C78.2687 33.4114 78.164 34.295 77.9546 34.7459C77.7451 35.1967 77.2389 35.6655 76.4535 36.1524L76.4361 36.4951Z" fill="url(#paint5_linear_475_2668)"/>
<path d="M91.883 16.298C92.7731 16.298 93.5411 15.9914 94.1869 15.3602C94.8327 14.7291 95.1469 13.9897 95.1469 13.1241C95.1469 12.2586 94.8327 11.5192 94.1869 10.888C93.5411 10.2569 92.7731 9.95031 91.883 9.95031C90.9754 9.95031 90.1899 10.2749 89.5441 10.9061C88.8983 11.5372 88.5667 12.2766 88.5667 13.1422C88.5667 14.0078 88.8809 14.7471 89.5267 15.3783C90.1725 16.0094 90.9404 16.334 91.8481 16.334L91.883 16.298ZM87.0482 36.5311H97.3461V36.2787C96.5956 35.7557 96.1069 35.2688 95.88 34.818C95.6531 34.3672 95.5309 33.4835 95.5309 32.1671V18.0292C92.7557 18.8767 89.9456 19.3997 87.0831 19.598V19.8866C87.6242 20.3735 87.9907 20.7341 88.1827 20.9686C88.3747 21.203 88.5318 21.6177 88.6714 22.2309C88.811 22.844 88.8809 23.7276 88.8809 24.8817V32.1852C88.8809 33.5016 88.7761 34.3852 88.5667 34.836C88.3572 35.2869 87.8511 35.7557 87.0656 36.2426L87.0482 36.5311Z" fill="url(#paint6_linear_475_2668)"/>
<path d="M128.729 32.1671V23.8358C128.729 22.6637 128.537 21.6718 128.153 20.8604C127.769 20.0489 127.263 19.4538 126.652 19.0931C126.041 18.7324 125.465 18.48 124.941 18.3357C124.417 18.1915 123.894 18.1193 123.37 18.1193C120.892 18.1193 118.867 19.4177 117.296 22.0325C116.93 20.5718 116.231 19.562 115.202 18.9849C114.172 18.4078 113.142 18.1193 112.095 18.1193C109.686 18.1193 107.679 19.3816 106.091 21.9243V18.0472C103.246 18.9128 100.47 19.4177 97.765 19.562V19.8144C98.533 20.4636 99.0217 21.0587 99.2312 21.5997C99.4406 22.1407 99.5453 23.2227 99.5453 24.8457V32.1852C99.5453 33.5016 99.4406 34.3852 99.2312 34.836C99.0217 35.2869 98.5155 35.7557 97.7301 36.2426V36.4951H108.028V36.2426C107.278 35.7196 106.789 35.2328 106.562 34.7819C106.335 34.3311 106.213 33.4475 106.213 32.1311V23.2407C106.928 22.0325 107.749 21.4194 108.674 21.4194C109.285 21.4194 109.808 21.6718 110.245 22.1768C110.681 22.6817 110.908 23.4571 110.908 24.485C110.908 28.4523 110.891 30.995 110.873 32.1311C110.856 33.3934 110.733 34.259 110.507 34.7459C110.28 35.2327 109.773 35.7196 108.988 36.2065V36.459H119.286V36.2065C118.535 35.6836 118.047 35.1967 117.82 34.7459C117.593 34.295 117.471 33.4114 117.471 32.095V23.7637C117.471 23.4932 117.453 23.2948 117.436 23.1686C118.117 21.9784 118.937 21.3833 119.897 21.3833C120.508 21.3833 121.049 21.6358 121.503 22.1407C121.956 22.6456 122.183 23.4211 122.183 24.4489C122.183 26.09 122.166 28.6326 122.114 32.077C122.096 33.3573 121.974 34.2229 121.747 34.6737C121.52 35.1246 121.014 35.6114 120.228 36.1344V36.3869H130.561V36.1344C129.776 35.6475 129.27 35.1787 129.06 34.7278C128.851 34.277 128.746 33.3934 128.746 32.077L128.729 32.1671Z" fill="url(#paint7_linear_475_2668)"/>
<path d="M148.068 29.6605C147.021 31.5179 145.38 32.4376 143.163 32.4376C141.47 32.4376 140.039 31.9147 138.852 30.8687C137.665 29.8228 137.072 28.1818 137.072 25.9277V25.6031H148.225V25.1883C148.225 23.3309 147.544 21.6718 146.2 20.2292C144.856 18.7865 142.884 18.0652 140.283 18.0652C137.613 18.0652 135.396 18.8767 133.651 20.4817C131.905 22.0866 131.033 24.3768 131.033 27.3342C131.033 30.3097 131.905 32.636 133.651 34.3131C135.396 35.9901 137.595 36.8377 140.231 36.8377C144.594 36.8377 147.265 34.4934 148.242 29.7867L148.068 29.6605ZM139.637 19.1111C141.331 19.1111 142.221 20.9325 142.308 24.5932H137.089C137.246 20.9325 138.102 19.1111 139.655 19.1111H139.637Z" fill="url(#paint8_linear_475_2668)"/>
<path d="M172.835 18.5882V18.8767C173.533 19.6161 174.022 20.2112 174.301 20.644C174.581 21.0768 174.72 21.5456 174.72 22.0325C174.703 22.4112 174.598 22.862 174.406 23.403C174.005 24.5752 173.115 26.7752 171.736 30.0212C170.374 26.9375 169.257 24.3768 168.402 22.3391C168.21 21.8702 168.123 21.4554 168.123 21.1128C168.123 20.2472 168.664 19.5079 169.728 18.8947V18.6062H159.291V18.8947C160.216 19.562 160.914 20.4276 161.368 21.4915L162.729 24.6834L160.443 30.0753C158.366 25.3145 157.249 22.6997 157.092 22.2309C156.9 21.78 156.812 21.3833 156.812 21.0407C156.812 20.2653 157.336 19.562 158.383 18.9308V18.6423H148.015V18.9308C148.941 19.6341 149.621 20.5177 150.058 21.5817L156.516 36.6033H158.767L163.305 26.0719L167.808 36.6033H170.112L175.75 23.4211C176.186 22.4112 176.588 21.6177 176.972 21.0227C177.356 20.4276 177.949 19.7423 178.77 18.9488V18.6603L172.835 18.5882Z" fill="url(#paint9_linear_475_2668)"/>
<path d="M187.34 36.8557C190.342 36.8557 192.715 36.0262 194.478 34.3672C196.241 32.7081 197.114 30.3638 197.114 27.3342C197.114 24.3047 196.241 22.0145 194.513 20.4456C192.785 18.8767 190.481 18.1013 187.601 18.1013C184.599 18.1013 182.208 18.9488 180.428 20.6259C178.647 22.303 177.757 24.6653 177.757 27.6949C177.757 30.6884 178.63 32.9606 180.375 34.5295C182.121 36.0983 184.425 36.8738 187.305 36.8738L187.34 36.8557ZM188.335 35.8098C187.409 35.8098 186.641 34.9442 186.031 33.213C185.42 31.4819 185.018 29.7507 184.826 28.0375C184.634 26.3244 184.53 24.8276 184.53 23.5473C184.53 22.0686 184.722 20.9686 185.105 20.2472C185.489 19.5259 185.978 19.1652 186.572 19.1652C187.479 19.1652 188.247 20.0489 188.858 21.7981C189.469 23.5473 189.87 25.2965 190.062 27.0277C190.254 28.7589 190.342 30.2556 190.342 31.536C190.342 32.9786 190.15 34.0606 189.783 34.7639C189.417 35.4672 188.928 35.8278 188.335 35.8278V35.8098Z" fill="url(#paint10_linear_475_2668)"/>
<path d="M197.882 36.4951H208.826V36.2426C207.778 35.7557 207.098 35.2869 206.801 34.836C206.504 34.3852 206.347 33.5016 206.347 32.1852V22.8079C206.644 22.1948 207.063 21.8882 207.604 21.8882C208.634 21.8882 209.995 23.0784 211.688 25.4408H211.933L212.823 18.4619C212.369 18.2275 211.863 18.1193 211.287 18.1193C209.908 18.1193 208.791 18.48 207.953 19.2013C207.115 19.9226 206.539 20.7522 206.225 21.6899H206.138L206.225 18.0652C203.432 18.9308 200.657 19.4357 197.882 19.58V19.8325C198.632 20.4276 199.121 20.9866 199.348 21.5276C199.575 22.0686 199.68 23.0243 199.68 24.3768V32.2032C199.68 33.5196 199.575 34.4032 199.366 34.8541C199.156 35.3049 198.65 35.7737 197.864 36.2606L197.882 36.4951Z" fill="url(#paint11_linear_475_2668)"/>
<path d="M213.207 36.4951H223.505V36.2426C222.754 35.7196 222.265 35.2328 222.038 34.7819C221.812 34.3311 221.689 33.4475 221.689 32.1311V28.5605H222.213L226.611 36.459H235.094V36.2065C233.872 35.4672 232.738 34.277 231.691 32.654L226.716 24.9358L228.147 23.5293C228.549 23.0604 228.985 22.6096 229.439 22.1948C230.259 21.5095 231.935 20.3915 234.483 18.8406V18.5521H225.407V18.8406C226.926 19.7243 227.694 20.5538 227.694 21.3472C227.676 21.8702 227.31 22.4833 226.594 23.1866L221.672 27.8752V8.92242C219.089 9.73392 216.279 10.2569 213.224 10.4913V10.7618C213.8 11.2848 214.167 11.6635 214.341 11.8799C214.516 12.0963 214.673 12.511 214.812 13.1061C214.952 13.7012 215.022 14.5848 215.022 15.757V32.077C215.022 33.3934 214.917 34.277 214.708 34.7278C214.498 35.1787 213.992 35.6475 213.207 36.1344V36.4951Z" fill="url(#paint12_linear_475_2668)"/>
<path d="M243.28 36.982C245.392 36.982 247.033 36.477 248.22 35.4492C249.407 34.4213 250 33.0688 250 31.3737C250 29.8409 249.546 28.5785 248.639 27.5867C247.731 26.5949 246.457 25.6752 244.816 24.8096C243.315 24.0342 242.215 23.385 241.535 22.844C240.854 22.303 240.505 21.6358 240.505 20.8423C240.505 20.3194 240.662 19.9046 240.976 19.598C241.29 19.2915 241.692 19.1292 242.198 19.1292C243.856 19.1472 246.003 21.0587 248.621 24.8637L248.883 24.7916L248.342 19.057C245.811 18.4259 243.804 18.1013 242.303 18.1013C240.418 18.1013 238.864 18.5701 237.66 19.5259C236.456 20.4817 235.845 21.8161 235.845 23.5293C235.845 24.0883 235.915 24.6293 236.054 25.1342C236.194 25.6391 236.421 26.108 236.735 26.5408C237.049 26.9736 237.328 27.3342 237.573 27.6228C237.817 27.9113 238.201 28.2359 238.725 28.5966C239.248 28.9572 239.632 29.2097 239.877 29.354C240.121 29.4982 240.522 29.7507 241.098 30.0933C242.582 30.9409 243.629 31.6622 244.24 32.2393C244.851 32.8163 245.148 33.4655 245.148 34.1688C245.148 34.7278 244.973 35.1786 244.624 35.5032C244.275 35.8278 243.821 35.9901 243.28 35.9901C241.413 35.9901 239.074 33.8803 236.281 29.6425L236.019 29.6786L236.7 35.8459C239.405 36.6213 241.605 37 243.315 37L243.28 36.982Z" fill="url(#paint13_linear_475_2668)"/>
<defs>
<linearGradient id="paint0_linear_475_2668" x1="-13.2691" y1="37" x2="250" y2="37" gradientUnits="userSpaceOnUse">
<stop offset="0.236684" stop-color="#4584CC"/>
<stop offset="1" stop-color="#2B519B"/>
</linearGradient>
<linearGradient id="paint1_linear_475_2668" x1="-13.2691" y1="37" x2="250" y2="37" gradientUnits="userSpaceOnUse">
<stop offset="0.236684" stop-color="#4584CC"/>
<stop offset="1" stop-color="#2B519B"/>
</linearGradient>
<linearGradient id="paint2_linear_475_2668" x1="-13.2691" y1="37" x2="250" y2="37" gradientUnits="userSpaceOnUse">
<stop offset="0.236684" stop-color="#4584CC"/>
<stop offset="1" stop-color="#2B519B"/>
</linearGradient>
<linearGradient id="paint3_linear_475_2668" x1="-13.2691" y1="37" x2="250" y2="37" gradientUnits="userSpaceOnUse">
<stop offset="0.236684" stop-color="#4584CC"/>
<stop offset="1" stop-color="#2B519B"/>
</linearGradient>
<linearGradient id="paint4_linear_475_2668" x1="-13.2691" y1="37" x2="250" y2="37" gradientUnits="userSpaceOnUse">
<stop offset="0.236684" stop-color="#4584CC"/>
<stop offset="1" stop-color="#2B519B"/>
</linearGradient>
<linearGradient id="paint5_linear_475_2668" x1="-13.2691" y1="37" x2="250" y2="37" gradientUnits="userSpaceOnUse">
<stop offset="0.236684" stop-color="#4584CC"/>
<stop offset="1" stop-color="#2B519B"/>
</linearGradient>
<linearGradient id="paint6_linear_475_2668" x1="-13.2691" y1="37" x2="250" y2="37" gradientUnits="userSpaceOnUse">
<stop offset="0.236684" stop-color="#4584CC"/>
<stop offset="1" stop-color="#2B519B"/>
</linearGradient>
<linearGradient id="paint7_linear_475_2668" x1="-13.2691" y1="37" x2="250" y2="37" gradientUnits="userSpaceOnUse">
<stop offset="0.236684" stop-color="#4584CC"/>
<stop offset="1" stop-color="#2B519B"/>
</linearGradient>
<linearGradient id="paint8_linear_475_2668" x1="-13.2691" y1="37" x2="250" y2="37" gradientUnits="userSpaceOnUse">
<stop offset="0.236684" stop-color="#4584CC"/>
<stop offset="1" stop-color="#2B519B"/>
</linearGradient>
<linearGradient id="paint9_linear_475_2668" x1="-13.2691" y1="37" x2="250" y2="37" gradientUnits="userSpaceOnUse">
<stop offset="0.236684" stop-color="#4584CC"/>
<stop offset="1" stop-color="#2B519B"/>
</linearGradient>
<linearGradient id="paint10_linear_475_2668" x1="-13.2691" y1="37" x2="250" y2="37" gradientUnits="userSpaceOnUse">
<stop offset="0.236684" stop-color="#4584CC"/>
<stop offset="1" stop-color="#2B519B"/>
</linearGradient>
<linearGradient id="paint11_linear_475_2668" x1="-13.2691" y1="37" x2="250" y2="37" gradientUnits="userSpaceOnUse">
<stop offset="0.236684" stop-color="#4584CC"/>
<stop offset="1" stop-color="#2B519B"/>
</linearGradient>
<linearGradient id="paint12_linear_475_2668" x1="-13.2691" y1="37" x2="250" y2="37" gradientUnits="userSpaceOnUse">
<stop offset="0.236684" stop-color="#4584CC"/>
<stop offset="1" stop-color="#2B519B"/>
</linearGradient>
<linearGradient id="paint13_linear_475_2668" x1="-13.2691" y1="37" x2="250" y2="37" gradientUnits="userSpaceOnUse">
<stop offset="0.236684" stop-color="#4584CC"/>
<stop offset="1" stop-color="#2B519B"/>
</linearGradient>
</defs>
</svg>
