<svg width="247" height="36" viewBox="0 0 247 36" fill="none" xmlns="http://www.w3.org/2000/svg">
<path fill-rule="evenodd" clip-rule="evenodd" d="M16.5744 0.202819C9.84801 -0.866688 5.91282 2.49688 0.151361 5.52926L0.511647 6.38571C6.28036 4.40596 12.4901 5.50289 18.7982 6.50701C25.245 7.53222 29.6834 6.16105 34.2822 2.39563L33.8733 1.68051C29.4919 3.19196 22.3845 1.12677 16.5744 0.202819Z" fill="url(#paint0_linear_474_4915)"/>
<path fill-rule="evenodd" clip-rule="evenodd" d="M21.4163 14.5186C26.7222 14.6578 30.2226 12.3142 34.1308 9.11306L33.7229 8.399C29.3405 9.91045 22.2342 8.84621 16.4241 7.92226C9.69769 6.85275 5.76353 9.21432 0 12.2478L0.361321 13.1031C4.34517 11.7362 9.9151 12.9597 12.9237 13.3616C15.9323 13.7645 17.3631 14.4121 21.4163 14.5186Z" fill="url(#paint1_linear_474_4915)"/>
<path fill-rule="evenodd" clip-rule="evenodd" d="M13.1749 35.519H21.0525V13.2334H13.1749V35.519Z" fill="url(#paint2_linear_474_4915)"/>
<path fill-rule="evenodd" clip-rule="evenodd" d="M39.0175 35.5191H32.4609V13.0753H39.0175V18.5062C40.1501 14.3252 42.9806 12.5954 45.2459 12.5954C46.8019 12.5954 47.9801 12.8833 49.0185 13.4118L47.8393 19.4196C46.6601 18.8426 45.5275 18.7466 44.4901 18.7466C40.7164 18.7466 39.0175 21.7748 39.0175 27.6856V35.5191Z" fill="url(#paint3_linear_474_4915)"/>
<path fill-rule="evenodd" clip-rule="evenodd" d="M61.7295 29.6084C64.4192 29.6084 67.0602 27.6381 67.0602 24.2735C67.0602 20.9089 64.4192 18.9386 61.7295 18.9386C58.9931 18.9386 56.2102 21.0534 56.2102 24.2735C56.2102 27.4936 58.9931 29.6084 61.7295 29.6084ZM67.0602 32.9719C65.645 35.1342 62.3434 35.9516 60.6445 35.9516C55.03 35.9516 49.4166 31.4826 49.4166 24.2735C49.4166 17.0643 55.03 12.5954 60.6445 12.5954C62.0597 12.5954 65.3623 13.0753 67.0602 15.574V13.0753H73.5702V35.5191H67.0602V32.9719Z" fill="url(#paint4_linear_474_4915)"/>
<path fill-rule="evenodd" clip-rule="evenodd" d="M88.7514 18.891C85.9685 18.891 83.6567 21.0058 83.6567 24.2259C83.6567 27.542 85.9685 29.6568 88.7514 29.6568C91.4887 29.6568 93.8471 27.445 93.8471 24.2259C93.8471 20.8613 91.4411 18.891 88.7514 18.891ZM93.989 35.519V32.7324C92.904 34.7986 90.2619 36 87.5246 36C81.8645 36 76.8651 31.434 76.8651 24.3694C76.8651 17.1613 81.8645 12.5953 87.5246 12.5953C90.2619 12.5953 92.904 13.7481 93.989 15.8144V0.868678H100.499V35.519H93.989Z" fill="url(#paint5_linear_474_4915)"/>
<path fill-rule="evenodd" clip-rule="evenodd" d="M119.95 22.3029C119.62 19.5638 117.167 18.4584 115.325 18.4584C113.488 18.4584 110.986 19.4678 110.42 22.3029H119.95ZM125.327 31.4338C123.11 34.7984 119.006 35.9998 115.279 35.9998C108.958 35.9998 103.768 31.2904 103.768 24.2257C103.768 17.1611 108.958 12.5951 115.279 12.5951C121.554 12.5951 126.554 17.353 126.554 24.4177C126.554 24.9946 126.507 25.907 126.46 26.4839H110.326C110.656 29.0796 113.439 30.2335 115.751 30.2335C117.544 30.2335 119.478 29.5595 120.563 28.1188L125.327 31.4338Z" fill="url(#paint6_linear_474_4915)"/>
<path fill-rule="evenodd" clip-rule="evenodd" d="M153.695 35.5191H148.223L143.882 21.2453L139.731 35.5191H134.259L126.286 13.0753H133.269L137.184 26.4357L141.051 13.0753H146.666L150.534 26.4357L154.449 13.0753H161.431L153.695 35.5191Z" fill="url(#paint7_linear_474_4915)"/>
<path fill-rule="evenodd" clip-rule="evenodd" d="M173.782 29.6084C176.47 29.6084 179.111 27.6381 179.111 24.2735C179.111 20.9089 176.47 18.9386 173.782 18.9386C171.044 18.9386 168.262 21.0534 168.262 24.2735C168.262 27.4936 171.044 29.6084 173.782 29.6084ZM179.111 32.9719C177.696 35.1342 174.395 35.9516 172.697 35.9516C167.082 35.9516 161.468 31.4826 161.468 24.2735C161.468 17.0643 167.082 12.5954 172.697 12.5954C174.111 12.5954 177.414 13.0753 179.111 15.574V13.0753H185.623V35.5191H179.111V32.9719Z" fill="url(#paint8_linear_474_4915)"/>
<path fill-rule="evenodd" clip-rule="evenodd" d="M203.384 13.0755V18.3619H198.761V35.5194H192.251V18.3619H188.242V13.0755H192.251V4.47304H198.761V13.0755H203.384Z" fill="url(#paint9_linear_474_4915)"/>
<path fill-rule="evenodd" clip-rule="evenodd" d="M220.677 22.3029C220.347 19.5638 217.894 18.4584 216.053 18.4584C214.214 18.4584 211.713 19.4678 211.147 22.3029H220.677ZM226.054 31.4338C223.837 34.7984 219.733 35.9998 216.006 35.9998C209.685 35.9998 204.495 31.2904 204.495 24.2257C204.495 17.1611 209.685 12.5951 216.006 12.5951C222.28 12.5951 227.281 17.353 227.281 24.4177C227.281 24.9946 227.233 25.907 227.187 26.4839H211.053C211.383 29.0796 214.166 30.2335 216.478 30.2335C218.271 30.2335 220.205 29.5595 221.29 28.1188L226.054 31.4338Z" fill="url(#paint10_linear_474_4915)"/>
<path fill-rule="evenodd" clip-rule="evenodd" d="M237 35.5191H230.442V13.0753H237V18.5062C238.133 14.3252 240.962 12.5954 243.227 12.5954C244.783 12.5954 245.963 12.8833 247 13.4118L245.822 19.4196C244.642 18.8426 243.51 18.7466 242.473 18.7466C238.699 18.7466 237 21.7748 237 27.6856V35.5191Z" fill="url(#paint11_linear_474_4915)"/>
<defs>
<linearGradient id="paint0_linear_474_4915" x1="0" y1="36" x2="247" y2="36" gradientUnits="userSpaceOnUse">
<stop offset="0.236684" stop-color="#4584CC"/>
<stop offset="1" stop-color="#2B519B"/>
</linearGradient>
<linearGradient id="paint1_linear_474_4915" x1="0" y1="36" x2="247" y2="36" gradientUnits="userSpaceOnUse">
<stop offset="0.236684" stop-color="#4584CC"/>
<stop offset="1" stop-color="#2B519B"/>
</linearGradient>
<linearGradient id="paint2_linear_474_4915" x1="0" y1="36" x2="247" y2="36" gradientUnits="userSpaceOnUse">
<stop offset="0.236684" stop-color="#4584CC"/>
<stop offset="1" stop-color="#2B519B"/>
</linearGradient>
<linearGradient id="paint3_linear_474_4915" x1="0" y1="36" x2="247" y2="36" gradientUnits="userSpaceOnUse">
<stop offset="0.236684" stop-color="#4584CC"/>
<stop offset="1" stop-color="#2B519B"/>
</linearGradient>
<linearGradient id="paint4_linear_474_4915" x1="0" y1="36" x2="247" y2="36" gradientUnits="userSpaceOnUse">
<stop offset="0.236684" stop-color="#4584CC"/>
<stop offset="1" stop-color="#2B519B"/>
</linearGradient>
<linearGradient id="paint5_linear_474_4915" x1="0" y1="36" x2="247" y2="36" gradientUnits="userSpaceOnUse">
<stop offset="0.236684" stop-color="#4584CC"/>
<stop offset="1" stop-color="#2B519B"/>
</linearGradient>
<linearGradient id="paint6_linear_474_4915" x1="0" y1="36" x2="247" y2="36" gradientUnits="userSpaceOnUse">
<stop offset="0.236684" stop-color="#4584CC"/>
<stop offset="1" stop-color="#2B519B"/>
</linearGradient>
<linearGradient id="paint7_linear_474_4915" x1="0" y1="36" x2="247" y2="36" gradientUnits="userSpaceOnUse">
<stop offset="0.236684" stop-color="#4584CC"/>
<stop offset="1" stop-color="#2B519B"/>
</linearGradient>
<linearGradient id="paint8_linear_474_4915" x1="0" y1="36" x2="247" y2="36" gradientUnits="userSpaceOnUse">
<stop offset="0.236684" stop-color="#4584CC"/>
<stop offset="1" stop-color="#2B519B"/>
</linearGradient>
<linearGradient id="paint9_linear_474_4915" x1="0" y1="36" x2="247" y2="36" gradientUnits="userSpaceOnUse">
<stop offset="0.236684" stop-color="#4584CC"/>
<stop offset="1" stop-color="#2B519B"/>
</linearGradient>
<linearGradient id="paint10_linear_474_4915" x1="0" y1="36" x2="247" y2="36" gradientUnits="userSpaceOnUse">
<stop offset="0.236684" stop-color="#4584CC"/>
<stop offset="1" stop-color="#2B519B"/>
</linearGradient>
<linearGradient id="paint11_linear_474_4915" x1="0" y1="36" x2="247" y2="36" gradientUnits="userSpaceOnUse">
<stop offset="0.236684" stop-color="#4584CC"/>
<stop offset="1" stop-color="#2B519B"/>
</linearGradient>
</defs>
</svg>
